<svg width="244" height="66" viewBox="0 0 244 66" fill="none" xmlns="http://www.w3.org/2000/svg">
<path d="M92.1993 20.5109C91.4395 20.0161 90.927 19.5832 90.6619 19.2121C90.3968 18.8586 90.5029 18.5317 90.98 18.2313C91.086 18.1606 91.2539 18.2224 91.4836 18.4168C91.731 18.5936 91.9343 18.7614 92.0933 18.9205C92.4467 19.2386 92.8797 19.433 93.3922 19.5036C93.9223 19.592 94.5143 19.5478 95.1682 19.3711C95.9104 19.1414 96.5554 18.8233 97.1032 18.4168C97.6687 17.9927 98.1988 17.4802 98.6937 16.8794C99.0648 16.4023 99.321 15.8898 99.4624 15.342C99.6037 14.7765 99.6568 14.2552 99.6214 13.778C99.6037 13.3009 99.5065 12.9651 99.3298 12.7708C98.888 12.1523 98.2695 11.7281 97.4743 11.4984C96.6968 11.251 95.7778 11.2687 94.7175 11.5514C94.5938 11.5691 94.4083 11.6044 94.1609 11.6574C93.9135 11.7105 93.6926 11.7635 93.4982 11.8165C93.3038 11.8518 93.1978 11.8695 93.1801 11.8695C93.0564 11.9049 92.9592 11.949 92.8885 12.002C92.8178 12.0374 92.7295 12.1699 92.6235 12.3997C92.5351 12.6117 92.3937 13.0005 92.1993 13.566C92.005 14.1138 91.7134 14.9267 91.3246 16.0047C90.9535 17.0826 90.6531 17.8513 90.4233 18.3108C90.2113 18.7526 90.0169 18.9558 89.8402 18.9205C89.6811 18.8675 89.4779 18.6731 89.2305 18.3373C89.0891 18.0899 89.0008 17.8513 88.9654 17.6216C88.9301 17.3742 89.0008 17.0915 89.1775 16.7734C89.2659 16.6143 89.3365 16.473 89.3896 16.3493C89.4426 16.2079 89.5133 15.9693 89.6016 15.6336C89.69 15.3685 89.8579 14.909 90.1053 14.2552C90.3703 13.5837 90.6796 12.8061 91.033 11.9225C91.3864 11.0213 91.7575 10.0935 92.1463 9.13924C92.5351 8.18498 92.9062 7.28373 93.2596 6.43549C93.6307 5.58725 93.94 4.87155 94.1874 4.28839C94.4348 3.74057 94.585 3.34296 94.638 3.09556C94.691 2.84815 94.6734 2.71562 94.585 2.69794C94.585 2.60959 94.5585 2.53006 94.5055 2.45938C94.4525 2.37102 94.4348 2.2915 94.4525 2.22081C94.4525 2.15012 94.5673 2.05293 94.7971 1.92923C95.0445 1.80553 95.3095 1.69066 95.5923 1.58463C95.8927 1.4786 96.1224 1.44326 96.2815 1.4786C96.3698 1.4786 96.4759 1.4786 96.5996 1.4786C96.7233 1.46093 96.7851 1.41675 96.7851 1.34607C96.8381 1.34607 97.006 1.3284 97.2888 1.29305C97.5715 1.25771 97.8808 1.25771 98.2165 1.29305C99.4005 1.39908 100.319 1.74368 100.973 2.32684C101.627 2.89233 101.945 3.66988 101.928 4.65949C101.91 4.95991 101.751 5.36636 101.45 5.87883C101.168 6.39131 100.814 6.90379 100.39 7.41626C99.9837 7.92874 99.5861 8.36169 99.1973 8.71513C98.9676 8.90951 98.7202 9.11274 98.4551 9.3248C98.2077 9.51918 97.9868 9.68706 97.7924 9.82844C97.6157 9.95214 97.5273 10.014 97.5273 10.014C97.5273 10.014 97.598 10.0405 97.7394 10.0935C97.8808 10.1465 98.031 10.1995 98.19 10.2526C99.0029 10.553 99.6744 10.9329 100.205 11.3924C100.735 11.8518 101.097 12.488 101.291 13.3009C101.362 13.566 101.362 13.8929 101.291 14.2817C101.238 14.6705 101.159 15.0592 101.053 15.448C100.947 15.8191 100.832 16.1372 100.708 16.4023C100.585 16.526 100.487 16.6585 100.417 16.7999C100.346 16.9236 100.311 16.9854 100.311 16.9854C100.311 17.0208 100.24 17.1622 100.099 17.4096C99.9572 17.6393 99.7893 17.8955 99.5949 18.1783C99.4005 18.461 99.215 18.7084 99.0382 18.9205C98.8615 19.0619 98.6495 19.2297 98.4021 19.4241C98.1723 19.6185 97.9073 19.8041 97.6068 19.9808C97.3241 20.1575 97.0149 20.3077 96.6791 20.4314C96.1843 20.6435 95.6453 20.7848 95.0621 20.8555C94.4966 20.9439 93.9577 20.9527 93.4452 20.882C92.9327 20.829 92.5174 20.7053 92.1993 20.5109ZM93.4982 10.3056C93.4982 10.3056 93.6572 10.2791 93.9753 10.226C94.3111 10.1554 94.6734 10.0847 95.0621 10.014C95.4509 9.92563 95.7337 9.84611 95.9104 9.77542C95.9987 9.72241 96.1224 9.65172 96.2815 9.56336C96.4582 9.475 96.6349 9.34247 96.8116 9.16575C97.059 8.93602 97.3683 8.6091 97.7394 8.18498C98.1282 7.74319 98.5081 7.28373 98.8792 6.80659C99.2503 6.31179 99.5331 5.87 99.7274 5.48122C100.134 4.84504 100.355 4.37675 100.39 4.07633C100.425 3.75824 100.328 3.48433 100.099 3.2546C99.9395 3.06021 99.6656 2.93651 99.2768 2.8835C98.9057 2.81281 98.5081 2.79514 98.084 2.83048C97.6599 2.84815 97.2976 2.90117 96.9972 2.98953C96.7674 3.06021 96.5907 3.14857 96.467 3.2546C96.3433 3.34296 96.2815 3.48433 96.2815 3.67872C96.2815 3.83776 96.2285 3.99681 96.1224 4.15585C96.0341 4.29722 95.9457 4.41209 95.8574 4.50045C95.8397 4.62415 95.7955 4.73901 95.7248 4.84504C95.6541 4.9334 95.6188 4.97758 95.6188 4.97758C95.6188 5.04827 95.4951 5.33985 95.2477 5.85233C95.0003 6.3648 94.7529 6.9568 94.5055 7.62832C94.1874 8.3882 93.94 9.00671 93.7633 9.48384C93.5866 9.9433 93.4982 10.2172 93.4982 10.3056ZM107.853 18.0722C107.482 18.3903 107.049 18.5759 106.554 18.6289C106.077 18.6819 105.608 18.6112 105.149 18.4168C104.69 18.2048 104.31 17.8867 104.009 17.4626C103.709 17.0738 103.514 16.632 103.426 16.1372C103.338 15.6247 103.329 14.962 103.4 14.1491C103.453 13.46 103.673 12.7708 104.062 12.0816C104.451 11.3747 104.919 10.7474 105.467 10.1995C106.033 9.65172 106.589 9.27178 107.137 9.05972C107.402 8.88301 107.623 8.80348 107.8 8.82116C107.994 8.82116 108.286 8.83883 108.675 8.87417C109.081 8.92719 109.381 9.00671 109.576 9.11274C109.788 9.21877 109.956 9.36014 110.079 9.53686C110.344 9.80193 110.521 10.067 110.61 10.3321C110.698 10.5795 110.742 10.8269 110.742 11.0743C110.671 11.4631 110.406 11.9402 109.947 12.5057C109.505 13.0535 108.922 13.5041 108.197 13.8576C107.809 13.9813 107.384 14.0343 106.925 14.0166C106.466 13.9989 106.086 13.8841 105.785 13.672C105.449 13.5306 105.229 13.5571 105.123 13.7515C105.016 13.9282 104.919 14.37 104.831 15.0769C104.76 15.7484 104.813 16.2432 104.99 16.5613C105.167 16.8617 105.405 17.0385 105.706 17.0915C106.059 17.1622 106.333 17.2152 106.527 17.2505C106.739 17.2682 106.996 17.1887 107.296 17.0119C107.579 16.8352 107.756 16.738 107.826 16.7204C107.897 16.685 107.95 16.6497 107.985 16.6143C108.038 16.5613 108.153 16.4465 108.33 16.2697C108.454 16.146 108.551 16.0577 108.622 16.0047C108.692 15.934 108.772 15.8986 108.86 15.8986C108.948 15.8986 109.028 15.9428 109.099 16.0312C109.169 16.1019 109.24 16.1549 109.311 16.1902C109.487 16.1902 109.523 16.2962 109.417 16.5083C109.328 16.7204 109.143 16.9766 108.86 17.277C108.577 17.5598 108.242 17.8248 107.853 18.0722ZM107.826 12.4527C108.021 12.3643 108.224 12.2406 108.436 12.0816C108.648 11.9049 108.825 11.7193 108.966 11.5249C109.125 11.3129 109.205 11.1361 109.205 10.9948C109.205 10.7474 109.09 10.5441 108.86 10.3851C108.63 10.2084 108.286 10.1819 107.826 10.3056C107.632 10.3586 107.411 10.4911 107.164 10.7032C106.916 10.8976 106.678 11.1185 106.448 11.3659C106.236 11.6133 106.059 11.8342 105.918 12.0286C105.794 12.2229 105.75 12.3378 105.785 12.3731C105.838 12.4615 105.988 12.5322 106.236 12.5852C106.483 12.6206 106.757 12.6294 107.058 12.6117C107.376 12.594 107.632 12.541 107.826 12.4527ZM113.133 18.1783C112.868 18.1429 112.638 17.9574 112.444 17.6216C112.267 17.2682 112.161 16.9501 112.126 16.6673C112.143 16.526 112.161 16.3228 112.179 16.0577C112.214 15.7926 112.249 15.5187 112.285 15.2359C112.355 14.9002 112.453 14.4937 112.576 14.0166C112.7 13.5218 112.824 13.027 112.947 12.5322C113.089 12.0374 113.212 11.6133 113.318 11.2598C113.425 10.9064 113.495 10.6943 113.531 10.6237C113.619 10.4823 113.76 10.4469 113.955 10.5176C114.149 10.5883 114.308 10.6943 114.432 10.8357C114.538 10.9771 114.6 11.145 114.617 11.3394C114.653 11.5337 114.626 11.8165 114.538 12.1876C114.467 12.5587 114.326 13.1065 114.114 13.8311C113.919 14.5379 113.769 15.1122 113.663 15.554C113.575 15.9782 113.539 16.4288 113.557 16.9059C113.486 17.5067 113.433 17.8779 113.398 18.0192C113.363 18.1429 113.274 18.1959 113.133 18.1783ZM116.181 7.60182C116.111 7.65483 116.04 7.68134 115.969 7.68134C115.916 7.66367 115.819 7.61065 115.678 7.52229C115.554 7.50462 115.395 7.4251 115.201 7.28373C115.024 7.12468 114.865 6.96564 114.723 6.80659C114.6 6.62988 114.538 6.52385 114.538 6.4885C114.52 6.31179 114.529 6.09089 114.564 5.82582C114.617 5.54307 114.715 5.29567 114.856 5.08361C114.997 4.85388 115.201 4.73018 115.466 4.71251C115.536 4.71251 115.598 4.72134 115.651 4.73901C115.704 4.75669 115.863 4.81854 116.128 4.92457C116.27 5.18964 116.411 5.49006 116.552 5.82582C116.694 6.14391 116.756 6.462 116.738 6.78009C116.72 7.0805 116.535 7.35441 116.181 7.60182ZM126.135 17.7807C125.782 17.7807 125.49 17.71 125.261 17.5686C125.031 17.4096 124.837 17.1533 124.678 16.7999C124.607 16.5525 124.545 16.2786 124.492 15.9782C124.457 15.6601 124.439 15.3685 124.439 15.1034C124.439 14.8207 124.465 14.6351 124.518 14.5468C124.589 14.4761 124.616 14.3524 124.598 14.1757C124.598 13.9813 124.598 13.778 124.598 13.566C124.58 13.2125 124.492 13.0182 124.333 12.9828C124.192 12.9298 123.98 12.9828 123.697 13.1419C123.379 13.3363 122.963 13.6013 122.451 13.9371C121.938 14.2552 121.399 14.6086 120.834 14.9974C120.286 15.3862 119.765 15.7926 119.27 16.2167C118.881 16.6408 118.643 16.9678 118.554 17.1975C118.484 17.4096 118.378 17.5156 118.236 17.5156C118.095 17.5863 117.971 17.5951 117.865 17.5421C117.777 17.4714 117.644 17.3654 117.468 17.224C117.344 17.0826 117.22 16.9501 117.096 16.8264C116.973 16.685 116.893 16.579 116.858 16.5083C116.858 16.4199 116.884 16.2344 116.937 15.9516C116.99 15.6689 117.052 15.3862 117.123 15.1034C117.211 14.8207 117.273 14.6351 117.308 14.5468C117.397 14.5468 117.468 14.4584 117.521 14.2817C117.591 14.105 117.697 13.9106 117.839 13.6985C117.874 13.4865 117.962 13.2037 118.104 12.8503C118.263 12.4792 118.404 12.1523 118.528 11.8695C118.775 11.4454 118.943 11.092 119.031 10.8092C119.137 10.5265 119.208 10.173 119.244 9.74892C119.226 9.67823 119.244 9.61638 119.297 9.56336C119.35 9.49268 119.411 9.45733 119.482 9.45733C119.623 9.31596 119.791 9.28062 119.986 9.3513C120.18 9.40432 120.357 9.53686 120.516 9.74892C120.834 10.173 120.958 10.6148 120.887 11.0743C120.834 11.5161 120.551 12.1523 120.039 12.9828C119.915 13.2656 119.818 13.4865 119.747 13.6455C119.694 13.7869 119.668 13.9017 119.668 13.9901C119.668 13.9901 119.756 13.9282 119.933 13.8045C120.127 13.6808 120.339 13.5395 120.569 13.3804C120.816 13.2037 121.011 13.0712 121.152 12.9828C121.24 12.8945 121.444 12.7354 121.762 12.5057C122.08 12.276 122.416 12.0551 122.769 11.843C123.14 11.6133 123.414 11.4807 123.591 11.4454C123.732 11.3747 123.882 11.3129 124.041 11.2598C124.2 11.1892 124.315 11.1538 124.386 11.1538C124.527 11.1538 124.704 11.2333 124.916 11.3924C125.146 11.5337 125.358 11.7105 125.552 11.9225C125.747 12.1169 125.862 12.2848 125.897 12.4262C125.897 12.4968 125.897 12.5675 125.897 12.6382C125.915 12.7089 125.932 12.7796 125.95 12.8503C126.021 13.08 126.056 13.3893 126.056 13.778C126.074 14.1668 126.065 14.5202 126.029 14.8383C125.994 15.1564 125.932 15.342 125.844 15.395C125.844 15.395 125.844 15.4215 125.844 15.4745C125.862 15.5099 125.906 15.5275 125.976 15.5275C125.976 15.5982 125.976 15.6424 125.976 15.6601C125.888 15.6601 125.853 15.7396 125.87 15.8986C125.888 16.04 125.941 16.1991 126.029 16.3758C126.135 16.5525 126.241 16.6939 126.348 16.7999C126.56 17.0119 126.648 17.2152 126.613 17.4096C126.577 17.5863 126.418 17.71 126.135 17.7807ZM130.965 23.9834C130.771 24.0011 130.47 23.9569 130.064 23.8509C129.675 23.7448 129.383 23.6476 129.189 23.5593C128.959 23.3826 128.73 23.144 128.5 22.8436C128.27 22.5432 128.084 22.2339 127.943 21.9158C127.819 21.6154 127.766 21.3857 127.784 21.2266C127.802 21.0852 127.934 21.0587 128.182 21.1471C128.447 21.2355 128.623 21.3503 128.712 21.4917C128.871 21.6861 129.056 21.8716 129.268 22.0484C129.481 22.2251 129.693 22.3576 129.905 22.446C130.117 22.552 130.285 22.5962 130.408 22.5785C130.85 22.5078 131.212 22.2869 131.495 21.9158C131.796 21.5624 132.061 21.1118 132.29 20.5639C132.432 20.1752 132.538 19.8482 132.608 19.5832C132.697 19.3358 132.776 19.053 132.847 18.7349C132.935 18.4168 133.041 17.975 133.165 17.4096C133.324 16.7734 133.43 16.3228 133.483 16.0577C133.554 15.7749 133.589 15.5894 133.589 15.501C133.589 15.4127 133.563 15.3508 133.51 15.3155C133.51 15.3155 133.395 15.3773 133.165 15.501C132.935 15.6247 132.679 15.7573 132.396 15.8986C132.131 16.04 131.928 16.1549 131.787 16.2432C131.292 16.4023 130.806 16.4995 130.329 16.5348C129.852 16.5702 129.481 16.5436 129.215 16.4553C129.092 16.4023 128.959 16.2786 128.818 16.0842C128.694 15.8898 128.588 15.6777 128.5 15.448C128.429 15.2006 128.403 14.9885 128.42 14.8118C128.438 14.6705 128.517 14.4584 128.659 14.1757C128.8 13.8929 128.959 13.5925 129.136 13.2744C129.33 12.9563 129.498 12.6912 129.64 12.4792C129.799 12.2494 129.896 12.1346 129.931 12.1346C130.002 12.1346 130.037 12.1081 130.037 12.0551C130.055 12.002 130.064 11.9402 130.064 11.8695C130.081 11.7988 130.214 11.6486 130.461 11.4189C130.726 11.1715 131.08 10.8711 131.522 10.5176C132.14 9.95214 132.697 9.51918 133.192 9.21877C133.686 8.91835 134.146 8.75047 134.57 8.71513C134.694 8.7328 134.809 8.74163 134.915 8.74163C135.038 8.74163 135.1 8.74163 135.1 8.74163C135.1 8.74163 135.153 8.77698 135.259 8.84766C135.383 8.90068 135.542 8.97136 135.736 9.05972C136.001 9.16575 136.24 9.3513 136.452 9.61638C136.664 9.86378 136.832 10.1554 136.956 10.4911C137.097 10.8092 137.177 11.1273 137.194 11.4454C137.177 11.8342 137.088 12.2141 136.929 12.5852C136.788 12.9563 136.646 13.133 136.505 13.1154C136.364 13.0977 136.187 13.1595 135.975 13.3009C135.78 13.4423 135.683 13.5483 135.683 13.619C135.683 13.6897 135.657 13.778 135.604 13.8841C135.568 13.9901 135.454 14.158 135.259 14.3877C135.241 14.4761 135.188 14.7146 135.1 15.1034C135.029 15.4745 134.941 15.8986 134.835 16.3758C134.729 16.8529 134.632 17.2859 134.543 17.6746C134.473 18.0457 134.429 18.2843 134.411 18.3903C134.393 18.461 134.349 18.6201 134.278 18.8675C134.225 19.0972 134.146 19.3623 134.04 19.6627C133.951 19.9631 133.854 20.2458 133.748 20.5109C133.678 21.0234 133.58 21.4033 133.457 21.6507C133.351 21.9158 133.174 22.1986 132.927 22.499C132.661 22.9408 132.343 23.2854 131.972 23.5328C131.601 23.7978 131.265 23.948 130.965 23.9834ZM129.878 15.0769C129.914 15.2536 130.152 15.3155 130.594 15.2625C131.036 15.1918 131.477 15.0416 131.919 14.8118C132.308 14.6174 132.661 14.4584 132.98 14.3347C133.298 14.211 133.519 14.0343 133.642 13.8045C133.748 13.6278 133.837 13.4511 133.907 13.2744C133.978 13.0977 134.066 12.8414 134.172 12.5057C134.19 12.435 134.234 12.3555 134.305 12.2671C134.393 12.1611 134.473 12.0992 134.543 12.0816C134.614 12.0639 134.685 12.0639 134.756 12.0816C134.844 12.0992 134.95 12.1346 135.074 12.1876C135.162 12.1523 135.224 12.0639 135.259 11.9225C135.312 11.7811 135.321 11.6221 135.286 11.4454C135.268 11.3217 135.18 11.1538 135.021 10.9417C134.862 10.7297 134.658 10.5618 134.411 10.4381C134.146 10.2967 133.837 10.3851 133.483 10.7032C133.13 11.0213 132.697 11.41 132.184 11.8695C131.778 12.2406 131.389 12.6294 131.018 13.0358C130.647 13.4423 130.346 13.8222 130.117 14.1757C129.905 14.5291 129.825 14.8295 129.878 15.0769ZM146.913 20.3254C146.33 20.237 145.933 20.0161 145.72 19.6627C145.526 19.3269 145.482 18.8056 145.588 18.0987C145.694 17.763 145.756 17.4626 145.773 17.1975C145.809 16.9148 145.888 16.738 146.012 16.6673C146.012 16.6673 146.021 16.6408 146.039 16.5878C146.074 16.5348 146.065 16.4818 146.012 16.4288C146.012 16.1991 146.092 15.881 146.251 15.4745C146.286 15.3685 146.33 15.2448 146.383 15.1034C146.454 14.9444 146.489 14.8648 146.489 14.8648C146.401 14.7235 146.401 14.6086 146.489 14.5202C146.578 14.4319 146.666 14.3524 146.754 14.2817C146.86 14.1933 146.869 14.0961 146.781 13.9901C146.745 13.9194 146.79 13.7604 146.913 13.513C147.037 13.2479 147.178 12.974 147.337 12.6912C147.496 12.4085 147.603 12.1876 147.656 12.0286C147.656 11.9932 147.7 11.8695 147.788 11.6574C147.876 11.4454 147.982 11.198 148.106 10.9152C148.23 10.6325 148.345 10.3763 148.451 10.1465C148.574 9.9168 148.654 9.76659 148.689 9.6959C148.866 9.60754 148.795 9.54569 148.477 9.51035C148.159 9.47501 147.823 9.46617 147.47 9.48384C146.922 9.46617 146.48 9.43966 146.145 9.40432C145.827 9.36898 145.561 9.28945 145.349 9.16575C145.137 8.91835 145.058 8.74163 145.111 8.6356C145.182 8.5119 145.394 8.44122 145.747 8.42354C145.977 8.40587 146.153 8.39704 146.277 8.39704C146.419 8.39704 146.595 8.3882 146.807 8.37053C147.037 8.33519 147.39 8.29101 147.868 8.23799L149.219 8.13196L149.299 7.68134C149.44 7.45161 149.555 7.24838 149.644 7.07167C149.75 6.87728 149.838 6.68289 149.909 6.4885C149.979 6.29412 150.032 6.09089 150.068 5.87883C150.068 5.87883 150.147 5.73746 150.306 5.45471C150.465 5.1543 150.563 4.84505 150.598 4.52696C150.81 4.17352 150.995 3.85543 151.155 3.57269C151.314 3.27227 151.411 3.08672 151.446 3.01603C151.64 2.85699 151.773 2.77747 151.844 2.77747C151.932 2.77747 152.109 2.86582 152.374 3.04254C152.533 3.1309 152.674 3.23693 152.798 3.36063C152.922 3.48433 153.001 3.61687 153.037 3.75824C153.072 3.88194 153.019 4.00564 152.877 4.12934C152.842 4.20003 152.789 4.33257 152.718 4.52696C152.648 4.70367 152.595 4.85388 152.559 4.97758C152.453 5.10128 152.321 5.30451 152.162 5.58725C152.02 5.85233 151.923 6.12624 151.87 6.40898C151.729 6.7094 151.596 6.98331 151.473 7.23071C151.349 7.46044 151.252 7.57531 151.181 7.57531C151.216 7.75202 151.322 7.84038 151.499 7.84038C151.676 7.82271 151.967 7.80504 152.374 7.78737C152.71 7.75202 152.939 7.71668 153.063 7.68134C153.204 7.62832 153.363 7.64599 153.54 7.73435C153.629 7.85805 153.699 7.99943 153.752 8.15847C153.805 8.31752 153.814 8.46772 153.779 8.6091C153.761 8.7328 153.69 8.82116 153.567 8.87417C153.478 8.87417 153.293 8.92718 153.01 9.03321C152.745 9.12157 152.409 9.17459 152.003 9.19226L150.598 9.3248L150.147 10.226C150.024 10.4558 149.917 10.6678 149.829 10.8622C149.741 11.0389 149.679 11.145 149.644 11.1803C149.644 11.2863 149.582 11.4454 149.458 11.6574C149.352 11.8695 149.237 12.0992 149.113 12.3466C149.007 12.6471 148.884 12.921 148.742 13.1684C148.619 13.4158 148.557 13.5395 148.557 13.5395C148.486 13.5395 148.451 13.5925 148.451 13.6985C148.539 13.9106 148.513 14.0696 148.371 14.1757C148.283 14.2287 148.203 14.3082 148.133 14.4142C148.08 14.5026 148.053 14.5468 148.053 14.5468C148.124 14.6174 148.133 14.7058 148.08 14.8118C148.044 14.9179 147.991 15.0327 147.921 15.1564C147.921 15.2978 147.876 15.501 147.788 15.7661C147.717 16.0312 147.638 16.2786 147.549 16.5083C147.567 16.8264 147.585 17.0296 147.603 17.118C147.62 17.2063 147.664 17.2417 147.735 17.224C147.823 17.2417 147.903 17.2417 147.974 17.224C148.044 17.2063 148.115 17.1975 148.186 17.1975C148.433 17.0915 148.301 17.71 147.788 19.053C147.505 19.4948 147.311 19.8129 147.205 20.0073C147.099 20.2193 147.002 20.3254 146.913 20.3254ZM154.257 17.5686C154.134 17.5863 154.001 17.5863 153.86 17.5686C153.736 17.5333 153.612 17.4714 153.489 17.383C153.347 17.2417 153.25 17.1356 153.197 17.065C153.144 16.9766 153.126 16.8441 153.144 16.6673C153.179 16.4906 153.241 16.2167 153.33 15.8456C153.418 15.5629 153.524 15.1741 153.648 14.6793C153.771 14.1668 153.904 13.6632 154.045 13.1684C154.098 12.8856 154.169 12.594 154.257 12.2936C154.363 11.9932 154.469 11.7193 154.575 11.4719C154.681 11.2068 154.761 11.0036 154.814 10.8622C154.955 10.3674 155.088 9.93447 155.212 9.56336C155.353 9.19226 155.521 8.76814 155.715 8.29101C155.91 7.7962 156.148 7.14235 156.431 6.32946C156.82 5.26916 157.111 4.4651 157.306 3.91729C157.518 3.35179 157.668 2.94535 157.756 2.69794C157.862 2.43287 157.933 2.22965 157.968 2.08827C157.968 1.9469 158.004 1.84087 158.074 1.77018C158.163 1.6995 158.269 1.66416 158.392 1.66416C158.64 1.66416 158.834 1.78786 158.976 2.03526C159.135 2.26499 159.232 2.54774 159.267 2.8835C159.303 3.20158 159.25 3.502 159.108 3.78475C158.825 4.42093 158.525 5.1808 158.207 6.06438C157.889 6.93029 157.58 7.78737 157.279 8.6356C156.979 9.46617 156.696 10.173 156.431 10.7562C156.431 10.8269 156.404 10.9506 156.351 11.1273C156.298 11.304 156.237 11.4631 156.166 11.6044C156.095 11.7458 156.024 11.8783 155.954 12.002C155.901 12.1257 155.874 12.1876 155.874 12.1876C155.874 12.2583 155.848 12.3908 155.795 12.5852C155.742 12.7796 155.671 13.0182 155.583 13.3009C155.512 13.513 155.424 13.7869 155.318 14.1226C155.229 14.4584 155.167 14.7411 155.132 14.9709C155.22 14.8118 155.406 14.5733 155.689 14.2552C155.971 13.9371 156.237 13.6632 156.484 13.4334C156.767 13.186 157.085 12.9121 157.438 12.6117C157.792 12.3113 158.074 12.0904 158.286 11.949C158.499 11.8077 158.684 11.684 158.843 11.5779C159.02 11.4542 159.108 11.3924 159.108 11.3924C159.108 11.3217 159.135 11.2863 159.188 11.2863C159.258 11.2687 159.329 11.2598 159.4 11.2598C159.47 11.2598 159.506 11.251 159.506 11.2333C159.523 11.2157 159.532 11.1715 159.532 11.1008C159.532 11.0124 159.629 10.9329 159.824 10.8622C160.036 10.7915 160.275 10.7385 160.54 10.7032C160.822 10.6502 161.052 10.6237 161.229 10.6237C161.441 10.6237 161.609 10.6678 161.732 10.7562C161.856 10.8446 162.015 11.0389 162.21 11.3394C162.422 11.6221 162.554 11.9667 162.607 12.3731C162.678 12.7619 162.642 13.1684 162.501 13.5925C162.501 13.7339 162.475 13.9371 162.422 14.2022C162.386 14.4496 162.369 14.7146 162.369 14.9974L162.21 15.8456H162.634C162.775 15.8456 162.908 15.8721 163.031 15.9251C163.155 15.9605 163.217 15.9782 163.217 15.9782C163.288 16.0488 163.358 16.1195 163.429 16.1902C163.5 16.2432 163.57 16.2697 163.641 16.2697C163.853 16.2697 163.933 16.3581 163.88 16.5348C163.826 16.6939 163.694 16.8441 163.482 16.9854C163.058 17.2682 162.669 17.4096 162.316 17.4096C161.98 17.4096 161.671 17.2682 161.388 16.9854C161.105 16.685 160.928 16.3493 160.858 15.9782C160.787 15.6071 160.822 15.1388 160.964 14.5733C161.034 13.7957 161.07 13.2302 161.07 12.8768C161.087 12.5057 160.999 12.3201 160.805 12.3201C160.628 12.3201 160.319 12.4438 159.877 12.6912C159.435 12.921 158.94 13.2391 158.392 13.6455C157.845 14.052 157.306 14.5026 156.776 14.9974C156.245 15.4922 155.804 16.0047 155.45 16.5348C155.238 16.7999 155.035 17.0385 154.84 17.2505C154.646 17.4449 154.452 17.5509 154.257 17.5686ZM167.454 18.3638C166.765 18.0811 166.315 17.6923 166.103 17.1975C165.908 16.685 165.873 15.8986 165.997 14.8383C166.032 14.2905 166.05 13.9282 166.05 13.7515C166.05 13.5748 165.952 13.3981 165.758 13.2214C165.705 13.1507 165.608 13.0535 165.466 12.9298C165.343 12.8061 165.29 12.7001 165.307 12.6117C165.29 12.488 165.299 12.3555 165.334 12.2141C165.369 12.0551 165.422 11.9755 165.493 11.9755C165.564 11.9755 165.634 11.9579 165.705 11.9225C165.793 11.8872 165.873 11.8872 165.944 11.9225C166.014 11.9225 166.094 11.9314 166.182 11.949C166.27 11.9667 166.315 12.0109 166.315 12.0816C166.385 12.2053 166.5 12.2229 166.659 12.1346C166.818 12.0286 166.986 11.7988 167.163 11.4454C167.34 11.1626 167.569 10.8799 167.852 10.5972C168.153 10.3144 168.444 10.0582 168.727 9.82844C169.027 9.58103 169.275 9.40432 169.469 9.29829C169.557 9.26295 169.69 9.21877 169.867 9.16575C170.043 9.11274 170.229 9.06856 170.423 9.03321C170.635 8.99787 170.812 8.98904 170.953 9.00671C171.272 9.02438 171.537 9.11274 171.749 9.27178C171.978 9.43083 172.19 9.61638 172.385 9.82844C172.615 9.98748 172.756 10.1995 172.809 10.4646C172.88 10.7297 172.897 11.0124 172.862 11.3129C172.827 11.6133 172.747 11.8872 172.623 12.1346C172.57 12.3113 172.42 12.5234 172.173 12.7708C171.925 13.0182 171.643 13.2567 171.325 13.4865C171.006 13.7162 170.715 13.8841 170.45 13.9901C170.22 14.0431 169.92 14.0873 169.549 14.1226C169.195 14.158 168.859 14.1757 168.541 14.1757C168.241 14.158 168.038 14.1226 167.932 14.0696C167.808 13.9989 167.711 14.0961 167.64 14.3612C167.569 14.6263 167.516 15.0062 167.481 15.501C167.446 15.8898 167.446 16.1725 167.481 16.3493C167.516 16.526 167.552 16.6497 167.587 16.7204C167.711 16.8441 167.879 17.0031 168.091 17.1975C168.32 17.3742 168.638 17.4007 169.045 17.277C169.381 17.1887 169.708 16.9589 170.026 16.5878C170.361 16.2167 170.671 15.9163 170.953 15.6866C171.024 15.5629 171.139 15.4922 171.298 15.4745C171.475 15.4392 171.66 15.448 171.855 15.501C172.049 15.6247 172.129 15.7749 172.093 15.9516C172.076 16.1107 171.987 16.3581 171.828 16.6939C171.775 16.8176 171.651 16.9766 171.457 17.171C171.28 17.3477 171.077 17.5333 170.847 17.7276C170.635 17.9044 170.441 18.0457 170.264 18.1518C169.734 18.4345 169.239 18.5847 168.78 18.6024C168.32 18.6024 167.879 18.5229 167.454 18.3638ZM169.018 12.9828C169.407 12.8945 169.716 12.8326 169.946 12.7973C170.176 12.7619 170.397 12.6647 170.609 12.5057C170.821 12.329 171.086 12.002 171.404 11.5249C171.475 11.3305 171.492 11.1361 171.457 10.9417C171.439 10.7474 171.395 10.6148 171.325 10.5441C171.166 10.3674 170.971 10.3144 170.741 10.3851C170.529 10.4381 170.326 10.5353 170.132 10.6767C170.008 10.7297 169.822 10.8622 169.575 11.0743C169.345 11.2687 169.116 11.4984 168.886 11.7635C168.656 12.0109 168.471 12.2406 168.329 12.4527C168.188 12.6647 168.153 12.7884 168.223 12.8238C168.188 12.8945 168.285 12.9386 168.515 12.9563C168.762 12.974 168.93 12.9828 169.018 12.9828ZM182.706 18.2048C182.477 18.2578 182.265 18.2578 182.07 18.2048C181.876 18.1518 181.699 18.0634 181.54 17.9397C181.381 17.816 181.24 17.6923 181.116 17.5686C180.992 17.4272 180.957 17.3035 181.01 17.1975C181.063 17.0738 181.151 17.0119 181.275 17.0119C181.346 17.0119 181.39 16.9413 181.408 16.7999C181.443 16.6408 181.478 16.3581 181.514 15.9516C181.549 15.7042 181.593 15.4922 181.646 15.3155C181.717 15.1211 181.752 14.9885 181.752 14.9179C181.77 14.8648 181.787 14.7235 181.805 14.4937C181.84 14.2463 181.894 14.0343 181.964 13.8576C182.035 13.5395 182.141 13.133 182.282 12.6382C182.424 12.1257 182.565 11.6309 182.706 11.1538C182.865 10.659 182.989 10.2791 183.077 10.014C183.113 9.8196 183.192 9.5722 183.316 9.27178C183.44 8.97136 183.546 8.7328 183.634 8.55608C183.811 8.06128 184.041 7.46928 184.323 6.78009C184.624 6.09089 184.924 5.4017 185.225 4.71251C185.525 4.02332 185.79 3.44015 186.02 2.96302C186.267 2.46821 186.426 2.1678 186.497 2.06177C186.638 1.92039 186.806 1.85854 187.001 1.87621C187.213 1.89389 187.416 1.99992 187.61 2.1943C187.769 2.38869 187.84 2.60075 187.822 2.83048C187.805 3.04254 187.69 3.27227 187.478 3.51967C187.407 3.64338 187.328 3.80242 187.239 3.99681C187.151 4.17352 187.062 4.32373 186.974 4.44743C186.833 4.87155 186.656 5.28683 186.444 5.69328C186.25 6.09973 186.037 6.55919 185.808 7.07167C185.578 7.56647 185.331 8.18498 185.066 8.92718C184.907 9.26295 184.774 9.59871 184.668 9.93447C184.562 10.2526 184.474 10.4558 184.403 10.5441C184.297 10.9329 184.164 11.3394 184.005 11.7635C183.846 12.1699 183.731 12.5852 183.661 13.0093C183.661 13.0093 183.749 12.921 183.926 12.7443C184.12 12.5675 184.35 12.3466 184.615 12.0816C185.304 11.3394 185.993 10.7297 186.683 10.2526C187.389 9.77542 187.973 9.52802 188.432 9.51035C188.679 9.49268 188.944 9.55453 189.227 9.6959C189.528 9.83727 189.802 10.014 190.049 10.226C190.296 10.4204 190.464 10.6325 190.553 10.8622C190.694 11.1803 190.747 11.5249 190.712 11.896C190.694 12.2494 190.588 12.6294 190.394 13.0358C190.217 13.4246 189.969 13.8222 189.651 14.2287C189.457 14.5644 189.218 14.8914 188.936 15.2094C188.671 15.5099 188.441 15.7308 188.246 15.8721C188.07 16.0312 187.893 16.1902 187.716 16.3493C187.557 16.4906 187.425 16.6055 187.319 16.6939C187.089 16.8529 186.903 16.9766 186.762 17.065C186.621 17.1356 186.426 17.2152 186.179 17.3035C185.808 17.5686 185.295 17.763 184.641 17.8867C183.988 18.0104 183.343 18.1164 182.706 18.2048ZM183.396 16.8529C183.519 16.8529 183.74 16.8264 184.058 16.7734C184.394 16.7204 184.703 16.5878 184.986 16.3758C185.817 15.9516 186.532 15.4303 187.133 14.8118C187.734 14.1757 188.185 13.5483 188.485 12.9298C188.803 12.2936 188.944 11.7723 188.909 11.3659C188.874 10.9594 188.565 10.8711 187.981 11.1008C187.398 11.3305 186.691 11.8607 185.861 12.6912C185.472 13.0447 185.101 13.4246 184.747 13.8311C184.412 14.2198 184.094 14.5909 183.793 14.9444C183.669 15.1388 183.563 15.3066 183.475 15.448C183.404 15.5894 183.36 15.7308 183.343 15.8721C183.201 16.526 183.219 16.8529 183.396 16.8529ZM196.823 18.0722C196.452 18.3903 196.019 18.5759 195.525 18.6289C195.047 18.6819 194.579 18.6112 194.12 18.4168C193.66 18.2048 193.28 17.8867 192.98 17.4626C192.679 17.0738 192.485 16.632 192.397 16.1372C192.308 15.6247 192.3 14.962 192.37 14.1491C192.423 13.46 192.644 12.7708 193.033 12.0816C193.422 11.3747 193.89 10.7474 194.438 10.1995C195.003 9.65172 195.56 9.27178 196.108 9.05972C196.373 8.88301 196.594 8.80348 196.77 8.82116C196.965 8.82116 197.256 8.83883 197.645 8.87417C198.052 8.92719 198.352 9.00671 198.546 9.11274C198.758 9.21877 198.926 9.36014 199.05 9.53686C199.315 9.80193 199.492 10.067 199.58 10.3321C199.669 10.5795 199.713 10.8269 199.713 11.0743C199.642 11.4631 199.377 11.9402 198.918 12.5057C198.476 13.0535 197.893 13.5041 197.168 13.8576C196.779 13.9813 196.355 14.0343 195.896 14.0166C195.436 13.9989 195.056 13.8841 194.756 13.672C194.42 13.5306 194.199 13.5571 194.093 13.7515C193.987 13.9282 193.89 14.37 193.802 15.0769C193.731 15.7484 193.784 16.2432 193.961 16.5613C194.137 16.8617 194.376 17.0385 194.676 17.0915C195.03 17.1622 195.304 17.2152 195.498 17.2505C195.71 17.2682 195.966 17.1887 196.267 17.0119C196.55 16.8352 196.726 16.738 196.797 16.7204C196.868 16.685 196.921 16.6497 196.956 16.6143C197.009 16.5613 197.124 16.4465 197.301 16.2697C197.424 16.146 197.521 16.0577 197.592 16.0047C197.663 15.934 197.742 15.8986 197.831 15.8986C197.919 15.8986 197.999 15.9428 198.069 16.0312C198.14 16.1019 198.211 16.1549 198.281 16.1902C198.458 16.1902 198.493 16.2962 198.387 16.5083C198.299 16.7204 198.113 16.9766 197.831 17.277C197.548 17.5598 197.212 17.8248 196.823 18.0722ZM196.797 12.4527C196.991 12.3643 197.195 12.2406 197.407 12.0816C197.619 11.9049 197.795 11.7193 197.937 11.5249C198.096 11.3129 198.175 11.1361 198.175 10.9948C198.175 10.7474 198.06 10.5441 197.831 10.3851C197.601 10.2084 197.256 10.1819 196.797 10.3056C196.603 10.3586 196.382 10.4911 196.134 10.7032C195.887 10.8976 195.648 11.1185 195.419 11.3659C195.207 11.6133 195.03 11.8342 194.888 12.0286C194.765 12.2229 194.721 12.3378 194.756 12.3731C194.809 12.4615 194.959 12.5322 195.207 12.5852C195.454 12.6206 195.728 12.6294 196.028 12.6117C196.346 12.594 196.603 12.541 196.797 12.4527ZM203.217 18.6289C202.333 18.6289 201.688 18.3108 201.282 17.6746C201.158 17.4979 201.096 17.3212 201.096 17.1445C201.114 16.9501 201.167 16.8176 201.255 16.7469C201.361 16.6762 201.485 16.738 201.626 16.9324C201.874 17.0738 202.227 17.1445 202.687 17.1445C202.916 17.1445 203.155 17.1268 203.402 17.0915C203.65 17.0385 203.897 16.9678 204.145 16.8794C204.41 16.7557 204.586 16.6497 204.675 16.5613C204.763 16.4553 204.746 16.3669 204.622 16.2962H204.648C204.189 16.1725 203.721 15.9782 203.243 15.7131C202.784 15.4303 202.386 15.1299 202.051 14.8118C201.715 14.4761 201.52 14.1757 201.467 13.9106C201.326 13.3628 201.361 12.8061 201.573 12.2406C201.786 11.6574 202.086 11.145 202.475 10.7032C202.616 10.6148 202.793 10.5088 203.005 10.3851C203.217 10.2437 203.385 10.1642 203.508 10.1465V10.173C203.844 9.8196 204.251 9.53686 204.728 9.3248C205.223 9.11274 205.744 8.91835 206.292 8.74163L206.689 8.68862C206.901 8.65327 207.078 8.6356 207.22 8.6356C207.202 8.6356 207.237 8.65327 207.326 8.68862C207.414 8.70629 207.493 8.72396 207.564 8.74163C207.67 8.79465 207.759 8.82116 207.829 8.82116C208.059 8.8565 208.271 8.96253 208.465 9.13924C208.66 9.31596 208.81 9.52802 208.916 9.77542C209.04 10.0052 209.084 10.226 209.049 10.4381C209.013 10.7739 208.907 11.0743 208.73 11.3394C208.571 11.6044 208.377 11.7546 208.147 11.79C208.183 11.7723 208.156 11.7458 208.068 11.7105C207.997 11.6574 207.918 11.6044 207.829 11.5514L207.75 11.6044C207.75 11.6044 207.741 11.5868 207.723 11.5514C207.723 11.4984 207.705 11.4366 207.67 11.3659C207.617 11.2598 207.591 11.145 207.591 11.0213C207.591 10.8799 207.599 10.7297 207.617 10.5706C207.652 10.3763 207.652 10.2614 207.617 10.226C207.599 10.1907 207.485 10.1642 207.273 10.1465C207.025 10.0935 206.663 10.1377 206.186 10.2791C205.726 10.4204 205.338 10.6148 205.019 10.8622C204.631 11.1096 204.304 11.3482 204.039 11.5779C203.774 11.79 203.562 12.002 203.402 12.2141C203.243 12.4085 203.102 12.6382 202.978 12.9033C202.89 13.027 202.81 13.1507 202.74 13.2744C202.687 13.3804 202.66 13.4776 202.66 13.566C202.66 13.7604 202.802 13.9636 203.084 14.1757C203.385 14.37 203.827 14.5998 204.41 14.8648C204.869 15.0592 205.258 15.2713 205.576 15.501C205.894 15.7308 206.115 15.9958 206.239 16.2962C206.274 16.3669 206.283 16.4553 206.265 16.5613C206.265 16.6497 206.248 16.7115 206.212 16.7469C206.248 16.7822 206.265 16.8087 206.265 16.8264V16.7999C206.407 17.0119 206.407 17.2328 206.265 17.4626C206.142 17.6923 205.921 17.8955 205.603 18.0722C205.302 18.2313 204.931 18.355 204.489 18.4433H204.516C204.286 18.514 204.056 18.567 203.827 18.6024C203.615 18.6201 203.411 18.6289 203.217 18.6289ZM211.907 18.8144C211.712 18.7791 211.509 18.6819 211.297 18.5229C211.103 18.3462 210.926 18.1518 210.767 17.9397C210.625 17.71 210.528 17.5067 210.475 17.33C210.475 17.2947 210.449 17.2505 210.396 17.1975C210.36 17.1445 210.343 17.118 210.343 17.118C210.272 17.065 210.228 16.8352 210.21 16.4288C210.21 16.0047 210.237 15.5364 210.29 15.0239C210.343 14.5114 210.404 14.105 210.475 13.8045C210.564 13.5218 210.696 13.1419 210.873 12.6647C211.05 12.1699 211.2 11.7281 211.323 11.3394L212.039 9.80193L210.979 9.51035C210.855 9.47501 210.749 9.40432 210.661 9.29829C210.59 9.19226 210.555 9.1039 210.555 9.03321C210.555 8.89184 210.634 8.72396 210.793 8.52957C210.952 8.31752 211.067 8.21149 211.138 8.21149C211.226 8.22916 211.385 8.23799 211.615 8.23799C211.862 8.23799 212.101 8.22916 212.331 8.21149C212.56 8.19381 212.702 8.17614 212.755 8.15847C212.826 8.12313 212.896 8.07895 212.967 8.02593C213.038 7.95525 213.091 7.85805 213.126 7.73435C213.214 7.53996 213.294 7.36325 213.364 7.2042C213.435 7.02749 213.532 6.8331 213.656 6.62104C213.78 6.39131 213.877 6.19692 213.948 6.03788C214.036 5.87883 214.169 5.65794 214.345 5.37519C214.434 5.25149 214.531 5.10128 214.637 4.92457C214.743 4.74785 214.875 4.59764 215.034 4.47394C215.193 4.33257 215.353 4.27072 215.512 4.28839C215.688 4.28839 215.909 4.40325 216.174 4.63298C216.316 4.8097 216.395 4.94224 216.413 5.0306C216.431 5.11895 216.36 5.28683 216.201 5.53424C216.059 5.83465 215.892 6.13507 215.697 6.43549C215.52 6.73591 215.353 7.03632 215.193 7.33674C214.911 7.72552 214.858 7.94641 215.034 7.99943C215.211 8.05244 215.706 8.0171 216.519 7.8934C217.031 7.80504 217.402 7.83155 217.632 7.97292C217.862 8.09662 217.994 8.30868 218.03 8.6091C218.083 9.03321 218.039 9.28945 217.897 9.37781C217.756 9.46617 217.349 9.51035 216.678 9.51035C216.254 9.58103 215.892 9.62521 215.591 9.64289C215.291 9.64289 215.07 9.64289 214.928 9.64289C214.699 9.66056 214.548 9.66939 214.478 9.66939C214.407 9.66939 214.301 9.68706 214.16 9.72241C214.018 9.75775 213.912 9.8196 213.842 9.90796C213.789 9.97865 213.727 10.0847 213.656 10.226C213.585 10.2967 213.479 10.4823 213.338 10.7827C213.197 11.0831 213.02 11.41 212.808 11.7635C212.56 12.5057 212.348 13.2479 212.172 13.9901C211.995 14.7146 211.854 15.4215 211.748 16.1107C211.677 16.5525 211.686 16.8617 211.774 17.0385C211.862 17.1975 212.092 17.2947 212.463 17.33C212.658 17.3477 212.967 17.3477 213.391 17.33C213.833 17.2947 214.177 17.2417 214.425 17.171C214.619 17.0826 214.822 16.9943 215.034 16.9059C215.247 16.7999 215.441 16.6939 215.618 16.5878C215.777 16.4995 215.936 16.4111 216.095 16.3228C216.254 16.2167 216.333 16.1637 216.333 16.1637C216.422 16.0223 216.519 15.9782 216.625 16.0312C216.731 16.0842 216.819 16.2167 216.89 16.4288C216.89 16.6408 216.846 16.8617 216.757 17.0915C216.669 17.3212 216.342 17.5951 215.777 17.9132C214.981 18.408 214.248 18.7084 213.577 18.8144C212.923 18.9028 212.366 18.9028 211.907 18.8144ZM226.333 18.1783C226.068 18.1429 225.838 17.9574 225.644 17.6216C225.467 17.2682 225.361 16.9501 225.326 16.6673C225.343 16.526 225.361 16.3228 225.379 16.0577C225.414 15.7926 225.449 15.5187 225.485 15.2359C225.555 14.9002 225.653 14.4937 225.776 14.0166C225.9 13.5218 226.024 13.027 226.147 12.5322C226.289 12.0374 226.413 11.6133 226.519 11.2598C226.625 10.9064 226.695 10.6943 226.731 10.6237C226.819 10.4823 226.96 10.4469 227.155 10.5176C227.349 10.5883 227.508 10.6943 227.632 10.8357C227.738 10.9771 227.8 11.145 227.817 11.3394C227.853 11.5337 227.826 11.8165 227.738 12.1876C227.667 12.5587 227.526 13.1065 227.314 13.8311C227.119 14.5379 226.969 15.1122 226.863 15.554C226.775 15.9782 226.739 16.4288 226.757 16.9059C226.686 17.5067 226.633 17.8779 226.598 18.0192C226.563 18.1429 226.474 18.1959 226.333 18.1783ZM229.381 7.60182C229.311 7.65483 229.24 7.68134 229.169 7.68134C229.116 7.66367 229.019 7.61065 228.878 7.52229C228.754 7.50462 228.595 7.4251 228.401 7.28373C228.224 7.12468 228.065 6.96564 227.923 6.80659C227.8 6.62988 227.738 6.52385 227.738 6.4885C227.72 6.31179 227.729 6.09089 227.764 5.82582C227.817 5.54307 227.915 5.29567 228.056 5.08361C228.197 4.85388 228.401 4.73018 228.666 4.71251C228.736 4.71251 228.798 4.72134 228.851 4.73901C228.904 4.75669 229.063 4.81854 229.328 4.92457C229.47 5.18964 229.611 5.49006 229.752 5.82582C229.894 6.14391 229.956 6.462 229.938 6.78009C229.92 7.0805 229.735 7.35441 229.381 7.60182ZM238.169 18.6819C237.992 18.6819 237.807 18.5847 237.613 18.3903C237.436 18.1959 237.277 17.9574 237.135 17.6746C237.012 17.3742 236.95 17.0915 236.95 16.8264C236.95 16.5613 237.012 16.0665 237.135 15.342C237.277 14.6174 237.445 13.8841 237.639 13.1419C237.78 12.6824 237.825 12.4173 237.772 12.3466C237.719 12.276 237.48 12.3731 237.056 12.6382C236.808 12.7619 236.588 12.8945 236.393 13.0358C236.199 13.1595 236.031 13.3009 235.89 13.46C235.801 13.5306 235.669 13.6455 235.492 13.8045C235.315 13.9636 235.13 14.1138 234.935 14.2552C234.706 14.4319 234.414 14.6793 234.061 14.9974C233.707 15.3155 233.354 15.6336 233 15.9516C232.664 16.2697 232.408 16.5171 232.232 16.6939C232.196 16.7645 232.143 16.8264 232.072 16.8794C232.002 16.9324 231.922 16.9678 231.834 16.9854C231.746 16.9854 231.648 16.9678 231.542 16.9324C231.348 16.8794 231.162 16.7645 230.986 16.5878C230.827 16.4111 230.747 16.2079 230.747 15.9782C230.747 15.8014 230.818 15.501 230.959 15.0769C231.101 14.6351 231.286 14.105 231.516 13.4865C231.763 12.868 232.046 12.2141 232.364 11.5249C232.417 11.4366 232.461 11.3305 232.497 11.2068C232.532 11.0654 232.558 10.9152 232.576 10.7562C232.611 10.5972 232.629 10.4469 232.629 10.3056C232.629 10.2172 232.638 10.1289 232.656 10.0405C232.691 9.93447 232.726 9.83727 232.762 9.74892C232.815 9.64289 232.859 9.5722 232.894 9.53686C232.965 9.39548 233.089 9.36014 233.265 9.43083C233.442 9.48384 233.592 9.60754 233.716 9.80193C233.981 10.0493 234.114 10.3586 234.114 10.7297C234.131 11.1008 234.043 11.5603 233.848 12.1081C233.778 12.2318 233.716 12.3555 233.663 12.4792C233.628 12.5852 233.592 12.6824 233.557 12.7708C233.522 12.8414 233.495 12.9033 233.477 12.9563C233.46 12.9917 233.451 13.0093 233.451 13.0093C233.522 13.0093 233.681 12.9298 233.928 12.7708C234.175 12.6117 234.467 12.435 234.803 12.2406C235.068 12.0462 235.298 11.8695 235.492 11.7105C235.704 11.5337 235.881 11.4012 236.022 11.3129C236.163 11.2068 236.252 11.1538 236.287 11.1538C236.358 11.1538 236.446 11.1273 236.552 11.0743C236.658 11.0213 236.747 10.9594 236.817 10.8887C236.888 10.818 236.941 10.7827 236.976 10.7827C237.029 10.765 237.056 10.7562 237.056 10.7562C237.056 10.7562 237.091 10.7562 237.162 10.7562C237.233 10.7385 237.303 10.6943 237.374 10.6237C237.515 10.5176 237.701 10.4911 237.931 10.5441C238.16 10.5795 238.372 10.6678 238.567 10.8092C238.761 10.9506 238.858 11.1096 238.858 11.2863C238.858 11.357 238.876 11.4189 238.911 11.4719C238.964 11.5072 238.991 11.5249 238.991 11.5249C239.132 11.5249 239.221 11.7458 239.256 12.1876C239.309 12.6294 239.265 13.0535 239.123 13.46C239.123 13.725 239.07 14.0431 238.964 14.4142C238.876 14.7853 238.797 15.1388 238.726 15.4745C238.584 15.9163 238.487 16.3051 238.434 16.6408C238.381 16.9766 238.372 17.2593 238.408 17.4891C238.443 17.7188 238.505 17.9044 238.593 18.0457C238.664 18.1694 238.664 18.3108 238.593 18.4699C238.523 18.6112 238.381 18.6819 238.169 18.6819ZM113.235 41.3254C112.652 41.237 112.255 41.0161 112.043 40.6627C111.848 40.3269 111.804 39.8056 111.91 39.0987C112.016 38.763 112.078 38.4626 112.096 38.1975C112.131 37.9148 112.21 37.738 112.334 37.6673C112.334 37.6673 112.343 37.6408 112.361 37.5878C112.396 37.5348 112.387 37.4818 112.334 37.4288C112.334 37.1991 112.414 36.881 112.573 36.4745C112.608 36.3685 112.652 36.2448 112.705 36.1034C112.776 35.9444 112.811 35.8648 112.811 35.8648C112.723 35.7235 112.723 35.6086 112.811 35.5202C112.9 35.4319 112.988 35.3524 113.076 35.2817C113.182 35.1933 113.191 35.0961 113.103 34.9901C113.068 34.9194 113.112 34.7604 113.235 34.513C113.359 34.2479 113.501 33.974 113.66 33.6912C113.819 33.4085 113.925 33.1876 113.978 33.0286C113.978 32.9932 114.022 32.8695 114.11 32.6574C114.199 32.4454 114.305 32.198 114.428 31.9152C114.552 31.6325 114.667 31.3763 114.773 31.1465C114.897 30.9168 114.976 30.7666 115.011 30.6959C115.188 30.6075 115.117 30.5457 114.799 30.5103C114.481 30.475 114.146 30.4662 113.792 30.4838C113.244 30.4662 112.802 30.4397 112.467 30.4043C112.149 30.369 111.884 30.2895 111.672 30.1658C111.459 29.9183 111.38 29.7416 111.433 29.6356C111.504 29.5119 111.716 29.4412 112.069 29.4235C112.299 29.4059 112.476 29.397 112.599 29.397C112.741 29.397 112.917 29.3882 113.129 29.3705C113.359 29.3352 113.713 29.291 114.19 29.238L115.542 29.132L115.621 28.6813C115.762 28.4516 115.877 28.2484 115.966 28.0717C116.072 27.8773 116.16 27.6829 116.231 27.4885C116.301 27.2941 116.354 27.0909 116.39 26.8788C116.39 26.8788 116.469 26.7375 116.628 26.4547C116.787 26.1543 116.885 25.845 116.92 25.527C117.132 25.1735 117.318 24.8554 117.477 24.5727C117.636 24.2723 117.733 24.0867 117.768 24.016C117.963 23.857 118.095 23.7775 118.166 23.7775C118.254 23.7775 118.431 23.8658 118.696 24.0425C118.855 24.1309 118.996 24.2369 119.12 24.3606C119.244 24.4843 119.323 24.6169 119.359 24.7582C119.394 24.8819 119.341 25.0056 119.2 25.1293C119.164 25.2 119.111 25.3326 119.041 25.527C118.97 25.7037 118.917 25.8539 118.882 25.9776C118.775 26.1013 118.643 26.3045 118.484 26.5873C118.343 26.8523 118.245 27.1262 118.192 27.409C118.051 27.7094 117.918 27.9833 117.795 28.2307C117.671 28.4604 117.574 28.5753 117.503 28.5753C117.538 28.752 117.645 28.8404 117.821 28.8404C117.998 28.8227 118.29 28.805 118.696 28.7874C119.032 28.752 119.261 28.7167 119.385 28.6813C119.527 28.6283 119.686 28.646 119.862 28.7344C119.951 28.8581 120.021 28.9994 120.074 29.1585C120.127 29.3175 120.136 29.4677 120.101 29.6091C120.083 29.7328 120.013 29.8212 119.889 29.8742C119.8 29.8742 119.615 29.9272 119.332 30.0332C119.067 30.1216 118.731 30.1746 118.325 30.1923L116.92 30.3248L116.469 31.226C116.346 31.4558 116.24 31.6678 116.151 31.8622C116.063 32.0389 116.001 32.145 115.966 32.1803C115.966 32.2863 115.904 32.4454 115.78 32.6574C115.674 32.8695 115.559 33.0992 115.436 33.3466C115.33 33.6471 115.206 33.921 115.064 34.1684C114.941 34.4158 114.879 34.5395 114.879 34.5395C114.808 34.5395 114.773 34.5925 114.773 34.6985C114.861 34.9106 114.835 35.0696 114.693 35.1757C114.605 35.2287 114.525 35.3082 114.455 35.4142C114.402 35.5026 114.375 35.5468 114.375 35.5468C114.446 35.6174 114.455 35.7058 114.402 35.8118C114.366 35.9179 114.313 36.0327 114.243 36.1564C114.243 36.2978 114.199 36.501 114.11 36.7661C114.04 37.0312 113.96 37.2786 113.872 37.5083C113.889 37.8264 113.907 38.0296 113.925 38.118C113.942 38.2063 113.986 38.2417 114.057 38.224C114.146 38.2417 114.225 38.2417 114.296 38.224C114.366 38.2063 114.437 38.1975 114.508 38.1975C114.755 38.0915 114.623 38.71 114.11 40.053C113.827 40.4948 113.633 40.8129 113.527 41.0073C113.421 41.2193 113.324 41.3254 113.235 41.3254ZM120.579 38.5686C120.456 38.5863 120.323 38.5863 120.182 38.5686C120.058 38.5333 119.934 38.4714 119.811 38.383C119.669 38.2417 119.572 38.1356 119.519 38.065C119.466 37.9766 119.448 37.8441 119.466 37.6673C119.501 37.4906 119.563 37.2167 119.652 36.8456C119.74 36.5629 119.846 36.1741 119.97 35.6793C120.093 35.1668 120.226 34.6632 120.367 34.1684C120.42 33.8856 120.491 33.594 120.579 33.2936C120.685 32.9932 120.792 32.7193 120.898 32.4719C121.004 32.2068 121.083 32.0036 121.136 31.8622C121.277 31.3674 121.41 30.9345 121.534 30.5634C121.675 30.1923 121.843 29.7681 122.037 29.291C122.232 28.7962 122.47 28.1424 122.753 27.3295C123.142 26.2692 123.433 25.4651 123.628 24.9173C123.84 24.3518 123.99 23.9453 124.078 23.6979C124.184 23.4329 124.255 23.2296 124.29 23.0883C124.29 22.9469 124.326 22.8409 124.397 22.7702C124.485 22.6995 124.591 22.6642 124.715 22.6642C124.962 22.6642 125.156 22.7879 125.298 23.0353C125.457 23.265 125.554 23.5477 125.589 23.8835C125.625 24.2016 125.572 24.502 125.43 24.7847C125.148 25.4209 124.847 26.1808 124.529 27.0644C124.211 27.9303 123.902 28.7874 123.601 29.6356C123.301 30.4662 123.018 31.173 122.753 31.7562C122.753 31.8269 122.727 31.9506 122.674 32.1273C122.621 32.304 122.559 32.4631 122.488 32.6044C122.417 32.7458 122.347 32.8783 122.276 33.002C122.223 33.1257 122.196 33.1876 122.196 33.1876C122.196 33.2583 122.17 33.3908 122.117 33.5852C122.064 33.7796 121.993 34.0182 121.905 34.3009C121.834 34.513 121.746 34.7869 121.64 35.1226C121.551 35.4584 121.49 35.7411 121.454 35.9709C121.543 35.8118 121.728 35.5733 122.011 35.2552C122.294 34.9371 122.559 34.6632 122.806 34.4334C123.089 34.186 123.407 33.9121 123.76 33.6117C124.114 33.3113 124.397 33.0904 124.609 32.949C124.821 32.8077 125.006 32.684 125.165 32.5779C125.342 32.4542 125.43 32.3924 125.43 32.3924C125.43 32.3217 125.457 32.2863 125.51 32.2863C125.581 32.2687 125.651 32.2598 125.722 32.2598C125.793 32.2598 125.828 32.251 125.828 32.2333C125.846 32.2157 125.854 32.1715 125.854 32.1008C125.854 32.0124 125.952 31.9329 126.146 31.8622C126.358 31.7915 126.597 31.7385 126.862 31.7032C127.144 31.6502 127.374 31.6237 127.551 31.6237C127.763 31.6237 127.931 31.6678 128.055 31.7562C128.178 31.8446 128.337 32.0389 128.532 32.3394C128.744 32.6221 128.876 32.9667 128.929 33.3731C129 33.7619 128.965 34.1684 128.823 34.5925C128.823 34.7339 128.797 34.9371 128.744 35.2022C128.708 35.4496 128.691 35.7146 128.691 35.9974L128.532 36.8456H128.956C129.097 36.8456 129.23 36.8721 129.353 36.9251C129.477 36.9605 129.539 36.9782 129.539 36.9782C129.61 37.0488 129.68 37.1195 129.751 37.1902C129.822 37.2432 129.892 37.2697 129.963 37.2697C130.175 37.2697 130.255 37.3581 130.202 37.5348C130.149 37.6939 130.016 37.8441 129.804 37.9854C129.38 38.2682 128.991 38.4096 128.638 38.4096C128.302 38.4096 127.993 38.2682 127.71 37.9854C127.427 37.685 127.25 37.3493 127.18 36.9782C127.109 36.6071 127.144 36.1388 127.286 35.5733C127.357 34.7957 127.392 34.2302 127.392 33.8768C127.41 33.5057 127.321 33.3201 127.127 33.3201C126.95 33.3201 126.641 33.4438 126.199 33.6912C125.757 33.921 125.262 34.2391 124.715 34.6455C124.167 35.052 123.628 35.5026 123.098 35.9974C122.568 36.4922 122.126 37.0047 121.772 37.5348C121.56 37.7999 121.357 38.0385 121.163 38.2505C120.968 38.4449 120.774 38.5509 120.579 38.5686ZM133.777 39.3638C133.087 39.0811 132.637 38.6923 132.425 38.1975C132.23 37.685 132.195 36.8986 132.319 35.8383C132.354 35.2905 132.372 34.9282 132.372 34.7515C132.372 34.5748 132.275 34.3981 132.08 34.2214C132.027 34.1507 131.93 34.0535 131.789 33.9298C131.665 33.8061 131.612 33.7001 131.63 33.6117C131.612 33.488 131.621 33.3555 131.656 33.2141C131.691 33.0551 131.744 32.9755 131.815 32.9755C131.886 32.9755 131.956 32.9579 132.027 32.9225C132.115 32.8872 132.195 32.8872 132.266 32.9225C132.336 32.9225 132.416 32.9314 132.504 32.949C132.593 32.9667 132.637 33.0109 132.637 33.0816C132.707 33.2053 132.822 33.2229 132.981 33.1346C133.14 33.0286 133.308 32.7988 133.485 32.4454C133.662 32.1626 133.891 31.8799 134.174 31.5972C134.475 31.3144 134.766 31.0582 135.049 30.8284C135.349 30.581 135.597 30.4043 135.791 30.2983C135.88 30.2629 136.012 30.2188 136.189 30.1658C136.366 30.1127 136.551 30.0686 136.745 30.0332C136.958 29.9979 137.134 29.989 137.276 30.0067C137.594 30.0244 137.859 30.1127 138.071 30.2718C138.301 30.4308 138.513 30.6164 138.707 30.8284C138.937 30.9875 139.078 31.1995 139.131 31.4646C139.202 31.7297 139.219 32.0124 139.184 32.3129C139.149 32.6133 139.069 32.8872 138.946 33.1346C138.893 33.3113 138.742 33.5234 138.495 33.7708C138.248 34.0182 137.965 34.2567 137.647 34.4865C137.329 34.7162 137.037 34.8841 136.772 34.9901C136.542 35.0431 136.242 35.0873 135.871 35.1226C135.517 35.158 135.182 35.1757 134.863 35.1757C134.563 35.158 134.36 35.1226 134.254 35.0696C134.13 34.9989 134.033 35.0961 133.962 35.3612C133.891 35.6263 133.838 36.0062 133.803 36.501C133.768 36.8898 133.768 37.1725 133.803 37.3493C133.838 37.526 133.874 37.6497 133.909 37.7204C134.033 37.8441 134.201 38.0031 134.413 38.1975C134.643 38.3742 134.961 38.4007 135.367 38.277C135.703 38.1887 136.03 37.9589 136.348 37.5878C136.684 37.2167 136.993 36.9163 137.276 36.6866C137.346 36.5629 137.461 36.4922 137.62 36.4745C137.797 36.4392 137.982 36.448 138.177 36.501C138.371 36.6247 138.451 36.7749 138.415 36.9516C138.398 37.1107 138.309 37.3581 138.15 37.6939C138.097 37.8176 137.974 37.9766 137.779 38.171C137.603 38.3477 137.399 38.5333 137.17 38.7276C136.958 38.9044 136.763 39.0457 136.586 39.1518C136.056 39.4345 135.561 39.5847 135.102 39.6024C134.643 39.6024 134.201 39.5229 133.777 39.3638ZM135.341 33.9828C135.729 33.8945 136.039 33.8326 136.268 33.7973C136.498 33.7619 136.719 33.6647 136.931 33.5057C137.143 33.329 137.408 33.002 137.726 32.5249C137.797 32.3305 137.815 32.1361 137.779 31.9417C137.762 31.7474 137.717 31.6148 137.647 31.5441C137.488 31.3674 137.293 31.3144 137.064 31.3851C136.851 31.4381 136.648 31.5353 136.454 31.6767C136.33 31.7297 136.145 31.8622 135.897 32.0743C135.667 32.2687 135.438 32.4984 135.208 32.7635C134.978 33.0109 134.793 33.2406 134.651 33.4527C134.51 33.6647 134.475 33.7884 134.545 33.8238C134.51 33.8945 134.607 33.9386 134.837 33.9563C135.084 33.974 135.252 33.9828 135.341 33.9828ZM147.253 39.1518C147.111 39.0104 147.005 38.8337 146.934 38.6216C146.881 38.4096 146.864 38.1975 146.881 37.9854C146.899 37.7734 146.943 37.5967 147.014 37.4553C147.014 37.3139 147.032 37.2079 147.067 37.1372C147.12 37.0488 147.138 36.9693 147.12 36.8986C147.102 36.8279 147.12 36.7042 147.173 36.5275C147.226 36.3508 147.279 36.1829 147.332 36.0239C147.456 35.7411 147.588 35.4054 147.73 35.0166C147.871 34.6102 148.004 34.2125 148.127 33.8238C148.251 33.435 148.357 33.0992 148.445 32.8165C148.534 32.5337 148.587 32.357 148.604 32.2863C148.604 32.0743 148.746 31.9594 149.029 31.9417C149.241 31.8711 149.4 31.8711 149.506 31.9417C149.612 31.9948 149.753 32.1626 149.93 32.4454C150.071 32.5868 150.124 32.7988 150.089 33.0816C150.053 33.3643 149.939 33.7177 149.744 34.1419C149.674 34.2832 149.585 34.4865 149.479 34.7515C149.391 35.0166 149.329 35.2552 149.294 35.4672C149.223 35.6086 149.135 35.8118 149.029 36.0769C148.94 36.3243 148.861 36.5629 148.79 36.7926C148.755 36.881 148.719 37.0135 148.684 37.1902C148.649 37.3493 148.604 37.526 148.551 37.7204C148.498 37.8971 148.428 38.0561 148.339 38.1975C148.18 38.922 148.03 39.3462 147.889 39.4699C147.765 39.5936 147.553 39.4875 147.253 39.1518ZM149.824 28.3898C149.735 28.3014 149.656 28.1777 149.585 28.0187C149.514 27.8419 149.47 27.6829 149.453 27.5415C149.435 27.3825 149.453 27.303 149.506 27.303C149.647 27.2853 149.815 27.1351 150.009 26.8523C150.204 26.5696 150.283 26.3222 150.248 26.1101C150.248 26.0394 150.274 25.9776 150.327 25.9246C150.38 25.8539 150.442 25.8097 150.513 25.792C150.725 25.6507 150.928 25.633 151.123 25.739C151.335 25.8274 151.529 26.0129 151.706 26.2957C151.865 26.6314 151.909 26.9142 151.838 27.1439C151.768 27.356 151.573 27.6564 151.255 28.0452C150.99 28.3986 150.743 28.593 150.513 28.6283C150.301 28.6637 150.071 28.5841 149.824 28.3898ZM160.122 39.6819C159.946 39.6819 159.76 39.5847 159.566 39.3903C159.389 39.1959 159.23 38.9574 159.089 38.6746C158.965 38.3742 158.903 38.0915 158.903 37.8264C158.903 37.5613 158.965 37.0665 159.089 36.342C159.23 35.6174 159.398 34.8841 159.592 34.1419C159.734 33.6824 159.778 33.4173 159.725 33.3466C159.672 33.276 159.433 33.3731 159.009 33.6382C158.762 33.7619 158.541 33.8945 158.346 34.0358C158.152 34.1595 157.984 34.3009 157.843 34.46C157.754 34.5306 157.622 34.6455 157.445 34.8045C157.269 34.9636 157.083 35.1138 156.889 35.2552C156.659 35.4319 156.367 35.6793 156.014 35.9974C155.66 36.3155 155.307 36.6336 154.954 36.9516C154.618 37.2697 154.362 37.5171 154.185 37.6939C154.149 37.7645 154.096 37.8264 154.026 37.8794C153.955 37.9324 153.876 37.9678 153.787 37.9854C153.699 37.9854 153.602 37.9678 153.496 37.9324C153.301 37.8794 153.116 37.7645 152.939 37.5878C152.78 37.4111 152.7 37.2079 152.7 36.9782C152.7 36.8014 152.771 36.501 152.912 36.0769C153.054 35.6351 153.239 35.105 153.469 34.4865C153.717 33.868 153.999 33.2141 154.317 32.5249C154.37 32.4366 154.415 32.3305 154.45 32.2068C154.485 32.0654 154.512 31.9152 154.529 31.7562C154.565 31.5972 154.582 31.4469 154.582 31.3056C154.582 31.2172 154.591 31.1289 154.609 31.0405C154.644 30.9345 154.68 30.8373 154.715 30.7489C154.768 30.6429 154.812 30.5722 154.848 30.5369C154.918 30.3955 155.042 30.3601 155.219 30.4308C155.395 30.4838 155.546 30.6075 155.669 30.8019C155.934 31.0493 156.067 31.3586 156.067 31.7297C156.085 32.1008 155.996 32.5603 155.802 33.1081C155.731 33.2318 155.669 33.3555 155.616 33.4792C155.581 33.5852 155.546 33.6824 155.51 33.7708C155.475 33.8414 155.448 33.9033 155.431 33.9563C155.413 33.9917 155.404 34.0093 155.404 34.0093C155.475 34.0093 155.634 33.9298 155.881 33.7708C156.129 33.6117 156.42 33.435 156.756 33.2406C157.021 33.0462 157.251 32.8695 157.445 32.7105C157.657 32.5337 157.834 32.4012 157.975 32.3129C158.117 32.2068 158.205 32.1538 158.24 32.1538C158.311 32.1538 158.4 32.1273 158.506 32.0743C158.612 32.0213 158.7 31.9594 158.771 31.8887C158.841 31.818 158.894 31.7827 158.93 31.7827C158.983 31.765 159.009 31.7562 159.009 31.7562C159.009 31.7562 159.045 31.7562 159.115 31.7562C159.186 31.7385 159.257 31.6943 159.327 31.6237C159.469 31.5176 159.654 31.4911 159.884 31.5441C160.114 31.5795 160.326 31.6678 160.52 31.8092C160.714 31.9506 160.812 32.1096 160.812 32.2863C160.812 32.357 160.829 32.4189 160.865 32.4719C160.918 32.5072 160.944 32.5249 160.944 32.5249C161.086 32.5249 161.174 32.7458 161.209 33.1876C161.262 33.6294 161.218 34.0535 161.077 34.46C161.077 34.725 161.024 35.0431 160.918 35.4142C160.829 35.7853 160.75 36.1388 160.679 36.4745C160.538 36.9163 160.441 37.3051 160.388 37.6408C160.335 37.9766 160.326 38.2593 160.361 38.4891C160.396 38.7188 160.458 38.9044 160.547 39.0457C160.617 39.1694 160.617 39.3108 160.547 39.4699C160.476 39.6112 160.335 39.6819 160.122 39.6819ZM169.75 39.9205C169.555 39.9912 169.414 40.0177 169.326 40C169.255 39.9647 169.07 39.8321 168.769 39.6024C168.645 39.3903 168.566 39.2048 168.531 39.0457C168.513 38.869 168.504 38.5598 168.504 38.118C168.539 37.8529 168.61 37.473 168.716 36.9782C168.84 36.4834 168.981 35.962 169.14 35.4142C169.299 34.8664 169.441 34.3716 169.564 33.9298C169.706 33.488 169.812 33.1876 169.882 33.0286C170.006 32.6044 170.033 32.3482 169.962 32.2598C169.891 32.1538 169.679 32.0831 169.326 32.0478C168.619 31.9594 167.983 32.1892 167.417 32.737C166.852 33.2848 166.286 34.0005 165.721 34.8841C165.297 35.5379 165.04 36.1034 164.952 36.5805C164.881 37.04 164.873 37.3581 164.926 37.5348C164.979 37.6762 165.102 37.7557 165.297 37.7734C165.491 37.7734 165.703 37.7292 165.933 37.6408C166.18 37.5525 166.392 37.4641 166.569 37.3758C166.693 37.3051 166.843 37.2344 167.02 37.1637C167.214 37.0753 167.4 36.9958 167.576 36.9251C167.682 36.9251 167.753 36.9605 167.788 37.0312C167.841 37.0842 167.868 37.1991 167.868 37.3758C167.868 37.4465 167.894 37.5083 167.947 37.5613C168 37.6143 168.062 37.6585 168.133 37.6939C168.204 37.7645 168.098 37.9236 167.815 38.171C167.55 38.4184 167.134 38.7011 166.569 39.0192C166.039 39.1429 165.606 39.2048 165.27 39.2048C164.952 39.2048 164.643 39.0899 164.342 38.8602C163.848 38.5598 163.565 38.0738 163.494 37.4023C163.441 36.7131 163.582 35.8737 163.918 34.8841C164.254 34.0888 164.625 33.4438 165.032 32.949C165.438 32.4366 165.871 31.9417 166.33 31.4646C166.401 31.3939 166.56 31.2879 166.808 31.1465C167.073 30.9875 167.4 30.8461 167.788 30.7224C168.23 30.581 168.645 30.4927 169.034 30.4573C169.423 30.422 169.759 30.5015 170.041 30.6959C170.36 30.7666 170.563 30.7578 170.651 30.6694C170.739 30.5634 170.89 30.2453 171.102 29.7151C171.455 28.8315 171.8 27.9391 172.136 27.0379C172.471 26.119 172.834 25.1912 173.222 24.2546C173.399 23.9188 173.505 23.6626 173.54 23.4859C173.593 23.2915 173.655 23.159 173.726 23.0883H174.23C174.3 23.0883 174.424 23.1501 174.601 23.2738C174.777 23.3975 174.901 23.5654 174.972 23.7775C174.972 23.9365 174.901 24.2899 174.76 24.8378C174.618 25.3679 174.389 26.0041 174.071 26.7463C173.788 27.4001 173.505 28.0628 173.222 28.7344C172.957 29.3882 172.701 30.0862 172.454 30.8284C172.259 31.3763 172.083 31.818 171.923 32.1538C171.764 32.4896 171.658 32.7811 171.605 33.0286C171.499 33.488 171.367 33.9033 171.208 34.2744C171.066 34.6278 170.969 34.8752 170.916 35.0166C170.686 35.6881 170.501 36.2359 170.36 36.6601C170.218 37.0665 170.112 37.4111 170.041 37.6939C169.971 37.9589 169.927 38.2328 169.909 38.5156C169.909 38.7807 169.935 39.0987 169.988 39.4699C169.988 39.5405 169.98 39.6112 169.962 39.6819C169.944 39.7526 169.874 39.8321 169.75 39.9205ZM180.474 39.947C180.35 40.0177 180.183 39.9912 179.971 39.8675C179.776 39.7438 179.582 39.5582 179.387 39.3108C179.264 39.0987 179.175 38.869 179.122 38.6216C179.087 38.3742 179.069 38.0296 179.069 37.5878C179.087 37.2344 179.069 37.0047 179.016 36.8986C178.981 36.7926 178.884 36.8103 178.725 36.9516C178.566 37.0753 178.292 37.3316 177.903 37.7204C177.461 38.1622 177.037 38.5067 176.631 38.7542C176.242 39.0016 175.924 39.1164 175.676 39.0987C175.553 39.0987 175.411 39.0369 175.252 38.9132C175.111 38.7718 174.978 38.6039 174.855 38.4096C174.731 38.1975 174.625 37.9854 174.537 37.7734C174.43 37.3846 174.413 36.8898 174.483 36.289C174.572 35.6705 174.713 35.0254 174.908 34.3539C175.102 33.6824 175.323 33.0462 175.57 32.4454C175.835 31.8446 176.1 31.3586 176.366 30.9875C176.648 30.6164 176.896 30.4308 177.108 30.4308C177.249 30.4308 177.373 30.5015 177.479 30.6429C177.603 30.7843 177.726 31.0052 177.85 31.3056C177.921 31.4293 177.947 31.5353 177.929 31.6237C177.929 31.712 177.859 31.818 177.717 31.9417C177.558 32.1538 177.373 32.4719 177.161 32.896C176.966 33.3201 176.772 33.7796 176.578 34.2744C176.401 34.7692 176.242 35.2463 176.1 35.7058C175.959 36.1653 175.862 36.5452 175.809 36.8456C175.756 37.1284 175.765 37.2697 175.835 37.2697C176.083 37.2697 176.374 37.1725 176.71 36.9782C177.064 36.7661 177.399 36.5099 177.717 36.2094C178.089 35.8383 178.415 35.4319 178.698 34.9901C178.999 34.5483 179.299 34.08 179.599 33.5852C179.829 33.2318 180.068 32.843 180.315 32.4189C180.58 31.9948 180.748 31.6943 180.819 31.5176C181.066 31.0582 181.252 30.7489 181.375 30.5899C181.499 30.4132 181.649 30.2983 181.826 30.2453C181.914 30.2453 181.994 30.2453 182.065 30.2453C182.153 30.2453 182.197 30.2453 182.197 30.2453C182.303 30.2629 182.427 30.3425 182.568 30.4838C182.71 30.5545 182.789 30.6252 182.807 30.6959C182.824 30.7489 182.833 30.8196 182.833 30.908C182.763 31.0847 182.648 31.3497 182.489 31.7032C182.347 32.0389 182.241 32.2863 182.171 32.4454C181.835 33.2053 181.499 33.9563 181.163 34.6985C180.845 35.4231 180.616 36.1653 180.474 36.9251C180.439 37.1725 180.43 37.4641 180.448 37.7999C180.483 38.118 180.536 38.3477 180.607 38.4891C180.66 38.5951 180.722 38.7188 180.792 38.8602C180.881 38.9839 180.978 39.0899 181.084 39.1783C181.243 39.2843 181.269 39.3992 181.163 39.5229C181.075 39.6466 180.951 39.7526 180.792 39.841C180.633 39.9116 180.527 39.947 180.474 39.947ZM185.673 40.106C185.337 39.9647 185.019 39.7791 184.718 39.5494C184.418 39.302 184.224 39.0987 184.135 38.9397C184.135 38.7807 184.162 38.6746 184.215 38.6216C184.268 38.5509 184.418 38.5244 184.665 38.5421C184.931 38.5421 185.355 38.5774 185.938 38.6481C186.15 38.6481 186.415 38.6305 186.733 38.5951C187.051 38.5598 187.343 38.5067 187.608 38.4361C187.891 38.3654 188.05 38.277 188.085 38.171C188.173 38.171 188.191 38.1445 188.138 38.0915C188.085 38.0208 188.023 37.9501 187.952 37.8794C187.882 37.8794 187.802 37.8529 187.714 37.7999C187.625 37.7292 187.546 37.6939 187.475 37.6939C187.475 37.6055 187.387 37.5083 187.21 37.4023C187.051 37.2786 186.883 37.1814 186.707 37.1107C186.318 36.7926 185.982 36.5099 185.699 36.2625C185.416 35.9974 185.31 35.8207 185.381 35.7323C185.381 35.6616 185.381 35.6263 185.381 35.6263C185.381 35.6086 185.381 35.5998 185.381 35.5998C185.257 35.5998 185.116 35.4231 184.957 35.0696C184.816 34.7162 184.745 34.3981 184.745 34.1154C184.745 33.9033 184.807 33.6382 184.931 33.3201C185.054 32.9844 185.222 32.6398 185.434 32.2863C185.646 31.9329 185.867 31.6413 186.097 31.4116C186.415 31.1112 186.813 30.7931 187.29 30.4573C187.767 30.1039 188.235 29.7946 188.695 29.5296C189.172 29.2468 189.569 29.0613 189.887 28.9729C190.206 28.8492 190.497 28.7874 190.762 28.7874C191.045 28.7874 191.292 28.8492 191.504 28.9729C191.681 29.0613 191.84 29.1938 191.982 29.3705C192.141 29.5296 192.273 29.6975 192.379 29.8742C192.503 30.0332 192.582 30.1746 192.618 30.2983C192.618 30.5103 192.6 30.7489 192.565 31.014C192.529 31.2614 192.476 31.4823 192.406 31.6767C192.353 31.8711 192.264 31.9683 192.141 31.9683C192.141 31.9683 192.114 31.9771 192.061 31.9948C192.026 31.9948 192.008 32.0389 192.008 32.1273C192.008 32.304 191.875 32.5072 191.61 32.737C191.275 32.9667 190.983 33.1081 190.736 33.1611C190.488 33.1964 190.338 33.0992 190.285 32.8695C190.232 32.7988 190.197 32.737 190.179 32.684C190.161 32.6309 190.117 32.6044 190.046 32.6044C190.046 32.6044 190.02 32.5779 189.967 32.5249C189.914 32.4719 189.887 32.3835 189.887 32.2598C189.887 32.1892 189.914 32.1273 189.967 32.0743C190.02 32.0036 190.046 31.9683 190.046 31.9683C190.135 31.9683 190.25 31.8711 190.391 31.6767C190.532 31.4646 190.656 31.2437 190.762 31.014C190.886 30.7666 190.948 30.5987 190.948 30.5103C190.948 30.4043 190.93 30.3425 190.895 30.3248C190.877 30.3071 190.798 30.2983 190.656 30.2983C190.409 30.4043 190.108 30.5457 189.755 30.7224C189.401 30.8991 189.066 31.0758 188.748 31.2526C188.447 31.4116 188.226 31.5618 188.085 31.7032C188.014 31.8269 187.97 31.9064 187.952 31.9417C187.935 31.9594 187.891 31.9683 187.82 31.9683C187.82 31.8976 187.758 31.9329 187.634 32.0743C187.528 32.198 187.387 32.3747 187.21 32.6044C187.051 32.8342 186.892 33.0639 186.733 33.2936C186.592 33.5057 186.486 33.6647 186.415 33.7708C186.38 33.8061 186.335 33.9121 186.282 34.0888C186.247 34.2479 186.229 34.3981 186.229 34.5395C186.159 34.7515 186.168 34.9017 186.256 34.9901C186.344 35.0608 186.539 35.2198 186.839 35.4672C187.458 35.9267 187.944 36.3066 188.297 36.6071C188.65 36.9075 188.915 37.1549 189.092 37.3493C189.269 37.5436 189.375 37.7204 189.41 37.8794C189.728 38.4096 189.826 38.816 189.702 39.0987C189.578 39.3815 189.278 39.6289 188.801 39.841C188.624 39.9293 188.332 40 187.926 40.053C187.519 40.106 187.104 40.1325 186.68 40.1325C186.256 40.1502 185.92 40.1414 185.673 40.106ZM196.403 39.947C196.156 39.8763 195.953 39.7968 195.794 39.7084C195.635 39.6024 195.423 39.4345 195.158 39.2048C194.946 38.922 194.778 38.657 194.654 38.4096C194.548 38.1622 194.477 37.8794 194.442 37.5613C194.407 37.2256 194.389 36.8014 194.389 36.289C194.389 36.0769 194.424 35.7588 194.495 35.3347C194.583 34.9106 194.68 34.4688 194.787 34.0093C194.91 33.5322 195.016 33.1081 195.105 32.737C195.211 32.3659 195.272 32.1273 195.29 32.0213C195.343 31.7915 195.255 31.659 195.025 31.6237C194.795 31.5883 194.539 31.5795 194.256 31.5972C193.991 31.5972 193.815 31.5706 193.726 31.5176C193.656 31.5 193.62 31.4735 193.62 31.4381C193.62 31.3851 193.62 31.3586 193.62 31.3586C193.62 31.2879 193.611 31.2437 193.594 31.226C193.594 31.1907 193.567 31.1289 193.514 31.0405C193.479 30.9698 193.496 30.8726 193.567 30.7489C193.656 30.6075 193.797 30.5192 193.991 30.4838C194.15 30.4485 194.362 30.422 194.627 30.4043C194.91 30.369 195.193 30.3071 195.476 30.2188C195.758 30.1127 195.988 29.9537 196.165 29.7416C196.324 29.3529 196.51 28.9199 196.722 28.4428C196.934 27.9656 197.137 27.5415 197.331 27.1704C197.543 26.7816 197.685 26.5431 197.755 26.4547C198.056 26.2957 198.277 26.2338 198.418 26.2692C198.559 26.2868 198.718 26.437 198.895 26.7198C198.984 26.8435 199.045 26.9407 199.081 27.0114C199.134 27.0821 199.143 27.1881 199.107 27.3295C199.072 27.4708 198.975 27.6917 198.816 27.9921C198.674 28.2926 198.453 28.7255 198.153 29.291C198.065 29.4677 197.985 29.6268 197.914 29.7681C197.844 29.8918 197.808 29.9537 197.808 29.9537C197.879 29.9714 197.985 29.9802 198.126 29.9802C198.268 29.9802 198.445 29.9714 198.657 29.9537C198.851 29.9183 199.098 29.8918 199.399 29.8742C199.699 29.8388 199.938 29.8388 200.115 29.8742C200.521 29.8742 200.821 29.9537 201.016 30.1127C201.21 30.2541 201.316 30.5015 201.334 30.8549C201.369 31.0493 201.325 31.1642 201.201 31.1995C201.095 31.2349 200.804 31.2526 200.327 31.2526C200.168 31.2526 199.92 31.2614 199.584 31.2791C199.249 31.2967 198.895 31.3144 198.524 31.3321C198.171 31.3497 197.861 31.3763 197.596 31.4116C197.349 31.4293 197.225 31.4558 197.225 31.4911C197.172 31.5265 197.084 31.6943 196.96 31.9948C196.854 32.2952 196.739 32.6398 196.616 33.0286C196.51 33.3997 196.412 33.7354 196.324 34.0358C196.2 34.6367 196.103 35.2375 196.032 35.8383C195.979 36.4392 195.971 36.9605 196.006 37.4023C196.041 37.8441 196.138 38.1533 196.297 38.33C196.456 38.4891 196.766 38.5244 197.225 38.4361C197.685 38.33 198.056 38.1622 198.339 37.9324C198.657 37.6673 198.913 37.5348 199.107 37.5348C199.319 37.5348 199.434 37.632 199.452 37.8264C199.487 38.0031 199.39 38.2593 199.16 38.5951C198.948 38.9132 198.683 39.1959 198.365 39.4433C198.047 39.6731 197.711 39.841 197.358 39.947C197.022 40.0353 196.704 40.0353 196.403 39.947ZM203.191 39.3903C203.102 39.567 202.97 39.6201 202.793 39.5494C202.634 39.4787 202.502 39.408 202.396 39.3373C202.272 39.3373 202.166 39.302 202.078 39.2313C201.989 39.1606 201.927 39.0546 201.892 38.9132C201.857 38.8072 201.848 38.6835 201.865 38.5421C201.883 38.383 201.918 38.2063 201.971 38.0119C202.042 37.7999 202.113 37.5702 202.184 37.3228C202.325 36.7396 202.422 36.3155 202.475 36.0504C202.528 35.7853 202.581 35.5556 202.634 35.3612C202.687 35.1668 202.758 34.8841 202.846 34.513C202.988 34.1595 203.102 33.8149 203.191 33.4792C203.279 33.1434 203.412 32.8077 203.588 32.4719C203.712 32.0124 203.862 31.5795 204.039 31.173C204.233 30.7489 204.419 30.3955 204.596 30.1127C204.631 30.0597 204.693 29.989 204.781 29.9007C204.887 29.8123 204.976 29.7681 205.046 29.7681C205.188 29.6268 205.311 29.5738 205.417 29.6091C205.541 29.6268 205.691 29.7063 205.868 29.8477C206.08 30.0774 206.16 30.3425 206.107 30.6429C206.071 30.9433 205.859 31.3851 205.47 31.9683C205.258 32.5161 205.064 32.9932 204.887 33.3997C204.711 33.7884 204.587 34.1595 204.516 34.513C204.711 34.2302 204.923 33.974 205.152 33.7443C205.4 33.4968 205.603 33.2936 205.762 33.1346C206.151 32.7458 206.469 32.4631 206.716 32.2863C206.981 32.1096 207.291 31.9064 207.644 31.6767C207.856 31.5353 208.059 31.4116 208.254 31.3056C208.448 31.1819 208.66 31.0935 208.89 31.0405C209.137 30.9875 209.402 30.9875 209.685 31.0405C209.862 31.0228 210.003 31.0758 210.109 31.1995C210.233 31.3232 210.33 31.4911 210.401 31.7032C210.472 31.9152 210.516 32.1626 210.533 32.4454C210.127 32.357 209.765 32.3747 209.447 32.4984C209.128 32.6044 208.855 32.737 208.625 32.896C208.413 33.0551 208.245 33.1788 208.121 33.2671C207.856 33.4438 207.52 33.6824 207.114 33.9828C206.707 34.2656 206.301 34.6102 205.895 35.0166C205.576 35.37 205.303 35.6705 205.073 35.9179C204.861 36.1653 204.684 36.3862 204.543 36.5805C204.419 36.7749 204.322 36.9782 204.251 37.1902C204.074 37.5967 203.889 38.0385 203.694 38.5156C203.5 38.9927 203.332 39.2843 203.191 39.3903ZM210.861 45.275C210.437 45.3987 209.968 45.4163 209.456 45.328C208.961 45.2573 208.528 45.1071 208.157 44.8774C207.768 44.6476 207.547 44.3914 207.494 44.1086C207.477 44.0026 207.512 43.8878 207.6 43.7641C207.671 43.6404 207.768 43.552 207.892 43.499C207.998 43.4636 208.095 43.499 208.184 43.605C208.325 43.6934 208.581 43.7994 208.952 43.9231C209.323 44.0645 209.739 44.091 210.198 44.0026C210.605 43.9143 211.002 43.6757 211.391 43.2869C211.797 42.8981 212.124 42.5359 212.372 42.2001C212.513 41.9881 212.752 41.6081 213.087 41.0603C213.423 40.5125 213.768 39.9116 214.121 39.2578C214.492 38.5863 214.802 37.9678 215.049 37.4023C215.102 37.2609 215.164 37.093 215.235 36.8986C215.305 36.7042 215.394 36.5452 215.5 36.4215C215.606 36.2094 215.694 36.0151 215.765 35.8383C215.853 35.6439 215.906 35.5114 215.924 35.4407C215.941 35.3524 216.021 35.1757 216.162 34.9106C216.304 34.6455 216.436 34.3804 216.56 34.1154C216.648 33.8503 216.781 33.4615 216.957 32.949C217.134 32.4366 217.311 32.0213 217.488 31.7032C217.7 31.2967 217.868 30.9698 217.991 30.7224C218.133 30.4573 218.283 30.2983 218.442 30.2453C218.601 30.1216 218.707 30.0597 218.76 30.0597C218.831 30.0597 218.963 30.1127 219.158 30.2188C219.37 30.4308 219.502 30.6429 219.555 30.8549C219.608 31.0493 219.582 31.2967 219.476 31.5972C219.387 31.8799 219.211 32.2687 218.946 32.7635C218.804 33.1876 218.645 33.5764 218.468 33.9298C218.309 34.2656 218.186 34.4865 218.097 34.5925C218.009 34.8045 217.903 35.0431 217.779 35.3082C217.673 35.5556 217.576 35.7853 217.488 35.9974C217.17 36.7042 216.896 37.2786 216.666 37.7204C216.436 38.1622 216.233 38.5686 216.056 38.9397C215.88 39.3108 215.694 39.7438 215.5 40.2386C215.093 40.8924 214.696 41.5109 214.307 42.0941C213.936 42.6949 213.538 43.2516 213.114 43.7641C212.937 43.9231 212.716 44.1086 212.451 44.3207C212.186 44.5328 211.912 44.7272 211.629 44.9039C211.364 45.0806 211.108 45.2043 210.861 45.275ZM214.439 38.9132C214.174 38.8779 213.909 38.7188 213.644 38.4361C213.397 38.1533 213.202 37.8529 213.061 37.5348C212.92 37.2167 212.867 36.987 212.902 36.8456C212.902 36.7573 212.902 36.6866 212.902 36.6336C212.902 36.5805 212.902 36.554 212.902 36.554C212.796 36.554 212.699 36.4215 212.61 36.1564C212.54 35.8914 212.487 35.5468 212.451 35.1226C212.416 34.6985 212.389 34.2479 212.372 33.7708C212.372 33.2936 212.389 32.843 212.425 32.4189C212.495 32.1185 212.531 31.7915 212.531 31.4381C212.531 31.067 212.54 30.7754 212.557 30.5634C212.54 30.2806 212.566 30.0951 212.637 30.0067C212.707 29.9007 212.778 29.8212 212.849 29.7681C213.344 29.5561 213.671 29.6886 213.83 30.1658C214.006 30.6252 214.051 31.4911 213.962 32.7635C213.927 33.4703 213.927 34.1772 213.962 34.8841C213.997 35.5909 214.095 36.2094 214.254 36.7396C214.43 37.2697 214.669 37.632 214.969 37.8264C215.093 37.8971 215.155 37.9943 215.155 38.118C215.155 38.2417 215.12 38.3742 215.049 38.5156C214.978 38.6393 214.881 38.7453 214.757 38.8337C214.651 38.9044 214.545 38.9309 214.439 38.9132Z" fill="black"/>
<g clip-path="url(#clip0_16_6)">
<path fill-rule="evenodd" clip-rule="evenodd" d="M1.28501 32.9883C6.42228 37.3095 13.5744 39.6565 21.3414 40.629C33.0711 42.0973 46.2056 40.4324 56.0265 37.6269C62.1992 35.8641 65.633 33.083 71.1544 30.3495C71.378 30.2389 71.6736 30.2882 71.8146 30.4599C71.9555 30.6307 71.8886 30.8606 71.6649 30.9703C66.079 33.7357 62.5948 36.5365 56.3501 38.3203C46.3922 41.1648 33.0734 42.8472 21.1791 41.3587C13.1979 40.3596 5.85704 37.9323 0.577425 33.4916C0.399476 33.342 0.413097 33.1086 0.608459 32.9696C0.803822 32.8306 1.10707 32.8388 1.28501 32.9883Z" fill="black"/>
<path fill-rule="evenodd" clip-rule="evenodd" d="M73.0055 30.5484C72.9864 30.5591 72.8573 30.6277 72.7571 30.694C72.3397 30.9669 71.6652 31.4957 70.8649 32.2013C68.1838 34.5707 64.1015 38.9258 63.7513 42.4575C63.7311 42.6613 63.501 42.8149 63.2375 42.8013C62.974 42.7877 62.7762 42.6124 62.7965 42.4086C63.1608 38.7339 67.3577 34.1826 70.1481 31.7178C70.5221 31.3879 70.8702 31.094 71.1806 30.8455C69.8533 31.0799 68.5361 31.3402 67.2191 31.6126C63.4282 32.3979 59.9461 32.472 56.0695 31.939C55.8104 31.9039 55.6389 31.7113 55.6882 31.5107C55.7363 31.3102 55.9873 31.1757 56.2464 31.2118C59.9776 31.7243 63.3306 31.6545 66.9796 30.8989C68.7007 30.5432 70.4246 30.208 72.1663 29.9218C72.3397 29.8933 72.7911 29.8231 72.8563 29.8209C73.228 29.8082 73.3242 30.0395 73.3421 30.0914C73.351 30.1164 73.4379 30.4319 73.0055 30.5484ZM72.6663 29.86C72.6783 29.8569 72.6903 29.853 72.7035 29.8499C72.6927 29.852 72.6807 29.856 72.6663 29.86Z" fill="black"/>
</g>
<defs>
<clipPath id="clip0_16_6">
<rect width="56.4755" height="73.1054" fill="white" transform="matrix(0.0191542 0.999817 0.999817 -0.0191542 0 9.40039)"/>
</clipPath>
</defs>
</svg>
