<svg width="219" height="110" viewBox="0 0 219 110" fill="none" xmlns="http://www.w3.org/2000/svg">
<g clip-path="url(#clip0_16_4)">
<path fill-rule="evenodd" clip-rule="evenodd" d="M46.8921 75.2684C47.4609 75.2701 48.032 75.2666 48.5127 75.2363C57.0891 74.7401 66.1835 71.8751 73.0314 66.6817C73.2783 66.4913 73.3429 66.1417 73.1526 65.8912C72.9624 65.6407 72.62 65.5982 72.3728 65.7891C65.6514 70.8274 56.8008 73.6164 48.4384 74.0985C48.1698 74.1185 47.8569 74.1228 47.5433 74.1289C47.8016 73.4841 47.8388 72.8686 47.7438 72.3123C47.5769 71.4749 47.0628 70.7134 46.3331 70.0771C45.3094 69.1907 43.9046 68.5586 42.5021 68.2445C41.4219 68.0139 40.3456 67.9903 39.5607 68.2224C38.9061 68.399 38.4297 68.7437 38.1514 69.2147C37.8605 69.7118 37.7943 70.3874 38.1476 71.2678C38.7175 72.775 40.0047 73.7602 41.622 74.3816C42.8029 74.8335 44.1385 75.0709 45.4287 75.1881C45.1383 75.4689 44.7925 75.7568 44.3909 76.0535C41.2709 78.2335 35.8791 79.108 30.0038 79.1565C21.0649 79.2221 10.9929 77.3361 6.01846 74.9732C5.7655 74.8531 5.40221 74.9622 5.26628 75.2448C5.13035 75.5274 5.27295 75.8772 5.52591 75.9973C10.6268 78.4205 20.8813 80.357 30.0241 80.2984C36.1613 80.2438 41.8073 79.2725 45.0357 76.9747C45.8345 76.3905 46.4663 75.8306 46.8921 75.2684ZM46.3092 74.1112C46.6282 73.5557 46.7252 73.0311 46.6492 72.543C46.5261 71.9375 46.1145 71.3936 45.606 70.9434C44.7301 70.1803 43.4906 69.6344 42.2749 69.3626C41.4302 69.1806 40.5758 69.127 39.9317 69.2817C39.5768 69.3736 39.2969 69.5243 39.1262 69.7716C38.9949 70.0446 39.0299 70.4032 39.1778 70.8493C39.6751 72.0765 40.7601 72.8355 42.0287 73.3203C43.3415 73.8212 44.9361 74.0589 46.3092 74.1112Z" fill="black"/>
<path fill-rule="evenodd" clip-rule="evenodd" d="M72.36 65.8451C69.9798 68.1022 68.2101 71.2429 67.1828 74.348C67.0899 74.6488 67.2463 74.9695 67.5157 75.0555C67.8269 75.1622 68.1606 75.0073 68.2532 74.707C69.2451 71.7831 70.887 68.8001 73.1519 66.675C73.3631 66.4513 73.3792 66.0945 73.1754 65.8722C72.9294 65.63 72.5712 65.6214 72.36 65.8451Z" fill="black"/>
<path fill-rule="evenodd" clip-rule="evenodd" d="M72.4459 65.7054C69.588 67.0176 66.0884 66.4329 63.1899 65.4605C62.9206 65.3744 62.5869 65.5299 62.494 65.8306C62.4014 66.131 62.5582 66.4513 62.8696 66.5576C65.9934 67.6001 69.811 68.1684 72.9325 66.739C73.2059 66.6012 73.3189 66.2584 73.1948 65.978C73.0709 65.6973 72.7192 65.568 72.4459 65.7054Z" fill="black"/>
</g>
<path d="M95.4963 90.1689C94.9084 89.7861 94.5119 89.4512 94.3068 89.1641C94.1017 88.8906 94.1838 88.6377 94.5529 88.4053C94.6349 88.3506 94.7648 88.3984 94.9426 88.5488C95.134 88.6856 95.2912 88.8154 95.4142 88.9385C95.6877 89.1846 96.0226 89.335 96.4191 89.3896C96.8292 89.458 97.2872 89.4238 97.7931 89.2871C98.3673 89.1094 98.8663 88.8633 99.2901 88.5488C99.7276 88.2207 100.138 87.8242 100.521 87.3594C100.808 86.9903 101.006 86.5938 101.115 86.17C101.225 85.7325 101.266 85.3292 101.238 84.96C101.225 84.5909 101.149 84.3311 101.013 84.1808C100.671 83.7023 100.192 83.3741 99.5772 83.1964C98.9757 83.005 98.2648 83.0187 97.4445 83.2374C97.3488 83.2511 97.2052 83.2784 97.0138 83.3194C96.8224 83.3605 96.6515 83.4015 96.5011 83.4425C96.3507 83.4698 96.2687 83.4835 96.255 83.4835C96.1593 83.5109 96.0841 83.545 96.0294 83.586C95.9748 83.6134 95.9064 83.7159 95.8244 83.8937C95.756 84.0577 95.6466 84.3585 95.4963 84.796C95.3459 85.2198 95.1203 85.8487 94.8195 86.6827C94.5324 87.5166 94.3 88.1113 94.1223 88.4668C93.9582 88.8086 93.8078 88.9658 93.6711 88.9385C93.548 88.8975 93.3908 88.7471 93.1994 88.4873C93.09 88.2959 93.0217 88.1113 92.9943 87.9336C92.967 87.7422 93.0217 87.5235 93.1584 87.2774C93.2268 87.1543 93.2815 87.045 93.3225 86.9493C93.3635 86.8399 93.4182 86.6553 93.4865 86.3956C93.5549 86.1905 93.6848 85.835 93.8762 85.3292C94.0812 84.8097 94.3205 84.2081 94.5939 83.5245C94.8674 82.8273 95.1545 82.1095 95.4552 81.3712C95.756 80.633 96.0431 79.9357 96.3165 79.2795C96.6037 78.6233 96.8429 78.0696 97.0343 77.6184C97.2257 77.1946 97.3419 76.887 97.3829 76.6956C97.4239 76.5042 97.4103 76.4016 97.3419 76.3879C97.3419 76.3196 97.3214 76.2581 97.2804 76.2034C97.2394 76.135 97.2257 76.0735 97.2394 76.0188C97.2394 75.9641 97.3282 75.8889 97.506 75.7932C97.6974 75.6975 97.9025 75.6087 98.1212 75.5266C98.3536 75.4446 98.5313 75.4173 98.6544 75.4446C98.7227 75.4446 98.8048 75.4446 98.9005 75.4446C98.9962 75.4309 99.044 75.3968 99.044 75.3421C99.085 75.3421 99.2149 75.3284 99.4337 75.3011C99.6524 75.2737 99.8917 75.2737 100.151 75.3011C101.067 75.3831 101.778 75.6497 102.284 76.1008C102.79 76.5383 103.036 77.1399 103.022 77.9055C103.009 78.1379 102.886 78.4524 102.653 78.8488C102.435 79.2453 102.161 79.6418 101.833 80.0383C101.519 80.4347 101.211 80.7697 100.91 81.0431C100.732 81.1935 100.541 81.3507 100.336 81.5148C100.145 81.6652 99.9737 81.7951 99.8233 81.9044C99.6866 82.0001 99.6182 82.048 99.6182 82.048C99.6182 82.048 99.6729 82.0685 99.7823 82.1095C99.8917 82.1505 100.008 82.1915 100.131 82.2326C100.76 82.465 101.279 82.7589 101.689 83.1144C102.1 83.4698 102.38 83.962 102.53 84.5909C102.585 84.796 102.585 85.0489 102.53 85.3497C102.489 85.6505 102.428 85.9512 102.346 86.252C102.264 86.5391 102.175 86.7852 102.079 86.9903C101.983 87.086 101.908 87.1885 101.854 87.2979C101.799 87.3936 101.772 87.4414 101.772 87.4414C101.772 87.4688 101.717 87.5782 101.607 87.7696C101.498 87.9473 101.368 88.1455 101.218 88.3643C101.067 88.583 100.924 88.7744 100.787 88.9385C100.65 89.0479 100.486 89.1777 100.295 89.3281C100.117 89.4785 99.9122 89.6221 99.6798 89.7588C99.461 89.8955 99.2218 90.0117 98.962 90.1074C98.5792 90.2715 98.1622 90.3808 97.7111 90.4355C97.2736 90.5039 96.8566 90.5107 96.4601 90.456C96.0636 90.415 95.7423 90.3193 95.4963 90.1689ZM96.5011 82.2736C96.5011 82.2736 96.6242 82.2531 96.8702 82.212C97.13 82.1574 97.4103 82.1027 97.7111 82.048C98.0118 81.9796 98.2306 81.9181 98.3673 81.8634C98.4356 81.8224 98.5313 81.7677 98.6544 81.6994C98.7911 81.631 98.9278 81.5285 99.0645 81.3918C99.2559 81.214 99.4952 80.9611 99.7823 80.633C100.083 80.2912 100.377 79.9357 100.664 79.5666C100.951 79.1838 101.17 78.842 101.32 78.5412C101.635 78.049 101.806 77.6867 101.833 77.4543C101.86 77.2082 101.785 76.9963 101.607 76.8186C101.484 76.6682 101.273 76.5725 100.972 76.5315C100.685 76.4768 100.377 76.4631 100.049 76.4905C99.7208 76.5042 99.4405 76.5452 99.2081 76.6135C99.0304 76.6682 98.8936 76.7366 98.7979 76.8186C98.7022 76.887 98.6544 76.9963 98.6544 77.1467C98.6544 77.2698 98.6134 77.3928 98.5313 77.5159C98.463 77.6252 98.3946 77.7141 98.3263 77.7824C98.3126 77.8781 98.2784 77.967 98.2237 78.049C98.169 78.1174 98.1417 78.1516 98.1417 78.1516C98.1417 78.2063 98.046 78.4318 97.8546 78.8283C97.6632 79.2248 97.4718 79.6828 97.2804 80.2023C97.0343 80.7902 96.8429 81.2687 96.7062 81.6378C96.5695 81.9933 96.5011 82.2052 96.5011 82.2736ZM107.607 88.2822C107.319 88.5283 106.984 88.6719 106.602 88.7129C106.233 88.7539 105.87 88.6992 105.515 88.5488C105.159 88.3848 104.865 88.1387 104.633 87.8106C104.401 87.5098 104.25 87.168 104.182 86.7852C104.113 86.3887 104.107 85.876 104.161 85.2471C104.202 84.714 104.373 84.1808 104.674 83.6476C104.975 83.1007 105.337 82.6154 105.761 82.1915C106.198 81.7677 106.629 81.4738 107.053 81.3097C107.258 81.173 107.429 81.1115 107.566 81.1252C107.716 81.1252 107.941 81.1388 108.242 81.1662C108.557 81.2072 108.789 81.2687 108.939 81.3507C109.104 81.4328 109.233 81.5421 109.329 81.6789C109.534 81.8839 109.671 82.089 109.739 82.2941C109.808 82.4855 109.842 82.6769 109.842 82.8683C109.787 83.1691 109.582 83.5382 109.227 83.9757C108.885 84.3995 108.434 84.7481 107.873 85.0216C107.572 85.1173 107.244 85.1583 106.889 85.1446C106.533 85.1309 106.239 85.0421 106.007 84.878C105.747 84.7686 105.576 84.7891 105.494 84.9395C105.412 85.0762 105.337 85.418 105.269 85.9649C105.214 86.4844 105.255 86.8672 105.392 87.1133C105.528 87.3457 105.713 87.4825 105.945 87.5235C106.219 87.5782 106.431 87.6192 106.581 87.6465C106.745 87.6602 106.943 87.5987 107.176 87.4619C107.395 87.3252 107.531 87.25 107.586 87.2364C107.641 87.209 107.682 87.1817 107.709 87.1543C107.75 87.1133 107.839 87.0245 107.976 86.8877C108.071 86.792 108.147 86.7237 108.201 86.6827C108.256 86.628 108.317 86.6006 108.386 86.6006C108.454 86.6006 108.516 86.6348 108.57 86.7032C108.625 86.7579 108.68 86.7989 108.734 86.8262C108.871 86.8262 108.898 86.9082 108.816 87.0723C108.748 87.2364 108.605 87.4346 108.386 87.667C108.167 87.8858 107.907 88.0908 107.607 88.2822ZM107.586 83.9347C107.736 83.8663 107.894 83.7706 108.058 83.6476C108.222 83.5109 108.358 83.3673 108.468 83.2169C108.591 83.0529 108.652 82.9161 108.652 82.8068C108.652 82.6154 108.564 82.4581 108.386 82.3351C108.208 82.1984 107.941 82.1779 107.586 82.2736C107.436 82.3146 107.265 82.4171 107.073 82.5812C106.882 82.7316 106.697 82.9025 106.52 83.0939C106.356 83.2853 106.219 83.4562 106.109 83.6066C106.014 83.7569 105.98 83.8458 106.007 83.8731C106.048 83.9415 106.164 83.9962 106.356 84.0372C106.547 84.0646 106.759 84.0714 106.991 84.0577C107.237 84.044 107.436 84.003 107.586 83.9347ZM111.691 88.3643C111.486 88.3369 111.309 88.1934 111.158 87.9336C111.022 87.6602 110.94 87.4141 110.912 87.1953C110.926 87.086 110.94 86.9288 110.953 86.7237C110.981 86.5186 111.008 86.3067 111.035 86.0879C111.09 85.8282 111.165 85.5137 111.261 85.1446C111.357 84.7618 111.452 84.379 111.548 83.9962C111.657 83.6134 111.753 83.2853 111.835 83.0118C111.917 82.7384 111.972 82.5743 111.999 82.5197C112.067 82.4103 112.177 82.3829 112.327 82.4376C112.478 82.4923 112.601 82.5743 112.696 82.6837C112.778 82.7931 112.826 82.923 112.84 83.0734C112.867 83.2237 112.847 83.4425 112.778 83.7296C112.724 84.0167 112.614 84.4405 112.45 85.0011C112.3 85.5479 112.184 85.9922 112.102 86.334C112.033 86.6622 112.006 87.0108 112.02 87.3799C111.965 87.8447 111.924 88.1319 111.897 88.2412C111.869 88.3369 111.801 88.3779 111.691 88.3643ZM114.05 80.1818C113.995 80.2228 113.94 80.2433 113.886 80.2433C113.845 80.2297 113.77 80.1887 113.66 80.1203C113.565 80.1066 113.441 80.0451 113.291 79.9357C113.154 79.8127 113.031 79.6896 112.922 79.5666C112.826 79.4299 112.778 79.3478 112.778 79.3205C112.765 79.1838 112.772 79.0129 112.799 78.8078C112.84 78.5891 112.915 78.3977 113.024 78.2336C113.134 78.0559 113.291 77.9602 113.496 77.9465C113.551 77.9465 113.599 77.9533 113.64 77.967C113.681 77.9807 113.804 78.0285 114.009 78.1106C114.118 78.3156 114.228 78.5481 114.337 78.8078C114.446 79.0539 114.494 79.3 114.481 79.5461C114.467 79.7785 114.323 79.9904 114.05 80.1818ZM121.751 88.0567C121.477 88.0567 121.252 88.002 121.074 87.8926C120.896 87.7696 120.746 87.5713 120.623 87.2979C120.568 87.1065 120.52 86.8946 120.479 86.6622C120.452 86.4161 120.438 86.1905 120.438 85.9854C120.438 85.7667 120.459 85.6231 120.5 85.5548C120.555 85.5001 120.575 85.4044 120.561 85.2677C120.561 85.1173 120.561 84.96 120.561 84.796C120.548 84.5225 120.479 84.3722 120.356 84.3448C120.247 84.3038 120.083 84.3448 119.864 84.4679C119.618 84.6183 119.297 84.8233 118.9 85.0831C118.504 85.3292 118.087 85.6026 117.649 85.9034C117.226 86.2042 116.822 86.5186 116.439 86.8467C116.139 87.1748 115.954 87.4278 115.886 87.6055C115.831 87.7696 115.749 87.8516 115.64 87.8516C115.53 87.9063 115.435 87.9131 115.353 87.8721C115.284 87.8174 115.182 87.7354 115.045 87.626C114.949 87.5166 114.854 87.4141 114.758 87.3184C114.662 87.209 114.601 87.127 114.573 87.0723C114.573 87.0039 114.594 86.8604 114.635 86.6416C114.676 86.4229 114.724 86.2042 114.778 85.9854C114.847 85.7667 114.895 85.6231 114.922 85.5548C114.99 85.5548 115.045 85.4864 115.086 85.3497C115.141 85.213 115.223 85.0626 115.332 84.8985C115.359 84.7345 115.428 84.5157 115.537 84.2423C115.66 83.9552 115.77 83.7023 115.865 83.4835C116.057 83.1554 116.187 82.882 116.255 82.6632C116.337 82.4445 116.392 82.171 116.419 81.8429C116.405 81.7882 116.419 81.7404 116.46 81.6994C116.501 81.6447 116.549 81.6173 116.603 81.6173C116.713 81.508 116.843 81.4806 116.993 81.5353C117.144 81.5763 117.28 81.6789 117.403 81.8429C117.649 82.171 117.745 82.5128 117.69 82.8683C117.649 83.2101 117.431 83.7023 117.034 84.3448C116.938 84.5636 116.863 84.7345 116.809 84.8575C116.768 84.9669 116.747 85.0557 116.747 85.1241C116.747 85.1241 116.815 85.0762 116.952 84.9805C117.103 84.8848 117.267 84.7755 117.444 84.6524C117.636 84.5157 117.786 84.4132 117.895 84.3448C117.964 84.2765 118.121 84.1534 118.367 83.9757C118.613 83.798 118.873 83.6271 119.146 83.463C119.434 83.2853 119.645 83.1827 119.782 83.1554C119.892 83.1007 120.008 83.0529 120.131 83.0118C120.254 82.9572 120.343 82.9298 120.397 82.9298C120.507 82.9298 120.643 82.9913 120.808 83.1144C120.985 83.2237 121.149 83.3605 121.3 83.5245C121.45 83.6749 121.539 83.8048 121.566 83.9142C121.566 83.9688 121.566 84.0235 121.566 84.0782C121.58 84.1329 121.594 84.1876 121.607 84.2423C121.662 84.42 121.689 84.6593 121.689 84.96C121.703 85.2608 121.696 85.5342 121.669 85.7803C121.641 86.0264 121.594 86.17 121.525 86.211C121.525 86.211 121.525 86.2315 121.525 86.2725C121.539 86.2999 121.573 86.3135 121.628 86.3135C121.628 86.3682 121.628 86.4024 121.628 86.4161C121.559 86.4161 121.532 86.4776 121.546 86.6006C121.559 86.71 121.6 86.8331 121.669 86.9698C121.751 87.1065 121.833 87.2159 121.915 87.2979C122.079 87.4619 122.147 87.6192 122.12 87.7696C122.093 87.9063 121.97 88.002 121.751 88.0567ZM125.487 92.8554C125.337 92.8691 125.104 92.8349 124.79 92.7529C124.489 92.6708 124.264 92.5956 124.113 92.5273C123.935 92.3906 123.758 92.206 123.58 91.9736C123.402 91.7412 123.259 91.5019 123.149 91.2558C123.054 91.0234 123.013 90.8457 123.026 90.7226C123.04 90.6132 123.143 90.5927 123.334 90.6611C123.539 90.7295 123.676 90.8183 123.744 90.9277C123.867 91.0781 124.011 91.2216 124.175 91.3584C124.339 91.4951 124.503 91.5976 124.667 91.666C124.831 91.748 124.961 91.7822 125.057 91.7685C125.398 91.7138 125.679 91.5429 125.897 91.2558C126.13 90.9824 126.335 90.6338 126.513 90.2099C126.622 89.9092 126.704 89.6562 126.759 89.4512C126.827 89.2598 126.889 89.041 126.943 88.7949C127.012 88.5488 127.094 88.207 127.189 87.7696C127.312 87.2774 127.394 86.9288 127.435 86.7237C127.49 86.5049 127.517 86.3614 127.517 86.293C127.517 86.2247 127.497 86.1768 127.456 86.1495C127.456 86.1495 127.367 86.1973 127.189 86.293C127.012 86.3887 126.813 86.4913 126.595 86.6006C126.39 86.71 126.232 86.7989 126.123 86.8672C125.74 86.9903 125.364 87.0655 124.995 87.0928C124.626 87.1202 124.339 87.0996 124.134 87.0313C124.038 86.9903 123.935 86.8946 123.826 86.7442C123.73 86.5938 123.648 86.4297 123.58 86.252C123.525 86.0606 123.505 85.8965 123.518 85.7598C123.532 85.6505 123.594 85.4864 123.703 85.2677C123.812 85.0489 123.935 84.8165 124.072 84.5704C124.223 84.3243 124.352 84.1192 124.462 83.9552C124.585 83.7774 124.66 83.6886 124.687 83.6886C124.742 83.6886 124.769 83.6681 124.769 83.6271C124.783 83.586 124.79 83.5382 124.79 83.4835C124.804 83.4288 124.906 83.3126 125.098 83.1349C125.303 82.9435 125.576 82.7111 125.918 82.4376C126.396 82.0001 126.827 81.6652 127.21 81.4328C127.593 81.2003 127.948 81.0705 128.276 81.0431C128.372 81.0568 128.461 81.0636 128.543 81.0636C128.639 81.0636 128.686 81.0636 128.686 81.0636C128.686 81.0636 128.727 81.091 128.809 81.1457C128.905 81.1867 129.028 81.2414 129.179 81.3097C129.384 81.3918 129.568 81.5353 129.732 81.7404C129.896 81.9318 130.026 82.1574 130.122 82.4171C130.231 82.6632 130.293 82.9093 130.306 83.1554C130.293 83.4562 130.224 83.7501 130.101 84.0372C129.992 84.3243 129.883 84.461 129.773 84.4474C129.664 84.4337 129.527 84.4815 129.363 84.5909C129.213 84.7003 129.138 84.7823 129.138 84.837C129.138 84.8917 129.117 84.96 129.076 85.0421C129.049 85.1241 128.96 85.254 128.809 85.4317C128.796 85.5001 128.755 85.6846 128.686 85.9854C128.632 86.2725 128.563 86.6006 128.481 86.9698C128.399 87.3389 128.324 87.6739 128.256 87.9746C128.201 88.2617 128.167 88.4463 128.153 88.5283C128.14 88.583 128.105 88.7061 128.051 88.8975C128.01 89.0752 127.948 89.2803 127.866 89.5127C127.798 89.7451 127.723 89.9638 127.64 90.1689C127.586 90.5654 127.511 90.8593 127.415 91.0507C127.333 91.2558 127.196 91.4746 127.005 91.707C126.8 92.0488 126.554 92.3154 126.266 92.5068C125.979 92.7118 125.72 92.828 125.487 92.8554ZM124.646 85.9649C124.674 86.1016 124.858 86.1495 125.2 86.1085C125.542 86.0538 125.884 85.9376 126.225 85.7598C126.526 85.6094 126.8 85.4864 127.046 85.3907C127.292 85.295 127.463 85.1583 127.558 84.9805C127.64 84.8438 127.709 84.7071 127.764 84.5704C127.818 84.4337 127.887 84.2354 127.969 83.9757C127.982 83.921 128.016 83.8595 128.071 83.7911C128.14 83.7091 128.201 83.6612 128.256 83.6476C128.31 83.6339 128.365 83.6339 128.42 83.6476C128.488 83.6612 128.57 83.6886 128.666 83.7296C128.734 83.7023 128.782 83.6339 128.809 83.5245C128.85 83.4151 128.857 83.2921 128.83 83.1554C128.816 83.0597 128.748 82.9298 128.625 82.7657C128.502 82.6017 128.345 82.4718 128.153 82.3761C127.948 82.2667 127.709 82.3351 127.435 82.5812C127.162 82.8273 126.827 83.128 126.431 83.4835C126.116 83.7706 125.815 84.0714 125.528 84.3858C125.241 84.7003 125.009 84.9942 124.831 85.2677C124.667 85.5411 124.605 85.7735 124.646 85.9649ZM140.963 89.3691C140.526 89.5058 140.095 89.6084 139.671 89.6767C139.261 89.7588 138.824 89.7588 138.359 89.6767C137.908 89.6084 137.388 89.4307 136.8 89.1436C136.787 88.9932 136.725 88.8564 136.616 88.7334C136.52 88.5967 136.411 88.5215 136.288 88.5078C136.233 88.4942 136.165 88.4258 136.082 88.3027C136.014 88.1797 135.946 88.084 135.877 88.0156C135.836 87.8516 135.809 87.7149 135.795 87.6055C135.795 87.4961 135.809 87.3526 135.836 87.1748C135.864 86.9834 135.905 86.7168 135.959 86.3751C136.028 86.1973 136.124 85.9307 136.247 85.5753C136.383 85.2061 136.534 84.8028 136.698 84.3653C136.875 83.9142 137.06 83.4767 137.251 83.0529C137.744 81.8224 138.126 80.8586 138.4 80.1613C138.687 79.4641 138.885 78.9445 138.995 78.6027C139.104 78.261 139.159 78.0149 139.159 77.8645C139.159 77.7141 139.124 77.5637 139.056 77.4133C138.974 77.1536 138.974 76.9211 139.056 76.7161C139.152 76.511 139.329 76.3606 139.589 76.2649C139.849 76.1282 140.116 76.0051 140.389 75.8958C140.676 75.7727 140.956 75.6702 141.23 75.5882C141.503 75.5061 141.756 75.4514 141.989 75.4241C142.18 75.3968 142.412 75.3968 142.686 75.4241C142.959 75.4514 143.226 75.4993 143.486 75.5676C143.759 75.636 143.992 75.718 144.183 75.8137C144.374 75.8958 144.491 75.9915 144.532 76.1008C144.532 76.1008 144.552 76.1077 144.593 76.1213C144.634 76.135 144.655 76.1419 144.655 76.1419C144.655 76.1419 144.682 76.1487 144.737 76.1624C144.791 76.176 144.873 76.2376 144.983 76.3469C145.133 76.4563 145.263 76.6409 145.372 76.9006C145.482 77.1467 145.509 77.3723 145.454 77.5774C145.454 77.6321 145.468 77.7209 145.495 77.844C145.536 77.967 145.571 78.1037 145.598 78.2541C145.666 78.6233 145.625 79.0334 145.475 79.4846C145.324 79.9357 145.017 80.4142 144.552 80.9201C144.388 81.1115 144.238 81.2961 144.101 81.4738C143.978 81.6515 143.882 81.7335 143.814 81.7199C143.677 81.8429 143.575 81.9796 143.506 82.13C143.438 82.2667 143.465 82.3488 143.588 82.3761C143.588 82.3761 143.636 82.4445 143.732 82.5812C143.827 82.7179 143.957 82.882 144.121 83.0734C144.381 83.4698 144.545 83.9415 144.614 84.4884C144.696 85.0216 144.661 85.5342 144.511 86.0264C144.415 86.3682 144.19 86.7579 143.834 87.1953C143.479 87.6192 143.048 88.0293 142.542 88.4258C142.05 88.8086 141.524 89.123 140.963 89.3691ZM138.707 88.5488C139.186 88.6172 139.699 88.5625 140.245 88.3848C140.792 88.207 141.312 87.9336 141.804 87.5645C142.31 87.1817 142.713 86.751 143.014 86.2725C143.397 85.794 143.581 85.3634 143.568 84.9805C143.568 84.5841 143.451 84.2081 143.219 83.8526C143.014 83.5382 142.782 83.3468 142.522 83.2784C142.262 83.1964 141.989 83.1827 141.702 83.2374C141.414 83.2921 141.114 83.3673 140.799 83.463C140.539 83.504 140.239 83.5792 139.897 83.6886C139.555 83.798 139.241 83.9005 138.954 83.9962C138.68 84.0782 138.502 84.1192 138.42 84.1192C138.42 84.1192 138.379 84.1603 138.297 84.2423C138.215 84.3243 138.133 84.4132 138.051 84.5089C137.969 84.5909 137.921 84.6593 137.908 84.714C137.839 84.7413 137.764 84.8507 137.682 85.0421C137.6 85.2198 137.525 85.4249 137.456 85.6573C137.402 85.876 137.361 86.0743 137.333 86.252C137.306 86.4297 137.306 86.5186 137.333 86.5186C137.402 86.5323 137.395 86.6416 137.313 86.8467C137.245 87.0518 137.197 87.2227 137.169 87.3594C137.06 87.6875 137.169 87.961 137.498 88.1797C137.839 88.3984 138.243 88.5215 138.707 88.5488ZM139.036 82.7452C139.145 82.7316 139.329 82.6769 139.589 82.5812C139.849 82.4718 140.088 82.3898 140.307 82.3351C140.922 82.2394 141.49 82.0206 142.009 81.6789C142.542 81.3234 142.993 80.9132 143.363 80.4484C143.745 79.9699 144.012 79.5119 144.162 79.0744C144.244 78.924 144.306 78.6984 144.347 78.3977C144.388 78.0832 144.395 77.8576 144.367 77.7209V77.5569C144.272 77.2971 144.033 77.1125 143.65 77.0032C143.267 76.8938 142.823 76.8596 142.317 76.9006C141.811 76.928 141.326 77.0305 140.861 77.2082C140.669 77.3039 140.553 77.4475 140.512 77.6389C140.471 77.8166 140.416 78.0627 140.348 78.3772C140.293 78.719 140.198 79.0607 140.061 79.4025C139.924 79.7443 139.815 80.0519 139.733 80.3254C139.719 80.3801 139.685 80.4279 139.63 80.4689C139.576 80.5099 139.548 80.5783 139.548 80.674C139.548 80.674 139.5 80.7697 139.405 80.9611C139.323 81.1525 139.247 81.3644 139.179 81.5968C139.083 81.8292 139.008 82.0343 138.954 82.212C138.913 82.3898 138.892 82.4786 138.892 82.4786C138.892 82.4786 138.899 82.5402 138.913 82.6632C138.94 82.7863 138.981 82.8136 139.036 82.7452ZM147.909 87.9541C147.65 87.7217 147.451 87.4825 147.315 87.2364C147.192 86.9903 147.096 86.6006 147.028 86.0674C147 85.8214 147.028 85.5001 147.11 85.1036C147.192 84.6934 147.308 84.2628 147.458 83.8116C147.609 83.3605 147.78 82.9503 147.971 82.5812C148.162 82.1984 148.354 81.9113 148.545 81.7199C148.709 81.5148 148.839 81.4054 148.935 81.3918C149.044 81.3644 149.236 81.4123 149.509 81.5353C149.659 81.713 149.735 81.9044 149.735 82.1095C149.735 82.3146 149.653 82.547 149.489 82.8068C149.215 83.1759 148.976 83.6407 148.771 84.2013C148.579 84.7481 148.45 85.2403 148.381 85.6778C148.244 86.1426 148.183 86.4571 148.197 86.6211C148.21 86.7852 148.333 86.8946 148.566 86.9493C148.825 87.0039 149.133 86.9082 149.489 86.6622C149.844 86.4024 150.193 86.0469 150.534 85.5958C150.876 85.1309 151.15 84.6251 151.355 84.0782C151.437 83.8868 151.498 83.6612 151.539 83.4015C151.594 83.1417 151.649 82.9503 151.703 82.8273C151.772 82.5538 151.867 82.3556 151.99 82.2326C152.114 82.0958 152.243 82.0206 152.38 82.007C152.517 81.9796 152.633 82.007 152.729 82.089C152.852 82.1437 152.927 82.212 152.954 82.2941C152.982 82.3624 152.982 82.5538 152.954 82.8683C152.954 83.3741 152.845 83.8048 152.626 84.1603C152.407 84.5157 152.223 84.8917 152.072 85.2882C151.949 85.5753 151.765 85.8965 151.519 86.252C151.286 86.6075 151.027 86.9288 150.74 87.2159C150.466 87.503 150.199 87.7012 149.94 87.8106C149.557 88.0567 149.215 88.1797 148.914 88.1797C148.627 88.166 148.292 88.0908 147.909 87.9541ZM155.951 88.7129C155.267 88.7129 154.768 88.4668 154.454 87.9746C154.358 87.8379 154.31 87.7012 154.31 87.5645C154.324 87.4141 154.365 87.3116 154.433 87.2569C154.515 87.2022 154.611 87.25 154.72 87.4004C154.912 87.5098 155.185 87.5645 155.541 87.5645C155.718 87.5645 155.903 87.5508 156.094 87.5235C156.286 87.4825 156.477 87.4278 156.669 87.3594C156.874 87.2637 157.01 87.1817 157.079 87.1133C157.147 87.0313 157.133 86.9629 157.038 86.9082H157.058C156.703 86.8125 156.34 86.6622 155.971 86.4571C155.616 86.2383 155.308 86.0059 155.048 85.7598C154.789 85.5001 154.638 85.2677 154.597 85.0626C154.488 84.6388 154.515 84.2081 154.679 83.7706C154.843 83.3194 155.076 82.923 155.377 82.5812C155.486 82.5128 155.623 82.4308 155.787 82.3351C155.951 82.2257 156.081 82.1642 156.176 82.1505V82.171C156.436 81.8976 156.751 81.6789 157.12 81.5148C157.503 81.3507 157.906 81.2003 158.33 81.0636L158.637 81.0226C158.801 80.9953 158.938 80.9816 159.047 80.9816C159.034 80.9816 159.061 80.9953 159.129 81.0226C159.198 81.0363 159.259 81.05 159.314 81.0636C159.396 81.1046 159.464 81.1252 159.519 81.1252C159.697 81.1525 159.861 81.2345 160.011 81.3712C160.162 81.508 160.278 81.672 160.36 81.8634C160.456 82.0412 160.49 82.212 160.462 82.3761C160.435 82.6359 160.353 82.8683 160.216 83.0734C160.093 83.2784 159.943 83.3946 159.765 83.422C159.793 83.4083 159.772 83.3878 159.704 83.3605C159.649 83.3194 159.587 83.2784 159.519 83.2374L159.458 83.2784C159.458 83.2784 159.451 83.2648 159.437 83.2374C159.437 83.1964 159.423 83.1486 159.396 83.0939C159.355 83.0118 159.335 82.923 159.335 82.8273C159.335 82.7179 159.341 82.6017 159.355 82.4786C159.382 82.3283 159.382 82.2394 159.355 82.212C159.341 82.1847 159.252 82.1642 159.088 82.1505C158.897 82.1095 158.617 82.1437 158.248 82.2531C157.892 82.3624 157.591 82.5128 157.345 82.7042C157.045 82.8956 156.792 83.0802 156.587 83.2579C156.381 83.422 156.217 83.586 156.094 83.7501C155.971 83.9005 155.862 84.0782 155.766 84.2833C155.698 84.379 155.636 84.4747 155.582 84.5704C155.541 84.6524 155.52 84.7276 155.52 84.796C155.52 84.9464 155.63 85.1036 155.848 85.2677C156.081 85.418 156.422 85.5958 156.874 85.8008C157.229 85.9512 157.53 86.1153 157.776 86.293C158.022 86.4708 158.193 86.6758 158.289 86.9082C158.316 86.9629 158.323 87.0313 158.309 87.1133C158.309 87.1817 158.295 87.2295 158.268 87.2569C158.295 87.2842 158.309 87.3047 158.309 87.3184V87.2979C158.419 87.4619 158.419 87.6328 158.309 87.8106C158.213 87.9883 158.043 88.1455 157.796 88.2822C157.564 88.4053 157.277 88.501 156.935 88.5693H156.956C156.778 88.624 156.6 88.665 156.422 88.6924C156.258 88.7061 156.101 88.7129 155.951 88.7129ZM161.279 88.3438C161.17 88.2344 161.088 88.0977 161.033 87.9336C160.992 87.7696 160.978 87.6055 160.992 87.4414C161.006 87.2774 161.04 87.1407 161.094 87.0313C161.094 86.9219 161.108 86.8399 161.135 86.7852C161.177 86.7168 161.19 86.6553 161.177 86.6006C161.163 86.5459 161.177 86.4502 161.218 86.3135C161.259 86.1768 161.3 86.0469 161.341 85.9239C161.436 85.7051 161.539 85.4454 161.648 85.1446C161.758 84.8302 161.86 84.5225 161.956 84.2218C162.051 83.921 162.134 83.6612 162.202 83.4425C162.27 83.2237 162.311 83.087 162.325 83.0323C162.325 82.8683 162.434 82.7794 162.653 82.7657C162.817 82.7111 162.94 82.7111 163.022 82.7657C163.104 82.8068 163.214 82.9366 163.35 83.1554C163.46 83.2648 163.501 83.4288 163.473 83.6476C163.446 83.8663 163.357 84.1397 163.207 84.4679C163.152 84.5772 163.084 84.7345 163.002 84.9395C162.933 85.1446 162.885 85.3292 162.858 85.4932C162.803 85.6026 162.735 85.7598 162.653 85.9649C162.585 86.1563 162.523 86.3409 162.468 86.5186C162.441 86.587 162.414 86.6895 162.386 86.8262C162.359 86.9493 162.325 87.086 162.284 87.2364C162.243 87.3731 162.188 87.4961 162.12 87.6055C161.997 88.166 161.881 88.4942 161.771 88.5899C161.676 88.6856 161.511 88.6035 161.279 88.3438ZM163.268 80.0178C163.2 79.9494 163.138 79.8537 163.084 79.7307C163.029 79.5939 162.995 79.4709 162.981 79.3615C162.967 79.2385 162.981 79.177 163.022 79.177C163.132 79.1633 163.261 79.0471 163.412 78.8283C163.562 78.6096 163.624 78.4182 163.596 78.2541C163.596 78.1994 163.617 78.1516 163.658 78.1106C163.699 78.0559 163.747 78.0217 163.801 78.008C163.966 77.8987 164.123 77.885 164.273 77.967C164.437 78.0354 164.588 78.1789 164.724 78.3977C164.847 78.6574 164.882 78.8762 164.827 79.0539C164.772 79.218 164.622 79.4504 164.376 79.7512C164.171 80.0246 163.979 80.175 163.801 80.2023C163.637 80.2297 163.46 80.1681 163.268 80.0178ZM172.138 88.0567C171.865 88.0567 171.639 88.002 171.461 87.8926C171.284 87.7696 171.133 87.5713 171.01 87.2979C170.956 87.1065 170.908 86.8946 170.867 86.6622C170.839 86.4161 170.826 86.1905 170.826 85.9854C170.826 85.7667 170.846 85.6231 170.887 85.5548C170.942 85.5001 170.962 85.4044 170.949 85.2677C170.949 85.1173 170.949 84.96 170.949 84.796C170.935 84.5225 170.867 84.3722 170.744 84.3448C170.634 84.3038 170.47 84.3448 170.252 84.4679C170.005 84.6183 169.684 84.8233 169.288 85.0831C168.891 85.3292 168.474 85.6026 168.037 85.9034C167.613 86.2042 167.21 86.5186 166.827 86.8467C166.526 87.1748 166.341 87.4278 166.273 87.6055C166.218 87.7696 166.136 87.8516 166.027 87.8516C165.918 87.9063 165.822 87.9131 165.74 87.8721C165.672 87.8174 165.569 87.7354 165.432 87.626C165.337 87.5166 165.241 87.4141 165.145 87.3184C165.049 87.209 164.988 87.127 164.961 87.0723C164.961 87.0039 164.981 86.8604 165.022 86.6416C165.063 86.4229 165.111 86.2042 165.166 85.9854C165.234 85.7667 165.282 85.6231 165.309 85.5548C165.378 85.5548 165.432 85.4864 165.473 85.3497C165.528 85.213 165.61 85.0626 165.719 84.8985C165.747 84.7345 165.815 84.5157 165.924 84.2423C166.047 83.9552 166.157 83.7023 166.253 83.4835C166.444 83.1554 166.574 82.882 166.642 82.6632C166.724 82.4445 166.779 82.171 166.806 81.8429C166.793 81.7882 166.806 81.7404 166.847 81.6994C166.888 81.6447 166.936 81.6173 166.991 81.6173C167.1 81.508 167.23 81.4806 167.38 81.5353C167.531 81.5763 167.668 81.6789 167.791 81.8429C168.037 82.171 168.132 82.5128 168.078 82.8683C168.037 83.2101 167.818 83.7023 167.421 84.3448C167.326 84.5636 167.251 84.7345 167.196 84.8575C167.155 84.9669 167.134 85.0557 167.134 85.1241C167.134 85.1241 167.203 85.0762 167.339 84.9805C167.49 84.8848 167.654 84.7755 167.832 84.6524C168.023 84.5157 168.173 84.4132 168.283 84.3448C168.351 84.2765 168.508 84.1534 168.754 83.9757C169.001 83.798 169.26 83.6271 169.534 83.463C169.821 83.2853 170.033 83.1827 170.169 83.1554C170.279 83.1007 170.395 83.0529 170.518 83.0118C170.641 82.9572 170.73 82.9298 170.785 82.9298C170.894 82.9298 171.031 82.9913 171.195 83.1144C171.373 83.2237 171.537 83.3605 171.687 83.5245C171.837 83.6749 171.926 83.8048 171.954 83.9142C171.954 83.9688 171.954 84.0235 171.954 84.0782C171.967 84.1329 171.981 84.1876 171.995 84.2423C172.049 84.42 172.077 84.6593 172.077 84.96C172.09 85.2608 172.084 85.5342 172.056 85.7803C172.029 86.0264 171.981 86.17 171.913 86.211C171.913 86.211 171.913 86.2315 171.913 86.2725C171.926 86.2999 171.96 86.3135 172.015 86.3135C172.015 86.3682 172.015 86.4024 172.015 86.4161C171.947 86.4161 171.919 86.4776 171.933 86.6006C171.947 86.71 171.988 86.8331 172.056 86.9698C172.138 87.1065 172.22 87.2159 172.302 87.2979C172.466 87.4619 172.535 87.6192 172.507 87.7696C172.48 87.9063 172.357 88.002 172.138 88.0567ZM176.08 89.0615C175.478 89.0615 174.986 88.8359 174.603 88.3848C174.22 87.9199 174.036 87.3457 174.049 86.6622C174.077 86.17 174.172 85.6436 174.336 85.0831C174.514 84.5089 174.747 83.962 175.034 83.4425C175.321 82.9093 175.635 82.4445 175.977 82.048C176.319 81.6515 176.674 81.3712 177.043 81.2072C177.18 81.1388 177.324 81.0841 177.474 81.0431C177.638 81.0021 177.802 80.9816 177.966 80.9816C178.117 80.9816 178.274 81.0089 178.438 81.0636C178.602 81.1046 178.739 81.1525 178.848 81.2072C179.081 81.3029 179.258 81.4191 179.381 81.5558C179.504 81.6925 179.614 81.9044 179.709 82.1915C179.75 82.4513 179.771 82.6359 179.771 82.7452C179.771 82.8546 179.737 83.0187 179.668 83.2374C179.504 83.7296 179.292 84.1534 179.033 84.5089C178.773 84.8643 178.424 85.1651 177.987 85.4112C177.877 85.4796 177.748 85.5342 177.597 85.5753C177.46 85.6026 177.317 85.6163 177.167 85.6163C176.893 85.6163 176.626 85.5684 176.367 85.4727C176.121 85.3634 175.922 85.2061 175.772 85.0011L175.628 84.837L175.567 85.0011C175.43 85.3702 175.321 85.712 175.239 86.0264C175.17 86.3409 175.136 86.628 175.136 86.8877C175.136 87.0518 175.15 87.209 175.177 87.3594C175.218 87.5098 175.273 87.6397 175.341 87.749C175.396 87.8311 175.485 87.8926 175.608 87.9336C175.745 87.961 175.888 87.9746 176.039 87.9746C176.134 87.9746 176.23 87.9746 176.326 87.9746C176.435 87.961 176.538 87.9336 176.633 87.8926C176.866 87.8106 177.05 87.7217 177.187 87.626C177.337 87.5303 177.488 87.4278 177.638 87.3184L177.72 87.2774H177.7C177.864 87.1953 178.007 87.1133 178.13 87.0313C178.267 86.9493 178.335 86.9082 178.335 86.9082C178.39 86.9082 178.445 86.8741 178.499 86.8057C178.609 86.751 178.746 86.7715 178.91 86.8672C179.087 86.9629 179.176 87.086 179.176 87.2364C179.163 87.3047 179.101 87.4141 178.992 87.5645C178.882 87.7012 178.759 87.8311 178.623 87.9541C178.499 88.0772 178.397 88.1455 178.315 88.1592C178.301 88.1729 178.253 88.2002 178.171 88.2412C178.089 88.2686 178.035 88.2959 178.007 88.3233H178.028C177.905 88.4873 177.782 88.5693 177.659 88.5693H177.495C177.44 88.665 177.262 88.7744 176.961 88.8975C176.661 89.0068 176.367 89.0615 176.08 89.0615ZM177.002 84.5499C177.249 84.5499 177.46 84.4815 177.638 84.3448C177.83 84.1944 177.994 84.0304 178.13 83.8526C178.404 83.4835 178.561 83.128 178.602 82.7863C178.657 82.4308 178.616 82.1847 178.479 82.048C178.397 82.007 178.322 81.9865 178.253 81.9865C178.199 81.9728 178.083 81.9933 177.905 82.048C177.782 82.0753 177.611 82.1779 177.392 82.3556C177.173 82.5333 176.955 82.7316 176.736 82.9503C176.531 83.1691 176.374 83.3536 176.264 83.504L175.998 83.9347C176.107 83.8937 176.209 83.8731 176.305 83.8731C176.415 83.8595 176.476 83.8663 176.49 83.8937C176.49 84.0167 176.51 84.1329 176.551 84.2423C176.606 84.338 176.667 84.4132 176.736 84.4679C176.818 84.5225 176.907 84.5499 177.002 84.5499ZM182.728 88.8154C182.386 88.8428 182.058 88.8223 181.744 88.7539C181.443 88.6856 181.183 88.5693 180.964 88.4053C180.759 88.2276 180.616 88.0156 180.534 87.7696C180.438 87.5782 180.39 87.4483 180.39 87.3799C180.39 87.2979 180.438 87.2295 180.534 87.1748C180.643 87.1748 180.739 87.209 180.821 87.2774C180.917 87.3321 181.04 87.3936 181.19 87.4619C181.395 87.6397 181.641 87.7354 181.928 87.749C182.229 87.7627 182.502 87.7149 182.749 87.6055C182.995 87.4961 183.131 87.3594 183.159 87.1953C183.159 87.1407 183.138 87.045 183.097 86.9082C183.056 86.7715 183.008 86.628 182.954 86.4776C182.584 85.9581 182.311 85.4454 182.133 84.9395C181.969 84.42 181.887 83.9962 181.887 83.6681C181.887 83.422 181.962 83.1622 182.113 82.8888C182.263 82.6017 182.468 82.3624 182.728 82.171C182.974 81.9113 183.248 81.6789 183.548 81.4738C183.849 81.2687 184.15 81.091 184.451 80.9406C184.765 80.7902 185.045 80.6808 185.291 80.6125C185.442 80.6125 185.64 80.633 185.886 80.674C186.132 80.715 186.303 80.7629 186.399 80.8175C186.549 80.8722 186.693 81.0226 186.83 81.2687C186.966 81.5011 187.035 81.7335 187.035 81.966C187.035 82.0617 187.007 82.1847 186.953 82.3351C186.898 82.4855 186.809 82.6632 186.686 82.8683C186.631 83.0187 186.57 83.1622 186.501 83.2989C186.433 83.422 186.399 83.5109 186.399 83.5655C186.33 83.7159 186.235 83.7911 186.112 83.7911C186.002 83.7774 185.886 83.7159 185.763 83.6066C185.654 83.4835 185.565 83.34 185.497 83.1759C185.442 82.9708 185.421 82.8068 185.435 82.6837C185.449 82.547 185.503 82.4035 185.599 82.2531C185.749 82.1027 185.825 82.0001 185.825 81.9455C185.825 81.8908 185.749 81.8634 185.599 81.8634C185.503 81.8634 185.326 81.9249 185.066 82.048C184.82 82.1574 184.553 82.3077 184.266 82.4992C183.993 82.6769 183.753 82.8683 183.548 83.0734C183.289 83.3194 183.131 83.4972 183.077 83.6066C183.036 83.7159 183.015 83.8868 183.015 84.1192C183.015 84.3106 183.056 84.5499 183.138 84.837C183.234 85.1241 183.33 85.3155 183.425 85.4112C183.425 85.4112 183.473 85.5069 183.569 85.6983C183.665 85.876 183.781 86.0674 183.917 86.2725C184.314 87.1475 184.416 87.7764 184.225 88.1592C184.034 88.542 183.535 88.7607 182.728 88.8154ZM189.656 88.7129C188.972 88.7129 188.473 88.4668 188.159 87.9746C188.063 87.8379 188.015 87.7012 188.015 87.5645C188.029 87.4141 188.07 87.3116 188.138 87.2569C188.22 87.2022 188.316 87.25 188.425 87.4004C188.617 87.5098 188.89 87.5645 189.246 87.5645C189.423 87.5645 189.608 87.5508 189.799 87.5235C189.991 87.4825 190.182 87.4278 190.374 87.3594C190.579 87.2637 190.715 87.1817 190.784 87.1133C190.852 87.0313 190.838 86.9629 190.743 86.9082H190.763C190.408 86.8125 190.045 86.6622 189.676 86.4571C189.321 86.2383 189.013 86.0059 188.754 85.7598C188.494 85.5001 188.343 85.2677 188.302 85.0626C188.193 84.6388 188.22 84.2081 188.384 83.7706C188.548 83.3194 188.781 82.923 189.082 82.5812C189.191 82.5128 189.328 82.4308 189.492 82.3351C189.656 82.2257 189.786 82.1642 189.881 82.1505V82.171C190.141 81.8976 190.456 81.6789 190.825 81.5148C191.208 81.3507 191.611 81.2003 192.035 81.0636L192.342 81.0226C192.506 80.9953 192.643 80.9816 192.752 80.9816C192.739 80.9816 192.766 80.9953 192.834 81.0226C192.903 81.0363 192.964 81.05 193.019 81.0636C193.101 81.1046 193.169 81.1252 193.224 81.1252C193.402 81.1525 193.566 81.2345 193.716 81.3712C193.867 81.508 193.983 81.672 194.065 81.8634C194.161 82.0412 194.195 82.212 194.167 82.3761C194.14 82.6359 194.058 82.8683 193.921 83.0734C193.798 83.2784 193.648 83.3946 193.47 83.422C193.498 83.4083 193.477 83.3878 193.409 83.3605C193.354 83.3194 193.292 83.2784 193.224 83.2374L193.163 83.2784C193.163 83.2784 193.156 83.2648 193.142 83.2374C193.142 83.1964 193.128 83.1486 193.101 83.0939C193.06 83.0118 193.04 82.923 193.04 82.8273C193.04 82.7179 193.046 82.6017 193.06 82.4786C193.087 82.3283 193.087 82.2394 193.06 82.212C193.046 82.1847 192.958 82.1642 192.793 82.1505C192.602 82.1095 192.322 82.1437 191.953 82.2531C191.597 82.3624 191.296 82.5128 191.05 82.7042C190.75 82.8956 190.497 83.0802 190.292 83.2579C190.087 83.422 189.922 83.586 189.799 83.7501C189.676 83.9005 189.567 84.0782 189.471 84.2833C189.403 84.379 189.341 84.4747 189.287 84.5704C189.246 84.6524 189.225 84.7276 189.225 84.796C189.225 84.9464 189.335 85.1036 189.553 85.2677C189.786 85.418 190.128 85.5958 190.579 85.8008C190.934 85.9512 191.235 86.1153 191.481 86.293C191.727 86.4708 191.898 86.6758 191.994 86.9082C192.021 86.9629 192.028 87.0313 192.014 87.1133C192.014 87.1817 192.001 87.2295 191.973 87.2569C192.001 87.2842 192.014 87.3047 192.014 87.3184V87.2979C192.124 87.4619 192.124 87.6328 192.014 87.8106C191.919 87.9883 191.748 88.1455 191.502 88.2822C191.269 88.4053 190.982 88.501 190.64 88.5693H190.661C190.483 88.624 190.305 88.665 190.128 88.6924C189.963 88.7061 189.806 88.7129 189.656 88.7129ZM123.633 106.948C123.374 106.989 123.134 107.01 122.916 107.01C122.697 107.023 122.376 106.976 121.952 106.866C121.733 106.798 121.576 106.716 121.48 106.62C121.398 106.524 121.255 106.347 121.05 106.087C120.899 105.868 120.79 105.663 120.721 105.472C120.667 105.294 120.66 105.15 120.701 105.041C120.742 104.945 120.831 104.918 120.967 104.959C121.009 104.973 121.07 105.014 121.152 105.082C121.248 105.164 121.337 105.26 121.419 105.369C121.61 105.574 121.842 105.711 122.116 105.779C122.389 105.848 122.752 105.854 123.203 105.8C123.394 105.759 123.627 105.697 123.9 105.615C124.173 105.547 124.44 105.458 124.7 105.349C124.96 105.239 125.165 105.13 125.315 105.021C126.04 104.528 126.621 104.139 127.058 103.852C127.496 103.564 127.714 103.421 127.714 103.421C127.742 103.366 127.79 103.325 127.858 103.298C127.94 103.257 128.036 103.216 128.145 103.175C128.227 103.093 128.357 102.963 128.535 102.785C128.726 102.607 128.904 102.43 129.068 102.252C129.246 102.074 129.355 101.972 129.396 101.944C129.423 101.821 129.451 101.726 129.478 101.657C129.505 101.575 129.519 101.493 129.519 101.411C129.628 101.302 129.772 101.076 129.95 100.734C130.141 100.379 130.333 99.9894 130.524 99.5655C130.715 99.128 130.852 98.7316 130.934 98.3761C131.125 97.4191 131.173 96.6125 131.078 95.9562C130.982 95.3 130.784 94.7395 130.483 94.2746C130.196 93.7961 129.834 93.3723 129.396 93.0032C129.246 92.8801 129.034 92.7502 128.76 92.6135C128.501 92.4631 128.227 92.3333 127.94 92.2239C127.653 92.1145 127.4 92.0256 127.181 91.9573C126.976 91.8889 126.853 91.8616 126.812 91.8753C126.757 91.8889 126.641 92.1077 126.463 92.5315C126.299 92.9416 126.101 93.468 125.869 94.1106C125.636 94.7531 125.383 95.4367 125.11 96.1613C124.85 96.8859 124.604 97.5695 124.372 98.212C124.29 98.4718 124.201 98.7452 124.105 99.0323C124.009 99.3194 123.927 99.5724 123.859 99.7911C123.791 99.9962 123.756 100.133 123.756 100.201C123.606 100.434 123.483 100.741 123.387 101.124C123.305 101.507 123.21 102.143 123.1 103.031C122.977 103.496 122.888 103.852 122.834 104.098C122.779 104.33 122.724 104.439 122.67 104.426C122.67 104.426 122.663 104.433 122.649 104.446C122.649 104.446 122.629 104.467 122.588 104.508C122.588 104.59 122.533 104.631 122.424 104.631C122.314 104.631 122.184 104.604 122.034 104.549C121.897 104.48 121.788 104.405 121.706 104.323C121.665 104.173 121.637 104.029 121.624 103.893C121.624 103.756 121.678 103.489 121.788 103.093C121.856 102.833 121.938 102.519 122.034 102.149C122.143 101.767 122.259 101.377 122.383 100.981C122.506 100.57 122.622 100.194 122.731 99.8526C122.841 99.5109 122.923 99.2511 122.977 99.0734C123.073 98.8409 123.21 98.4035 123.387 97.7609C123.497 97.4054 123.606 97.05 123.715 96.6945C123.839 96.339 123.955 96.0246 124.064 95.7512C124.173 95.4641 124.249 95.2795 124.29 95.1975C124.358 95.0197 124.461 94.719 124.597 94.2951C124.734 93.8713 124.912 93.3996 125.13 92.8801L125.274 92.2034L125.048 92.1008C124.884 92.1555 124.755 92.176 124.659 92.1624C124.577 92.135 124.522 92.1145 124.495 92.1008C124.413 92.1282 124.297 92.1077 124.146 92.0393C123.996 91.971 123.859 91.8821 123.736 91.7727C123.627 91.6633 123.558 91.5676 123.531 91.4856C123.504 91.4309 123.483 91.3626 123.469 91.2805C123.469 91.1848 123.469 91.137 123.469 91.137C123.483 91.055 123.586 90.9798 123.777 90.9114C123.968 90.8294 124.214 90.761 124.515 90.7063C124.83 90.6517 125.165 90.6175 125.52 90.6038C125.889 90.5765 126.245 90.5765 126.587 90.6038C126.942 90.6311 127.277 90.7063 127.591 90.8294C127.906 90.9524 128.248 91.0823 128.617 91.219C129.054 91.3831 129.512 91.6702 129.991 92.0803C130.483 92.4768 130.927 92.9485 131.324 93.4953C131.734 94.0422 132.007 94.6164 132.144 95.218C132.185 95.382 132.226 95.6144 132.267 95.9152C132.308 96.216 132.329 96.5099 132.329 96.797C132.342 97.0705 132.315 97.2482 132.247 97.3302C132.219 97.3849 132.199 97.4533 132.185 97.5353C132.185 97.6037 132.212 97.6515 132.267 97.6789C132.253 97.7199 132.206 97.8771 132.124 98.1505C132.041 98.4103 131.966 98.6359 131.898 98.8273C131.871 99.1827 131.789 99.5519 131.652 99.9347C131.515 100.317 131.365 100.68 131.201 101.022C131.037 101.35 130.886 101.63 130.75 101.862C130.695 101.862 130.64 101.876 130.585 101.903C130.544 101.917 130.551 101.931 130.606 101.944C130.606 102.013 130.531 102.143 130.38 102.334C130.326 102.375 130.237 102.478 130.114 102.642C130.004 102.792 129.916 102.895 129.847 102.949C129.834 103.045 129.793 103.127 129.724 103.195C129.656 103.25 129.594 103.277 129.54 103.277C129.54 103.277 129.526 103.277 129.499 103.277C129.485 103.277 129.478 103.305 129.478 103.359C129.369 103.523 129.198 103.722 128.965 103.954C128.733 104.173 128.466 104.405 128.166 104.651C127.878 104.884 127.578 105.103 127.263 105.308C126.962 105.513 126.675 105.67 126.402 105.779C126.265 105.875 126.122 105.95 125.971 106.005C125.821 106.073 125.677 106.142 125.541 106.21C125.472 106.265 125.322 106.34 125.089 106.436C124.857 106.545 124.604 106.647 124.331 106.743C124.071 106.839 123.839 106.907 123.633 106.948ZM133.516 104.282C133.393 104.187 133.304 104.091 133.249 103.995C133.208 103.899 133.208 103.715 133.249 103.441C133.29 103.059 133.345 102.724 133.413 102.437C133.482 102.136 133.564 101.794 133.659 101.411C133.687 101.247 133.762 100.967 133.885 100.57C134.022 100.174 134.186 99.7433 134.377 99.2784C134.568 98.8136 134.76 98.3761 134.951 97.966C135.143 97.5421 135.307 97.2277 135.443 97.0226C135.553 96.9406 135.683 96.9064 135.833 96.9201C135.997 96.9338 136.134 96.9953 136.243 97.1046C136.394 97.2277 136.414 97.4464 136.305 97.7609C136.209 98.0617 136.004 98.5402 135.69 99.1964C135.526 99.5655 135.402 99.8458 135.32 100.037C135.238 100.215 135.204 100.324 135.218 100.365C135.232 100.393 135.293 100.372 135.402 100.304C135.484 100.153 135.635 99.9825 135.854 99.7911C136.072 99.586 136.305 99.3878 136.551 99.1964C136.797 99.005 137.029 98.8341 137.248 98.6837C137.467 98.5333 137.617 98.4376 137.699 98.3966C137.809 98.3283 137.932 98.2736 138.068 98.2326C138.219 98.1779 138.321 98.1369 138.376 98.1095C138.69 97.9591 139.012 97.9044 139.34 97.9455C139.668 97.9865 139.873 98.1095 139.955 98.3146C139.969 98.424 140.01 98.506 140.078 98.5607C140.16 98.6154 140.201 98.6427 140.201 98.6427C140.256 98.6427 140.283 98.6632 140.283 98.7042C140.297 98.7452 140.304 98.7657 140.304 98.7657C140.304 98.8614 140.229 98.923 140.078 98.9503C139.941 98.964 139.764 98.9777 139.545 98.9913C139.367 99.005 139.21 99.0392 139.073 99.0939C138.937 99.1486 138.773 99.2169 138.581 99.2989C138.062 99.5997 137.563 99.8937 137.084 100.181C136.619 100.468 136.168 100.851 135.731 101.329C135.635 101.439 135.539 101.568 135.443 101.719C135.348 101.869 135.245 102.033 135.136 102.211C135.068 102.279 134.999 102.43 134.931 102.662C134.862 102.895 134.801 103.12 134.746 103.339C134.705 103.544 134.685 103.667 134.685 103.708C134.685 103.708 134.664 103.776 134.623 103.913C134.582 104.036 134.514 104.159 134.418 104.282C134.254 104.501 134.117 104.61 134.008 104.61C133.899 104.61 133.735 104.501 133.516 104.282ZM140.906 103.995C140.851 103.995 140.783 103.981 140.701 103.954C140.632 103.913 140.598 103.893 140.598 103.893C140.598 103.838 140.578 103.77 140.537 103.688C140.509 103.605 140.496 103.537 140.496 103.482C140.4 103.428 140.345 103.373 140.331 103.318C140.318 103.25 140.338 103.141 140.393 102.99C140.475 102.854 140.584 102.635 140.721 102.334C140.858 102.02 141.001 101.685 141.152 101.329C141.302 100.96 141.446 100.598 141.582 100.242C141.719 99.8868 141.835 99.586 141.931 99.34C142.027 99.0802 142.081 98.923 142.095 98.8683C142.095 98.8136 142.116 98.7452 142.157 98.6632C142.198 98.5812 142.245 98.5128 142.3 98.4581C142.41 98.3624 142.526 98.3556 142.649 98.4376C142.772 98.506 142.874 98.629 142.956 98.8068C143.052 98.9708 143.1 99.1554 143.1 99.3605C143.1 99.4562 143.032 99.7023 142.895 100.099C142.758 100.482 142.574 100.94 142.341 101.473C142.122 102.006 141.876 102.546 141.603 103.093C141.398 103.489 141.268 103.742 141.213 103.852C141.159 103.947 141.056 103.995 140.906 103.995ZM143.92 96.2228C143.756 96.2228 143.578 96.1613 143.387 96.0383C143.209 95.9015 143.052 95.7375 142.915 95.5461C142.792 95.341 142.731 95.1359 142.731 94.9309C142.731 94.8625 142.772 94.7668 142.854 94.6438C142.936 94.5207 143.018 94.3977 143.1 94.2746C143.182 94.1516 143.223 94.0764 143.223 94.049C143.332 94.049 143.414 94.0559 143.469 94.0696C143.537 94.0696 143.619 94.0969 143.715 94.1516C143.866 94.4934 144.05 94.7736 144.269 94.9924C144.501 95.2111 144.617 95.3957 144.617 95.5461C144.617 95.8469 144.59 96.0383 144.535 96.1203C144.481 96.1887 144.276 96.2228 143.92 96.2228ZM146.433 104.344C146.296 104.439 146.2 104.487 146.146 104.487C146.091 104.474 145.989 104.392 145.838 104.241C145.578 103.995 145.394 103.53 145.284 102.847C145.189 102.149 145.141 101.172 145.141 99.9142C145.196 99.3536 145.223 98.8751 145.223 98.4786C145.237 98.0822 145.243 97.8566 145.243 97.8019C145.284 97.7472 145.367 97.7199 145.49 97.7199C145.626 97.7199 145.742 97.7472 145.838 97.8019C145.975 97.8703 146.064 97.9728 146.105 98.1095C146.159 98.2462 146.194 98.4923 146.207 98.8478C146.221 99.1896 146.228 99.7159 146.228 100.427C146.187 100.974 146.166 101.452 146.166 101.862C146.166 102.259 146.187 102.484 146.228 102.539C146.282 102.635 146.344 102.662 146.412 102.621C146.494 102.566 146.638 102.437 146.843 102.232C146.952 102.081 147.089 101.883 147.253 101.637C147.417 101.377 147.547 101.172 147.643 101.022C147.793 100.83 147.93 100.646 148.053 100.468C148.19 100.29 148.285 100.174 148.34 100.119C148.395 100.01 148.463 99.9073 148.545 99.8116C148.627 99.7159 148.696 99.6202 148.75 99.5245C148.901 99.2648 149.058 99.0529 149.222 98.8888C149.386 98.7111 149.495 98.6222 149.55 98.6222C149.605 98.6632 149.653 98.6769 149.694 98.6632C149.748 98.6359 149.803 98.6222 149.858 98.6222C149.953 98.5265 150.083 98.5265 150.247 98.6222C150.302 98.6632 150.35 98.7111 150.391 98.7657C150.432 98.8068 150.452 98.8546 150.452 98.9093C150.452 98.9777 150.398 99.1212 150.288 99.34C150.193 99.5587 150.076 99.7706 149.94 99.9757C149.817 100.167 149.721 100.283 149.653 100.324C149.653 100.324 149.632 100.345 149.591 100.386C149.55 100.427 149.502 100.475 149.447 100.529C149.42 100.625 149.331 100.796 149.181 101.042C149.03 101.274 148.846 101.541 148.627 101.842C148.408 102.143 148.183 102.443 147.95 102.744C147.718 103.045 147.513 103.312 147.335 103.544C147.198 103.735 147.041 103.906 146.864 104.057C146.686 104.193 146.542 104.289 146.433 104.344ZM154.74 104.282C154.452 104.528 154.117 104.672 153.735 104.713C153.366 104.754 153.003 104.699 152.648 104.549C152.292 104.385 151.998 104.139 151.766 103.811C151.534 103.51 151.383 103.168 151.315 102.785C151.246 102.389 151.24 101.876 151.294 101.247C151.335 100.714 151.506 100.181 151.807 99.6476C152.108 99.1007 152.47 98.6154 152.894 98.1915C153.331 97.7677 153.762 97.4738 154.186 97.3097C154.391 97.173 154.562 97.1115 154.698 97.1252C154.849 97.1252 155.074 97.1388 155.375 97.1662C155.69 97.2072 155.922 97.2687 156.072 97.3507C156.237 97.4328 156.366 97.5421 156.462 97.6789C156.667 97.8839 156.804 98.089 156.872 98.2941C156.941 98.4855 156.975 98.6769 156.975 98.8683C156.92 99.1691 156.715 99.5382 156.36 99.9757C156.018 100.4 155.567 100.748 155.006 101.022C154.705 101.117 154.377 101.158 154.022 101.145C153.666 101.131 153.372 101.042 153.14 100.878C152.88 100.769 152.709 100.789 152.627 100.94C152.545 101.076 152.47 101.418 152.402 101.965C152.347 102.484 152.388 102.867 152.525 103.113C152.661 103.346 152.846 103.482 153.078 103.523C153.352 103.578 153.564 103.619 153.714 103.647C153.878 103.66 154.076 103.599 154.309 103.462C154.528 103.325 154.664 103.25 154.719 103.236C154.774 103.209 154.815 103.182 154.842 103.154C154.883 103.113 154.972 103.024 155.109 102.888C155.204 102.792 155.28 102.724 155.334 102.683C155.389 102.628 155.45 102.601 155.519 102.601C155.587 102.601 155.649 102.635 155.703 102.703C155.758 102.758 155.813 102.799 155.867 102.826C156.004 102.826 156.031 102.908 155.949 103.072C155.881 103.236 155.738 103.435 155.519 103.667C155.3 103.886 155.04 104.091 154.74 104.282ZM154.719 99.9347C154.869 99.8663 155.027 99.7706 155.191 99.6476C155.355 99.5109 155.491 99.3673 155.601 99.2169C155.724 99.0529 155.785 98.9161 155.785 98.8068C155.785 98.6154 155.697 98.4581 155.519 98.3351C155.341 98.1984 155.074 98.1779 154.719 98.2736C154.569 98.3146 154.398 98.4171 154.206 98.5812C154.015 98.7316 153.83 98.9025 153.653 99.0939C153.489 99.2853 153.352 99.4562 153.242 99.6066C153.147 99.7569 153.113 99.8458 153.14 99.8731C153.181 99.9415 153.297 99.9962 153.489 100.037C153.68 100.065 153.892 100.071 154.124 100.058C154.37 100.044 154.569 100.003 154.719 99.9347ZM158.783 104.098C158.729 104.098 158.647 104.063 158.537 103.995C158.442 103.913 158.366 103.845 158.312 103.79C158.216 103.681 158.155 103.571 158.127 103.462C158.114 103.353 158.107 103.106 158.107 102.724C158.107 102.286 158.196 101.815 158.373 101.309C158.551 100.789 158.852 100.065 159.276 99.1349L159.952 97.6994C160.007 97.59 160.055 97.508 160.096 97.4533C160.151 97.3986 160.198 97.3439 160.239 97.2892C160.294 97.2892 160.342 97.2892 160.383 97.2892C160.424 97.2892 160.445 97.2892 160.445 97.2892C160.554 97.2892 160.663 97.3576 160.773 97.4943C160.882 97.6173 160.964 97.754 161.019 97.9044C161.019 98.0822 160.991 98.2667 160.937 98.4581C160.896 98.6495 160.732 98.9366 160.445 99.3194C160.349 99.4698 160.219 99.7228 160.055 100.078C159.905 100.434 159.802 100.741 159.747 101.001C159.734 101.015 159.706 101.076 159.665 101.186C159.624 101.281 159.576 101.391 159.522 101.514C159.481 101.637 159.433 101.753 159.378 101.862L159.276 102.314L160.65 100.899C161.292 100.256 161.812 99.798 162.208 99.5245C162.605 99.2511 162.919 99.1349 163.152 99.1759C163.384 99.2169 163.582 99.4015 163.746 99.7296C163.842 99.88 163.91 100.017 163.951 100.14C164.006 100.249 164.04 100.4 164.054 100.591C164.068 100.782 164.054 101.069 164.013 101.452V102.724C164.218 102.669 164.382 102.621 164.505 102.58C164.628 102.525 164.758 102.471 164.895 102.416C165.018 102.361 165.161 102.314 165.325 102.273C165.489 102.218 165.694 102.184 165.941 102.17C165.927 102.348 165.865 102.539 165.756 102.744C165.647 102.936 165.51 103.12 165.346 103.298C165.182 103.476 164.997 103.619 164.792 103.729C164.601 103.838 164.409 103.893 164.218 103.893C164.04 103.893 163.842 103.804 163.623 103.626C163.404 103.448 163.247 103.25 163.152 103.031C163.097 102.881 163.063 102.717 163.049 102.539C163.049 102.361 163.049 102.033 163.049 101.555V100.796C163.049 100.577 162.981 100.516 162.844 100.611C162.721 100.693 162.618 100.769 162.536 100.837C162.331 101.015 162.112 101.22 161.88 101.452C161.661 101.685 161.436 101.924 161.203 102.17C160.574 102.826 160.048 103.312 159.624 103.626C159.214 103.94 158.934 104.098 158.783 104.098Z" fill="black"/>
<path d="M176 31H167V32H176V31Z" fill="black"/>
<path d="M180.82 58.005C174.52 58.2044 168.118 58.3688 161.668 58.5103C155.218 58.6528 148.723 58.7678 142.184 58.8552C138.924 58.9115 135.643 58.9228 132.369 58.9548L127.454 58.9941L122.531 58.998C119.25 59.0103 115.961 58.9623 112.682 58.9325C109.4 58.8782 106.123 58.8254 102.853 58.7464L102 58.7257L102.018 57.9178L102.329 43.7685C102.381 41.4103 102.397 39.0521 102.432 36.6939C102.461 34.3357 102.459 31.9775 102.473 29.6193C102.48 24.9028 102.457 20.1864 102.405 15.47C102.35 10.7536 102.248 6.0372 102.172 1.32078L102.162 0.658987L102.853 0.645501C109.343 0.51884 115.833 0.379382 122.323 0.290927L141.793 0.122008L151.527 0.0497293L156.395 0.0135687L161.262 0.00638371C164.507 0.00875139 167.752 -0.0111924 170.997 0.0094716L180.732 0.0687081L182 0.0764115L181.994 1.32078C181.973 6.11188 181.888 10.8991 181.829 15.6775L181.552 29.9563L181.206 44.088L180.82 58.005ZM180.644 57.8306L180.258 43.449L179.912 29.2822L179.636 15.2626C179.576 10.6081 179.492 5.96247 179.47 1.32077L180.732 2.57275L170.997 2.63199C167.752 2.65262 164.507 2.63271 161.262 2.63504L156.395 2.62787L151.527 2.59175L141.793 2.51944L122.323 2.35056C115.833 2.26206 109.343 2.1226 102.853 1.99594L103.534 1.32079C103.458 6.03721 103.356 10.7536 103.301 15.47C103.246 20.1864 103.224 24.9028 103.233 29.6193C103.247 31.9775 103.245 34.3357 103.274 36.6939C103.309 39.0521 103.325 41.4103 103.377 43.7685L103.688 57.9178L102.853 57.0893C106.073 57.0102 109.286 56.9574 112.494 56.9032C115.704 56.8733 118.906 56.8253 122.115 56.8376L126.926 56.8415L131.746 56.8809C134.963 56.9128 138.171 56.9241 141.401 56.9804C147.85 57.0659 154.335 57.1809 160.856 57.3254C167.386 57.4669 173.964 57.6312 180.644 57.8306Z" fill="black"/>
<path d="M110.505 6C110.714 7.91666 110.823 9.83331 110.898 11.75C110.944 12.7083 110.955 13.6667 110.982 14.625L111.01 17.5L110.983 20.375C110.955 21.3333 110.946 22.2917 110.899 23.25C110.825 25.1667 110.715 27.0833 110.505 29C110.295 27.0833 110.185 25.1667 110.111 23.25C110.064 22.2917 110.055 21.3333 110.027 20.375L110 17.5L110.028 14.625C110.055 13.6667 110.066 12.7083 110.112 11.75C110.186 9.83331 110.296 7.91665 110.505 6ZM118.748 26.2111C117.867 26.2628 116.945 26.3075 116.005 26.343C115.068 26.386 114.108 26.4021 113.153 26.4102L112.931 26.4121L112.929 26.1938C112.921 25.4485 112.927 24.7031 112.958 23.9578L113.049 21.7217C113.071 20.9763 113.084 20.2309 113.069 19.4856C113.066 18.7402 113.04 17.9948 113.014 17.2495L113.01 17.1215L113.153 17.1158C114.082 17.0789 115.012 17.0516 115.941 17.0339L118.73 16.9948L118.992 16.9912L118.994 17.2495C119.001 18.0095 119.005 18.7734 118.99 19.5334C118.982 20.2947 118.959 21.052 118.934 21.8032C118.894 23.3098 118.82 24.787 118.748 26.2111ZM118.713 26.1766C118.641 24.6193 118.567 23.115 118.527 21.6402C118.502 20.9007 118.479 20.1672 118.471 19.4378C118.456 18.707 118.46 17.9802 118.467 17.2495L118.73 17.5041L115.941 17.465C115.012 17.4468 114.082 17.4195 113.152 17.3831L113.291 17.2495C113.265 17.9948 113.239 18.7402 113.236 19.4856C113.221 20.2309 113.234 20.9763 113.256 21.7217L113.346 23.9578C113.377 24.7031 113.384 25.4485 113.376 26.1938L113.152 25.9776C114.057 25.9856 114.955 26.0017 115.878 26.0447C116.797 26.0802 117.734 26.125 118.713 26.1766Z" fill="black"/>
<path d="M123.795 26.8245C123.058 26.8595 122.302 26.903 121.528 26.9289C120.757 26.9593 119.973 26.9884 119.186 26.998L119.017 27L119.015 26.8082C119.003 25.7597 118.994 24.7113 119.004 23.6628C119.015 22.6143 119.054 21.5658 119.08 20.5174C119.114 19.4689 119.127 18.4204 119.121 17.3719L119.107 15.7992L119.072 14.2265L119.07 14.1038L119.186 14.1002C119.952 14.0766 120.718 14.0494 121.483 14.0371C122.249 14.0186 123.015 14.011 123.78 14.0023L123.98 14L123.982 14.2265C123.992 15.288 124.004 16.3538 123.999 17.4182C123.993 18.4817 123.985 19.5465 123.96 20.6C123.936 21.6528 123.923 22.7094 123.889 23.7447L123.795 26.8245ZM123.765 26.7919L123.672 23.5809C123.638 22.5192 123.624 21.4789 123.6 20.4347C123.576 19.3913 123.567 18.3592 123.562 17.3257C123.556 16.2931 123.568 15.2621 123.578 14.2265L123.78 14.4507C123.015 14.4419 122.249 14.4344 121.483 14.4158C120.718 14.4036 119.952 14.3764 119.186 14.3528L119.3 14.2265L119.265 15.7992L119.252 17.3719C119.246 18.4204 119.259 19.4689 119.293 20.5174C119.318 21.5658 119.357 22.6143 119.368 23.6628C119.378 24.7113 119.369 25.7597 119.357 26.8082L119.186 26.6185C119.931 26.628 120.678 26.6571 121.438 26.6876C122.195 26.7134 122.971 26.7569 123.765 26.7919Z" fill="black"/>
<path d="M128.796 26.8197C128.056 26.8544 127.299 26.8973 126.526 26.9254C125.754 26.951 124.972 26.9901 124.187 26.9983L124.025 27L124.022 26.8021C124.006 25.5051 123.996 24.2081 124.002 22.9111C124.007 21.6141 124.046 20.317 124.073 19.02C124.107 17.723 124.127 16.426 124.122 15.129L124.109 13.1835L124.073 11.238L124.07 11.1055L124.187 11.1017C125.718 11.0522 127.249 11.0149 128.781 11.0017L128.977 11L128.978 11.238C128.986 12.5482 129.005 13.8646 128.999 15.1787C129 16.4939 128.984 17.8063 128.965 19.111C128.939 20.4122 128.927 21.7189 128.892 23.0017L128.796 26.8197ZM128.766 26.7846L128.669 22.8205C128.635 21.5093 128.623 20.2219 128.597 18.9291C128.578 17.6398 128.562 16.3581 128.563 15.0793C128.557 13.7993 128.576 12.5217 128.583 11.238L128.781 11.4741C127.249 11.4609 125.718 11.4236 124.186 11.3741L124.3 11.238L124.264 13.1835L124.251 15.129C124.246 16.426 124.266 17.723 124.3 19.02C124.327 20.317 124.366 21.6141 124.371 22.911C124.377 24.2081 124.367 25.5051 124.351 26.8021L124.186 26.606C124.932 26.6142 125.682 26.6533 126.441 26.6789L128.766 26.7846Z" fill="black"/>
<path d="M134.584 27.3773C133.727 27.4138 132.848 27.4592 131.948 27.4861C131.051 27.5179 130.139 27.5483 129.225 27.5582L129.029 27.5604L129.026 27.3603C129.013 26.2666 129.002 25.173 129.014 24.0793C129.026 22.9856 129.072 21.8919 129.101 20.7983C129.141 19.7046 129.156 18.6109 129.149 17.5173L129.133 15.8768L129.093 14.2363L129.089 14.1082L129.225 14.1045C130.115 14.0799 131.005 14.0516 131.896 14.0387C132.786 14.0194 133.676 14.0115 134.566 14.0024L134.799 14L134.802 14.2363C134.813 15.3435 134.827 16.4553 134.821 17.5655C134.814 18.6748 134.804 19.7856 134.776 20.8845C134.748 21.9827 134.732 23.0848 134.693 24.1647L134.584 27.3773ZM134.549 27.3433L134.44 23.9939C134.401 22.8864 134.385 21.8012 134.357 20.7121C134.329 19.6237 134.319 18.5471 134.312 17.4691C134.306 16.392 134.32 15.3165 134.331 14.2363L134.566 14.4701C133.676 14.461 132.786 14.4531 131.896 14.4338C131.005 14.421 130.115 14.3926 129.225 14.368L129.357 14.2363L129.317 15.8768L129.301 17.5173C129.294 18.611 129.31 19.7047 129.349 20.7983C129.378 21.892 129.424 22.9856 129.436 24.0793C129.448 25.173 129.437 26.2666 129.424 27.3603L129.225 27.1624C130.091 27.1723 130.96 27.2027 131.843 27.2345C132.724 27.2614 133.625 27.3068 134.549 27.3433ZM127 50.9739C128.014 48.2513 129.086 45.5526 130.172 42.86L131.825 38.831L131.928 38.5792C131.972 38.4772 132.026 38.3796 132.089 38.2879C132.215 38.0991 132.386 37.944 132.586 37.8366C132.784 37.7283 133.003 37.6643 133.228 37.6489C133.453 37.6335 133.679 37.6672 133.89 37.7476C134.1 37.8323 134.29 37.9611 134.446 38.1251C134.582 38.2847 134.693 38.4638 134.775 38.6565L135.247 39.6379C136.493 42.2611 137.696 44.9054 138.963 47.5186L139.441 48.4967C139.51 48.6574 139.595 48.8105 139.696 48.9534C139.797 49.0871 139.93 49.1933 140.083 49.2625C140.234 49.3344 140.399 49.3722 140.566 49.3733C140.734 49.3743 140.899 49.3386 141.051 49.2687C141.203 49.2009 141.336 49.0976 141.439 48.9677C141.492 48.9035 141.538 48.8345 141.577 48.7616L141.7 48.519C142.362 47.2267 142.988 45.9161 143.633 44.6152C144.904 42.0035 146.193 39.4009 147.5 36.8073L148.48 34.8624L148.97 33.8899L149.215 33.4037C149.262 33.3171 149.285 33.254 149.35 33.1482C149.406 33.0473 149.474 32.9531 149.551 32.8675C149.71 32.6955 149.905 32.5608 150.122 32.4734C150.339 32.3859 150.573 32.3478 150.807 32.3619C151.041 32.376 151.269 32.4419 151.474 32.5549C151.679 32.6678 151.857 32.8249 151.993 33.0147C152.057 33.1068 152.112 33.204 152.16 33.3053L152.275 33.5522L152.504 34.0459L152.961 35.0342C155.373 40.3169 157.746 45.6174 160 50.9728L159.941 51C157.31 45.8174 154.8 40.58 152.328 35.3247L151.869 34.3371L151.641 33.8429L151.527 33.5958C151.497 33.5329 151.463 33.4723 151.424 33.4149C151.346 33.3102 151.247 33.2236 151.132 33.1611C151.017 33.0987 150.891 33.0619 150.76 33.0533C150.63 33.0447 150.499 33.0645 150.377 33.1113C150.255 33.1582 150.145 33.2309 150.054 33.3245C150.009 33.3729 149.97 33.4264 149.937 33.484C149.903 33.5308 149.855 33.6355 149.815 33.7084L149.562 34.1909L149.057 35.1558L148.047 37.0857C146.703 39.6603 145.338 42.2241 143.952 44.7772C143.27 46.0595 142.569 47.3321 141.904 48.6231L141.778 48.8646C141.73 48.9512 141.675 49.0331 141.611 49.1089C141.485 49.263 141.324 49.3848 141.141 49.4642C140.96 49.5448 140.763 49.5847 140.565 49.581C140.367 49.5773 140.172 49.5302 139.994 49.443C139.652 49.2563 139.391 48.9512 139.26 48.5855L138.772 47.6117C137.463 45.0197 136.089 42.4591 134.759 39.8771L134.264 38.9067C134.202 38.7658 134.12 38.6344 134.02 38.5165C133.924 38.4177 133.808 38.3399 133.68 38.2878C133.549 38.239 133.409 38.219 133.269 38.2292C133.13 38.2395 132.994 38.2797 132.872 38.3471C132.75 38.4124 132.646 38.5057 132.568 38.6191C132.527 38.6764 132.491 38.7373 132.462 38.8011L132.354 39.0511L130.634 43.0524C129.472 45.7132 128.295 48.368 127.06 50.9989L127 50.9739Z" fill="black"/>
<path d="M120 50.9734C121.045 48.1983 122.149 45.4477 123.268 42.7032L124.971 38.5966L125.077 38.34C125.123 38.236 125.178 38.1365 125.243 38.043C125.373 37.8506 125.549 37.6926 125.756 37.583C125.959 37.4727 126.185 37.4074 126.417 37.3917C126.649 37.3761 126.881 37.4104 127.099 37.4923C127.315 37.5787 127.511 37.7099 127.672 37.8771C127.812 38.0398 127.926 38.2224 128.01 38.4187L128.496 39.4191C129.781 42.0927 131.02 44.788 132.325 47.4515L132.818 48.4485C132.889 48.6122 132.977 48.7683 133.08 48.914C133.184 49.0502 133.321 49.1585 133.479 49.229C133.635 49.3023 133.805 49.3408 133.977 49.3419C134.15 49.343 134.321 49.3066 134.477 49.2354C134.634 49.1662 134.771 49.061 134.877 48.9285C134.931 48.8631 134.978 48.7928 135.018 48.7185L135.145 48.4712C135.827 47.154 136.472 45.8182 137.137 44.4922C138.447 41.8302 139.775 39.1775 141.121 36.534L142.131 34.5515L142.636 33.5604L142.889 33.0648C142.936 32.9765 142.961 32.9122 143.027 32.8043C143.085 32.7015 143.155 32.6055 143.235 32.5183C143.398 32.3429 143.599 32.2057 143.823 32.1165C144.046 32.0274 144.288 31.9885 144.529 32.0029C144.77 32.0173 145.005 32.0845 145.216 32.1996C145.427 32.3147 145.61 32.4748 145.75 32.6683C145.816 32.7622 145.873 32.8612 145.922 32.9644L146.041 33.2161L146.277 33.7194L146.748 34.7267C149.233 40.1111 151.678 45.5137 154 50.9723L153.939 51C151.229 45.7176 148.642 40.3793 146.096 35.0227L145.623 34.0162L145.388 33.5124L145.27 33.2606C145.24 33.1964 145.204 33.1347 145.164 33.0761C145.084 32.9694 144.981 32.8812 144.863 32.8175C144.745 32.7539 144.615 32.7163 144.48 32.7076C144.346 32.6988 144.211 32.719 144.086 32.7667C143.96 32.8145 143.847 32.8887 143.753 32.984C143.706 33.0333 143.666 33.0879 143.632 33.1466C143.597 33.1943 143.548 33.301 143.506 33.3753L143.246 33.8671L142.726 34.8506L141.685 36.8177C140.3 39.4419 138.894 42.0551 137.465 44.6573C136.763 45.9644 136.041 47.2615 135.356 48.5773L135.226 48.8235C135.177 48.9118 135.119 48.9952 135.054 49.0725C134.924 49.2295 134.758 49.3537 134.569 49.4346C134.383 49.5168 134.18 49.5574 133.976 49.5537C133.772 49.5499 133.571 49.5019 133.388 49.413C133.036 49.2227 132.767 48.9117 132.632 48.539L132.129 47.5464C130.78 44.9045 129.364 42.2946 127.994 39.6629L127.484 38.6738C127.42 38.5302 127.336 38.3962 127.233 38.276C127.134 38.1754 127.014 38.096 126.882 38.0429C126.747 37.9932 126.603 37.9728 126.459 37.9832C126.316 37.9937 126.176 38.0347 126.05 38.1033C125.924 38.17 125.817 38.265 125.736 38.3806C125.694 38.439 125.658 38.5011 125.627 38.5661L125.516 38.821L123.745 42.8993C122.547 45.6114 121.334 48.3174 120.062 50.9989L120 50.9734Z" fill="black"/>
<path d="M141.853 48.8089C141.748 49.0128 141.587 49.1837 141.389 49.3025C141.191 49.4213 140.963 49.4833 140.731 49.4816C140.5 49.4799 140.273 49.4146 140.077 49.2929C139.88 49.1712 139.722 48.9979 139.62 48.7925L137.271 44.0797L134.825 48.8089C134.719 49.0128 134.558 49.1837 134.36 49.3025C134.162 49.4213 133.934 49.4833 133.703 49.4816C133.471 49.4799 133.244 49.4146 133.048 49.2929C132.852 49.1712 132.693 48.9979 132.591 48.7925L130.071 43.7374L127 51H153.372L147.371 38.1408L141.853 48.8089ZM158.591 20.1412L159.981 29.827C159.961 29.8303 159.938 29.8303 159.918 29.8336C159.778 29.8468 159.634 29.8567 159.493 29.8633C159.48 29.8633 159.467 29.8666 159.45 29.8666C157.364 29.9701 155.296 29.4297 153.535 28.3202C151.773 27.2108 150.404 25.5872 149.618 23.6747C149.614 23.6588 149.609 23.6434 149.602 23.6285C149.551 23.503 149.501 23.3742 149.455 23.2454C149.435 23.186 149.418 23.1266 149.398 23.0704C149.364 22.978 149.334 22.8888 149.308 22.793C149.261 22.6378 149.214 22.4826 149.177 22.3241C149.13 22.1458 149.094 21.9674 149.057 21.7891C149.05 21.7495 149.047 21.7098 149.037 21.6702C149.013 21.5282 148.99 21.3829 148.97 21.2409C148.963 21.2046 148.96 21.1682 148.957 21.1319C148.94 20.9833 148.923 20.8347 148.913 20.6828C148.909 20.6555 148.907 20.6279 148.907 20.6003C148.896 20.4384 148.886 20.2766 148.886 20.1148C148.884 20.1007 148.883 20.0863 148.883 20.0719C148.869 18.9708 149.039 17.8749 149.388 16.829C149.394 16.8092 149.404 16.7894 149.411 16.7662C149.461 16.6243 149.511 16.4822 149.568 16.3402C149.582 16.3039 149.598 16.2676 149.612 16.2313C149.662 16.1025 149.719 15.977 149.775 15.8548C149.795 15.8119 149.812 15.7689 149.832 15.7293C149.892 15.6005 149.956 15.475 150.023 15.3528C150.039 15.3165 150.056 15.2835 150.073 15.2504C150.16 15.0952 150.247 14.94 150.34 14.7881C150.354 14.765 150.37 14.7419 150.384 14.7188C150.464 14.5933 150.544 14.4678 150.628 14.3456C150.661 14.2994 150.694 14.2564 150.724 14.2102C150.741 14.1904 150.755 14.1673 150.771 14.1475L158.591 20.1412ZM158.882 19.4246L151.232 13.563C152.882 11.6103 155.228 10.3584 157.786 10.0659C160.343 9.77333 162.916 10.4625 164.974 11.991L158.882 19.4246ZM161.352 29.5892C161.141 29.6388 160.93 29.685 160.72 29.718L159.333 20.0487L165.556 12.4566C165.656 12.5425 165.756 12.6317 165.853 12.7241C165.873 12.7407 165.893 12.7605 165.91 12.777C166.097 12.9553 166.277 13.1369 166.451 13.3318C166.811 13.7299 167.137 14.1562 167.427 14.6065C167.427 14.6098 167.43 14.6098 167.43 14.6131C167.718 15.059 167.968 15.5273 168.179 16.0133C168.182 16.0212 168.185 16.029 168.189 16.0364C168.286 16.2609 168.376 16.4921 168.456 16.7299C168.47 16.7695 168.483 16.8091 168.496 16.8521C168.573 17.0832 168.647 17.3177 168.707 17.5587C169.023 18.8259 169.084 20.1423 168.886 21.4327C168.688 22.7232 168.234 23.9623 167.551 25.0795C166.868 26.1966 165.969 27.1699 164.905 27.9437C163.841 28.7175 162.634 29.2766 161.352 29.5892Z" fill="black"/>
<path d="M151 13.1747L151.174 12.9415C151.117 13.0214 151.06 13.0981 151.006 13.1813L151 13.1747ZM151.433 12.5852L151.443 12.5919C151.367 12.6851 151.291 12.7817 151.218 12.8782L151.433 12.5852ZM159.767 28.9867L159.938 28.9667L159.72 29V28.9933C159.736 28.9895 159.751 28.9872 159.767 28.9867ZM160.109 28.94H160.128L159.938 28.9667C159.995 28.96 160.052 28.95 160.109 28.94ZM160.419 28.8834L160.422 28.8967L160.128 28.94V28.9367C160.226 28.92 160.324 28.9034 160.419 28.8834ZM164.45 11L164.725 11.2331L164.722 11.2364C164.63 11.1598 164.538 11.0833 164.444 11.0067L164.45 11ZM165 11.4695L164.994 11.4762C164.908 11.3963 164.823 11.3197 164.734 11.2431L165 11.4695Z" fill="white"/>
<path d="M174 14H160V15H174V14Z" fill="black"/>
<path d="M150.743 15L146.694 10.3069H138V10H146.853L151 14.8083L150.743 15Z" fill="black"/>
<path d="M186 43H177.147L173 37.23L173.258 37L177.306 42.6321H186V43Z" fill="black"/>
<path fill-rule="evenodd" clip-rule="evenodd" d="M200.876 80.0873C201.423 77.6718 201.341 75.357 201.367 72.9168C201.372 72.4403 200.99 72.0512 200.515 72.0456C200.04 72.0401 199.65 72.4233 199.645 72.8999C199.62 75.2138 199.715 77.4135 199.196 79.7079C199.091 80.1719 199.383 80.6344 199.846 80.7377C200.309 80.844 200.771 80.5513 200.876 80.0873Z" fill="black"/>
<path fill-rule="evenodd" clip-rule="evenodd" d="M205.985 84.6532C209.929 80.912 213.622 76.1249 216.176 71.313C216.399 70.8927 216.239 70.3704 215.819 70.1485C215.399 69.9266 214.878 70.0856 214.655 70.5059C212.185 75.1584 208.614 79.7882 204.8 83.4036C204.455 83.7314 204.441 84.277 204.768 84.6212C205.095 84.9653 205.64 84.981 205.985 84.6532Z" fill="black"/>
<path fill-rule="evenodd" clip-rule="evenodd" d="M207.076 88.6402C210.756 89.1777 214.519 88.0748 217.829 86.5526C218.261 86.3523 218.45 85.8408 218.251 85.4111C218.053 84.9785 217.541 84.7899 217.109 84.9873C214.095 86.3748 210.677 87.4255 207.325 86.9364C206.855 86.8676 206.417 87.1943 206.349 87.6634C206.28 88.1325 206.606 88.5714 207.076 88.6402Z" fill="black"/>
<defs>
<clipPath id="clip0_16_4">
<rect width="57.5056" height="57.5056" fill="white" transform="translate(52.7422 109.176) rotate(-154.315)"/>
</clipPath>
</defs>
</svg>
