<svg width="244" height="103" viewBox="0 0 244 103" fill="none" xmlns="http://www.w3.org/2000/svg">
<path d="M176.408 55.696C174.586 56.0609 172.455 57.3215 170.791 58.2088M170.791 58.2088C170.759 58.2259 171.049 58.5793 171.072 58.6062C172.114 59.8127 174.679 61.079 176.16 61.3703M170.791 58.2088C180.659 58.9612 191.852 58.8619 202.906 58.8035C211.826 58.7564 220.655 58.736 228.624 59.2112" stroke="black" stroke-width="3.62754" stroke-miterlimit="1.5" stroke-linecap="round" stroke-linejoin="round"/>
<path d="M43 78.4395C45.6261 78.1897 48.2969 78.2445 50.9345 78.0962C55.6076 77.8335 60.2724 77.4702 64.9454 77.2008C80.5621 76.3003 96.3779 76.1707 112 76.962" stroke="black" stroke-width="0.603783" stroke-linecap="round"/>
<path d="M48.3515 66.4762C48.4493 66.398 48.5569 66.3589 48.6742 66.3589C48.7916 66.3589 48.8992 66.4078 48.9969 66.5056C49.0947 66.5838 49.1632 66.6816 49.2023 66.799C49.2414 66.9163 49.2414 67.0435 49.2023 67.1804C49.1828 67.3173 49.1143 67.4346 48.9969 67.5324C48.5471 67.8649 48.0092 68.1974 47.3833 68.53C46.777 68.8429 46.1609 68.9994 45.535 68.9994C45.0656 68.9994 44.6646 68.8918 44.3321 68.6766C44.0191 68.4419 43.7551 68.1486 43.5399 67.7965C43.3444 67.4444 43.1879 67.063 43.0705 66.6523C42.9532 66.222 42.8652 65.821 42.8065 65.4494C42.7282 64.8431 42.738 64.2074 42.8358 63.5424C42.9336 62.8774 43.1194 62.271 43.3933 61.7234C43.6866 61.1757 44.068 60.7259 44.5375 60.3738C45.0264 60.0022 45.6034 59.8164 46.2684 59.8164C46.5423 59.8164 46.8357 59.8457 47.1486 59.9044C47.3246 59.9435 47.442 60.0315 47.5007 60.1684C47.5789 60.3053 47.5985 60.452 47.5594 60.6085C47.5398 60.7454 47.4713 60.8726 47.354 60.9899C47.2562 61.0877 47.129 61.1366 46.9726 61.1366C46.9335 61.1366 46.9041 61.1366 46.8846 61.1366C46.865 61.117 46.8357 61.1073 46.7965 61.1073C46.6987 61.0681 46.601 61.0486 46.5032 61.0486C46.4249 61.0486 46.3467 61.0486 46.2684 61.0486C45.7795 61.0486 45.3785 61.2051 45.0656 61.518C44.7526 61.8114 44.5081 62.183 44.3321 62.6329C44.1756 63.0632 44.068 63.5326 44.0094 64.0411C43.9703 64.5301 43.98 64.9702 44.0387 65.3614C44.0778 65.6548 44.1463 65.9384 44.2441 66.2122C44.3419 66.4665 44.469 66.7012 44.6255 66.9163C44.782 67.1119 44.9678 67.2782 45.1829 67.4151C45.3981 67.5324 45.6523 67.5911 45.9457 67.5911C46.1413 67.5911 46.288 67.5813 46.3858 67.5618C46.7379 67.4835 47.0802 67.3368 47.4127 67.1217C47.7647 66.9065 48.0777 66.6914 48.3515 66.4762ZM50.9409 65.3614C50.9017 66.0851 50.8528 66.8088 50.7942 67.5324C50.7355 68.2366 50.6866 68.9505 50.6475 69.6742C50.6475 69.8893 50.579 70.036 50.4421 70.1142C50.3052 70.212 50.1585 70.2609 50.002 70.2609C49.8456 70.2609 49.6989 70.212 49.5619 70.1142C49.4446 70.036 49.3957 69.8893 49.4153 69.6742C49.513 68.1681 49.6011 66.6718 49.6793 65.1853C49.7771 63.6988 49.8749 62.2026 49.9727 60.6965C49.8945 60.5792 49.8553 60.4423 49.8553 60.2858C49.8749 60.1293 49.9336 60.0022 50.0314 59.9044C50.0509 59.7479 50.0607 59.6012 50.0607 59.4643C50.0607 59.3078 50.0705 59.1514 50.09 58.9949C50.1096 58.7993 50.1781 58.6526 50.2954 58.5548C50.4323 58.457 50.579 58.4081 50.7355 58.4081C50.892 58.4081 51.0289 58.457 51.1462 58.5548C51.2831 58.6526 51.3418 58.7993 51.3223 58.9949C51.3027 59.1122 51.2929 59.2296 51.2929 59.3469C51.2929 59.4643 51.2929 59.5817 51.2929 59.699C51.5668 59.6794 51.8406 59.6697 52.1144 59.6697C52.4078 59.6501 52.7012 59.6403 52.9946 59.6403C53.3271 59.6403 53.6498 59.6501 53.9628 59.6697C54.2953 59.6892 54.6278 59.7186 54.9603 59.7577C55.2341 59.7968 55.4884 59.875 55.7231 59.9924C55.9578 60.1097 56.0947 60.3249 56.1338 60.6378C56.1534 60.853 56.1045 61.0681 55.9871 61.2833C55.8698 61.4789 55.7133 61.6647 55.5177 61.8407C55.3417 62.0168 55.1461 62.183 54.9309 62.3395C54.7353 62.4764 54.5691 62.6035 54.4322 62.7209C54.0801 62.9947 53.6791 63.2588 53.2293 63.513C52.799 63.7477 52.4176 64.0314 52.0851 64.3639C52.8479 64.5203 53.6107 64.6866 54.3735 64.8626C55.1363 65.0386 55.8991 65.2049 56.6619 65.3614C56.8379 65.4005 56.9553 65.4885 57.014 65.6254C57.0922 65.7623 57.1118 65.909 57.0727 66.0655C57.0531 66.2024 56.9846 66.3296 56.8673 66.4469C56.7695 66.5447 56.6424 66.5936 56.4859 66.5936C56.4468 66.5936 56.4174 66.5936 56.3979 66.5936C56.3783 66.574 56.3587 66.5643 56.3392 66.5643L50.9409 65.3614ZM51.0289 63.6891C51.2049 63.4935 51.4005 63.3174 51.6157 63.161C51.8308 63.0045 52.0557 62.848 52.2904 62.6916C52.4274 62.5938 52.6034 62.4862 52.8185 62.3688C53.0533 62.2515 53.288 62.1146 53.5227 61.9581C53.7574 61.8016 53.9823 61.6354 54.1975 61.4593C54.4126 61.2833 54.5789 61.1073 54.6962 60.9312C54.5984 60.9117 54.5006 60.9019 54.4028 60.9019C54.3246 60.9019 54.2268 60.9019 54.1094 60.9019C53.8747 60.9019 53.64 60.9117 53.4053 60.9312C53.1902 60.9312 53.0337 60.9312 52.9359 60.9312H52.2904H51.2049C51.1658 61.4007 51.1365 61.8701 51.1169 62.3395C51.0973 62.7893 51.068 63.2392 51.0289 63.6891ZM58.0012 60.3738C58.0207 60.1782 58.0892 60.0413 58.2065 59.9631C58.3239 59.8653 58.4608 59.8164 58.6173 59.8164C58.8716 59.8164 59.0574 59.9239 59.1747 60.1391C60.8568 59.8457 62.5487 59.699 64.2503 59.699C64.4459 59.699 64.5926 59.7675 64.6904 59.9044C64.7882 60.0217 64.8371 60.1586 64.8371 60.3151C64.8371 60.4716 64.7882 60.6183 64.6904 60.7552C64.5926 60.8726 64.4459 60.9312 64.2503 60.9312C62.5682 60.9312 60.9057 61.0779 59.2627 61.3713C59.3019 62.4275 59.3605 63.4837 59.4388 64.5399C60.2407 64.3834 61.0328 64.2563 61.8152 64.1585C62.6171 64.0607 63.4288 63.9922 64.2503 63.9531C64.4459 63.9336 64.5926 63.9922 64.6904 64.1292C64.7882 64.2465 64.8371 64.3834 64.8371 64.5399C64.8371 64.6768 64.7882 64.8137 64.6904 64.9506C64.5926 65.0875 64.4459 65.1658 64.2503 65.1853C63.4484 65.2245 62.6562 65.2929 61.8739 65.3907C61.1111 65.4885 60.3385 65.6156 59.5561 65.7721C59.5952 66.1829 59.6344 66.5936 59.6735 67.0043C59.7126 67.4151 59.7517 67.816 59.7908 68.2072C60.5536 68.0703 61.3067 67.9432 62.0499 67.8258C62.8127 67.6889 63.5755 67.552 64.3383 67.4151C64.3775 67.4151 64.397 67.4151 64.397 67.4151C64.4166 67.3955 64.4361 67.3857 64.4557 67.3857C64.6317 67.3857 64.7784 67.4444 64.8958 67.5618C65.0131 67.6791 65.0816 67.8063 65.1011 67.9432C65.1403 68.0801 65.1207 68.217 65.0425 68.3539C64.9838 68.4713 64.8566 68.5495 64.6611 68.5886L59.9082 69.4395C59.9082 69.4786 59.9082 69.5079 59.9082 69.5275C59.9277 69.547 59.9375 69.5764 59.9375 69.6155C59.9571 69.8306 59.9082 69.9773 59.7908 70.0556C59.6735 70.1534 59.5366 70.2023 59.3801 70.2023C59.2236 70.2023 59.0769 70.1534 58.94 70.0556C58.8227 69.9773 58.7444 69.8404 58.7053 69.6448C58.6075 69.6839 58.4999 69.7035 58.3826 69.7035C58.2848 69.7231 58.187 69.7426 58.0892 69.7622H57.9425C57.7665 69.7622 57.6198 69.7035 57.5024 69.5861C57.4046 69.4884 57.3362 69.371 57.297 69.2341C57.2775 69.0776 57.297 68.9407 57.3557 68.8233C57.434 68.6864 57.5709 68.5984 57.7665 68.5593C57.9034 68.5397 58.0305 68.5202 58.1479 68.5006C58.2848 68.4811 58.4217 68.4517 58.5586 68.4126C58.5195 68.0019 58.4804 67.5911 58.4413 67.1804C58.4021 66.7696 58.363 66.3589 58.3239 65.9481C58.2065 65.909 58.1088 65.8406 58.0305 65.7428C57.9523 65.6254 57.9034 65.5081 57.8838 65.3907C57.8643 65.2734 57.874 65.1658 57.9132 65.068C57.9718 64.9506 58.0696 64.8626 58.2065 64.8039C58.1674 64.2758 58.1381 63.7477 58.1185 63.2197C58.099 62.672 58.0696 62.1341 58.0305 61.606C57.8545 61.606 57.7078 61.5571 57.5904 61.4593C57.4926 61.342 57.4242 61.2148 57.3851 61.0779C57.3655 60.941 57.3851 60.8041 57.4437 60.6672C57.522 60.5303 57.6491 60.4423 57.8251 60.4031C57.8643 60.3836 57.9229 60.3738 58.0012 60.3738ZM66.3148 65.2734C66.5886 64.3736 66.882 63.4837 67.195 62.6035C67.5079 61.7038 67.8404 60.8237 68.1925 59.9631C68.2511 59.8066 68.3392 59.699 68.4565 59.6403C68.5739 59.5817 68.6912 59.5523 68.8086 59.5523C69.0042 59.5523 69.1704 59.6208 69.3073 59.7577C69.4443 59.8946 69.4638 60.0706 69.366 60.2858L69.278 60.5498L71.3317 65.332C71.4882 65.3907 71.5958 65.4983 71.6544 65.6548C71.7131 65.8112 71.7131 65.9677 71.6544 66.1242C71.85 66.5545 72.0358 66.9848 72.2119 67.4151C72.3879 67.8258 72.5737 68.2463 72.7693 68.6766C72.8671 68.9309 72.8378 69.1558 72.6813 69.3514C72.5248 69.5275 72.3488 69.6155 72.1532 69.6155C71.938 69.6155 71.7914 69.5079 71.7131 69.2928C71.498 68.8429 71.2926 68.3833 71.097 67.9138C70.9014 67.4444 70.7058 66.975 70.5102 66.5056H67.2243C66.97 67.4053 66.706 68.2855 66.4322 69.1461C66.393 69.3025 66.3148 69.4101 66.1974 69.4688C66.0996 69.547 65.9921 69.5861 65.8747 69.5861C65.6791 69.5861 65.5031 69.5177 65.3466 69.3808C65.2097 69.2439 65.1804 69.0581 65.2586 68.8233C65.3564 68.4322 65.464 68.0508 65.5813 67.6791C65.6987 67.2879 65.8063 66.8968 65.9041 66.5056H65.8454C65.6498 66.5056 65.5031 66.4469 65.4053 66.3296C65.3075 66.1926 65.2586 66.0459 65.2586 65.8895C65.2586 65.733 65.3075 65.5961 65.4053 65.4787C65.5031 65.3418 65.6498 65.2734 65.8454 65.2734H66.3148ZM68.6326 62.1928C68.4565 62.7013 68.2805 63.2197 68.1045 63.7477C67.9284 64.2563 67.7622 64.7648 67.6057 65.2734H69.9821C69.7474 64.7648 69.5127 64.2563 69.278 63.7477C69.0629 63.2197 68.8477 62.7013 68.6326 62.1928ZM73.4086 61.4593C73.213 61.4593 73.0663 61.4007 72.9685 61.2833C72.8707 61.1464 72.8218 60.9997 72.8218 60.8432C72.8218 60.6867 72.8707 60.5498 72.9685 60.4325C73.0663 60.2956 73.213 60.2271 73.4086 60.2271H75.961H81.0366C81.2322 60.2271 81.3789 60.2956 81.4767 60.4325C81.5745 60.5498 81.6234 60.6867 81.6234 60.8432C81.6234 60.9997 81.5745 61.1464 81.4767 61.2833C81.3789 61.4007 81.2322 61.4593 81.0366 61.4593H77.8387C77.8192 62.6916 77.7996 63.9238 77.78 65.156C77.78 66.3882 77.7996 67.6205 77.8387 68.8527C77.8387 69.0483 77.7703 69.195 77.6333 69.2928C77.516 69.3906 77.3791 69.4395 77.2226 69.4395C77.0661 69.4395 76.9194 69.3906 76.7825 69.2928C76.6652 69.195 76.6065 69.0483 76.6065 68.8527C76.5674 67.6205 76.5478 66.3882 76.5478 65.156C76.5674 63.9238 76.5869 62.6916 76.6065 61.4593H74.4648H73.4086ZM82.0046 60.2858C82.0046 60.0706 82.0633 59.9239 82.1806 59.8457C82.298 59.7479 82.4349 59.699 82.5914 59.699C82.7478 59.699 82.8945 59.7479 83.0314 59.8457C83.1684 59.9239 83.2368 60.0706 83.2368 60.2858C83.2955 61.7723 83.315 63.249 83.2955 64.7159C83.2955 66.1829 83.2564 67.6596 83.1781 69.1461C83.1586 69.3612 83.0803 69.5177 82.9434 69.6155C82.8065 69.7133 82.6598 69.7622 82.5033 69.7622C82.3469 69.7622 82.21 69.7133 82.0926 69.6155C81.9752 69.5177 81.9166 69.3612 81.9166 69.1461C82.0926 66.1926 82.1219 63.2392 82.0046 60.2858ZM88.4389 69.8795C88.5563 70.1338 88.5367 70.349 88.3802 70.525C88.2433 70.7206 88.0673 70.8184 87.8521 70.8184C87.637 70.8184 87.4707 70.7108 87.3534 70.4956C87.3143 70.437 87.2751 70.3685 87.236 70.2903C87.2165 70.2316 87.1871 70.1729 87.148 70.1142C86.9524 70.0947 86.7764 69.9871 86.6199 69.7915C86.483 69.6155 86.4634 69.4101 86.5612 69.1754C86.5808 69.1363 86.5906 69.1069 86.5906 69.0874C86.5906 69.0678 86.6004 69.0385 86.6199 68.9994C85.9745 67.6694 85.3877 66.3198 84.8596 64.9506C84.3315 63.5815 83.8523 62.183 83.422 60.7552C83.3438 60.5205 83.3829 60.3347 83.5394 60.1978C83.6763 60.0609 83.8425 59.9924 84.0381 59.9924C84.1555 59.9924 84.2728 60.0315 84.3902 60.1097C84.5075 60.1684 84.5858 60.276 84.6249 60.4325C84.9769 61.6451 85.3681 62.8285 85.7984 63.9825C86.2483 65.1364 86.7275 66.2807 87.236 67.4151C88.038 65.1462 88.5856 62.8578 88.879 60.5498C88.8986 60.3542 88.9768 60.2075 89.1137 60.1097C89.2506 60.012 89.3973 59.9631 89.5538 59.9631C89.7103 59.9631 89.8472 60.012 89.9645 60.1097C90.0819 60.2075 90.1308 60.3542 90.1112 60.5498C89.9352 62.0168 89.6614 63.4446 89.2897 64.8333C88.9377 66.2024 88.4976 67.5716 87.9695 68.9407C88.0477 69.0972 88.1162 69.2536 88.1749 69.4101C88.2531 69.5666 88.3411 69.7231 88.4389 69.8795ZM90.5712 60.2858C90.5712 60.0706 90.6299 59.9239 90.7473 59.8457C90.8646 59.7479 91.0015 59.699 91.158 59.699C91.3145 59.699 91.4612 59.7479 91.5981 59.8457C91.735 59.9239 91.8035 60.0706 91.8035 60.2858C91.8622 61.7723 91.8817 63.249 91.8622 64.7159C91.8622 66.1829 91.823 67.6596 91.7448 69.1461C91.7252 69.3612 91.647 69.5177 91.5101 69.6155C91.3732 69.7133 91.2265 69.7622 91.07 69.7622C90.9135 69.7622 90.7766 69.7133 90.6593 69.6155C90.5419 69.5177 90.4832 69.3612 90.4832 69.1461C90.6593 66.1926 90.6886 63.2392 90.5712 60.2858ZM92.6048 61.4593C92.4092 61.4593 92.2625 61.4007 92.1647 61.2833C92.0669 61.1464 92.018 60.9997 92.018 60.8432C92.018 60.6867 92.0669 60.5498 92.1647 60.4325C92.2625 60.2956 92.4092 60.2271 92.6048 60.2271H95.1572H100.233C100.428 60.2271 100.575 60.2956 100.673 60.4325C100.771 60.5498 100.82 60.6867 100.82 60.8432C100.82 60.9997 100.771 61.1464 100.673 61.2833C100.575 61.4007 100.428 61.4593 100.233 61.4593H97.0349C97.0154 62.6916 96.9958 63.9238 96.9762 65.156C96.9762 66.3882 96.9958 67.6205 97.0349 68.8527C97.0349 69.0483 96.9665 69.195 96.8296 69.2928C96.7122 69.3906 96.5753 69.4395 96.4188 69.4395C96.2623 69.4395 96.1156 69.3906 95.9787 69.2928C95.8614 69.195 95.8027 69.0483 95.8027 68.8527C95.7636 67.6205 95.744 66.3882 95.744 65.156C95.7636 63.9238 95.7831 62.6916 95.8027 61.4593H93.661H92.6048ZM108.976 60.8139C107.293 61.9679 105.915 63.4446 104.839 65.244V69.3514C104.839 69.547 104.77 69.6937 104.633 69.7915C104.497 69.8893 104.35 69.9382 104.193 69.9382C104.037 69.9382 103.89 69.8893 103.753 69.7915C103.636 69.6937 103.577 69.547 103.577 69.3514V65.332C103.127 64.5497 102.668 63.7771 102.198 63.0143C101.729 62.2515 101.24 61.4984 100.731 60.7552C100.575 60.5205 100.575 60.3151 100.731 60.1391C100.888 59.9435 101.074 59.8457 101.289 59.8457C101.504 59.8457 101.67 59.9435 101.788 60.1391C102.609 61.3322 103.411 62.6035 104.193 63.9531C105.289 62.3102 106.668 60.9117 108.33 59.7577C108.428 59.6794 108.535 59.6403 108.653 59.6403C108.79 59.6403 108.907 59.6892 109.005 59.787C109.103 59.8653 109.171 59.9728 109.21 60.1097C109.249 60.2271 109.249 60.3542 109.21 60.4912C109.191 60.6085 109.112 60.7161 108.976 60.8139Z" fill="black"/>
<path d="M70.0976 8.39132L69.4439 5.95161C69.3989 5.78611 69.2905 5.6451 69.1422 5.55949C68.994 5.47388 68.8181 5.45064 68.653 5.49487C68.488 5.5391 68.3472 5.64719 68.2616 5.79545C68.1761 5.94371 68.1526 6.12006 68.1965 6.28584L68.8502 8.72556C68.8676 8.81038 68.9027 8.89058 68.9533 8.96085C69.0038 9.03113 69.0686 9.08988 69.1434 9.13323C69.2182 9.17658 69.3012 9.20355 69.3871 9.21236C69.473 9.22117 69.5597 9.21162 69.6416 9.18433C69.8069 9.1399 69.9478 9.03143 70.0333 8.88274C70.1188 8.73406 70.1419 8.55732 70.0976 8.39132ZM63.5626 12.6922C63.6784 12.5639 63.7439 12.3977 63.747 12.2245C63.7501 12.0513 63.6906 11.8827 63.5795 11.7498L61.8219 9.93797C61.6834 9.8454 61.5189 9.80011 61.3528 9.80882C61.1868 9.81754 61.0281 9.8798 60.9003 9.98634C60.784 10.1144 60.7185 10.2808 60.7159 10.4542C60.7134 10.6275 60.7741 10.796 60.8865 10.9278L62.6402 12.7374C62.775 12.8395 62.9413 12.891 63.1099 12.8827C63.2785 12.8744 63.4387 12.807 63.5626 12.6922ZM59.3717 19.2501C59.5424 19.2916 59.7223 19.2638 59.8724 19.1728C60.0224 19.0817 60.1304 18.9349 60.1729 18.7641C60.2153 18.5934 60.1887 18.4126 60.0989 18.2612C60.0091 18.1098 59.8634 18 59.6934 17.9558L57.2558 17.3357C57.1711 17.314 57.083 17.3093 56.9966 17.3218C56.9101 17.3343 56.827 17.3638 56.7521 17.4086C56.6771 17.4534 56.6116 17.5126 56.5595 17.5828C56.5075 17.6531 56.4697 17.733 56.4485 17.8179C56.4273 17.9029 56.423 17.9912 56.4359 18.0779C56.4488 18.1646 56.4786 18.2479 56.5236 18.3231C56.5687 18.3982 56.628 18.4638 56.6983 18.5159C56.7686 18.568 56.8485 18.6058 56.9333 18.6269L59.3717 19.2501ZM56.5115 26.7899C56.5289 26.8747 56.564 26.9549 56.6145 27.0251C56.6651 27.0954 56.7299 27.1542 56.8047 27.1975C56.8795 27.2409 56.9625 27.2678 57.0484 27.2766C57.1343 27.2855 57.221 27.2759 57.3029 27.2486L59.7372 26.5964C59.9026 26.552 60.0435 26.4436 60.129 26.2949C60.2146 26.1461 60.2376 25.9693 60.1931 25.8033C60.1487 25.6374 60.0403 25.4958 59.8919 25.4097C59.7435 25.3237 59.5672 25.3003 59.4017 25.3446L56.9674 25.9968C56.8024 26.0418 56.6619 26.1503 56.5765 26.2989C56.4911 26.4474 56.4677 26.6239 56.5115 26.7899ZM86.2277 18.6939C86.2451 18.7788 86.2802 18.859 86.3307 18.9292C86.3812 18.9995 86.446 19.0583 86.5208 19.1016C86.5956 19.145 86.6787 19.1719 86.7646 19.1807C86.8504 19.1895 86.9372 19.18 87.019 19.1527L89.4533 18.5004C89.6187 18.4561 89.7597 18.3477 89.8452 18.1989C89.9307 18.0502 89.9538 17.8734 89.9093 17.7074C89.8648 17.5414 89.7565 17.3998 89.6081 17.3138C89.4596 17.2278 89.2833 17.2043 89.1179 17.2487L86.6836 17.9009C86.5186 17.9459 86.3781 18.0544 86.2927 18.203C86.2073 18.3515 86.1839 18.528 86.2277 18.6939ZM84.4763 9.90515L82.673 11.6649C82.5476 11.7881 82.4759 11.9562 82.4737 12.1324C82.4714 12.3086 82.5388 12.4787 82.6611 12.6055C82.7833 12.7323 82.9506 12.8056 83.1263 12.8092C83.3019 12.8129 83.4718 12.7467 83.5988 12.625L85.4021 10.8653C85.5277 10.7421 85.5995 10.574 85.6018 10.3977C85.6041 10.2213 85.5368 10.0511 85.4144 9.92423C85.2921 9.79736 85.1247 9.72413 84.949 9.72055C84.7732 9.71698 84.6033 9.78334 84.4763 9.90515ZM77.4048 8.71618L78.0211 6.26824C78.0621 6.09716 78.0341 5.91662 77.943 5.76594C77.852 5.61527 77.7054 5.50667 77.5351 5.46381C77.3648 5.42095 77.1846 5.4473 77.0338 5.53712C76.883 5.62693 76.7739 5.77294 76.7301 5.94333L76.1139 8.39126C76.0916 8.47623 76.0866 8.56484 76.0991 8.65185C76.1116 8.73885 76.1414 8.82248 76.1867 8.89779C76.232 8.9731 76.2919 9.03856 76.3628 9.09028C76.4338 9.14201 76.5143 9.17895 76.5997 9.19892C76.7683 9.21886 76.9387 9.18233 77.0843 9.09502C77.2299 9.00772 77.3426 8.87453 77.4048 8.71618ZM66.3838 28.7068C68.8595 30.4912 70.6743 33.0501 71.542 35.9804C71.0906 36.2008 70.7305 36.5728 70.524 37.0319C70.3175 37.4909 70.2777 38.0083 70.4115 38.4943C70.5669 39.0218 70.9016 39.4783 71.3574 39.7844C71.2244 40.0244 71.1404 40.2886 71.1105 40.5616C71.0806 40.8347 71.1053 41.1111 71.1832 41.3747C71.3343 41.9199 71.6928 42.3842 72.1815 42.6674C72.6701 42.9507 73.2498 43.0303 73.7956 42.8891L74.168 42.7893C74.5197 43.8395 75.2572 44.7163 76.2302 45.241C77.2032 45.7657 78.3384 45.8988 79.4044 45.6131C80.4704 45.3275 81.387 44.6446 81.9673 43.7037C82.5476 42.7628 82.7479 41.6347 82.5274 40.5494L82.8997 40.4496C83.443 40.299 83.9052 39.9403 84.1868 39.4506C84.4683 38.961 84.5467 38.3797 84.4049 37.8319C84.2484 37.305 83.9139 36.8489 83.459 36.5418C83.5926 36.3021 83.6769 36.0379 83.7068 35.7647C83.7367 35.4915 83.7117 35.215 83.6331 34.9516C83.4967 34.4691 83.2013 34.047 82.7952 33.7542C82.389 33.4615 81.8961 33.3153 81.397 33.3397C80.7245 30.3654 81.0155 27.2552 82.2275 24.4615C83.164 22.3049 83.3424 19.892 82.7333 17.6178C82.0109 14.9304 80.2548 12.6388 77.851 11.2465C75.4471 9.85433 72.5922 9.47545 69.9137 10.1932C67.2351 10.9109 64.9521 12.6665 63.5664 15.0741C62.1807 17.4817 61.8057 20.3444 62.5238 23.0329C63.132 25.3076 64.4933 27.3086 66.3838 28.7068ZM79.0503 44.2979C78.3252 44.4991 77.5509 44.4218 76.8787 44.081C76.2065 43.7402 75.6847 43.1605 75.4154 42.4551L81.3405 40.8674C81.4254 41.6193 81.242 42.3765 80.8227 43.0046C80.4034 43.6327 79.7754 44.0909 79.0503 44.2979ZM82.5472 39.134L73.4431 41.5735C73.3366 41.6023 73.2255 41.6098 73.116 41.5955C73.0066 41.5812 72.901 41.5454 72.8054 41.4901C72.7097 41.4348 72.6258 41.3611 72.5585 41.2733C72.4912 41.1855 72.4418 41.0853 72.4131 40.9784C72.3845 40.8714 72.3771 40.7599 72.3915 40.6502C72.4059 40.5405 72.4417 40.4348 72.497 40.3391C72.5522 40.2434 72.6257 40.1596 72.7133 40.0925C72.8009 40.0254 72.9009 39.9763 73.0075 39.948L82.1116 37.5086C82.218 37.4798 82.3292 37.4723 82.4386 37.4866C82.548 37.5009 82.6536 37.5367 82.7493 37.592C82.845 37.6473 82.9289 37.7209 82.9962 37.8087C83.0635 37.8965 83.1129 37.9968 83.1415 38.1037C83.1702 38.2106 83.1775 38.3221 83.1631 38.4318C83.1487 38.5415 83.1129 38.6473 83.0577 38.743C83.0025 38.8387 82.9289 38.9225 82.8413 38.9896C82.7537 39.0567 82.6538 39.1058 82.5472 39.134ZM82.3695 35.2251C82.4229 35.4409 82.3909 35.6689 82.2803 35.8612C82.1697 36.0536 81.989 36.1954 81.7762 36.2568L72.6721 38.6963C72.4569 38.7539 72.2275 38.7234 72.0344 38.6115C71.8414 38.4996 71.7004 38.3154 71.6425 38.0994C71.5846 37.8834 71.6146 37.6534 71.7259 37.4599C71.8371 37.2664 72.0205 37.1254 72.2357 37.0677L81.3398 34.6283C81.5548 34.5751 81.7822 34.6075 81.9741 34.7188C82.1661 34.8301 82.3078 35.0116 82.3695 35.2251ZM71.836 25.1C72.6041 24.7462 73.2211 24.1296 73.5765 23.3604C74.2394 23.8124 75.0256 24.0467 75.8264 24.0307C75.8516 27.5235 76.464 30.9881 77.6378 34.2786L75.579 34.8303C75.0441 31.3555 73.7673 28.0363 71.836 25.1ZM70.2286 11.3749C72.5778 10.7554 75.0775 11.0927 77.183 12.3133C79.2886 13.5339 80.8294 15.5388 81.4696 17.8913C81.9927 19.8846 81.8537 21.9934 81.0737 23.898C79.7505 26.9312 79.4152 30.3073 80.1154 33.5463L78.8044 33.8976C77.6171 30.6066 77.0252 27.1303 77.0567 23.6327C77.0616 23.4857 77.0334 23.3395 76.9743 23.2048C76.9152 23.0702 76.8266 22.9505 76.7152 22.8548C76.6104 22.7516 76.4828 22.6746 76.3429 22.63C76.203 22.5855 76.0546 22.5746 75.9098 22.5983C75.5577 22.6355 75.2016 22.6004 74.8633 22.4951C74.5249 22.3899 74.2113 22.2166 73.9416 21.986C73.8116 21.8917 73.6618 21.8285 73.5038 21.8014C73.3457 21.7743 73.1836 21.784 73.03 21.8298C72.8818 21.878 72.7472 21.961 72.6375 22.0719C72.5278 22.1829 72.4462 22.3186 72.3994 22.4677C72.2758 22.8183 72.0722 23.135 71.805 23.3926C71.5377 23.6502 71.214 23.8416 70.8598 23.9515C70.7159 23.9913 70.5861 24.071 70.4854 24.1816C70.3847 24.2921 70.3172 24.4289 70.2906 24.5763C70.2373 24.7267 70.2254 24.8888 70.256 25.0455C70.2866 25.2023 70.3586 25.348 70.4645 25.4675C72.4606 28.3452 73.7185 31.6714 74.1267 35.151L72.6916 35.5355C71.7448 32.348 69.7537 29.5724 67.0406 27.6581C65.3899 26.4205 64.2093 24.655 63.6944 22.6542C63.0957 20.2879 63.4444 17.7821 64.6658 15.6738C65.8872 13.5655 67.884 12.0223 70.2286 11.3749Z" fill="black"/>
<path d="M7.66083 99.0752C7.56513 98.9248 7.34639 98.8291 7.0046 98.7881C6.67648 98.7471 6.27317 98.7402 5.79466 98.7676C5.60326 98.7949 5.41869 98.7812 5.24096 98.7266C5.06323 98.6855 4.91968 98.6103 4.8103 98.501C4.7146 98.4053 4.68042 98.3027 4.70777 98.1934C4.72144 98.0293 4.85815 97.8994 5.11792 97.8037C5.39135 97.708 5.822 97.6533 6.40988 97.6397L7.49677 97.6192L7.70185 97.209C7.75654 97.0586 7.82489 96.8467 7.90692 96.5733C7.98895 96.2998 8.07782 96.0059 8.17352 95.6915C8.22821 95.5001 8.31024 95.2403 8.41961 94.9122C8.52898 94.5841 8.64519 94.2354 8.76823 93.8663C8.89128 93.4972 9.00065 93.169 9.09635 92.8819C9.19205 92.5812 9.25358 92.3693 9.28092 92.2462C9.33561 92.1232 9.4108 91.9181 9.5065 91.631C9.6022 91.3302 9.69107 91.0294 9.7731 90.7287C9.8688 90.4142 9.93032 90.1886 9.95766 90.0519C10.3131 88.9719 10.5455 88.2063 10.6549 87.7551C10.7643 87.2903 10.7916 87.051 10.7369 87.0373C10.6823 87.0373 10.5455 87.0442 10.3268 87.0578C10.1217 87.0715 9.88931 87.092 9.62954 87.1194C9.38346 87.133 9.15787 87.1535 8.9528 87.1809C8.7614 87.2082 8.64519 87.2356 8.60417 87.2629C8.53582 87.3586 8.41961 87.3791 8.25555 87.3244C8.09149 87.2698 7.98895 87.1741 7.94794 87.0373C7.93427 86.9143 7.92743 86.8186 7.92743 86.7502C7.9411 86.6819 7.98212 86.6272 8.05047 86.5862C8.14618 86.5041 8.33074 86.4153 8.60417 86.3196C8.87761 86.2102 9.18522 86.1145 9.52701 86.0325C9.88247 85.9504 10.2174 85.8889 10.5319 85.8479C10.7643 85.8206 10.9967 85.7727 11.2291 85.7044C11.4615 85.6223 11.6461 85.5266 11.7828 85.4172C11.9059 85.3762 12.0221 85.3421 12.1314 85.3147C12.2545 85.2874 12.3775 85.2805 12.5006 85.2942C12.61 85.3626 12.7945 85.3967 13.0543 85.3967C13.3277 85.3967 13.6148 85.3899 13.9156 85.3762C14.6812 85.3079 15.1939 85.2874 15.4536 85.3147C15.7271 85.3421 15.9116 85.4514 16.0073 85.6428C16.0757 85.9026 16.0894 86.1077 16.0484 86.2581C16.0073 86.3948 15.8706 86.4563 15.6382 86.4426C15.5152 86.47 15.2896 86.4973 14.9615 86.5246C14.647 86.5383 14.3121 86.552 13.9566 86.5657C12.9859 86.6477 12.4664 86.7434 12.398 86.8528C12.3434 86.9075 12.2955 86.9621 12.2545 87.0168C12.2271 87.0715 12.1861 87.133 12.1314 87.2014C12.1451 87.2561 12.1109 87.4338 12.0289 87.7346C11.9606 88.0217 11.8717 88.3156 11.7623 88.6164C11.7076 88.7941 11.6256 89.0471 11.5162 89.3752C11.4069 89.7033 11.2906 90.0451 11.1676 90.4005C11.0582 90.7423 10.9557 91.0568 10.86 91.3439C10.7643 91.6173 10.6959 91.8019 10.6549 91.8976C10.6002 92.0206 10.5524 92.1574 10.5114 92.3077C10.484 92.4445 10.4635 92.547 10.4498 92.6153C10.2584 93.2853 10.0875 93.8526 9.93716 94.3175C9.80044 94.7823 9.67056 95.1924 9.54752 95.5479C9.43814 95.8897 9.33561 96.2247 9.2399 96.5528C9.1442 96.8672 9.04167 97.2158 8.93229 97.5986C8.93229 97.5986 9.03483 97.5918 9.2399 97.5781C9.45865 97.5508 9.74575 97.5235 10.1012 97.4961C10.7438 97.4278 11.2018 97.3867 11.4752 97.3731C11.7623 97.3594 11.9537 97.3799 12.0494 97.4346C12.1451 97.4756 12.2135 97.5576 12.2545 97.6807C12.5279 98.0498 12.5621 98.3027 12.357 98.4395C12.152 98.5762 11.6666 98.6377 10.901 98.624C10.1901 98.6514 9.64322 98.6719 9.26041 98.6855C8.89128 98.7129 8.63152 98.7471 8.48113 98.7881C8.34441 98.8291 8.26238 98.8975 8.23504 98.9932C8.23504 99.1025 8.18035 99.1572 8.07098 99.1572C7.96161 99.1572 7.82489 99.1299 7.66083 99.0752ZM21.0445 97.4961C20.771 97.4961 20.5455 97.4414 20.3677 97.3321C20.19 97.209 20.0396 97.0108 19.9166 96.7373C19.8619 96.5459 19.814 96.334 19.773 96.1016C19.7457 95.8555 19.732 95.6299 19.732 95.4249C19.732 95.2061 19.7525 95.0626 19.7935 94.9942C19.8482 94.9395 19.8687 94.8438 19.8551 94.7071C19.8551 94.5567 19.8551 94.3995 19.8551 94.2354C19.8414 93.962 19.773 93.8116 19.65 93.7843C19.5406 93.7433 19.3765 93.7843 19.1578 93.9073C18.9117 94.0577 18.5904 94.2628 18.194 94.5225C17.7975 94.7686 17.3805 95.0421 16.943 95.3428C16.5192 95.6436 16.1159 95.9581 15.7331 96.2862C15.4323 96.6143 15.2477 96.8672 15.1794 97.0449C15.1247 97.209 15.0426 97.291 14.9333 97.291C14.8239 97.3457 14.7282 97.3526 14.6462 97.3115C14.5778 97.2569 14.4753 97.1748 14.3386 97.0655C14.2429 96.9561 14.1472 96.8535 14.0515 96.7578C13.9558 96.6485 13.8942 96.5664 13.8669 96.5118C13.8669 96.4434 13.8874 96.2998 13.9284 96.0811C13.9694 95.8624 14.0173 95.6436 14.072 95.4249C14.1403 95.2061 14.1882 95.0626 14.2155 94.9942C14.2839 94.9942 14.3386 94.9259 14.3796 94.7891C14.4343 94.6524 14.5163 94.502 14.6257 94.338C14.653 94.1739 14.7214 93.9552 14.8307 93.6817C14.9538 93.3946 15.0632 93.1417 15.1589 92.923C15.3503 92.5948 15.4801 92.3214 15.5485 92.1027C15.6305 91.8839 15.6852 91.6105 15.7126 91.2824C15.6989 91.2277 15.7126 91.1798 15.7536 91.1388C15.7946 91.0841 15.8424 91.0568 15.8971 91.0568C16.0065 90.9474 16.1364 90.9201 16.2868 90.9748C16.4371 91.0158 16.5739 91.1183 16.6969 91.2824C16.943 91.6105 17.0387 91.9523 16.984 92.3077C16.943 92.6495 16.7243 93.1417 16.3278 93.7843C16.2321 94.003 16.1569 94.1739 16.1022 94.297C16.0612 94.4063 16.0407 94.4952 16.0407 94.5636C16.0407 94.5636 16.109 94.5157 16.2457 94.42C16.3961 94.3243 16.5602 94.2149 16.7379 94.0919C16.9293 93.9552 17.0797 93.8526 17.1891 93.7843C17.2574 93.7159 17.4147 93.5929 17.6608 93.4151C17.9068 93.2374 18.1666 93.0665 18.44 92.9025C18.7271 92.7247 18.9391 92.6222 19.0758 92.5948C19.1851 92.5402 19.3014 92.4923 19.4244 92.4513C19.5474 92.3966 19.6363 92.3693 19.691 92.3693C19.8004 92.3693 19.9371 92.4308 20.1011 92.5538C20.2789 92.6632 20.4429 92.7999 20.5933 92.964C20.7437 93.1144 20.8326 93.2442 20.8599 93.3536C20.8599 93.4083 20.8599 93.463 20.8599 93.5177C20.8736 93.5724 20.8873 93.627 20.9009 93.6817C20.9556 93.8595 20.983 94.0987 20.983 94.3995C20.9966 94.7003 20.9898 94.9737 20.9625 95.2198C20.9351 95.4659 20.8873 95.6094 20.8189 95.6504C20.8189 95.6504 20.8189 95.671 20.8189 95.712C20.8326 95.7393 20.8667 95.753 20.9214 95.753C20.9214 95.8077 20.9214 95.8418 20.9214 95.8555C20.8531 95.8555 20.8257 95.917 20.8394 96.0401C20.8531 96.1495 20.8941 96.2725 20.9625 96.4092C21.0445 96.5459 21.1265 96.6553 21.2085 96.7373C21.3726 96.9014 21.441 97.0586 21.4136 97.209C21.3863 97.3457 21.2632 97.4414 21.0445 97.4961ZM24.0836 99.9775C23.9059 99.9912 23.7418 99.9092 23.5914 99.7314C23.441 99.5537 23.318 99.2939 23.2223 98.9521C23.1402 98.624 23.0992 98.2344 23.0992 97.7832C23.0445 97.2227 23.0924 96.5118 23.2428 95.6504C23.3932 94.7755 23.6187 93.7979 23.9195 92.7179C24.0289 92.3488 24.1861 91.8976 24.3912 91.3644C24.5963 90.8312 24.8082 90.3048 25.0269 89.7853C25.2593 89.2658 25.4644 88.8283 25.6421 88.4729C25.8199 88.1037 25.9292 87.8986 25.9703 87.8576C26.0523 87.885 26.0933 87.8235 26.0933 87.6731C26.0933 87.6457 26.148 87.5432 26.2574 87.3655C26.3667 87.1877 26.4693 86.9963 26.565 86.7912C26.7427 86.5315 26.9546 86.2786 27.2007 86.0325C27.4468 85.7727 27.6997 85.5471 27.9595 85.3557C28.2329 85.1507 28.479 85.0071 28.6977 84.9251C28.9028 84.843 29.1079 84.802 29.313 84.802C29.5727 84.802 29.8051 84.8635 30.0102 84.9866C30.229 85.1096 30.3999 85.2805 30.5229 85.4993C30.646 85.7044 30.7075 85.9368 30.7075 86.1965C30.7075 86.4153 30.6596 86.6272 30.5639 86.8323C30.5229 87.0373 30.4409 87.2561 30.3178 87.4885C30.2085 87.7072 30.0923 87.9123 29.9692 88.1037C29.8598 88.2815 29.771 88.4182 29.7026 88.5139C29.5249 88.6096 29.3745 88.6506 29.2514 88.6369C29.1284 88.6232 29.1011 88.5686 29.1694 88.4729C29.1694 88.4182 29.1831 88.3498 29.2104 88.2678C29.2514 88.1857 29.2788 88.0969 29.2925 88.0012C29.2925 87.9738 29.3198 87.8918 29.3745 87.7551C29.4429 87.6184 29.477 87.4817 29.477 87.3449C29.6001 86.8528 29.6548 86.5041 29.6411 86.2991C29.6411 86.094 29.5796 85.9915 29.4565 85.9915C29.3882 85.9778 29.2788 86.0051 29.1284 86.0735C28.978 86.1418 28.8413 86.2239 28.7183 86.3196C28.5952 86.4016 28.5337 86.4768 28.5337 86.5452C28.5337 86.5862 28.5337 86.6135 28.5337 86.6272C28.4927 86.6135 28.3628 86.7297 28.144 86.9758C27.939 87.2082 27.7066 87.4953 27.4468 87.8371C27.2007 88.1652 26.9956 88.466 26.8316 88.7394C26.7222 88.9719 26.5786 89.2795 26.4009 89.6623C26.2232 90.0451 26.0181 90.5373 25.7857 91.1388L25.6216 91.631L25.9498 91.672C26.0591 91.6857 26.23 91.6788 26.4624 91.6515C26.6949 91.6105 26.9204 91.5695 27.1392 91.5285C27.604 91.4601 27.9321 91.4601 28.1235 91.5285C28.3149 91.5968 28.4585 91.7404 28.5542 91.9591C28.7046 92.2872 28.5952 92.5128 28.2261 92.6359C27.8569 92.7452 27.1529 92.8273 26.1138 92.8819C25.8951 92.8546 25.7037 92.8478 25.5396 92.8614C25.3892 92.8614 25.2867 92.8888 25.232 92.9435C25.1773 92.9708 25.1021 93.1212 25.0064 93.3946C24.9107 93.6544 24.8082 93.9688 24.6988 94.338C24.6031 94.6934 24.5279 95.0352 24.4732 95.3633C24.3638 95.7872 24.2887 96.2247 24.2476 96.6758C24.2066 97.1133 24.193 97.5235 24.2066 97.9063C24.2203 98.2754 24.2545 98.5625 24.3092 98.7676C24.3912 99.0957 24.4117 99.3623 24.3707 99.5674C24.3433 99.7724 24.2476 99.9092 24.0836 99.9775ZM33.8864 98.3984C33.7497 98.2617 33.613 98.0772 33.4763 97.8447C33.3396 97.5986 33.2302 97.3184 33.1482 97.0039C33.1208 96.8946 33.1072 96.7442 33.1072 96.5528C33.1208 96.3614 33.1208 96.2247 33.1072 96.1426C33.0661 96.2383 32.9978 96.3409 32.9021 96.4502C32.8201 96.5459 32.738 96.628 32.656 96.6963C32.6013 96.751 32.4783 96.8604 32.2869 97.0244C32.0955 97.1748 31.9041 97.2979 31.7127 97.3936C31.2615 97.6807 30.8855 97.8379 30.5847 97.8652C30.2976 97.8926 30.0242 97.7422 29.7645 97.4141C29.5457 97.2364 29.3885 97.0381 29.2928 96.8194C29.2108 96.6006 29.2108 96.2998 29.2928 95.917C29.3201 95.4385 29.3885 94.9737 29.4979 94.5225C29.6072 94.0577 29.8328 93.4425 30.1746 92.6769C30.4617 92.1163 30.6805 91.7062 30.8308 91.4464C30.9812 91.173 31.0769 91.0089 31.1179 90.9542C31.323 90.8859 31.4939 90.8927 31.6306 90.9748C31.7673 91.0431 31.8494 91.173 31.8767 91.3644C31.9587 91.5011 31.9451 91.7335 31.8357 92.0616C31.74 92.3898 31.5691 92.7931 31.323 93.2716C31.1316 93.7364 30.9539 94.2013 30.7898 94.6661C30.6394 95.1309 30.5506 95.5274 30.5232 95.8555C30.4959 96.1836 30.5779 96.3819 30.7693 96.4502C30.8924 96.5186 31.1043 96.4981 31.405 96.3887C31.7195 96.2793 32.0681 96.0059 32.4509 95.5684C32.8474 95.1309 33.2302 94.4679 33.5993 93.5792C33.7087 93.3058 33.7907 93.0665 33.8454 92.8614C33.9001 92.6427 33.9343 92.4034 33.948 92.1437C33.9206 91.9796 33.9275 91.8361 33.9685 91.713C34.0232 91.5763 34.1325 91.4601 34.2966 91.3644C34.3513 91.296 34.4265 91.2345 34.5222 91.1798C34.6179 91.1115 34.6794 91.1115 34.7067 91.1798L35.0349 91.1593C35.0895 91.1457 35.1237 91.1798 35.1374 91.2619C35.1647 91.3302 35.2126 91.3917 35.2809 91.4464C35.4313 91.5695 35.4723 91.8361 35.404 92.2462C35.3356 92.6564 35.1442 93.2306 34.8298 93.9688C34.57 94.5294 34.3923 94.9532 34.2966 95.2403C34.2146 95.5274 34.1667 95.8077 34.153 96.0811C34.153 96.3272 34.2009 96.5596 34.2966 96.7784C34.3923 96.9971 34.5427 97.1953 34.7478 97.3731C34.8981 97.4688 34.9802 97.5781 34.9938 97.7012C35.0212 97.8242 35.028 97.9678 35.0143 98.1318C34.987 98.2549 34.905 98.3574 34.7683 98.4395C34.6452 98.5078 34.5017 98.542 34.3376 98.542C34.1735 98.542 34.0232 98.4941 33.8864 98.3984ZM38.462 98.1523C37.7784 98.1523 37.2794 97.9063 36.965 97.4141C36.8693 97.2774 36.8214 97.1407 36.8214 97.0039C36.8351 96.8535 36.8761 96.751 36.9444 96.6963C37.0265 96.6416 37.1222 96.6895 37.2316 96.8399C37.423 96.9492 37.6964 97.0039 38.0518 97.0039C38.2296 97.0039 38.4141 96.9903 38.6055 96.9629C38.797 96.9219 38.9884 96.8672 39.1798 96.7989C39.3848 96.7032 39.5215 96.6211 39.5899 96.5528C39.6583 96.4707 39.6446 96.4024 39.5489 96.3477H39.5694C39.2139 96.252 38.8516 96.1016 38.4825 95.8965C38.127 95.6778 37.8194 95.4454 37.5597 95.1993C37.2999 94.9395 37.1495 94.7071 37.1085 94.502C36.9991 94.0782 37.0265 93.6476 37.1905 93.2101C37.3546 92.7589 37.587 92.3624 37.8878 92.0206C37.9972 91.9523 38.1339 91.8702 38.2979 91.7745C38.462 91.6652 38.5919 91.6037 38.6876 91.59V91.6105C38.9473 91.3371 39.2618 91.1183 39.6309 90.9542C40.0137 90.7902 40.417 90.6398 40.8409 90.5031L41.1485 90.4621C41.3125 90.4347 41.4492 90.4211 41.5586 90.4211C41.5449 90.4211 41.5723 90.4347 41.6406 90.4621C41.709 90.4757 41.7705 90.4894 41.8252 90.5031C41.9072 90.5441 41.9756 90.5646 42.0303 90.5646C42.208 90.592 42.3721 90.674 42.5225 90.8107C42.6729 90.9474 42.7891 91.1115 42.8711 91.3029C42.9668 91.4806 43.001 91.6515 42.9736 91.8156C42.9463 92.0753 42.8643 92.3077 42.7275 92.5128C42.6045 92.7179 42.4541 92.8341 42.2764 92.8614C42.3037 92.8478 42.2832 92.8273 42.2149 92.7999C42.1602 92.7589 42.0986 92.7179 42.0303 92.6769L41.9688 92.7179C41.9688 92.7179 41.9619 92.7042 41.9483 92.6769C41.9483 92.6359 41.9346 92.588 41.9072 92.5333C41.8662 92.4513 41.8457 92.3624 41.8457 92.2667C41.8457 92.1574 41.8526 92.0411 41.8662 91.9181C41.8936 91.7677 41.8936 91.6788 41.8662 91.6515C41.8526 91.6242 41.7637 91.6037 41.5996 91.59C41.4082 91.549 41.128 91.5831 40.7588 91.6925C40.4034 91.8019 40.1026 91.9523 39.8565 92.1437C39.5557 92.3351 39.3028 92.5196 39.0977 92.6974C38.8927 92.8614 38.7286 93.0255 38.6055 93.1896C38.4825 93.3399 38.3731 93.5177 38.2774 93.7227C38.2091 93.8185 38.1475 93.9142 38.0929 94.0099C38.0518 94.0919 38.0313 94.1671 38.0313 94.2354C38.0313 94.3858 38.1407 94.543 38.3595 94.7071C38.5919 94.8575 38.9337 95.0352 39.3848 95.2403C39.7403 95.3907 40.0411 95.5547 40.2872 95.7325C40.5332 95.9102 40.7041 96.1153 40.7998 96.3477C40.8272 96.4024 40.834 96.4707 40.8203 96.5528C40.8203 96.6211 40.8067 96.669 40.7793 96.6963C40.8067 96.7237 40.8203 96.7442 40.8203 96.7578V96.7373C40.9297 96.9014 40.9297 97.0723 40.8203 97.25C40.7246 97.4278 40.5538 97.585 40.3077 97.7217C40.0752 97.8447 39.7881 97.9404 39.4464 98.0088H39.4669C39.2891 98.0635 39.1114 98.1045 38.9337 98.1318C38.7696 98.1455 38.6124 98.1523 38.462 98.1523ZM45.5334 98.501C44.9318 98.501 44.4396 98.2754 44.0568 97.8242C43.674 97.3594 43.4895 96.7852 43.5031 96.1016C43.5305 95.6094 43.6262 95.0831 43.7902 94.5225C43.968 93.9483 44.2004 93.4015 44.4875 92.8819C44.7746 92.3488 45.089 91.8839 45.4308 91.4874C45.7726 91.091 46.1281 90.8107 46.4972 90.6466C46.6339 90.5783 46.7775 90.5236 46.9279 90.4826C47.0919 90.4416 47.256 90.4211 47.42 90.4211C47.5704 90.4211 47.7277 90.4484 47.8917 90.5031C48.0558 90.5441 48.1925 90.592 48.3019 90.6466C48.5343 90.7423 48.712 90.8585 48.8351 90.9953C48.9581 91.132 49.0675 91.3439 49.1632 91.631C49.2042 91.8908 49.2247 92.0753 49.2247 92.1847C49.2247 92.2941 49.1905 92.4581 49.1222 92.6769C48.9581 93.169 48.7462 93.5929 48.4864 93.9483C48.2267 94.3038 47.878 94.6046 47.4406 94.8507C47.3312 94.919 47.2013 94.9737 47.0509 95.0147C46.9142 95.0421 46.7706 95.0557 46.6203 95.0557C46.3468 95.0557 46.0802 95.0079 45.8205 94.9122C45.5744 94.8028 45.3761 94.6456 45.2258 94.4405L45.0822 94.2764L45.0207 94.4405C44.884 94.8096 44.7746 95.1514 44.6926 95.4659C44.6242 95.7803 44.59 96.0674 44.59 96.3272C44.59 96.4912 44.6037 96.6485 44.631 96.7989C44.6721 96.9492 44.7267 97.0791 44.7951 97.1885C44.8498 97.2705 44.9387 97.3321 45.0617 97.3731C45.1984 97.4004 45.342 97.4141 45.4924 97.4141C45.5881 97.4141 45.6838 97.4141 45.7795 97.4141C45.8888 97.4004 45.9914 97.3731 46.0871 97.3321C46.3195 97.25 46.5041 97.1612 46.6408 97.0655C46.7912 96.9698 46.9415 96.8672 47.0919 96.7578L47.174 96.7168H47.1535C47.3175 96.6348 47.4611 96.5528 47.5841 96.4707C47.7208 96.3887 47.7892 96.3477 47.7892 96.3477C47.8439 96.3477 47.8986 96.3135 47.9532 96.2452C48.0626 96.1905 48.1993 96.211 48.3634 96.3067C48.5411 96.4024 48.63 96.5254 48.63 96.6758C48.6163 96.7442 48.5548 96.8535 48.4454 97.0039C48.336 97.1407 48.213 97.2705 48.0763 97.3936C47.9532 97.5166 47.8507 97.585 47.7687 97.5986C47.755 97.6123 47.7072 97.6397 47.6251 97.6807C47.5431 97.708 47.4884 97.7354 47.4611 97.7627H47.4816C47.3585 97.9268 47.2355 98.0088 47.1124 98.0088H46.9484C46.8937 98.1045 46.716 98.2139 46.4152 98.3369C46.1144 98.4463 45.8205 98.501 45.5334 98.501ZM46.4562 93.9893C46.7023 93.9893 46.9142 93.921 47.0919 93.7843C47.2833 93.6339 47.4474 93.4698 47.5841 93.2921C47.8575 92.923 48.0148 92.5675 48.0558 92.2257C48.1105 91.8702 48.0695 91.6242 47.9327 91.4874C47.8507 91.4464 47.7755 91.4259 47.7072 91.4259C47.6525 91.4122 47.5363 91.4328 47.3585 91.4874C47.2355 91.5148 47.0646 91.6173 46.8458 91.7951C46.6271 91.9728 46.4084 92.171 46.1896 92.3898C45.9845 92.6085 45.8273 92.7931 45.7179 92.9435L45.4513 93.3741C45.5607 93.3331 45.6632 93.3126 45.7589 93.3126C45.8683 93.2989 45.9298 93.3058 45.9435 93.3331C45.9435 93.4562 45.964 93.5724 46.005 93.6817C46.0597 93.7774 46.1212 93.8526 46.1896 93.9073C46.2716 93.962 46.3605 93.9893 46.4562 93.9893ZM55.6065 98.8291C55.4288 98.8701 55.2784 98.8428 55.1553 98.7471C55.046 98.665 54.9639 98.542 54.9093 98.3779C54.7999 98.0635 54.7179 97.7217 54.6632 97.3526C54.6222 96.9698 54.6153 96.6348 54.6427 96.3477L54.6837 95.917L53.8839 96.5528C53.4191 96.9629 52.9679 97.2569 52.5304 97.4346C52.1066 97.6123 51.7306 97.7012 51.4025 97.7012C51.2521 97.6738 51.1017 97.6192 50.9513 97.5371C50.8009 97.4551 50.6642 97.3526 50.5412 97.2295C50.4318 97.1065 50.3429 96.9766 50.2746 96.8399C50.1926 96.6485 50.1652 96.3887 50.1926 96.0606C50.2336 95.7325 50.3156 95.377 50.4386 94.9942C50.5754 94.5977 50.7394 94.2149 50.9308 93.8458C51.1359 93.463 51.3683 93.128 51.6281 92.8409C52.0792 92.1574 52.5646 91.7404 53.0841 91.59C53.6036 91.4396 54.1163 91.5148 54.6222 91.8156C54.9776 91.9659 55.1964 92.0343 55.2784 92.0206C55.3741 92.007 55.4561 91.8497 55.5245 91.549C55.5792 91.3302 55.6339 91.1115 55.6885 90.8927C55.7432 90.6603 55.8321 90.3527 55.9551 89.9699C56.2969 88.9309 56.5909 88.1174 56.837 87.5295C57.0967 86.9416 57.3291 86.4289 57.5342 85.9915C57.6846 85.677 57.8076 85.4856 57.9033 85.4172C58.0127 85.3352 58.1221 85.301 58.2315 85.3147C58.3818 85.3147 58.5186 85.3694 58.6416 85.4788C58.7646 85.5881 58.8604 85.7385 58.9287 85.9299C58.9834 86.053 59.0039 86.1624 58.9902 86.2581C58.9902 86.3401 58.9492 86.4563 58.8672 86.6067C58.6895 86.9348 58.4775 87.3723 58.2315 87.9192C57.999 88.4523 57.7598 89.0402 57.5137 89.6828C57.2813 90.3254 57.0625 90.9611 56.8575 91.59C56.6524 92.2189 56.4815 92.7726 56.3448 93.2511C56.2627 93.5519 56.1876 93.9347 56.1192 94.3995C56.0645 94.8643 56.0167 95.3428 55.9756 95.835C55.9346 96.3135 55.9073 96.7442 55.8936 97.127C55.8936 97.4961 55.9073 97.7354 55.9346 97.8447C56.0167 98.1182 56.0508 98.3232 56.0372 98.46C56.0372 98.5967 56.003 98.6855 55.9346 98.7266C55.8663 98.7812 55.7569 98.8154 55.6065 98.8291ZM52.1408 96.5528C52.3322 96.5118 52.5167 96.4366 52.6945 96.3272C52.8859 96.2178 53.0841 96.0879 53.2892 95.9375C53.6993 95.6231 54.0548 95.336 54.3556 95.0762C54.6563 94.8165 54.8546 94.42 54.9503 93.8868C54.9776 93.627 54.9503 93.422 54.8682 93.2716C54.7999 93.1075 54.6837 92.9571 54.5196 92.8204C54.3556 92.7111 54.13 92.67 53.8429 92.6974C53.5694 92.7111 53.2823 92.8546 52.9816 93.128C52.6534 93.4288 52.3322 93.8321 52.0177 94.338C51.7169 94.8438 51.4914 95.4659 51.341 96.2041C51.3136 96.3409 51.3546 96.4502 51.464 96.5323C51.5734 96.6143 51.799 96.6211 52.1408 96.5528ZM63.6406 97.4346C63.5859 97.4346 63.5176 97.4209 63.4355 97.3936C63.3672 97.3526 63.333 97.3321 63.333 97.3321C63.333 97.2774 63.3125 97.209 63.2715 97.127C63.2441 97.0449 63.2305 96.9766 63.2305 96.9219C63.1348 96.8672 63.0801 96.8125 63.0664 96.7578C63.0527 96.6895 63.0732 96.5801 63.1279 96.4297C63.21 96.293 63.3193 96.0743 63.456 95.7735C63.5928 95.459 63.7363 95.1241 63.8867 94.7686C64.0371 94.3995 64.1806 94.0372 64.3174 93.6817C64.4541 93.3263 64.5703 93.0255 64.666 92.7794C64.7617 92.5196 64.8164 92.3624 64.83 92.3077C64.83 92.2531 64.8505 92.1847 64.8916 92.1027C64.9326 92.0206 64.9804 91.9523 65.0351 91.8976C65.1445 91.8019 65.2607 91.7951 65.3837 91.8771C65.5068 91.9454 65.6093 92.0685 65.6913 92.2462C65.787 92.4103 65.8349 92.5948 65.8349 92.7999C65.8349 92.8956 65.7665 93.1417 65.6298 93.5382C65.4931 93.921 65.3085 94.379 65.0761 94.9122C64.8574 95.4454 64.6113 95.9854 64.3379 96.5323C64.1328 96.9287 64.0029 97.1817 63.9482 97.291C63.8935 97.3867 63.791 97.4346 63.6406 97.4346ZM66.6552 89.6623C66.4911 89.6623 66.3134 89.6008 66.122 89.4777C65.9443 89.341 65.787 89.1769 65.6503 88.9855C65.5273 88.7805 65.4658 88.5754 65.4658 88.3703C65.4658 88.302 65.5068 88.2063 65.5888 88.0832C65.6708 87.9602 65.7529 87.8371 65.8349 87.7141C65.9169 87.591 65.9579 87.5158 65.9579 87.4885C66.0673 87.4885 66.1493 87.4953 66.204 87.509C66.2724 87.509 66.3544 87.5363 66.4501 87.591C66.6005 87.9328 66.7851 88.2131 67.0038 88.4318C67.2362 88.6506 67.3524 88.8352 67.3524 88.9855C67.3524 89.2863 67.3251 89.4777 67.2704 89.5597C67.2157 89.6281 67.0107 89.6623 66.6552 89.6623ZM73.4334 98.1934C73.2967 98.1934 73.1531 98.1182 73.0027 97.9678C72.866 97.8174 72.743 97.6328 72.6336 97.4141C72.5379 97.1817 72.49 96.9629 72.49 96.7578C72.49 96.5528 72.5379 96.17 72.6336 95.6094C72.743 95.0489 72.8728 94.4815 73.0232 93.9073C73.1326 93.5519 73.1668 93.3468 73.1258 93.2921C73.0847 93.2374 72.9002 93.3126 72.5721 93.5177C72.3807 93.6134 72.2098 93.7159 72.0594 93.8253C71.909 93.921 71.7791 94.0304 71.6697 94.1534C71.6014 94.2081 71.4988 94.297 71.3621 94.42C71.2254 94.543 71.0819 94.6593 70.9315 94.7686C70.7537 94.9053 70.5282 95.0967 70.2547 95.3428C69.9813 95.5889 69.7079 95.835 69.4344 96.0811C69.1747 96.3272 68.9764 96.5186 68.8397 96.6553C68.8124 96.71 68.7714 96.7578 68.7167 96.7989C68.662 96.8399 68.6005 96.8672 68.5321 96.8809C68.4637 96.8809 68.3886 96.8672 68.3065 96.8399C68.1561 96.7989 68.0126 96.71 67.8759 96.5733C67.7528 96.4366 67.6913 96.2793 67.6913 96.1016C67.6913 95.9649 67.746 95.7325 67.8554 95.4044C67.9647 95.0626 68.1083 94.6524 68.286 94.1739C68.4774 93.6954 68.6962 93.1896 68.9423 92.6564C68.9833 92.588 69.0174 92.506 69.0448 92.4103C69.0721 92.3009 69.0926 92.1847 69.1063 92.0616C69.1337 91.9386 69.1473 91.8224 69.1473 91.713C69.1473 91.6447 69.1542 91.5763 69.1678 91.5079C69.1952 91.4259 69.2225 91.3507 69.2499 91.2824C69.2909 91.2003 69.3251 91.1457 69.3524 91.1183C69.4071 91.0089 69.5028 90.9816 69.6395 91.0363C69.7762 91.0773 69.8924 91.173 69.9881 91.3234C70.1932 91.5148 70.2957 91.754 70.2957 92.0411C70.3094 92.3282 70.2411 92.6837 70.0907 93.1075C70.036 93.2032 69.9881 93.2989 69.9471 93.3946C69.9198 93.4767 69.8924 93.5519 69.8651 93.6202C69.8377 93.6749 69.8172 93.7227 69.8036 93.7638C69.7899 93.7911 69.7831 93.8048 69.7831 93.8048C69.8377 93.8048 69.9608 93.7433 70.1522 93.6202C70.3436 93.4972 70.5692 93.3605 70.8289 93.2101C71.034 93.0597 71.2117 92.923 71.3621 92.7999C71.5262 92.6632 71.6629 92.5607 71.7723 92.4923C71.8816 92.4103 71.95 92.3693 71.9773 92.3693C72.032 92.3693 72.1004 92.3488 72.1824 92.3077C72.2645 92.2667 72.3328 92.2189 72.3875 92.1642C72.4422 92.1095 72.4832 92.0822 72.5105 92.0822C72.5516 92.0685 72.5721 92.0616 72.5721 92.0616C72.5721 92.0616 72.5994 92.0616 72.6541 92.0616C72.7088 92.048 72.7635 92.0138 72.8182 91.9591C72.9275 91.8771 73.0711 91.8566 73.2488 91.8976C73.4265 91.9249 73.5906 91.9933 73.741 92.1027C73.8914 92.212 73.9666 92.3351 73.9666 92.4718C73.9666 92.5265 73.9802 92.5743 74.0076 92.6153C74.0486 92.6427 74.0691 92.6564 74.0691 92.6564C74.1785 92.6564 74.2468 92.8273 74.2742 93.169C74.3152 93.5108 74.281 93.839 74.1716 94.1534C74.1716 94.3585 74.1306 94.6046 74.0486 94.8917C73.9802 95.1788 73.9187 95.4522 73.864 95.712C73.7547 96.0538 73.6795 96.3545 73.6384 96.6143C73.5974 96.8741 73.5906 97.0928 73.6179 97.2705C73.6453 97.4483 73.6931 97.5918 73.7615 97.7012C73.8162 97.7969 73.8162 97.9063 73.7615 98.0293C73.7068 98.1387 73.5974 98.1934 73.4334 98.1934ZM82.6901 98.1318C82.5123 98.1318 82.3688 98.0977 82.2594 98.0293C82.1637 97.9609 82.0407 97.8652 81.8903 97.7422C81.6305 97.4688 81.4459 97.209 81.3366 96.9629C81.2272 96.7032 81.193 96.4571 81.234 96.2247C81.2751 96.1153 81.2887 96.0127 81.2751 95.917C81.2751 95.8077 81.2751 95.753 81.2751 95.753C81.2067 95.6846 81.1862 95.6436 81.2135 95.6299C81.2409 95.6026 81.2682 95.5616 81.2956 95.5069C81.3776 95.5069 81.4049 95.4317 81.3776 95.2813C81.3502 95.1719 81.4049 94.9327 81.5416 94.5636C81.6784 94.1944 81.8493 93.8458 82.0543 93.5177C82.1364 93.381 82.2594 93.2032 82.4235 92.9845C82.5875 92.7521 82.7653 92.5265 82.9567 92.3077C83.1617 92.0753 83.3463 91.8908 83.5104 91.754C83.8522 91.4669 84.1529 91.255 84.4127 91.1183C84.6724 90.9816 84.9527 90.8791 85.2535 90.8107C85.5543 90.7423 85.7593 90.7082 85.8687 90.7082C85.9918 90.7082 86.1558 90.8175 86.3609 91.0363C86.6753 91.173 86.9009 91.3371 87.0376 91.5285C87.188 91.7199 87.2837 92.0001 87.3247 92.3693C87.3658 92.7794 87.3316 93.2511 87.2222 93.7843C87.1265 94.3038 86.8052 94.9532 86.2584 95.7325C85.9166 96.2247 85.6021 96.5938 85.315 96.8399C85.0279 97.0723 84.6861 97.3047 84.2896 97.5371C84.0025 97.7285 83.7428 97.8721 83.5104 97.9678C83.2779 98.0498 83.0045 98.1045 82.6901 98.1318ZM84.6588 95.9581C84.9869 95.5889 85.2467 95.2403 85.4381 94.9122C85.6431 94.5841 85.8345 94.1671 86.0123 93.6612C86.067 93.5108 86.1011 93.3263 86.1148 93.1075C86.1285 92.8751 86.1216 92.6632 86.0943 92.4718C86.0806 92.2667 86.0328 92.1505 85.9507 92.1232C85.7867 92.0275 85.5884 92.0001 85.356 92.0411C85.1236 92.0685 84.8707 92.1984 84.5973 92.4308C84.1734 92.7862 83.8043 93.2306 83.4899 93.7638C83.1754 94.2833 82.8678 94.878 82.567 95.5479C82.3619 96.0401 82.3141 96.4366 82.4235 96.7373C82.5465 97.0244 82.7994 97.127 83.1822 97.0449C83.5787 96.9492 84.0709 96.587 84.6588 95.9581ZM93.324 98.3984C93.2283 98.4531 93.0984 98.4326 92.9343 98.3369C92.7839 98.2412 92.6335 98.0977 92.4831 97.9063C92.3874 97.7422 92.3191 97.5645 92.2781 97.3731C92.2507 97.1817 92.2371 96.9151 92.2371 96.5733C92.2507 96.2998 92.2371 96.1221 92.196 96.0401C92.1687 95.9581 92.0935 95.9717 91.9705 96.0811C91.8474 96.1768 91.6355 96.375 91.3347 96.6758C90.9929 97.0176 90.6648 97.2842 90.3504 97.4756C90.0496 97.667 89.8035 97.7559 89.6121 97.7422C89.5164 97.7422 89.407 97.6944 89.284 97.5986C89.1746 97.4893 89.0721 97.3594 88.9764 97.209C88.8807 97.0449 88.7987 96.8809 88.7303 96.7168C88.6483 96.4161 88.6346 96.0333 88.6893 95.5684C88.7576 95.0899 88.867 94.5909 89.0174 94.0714C89.1678 93.5519 89.3387 93.0597 89.5301 92.5948C89.7352 92.13 89.9402 91.754 90.1453 91.4669C90.3641 91.1798 90.5555 91.0363 90.7195 91.0363C90.8289 91.0363 90.9246 91.091 91.0066 91.2003C91.1023 91.3097 91.198 91.4806 91.2937 91.713C91.3484 91.8087 91.3689 91.8908 91.3552 91.9591C91.3552 92.0275 91.3006 92.1095 91.1912 92.2052C91.0681 92.3693 90.9246 92.6153 90.7605 92.9435C90.6101 93.2716 90.4598 93.627 90.3094 94.0099C90.1726 94.3927 90.0496 94.7618 89.9402 95.1173C89.8309 95.4727 89.7557 95.7667 89.7146 95.9991C89.6736 96.2178 89.6805 96.3272 89.7352 96.3272C89.9266 96.3272 90.1521 96.252 90.4119 96.1016C90.6853 95.9375 90.9451 95.7393 91.1912 95.5069C91.4783 95.2198 91.7312 94.9053 91.95 94.5636C92.1824 94.2218 92.4148 93.8595 92.6472 93.4767C92.8249 93.2032 93.0095 92.9025 93.2009 92.5743C93.406 92.2462 93.5359 92.0138 93.5905 91.8771C93.782 91.5216 93.9255 91.2824 94.0212 91.1593C94.1169 91.0226 94.2331 90.9337 94.3698 90.8927C94.4382 90.8927 94.4997 90.8927 94.5544 90.8927C94.6228 90.8927 94.6569 90.8927 94.6569 90.8927C94.739 90.9064 94.8347 90.9679 94.944 91.0773C95.0534 91.132 95.1149 91.1867 95.1286 91.2414C95.1423 91.2824 95.1491 91.3371 95.1491 91.4054C95.0944 91.5421 95.0056 91.7472 94.8825 92.0206C94.7731 92.2804 94.6911 92.4718 94.6364 92.5948C94.3767 93.1827 94.1169 93.7638 93.8571 94.338C93.6111 94.8985 93.4333 95.4727 93.324 96.0606C93.2966 96.252 93.2898 96.4776 93.3034 96.7373C93.3308 96.9834 93.3718 97.1612 93.4265 97.2705C93.4675 97.3526 93.5154 97.4483 93.57 97.5576C93.6384 97.6533 93.7136 97.7354 93.7956 97.8037C93.9187 97.8858 93.9392 97.9746 93.8571 98.0703C93.7888 98.166 93.6931 98.2481 93.57 98.3164C93.447 98.3711 93.365 98.3984 93.324 98.3984ZM97.1202 97.9678C97.0519 98.1045 96.9493 98.1455 96.8126 98.0908C96.6896 98.0361 96.587 97.9815 96.505 97.9268C96.4093 97.9268 96.3273 97.8994 96.2589 97.8447C96.1906 97.7901 96.1427 97.708 96.1154 97.5986C96.088 97.5166 96.0812 97.4209 96.0949 97.3115C96.1085 97.1885 96.1359 97.0518 96.1769 96.9014C96.2316 96.7373 96.2863 96.5596 96.341 96.3682C96.4503 95.917 96.5255 95.5889 96.5665 95.3838C96.6075 95.1788 96.6486 95.001 96.6896 94.8507C96.7306 94.7003 96.7853 94.4815 96.8536 94.1944C96.963 93.921 97.0519 93.6544 97.1202 93.3946C97.1886 93.1349 97.2911 92.8751 97.4278 92.6153C97.5235 92.2599 97.6398 91.9249 97.7765 91.6105C97.9269 91.2824 98.0704 91.0089 98.2071 90.7902C98.2345 90.7492 98.2823 90.6945 98.3507 90.6261C98.4327 90.5578 98.5011 90.5236 98.5558 90.5236C98.6651 90.4142 98.7608 90.3732 98.8429 90.4005C98.9386 90.4142 99.0548 90.4757 99.1915 90.5851C99.3555 90.7628 99.4171 90.9679 99.376 91.2003C99.3487 91.4328 99.1846 91.7745 98.8839 92.2257C98.7198 92.6495 98.5694 93.0187 98.4327 93.3331C98.296 93.6339 98.2003 93.921 98.1456 94.1944C98.296 93.9757 98.46 93.7774 98.6378 93.5997C98.8292 93.4083 98.9864 93.2511 99.1095 93.128C99.4102 92.8273 99.6563 92.6085 99.8477 92.4718C100.053 92.3351 100.292 92.1779 100.565 92.0001C100.73 91.8908 100.887 91.7951 101.037 91.713C101.188 91.6173 101.352 91.549 101.529 91.5079C101.721 91.4669 101.926 91.4669 102.145 91.5079C102.281 91.4943 102.391 91.5353 102.473 91.631C102.568 91.7267 102.644 91.8566 102.698 92.0206C102.753 92.1847 102.787 92.3761 102.801 92.5948C102.486 92.5265 102.206 92.5402 101.96 92.6359C101.714 92.7179 101.502 92.8204 101.324 92.9435C101.16 93.0665 101.03 93.1622 100.935 93.2306C100.73 93.3673 100.47 93.5519 100.155 93.7843C99.8409 94.003 99.5264 94.2696 99.212 94.5841C98.9659 94.8575 98.754 95.0899 98.5763 95.2813C98.4122 95.4727 98.2755 95.6436 98.1661 95.794C98.0704 95.9444 97.9952 96.1016 97.9405 96.2657C97.8038 96.5801 97.6603 96.9219 97.5099 97.291C97.3595 97.6602 97.2296 97.8858 97.1202 97.9678ZM110.728 98.0908C110.454 98.0635 110.283 98.0293 110.215 97.9883C110.16 97.9473 110.092 97.8379 110.01 97.6602C109.901 97.5371 109.832 97.4414 109.805 97.3731C109.791 97.3047 109.791 97.2432 109.805 97.1885C109.873 97.1885 109.935 97.1885 109.989 97.1885C110.044 97.1748 110.078 97.1475 110.092 97.1065C110.092 97.0655 110.112 97.0381 110.153 97.0244C110.208 97.0108 110.263 97.0108 110.318 97.0244C110.577 97.0381 110.905 96.9561 111.302 96.7784C111.712 96.587 112.15 96.3272 112.614 95.9991C113.093 95.6573 113.558 95.2813 114.009 94.8712C114.364 94.4063 114.624 94.044 114.788 93.7843C114.952 93.5108 115.048 93.2921 115.075 93.128C115.103 92.9503 115.082 92.7999 115.014 92.6769C114.959 92.5675 114.761 92.5265 114.419 92.5538C114.077 92.5675 113.694 92.7111 113.271 92.9845C112.683 93.3536 112.211 93.6954 111.856 94.0099C111.5 94.3243 111.172 94.6798 110.871 95.0762C110.762 95.213 110.653 95.377 110.543 95.5684C110.447 95.7598 110.365 95.9239 110.297 96.0606C110.229 96.1973 110.195 96.2657 110.195 96.2657C110.195 96.3204 110.112 96.3887 109.948 96.4707C109.798 96.5528 109.668 96.5938 109.559 96.5938C109.504 96.5664 109.429 96.5186 109.333 96.4502C109.251 96.3682 109.196 96.2657 109.169 96.1426C109.073 96.0743 109.005 96.0196 108.964 95.9786C108.923 95.9375 108.896 95.8897 108.882 95.835C108.868 95.753 108.889 95.6231 108.944 95.4454C108.998 95.2676 109.073 94.9874 109.169 94.6046C109.251 94.2491 109.34 93.88 109.436 93.4972C109.545 93.1144 109.648 92.7862 109.743 92.5128C109.839 92.2394 109.907 92.089 109.948 92.0616C109.948 92.0616 109.976 92.0001 110.03 91.8771C110.085 91.754 110.112 91.6105 110.112 91.4464C110.14 91.2824 110.181 91.1388 110.236 91.0158C110.304 90.8927 110.338 90.8039 110.338 90.7492C110.393 90.7082 110.475 90.5441 110.584 90.257C110.694 89.9699 110.83 89.5939 110.994 89.1291C110.994 89.0881 111.042 88.9582 111.138 88.7394C111.234 88.507 111.35 88.2404 111.486 87.9397C111.623 87.6252 111.76 87.3039 111.897 86.9758C112.047 86.634 112.17 86.3332 112.266 86.0735C112.43 85.8411 112.553 85.6292 112.635 85.4378C112.731 85.2327 112.826 85.1096 112.922 85.0686C112.99 85.055 113.072 85.0618 113.168 85.0891C113.277 85.1028 113.38 85.137 113.476 85.1917C113.585 85.2464 113.674 85.3284 113.742 85.4378C113.783 85.5061 113.811 85.5676 113.824 85.6223C113.838 85.677 113.817 85.7795 113.763 85.9299C113.708 86.0667 113.599 86.3059 113.435 86.6477C113.284 86.9758 113.059 87.4543 112.758 88.0832C112.375 88.9035 112.061 89.6349 111.815 90.2775C111.569 90.9201 111.363 91.4874 111.199 91.9796C111.035 92.4718 110.885 92.8956 110.748 93.2511L110.646 93.7022L111.158 93.2101C111.363 93.0597 111.589 92.8751 111.835 92.6564C112.081 92.4376 112.3 92.2462 112.491 92.0822C112.601 92.0001 112.744 91.9181 112.922 91.8361C113.113 91.7404 113.298 91.6583 113.476 91.59C113.653 91.5216 113.783 91.4806 113.865 91.4669C113.906 91.4533 114.009 91.4328 114.173 91.4054C114.337 91.3781 114.535 91.3644 114.768 91.3644C115.068 91.3644 115.308 91.4328 115.485 91.5695C115.677 91.7062 115.861 91.9249 116.039 92.2257C116.19 92.5128 116.251 92.8409 116.224 93.2101C116.196 93.5655 116.087 93.9005 115.896 94.2149C115.827 94.2696 115.759 94.3448 115.69 94.4405C115.622 94.5225 115.588 94.5909 115.588 94.6456C115.574 94.7413 115.451 94.9395 115.219 95.2403C114.986 95.5274 114.754 95.8008 114.522 96.0606C114.275 96.3204 113.975 96.5801 113.619 96.8399C113.264 97.086 112.908 97.3115 112.553 97.5166C112.211 97.708 111.917 97.8447 111.671 97.9268C111.562 97.9404 111.404 97.9678 111.199 98.0088C110.994 98.0361 110.837 98.0635 110.728 98.0908ZM117.691 97.4756C117.555 97.3936 117.452 97.3115 117.384 97.2295C117.315 97.1475 117.281 97.0313 117.281 96.8809C117.281 96.6758 117.309 96.4639 117.363 96.2452C117.418 96.0127 117.473 95.7872 117.527 95.5684C117.555 95.3223 117.589 95.0762 117.63 94.8301C117.685 94.5704 117.78 94.3311 117.917 94.1124C118.067 93.5929 118.225 93.0802 118.389 92.5743C118.553 92.0548 118.696 91.5216 118.819 90.9748C118.997 90.4689 119.154 90.0246 119.291 89.6418C119.441 89.2453 119.626 88.7463 119.845 88.1447C119.968 87.8029 120.07 87.4406 120.152 87.0578C120.248 86.6614 120.392 86.3059 120.583 85.9915C120.665 85.8684 120.726 85.7659 120.768 85.6838C120.822 85.5881 120.877 85.4993 120.932 85.4172C120.945 85.3626 120.986 85.3284 121.055 85.3147C121.137 85.301 121.226 85.3079 121.321 85.3352C121.417 85.3626 121.492 85.4104 121.547 85.4788C121.588 85.4651 121.636 85.5061 121.69 85.6018C121.759 85.6838 121.82 85.7795 121.875 85.8889C121.93 85.9983 121.95 86.094 121.936 86.176C121.936 86.2307 121.923 86.3059 121.895 86.4016C121.882 86.4973 121.848 86.5862 121.793 86.6682C121.738 86.7229 121.684 86.8049 121.629 86.9143C121.588 87.01 121.519 87.1467 121.424 87.3244C121.369 87.5022 121.321 87.6867 121.28 87.8781C121.239 88.0559 121.184 88.2199 121.116 88.3703C121.061 88.5344 120.993 88.6916 120.911 88.842C120.843 88.9924 120.795 89.1154 120.768 89.2111C120.672 89.5256 120.556 89.8332 120.419 90.134C120.296 90.4347 120.186 90.756 120.091 91.0978C119.995 91.4259 119.899 91.7677 119.804 92.1232C119.708 92.465 119.571 92.7931 119.394 93.1075C119.298 93.2579 119.229 93.4493 119.188 93.6817C119.147 93.9142 119.106 94.1466 119.065 94.379C118.983 94.6251 118.908 94.8575 118.84 95.0762C118.785 95.2813 118.758 95.4112 118.758 95.4659C118.676 95.7667 118.614 96.0674 118.573 96.3682C118.546 96.6553 118.478 96.9082 118.368 97.127C118.354 97.2637 118.327 97.3731 118.286 97.4551C118.245 97.5371 118.177 97.585 118.081 97.5986C117.985 97.5986 117.855 97.5576 117.691 97.4756ZM122.899 98.3164C122.721 98.3301 122.578 98.3164 122.469 98.2754C122.359 98.2207 122.222 98.1455 122.058 98.0498C121.758 97.8174 121.532 97.585 121.382 97.3526C121.245 97.1065 121.183 96.8672 121.197 96.6348C121.224 96.5118 121.224 96.4024 121.197 96.3067C121.183 96.211 121.177 96.1631 121.177 96.1631C121.095 96.0948 121.067 96.0538 121.095 96.0401C121.122 96.0127 121.142 95.9717 121.156 95.917C121.265 95.8897 121.279 95.8145 121.197 95.6915C121.156 95.5821 121.177 95.336 121.259 94.9532C121.354 94.5567 121.477 94.1876 121.628 93.8458C121.696 93.6954 121.792 93.4972 121.915 93.2511C122.052 93.005 122.202 92.7589 122.366 92.5128C122.53 92.2531 122.68 92.048 122.817 91.8976C123.118 91.5558 123.384 91.3029 123.617 91.1388C123.863 90.9611 124.136 90.8175 124.437 90.7082C124.711 90.5988 124.909 90.5373 125.032 90.5236C125.155 90.5099 125.326 90.592 125.545 90.7697C125.873 90.8654 126.119 91.0021 126.283 91.1798C126.461 91.3439 126.597 91.6037 126.693 91.9591C126.802 92.3556 126.837 92.8273 126.796 93.3741C126.768 93.9073 126.536 94.5977 126.098 95.4454C125.839 95.9786 125.579 96.3819 125.319 96.6553C125.073 96.9287 124.772 97.2158 124.417 97.5166C124.157 97.7354 123.918 97.9063 123.699 98.0293C123.48 98.1523 123.214 98.2481 122.899 98.3164ZM124.54 95.876C124.813 95.4659 125.025 95.0899 125.175 94.7481C125.34 94.3927 125.469 93.9483 125.565 93.4151C125.592 93.2648 125.599 93.0802 125.586 92.8614C125.572 92.629 125.538 92.4171 125.483 92.2257C125.442 92.0343 125.381 91.9318 125.299 91.9181C125.121 91.8497 124.923 91.8497 124.704 91.9181C124.485 91.9728 124.246 92.1368 123.986 92.4103C123.754 92.6837 123.542 92.9913 123.35 93.3331C123.173 93.6749 123.009 94.0509 122.858 94.461C122.708 94.8712 122.564 95.3087 122.427 95.7735C122.291 96.293 122.298 96.6895 122.448 96.9629C122.612 97.2364 122.879 97.3047 123.248 97.168C123.617 97.0176 124.048 96.587 124.54 95.876ZM129.473 98.1318C129.295 98.1318 129.151 98.0977 129.042 98.0293C128.946 97.9609 128.823 97.8652 128.673 97.7422C128.413 97.4688 128.228 97.209 128.119 96.9629C128.01 96.7032 127.976 96.4571 128.017 96.2247C128.058 96.1153 128.071 96.0127 128.058 95.917C128.058 95.8077 128.058 95.753 128.058 95.753C127.989 95.6846 127.969 95.6436 127.996 95.6299C128.023 95.6026 128.051 95.5616 128.078 95.5069C128.16 95.5069 128.187 95.4317 128.16 95.2813C128.133 95.1719 128.187 94.9327 128.324 94.5636C128.461 94.1944 128.632 93.8458 128.837 93.5177C128.919 93.381 129.042 93.2032 129.206 92.9845C129.37 92.7521 129.548 92.5265 129.739 92.3077C129.944 92.0753 130.129 91.8908 130.293 91.754C130.635 91.4669 130.935 91.255 131.195 91.1183C131.455 90.9816 131.735 90.8791 132.036 90.8107C132.337 90.7423 132.542 90.7082 132.651 90.7082C132.774 90.7082 132.938 90.8175 133.143 91.0363C133.458 91.173 133.683 91.3371 133.82 91.5285C133.971 91.7199 134.066 92.0001 134.107 92.3693C134.148 92.7794 134.114 93.2511 134.005 93.7843C133.909 94.3038 133.588 94.9532 133.041 95.7325C132.699 96.2247 132.385 96.5938 132.098 96.8399C131.81 97.0723 131.469 97.3047 131.072 97.5371C130.785 97.7285 130.525 97.8721 130.293 97.9678C130.06 98.0498 129.787 98.1045 129.473 98.1318ZM131.441 95.9581C131.769 95.5889 132.029 95.2403 132.221 94.9122C132.426 94.5841 132.617 94.1671 132.795 93.6612C132.849 93.5108 132.884 93.3263 132.897 93.1075C132.911 92.8751 132.904 92.6632 132.877 92.4718C132.863 92.2667 132.815 92.1505 132.733 92.1232C132.569 92.0275 132.371 92.0001 132.139 92.0411C131.906 92.0685 131.653 92.1984 131.38 92.4308C130.956 92.7862 130.587 93.2306 130.272 93.7638C129.958 94.2833 129.65 94.878 129.35 95.5479C129.144 96.0401 129.097 96.4366 129.206 96.7373C129.329 97.0244 129.582 97.127 129.965 97.0449C130.361 96.9492 130.853 96.587 131.441 95.9581ZM139.86 98.3779C139.71 98.4326 139.601 98.4531 139.532 98.4395C139.478 98.4121 139.334 98.3096 139.102 98.1318C139.006 97.9678 138.944 97.8242 138.917 97.7012C138.903 97.5645 138.897 97.3252 138.897 96.9834C138.924 96.7784 138.979 96.4844 139.061 96.1016C139.156 95.7188 139.266 95.3155 139.389 94.8917C139.512 94.4679 139.621 94.085 139.717 93.7433C139.826 93.4015 139.908 93.169 139.963 93.046C140.059 92.7179 140.079 92.5196 140.024 92.4513C139.97 92.3693 139.806 92.3146 139.532 92.2872C138.985 92.2189 138.493 92.3966 138.056 92.8204C137.618 93.2442 137.181 93.7979 136.743 94.4815C136.415 94.9874 136.217 95.4249 136.149 95.794C136.094 96.1495 136.087 96.3955 136.128 96.5323C136.169 96.6416 136.265 96.7032 136.415 96.7168C136.566 96.7168 136.73 96.6827 136.907 96.6143C137.099 96.5459 137.263 96.4776 137.399 96.4092C137.495 96.3545 137.611 96.2998 137.748 96.2452C137.898 96.1768 138.042 96.1153 138.179 96.0606C138.261 96.0606 138.315 96.0879 138.343 96.1426C138.384 96.1836 138.404 96.2725 138.404 96.4092C138.404 96.4639 138.425 96.5118 138.466 96.5528C138.507 96.5938 138.555 96.628 138.609 96.6553C138.664 96.71 138.582 96.833 138.363 97.0244C138.158 97.2158 137.837 97.4346 137.399 97.6807C136.989 97.7764 136.654 97.8242 136.395 97.8242C136.149 97.8242 135.909 97.7354 135.677 97.5576C135.294 97.3252 135.075 96.9492 135.021 96.4297C134.98 95.8965 135.089 95.2471 135.349 94.4815C135.609 93.8663 135.896 93.3673 136.21 92.9845C136.525 92.588 136.859 92.2052 137.215 91.8361C137.27 91.7814 137.393 91.6994 137.584 91.59C137.789 91.4669 138.042 91.3576 138.343 91.2619C138.685 91.1525 139.006 91.0841 139.307 91.0568C139.607 91.0294 139.867 91.091 140.086 91.2414C140.332 91.296 140.489 91.2892 140.558 91.2208C140.626 91.1388 140.742 90.8927 140.906 90.4826C141.18 89.799 141.446 89.1086 141.706 88.4113C141.966 87.7004 142.246 86.9826 142.547 86.2581C142.684 85.9983 142.766 85.8001 142.793 85.6633C142.834 85.513 142.882 85.4104 142.936 85.3557H143.326C143.381 85.3557 143.477 85.4036 143.613 85.4993C143.75 85.595 143.846 85.7249 143.9 85.8889C143.9 86.012 143.846 86.2854 143.736 86.7092C143.627 87.1194 143.449 87.6115 143.203 88.1858C142.984 88.6916 142.766 89.2043 142.547 89.7238C142.342 90.2297 142.144 90.7697 141.952 91.3439C141.802 91.7677 141.665 92.1095 141.542 92.3693C141.419 92.629 141.337 92.8546 141.296 93.046C141.214 93.4015 141.111 93.7227 140.988 94.0099C140.879 94.2833 140.804 94.4747 140.763 94.5841C140.585 95.1036 140.441 95.5274 140.332 95.8555C140.223 96.17 140.141 96.4366 140.086 96.6553C140.031 96.8604 139.997 97.0723 139.983 97.291C139.983 97.4961 140.004 97.7422 140.045 98.0293C140.045 98.084 140.038 98.1387 140.024 98.1934C140.011 98.2481 139.956 98.3096 139.86 98.3779ZM144.589 98.5215C144.329 98.4121 144.083 98.2686 143.851 98.0908C143.618 97.8994 143.468 97.7422 143.4 97.6192C143.4 97.4961 143.42 97.4141 143.461 97.3731C143.502 97.3184 143.618 97.2979 143.81 97.3115C144.015 97.3115 144.343 97.3389 144.794 97.3936C144.958 97.3936 145.163 97.3799 145.409 97.3526C145.655 97.3252 145.881 97.2842 146.086 97.2295C146.305 97.1748 146.428 97.1065 146.455 97.0244C146.523 97.0244 146.537 97.0039 146.496 96.9629C146.455 96.9082 146.407 96.8535 146.353 96.7989C146.298 96.7989 146.236 96.7784 146.168 96.7373C146.1 96.6827 146.038 96.6553 145.983 96.6553C145.983 96.587 145.915 96.5118 145.778 96.4297C145.655 96.334 145.525 96.2588 145.389 96.2041C145.088 95.9581 144.828 95.7393 144.609 95.5479C144.391 95.3428 144.309 95.2061 144.363 95.1378C144.363 95.0831 144.363 95.0557 144.363 95.0557C144.363 95.0421 144.363 95.0352 144.363 95.0352C144.268 95.0352 144.158 94.8985 144.035 94.6251C143.926 94.3516 143.871 94.1056 143.871 93.8868C143.871 93.7227 143.919 93.5177 144.015 93.2716C144.11 93.0118 144.24 92.7452 144.404 92.4718C144.568 92.1984 144.739 91.9728 144.917 91.7951C145.163 91.5626 145.471 91.3165 145.84 91.0568C146.209 90.7834 146.571 90.5441 146.927 90.339C147.296 90.1203 147.604 89.9767 147.85 89.9084C148.096 89.8127 148.321 89.7648 148.526 89.7648C148.745 89.7648 148.937 89.8127 149.101 89.9084C149.237 89.9767 149.36 90.0793 149.47 90.216C149.593 90.339 149.695 90.4689 149.777 90.6056C149.873 90.7287 149.935 90.838 149.962 90.9337C149.962 91.0978 149.948 91.2824 149.921 91.4874C149.894 91.6788 149.853 91.8497 149.798 92.0001C149.757 92.1505 149.688 92.2257 149.593 92.2257C149.593 92.2257 149.572 92.2325 149.531 92.2462C149.504 92.2462 149.49 92.2804 149.49 92.3488C149.49 92.4855 149.388 92.6427 149.183 92.8204C148.923 92.9982 148.697 93.1075 148.506 93.1485C148.314 93.1759 148.198 93.1007 148.157 92.923C148.116 92.8683 148.089 92.8204 148.075 92.7794C148.062 92.7384 148.027 92.7179 147.973 92.7179C147.973 92.7179 147.952 92.6974 147.911 92.6564C147.87 92.6153 147.85 92.547 147.85 92.4513C147.85 92.3966 147.87 92.3488 147.911 92.3077C147.952 92.2531 147.973 92.2257 147.973 92.2257C148.041 92.2257 148.13 92.1505 148.239 92.0001C148.349 91.8361 148.444 91.6652 148.526 91.4874C148.622 91.296 148.67 91.1662 148.67 91.0978C148.67 91.0158 148.656 90.9679 148.629 90.9542C148.615 90.9406 148.554 90.9337 148.444 90.9337C148.253 91.0158 148.021 91.1251 147.747 91.2619C147.474 91.3986 147.214 91.5353 146.968 91.672C146.735 91.7951 146.565 91.9113 146.455 92.0206C146.4 92.1163 146.366 92.1779 146.353 92.2052C146.339 92.2189 146.305 92.2257 146.25 92.2257C146.25 92.171 146.202 92.1984 146.107 92.3077C146.024 92.4034 145.915 92.5402 145.778 92.7179C145.655 92.8956 145.532 93.0733 145.409 93.2511C145.3 93.4151 145.218 93.5382 145.163 93.6202C145.136 93.6476 145.102 93.7296 145.061 93.8663C145.033 93.9893 145.02 94.1056 145.02 94.2149C144.965 94.379 144.972 94.4952 145.04 94.5636C145.108 94.6182 145.259 94.7413 145.491 94.9327C145.97 95.2881 146.346 95.5821 146.619 95.8145C146.893 96.0469 147.098 96.2383 147.234 96.3887C147.371 96.5391 147.453 96.6758 147.48 96.7989C147.727 97.209 147.802 97.5235 147.706 97.7422C147.61 97.9609 147.378 98.1523 147.009 98.3164C146.872 98.3848 146.647 98.4395 146.332 98.4805C146.018 98.5215 145.696 98.542 145.368 98.542C145.04 98.5557 144.78 98.5488 144.589 98.5215Z" fill="black"/>
</svg>
