<svg width="189" height="156" viewBox="0 0 189 156" fill="none" xmlns="http://www.w3.org/2000/svg">
<path d="M32.5921 138.407C32.5758 138.507 32.4447 138.616 32.1988 138.732C31.9529 138.848 31.5533 139.009 31.0001 139.215C30.8351 139.27 30.586 139.346 30.2528 139.442C29.9325 139.536 29.5799 139.637 29.1949 139.747C28.8229 139.853 28.4816 139.944 28.1711 140.022C27.8573 140.086 27.639 140.12 27.5161 140.123C27.5161 140.123 27.4918 140.163 27.4432 140.244C27.4075 140.321 27.4025 140.412 27.4283 140.516C27.3763 140.693 27.3194 140.962 27.2575 141.321C27.2085 141.676 27.1482 142.069 27.0765 142.499C27.0177 142.926 26.9655 143.351 26.9196 143.775C26.8868 144.195 26.8604 144.559 26.8406 144.866C26.8208 145.173 26.8238 145.378 26.8495 145.482C26.8103 145.821 26.8051 146.104 26.8339 146.331C26.8627 146.557 26.8496 146.698 26.7946 146.753C26.7945 146.808 26.7136 146.842 26.5519 146.854C26.3902 146.867 26.2431 146.828 26.1106 146.737C25.9264 146.659 25.8101 146.578 25.7617 146.494C25.723 146.394 25.7136 146.19 25.7334 145.883C25.7304 145.705 25.7339 145.443 25.7441 145.097C25.7639 144.735 25.7822 144.339 25.7989 143.909C25.8286 143.476 25.8615 143.055 25.8976 142.648C25.9434 142.224 26.0004 141.874 26.0687 141.596C26.1499 141.314 26.1858 141.072 26.1763 140.868C26.1637 140.651 26.1688 140.451 26.1917 140.267C26.1433 140.127 26.1192 140.03 26.1193 139.975C26.1193 139.92 26.1518 139.83 26.2166 139.704C26.2685 139.636 26.3236 139.526 26.382 139.374C26.4501 139.206 26.5135 138.964 26.5721 138.647C26.5787 138.508 26.5935 138.319 26.6165 138.079C26.6491 137.824 26.6753 137.57 26.695 137.318C26.7116 137.053 26.7312 136.828 26.7541 136.644C26.777 136.46 26.7868 136.361 26.7836 136.348C26.7966 136.29 26.8113 136.183 26.8277 136.028C26.8408 135.86 26.8491 135.727 26.8524 135.63C26.8591 135.436 26.861 135.278 26.8579 135.155C26.8677 135.029 26.8468 134.972 26.795 134.985C26.698 135.037 26.4958 135.107 26.1884 135.198C26.0396 135.262 25.928 135.31 25.8535 135.343C25.7888 135.359 25.7322 135.38 25.6837 135.406C25.5575 135.451 25.4378 135.467 25.3247 135.454C25.2115 135.44 25.1404 135.376 25.1115 135.259C25.0859 135.046 25.1152 134.86 25.1995 134.702C25.2935 134.527 25.436 134.409 25.6268 134.348C25.711 134.3 25.8032 134.256 25.9035 134.217C26.0135 134.163 26.1591 134.085 26.3403 133.985C26.5733 133.872 26.7513 133.787 26.8743 133.729C27.0069 133.654 27.1153 133.621 27.1994 133.627C27.2544 133.572 27.303 133.519 27.3451 133.467C27.384 133.403 27.397 133.345 27.3841 133.293C27.368 133.228 27.3827 133.176 27.428 133.138C27.483 133.083 27.5494 133.046 27.627 133.026C27.7014 132.994 27.7807 132.981 27.8647 132.988C27.9618 132.991 28.0377 133.02 28.0926 133.075C28.1281 133.108 28.1944 133.126 28.2914 133.129C28.3884 133.132 28.5502 133.092 28.7767 133.008C29.0128 132.908 29.3397 132.758 29.7571 132.558C29.9835 132.475 30.2682 132.376 30.6112 132.264C30.967 132.148 31.2565 132.096 31.4797 132.11C31.69 132.016 31.8808 131.955 32.0523 131.926C32.2334 131.881 32.3499 131.824 32.4017 131.757C32.6863 131.741 32.8901 131.731 33.013 131.728C33.1456 131.709 33.2587 131.722 33.3525 131.768C33.4171 131.806 33.4429 131.855 33.4299 131.913C33.4266 131.955 33.425 131.976 33.425 131.976C33.3668 131.963 33.3748 131.968 33.4492 131.991C33.5203 132.001 33.572 132.015 33.6044 132.035C33.7046 132.051 33.7757 132.088 33.8176 132.147C33.8564 132.192 33.8822 132.24 33.8951 132.292C33.9079 132.344 33.9127 132.391 33.9094 132.433C33.9255 132.552 33.8785 132.64 33.7684 132.695C33.6552 132.736 33.3641 132.809 32.895 132.912C32.3193 132.972 31.763 133.083 31.226 133.244C30.6987 133.389 30.0921 133.602 29.4061 133.882C29.1506 133.96 28.9273 134.056 28.7364 134.172C28.5551 134.272 28.4516 134.326 28.4257 134.332C28.374 134.345 28.3059 134.458 28.2215 134.671C28.134 134.872 28.0738 135.155 28.041 135.52C28.0118 135.624 27.9727 135.853 27.9237 136.209C27.8747 136.564 27.8193 136.949 27.7573 137.363C27.7083 137.774 27.6609 138.136 27.6152 138.449C27.5825 138.76 27.5564 138.931 27.537 138.963C27.731 138.97 28.0286 138.924 28.4297 138.824C28.8437 138.721 29.2934 138.595 29.7787 138.447C30.2736 138.283 30.7233 138.13 31.1277 137.988C31.3122 137.901 31.5047 137.819 31.7053 137.742C31.9156 137.648 32.0563 137.606 32.1275 137.616C32.2018 137.639 32.2793 137.702 32.3601 137.805C32.4376 137.896 32.4973 137.998 32.5391 138.111C32.594 138.221 32.6116 138.32 32.5921 138.407ZM39.3932 143.187C39.2317 143.09 39.0589 142.948 38.8748 142.76C38.6875 142.559 38.518 142.32 38.3664 142.041C38.3147 141.944 38.2664 141.805 38.2214 141.624C38.1893 141.44 38.1571 141.31 38.1248 141.236C38.1086 141.336 38.068 141.449 38.0031 141.575C37.948 141.685 37.8897 141.782 37.8282 141.866C37.7893 141.931 37.6985 142.063 37.556 142.263C37.4102 142.451 37.258 142.612 37.0994 142.748C36.74 143.126 36.4211 143.363 36.1429 143.46C35.8776 143.553 35.5834 143.475 35.2604 143.226C35.0115 143.109 34.8161 142.958 34.674 142.774C34.5449 142.586 34.4741 142.301 34.4617 141.92C34.375 141.461 34.3303 141.005 34.3276 140.552C34.3217 140.086 34.3905 139.451 34.5338 138.646C34.6736 138.048 34.7841 137.608 34.8653 137.327C34.9433 137.033 34.9953 136.855 35.0212 136.793C35.1992 136.68 35.3626 136.647 35.5113 136.692C35.6567 136.725 35.7649 136.828 35.8359 137.003C35.9457 137.113 35.9874 137.336 35.9611 137.673C35.9478 138.006 35.8809 138.428 35.7606 138.938C35.6889 139.423 35.63 139.905 35.5842 140.384C35.5512 140.859 35.5604 141.255 35.6117 141.572C35.6631 141.889 35.7874 142.057 35.9846 142.077C36.1171 142.113 36.3129 142.044 36.5718 141.869C36.8437 141.692 37.1093 141.351 37.3686 140.847C37.6409 140.339 37.8472 139.622 37.9874 138.694C38.0266 138.409 38.0479 138.164 38.0514 137.957C38.0517 137.737 38.0278 137.502 37.9796 137.253C37.9151 137.104 37.8878 136.967 37.8976 136.841C37.9172 136.698 37.9934 136.563 38.1261 136.434C38.1618 136.356 38.2185 136.28 38.2962 136.206C38.3707 136.119 38.4289 136.104 38.4709 136.162L38.7766 136.066C38.8251 136.04 38.8655 136.064 38.8978 136.139C38.9397 136.197 38.9995 136.244 39.0771 136.28C39.2484 136.361 39.3499 136.603 39.3817 137.008C39.4136 137.412 39.3675 138 39.2437 138.773C39.1297 139.365 39.0612 139.808 39.0382 140.102C39.0282 140.393 39.0488 140.669 39.1002 140.931C39.1581 141.164 39.2581 141.373 39.4002 141.558C39.5422 141.742 39.7312 141.894 39.9671 142.014C40.132 142.069 40.2354 142.154 40.2773 142.267C40.3321 142.377 40.3723 142.511 40.398 142.67C40.4011 142.793 40.3476 142.909 40.2375 143.019C40.1371 143.112 40.0093 143.178 39.854 143.217C39.6988 143.256 39.5452 143.246 39.3932 143.187ZM43.4473 142.076C43.2985 142.086 43.132 142.052 42.9478 141.974C42.7733 141.88 42.6085 141.77 42.4534 141.643C42.3081 141.501 42.1999 141.37 42.1289 141.25C42.1225 141.224 42.0951 141.197 42.0466 141.167C42.0111 141.135 41.9933 141.119 41.9933 141.119C41.9319 141.093 41.8577 140.933 41.7708 140.638C41.6936 140.328 41.6277 139.98 41.5732 139.595C41.5187 139.21 41.49 138.901 41.4871 138.669C41.5003 138.445 41.5282 138.143 41.5707 137.762C41.61 137.367 41.6396 137.016 41.6594 136.709L41.9035 135.453L41.0741 135.433C40.9771 135.429 40.8866 135.397 40.8025 135.335C40.7315 135.271 40.6895 135.212 40.6767 135.161C40.6509 135.057 40.6786 134.92 40.7596 134.748C40.8375 134.564 40.9023 134.466 40.954 134.453C41.022 134.45 41.14 134.427 41.3082 134.385C41.4894 134.34 41.6625 134.29 41.8275 134.235C41.9924 134.181 42.0927 134.142 42.1283 134.119C42.1737 134.081 42.2174 134.035 42.2595 133.984C42.2984 133.919 42.3195 133.838 42.3229 133.741C42.3522 133.583 42.3782 133.439 42.401 133.31C42.4206 133.167 42.4564 133.007 42.5084 132.83C42.5571 132.639 42.5929 132.479 42.6157 132.35C42.6514 132.217 42.7082 132.031 42.7862 131.792C42.8283 131.685 42.8722 131.558 42.9176 131.409C42.9631 131.26 43.0328 131.126 43.1267 131.007C43.2174 130.874 43.3226 130.8 43.4423 130.784C43.5717 130.752 43.7543 130.796 43.9903 130.916C44.126 131.019 44.2083 131.102 44.2373 131.163C44.2664 131.225 44.2452 131.36 44.1738 131.571C44.1249 131.816 44.0567 132.067 43.9691 132.322C43.8944 132.574 43.8261 132.825 43.7644 133.074C43.6281 133.41 43.6295 133.581 43.7686 133.588C43.9076 133.595 44.2635 133.479 44.8362 133.24C45.1953 133.082 45.4719 133.034 45.6658 133.096C45.8566 133.144 45.9922 133.276 46.0728 133.489C46.1888 133.79 46.2031 133.986 46.1157 134.076C46.0283 134.166 45.7387 134.273 45.247 134.395C44.9493 134.524 44.6921 134.622 44.4754 134.69C44.2554 134.745 44.0937 134.785 43.9901 134.811C43.8251 134.865 43.7168 134.899 43.665 134.912C43.6133 134.925 43.5388 134.957 43.4418 135.009C43.3447 135.06 43.2783 135.125 43.2426 135.203C43.2167 135.264 43.1907 135.353 43.1647 135.469C43.1258 135.534 43.0819 135.689 43.0331 135.935C42.9843 136.18 42.9144 136.452 42.8235 136.749C42.7775 137.338 42.7573 137.92 42.7631 138.496C42.7656 139.058 42.7907 139.602 42.8386 140.126C42.8673 140.462 42.93 140.687 43.0269 140.8C43.1206 140.9 43.3065 140.93 43.5846 140.888C43.7302 140.866 43.9566 140.809 44.2639 140.719C44.581 140.613 44.8237 140.511 44.9919 140.414C45.1182 140.314 45.2509 140.213 45.3901 140.109C45.5261 139.993 45.6491 139.88 45.7592 139.77C45.8595 139.677 45.9599 139.583 46.0603 139.489C46.1574 139.383 46.206 139.329 46.206 139.329C46.245 139.21 46.3081 139.16 46.3954 139.179C46.4827 139.199 46.5715 139.28 46.6618 139.422C46.7005 139.577 46.7083 139.747 46.6855 139.932C46.6626 140.116 46.4731 140.376 46.1169 140.712C45.6247 141.219 45.1424 141.572 44.6701 141.772C44.2074 141.956 43.7998 142.057 43.4473 142.076ZM52.9247 139.823C52.847 139.897 52.7192 139.908 52.5414 139.856C52.3766 139.801 52.2005 139.701 52.0131 139.555C51.8839 139.422 51.7774 139.27 51.6935 139.099C51.6226 138.924 51.5469 138.675 51.4665 138.351C51.4151 138.089 51.3603 137.924 51.3022 137.856C51.257 137.785 51.1891 137.816 51.0983 137.948C51.0044 138.068 50.8505 138.305 50.6366 138.661C50.3936 139.065 50.1458 139.394 49.8932 139.649C49.6536 139.901 49.4416 140.043 49.2572 140.075C49.1666 140.098 49.0519 140.078 48.9129 140.017C48.7836 139.939 48.656 139.84 48.5301 139.72C48.4009 139.587 48.2846 139.452 48.1813 139.312C48.0329 139.047 47.9299 138.688 47.8723 138.235C47.8243 137.766 47.8104 137.268 47.8305 136.741C47.8506 136.214 47.8965 135.708 47.9683 135.223C48.053 134.735 48.1586 134.331 48.2851 134.011C48.4246 133.687 48.5719 133.507 48.7272 133.468C48.8307 133.442 48.9342 133.471 49.0375 133.556C49.1539 133.637 49.2847 133.776 49.4299 133.973C49.5042 134.051 49.5429 134.124 49.5461 134.192C49.5621 134.256 49.5297 134.347 49.4487 134.463C49.3709 134.647 49.2929 134.914 49.2148 135.263C49.1497 135.609 49.091 135.981 49.0388 136.379C48.9995 136.773 48.9699 137.152 48.95 137.514C48.9302 137.876 48.9282 138.172 48.944 138.401C48.9567 138.618 48.9889 138.72 49.0407 138.707C49.2218 138.662 49.4176 138.538 49.6281 138.334C49.8483 138.115 50.0475 137.866 50.2257 137.588C50.4298 137.249 50.5952 136.892 50.7218 136.517C50.8614 136.139 50.9961 135.741 51.126 135.324C51.2298 135.023 51.3337 134.695 51.4377 134.34C51.5545 133.981 51.6228 133.73 51.6423 133.588C51.7398 133.207 51.8194 132.946 51.881 132.807C51.9394 132.655 52.0285 132.544 52.1482 132.473C52.2129 132.457 52.2712 132.442 52.3229 132.43C52.3876 132.414 52.42 132.405 52.42 132.405C52.5008 132.399 52.6059 132.435 52.7351 132.513C52.8515 132.539 52.9226 132.576 52.9484 132.624C52.971 132.66 52.9903 132.71 53.0064 132.775C52.9868 132.917 52.951 133.132 52.8989 133.42C52.8565 133.691 52.8239 133.892 52.8011 134.021C52.6936 134.639 52.5845 135.25 52.4738 135.854C52.3728 136.443 52.3397 137.028 52.3745 137.61C52.3937 137.798 52.4403 138.013 52.5144 138.256C52.5982 138.482 52.6788 138.641 52.7563 138.731C52.8144 138.799 52.8822 138.879 52.9597 138.969C53.0469 139.044 53.1374 139.104 53.2311 139.149C53.3669 139.198 53.4072 139.277 53.3521 139.387C53.3099 139.494 53.2386 139.594 53.1383 139.687C53.0347 139.768 52.9635 139.813 52.9247 139.823ZM56.5912 138.314C56.5556 138.336 56.4893 138.346 56.3922 138.342C56.2952 138.339 56.1966 138.329 56.0964 138.313C55.9962 138.297 55.9299 138.279 55.8976 138.259C55.833 138.22 55.7619 138.156 55.6844 138.065C55.6198 137.971 55.5828 137.822 55.5734 137.619C55.5607 137.402 55.6242 137.104 55.7637 136.726C55.7962 136.581 55.8256 136.367 55.8518 136.086C55.8781 135.805 55.9011 135.511 55.9209 135.203C55.9504 134.88 55.975 134.592 55.9947 134.34C56.0274 134.085 56.0519 133.907 56.0682 133.807C56.0394 133.58 55.9878 133.428 55.9136 133.35C55.849 133.257 55.7245 133.226 55.5402 133.258C55.4108 133.29 55.304 133.303 55.22 133.296C55.1488 133.286 55.0843 133.165 55.0264 132.932C55.0072 132.745 55.022 132.61 55.0706 132.53C55.1289 132.433 55.2115 132.323 55.3184 132.2C55.4317 132.103 55.5498 132.026 55.6728 131.968C55.8087 131.906 55.9429 131.866 56.0755 131.847C56.2082 131.828 56.3229 131.847 56.4199 131.906C56.5233 131.935 56.6105 132.037 56.6814 132.211C56.7491 132.373 56.8055 132.545 56.8505 132.726C56.9085 132.904 56.9552 133.036 56.9907 133.124C57.0944 132.988 57.2336 132.802 57.4086 132.566C57.5932 132.314 57.7487 132.083 57.8751 131.873C58.0468 131.68 58.2572 131.476 58.5065 131.263C58.7526 131.037 58.9403 130.908 59.0697 130.876C59.212 130.84 59.364 130.844 59.5256 130.886C59.684 130.915 59.802 130.975 59.8795 131.066C60.0636 131.254 60.1701 131.433 60.199 131.605C60.2408 131.773 60.2131 131.965 60.1158 132.182C60.0282 132.382 59.8954 132.539 59.7174 132.652C59.5523 132.762 59.4439 132.823 59.3922 132.836C59.3145 132.855 59.203 132.821 59.0576 132.734C58.9122 132.646 58.8234 132.565 58.7911 132.491C58.7815 132.452 58.707 132.512 58.5678 132.67C58.4382 132.812 58.2973 132.991 58.1451 133.208C57.9896 133.411 57.8632 133.594 57.766 133.755C57.6136 134.082 57.4724 134.508 57.3424 135.035C57.2123 135.562 57.0612 136.198 56.8888 136.941C56.814 137.303 56.7732 137.609 56.7664 137.858C56.7564 138.094 56.698 138.246 56.5912 138.314ZM62.6832 136.428C62.6314 136.441 62.5635 136.444 62.4794 136.437C62.4051 136.415 62.3679 136.403 62.3679 136.403C62.3551 136.351 62.3196 136.292 62.2614 136.224C62.2163 136.152 62.1872 136.091 62.1744 136.039C62.0709 136.01 62.0063 135.971 61.9805 135.922C61.9515 135.861 61.9451 135.753 61.9615 135.597C62.007 135.449 62.059 135.216 62.1176 134.899C62.173 134.569 62.23 134.219 62.2887 133.847C62.3442 133.462 62.3948 133.085 62.4405 132.717C62.4863 132.348 62.5255 132.036 62.5582 131.781C62.5876 131.512 62.6024 131.351 62.6024 131.296C62.5896 131.244 62.5929 131.174 62.6124 131.087C62.6319 131 62.6611 130.924 62.7 130.859C62.781 130.743 62.8894 130.709 63.0251 130.758C63.1577 130.794 63.2837 130.886 63.4031 131.035C63.5323 131.168 63.621 131.331 63.6693 131.525C63.6918 131.616 63.685 131.865 63.6489 132.272C63.6096 132.666 63.5427 133.143 63.4482 133.703C63.3667 134.259 63.2609 134.828 63.1308 135.41C63.03 135.833 62.9666 136.103 62.9405 136.22C62.9113 136.323 62.8255 136.392 62.6832 136.428ZM63.7073 128.362C63.552 128.401 63.3693 128.385 63.1592 128.313C62.9588 128.226 62.7714 128.107 62.597 127.958C62.4323 127.793 62.3258 127.614 62.2775 127.42C62.2614 127.355 62.2777 127.255 62.3264 127.119C62.3751 126.983 62.4238 126.847 62.4725 126.712C62.5211 126.576 62.5423 126.495 62.5358 126.469C62.6393 126.443 62.7186 126.431 62.7736 126.431C62.8383 126.415 62.9223 126.421 63.0258 126.45C63.2485 126.738 63.4892 126.96 63.7477 127.116C64.0191 127.268 64.1725 127.415 64.2079 127.558C64.2787 127.842 64.2979 128.03 64.2654 128.121C64.2298 128.198 64.0437 128.279 63.7073 128.362ZM67.8892 135.855C67.2422 136.016 66.712 135.9 66.2986 135.508C66.1759 135.401 66.0984 135.283 66.0662 135.154C66.0438 135.008 66.0585 134.902 66.1103 134.834C66.1751 134.763 66.2769 134.786 66.4158 134.902C66.6227 134.961 66.8943 134.948 67.2308 134.864C67.399 134.823 67.5704 134.766 67.7452 134.695C67.9167 134.611 68.0849 134.515 68.25 134.405C68.4216 134.266 68.5317 134.156 68.5803 134.075C68.6257 133.982 68.5966 133.92 68.4932 133.891L68.5126 133.886C68.1537 133.879 67.7754 133.822 67.3778 133.715C66.9899 133.592 66.644 133.444 66.3403 133.272C66.0333 133.087 65.8363 132.903 65.7492 132.718C65.5459 132.343 65.4705 131.929 65.5228 131.476C65.5719 131.011 65.6986 130.581 65.9028 130.187C65.9902 130.096 66.1003 129.986 66.2331 129.857C66.3626 129.715 66.471 129.626 66.5584 129.591L66.5632 129.61C66.7447 129.29 66.9909 129.009 67.3016 128.767C67.6253 128.522 67.9716 128.284 68.3406 128.055L68.6221 127.944C68.7709 127.88 68.8971 127.835 69.0006 127.809C68.9876 127.812 69.0167 127.819 69.0879 127.828C69.1558 127.825 69.2172 127.824 69.2722 127.824C69.3595 127.843 69.429 127.847 69.4808 127.834C69.6554 127.818 69.83 127.857 70.0045 127.951C70.179 128.045 70.3276 128.173 70.4503 128.335C70.5827 128.48 70.6552 128.634 70.668 128.796C70.7032 129.048 70.6803 129.287 70.5991 129.513C70.5309 129.736 70.416 129.882 70.2542 129.95C70.2768 129.93 70.2526 129.916 70.1815 129.906C70.1201 129.88 70.0522 129.856 69.9778 129.833L69.9293 129.886C69.9293 129.886 69.9196 129.875 69.9002 129.852C69.8906 129.813 69.8664 129.771 69.8276 129.726C69.7695 129.658 69.7292 129.579 69.7066 129.488C69.6809 129.385 69.66 129.273 69.644 129.153C69.6345 129.005 69.6136 128.92 69.5813 128.901C69.5619 128.878 69.473 128.88 69.3145 128.905C69.1237 128.912 68.8665 129.01 68.5428 129.2C68.2322 129.388 67.9829 129.601 67.795 129.84C67.5554 130.092 67.3594 130.326 67.2072 130.542C67.0517 130.746 66.935 130.94 66.8572 131.124C66.7761 131.295 66.7144 131.489 66.6721 131.706C66.6299 131.812 66.5942 131.918 66.565 132.021C66.5455 132.108 66.5438 132.184 66.5599 132.249C66.5952 132.391 66.7358 132.514 66.9814 132.618C67.2368 132.706 67.6021 132.794 68.0773 132.881C68.4491 132.94 68.7724 133.025 69.0471 133.135C69.3219 133.245 69.5319 133.399 69.6771 133.597C69.7159 133.642 69.7384 133.705 69.7448 133.786C69.7609 133.851 69.7592 133.899 69.7398 133.931C69.7721 133.951 69.7899 133.967 69.7931 133.98L69.7882 133.961C69.9304 134.09 69.9706 134.252 69.9089 134.446C69.8601 134.636 69.7354 134.825 69.5347 135.013C69.3437 135.184 69.0944 135.342 68.787 135.487L68.8065 135.482C68.6511 135.576 68.4926 135.657 68.3308 135.724C68.1787 135.776 68.0315 135.819 67.8892 135.855ZM74.2857 134.409C74.1369 134.418 73.9704 134.384 73.7862 134.306C73.6117 134.212 73.4469 134.102 73.2918 133.976C73.1465 133.833 73.0383 133.702 72.9673 133.582C72.9609 133.556 72.9334 133.529 72.885 133.5C72.8494 133.467 72.8317 133.451 72.8317 133.451C72.7703 133.425 72.6961 133.265 72.6091 132.971C72.5319 132.66 72.4661 132.312 72.4116 131.927C72.3571 131.543 72.3284 131.234 72.3255 131.001C72.3387 130.778 72.3666 130.475 72.4091 130.094C72.4484 129.699 72.4779 129.349 72.4977 129.041L72.7419 127.785L71.9124 127.765C71.8154 127.762 71.7249 127.729 71.6409 127.668C71.5699 127.603 71.5279 127.544 71.515 127.493C71.4893 127.389 71.5169 127.252 71.598 127.081C71.6759 126.896 71.7407 126.798 71.7924 126.785C71.8603 126.782 71.9784 126.759 72.1466 126.717C72.3278 126.672 72.5008 126.622 72.6658 126.568C72.8308 126.513 72.9311 126.474 72.9667 126.452C73.012 126.413 73.0558 126.368 73.0979 126.316C73.1367 126.251 73.1579 126.171 73.1612 126.074C73.1905 125.915 73.2166 125.771 73.2394 125.642C73.259 125.5 73.2947 125.34 73.3467 125.162C73.3955 124.971 73.4312 124.811 73.454 124.682C73.4898 124.549 73.5466 124.363 73.6245 124.124C73.6667 124.018 73.7105 123.89 73.756 123.741C73.8015 123.592 73.8712 123.458 73.9651 123.339C74.0558 123.206 74.161 123.132 74.2807 123.116C74.4101 123.084 74.5927 123.128 74.8286 123.248C74.9643 123.351 75.0467 123.434 75.0757 123.495C75.1047 123.557 75.0835 123.693 75.0121 123.903C74.9633 124.149 74.8951 124.399 74.8074 124.654C74.7327 124.907 74.6645 125.157 74.6027 125.406C74.4665 125.742 74.4679 125.914 74.6069 125.92C74.746 125.927 75.1018 125.811 75.6745 125.572C76.0337 125.414 76.3102 125.366 76.5042 125.428C76.6949 125.477 76.8306 125.608 76.9112 125.821C77.0272 126.122 77.0415 126.318 76.9541 126.408C76.8666 126.499 76.5771 126.605 76.0854 126.727C75.7877 126.856 75.5305 126.955 75.3137 127.022C75.0938 127.077 74.932 127.117 74.8285 127.143C74.6635 127.198 74.5551 127.231 74.5034 127.244C74.4516 127.257 74.3772 127.289 74.2801 127.341C74.183 127.393 74.1167 127.457 74.081 127.535C74.055 127.596 74.0291 127.685 74.003 127.802C73.9642 127.866 73.9203 128.021 73.8715 128.267C73.8227 128.513 73.7528 128.784 73.6619 129.082C73.6158 129.67 73.5957 130.252 73.6014 130.828C73.6039 131.391 73.6291 131.934 73.677 132.458C73.7056 132.794 73.7684 133.019 73.8653 133.132C73.9589 133.233 74.1448 133.262 74.423 133.22C74.5685 133.198 74.795 133.142 75.1023 133.051C75.4194 132.945 75.662 132.844 75.8303 132.747C75.9565 132.647 76.0893 132.545 76.2284 132.442C76.3644 132.325 76.4874 132.212 76.5975 132.103C76.6979 132.009 76.7983 131.915 76.8986 131.822C76.9958 131.715 77.0444 131.662 77.0444 131.662C77.0833 131.542 77.1464 131.492 77.2337 131.512C77.321 131.531 77.4098 131.612 77.5002 131.754C77.5388 131.91 77.5467 132.08 77.5238 132.264C77.5009 132.448 77.3114 132.708 76.9553 133.044C76.4631 133.551 75.9808 133.905 75.5084 134.105C75.0458 134.288 74.6382 134.39 74.2857 134.409ZM79.3654 132.63C79.2362 132.552 79.1263 132.442 79.036 132.3C78.9586 132.154 78.907 132.002 78.8813 131.844C78.8557 131.685 78.8558 131.548 78.8819 131.432C78.8561 131.328 78.8498 131.247 78.8628 131.189C78.8855 131.115 78.884 131.053 78.8582 131.005C78.8324 130.956 78.8228 130.862 78.8294 130.723C78.8361 130.584 78.8443 130.452 78.8542 130.326C78.8933 130.096 78.9292 129.826 78.9619 129.516C78.9914 129.192 79.0161 128.877 79.0359 128.57C79.0557 128.263 79.0722 127.997 79.0854 127.774C79.0986 127.551 79.1053 127.412 79.1054 127.357C79.0667 127.202 79.1493 127.092 79.3532 127.028C79.4956 126.937 79.612 126.908 79.7025 126.941C79.7898 126.96 79.9239 127.058 80.1048 127.232C80.234 127.31 80.3114 127.456 80.337 127.669C80.3626 127.883 80.3429 128.162 80.2778 128.508C80.2517 128.625 80.224 128.79 80.1947 129.003C80.1782 129.213 80.1764 129.399 80.1891 129.561C80.1631 129.677 80.1354 129.842 80.106 130.055C80.0864 130.253 80.0716 130.442 80.0616 130.623C80.0518 130.694 80.0501 130.798 80.0564 130.933C80.0595 131.056 80.0593 131.194 80.0559 131.346C80.0492 131.485 80.0264 131.614 79.9874 131.734C80.0029 132.293 79.9701 132.631 79.8891 132.747C79.8211 132.86 79.6465 132.821 79.3654 132.63ZM79.2888 124.282C79.208 124.233 79.1272 124.157 79.0465 124.054C78.9626 123.937 78.9013 123.829 78.8626 123.729C78.8207 123.615 78.8192 123.554 78.858 123.544C78.9583 123.506 79.0539 123.365 79.1447 123.123C79.2356 122.88 79.2488 122.685 79.1843 122.536C79.1714 122.484 79.1795 122.434 79.2087 122.385C79.2347 122.324 79.2719 122.28 79.3204 122.255C79.45 122.112 79.5956 122.062 79.7572 122.105C79.9286 122.131 80.1047 122.231 80.2855 122.406C80.4631 122.623 80.547 122.822 80.537 123.003C80.5239 123.171 80.4362 123.427 80.2741 123.769C80.1444 124.076 79.9986 124.264 79.8368 124.331C79.688 124.396 79.5053 124.379 79.2888 124.282ZM84.8535 131.451C84.5689 131.522 84.3521 131.562 84.2034 131.572C84.0546 131.581 83.935 131.57 83.8445 131.537C83.754 131.505 83.6457 131.456 83.5197 131.391C83.4422 131.301 83.3501 131.207 83.2435 131.11C83.1369 131.012 83.0513 130.944 82.9867 130.905C82.8867 130.724 82.7981 130.478 82.7209 130.168C82.6566 129.854 82.6117 129.508 82.5864 129.13C82.5739 128.748 82.5938 128.386 82.646 128.043C82.672 127.927 82.6915 127.812 82.7046 127.699C82.7177 127.586 82.7242 127.529 82.7242 127.529C82.7081 127.464 82.7472 127.29 82.8413 127.005C82.9484 126.718 83.0652 126.414 83.1917 126.094C83.3312 125.771 83.4511 125.535 83.5516 125.386C83.6164 125.26 83.7249 125.116 83.8771 124.955C84.0423 124.79 84.1896 124.664 84.319 124.577C84.4485 124.49 84.5796 124.409 84.7122 124.335C84.8579 124.258 85.0277 124.195 85.2218 124.146C85.403 124.101 85.5808 124.098 85.7554 124.137C85.93 124.176 86.1126 124.275 86.3032 124.434C86.594 124.609 86.7813 124.81 86.8651 125.036C86.9586 125.247 87.0084 125.475 87.0146 125.72C87.0142 125.995 86.98 126.217 86.9119 126.385C86.8405 126.54 86.7385 126.627 86.6059 126.646C86.4733 126.666 86.3004 126.606 86.0871 126.466C86.0096 126.376 85.9628 126.298 85.9468 126.233C85.9274 126.156 85.926 126.039 85.9423 125.884C85.9491 125.69 85.9024 125.502 85.8024 125.321C85.7024 125.14 85.5941 125.064 85.4777 125.093C85.3095 125.134 85.1412 125.259 84.9727 125.466C84.814 125.656 84.6585 125.887 84.5062 126.159C84.4413 126.285 84.3522 126.479 84.2387 126.74C84.1349 126.986 84.0375 127.257 83.9466 127.555C83.8524 127.839 83.7826 128.111 83.7369 128.37C83.7008 128.832 83.6696 129.204 83.6434 129.485C83.6301 129.763 83.6234 129.902 83.6234 129.902C83.6363 129.954 83.6621 130.003 83.7009 130.048C83.7493 130.077 83.78 130.117 83.7929 130.169C83.8315 130.324 83.9526 130.425 84.1563 130.47C84.3211 130.526 84.5022 130.536 84.6995 130.5C84.8936 130.452 85.1169 130.328 85.3694 130.128C85.5507 129.973 85.711 129.788 85.8503 129.575C86.0026 129.359 86.1661 129.16 86.341 128.979C86.4608 128.853 86.5515 128.748 86.613 128.664C86.6875 128.577 86.7312 128.559 86.7441 128.611C86.757 128.663 86.7828 128.684 86.8216 128.674C86.8604 128.665 86.8993 128.627 86.9382 128.563C86.9901 128.44 87.0581 128.354 87.1422 128.306C87.2232 128.245 87.2976 128.212 87.3655 128.209C87.4431 128.19 87.4868 128.2 87.4964 128.239C87.4995 128.361 87.5495 128.452 87.6464 128.51C87.6593 128.562 87.6576 128.638 87.6413 128.738C87.6347 128.822 87.612 128.897 87.5731 128.961C87.5309 129.068 87.4596 129.196 87.3592 129.344C87.2717 129.49 87.1874 129.621 87.1065 129.737C87.0222 129.84 86.9801 129.892 86.9801 129.892C86.9252 129.892 86.8766 129.918 86.8345 129.969C86.8053 130.018 86.7713 130.074 86.7324 130.139C86.6514 130.255 86.5721 130.351 86.4944 130.425C86.4135 130.486 86.3471 130.523 86.2954 130.536C86.2177 130.61 86.1545 130.661 86.106 130.686C86.0704 130.709 86.059 130.746 86.0719 130.798C85.9747 130.959 85.8355 131.09 85.6542 131.19C85.4827 131.274 85.2158 131.361 84.8535 131.451ZM96.8761 129.843C96.7726 129.868 96.6352 129.813 96.464 129.677C96.2928 129.541 96.1944 129.394 96.1687 129.235C96.1301 129.025 96.1144 128.713 96.1214 128.299C96.1284 127.885 96.1467 127.462 96.1764 127.028C96.206 126.595 96.2436 126.249 96.2892 125.99C96.2895 125.77 96.2898 125.578 96.29 125.413C96.2999 125.232 96.3049 125.114 96.305 125.059C96.3309 124.998 96.3554 124.847 96.3783 124.608C96.4142 124.366 96.4323 124.134 96.4326 123.914C96.4327 123.805 96.4362 123.598 96.4431 123.294C96.4596 122.973 96.4779 122.605 96.4978 122.188C96.5307 121.767 96.5587 121.355 96.5819 120.951C96.618 120.543 96.6459 120.186 96.6657 119.879C96.6855 119.572 96.6971 119.37 96.7004 119.273C96.7653 119.092 96.806 118.924 96.8223 118.768C96.8387 118.613 96.8469 118.508 96.847 118.453C96.9118 118.382 96.941 118.306 96.9346 118.225C96.925 118.131 96.9138 118.059 96.9009 118.007C96.8848 117.942 96.8914 117.886 96.9205 117.837C96.9627 117.785 96.9773 117.734 96.9644 117.682C97.0065 117.63 97.0244 117.564 97.018 117.483C97.0084 117.389 97.0279 117.302 97.0766 117.221L97.0916 116.867L98.2319 116.563C98.2446 116.725 98.254 116.929 98.2602 117.174C98.2631 117.407 98.2142 117.735 98.1134 118.159C98.1131 118.434 98.0933 118.686 98.0542 118.915C98.0281 119.142 98.0295 119.286 98.0585 119.347C98.0391 119.379 98.013 119.523 97.9804 119.779C97.9606 120.031 97.9344 120.34 97.9016 120.705C97.8817 121.067 97.8554 121.431 97.8226 121.796C97.8027 122.159 97.7797 122.48 97.7534 122.762C97.7369 123.027 97.7238 123.195 97.714 123.266C97.6619 123.499 97.6211 123.832 97.5914 124.265C97.5618 124.698 97.5028 125.29 97.4145 126.04C97.3625 126.273 97.3103 126.616 97.258 127.068C97.2186 127.518 97.1955 127.922 97.1886 128.281C97.1717 128.821 97.155 129.196 97.1386 129.406C97.1383 129.626 97.1204 129.748 97.0848 129.77C97.0524 129.806 96.9828 129.83 96.8761 129.843ZM94.1551 118.236C93.796 118.339 93.5195 118.387 93.3255 118.381C93.1444 118.371 93.054 118.256 93.0543 118.036C93.0545 117.871 93.1096 117.734 93.2197 117.624C93.3298 117.514 93.503 117.409 93.7391 117.309C93.875 117.248 94.0482 117.171 94.2585 117.077C94.4817 116.98 94.692 116.887 94.8894 116.797C95.3036 116.639 95.6417 116.506 95.9037 116.4C96.1787 116.29 96.4618 116.186 96.753 116.086C97.0442 115.986 97.413 115.867 97.8594 115.728C98.2282 115.609 98.5404 115.511 98.796 115.434C99.0613 115.34 99.1939 115.293 99.1939 115.293C99.2327 115.284 99.3718 115.263 99.6112 115.231C99.8505 115.199 100.111 115.168 100.392 115.14C100.674 115.111 100.885 115.106 101.028 115.126C101.341 115.117 101.577 115.154 101.736 115.238C101.907 115.32 102.046 115.464 102.152 115.671C102.23 115.816 102.254 115.913 102.225 115.962C102.192 115.997 102.131 116.054 102.04 116.131C101.765 116.296 101.556 116.396 101.414 116.431C101.272 116.467 101.102 116.475 100.905 116.455C100.824 116.406 100.732 116.367 100.628 116.338C100.538 116.306 100.386 116.302 100.172 116.328C99.9687 116.337 99.6501 116.382 99.2167 116.462C98.864 116.591 98.5519 116.69 98.2801 116.757C98.0084 116.825 97.8806 116.891 97.8967 116.956L96.766 117.299L95.8391 117.632C95.7129 117.677 95.5366 117.742 95.3101 117.825C95.0804 117.896 94.8588 117.972 94.6453 118.053C94.4285 118.12 94.2651 118.181 94.1551 118.236ZM104.043 127.216C103.473 127.357 102.955 127.26 102.486 126.923C102.014 126.573 101.705 126.073 101.557 125.423C101.467 124.95 101.433 124.43 101.457 123.861C101.49 123.275 101.581 122.703 101.731 122.144C101.877 121.572 102.065 121.058 102.295 120.602C102.525 120.146 102.796 119.797 103.107 119.555C103.22 119.458 103.343 119.373 103.476 119.299C103.621 119.221 103.772 119.163 103.927 119.125C104.069 119.089 104.225 119.078 104.393 119.091C104.558 119.091 104.698 119.105 104.815 119.131C105.057 119.166 105.253 119.235 105.401 119.335C105.55 119.435 105.703 119.61 105.861 119.859C105.961 120.096 106.024 120.266 106.05 120.369C106.076 120.473 106.082 120.636 106.069 120.859C106.029 121.363 105.929 121.814 105.766 122.212C105.604 122.61 105.345 122.976 104.989 123.312C104.901 123.403 104.791 123.485 104.659 123.559C104.536 123.617 104.403 123.664 104.261 123.699C104.002 123.764 103.738 123.781 103.47 123.752C103.211 123.706 102.987 123.604 102.796 123.445L102.622 123.324L102.602 123.493C102.559 123.875 102.536 124.224 102.533 124.541C102.542 124.855 102.577 125.134 102.638 125.38C102.677 125.536 102.727 125.681 102.788 125.817C102.862 125.95 102.945 126.06 103.035 126.147C103.106 126.212 103.205 126.249 103.331 126.259C103.467 126.253 103.606 126.232 103.748 126.197C103.839 126.174 103.929 126.152 104.02 126.129C104.12 126.09 104.211 126.04 104.292 125.979C104.492 125.847 104.646 125.719 104.753 125.596C104.873 125.471 104.991 125.338 105.108 125.199L105.176 125.141L105.156 125.146C105.292 125.03 105.409 124.918 105.506 124.812C105.616 124.702 105.671 124.647 105.671 124.647C105.723 124.634 105.767 124.589 105.802 124.511C105.893 124.434 106.027 124.421 106.205 124.473C106.396 124.522 106.509 124.617 106.544 124.76C106.547 124.827 106.515 124.945 106.447 125.114C106.375 125.269 106.289 125.421 106.189 125.569C106.101 125.715 106.02 125.803 105.946 125.836C105.936 125.852 105.897 125.889 105.829 125.947C105.758 125.992 105.713 126.031 105.693 126.063L105.713 126.059C105.635 126.243 105.538 126.349 105.421 126.378L105.266 126.417C105.237 126.52 105.094 126.666 104.839 126.853C104.58 127.027 104.314 127.148 104.043 127.216ZM103.854 122.729C104.087 122.671 104.272 122.556 104.408 122.385C104.554 122.197 104.67 122.004 104.758 121.803C104.93 121.39 104.995 121.016 104.953 120.683C104.921 120.334 104.825 120.11 104.663 120.013C104.576 119.994 104.5 119.992 104.435 120.008C104.38 120.008 104.275 120.055 104.12 120.148C104.01 120.203 103.872 120.34 103.707 120.56C103.542 120.78 103.381 121.019 103.226 121.277C103.083 121.533 102.978 121.744 102.91 121.912L102.759 122.383C102.853 122.318 102.945 122.275 103.035 122.252C103.136 122.213 103.195 122.205 103.215 122.228C103.244 122.345 103.291 122.45 103.355 122.544C103.429 122.621 103.505 122.678 103.583 122.714C103.673 122.746 103.764 122.751 103.854 122.729ZM111.146 124.852C110.997 124.971 110.811 125.052 110.588 125.094C110.365 125.135 110.05 125.138 109.642 125.102C109.616 125.109 109.552 125.097 109.448 125.068C109.358 125.035 109.257 124.992 109.148 124.937C109.047 124.865 108.959 124.784 108.881 124.694C108.6 124.448 108.407 124.029 108.301 123.437C108.195 122.845 108.202 122.101 108.323 121.205C108.365 120.989 108.44 120.709 108.547 120.366C108.667 120.021 108.787 119.702 108.907 119.411C109.037 119.104 109.136 118.922 109.204 118.864C109.204 118.864 109.269 118.82 109.398 118.733C109.527 118.646 109.688 118.517 109.879 118.345C109.937 118.303 110.002 118.26 110.073 118.215C110.157 118.166 110.243 118.124 110.33 118.089C110.418 118.053 110.495 118.034 110.563 118.031C110.825 117.98 111.114 118.011 111.431 118.124C111.758 118.222 112.041 118.364 112.28 118.552C112.515 118.727 112.622 118.907 112.599 119.091C112.605 119.117 112.58 119.178 112.521 119.275C112.473 119.356 112.413 119.447 112.341 119.547C112.28 119.631 112.231 119.711 112.196 119.789C112.15 119.883 112.068 119.938 111.948 119.954C111.841 119.966 111.731 119.939 111.618 119.871C111.515 119.787 111.437 119.668 111.386 119.516C111.334 119.419 111.213 119.346 111.022 119.298C110.844 119.246 110.756 119.22 110.756 119.22C110.652 119.245 110.527 119.379 110.382 119.622C110.245 119.848 110.119 120.113 110.002 120.417C109.827 120.708 109.696 121.036 109.608 121.401C109.517 121.753 109.455 122.085 109.422 122.395C109.399 122.689 109.383 122.9 109.373 123.026C109.354 123.168 109.392 123.351 109.489 123.574C109.586 123.797 109.666 123.928 109.731 123.967C109.789 123.98 109.92 123.954 110.124 123.89C110.341 123.822 110.593 123.732 110.881 123.619C111.166 123.494 111.442 123.363 111.711 123.228C111.98 123.092 112.195 122.963 112.357 122.84C112.564 122.624 112.755 122.48 112.93 122.409C113.104 122.338 113.24 122.305 113.337 122.308C113.492 122.324 113.594 122.375 113.642 122.459C113.691 122.543 113.684 122.654 113.623 122.793C113.558 122.919 113.43 123.068 113.239 123.239C113.058 123.394 112.899 123.557 112.763 123.729C112.637 123.884 112.581 123.993 112.598 124.058C112.546 124.071 112.492 124.105 112.437 124.16C112.392 124.199 112.348 124.216 112.306 124.213C112.28 124.219 112.182 124.265 112.01 124.348C111.839 124.432 111.662 124.524 111.481 124.624C111.313 124.721 111.201 124.797 111.146 124.852ZM116.155 123.029C116.068 123.065 115.971 123.089 115.864 123.102C115.767 123.098 115.665 123.076 115.559 123.033C115.429 122.956 115.339 122.896 115.287 122.854C115.232 122.798 115.195 122.705 115.176 122.572C115.17 122.436 115.165 122.224 115.162 121.937C115.176 121.713 115.182 121.41 115.183 121.025C115.18 120.627 115.186 120.234 115.199 119.846C115.186 119.629 115.185 119.403 115.195 119.167C115.218 118.928 115.246 118.708 115.278 118.507C115.308 118.294 115.329 118.131 115.342 118.017C115.355 117.629 115.374 117.288 115.397 116.994C115.433 116.697 115.478 116.355 115.534 115.971C115.586 115.573 115.642 115.051 115.701 114.404C115.792 113.557 115.859 112.915 115.902 112.479C115.954 112.026 115.99 111.701 116.01 111.504C116.039 111.29 116.054 111.129 116.054 111.019C116.029 110.915 116.035 110.831 116.074 110.767C116.126 110.699 116.197 110.654 116.288 110.631C116.469 110.586 116.634 110.641 116.782 110.797C116.94 110.936 117.063 111.125 117.15 111.365C117.234 111.591 117.25 111.821 117.198 112.053C117.107 112.571 117.025 113.182 116.953 113.887C116.878 114.579 116.807 115.262 116.742 115.938C116.673 116.601 116.595 117.17 116.507 117.645C116.519 117.697 116.523 117.793 116.516 117.932C116.509 118.071 116.493 118.198 116.467 118.315C116.441 118.431 116.413 118.541 116.384 118.645C116.368 118.745 116.36 118.795 116.36 118.795C116.372 118.847 116.377 118.948 116.374 119.1C116.37 119.252 116.362 119.44 116.349 119.663C116.336 119.831 116.321 120.048 116.304 120.313C116.301 120.575 116.307 120.793 116.323 120.968C116.359 120.835 116.451 120.627 116.6 120.343C116.749 120.058 116.894 119.809 117.033 119.596C117.195 119.363 117.378 119.105 117.582 118.821C117.786 118.536 117.953 118.323 118.082 118.181C118.212 118.039 118.325 117.915 118.422 117.808C118.529 117.685 118.583 117.624 118.583 117.624C118.57 117.572 118.583 117.541 118.622 117.532C118.67 117.506 118.72 117.487 118.772 117.474C118.824 117.461 118.848 117.448 118.845 117.435C118.855 117.419 118.853 117.385 118.84 117.333C118.824 117.268 118.881 117.192 119.01 117.105C119.153 117.015 119.318 116.933 119.505 116.859C119.703 116.768 119.866 116.707 119.996 116.675C120.151 116.636 120.282 116.638 120.388 116.68C120.495 116.722 120.647 116.836 120.844 117.02C121.051 117.189 121.21 117.417 121.323 117.705C121.446 117.977 121.494 118.281 121.468 118.617C121.493 118.721 121.511 118.874 121.52 119.078C121.54 119.266 121.575 119.463 121.626 119.67L121.664 120.32L121.975 120.243C122.078 120.217 122.18 120.212 122.281 120.229C122.378 120.232 122.426 120.234 122.426 120.234C122.491 120.272 122.555 120.311 122.62 120.35C122.681 120.376 122.738 120.383 122.79 120.37C122.945 120.331 123.019 120.381 123.013 120.521C123.003 120.647 122.933 120.781 122.804 120.923C122.544 121.207 122.286 121.381 122.027 121.446C121.781 121.507 121.529 121.46 121.27 121.304C121.008 121.136 120.818 120.922 120.699 120.663C120.579 120.404 120.52 120.055 120.52 119.615C120.431 119.033 120.354 118.612 120.289 118.354C120.235 118.079 120.136 117.959 119.994 117.994C119.864 118.026 119.661 118.173 119.382 118.435C119.1 118.684 118.796 119.007 118.469 119.404C118.142 119.801 117.829 120.229 117.531 120.688C117.233 121.147 117.003 121.603 116.841 122.055C116.734 122.288 116.628 122.5 116.524 122.69C116.417 122.868 116.294 122.981 116.155 123.029Z" fill="black"/>
<path d="M108.199 69.9273C121.961 74.3747 136.739 75.3223 149.917 67.8948C161.813 61.1906 167.01 49.1827 154.828 39.5694C149.061 35.0186 139.182 33.4775 133.296 38.6507C126.739 44.414 135.435 51.8551 141.09 53.1153C154.299 56.059 169.5 48.6853 173.873 34.5174C179.052 17.7393 161.175 15.1445 161.198 15.2623" stroke="black" stroke-width="1.37712" stroke-miterlimit="1.5" stroke-linecap="round" stroke-linejoin="round"/>
<path d="M115.157 84.4575C115.138 82.858 114.461 81.4421 113.857 79.9945C111.874 75.2411 108.22 70.7554 103.406 68.6267C109.081 69.1852 116.636 67.9977 120.229 63.2029" stroke="black" stroke-width="1.37712" stroke-miterlimit="1.5" stroke-linecap="round" stroke-linejoin="round"/>
<path d="M86.3977 37.0272C86.226 36.123 85.8286 35.2657 85.2353 34.5201C84.642 33.7745 83.8684 33.1599 82.9729 32.7229C81.3664 31.8628 79.4672 31.5588 77.6301 31.8676C75.8589 32.1132 74.2463 32.928 73.0905 34.1614C72.5093 34.754 72.0709 35.4487 71.8029 36.2016C71.535 36.9546 71.4433 37.7494 71.5338 38.5358C71.6137 39.3233 71.8672 40.0884 72.2794 40.7865C72.6916 41.4847 73.2542 42.1018 73.9343 42.6018C75.2815 43.6065 76.9585 44.1838 78.7064 44.2447C80.4542 44.3055 82.1756 43.8464 83.6049 42.9383C84.1926 42.4712 84.7469 41.971 85.2644 41.4409C85.7769 40.8134 86.1417 40.0983 86.3366 39.3393C86.5315 38.5804 86.5523 37.7936 86.3977 37.0272ZM82.8296 42.8373C81.566 43.5085 80.114 43.8366 78.6482 43.7823C76.9101 43.7374 75.2534 43.1093 74.0028 42.0213C73.3756 41.5009 72.8777 40.8668 72.5419 40.1607C72.2061 39.4546 72.04 38.6926 72.0544 37.9246C72.0688 37.1566 72.2634 36.4 72.6255 35.7045C72.9876 35.0091 73.509 34.3905 74.1554 33.8894C75.4714 32.8633 77.1467 32.2874 78.8872 32.2628C80.6277 32.2382 82.3222 32.7664 83.6734 33.7548C87.0204 36.2729 86.6499 40.7567 82.8296 42.8373Z" fill="#020101"/>
<path d="M98.9139 13.0676C98.8682 13.0242 98.8077 13 98.7448 13C98.6819 13 98.6214 13.0242 98.5758 13.0676C98.4251 13.1941 98.2868 13.336 98.1454 13.4749C97.3769 14.2432 96.6083 15.0177 95.8367 15.786C95.7616 15.8836 95.659 15.9563 95.5423 15.9948C95.4256 16.0333 95.3001 16.0358 95.182 16.002C95.0867 15.9742 94.9852 15.9773 94.8745 15.9588C92.9283 15.6211 90.9593 15.4323 88.9846 15.3941C86.6399 15.3108 84.2923 15.3665 81.9542 15.5608C80.6016 15.6657 79.249 15.7922 77.9087 16.0205C75.4555 16.4537 73.0323 17.0432 70.6538 17.7855C68.2842 18.4872 66.0334 19.543 63.9769 20.9174C60.7431 23.0837 57.9096 25.7984 55.6031 28.9399C53.6899 31.5557 51.9296 34.2808 50.3311 37.1014C50.0483 37.5951 49.7644 38.0877 49.4795 38.5794C49.2705 38.9373 49.2644 38.9373 48.9047 38.8201C48.6926 38.7522 48.4866 38.672 48.2899 38.5979C47.4754 38.312 46.6368 38.1003 45.7845 37.9653C44.4413 37.765 43.0846 37.6691 41.7267 37.6784C39.7736 37.6438 37.8268 37.9092 35.9536 38.4652C32.3415 39.5606 29.9407 41.8594 29.0492 45.6084C28.4951 47.8445 28.1219 50.1219 27.9333 52.4183C27.791 53.9228 27.7315 55.4339 27.755 56.9449C27.7881 57.8391 27.9971 58.7178 28.3698 59.5307C28.6673 60.1594 29.1322 60.6934 29.7132 61.0735C30.6354 61.7183 32.2616 61.922 33.3191 60.6322C33.3806 60.5582 33.4543 60.4934 33.522 60.4224C33.4052 59.8053 33.691 59.2591 33.9155 58.7346C34.8163 56.5232 36.179 54.5314 37.9118 52.8935C38.9561 51.9417 40.2262 51.2745 41.6007 50.9557C42.5075 50.7367 42.7412 51.002 42.4676 51.8999C41.9948 53.289 41.8889 54.7774 42.1601 56.2198C42.2363 56.6492 42.423 57.0511 42.7018 57.3857C42.9806 57.7202 43.3418 57.9757 43.7495 58.1267C44.3305 58.3674 44.3643 58.5803 43.8755 58.9968C42.237 60.3514 40.7061 61.8263 39.083 63.1964C37.8933 64.2023 36.7836 65.2946 35.6031 66.3097C35.2082 66.6537 34.913 67.0982 34.7485 67.5964C34.6493 67.9034 34.6415 68.2328 34.7261 68.5441C34.8108 68.8555 34.9842 69.1352 35.225 69.3491C35.7353 69.7625 36.2487 69.6268 36.7405 69.3336C37.8718 68.661 38.8278 67.7569 39.873 66.967C42.0556 65.3069 44.2382 63.6499 46.1841 61.7029C46.2521 61.6138 46.3395 61.5415 46.4397 61.4918C46.54 61.442 46.6502 61.4161 46.7621 61.416L46.7989 61.4314C46.8604 61.3944 46.9311 61.4622 46.9281 61.527C46.959 61.5646 46.9848 61.6061 47.0049 61.6505C47.3123 63.0606 48.0593 63.6746 49.6671 63.6438C50.869 63.6222 52.0771 63.5358 53.2791 63.4555C54.0569 63.4062 54.2874 63.6376 54.0753 64.4059C53.4082 66.8189 52.0403 68.6239 49.581 69.4015C48.5911 69.7101 47.5982 70.0186 46.5868 70.2408C44.9388 70.5578 43.354 71.1447 41.8958 71.978C41.8559 71.9752 41.8166 71.9669 41.779 71.9533C41.6765 71.9971 41.584 72.0613 41.5069 72.1418C41.4298 72.2224 41.3697 72.3178 41.3301 72.4223C41.3044 72.4776 41.2819 72.5342 41.2625 72.592C41.2177 72.7027 41.1577 72.8066 41.0842 72.9006C40.9551 73.0549 41.0842 73.2647 40.9674 73.4251C40.8721 74.5267 41.3701 75.329 42.2462 75.9306L42.4307 76.0602C44.1832 77.2869 46.2611 77.9596 48.3975 77.9918C49.3104 78.0197 50.2241 77.9763 51.1303 77.8622C52.9957 77.6626 54.8343 77.2622 56.6145 76.6681C58.4154 76.0671 60.1635 75.3168 61.8404 74.4249C63.6161 73.4802 65.1307 72.1083 66.2487 70.4321C66.8231 69.589 67.2397 68.648 67.4783 67.6551C67.7548 66.4472 67.9022 65.2132 67.9179 63.9739C67.9333 62.8816 68.0163 61.7955 68.0839 60.7063C68.082 60.5346 68.1338 60.3666 68.2319 60.2261C68.3301 60.0855 68.4697 59.9793 68.6311 59.9225C69.3504 59.5954 70.0452 59.2159 70.7399 58.8456C73.9506 57.1542 76.959 55.1014 79.707 52.7269C82.1048 50.6225 84.3919 48.407 86.6176 46.1083C89.0762 43.5932 91.1912 40.7616 92.9071 37.6876C94.1498 35.5472 95.0873 33.2425 95.6923 30.8407C95.9074 29.915 96.1165 29.0078 96.2886 28.0852C96.6682 26.2387 96.8312 24.354 96.7743 22.4694C96.7282 21.5036 96.6483 20.5409 96.5837 19.5782C96.5378 18.9102 96.396 18.2523 96.1626 17.625C96.0704 17.3689 96.0273 17.0974 95.9505 16.8382C95.9175 16.72 95.9203 16.5947 95.9587 16.4782C95.997 16.3617 96.0691 16.2593 96.1657 16.1841C96.9619 15.4065 97.7457 14.6166 98.5327 13.8267C98.671 13.6878 98.8094 13.5459 98.9354 13.3947C98.9576 13.3729 98.9748 13.3465 98.9858 13.3175C98.9969 13.2884 99.0016 13.2572 98.9995 13.2262C98.9975 13.1951 98.9888 13.1648 98.974 13.1375C98.9592 13.1101 98.9387 13.0863 98.9139 13.0676ZM42.5321 50.604C40.3803 50.5855 38.711 51.6161 37.2447 53.0725C35.8606 54.4863 34.7302 56.1293 33.9032 57.9292C33.6722 58.3956 33.4869 58.8833 33.3498 59.3856C33.2586 59.8212 33.0453 60.2216 32.735 60.5396C31.9142 61.3357 30.6631 61.129 29.9991 60.6415C29.4864 60.2891 29.081 59.801 28.8278 59.2313C28.5549 58.5937 28.3897 57.9148 28.3391 57.2226C28.2831 55.7628 28.3273 54.3009 28.4712 52.8472C28.5512 51.8074 28.6372 50.7737 28.8002 49.7462C29.0307 48.3268 29.2859 46.9136 29.6425 45.5251C30.4694 42.3161 32.5229 40.2302 35.6093 39.1595C37.3632 38.5529 39.2046 38.2401 41.0596 38.2338H42.984C44.8868 38.2599 46.7734 38.5901 48.5727 39.2119C48.708 39.2582 48.8401 39.323 48.957 39.3724C48.9631 39.4644 48.951 39.5568 48.9215 39.6442C48.8919 39.7316 48.8455 39.8122 48.7848 39.8815C48.0778 41.0726 47.3861 42.2729 46.6514 43.4454C45.2618 45.5906 44.028 47.8335 42.9594 50.1566C42.9194 50.2461 42.8826 50.3386 42.8334 50.425C42.8073 50.4821 42.7644 50.5298 42.7106 50.5618C42.6568 50.5937 42.5945 50.6085 42.5321 50.604ZM43.9985 57.4108C43.6542 57.7533 43.5589 57.7441 43.19 57.4479C42.9809 57.2782 42.9563 57.201 43.1377 56.9573C43.5066 56.4605 43.8816 55.9668 44.2782 55.4947C44.7239 54.967 45.2004 54.461 45.6615 53.9519C45.7445 53.8593 45.8491 53.776 45.846 53.6433C45.8432 53.5718 45.8185 53.5028 45.7753 53.4458C45.7533 53.4159 45.7221 53.3941 45.6864 53.3841C45.6508 53.374 45.6128 53.3762 45.5785 53.3903C45.3957 53.4677 45.2381 53.5949 45.1236 53.7575C44.3415 54.5835 43.6125 55.4584 42.941 56.3772C42.8703 56.4728 42.8303 56.6055 42.6551 56.6117C42.5352 56.4309 42.465 56.2216 42.4515 56.0049C42.438 55.7882 42.4817 55.5718 42.5782 55.3774C42.7457 54.992 42.9638 54.6309 43.2269 54.3036C43.7721 53.6626 44.3854 53.0832 45.0559 52.5757C45.1924 52.4712 45.3227 52.3589 45.4463 52.2394C45.4807 52.2032 45.4999 52.1551 45.4999 52.1051C45.4999 52.0551 45.4807 52.0071 45.4463 51.9709C45.4207 51.9284 45.3819 51.8954 45.3358 51.877C45.2897 51.8586 45.239 51.8558 45.1912 51.8691C45.0811 51.9197 44.9779 51.984 44.8838 52.0604C43.9958 52.6906 43.216 53.4618 42.5752 54.3438C42.1878 54.2327 42.3907 53.9673 42.4214 53.7451C42.527 52.8347 42.7652 51.9448 43.1285 51.1039C44.0424 48.9393 45.128 46.8519 46.3747 44.8617C46.7621 44.2446 47.1525 43.6274 47.589 42.9116C48.0101 43.6645 48.2807 44.4019 48.6803 45.0715C49.0799 45.7411 49.458 46.3952 49.8884 47.0278C50.3188 47.6603 50.8106 48.3145 51.2963 48.9378C51.782 49.5611 52.2677 50.1165 52.7627 50.7089C52.6974 50.7899 52.6265 50.8662 52.5506 50.9372C50.3003 52.8688 48.1485 54.9146 45.9812 56.9387C45.6395 57.2613 45.2441 57.5213 44.8131 57.7071C44.7555 57.7432 44.6889 57.7623 44.621 57.7623C44.553 57.7623 44.4864 57.7432 44.4288 57.7071C45.2674 56.9023 46.0405 56.0315 46.7405 55.1028C46.8642 54.949 46.9792 54.7883 47.0848 54.6215C47.1117 54.5792 47.1209 54.528 47.1106 54.479C47.1002 54.4299 47.0711 54.3869 47.0295 54.3592C46.9972 54.3209 46.9515 54.2964 46.9019 54.2906C46.8522 54.2849 46.8022 54.2984 46.7621 54.3283C46.6486 54.4195 46.5455 54.523 46.4546 54.6369C46.0458 55.1306 45.6585 55.6459 45.225 56.1303C44.7916 56.6148 44.4165 56.9943 43.9985 57.4108ZM46.1718 61.2648C45.4248 61.9467 44.6932 62.6502 43.94 63.3229C43.3867 63.8166 42.818 64.2948 42.2339 64.7484C40.7994 65.8716 39.3515 66.9855 37.8902 68.0901C37.4599 68.4203 37.0172 68.735 36.5745 69.0528C36.2671 69.2781 35.9105 69.4231 35.5416 69.2102C35.3488 69.0962 35.1923 68.9295 35.0905 68.7295C34.9887 68.5295 34.9458 68.3045 34.9668 68.0809C34.9721 67.7289 35.1093 67.3918 35.3511 67.1367C35.6574 66.7818 35.9849 66.4459 36.3317 66.1308C38.0624 64.588 39.8208 63.0637 41.533 61.5024C43.2453 59.941 45.0559 58.5525 46.7313 56.9758C48.17 55.6212 49.5902 54.2481 51.0781 52.9429C52.7104 51.5081 54.3274 50.0548 55.9505 48.623C56.2367 48.3497 56.5583 48.1161 56.9065 47.9288C57.0044 47.8616 57.1167 47.8185 57.2342 47.8029C57.3518 47.7874 57.4713 47.7997 57.5832 47.8391C57.6951 47.8784 57.7962 47.9436 57.8784 48.0294C57.9606 48.1152 58.0215 48.2192 58.0562 48.333C58.098 48.4228 58.1196 48.5208 58.1196 48.6199C58.1196 48.7191 58.098 48.8171 58.0562 48.9069C57.9171 49.2245 57.7305 49.519 57.5029 49.7801C56.6286 50.8566 55.699 51.8865 54.7178 52.8657C53.4052 54.174 52.1048 55.4978 50.7922 56.803C50.0237 57.5713 49.2275 58.3118 48.4651 59.0863C47.7027 59.8608 46.9557 60.5304 46.1718 61.2648ZM52.5075 63.1964C52.277 63.2179 52.0433 63.221 51.8036 63.2334C51.8466 63.0482 51.9757 63.0297 52.0864 62.9773C52.6397 62.7057 53.19 62.4301 53.7372 62.1503C53.925 62.082 54.0813 61.947 54.1767 61.7708C54.1904 61.7386 54.1975 61.704 54.1975 61.669C54.1975 61.634 54.1904 61.5993 54.1767 61.5672C54.1279 61.5118 54.0596 61.4775 53.9862 61.4715C53.8017 61.453 53.6787 61.5857 53.5189 61.669C52.6411 62.1742 51.714 62.5878 50.7522 62.9032C50.1866 63.0914 49.5933 63.1316 49.0184 63.2704C48.7932 63.2948 48.5674 63.2306 48.3882 63.0914C48.4743 62.9217 48.6526 62.9001 48.8002 62.8415C49.753 62.4321 50.6623 61.9277 51.5146 61.3357C51.5755 61.295 51.6341 61.2507 51.6898 61.2031C51.7384 61.1702 51.7747 61.122 51.7931 61.0662C51.8114 61.0103 51.8108 60.9499 51.7913 60.8945C51.7725 60.8622 51.7472 60.8342 51.7171 60.8121C51.687 60.7901 51.6527 60.7745 51.6164 60.7664C51.58 60.7583 51.5424 60.7578 51.5058 60.765C51.4693 60.7722 51.4346 60.7868 51.4039 60.8081C51.0227 61.0364 50.6508 61.2771 50.2757 61.5147C49.5696 61.9686 48.8148 62.3412 48.0255 62.6255C47.8872 62.6718 47.7458 62.752 47.6259 62.6008C47.506 62.4496 47.5429 62.3262 47.7089 62.1411C48.0919 61.7199 48.5244 61.3469 48.9969 61.0303C49.5873 60.6225 50.2034 60.2535 50.8414 59.9256C50.9981 59.8454 51.1672 59.7744 51.1242 59.5522C51.0965 59.3949 50.8537 59.3363 50.617 59.4566C49.7072 59.9007 48.8546 60.454 48.0778 61.1043C47.9287 61.2794 47.7415 61.4178 47.5306 61.5085C47.5301 61.1132 47.6671 60.7302 47.9179 60.4255C48.0622 60.2247 48.2282 60.0405 48.4128 59.8762C49.2797 59.1018 50.0851 58.2625 50.8998 57.4355L54.8069 53.452C54.8592 53.3965 54.9145 53.3471 54.9637 53.2916C55.0805 53.165 55.2004 53.1249 55.3388 53.2638C55.4279 53.3502 55.5232 53.4273 55.6154 53.5106C58.6407 56.2488 62.0608 58.5125 65.7599 60.2249C65.849 60.265 65.932 60.3175 66.0673 60.3823C65.9601 60.4545 65.847 60.5175 65.7292 60.5705C63.8417 61.2154 61.9788 61.9529 60.0052 62.2954C58.8401 62.4959 57.6658 62.6564 56.4915 62.7921C55.1605 62.9464 53.8325 63.0575 52.5075 63.1809V63.1964ZM67.3154 65.0477C67.2645 65.8884 67.1442 66.7233 66.9557 67.544C66.5346 69.3707 65.4986 70.8301 64.189 72.1168C63.4028 72.8726 62.5137 73.5125 61.5484 74.0176C60.2477 74.7257 58.8941 75.3313 57.4998 75.8288C56.1397 76.346 54.7406 76.7535 53.316 77.0476C51.8874 77.3302 50.4373 77.4892 48.9815 77.5228C46.6852 77.5228 44.5303 77.0106 42.6397 75.6221C42.3969 75.4537 42.1713 75.2614 41.9665 75.0482C41.696 74.771 41.5295 74.4084 41.4953 74.0219C41.4611 73.6354 41.5613 73.249 41.779 72.9284C41.9471 72.6538 42.1626 72.4114 42.4153 72.2125C43.0368 71.719 43.7556 71.3635 44.5241 71.1696C45.9751 70.7839 47.4322 70.4012 48.8801 70.0001C49.3553 69.8689 49.8233 69.7123 50.2819 69.5311C51.0685 69.2297 51.7859 68.7709 52.3904 68.1827C52.9949 67.5944 53.4741 66.889 53.7986 66.1092C54.111 65.4343 54.3352 64.7218 54.4657 63.9894C54.4705 63.8669 54.5232 63.7512 54.6124 63.6674C54.7016 63.5837 54.8201 63.5386 54.9422 63.5419C55.6308 63.4802 56.3132 63.3877 56.9988 63.3043C58.7668 63.1475 60.5164 62.8252 62.2247 62.3416C63.8232 61.8418 65.4156 61.3141 66.9742 60.6939C67.1356 60.5975 67.3212 60.5493 67.5091 60.5551C67.4537 62.0608 67.4107 63.5419 67.3154 65.023V65.0477ZM78.4067 53.1404C78.1946 53.344 77.9763 53.5446 77.7458 53.7266C76.233 54.9221 74.6444 56.0178 72.9901 57.0066C71.3245 58.0241 69.6022 58.9451 67.8318 59.7652C67.7212 59.8176 67.6013 59.8546 67.4937 59.9164C67.3046 60.0282 67.0891 60.0871 66.8696 60.0871C66.6502 60.0871 66.4347 60.0282 66.2456 59.9164C63.2272 58.5518 60.3938 56.8078 57.8134 54.7264C57.1986 54.2327 56.5991 53.7112 56.0028 53.1836C55.5263 52.7701 55.5109 52.7793 55.9474 52.3381C56.6606 51.6161 57.3092 50.8354 57.9517 50.0517C58.1606 49.8064 58.3363 49.5346 58.4743 49.2432C58.6208 48.9665 58.666 48.647 58.6019 48.3403C58.5379 48.0336 58.3687 47.7591 58.1239 47.5647C57.9728 47.4171 57.7825 47.3165 57.5758 47.2749C57.3691 47.2333 57.1549 47.2525 56.9588 47.3302C56.4575 47.5431 55.9999 47.8475 55.6093 48.2281C54.936 48.8113 54.2751 49.4099 53.6111 49.9992C53.482 50.1134 53.3467 50.2183 53.2146 50.3294C53.1436 50.2947 53.0765 50.2522 53.0147 50.2029C51.3149 48.3668 49.8731 46.3061 48.7295 44.0779C48.5112 43.6367 48.3268 43.1769 48.1147 42.7264C48.054 42.6057 48.0264 42.471 48.0345 42.336C48.0426 42.2011 48.0861 42.0707 48.1608 41.9581C49.4673 39.7118 50.7338 37.4439 52.0649 35.213C52.8733 33.8553 53.7771 32.5501 54.6409 31.2233C54.7055 31.1246 54.7516 30.995 54.9053 30.995C54.933 31.0258 54.9822 31.0505 54.9914 31.0875C55.5496 33.121 56.4253 35.0529 57.5859 36.8113C58.7578 38.6479 60.0911 40.3756 61.5699 41.9736C61.7206 42.1402 61.8773 42.3006 62.0218 42.4672C62.2216 42.6987 62.2001 42.8036 61.9204 42.8776C60.7522 43.1862 59.5871 43.4948 58.4128 43.8033C56.5407 44.2569 54.6655 44.6858 52.7934 45.1209C52.5499 45.1615 52.3144 45.2407 52.0956 45.3554C52.0534 45.3812 52.019 45.4182 51.9962 45.4622C51.9735 45.5063 51.9632 45.5558 51.9665 45.6053C51.9694 45.655 51.9871 45.7028 52.0172 45.7423C52.0473 45.7819 52.0885 45.8116 52.1356 45.8275C52.2757 45.872 52.422 45.8939 52.569 45.8923C53.6818 45.8923 54.7916 45.8923 55.9013 45.812C56.6883 45.7596 57.4783 45.7472 58.2653 45.7164C58.7202 45.7164 59.1875 45.4726 59.6148 45.8614C58.4067 46.1175 57.2016 46.3829 55.9935 46.6236C54.8807 46.8426 53.7617 47.0339 52.6459 47.2407C52.4519 47.2773 52.2608 47.3278 52.0741 47.3919C52.0444 47.4 52.0166 47.4141 51.9924 47.4332C51.9682 47.4523 51.9481 47.476 51.9332 47.5031C51.9183 47.5301 51.909 47.5598 51.9057 47.5906C51.9024 47.6213 51.9053 47.6523 51.9142 47.6819C51.945 47.8393 52.0771 47.8516 52.2001 47.8485C52.323 47.8424 52.4453 47.827 52.5659 47.8023C55.7476 47.2314 58.917 46.605 62.0648 45.8738C62.3999 45.7935 62.7319 45.6917 63.0609 45.5837C63.2002 45.5372 63.3326 45.4718 63.4543 45.3893C63.4873 45.3614 63.5128 45.3256 63.5284 45.2852C63.5441 45.2448 63.5494 45.2012 63.5439 45.1582C63.5384 45.1152 63.5223 45.0743 63.4969 45.0392C63.4716 45.0042 63.438 44.976 63.399 44.9573C63.3127 44.912 63.219 44.8827 63.1223 44.8709C62.9248 44.8571 62.7266 44.8571 62.529 44.8709C61.5207 44.9326 60.5094 44.9882 59.5011 45.0684C58.8094 45.124 58.1208 45.1672 57.4291 45.161C56.8727 45.161 56.2917 45.4202 55.7753 45.0036C56.7805 44.7568 57.7888 44.5223 58.7909 44.26C59.7931 43.9977 60.8813 43.6799 61.9234 43.3868C62.0699 43.3643 62.2107 43.314 62.3384 43.2387C62.5598 43.0566 62.6827 43.1924 62.8303 43.3343C63.4728 43.9514 64.103 44.5685 64.7608 45.1857C67.2153 47.4537 69.9513 49.3942 72.901 50.9588C74.572 51.8721 76.3698 52.5294 78.2345 52.9089C78.2837 52.913 78.3311 52.9289 78.3729 52.9552C78.4159 52.9768 78.4774 53.054 78.4067 53.1157V53.1404ZM96.0335 19.1987C96.203 20.8994 96.2698 22.6089 96.2333 24.3177C96.1016 26.1953 95.8179 28.059 95.3848 29.8903C94.7614 32.6458 93.7139 35.2869 92.28 37.7185C90.6046 40.6409 88.5711 43.3413 86.2271 45.7565C84.2843 47.7683 82.2554 49.6845 80.2112 51.5914C79.996 51.792 79.7439 51.9617 79.541 52.1746C79.4401 52.2827 79.3123 52.362 79.1708 52.4043C79.0292 52.4466 78.8791 52.4504 78.7356 52.4152C77.8348 52.2696 76.9489 52.0423 76.0888 51.7364C74.488 51.1662 72.9508 50.4299 71.5023 49.5395C66.4814 46.489 62.1457 42.426 58.7694 37.6074C57.6328 36.018 56.7031 34.2895 56.0028 32.4637C55.7914 31.8833 55.6108 31.2921 55.4617 30.6926C55.4101 30.5295 55.4005 30.3559 55.4338 30.1881C55.4671 30.0203 55.5423 29.8637 55.6523 29.733C56.501 28.5754 57.408 27.4621 58.3698 26.3974C60.046 24.6106 61.9002 23.0008 63.9032 21.5931C65.9406 20.1936 68.1758 19.1087 70.534 18.3748C73.1154 17.5419 75.7552 16.9034 78.4313 16.4648C78.6956 16.4216 78.9692 16.4247 79.2398 16.4062C79.3873 16.2581 79.5994 16.3229 79.7685 16.2489C80.0058 16.1687 80.2628 16.1687 80.5001 16.2489C80.5503 16.1952 80.6158 16.1586 80.6877 16.1439C81.1795 16.1223 81.6744 16.1254 82.1632 16.073C83.3928 15.9465 84.6225 15.931 85.8521 15.8878C88.468 15.8213 91.0852 15.9512 93.6818 16.2766C94.1706 16.3352 94.6532 16.4494 95.1389 16.5327C95.2141 16.5371 95.2851 16.5691 95.3384 16.6226C95.3916 16.676 95.4235 16.7473 95.4279 16.8228C95.5156 17.3351 95.6536 17.8374 95.8398 18.3224C95.935 18.6068 95.9999 18.9005 96.0335 19.1987Z" fill="black"/>
<path d="M45.8602 110.249C45.6514 109.998 45.4183 109.769 45.1644 109.564C44.3246 108.83 43.7497 107.841 43.5282 106.749C43.2399 105.359 43.3309 103.917 43.7915 102.574C43.9953 101.93 44.2523 101.301 44.503 100.669C44.7368 100.141 44.9021 99.5848 44.9951 99.0147C45.0604 98.648 45.0418 98.2713 44.9406 97.9128C44.8394 97.5543 44.6583 97.2233 44.4108 96.9444C44.1633 96.6656 43.8559 96.4462 43.5115 96.3027C43.167 96.1591 42.7945 96.0952 42.4218 96.1155C41.8453 96.1498 41.28 96.2897 40.7543 96.5284C38.3865 97.6406 36.1247 98.9648 33.9965 100.485C32.3039 101.708 30.6082 102.918 28.8185 103.997C27.9624 104.53 26.9995 104.87 25.9975 104.991C24.9941 105.155 23.9648 104.985 23.0669 104.51C21.9279 103.892 21.0409 102.896 20.5593 101.695C20.012 100.2 19.8884 98.5832 20.202 97.0225C20.5663 94.9376 21.379 92.9562 22.5842 91.2147C24.1404 88.9301 25.9921 86.8606 28.0913 85.0597C29.9531 83.4459 31.9027 81.9321 33.821 80.3903C36.1864 78.5052 38.3701 76.4038 40.3437 74.1133C40.8327 73.5441 41.284 72.9311 41.7322 72.34C41.8466 72.0658 42.0055 71.8122 42.2024 71.5894C42.2719 71.3368 42.4148 71.1105 42.613 70.9389C42.6358 70.8675 42.6651 70.7984 42.7008 70.7324C43.9443 68.7245 44.9319 66.5697 45.6408 64.3179C45.6674 64.2232 45.6801 64.1253 45.6784 64.027C45.6784 63.9488 45.5249 63.8769 45.4465 63.8988C45.3973 63.9094 45.3513 63.9318 45.3126 63.9639C45.2739 63.996 45.2435 64.037 45.224 64.0833C45.1145 64.3094 45.0172 64.5412 44.9325 64.7776C44.3798 66.4191 43.6659 68.002 42.8011 69.5033C41.6979 71.5138 40.3458 73.3778 38.7765 75.0516C36.8708 77.0579 34.8218 78.9237 32.6456 80.6342C30.9217 81.9791 29.2166 83.3489 27.571 84.7907C25.7291 86.3947 24.076 88.2026 22.6437 90.1795C21.3568 91.8891 20.4147 93.8318 19.8698 95.8997C19.4568 97.4292 19.383 99.0302 19.6535 100.591C19.8008 101.438 20.1214 102.246 20.5954 102.963C21.0695 103.681 21.6867 104.294 22.4086 104.763C23.0552 105.203 23.8044 105.469 24.5839 105.536C26.1241 105.699 27.6746 105.342 28.9877 104.522C29.6899 104.084 30.4014 103.659 31.1066 103.228C31.42 103.171 31.3668 103.118 31.3354 103.409C30.4484 104.403 29.5143 105.354 28.5677 106.289C27.6188 107.193 26.5256 107.933 25.333 108.479C24.6954 108.782 24.0017 108.95 23.2957 108.973C22.4399 109.003 21.5833 108.94 20.7411 108.785C19.7678 108.638 18.8419 108.267 18.0361 107.703C17.3591 107.221 16.7378 106.665 16.1837 106.045C15.5232 105.316 15.0386 104.445 14.7669 103.499C14.4953 102.554 14.4439 101.559 14.6165 100.591C14.8819 98.9792 15.3813 97.4146 16.0991 95.9466C16.6852 94.6956 17.3528 93.4946 18.0644 92.3031C18.8762 90.9144 19.7005 89.5352 20.4904 88.1372C21.581 86.1862 22.4715 84.1304 23.1484 82.001C23.8285 79.8961 24.3144 77.7412 24.8033 75.5895C25.1747 73.7957 25.6765 72.0313 26.3047 70.3102C26.9221 68.5816 27.8062 66.9597 28.9251 65.5032C29.9383 64.2497 31.0955 63.1192 32.3729 62.1348C33.8616 61.0199 35.4869 60.0992 37.2093 59.3951C37.855 59.1168 38.5007 58.8384 39.1432 58.5538C39.278 58.4944 39.441 58.4569 39.5099 58.3068C39.5341 58.239 39.5341 58.165 39.5099 58.0972C39.5099 58.0628 39.4378 58.0347 39.3908 58.019C39.3304 58.0011 39.267 57.9958 39.2045 58.0033C39.142 58.0108 39.0816 58.0311 39.0272 58.0628C38.6354 58.2286 38.2436 58.4068 37.8487 58.5632C36.509 59.0703 35.2115 59.6821 33.9683 60.3928C33.9222 60.4119 33.8737 60.4245 33.8241 60.4303C33.705 60.521 33.5953 60.6211 33.4699 60.6993C32.128 61.5469 30.8927 62.5517 29.7902 63.6924C28.4468 65.049 27.351 66.6291 26.5523 68.3618C25.8915 69.7706 25.3596 71.236 24.9632 72.7403C24.4899 74.6168 24.0573 76.4934 23.6122 78.3699C23.0404 80.8661 22.2226 83.2997 21.1705 85.6351C20.3384 87.3595 19.4145 89.0382 18.4029 90.6642C17.6694 91.8933 16.936 93.1225 16.2683 94.3891C15.6697 95.494 15.1593 96.6444 14.7419 97.8294C14.3323 98.9615 14.0874 100.146 14.0147 101.348C13.9208 102.763 14.2785 104.171 15.0365 105.37C15.8926 106.678 17.0459 107.767 18.4029 108.547C18.7329 108.73 19.0805 108.879 19.4404 108.992C20.5701 109.349 21.7502 109.522 22.9352 109.504C23.8448 109.536 24.7488 109.349 25.5712 108.96C26.8261 108.379 27.9762 107.595 28.9752 106.64C29.436 106.18 29.9155 105.726 30.3543 105.245C31.5633 103.931 32.863 102.703 34.2441 101.57C34.3601 101.476 34.473 101.376 34.5858 101.273C36.4946 99.5277 38.695 98.2235 40.9831 97.0475C41.3669 96.8567 41.7801 96.7319 42.2055 96.6785C42.4788 96.6309 42.7592 96.6431 43.0274 96.7142C43.2955 96.7853 43.545 96.9136 43.7586 97.0902C43.9723 97.2668 44.145 97.4875 44.2648 97.7372C44.3847 97.9868 44.4489 98.2594 44.4529 98.5362C44.4778 98.8631 44.4373 99.1916 44.3338 99.5026C44.1771 99.9249 44.036 100.353 43.8668 100.772C43.5909 101.419 43.3564 102.082 43.1647 102.758C42.8374 103.896 42.7457 105.087 42.8951 106.261C43.1145 107.762 43.7038 109.054 44.8917 110.014C45.2813 110.297 45.5848 110.682 45.7685 111.126C45.9522 111.571 46.0089 112.057 45.9323 112.532C45.9209 112.654 45.9283 112.778 45.9543 112.898C45.9613 112.92 45.9739 112.941 45.9909 112.957C46.0078 112.974 46.0287 112.985 46.0514 112.992C46.1215 113.009 46.1955 112.999 46.2583 112.964C46.3306 112.896 46.3827 112.809 46.4088 112.713C46.521 112.289 46.5298 111.843 46.4344 111.415C46.339 110.986 46.1421 110.586 45.8602 110.249Z" fill="#010000"/>
<path d="M90.1333 35.4717C89.6342 32.4217 87.876 30.2208 84.862 28.9021C82.7534 27.9949 80.3769 27.7639 78.1099 28.2457C74.7813 28.8465 71.8393 30.6251 69.9127 33.2015C68.5288 34.9239 67.7717 37.0067 67.75 39.1509C67.75 42.8392 69.5408 45.5279 73.1387 47.1507C74.5478 47.783 76.0744 48.0088 77.8489 47.9997C78.3018 47.9869 78.7537 47.9517 79.2026 47.8944C84.0139 47.0935 87.4683 44.6577 89.4222 40.5088C90.1742 38.9266 90.421 37.179 90.1333 35.4717ZM87.6249 42.4719C85.7683 44.9767 82.9188 46.707 79.6919 47.2892C77.5266 47.745 75.2581 47.5138 73.2529 46.6328C70.4509 45.3863 68.8232 43.3209 68.36 40.4787C68.072 38.5981 68.441 36.6818 69.4136 35.008C71.3707 31.4613 74.5511 29.3507 78.7981 28.6853C80.5384 28.4032 82.3289 28.5592 83.9813 29.1369C87.8369 30.4737 89.7321 33.6532 89.6733 36.2726C89.6146 38.892 88.9231 40.7707 87.6249 42.4719Z" fill="#010101"/>
<path d="M30.4214 73.2925C30.3842 73.2943 30.3477 73.2809 30.318 73.2546C30.2884 73.2283 30.2676 73.1907 30.2591 73.1483C30.237 73.0032 30.2554 72.8537 30.3114 72.7218C30.5097 72.0484 30.7504 71.3931 31.0313 70.7614C31.7541 69.0674 32.5836 67.4389 33.513 65.8894C34.2458 64.6882 35.0666 63.5641 35.966 62.53C36.4883 61.9195 37.0846 61.4026 37.7356 60.996C37.9765 60.8456 38.2094 60.6892 38.4451 60.5235C38.4828 60.4997 38.5269 60.4937 38.5683 60.5068C38.6097 60.5199 38.6452 60.5512 38.6676 60.5941C38.6954 60.6315 38.7107 60.6794 38.7107 60.7291C38.7107 60.7787 38.6954 60.8266 38.6676 60.8641C38.61 60.9355 38.546 60.9993 38.4765 61.0543C38.3194 61.1739 38.1597 61.2936 37.9948 61.3979C37.2789 61.8677 36.6276 62.4614 36.0628 63.1589C35.1208 64.2821 34.2699 65.5053 33.5209 66.8129C32.424 68.7037 31.4926 70.7194 30.7407 72.8292C30.6934 72.9652 30.6337 73.0948 30.5627 73.2158C30.5287 73.274 30.4502 73.2802 30.4214 73.2925ZM40.2357 67.6995C40.2521 67.7591 40.2545 67.8228 40.2425 67.8839C40.2305 67.9449 40.2046 68.001 40.1676 68.0462C39.7984 68.6751 39.3898 69.2709 38.9451 69.8287C38.0162 70.9761 37.0036 72.0263 35.9188 72.9672C34.7905 73.9521 33.6335 74.8909 32.4292 75.7468C32.0182 76.0536 31.5863 76.2929 31.1596 76.5599C31.047 76.6245 30.9306 76.6799 30.8114 76.7255C30.7635 76.7519 30.709 76.7572 30.658 76.7403C30.607 76.7234 30.563 76.6854 30.5339 76.6335C30.5227 76.6058 30.5163 76.5757 30.5152 76.5451C30.5142 76.5144 30.5184 76.4838 30.5277 76.4552C30.537 76.4265 30.5512 76.4003 30.5693 76.3782C30.5875 76.3562 30.6093 76.3386 30.6334 76.3267C30.8324 76.1886 31.0392 76.0659 31.2407 75.934C33.354 74.562 35.3417 72.9397 37.1728 71.0927C38.142 70.1436 39.012 69.0633 39.7645 67.8744C39.8215 67.7419 39.9132 67.6344 40.0262 67.5676C40.0689 67.5555 40.1138 67.5622 40.1525 67.5866C40.1912 67.6109 40.2208 67.6511 40.2357 67.6995Z" fill="#050404"/>
<path d="M30.4787 74.25C30.3243 74.2008 30.2247 74.1366 30.2556 74.036C30.308 73.8679 30.378 73.7021 30.465 73.5396C30.6195 73.2829 30.7843 73.0282 30.973 72.78C31.8551 71.6325 32.9783 70.5632 34.3131 69.6004C34.4699 69.4625 34.6724 69.3472 34.9069 69.2623C34.9579 69.2481 35.0156 69.2461 35.0688 69.2568C35.1221 69.2674 35.1671 69.29 35.1952 69.3201C35.2399 69.365 35.2776 69.4143 35.2227 69.4592C35.1266 69.5426 35.0202 69.6218 34.9138 69.6988C33.7028 70.592 32.6519 71.5649 31.7797 72.6003C31.4157 73.024 31.1136 73.4673 30.8769 73.9248C30.8485 74.0265 30.7774 74.1217 30.671 74.2008C30.6111 74.2229 30.5463 74.2395 30.4787 74.25Z" fill="#080707"/>
<path d="M55.8153 45.3013C56.8432 45.0625 57.8742 44.8357 58.8989 44.582C59.9236 44.3283 61.0364 44.0208 62.1019 43.7373C62.252 43.7168 62.3963 43.6681 62.5263 43.594C62.7526 43.4179 62.8783 43.5492 63.0292 43.6865C63.6862 44.2835 64.3305 44.8805 65.0032 45.4774C67.513 47.6715 70.3106 49.5485 73.3267 51.0622C75.0358 51.9453 76.8738 52.5821 78.7803 52.9516C78.8306 52.9526 78.8797 52.9671 78.9217 52.9934C78.9783 53.0352 79.038 53.1128 78.9689 53.1725C78.752 53.3695 78.5288 53.5635 78.2931 53.7396C76.7457 54.8954 75.1214 55.9552 73.4304 56.9125C71.7272 57.8967 69.9662 58.7877 68.1559 59.581C68.0428 59.6317 67.9202 59.6675 67.8102 59.7272C67.6168 59.8354 67.3965 59.8924 67.1721 59.8924C66.9477 59.8924 66.7274 59.8354 66.534 59.7272C63.4477 58.4072 60.5504 56.7202 57.9119 54.7067C57.2833 54.2291 56.6703 53.7247 56.0605 53.2142C55.5733 52.8143 55.5576 52.8232 56.0039 52.3964C56.7332 51.6979 57.3964 50.9428 58.0534 50.1846C58.2669 49.9474 58.4466 49.6844 58.5877 49.4026C58.7375 49.1349 58.7837 48.8258 58.7182 48.5291C58.6527 48.2324 58.4798 47.9669 58.2294 47.7788C58.0749 47.636 57.8803 47.5387 57.669 47.4984C57.4577 47.4582 57.2386 47.4768 57.0381 47.5519C56.5255 47.7579 56.0576 48.0524 55.6582 48.4205C54.9698 48.9847 54.294 49.5637 53.615 50.1339C53.483 50.2443 53.3447 50.3458 53.2096 50.4532C53.137 50.4196 53.0684 50.3786 53.0052 50.3309C51.2671 48.5547 49.7929 46.5613 48.6235 44.4059C48.4003 43.979 48.2117 43.5343 47.9948 43.0985C47.9328 42.9817 47.9045 42.8514 47.9128 42.7208C47.9211 42.5903 47.9657 42.4642 48.042 42.3553C49.3779 40.1823 50.6729 37.9884 52.034 35.8303C52.8606 34.517 53.7848 33.2544 54.668 31.9709C54.7341 31.8754 54.7812 31.75 54.9384 31.75C54.9667 31.7798 55.017 31.8037 55.0264 31.8395C55.5972 33.8067 56.4926 35.6755 57.6793 37.3765C58.8768 39.1583 60.2402 40.8346 61.753 42.3851C61.9071 42.5463 62.0674 42.7015 62.2151 42.8627C62.4194 43.0866 62.3974 43.188 62.1114 43.2597C60.9169 43.5582 59.7256 43.8567 58.5249 44.1551C56.6106 44.5939 54.6963 45.0088 52.7789 45.4297C52.53 45.469 52.2891 45.5456 52.0654 45.6565C52.0222 45.6815 51.9871 45.7173 51.9638 45.7599C51.9405 45.8025 51.93 45.8504 51.9334 45.8983C51.9364 45.9464 51.9544 45.9926 51.9852 46.0309C52.016 46.0692 52.0582 46.0978 52.1063 46.1132C52.2496 46.1563 52.3992 46.1775 52.5495 46.1759C53.6873 46.1759 54.8221 46.1759 55.9568 46.0983C56.7615 46.0476 57.5693 46.0356 58.374 46.0058C58.8392 46.0058 59.317 45.77 59.7539 46.1461C58.5186 46.3938 57.2864 46.6505 56.0511 46.8833C54.9132 47.0953 53.7691 47.2803 52.628 47.4803C52.4297 47.5157 52.2343 47.5646 52.0434 47.6266C52.013 47.6344 51.9847 47.648 51.9599 47.6665C51.9352 47.685 51.9146 47.708 51.8994 47.7341C51.8841 47.7603 51.8746 47.789 51.8712 47.8188C51.8679 47.8485 51.8708 47.8785 51.8799 47.9071C51.9114 48.0594 52.0465 48.0713 52.1723 48.0683C52.298 48.0624 52.423 48.0475 52.5463 48.0235C55.7996 47.4713 59.0404 46.8654 62.2591 46.158C62.6017 46.0804 62.9412 45.9819 63.2775 45.8774C63.42 45.8324 63.5554 45.7691 63.6799 45.6894C63.7136 45.6623 63.7397 45.6277 63.7557 45.5887C63.7716 45.5496 63.7771 45.5074 63.7715 45.4658C63.7658 45.4242 63.7493 45.3847 63.7234 45.3507C63.6976 45.3168 63.6631 45.2895 63.6233 45.2715C63.5351 45.2276 63.4392 45.1993 63.3404 45.1879C63.1384 45.1745 62.9357 45.1745 62.7337 45.1879C61.7027 45.2476 60.6686 45.3013 59.6376 45.3789C58.9304 45.4327 58.2263 45.4745 57.519 45.4685C56.9375 45.4536 56.3434 45.7043 55.8153 45.3013ZM48.8278 39.8838C48.8341 39.9728 48.8217 40.0622 48.7915 40.1467C48.7613 40.2312 48.7138 40.3093 48.6518 40.3763C47.9288 41.5285 47.2216 42.6896 46.4703 43.8238C45.0599 45.895 43.8077 48.0596 42.7235 50.301C42.6827 50.3876 42.6449 50.4771 42.5946 50.5607C42.5666 50.6158 42.5214 50.6614 42.4652 50.6913C42.409 50.7212 42.3444 50.7339 42.2803 50.7278C40.08 50.7099 38.3732 51.7069 36.8738 53.1157C35.4603 54.4856 34.3065 56.0771 33.4634 57.8199C33.2272 58.2711 33.0377 58.7429 32.8976 59.2288C32.8043 59.6502 32.5862 60.0375 32.2689 60.3451C31.4296 61.1152 30.1503 60.9152 29.4714 60.4436C28.9471 60.1027 28.5326 59.6306 28.2738 59.0795C27.9947 58.4627 27.8258 57.806 27.774 57.1364C27.7168 55.7242 27.7619 54.3101 27.9091 52.9038C27.9909 51.8979 28.0789 50.898 28.2455 49.904C28.4812 48.531 28.7421 47.1639 29.1067 45.8207C29.9523 42.7164 32.052 40.6987 35.2079 39.6629C37.0013 39.0761 38.8841 38.7736 40.781 38.7674H42.7487C44.6943 38.7927 46.6233 39.1121 48.4632 39.7137C48.5732 39.7733 48.7084 39.836 48.8278 39.8838ZM67.8416 60.3362C67.7693 61.8286 67.7159 63.2494 67.6279 64.6821C67.5759 65.4953 67.4529 66.303 67.2601 67.0969C66.8295 68.864 65.7702 70.2758 64.4311 71.5205C63.6272 72.2516 62.7181 72.8706 61.731 73.3592C60.401 74.0442 59.0169 74.63 57.5913 75.1113C56.2005 75.6116 54.77 76.0058 53.3133 76.2903C51.8525 76.5637 50.3697 76.7175 48.8812 76.75C46.5332 76.75 44.3297 76.2545 42.3966 74.9113C42.1483 74.7484 41.9177 74.5624 41.7082 74.3561C41.4316 74.088 41.2614 73.7372 41.2264 73.3634C41.1914 72.9895 41.2939 72.6157 41.5165 72.3055C41.6884 72.0399 41.9087 71.8054 42.1671 71.613C42.8027 71.1357 43.5376 70.7918 44.3235 70.6041C45.8071 70.231 47.297 69.8609 48.7775 69.4729C49.2634 69.3459 49.7419 69.1945 50.2108 69.0192C51.0152 68.7276 51.7487 68.2838 52.3668 67.7148C52.985 67.1457 53.4749 66.4633 53.8068 65.7089C54.1256 65.0559 54.3549 64.3668 54.4889 63.6583C54.4938 63.5398 54.5477 63.4279 54.6389 63.3469C54.7301 63.2659 54.8512 63.2223 54.9761 63.2255C55.6802 63.1658 56.378 63.0763 57.079 62.9957C58.8868 62.8439 60.6758 62.5321 62.4226 62.0644C64.0571 61.5809 65.6853 61.0704 67.2789 60.4705C67.4486 60.3744 67.6442 60.3277 67.8416 60.3362Z" fill="#F38704"/>
<path d="M71.5 25.3656C71.4759 25.3958 71.4546 25.4482 71.4091 25.4703C71.3835 25.484 71.3541 25.4933 71.3232 25.4975C71.2922 25.5017 71.2605 25.5006 71.2301 25.4945C70.9774 25.371 70.7088 25.2671 70.4284 25.1844C69.3302 24.8661 68.1793 24.6628 67.0078 24.5802C66.8814 24.5715 66.7563 24.5546 66.6337 24.5299C66.5909 24.5236 66.5532 24.5048 66.5287 24.4776C66.5042 24.4505 66.4949 24.4172 66.5027 24.3849C66.5061 24.3526 66.5241 24.3221 66.5538 24.2986C66.5835 24.2751 66.623 24.2601 66.6657 24.256C66.7715 24.248 66.878 24.248 66.9837 24.256C68.268 24.3258 69.53 24.5452 70.725 24.9065C70.9218 24.9687 71.1121 25.0421 71.2942 25.126C71.3499 25.152 71.3972 25.187 71.4328 25.2284C71.4683 25.2698 71.4913 25.3167 71.5 25.3656Z" fill="#0D0909"/>
<path d="M70.9311 20.5C72.2551 20.5783 73.5501 20.835 74.7551 21.258C74.8725 21.2987 74.9834 21.3493 75.0859 21.4088C75.2472 21.4964 75.2956 21.6126 75.2042 21.6961C75.1127 21.7797 74.9729 21.7552 74.8573 21.6961C74.0788 21.3827 73.2473 21.1516 72.3859 21.0094C71.806 20.8826 71.2065 20.8141 70.603 20.8057C70.5381 20.8056 70.4734 20.8015 70.4094 20.7934C70.3673 20.7863 70.3293 20.7692 70.3008 20.7447C70.2723 20.7202 70.2548 20.6894 70.2507 20.6569C70.2467 20.6242 70.2592 20.5915 70.2856 20.5654C70.312 20.5394 70.3505 20.5218 70.3933 20.5163C70.5842 20.5122 70.7778 20.5122 70.9311 20.5Z" fill="#0C0808"/>
<path d="M65.3085 25.5C66.7181 25.5221 68.1106 25.9272 69.4055 26.6919C69.7042 26.8108 69.9716 27.0454 70.1757 27.3675C70.2163 27.4218 70.242 27.4938 70.2484 27.5712C70.2548 27.6486 70.2416 27.7266 70.2109 27.7921C70.1229 27.961 69.9963 28.0672 69.8592 27.9514C69.3224 27.5327 68.7494 27.2084 68.1535 26.9863C66.9736 26.4601 65.7362 26.2185 64.4961 26.2721C64.3062 26.2721 64.0846 26.3589 64.0108 25.997C63.9545 25.7268 64.1198 25.5531 64.4715 25.5145C64.7458 25.5 65.0412 25.5 65.3085 25.5Z" fill="#0F0C0C"/>
<path d="M68.2712 21.7554C69.9951 21.9114 71.6792 22.399 73.2441 23.195C73.5168 23.3092 73.756 23.5008 73.9362 23.7496C73.9597 23.7799 73.9773 23.8149 73.988 23.8526C73.9987 23.8903 74.0023 23.9299 73.9986 23.9692C73.9948 24.0084 73.9838 24.0465 73.9663 24.081C73.9487 24.1156 73.9248 24.146 73.8962 24.1705C73.8546 24.2154 73.7997 24.2431 73.7411 24.2489C73.6826 24.2546 73.624 24.238 73.5756 24.2019C72.2605 23.387 70.8225 22.829 69.3277 22.5539C69.0727 22.4949 68.8104 22.4674 68.5518 22.428C68.3805 22.4044 68.1875 22.4044 68.0344 22.3651C67.8814 22.3258 67.743 22.2589 67.7503 22.0622C67.7576 21.8656 67.8851 21.7948 68.0344 21.7594C68.113 21.7484 68.1924 21.7471 68.2712 21.7554Z" fill="#0D0909"/>
<path d="M74.3538 20.5007C74.6063 20.5406 74.911 20.5821 75.2111 20.637C75.9165 20.7749 76.5962 20.9752 77.235 21.2336C77.3609 21.2871 77.4824 21.3459 77.5989 21.4098C77.6373 21.4288 77.6701 21.4533 77.6951 21.4819C77.7201 21.5105 77.7369 21.5425 77.7444 21.576C77.7529 21.6022 77.7517 21.6295 77.7409 21.6552C77.7301 21.6809 77.7101 21.7041 77.683 21.7222C77.6559 21.7401 77.6206 21.75 77.5841 21.75C77.5476 21.75 77.5123 21.7401 77.4852 21.7222C77.36 21.6467 77.2286 21.5767 77.0918 21.5128C76.268 21.1672 75.3711 20.9245 74.438 20.7949C74.347 20.7832 74.2561 20.7749 74.1674 20.7583C74.0787 20.7417 73.9877 20.7134 74.0014 20.6287C74.015 20.5439 74.0991 20.5206 74.1924 20.504C74.246 20.5002 74.3 20.4991 74.3538 20.5007Z" fill="#0C0909"/>
<path d="M78.4759 16.75C79.7965 16.8217 81.085 17.0706 82.2712 17.4832C82.4215 17.5381 82.5579 17.6099 82.675 17.6957C82.718 17.7271 82.7442 17.768 82.7491 17.8113C82.7541 17.8547 82.7376 17.8979 82.7023 17.9337C82.6862 17.9504 82.6655 17.9646 82.6414 17.9756C82.6173 17.9866 82.5903 17.994 82.562 17.9976C82.5338 18.0012 82.5047 18.0007 82.4767 17.9963C82.4486 17.9919 82.4221 17.9837 82.3987 17.972C81.336 17.4896 80.1337 17.2813 78.9101 17.1325C78.6064 17.0964 78.2785 17.1092 77.9658 17.0943C77.8686 17.0943 77.7745 17.0688 77.7563 16.9838C77.7491 16.963 77.7481 16.9414 77.7531 16.9202C77.7582 16.8991 77.7692 16.879 77.7857 16.8609C77.8021 16.8429 77.8236 16.8273 77.8488 16.8152C77.874 16.8031 77.9024 16.7946 77.9324 16.7904C78.1125 16.7704 78.2938 16.757 78.4759 16.75Z" fill="#0C0707"/>
<path d="M75.9398 18.0055C77.2875 18.1884 78.5943 18.6917 79.7889 19.4878C79.8889 19.5347 79.9801 19.6068 80.0566 19.6996C80.133 19.7925 80.1932 19.9041 80.2331 20.0273C80.2506 20.0898 80.2546 20.1569 80.2447 20.2219C80.2348 20.2869 80.2114 20.3476 80.1767 20.3979C80.1444 20.4515 80.0964 20.4871 80.043 20.4971C79.9897 20.5071 79.9353 20.4907 79.8916 20.4514C78.5872 19.4192 77.1024 18.7908 75.5619 18.619C75.5097 18.6122 75.4584 18.597 75.4094 18.5737C75.3604 18.5478 75.3189 18.504 75.2905 18.4481C75.262 18.3922 75.248 18.3269 75.2502 18.2608C75.2511 18.1941 75.2725 18.1304 75.3102 18.0828C75.3478 18.0353 75.3988 18.0076 75.4525 18.0055C75.5585 17.9931 75.6646 18.0055 75.9398 18.0055Z" fill="#0C0808"/>
<path d="M61.1528 28.0004C62.7829 28.0654 64.373 28.3063 65.8305 28.7092C66.0838 28.7575 66.2998 28.851 66.4435 28.9744C66.4804 29.005 66.5 29.0408 66.5 29.0773C66.5 29.1139 66.4804 29.1497 66.4435 29.1802C66.4032 29.21 66.3462 29.2319 66.2811 29.2427C66.216 29.2534 66.1463 29.2523 66.0824 29.2397C66.0216 29.2305 65.9626 29.2183 65.9061 29.2031C64.3337 28.6993 62.5629 28.4077 60.7413 28.3525C60.6096 28.3482 60.4816 28.327 60.3676 28.2908C60.3301 28.2743 60.2999 28.2534 60.2795 28.2296C60.2592 28.2058 60.2491 28.1798 60.2501 28.1536C60.2758 28.1049 60.3304 28.0623 60.4054 28.0324C60.4629 28.0124 60.5305 28.0028 60.5986 28.0049C60.7917 27.9981 60.9933 28.0004 61.1528 28.0004Z" fill="#0D0808"/>
<path d="M63.4265 25.5C64.6102 25.6278 65.778 25.997 66.9001 26.5981C67.1447 26.7164 67.3735 26.9024 67.5759 27.1471C67.7307 27.3448 67.7976 27.6467 67.7131 27.8224C67.6669 27.9062 67.6046 27.9643 67.5354 27.9881C67.4662 28.0118 67.394 27.9999 67.3295 27.9542C67.3027 27.9443 67.2767 27.9296 67.2521 27.9103C65.9672 27.0183 64.5907 26.4903 63.1872 26.351C63.1036 26.3456 63.0208 26.3234 62.9408 26.2851C62.8868 26.2615 62.8392 26.2113 62.805 26.1421C62.7707 26.0729 62.7517 25.9882 62.7508 25.9008C62.7484 25.8571 62.7516 25.813 62.7603 25.7713C62.7689 25.7295 62.7828 25.6909 62.8012 25.6577C62.8195 25.6244 62.842 25.5972 62.8672 25.5777C62.8924 25.5582 62.9198 25.5467 62.9479 25.5439C63.1414 25.511 63.335 25.5055 63.4265 25.5Z" fill="#0E0909"/>
<path d="M59.9002 29.2659C60.6397 29.3935 61.3694 29.6794 62.0754 30.118C62.3222 30.2267 62.5425 30.4909 62.7008 30.8679C62.7265 30.9522 62.7426 31.0458 62.748 31.1428C62.7534 31.2397 62.7479 31.3377 62.732 31.4304C62.7072 31.5147 62.6725 31.587 62.6307 31.6417C62.5889 31.6963 62.541 31.7319 62.4908 31.7457C62.3137 31.7652 62.1362 31.7189 61.9682 31.6093C61.1678 31.0004 60.3105 30.7104 59.4491 30.7572C59.3448 30.7463 59.2429 30.6941 59.1498 30.6038C59.1121 30.5631 59.0795 30.5071 59.0544 30.4397C59.0293 30.3722 59.0123 30.2951 59.0047 30.2137C58.997 30.1324 58.9988 30.0488 59.01 29.9689C59.0212 29.889 59.0415 29.8148 59.0694 29.7516C59.182 29.5631 59.3142 29.4224 59.4575 29.3386C59.6007 29.2549 59.7516 29.2301 59.9002 29.2659Z" fill="#1B1313"/>
<path d="M69.8527 56.3663C68.9176 56.4524 67.9855 56.5481 67.0534 56.6182C66.3102 56.6724 65.5549 56.7011 64.8236 56.7298C64.6796 56.7325 64.5358 56.7176 64.395 56.6852C64.3361 56.6728 64.282 56.6419 64.2397 56.5964C64.1975 56.5509 64.1691 56.493 64.1582 56.4301C64.1413 56.365 64.1487 56.2954 64.1788 56.2359C64.209 56.1765 64.2596 56.1318 64.3201 56.1112C64.546 56.0257 64.7774 55.9575 65.0124 55.9071C66.7567 55.5499 68.4921 55.148 70.2094 54.6729C70.7219 54.5293 71.2284 54.3539 71.7349 54.2104C71.7982 54.1566 71.8642 54.1065 71.9327 54.0605C71.6782 53.9618 71.3991 53.9618 71.1445 54.0605C70.3053 54.1403 69.4661 54.2072 68.6299 54.2997C66.9545 54.4847 65.2822 54.6824 63.6068 54.8738C63.2501 54.9152 62.8905 54.9631 62.5308 54.995C62.413 54.9991 62.2952 54.9873 62.1802 54.9599C62.1599 54.9499 62.1422 54.9348 62.1286 54.9159C62.115 54.897 62.106 54.8749 62.1022 54.8514C62.0945 54.7797 62.1081 54.7072 62.1412 54.6442C62.2161 54.5293 62.345 54.5262 62.4649 54.5102C63.5618 54.3667 64.6588 54.2104 65.7617 54.0797C67.4341 53.882 69.1085 53.6927 70.7849 53.512C71.5491 53.4291 72.3194 53.3749 73.0866 53.3143C73.2782 53.3 73.4705 53.3 73.6621 53.3143C73.735 53.3162 73.8055 53.3425 73.8636 53.3895C73.9217 53.4364 73.9644 53.5016 73.9858 53.5758C74.0083 53.6509 74.004 53.7322 73.9735 53.804C73.9431 53.8758 73.8887 53.9331 73.8209 53.9649C73.5924 54.1038 73.3539 54.2232 73.1076 54.3221C72.0856 54.7111 71.0456 55.0205 69.9966 55.3011C69.622 55.4032 69.2533 55.5116 68.8817 55.62C68.6539 55.8178 68.3542 55.7954 68.0994 55.9039C67.9732 55.9077 67.8481 55.9302 67.7278 55.9708C67.7089 55.9822 67.6869 55.9862 67.6656 55.9821C67.6442 55.9781 67.6249 55.9662 67.6109 55.9485C67.6259 55.9645 67.6469 55.9963 67.6559 55.9932C67.8926 55.9102 68.1474 55.9294 68.3812 55.8369C68.6809 55.6711 69.0196 55.9485 69.3313 55.7891C69.7838 55.7508 70.2304 55.7157 70.6919 55.6679C71.1211 55.6078 71.5546 55.5908 71.9867 55.6168C72.0568 55.6252 72.1229 55.6558 72.1763 55.7048C72.2298 55.7537 72.2682 55.8186 72.2864 55.8911C72.3051 55.9529 72.3057 56.0192 72.288 56.0814C72.2703 56.1435 72.2353 56.1984 72.1875 56.2387C72.0685 56.362 71.9356 56.4691 71.7919 56.5576C71.4956 56.7253 71.1881 56.8692 70.8718 56.9882C69.5019 57.4454 68.0983 57.7793 66.6758 57.9864C66.3371 58.0374 66.1333 57.9417 66.1573 57.7568C66.1933 57.4889 66.4121 57.4889 66.5949 57.4602C67.7564 57.2641 68.9077 57.0055 70.0446 56.6852C70.2304 56.6342 70.4102 56.564 70.593 56.5034C70.593 56.4428 70.8388 56.3982 70.623 56.3344C70.3698 56.2559 70.0995 56.2671 69.8527 56.3663ZM69.1484 48.993C69.2404 49.0151 69.3284 49.0528 69.4092 49.1046C69.4446 49.1298 69.4739 49.1635 69.4948 49.203C69.5158 49.2424 69.5277 49.2866 69.5298 49.3318C69.5318 49.3771 69.5239 49.4222 69.5066 49.4636C69.4893 49.505 69.4631 49.5415 69.4302 49.5702C69.2264 49.7511 68.9881 49.8828 68.7318 49.9561C68.0022 50.2161 67.2533 50.4103 66.493 50.5365L60.7985 51.4933L58.4458 51.8696C58.281 51.9094 58.11 51.9094 57.9452 51.8696C57.898 51.8594 57.8546 51.8346 57.8205 51.7983C57.7864 51.762 57.763 51.7158 57.7534 51.6655C57.7445 51.6146 57.7532 51.5619 57.778 51.5173C57.8028 51.4727 57.842 51.4393 57.8883 51.4231C58.0012 51.3801 58.1176 51.348 58.236 51.3275C60.5647 50.9575 62.8935 50.594 65.2222 50.2144C65.9565 50.0933 66.6848 49.921 67.4161 49.7712C67.566 49.7569 67.7078 49.6921 67.8207 49.5862C67.7608 49.4299 67.6259 49.5128 67.539 49.5128C65.5409 49.5426 63.5428 49.5756 61.5448 49.6117H60.8944C60.7735 49.6128 60.6567 49.5649 60.5677 49.4778C60.4658 49.3789 60.4628 49.1397 60.5827 49.0759C60.7281 48.9901 60.8846 48.9278 61.0473 48.8909C62.0932 48.7219 63.1452 48.5465 64.1882 48.4158C65.453 48.2563 66.7238 48.1383 67.9915 48.0076C68.0857 47.993 68.1816 47.9995 68.2733 48.0267C68.3044 48.0425 68.332 48.0652 68.3542 48.0932C68.3764 48.1213 68.3927 48.154 68.4021 48.1893C68.4055 48.225 68.4007 48.2611 68.3882 48.2944C68.3757 48.3277 68.3558 48.3573 68.3302 48.3807C68.2034 48.4517 68.0668 48.5012 67.9256 48.5274C67.4251 48.6007 66.9246 48.6581 66.4271 48.7219C65.9625 48.9579 65.453 48.8527 65.1143 48.9292C66.3641 48.8814 67.7578 48.9101 69.1484 48.993Z" fill="#020100"/>
<path d="M54.6473 37.8063C55.1094 37.8475 55.5654 37.8832 56.0367 37.93C56.3794 37.9629 56.7191 38.0069 57.0558 38.0591C57.2015 38.0802 57.3429 38.121 57.475 38.1801C57.5475 38.1979 57.6123 38.2349 57.661 38.2863C57.7097 38.3377 57.74 38.4011 57.7479 38.4682C57.7558 38.5353 57.7411 38.6029 57.7055 38.6624C57.6699 38.7218 57.6152 38.7702 57.5485 38.8013C57.344 38.921 57.1214 39.0136 56.8874 39.0761C56.3274 39.2328 55.7582 39.373 55.189 39.5022C53.8669 39.8119 52.5336 40.1115 51.1891 40.401C50.9499 40.4478 50.7077 40.4808 50.4638 40.4999C50.4138 40.5011 50.3651 40.4858 50.3267 40.457C50.2884 40.4281 50.2632 40.3877 50.2557 40.3433C50.2441 40.2996 50.2504 40.2536 50.2734 40.2137C50.2964 40.1738 50.3347 40.1427 50.3812 40.1261C50.6099 40.0503 50.8428 39.9852 51.0789 39.931C52.6734 39.5709 54.2709 39.2218 55.8622 38.8617C56.1688 38.8175 56.4642 38.7244 56.7344 38.5869C56.7344 38.5374 56.762 38.5099 56.7528 38.4989C56.7436 38.4879 56.7069 38.4769 56.6855 38.4742C56.2692 38.4302 55.8561 38.3725 55.443 38.3505C54.8309 38.3175 54.2188 38.3175 53.6068 38.2873C53.2651 38.2671 52.9249 38.2304 52.5877 38.1773C52.5264 38.1675 52.4707 38.1393 52.4296 38.0974C52.3885 38.0554 52.3644 38.0022 52.3612 37.9464C52.3563 37.8909 52.3719 37.8355 52.4057 37.7888C52.4395 37.7421 52.4894 37.7067 52.5479 37.6881C52.6809 37.6322 52.8191 37.5872 52.961 37.5534C54.0995 37.2895 55.24 37.0275 56.3825 36.7673C56.6028 36.7151 56.8017 36.7865 56.8017 36.9102C56.8017 37.0339 56.6671 37.1356 56.5233 37.1851L54.6871 37.6798C54.635 37.7485 54.534 37.7018 54.4759 37.754C54.507 37.7457 54.5402 37.7462 54.5709 37.7556C54.6016 37.7649 54.6283 37.7826 54.6473 37.8063Z" fill="#040200"/>
<path d="M34.1059 45.5008C34.1398 45.5047 34.1726 45.5207 34.2014 45.5474C34.2302 45.574 34.2541 45.6106 34.2712 45.654C34.4745 46.0382 34.6778 46.4224 34.8729 46.8164C34.9836 47.0353 35.0795 47.2687 35.182 47.4949C35.2287 47.5912 35.2525 47.7074 35.2498 47.8256C35.2513 47.865 35.2433 47.9038 35.2273 47.9354C35.2113 47.9669 35.1882 47.9892 35.1622 47.9983C35.1243 48.0051 35.0861 47.9913 35.0547 47.9594C35.0157 47.9083 34.9832 47.8474 34.9588 47.7794C34.7131 47.1793 34.4426 46.6019 34.1489 46.0504C34.0952 45.9402 34.0477 45.8239 34.0067 45.7026C33.9769 45.6248 34.053 45.4886 34.1059 45.5008Z" fill="#0D0700"/>
<path d="M34.1198 44.25C34.1501 44.25 34.1862 44.25 34.2051 44.3026C34.2481 44.3803 34.2857 44.4675 34.3171 44.5623C34.5733 45.3588 34.8294 46.1589 35.0761 46.9624C35.1408 47.1887 35.1966 47.4232 35.2431 47.6642C35.2531 47.7186 35.2522 47.7778 35.2407 47.8311C35.2293 47.8845 35.2079 47.9286 35.1805 47.9555C35.1485 47.9945 35.1094 48.0086 35.0718 47.9948C35.0341 47.9811 35.0009 47.9405 34.9794 47.8818C34.9595 47.8404 34.9418 47.7957 34.9262 47.7485L34.0647 44.85C34.0203 44.7345 33.9976 44.5952 34.0002 44.4535C34.0097 44.3342 34.059 44.2816 34.1198 44.25Z" fill="#0E0700"/>
<path d="M37.75 45.164C37.7162 45.2387 37.6766 45.3121 37.6314 45.3838C37.6086 45.414 37.576 45.44 37.5363 45.4598C37.4967 45.4795 37.451 45.4925 37.403 45.4976C37.355 45.5027 37.306 45.4997 37.2598 45.4891C37.2137 45.4784 37.1718 45.4602 37.1373 45.4361C37.0377 45.3519 36.9592 45.2564 36.9051 45.1536C36.5049 44.191 35.917 43.2807 35.3883 42.3635C35.3134 42.238 35.2668 42.105 35.25 41.9694C35.25 41.9066 35.3537 41.8264 35.4377 41.7776C35.5217 41.7287 35.665 41.7497 35.7589 41.802C35.8548 41.8496 35.9328 41.9131 35.9862 41.9868C36.631 42.9088 37.1856 43.8608 37.6462 44.8362C37.6907 44.9304 37.7154 45.042 37.75 45.164Z" fill="#0E0700"/>
<path d="M37.8721 42.315C37.8315 41.8407 37.7734 41.3663 37.7501 40.892C37.7473 40.7882 37.7934 40.6858 37.8837 40.5955C37.9758 40.5427 38.0966 40.509 38.2265 40.5C38.2711 40.5011 38.3145 40.5079 38.3538 40.5199C38.393 40.5319 38.427 40.5487 38.4531 40.5692C38.5354 40.6326 38.591 40.7058 38.6158 40.7833C38.6913 41.1127 38.7669 41.4124 38.8075 41.7254C38.8773 42.3348 38.9179 42.9409 38.9818 43.547C39.0249 43.7311 38.9911 43.9184 38.8831 44.0938C38.8532 44.1435 38.7943 44.1859 38.7161 44.2141C38.638 44.2422 38.5452 44.2544 38.4531 44.2486C38.3588 44.2463 38.2687 44.2258 38.1979 44.1904C38.127 44.1551 38.0797 44.107 38.0639 44.0542C38.0094 43.8992 37.9841 43.7413 37.9883 43.5832V42.315H37.8721Z" fill="#0D0700"/>
<path d="M34.1834 48.3625C34.1326 48.2789 34.0112 48.2213 34.0022 48.1207C33.9973 48.1003 34.0007 48.0794 34.0119 48.0603C34.0232 48.0413 34.0418 48.0251 34.0656 48.0135C34.09 48.0018 34.1197 47.9975 34.1485 48.0014C34.1773 48.0053 34.2028 48.0172 34.2196 48.0344C34.5501 48.3208 34.8574 48.6206 35.1401 48.9324C35.1833 48.9857 35.2168 49.0428 35.2398 49.1023C35.2742 49.1833 35.2235 49.2186 35.0586 49.25C34.6895 48.9981 34.3922 48.6966 34.1834 48.3625Z" fill="#0E0700"/>
<path d="M35.7008 41.75C35.8331 41.7736 35.9564 41.8098 36.065 41.8568C36.1488 41.9262 36.2072 42.0035 36.2372 42.0846C36.714 42.9853 37.1908 43.8646 37.6544 44.7867C37.8663 45.1961 37.714 45.5236 37.3166 45.4987C36.6941 45.4987 36.6544 45.1783 36.5352 44.9397C36.1246 44.1494 35.7317 43.3556 35.3564 42.5581C35.2812 42.365 35.2456 42.168 35.2504 41.9707C35.2504 41.8604 35.4359 41.7892 35.7008 41.75Z" fill="#100900"/>
<path d="M35.2043 50.8147C35.2266 51.004 35.2419 51.1963 35.25 51.3901C35.25 51.6716 35.1606 51.804 35.0192 51.7295C34.8321 51.6426 34.8217 51.2742 34.7323 51.0341C34.5763 50.3925 34.3164 49.8668 34.2332 49.1425C34.1625 48.9272 34.0877 48.7285 34.0253 48.4884C33.9629 48.2484 34.0128 48.1159 34.2083 48C34.7177 48.6913 34.9859 49.7178 35.2043 50.8147Z" fill="#0C0700"/>
<path d="M39.0803 42.3395V40.9058C39.0864 40.7885 39.1545 40.6743 39.2774 40.5755C39.4028 40.5231 39.5613 40.4964 39.7226 40.5004C39.7777 40.5028 39.8308 40.5119 39.8778 40.5269C39.9247 40.5419 39.9641 40.5624 39.9927 40.5867C40.0881 40.6611 40.1481 40.7459 40.1678 40.8344C40.2774 41.8195 40.2774 42.807 40.1678 43.7921C40.1561 43.8515 40.1366 43.9104 40.1094 43.9685C40.0894 44.0433 40.0196 44.1123 39.9118 44.1636C39.804 44.215 39.6649 44.2455 39.5182 44.25C39.1679 44.25 39.0146 44.1036 39 43.9535C39 43.657 39 43.3567 39.0438 43.0564V42.3395H39.0803Z" fill="#0B0600"/>
<path d="M34 51.3662C33.9736 51.7787 33.8678 51.8259 33.3831 51.6622C33.0778 51.4221 32.8252 51.1503 32.634 50.856C32.4885 50.6986 32.3608 50.5411 32.1933 50.3805C32.0574 50.2578 31.9625 50.1146 31.9157 49.9617C31.8232 49.8641 31.7262 49.7665 31.6425 49.6657C31.3737 49.3508 31.4662 49.25 32.0831 49.25C32.8455 49.5082 33.0834 50.0688 33.5109 50.5096C33.7001 50.7871 33.8635 51.0733 34 51.3662Z" fill="#0C0700"/>
<path d="M33.9935 51.1871C34.0303 51.477 33.9198 51.7038 33.4347 51.75C32.5688 51.5568 32.4214 51.0359 32.2064 50.5277C32.0468 50.3387 31.8933 50.1454 31.709 49.9648C31.6057 49.8796 31.5376 49.777 31.5117 49.6677C31.4858 49.5584 31.503 49.4464 31.5616 49.3432C31.7075 49.2753 31.8825 49.2429 32.0585 49.2513C32.2345 49.2597 32.4012 49.3083 32.5319 49.3894C32.753 49.6288 32.9986 49.8472 33.2259 50.0824C33.5548 50.4248 33.8131 50.7965 33.9935 51.1871Z" fill="#0F0A00"/>
<path d="M35.1255 49.25C34.7816 48.8491 34.4058 48.4629 34 48.0935L34.1292 48C34.4546 48.2417 34.7358 48.5126 34.9657 48.8061C35.0667 48.9184 35.156 49.0374 35.25 49.1463C35.2007 49.1854 35.1654 49.2126 35.1255 49.25Z" fill="#BB6803"/>
<path d="M55.5616 65.5C55.6766 65.517 55.7904 65.5419 55.9022 65.5745C56.8568 65.9103 57.7549 66.4001 58.5639 67.0261C58.6975 67.1317 58.8139 67.2591 58.9087 67.4032C58.9673 67.4669 59 67.5518 59 67.64C59 67.7283 58.9673 67.8131 58.9087 67.8768C58.8834 67.9115 58.8515 67.9403 58.8149 67.9613C58.7784 67.9824 58.7379 67.9951 58.6963 67.9989C58.6547 68.0026 58.6128 67.9972 58.5734 67.9829C58.5339 67.9687 58.4977 67.946 58.4672 67.9163C58.4125 67.8768 58.3621 67.8286 58.3116 67.7847C57.5583 67.1391 56.7052 66.632 55.7887 66.285C55.6308 66.2279 55.482 66.1466 55.3472 66.0438C55.3141 66.0068 55.2885 65.9633 55.2719 65.9159C55.2553 65.8684 55.248 65.818 55.2505 65.7675C55.2505 65.6096 55.3682 65.5395 55.5616 65.5Z" fill="#110900"/>
<path d="M58.9897 67.7325C58.9728 67.8095 58.9373 67.8772 58.8886 67.9254C58.8399 67.9736 58.7805 67.9998 58.7196 68C58.5646 67.9755 58.4153 67.909 58.281 67.8045C57.4367 67.1692 56.5376 66.6684 55.6029 66.3129C55.4228 66.2512 55.2388 66.138 55.2505 65.8242C55.2623 65.5105 55.4815 65.4487 55.7791 65.5362C56.8468 65.8781 57.8668 66.4388 58.8018 67.1976C58.8745 67.2457 58.9327 67.3248 58.9668 67.422C59.001 67.5191 59.009 67.6286 58.9897 67.7325Z" fill="#110A00"/>
<path d="M55.4503 68C55.5428 68.0145 55.6337 68.0332 55.7222 68.0561C56.3765 68.27 56.986 68.5395 57.5354 68.8578C57.5727 68.8792 57.6071 68.9026 57.6382 68.928C57.7772 69.0362 57.7893 69.1624 57.6593 69.2226C57.5294 69.2827 57.3843 69.2346 57.2755 69.1685C56.738 68.8454 56.1434 68.5668 55.5047 68.3387C55.415 68.311 55.3364 68.2699 55.275 68.2185C55.2586 68.1981 55.25 68.1754 55.25 68.1523C55.25 68.1292 55.2586 68.1065 55.275 68.0862C55.2961 68.0421 55.3808 68.0281 55.4503 68Z" fill="#110900"/>
<path d="M57.8937 64.25C57.9344 64.2554 57.9748 64.269 58.0144 64.2906C58.311 64.4649 58.6014 64.6902 58.883 64.9645C58.9128 64.9957 58.9402 65.0379 58.964 65.0893C58.9807 65.1218 58.9924 65.1658 58.9974 65.2147C59.0023 65.2635 59.0002 65.3147 58.9914 65.3607C58.9829 65.4068 58.9679 65.4452 58.9488 65.47C58.9297 65.4948 58.9075 65.5046 58.8858 65.498C58.8424 65.4881 58.7998 65.4639 58.7595 65.4262C58.4679 65.1394 58.167 64.9047 57.8594 64.7242C57.838 64.7163 57.8178 64.6971 57.8004 64.6681C57.7818 64.6425 57.7672 64.6045 57.7586 64.5592C57.7499 64.5139 57.7478 64.4636 57.7523 64.4154C57.7606 64.328 57.7894 64.2968 57.8196 64.2718C57.8439 64.2599 57.8687 64.2526 57.8937 64.25Z" fill="#120B00"/>
<path d="M57.75 69.062C57.75 69.1956 57.5502 69.281 57.4104 69.2394C57.3201 69.2242 57.236 69.1997 57.1627 69.1671C56.6643 68.8942 56.1302 68.6416 55.5646 68.4115C55.4675 68.3673 55.3827 68.3157 55.3129 68.2582C55.2722 68.2314 55.25 68.1977 55.25 68.1629C55.25 68.1281 55.2722 68.0944 55.3129 68.0676C55.3447 68.0369 55.3975 68.0143 55.4597 68.0049C55.5218 67.9954 55.5883 67.9999 55.6445 68.0172C56.363 68.2748 57.0229 68.5785 57.6102 68.9218C57.675 68.9623 57.7228 69.0102 57.75 69.062Z" fill="#140B00"/>
<path d="M54.1944 69.25C54.2415 69.2554 54.2872 69.281 54.3277 69.3247C54.6598 69.8556 54.958 70.4516 55.2167 71.1014C55.2416 71.1731 55.253 71.2573 55.2493 71.3415C55.2469 71.4628 55.2242 71.58 55.1841 71.6777C55.1263 71.7348 55.0601 71.759 54.9945 71.747C54.9474 71.7384 54.9034 71.7007 54.87 71.6403C54.5915 71.0694 54.3159 70.4985 54.0492 69.9169C54.011 69.8131 53.9943 69.6885 54.0017 69.5648C54.0118 69.4829 54.0358 69.4086 54.0703 69.3523C54.1048 69.2959 54.1481 69.2602 54.1944 69.25Z" fill="#140A00"/>
<path d="M75.25 44.8563C75.2448 45.0289 75.1762 45.1925 75.0589 45.3126C74.9415 45.4326 74.7845 45.4997 74.6212 45.4996C74.4683 45.5051 74.3191 45.4488 74.2042 45.3421C74.0892 45.2354 74.017 45.0864 74.0024 44.9254C73.9951 44.8404 74.0045 44.7547 74.0301 44.6737C74.0556 44.5927 74.0967 44.5182 74.1508 44.4548C74.2049 44.3914 74.2708 44.3405 74.3444 44.3053C74.418 44.2701 74.4976 44.2513 74.5784 44.2502C74.7413 44.2461 74.9 44.3056 75.0239 44.4175C75.1478 44.5293 75.2284 44.6856 75.25 44.8563Z" fill="#0B0A0A"/>
<path d="M79.6172 44.2543C79.693 44.2448 79.7698 44.2511 79.8431 44.2727C79.9164 44.2943 79.9847 44.3309 80.0438 44.3802C80.1029 44.4296 80.1517 44.4906 80.1871 44.5597C80.2225 44.6287 80.2439 44.7044 80.25 44.7821C80.2519 44.9624 80.1868 45.1367 80.068 45.2699C79.9491 45.4031 79.7853 45.4853 79.6095 45.5C79.4545 45.4941 79.3069 45.4305 79.1946 45.3211C79.0824 45.2117 79.0131 45.0641 79 44.9062C79.0065 44.739 79.0731 44.5802 79.1869 44.4599C79.3008 44.3397 79.454 44.2665 79.6172 44.2543Z" fill="#0A0808"/>
<path d="M70.8175 36.7304C70.7324 36.7223 70.6492 36.6792 70.5735 36.6043C70.4978 36.5293 70.4313 36.4241 70.3785 36.2958C70.3257 36.1674 70.2878 36.0189 70.2674 35.8602C70.247 35.7014 70.2445 35.5362 70.2601 35.3754C70.2579 35.208 70.2756 35.0418 70.312 34.8896C70.3484 34.7374 70.4025 34.6031 70.4701 34.4972C70.5377 34.3913 70.617 34.3165 70.702 34.2786C70.787 34.2406 70.8754 34.2405 70.9604 34.2782C71.1277 34.3517 71.2749 34.5415 71.3736 34.811C71.4723 35.0804 71.5156 35.4105 71.495 35.7375C71.4888 35.8914 71.4657 36.0411 71.4273 36.1768C71.3888 36.3125 71.3359 36.4311 71.272 36.5248C71.208 36.6185 71.1345 36.6853 71.0562 36.7207C70.9779 36.7562 70.8965 36.7595 70.8175 36.7304Z" fill="#0A0808"/>
<path d="M75.2501 30.2955C75.2474 30.1187 75.2928 29.9442 75.3818 29.7901C75.4708 29.6359 75.6001 29.5076 75.7566 29.4181C75.9141 29.3088 76.1025 29.25 76.2959 29.25C76.4892 29.25 76.6776 29.3088 76.8351 29.4181C77.132 29.573 77.3872 29.794 77.5799 30.0631C77.7033 30.2634 77.7618 30.4953 77.748 30.7285C77.7342 30.9617 77.6486 31.1854 77.5025 31.3705C77.3478 31.5483 77.138 31.6722 76.9047 31.7236C76.6715 31.775 76.4275 31.751 76.2095 31.6553C75.9298 31.5463 75.6894 31.359 75.5187 31.117C75.348 30.8751 75.2545 30.5892 75.2501 30.2955Z" fill="#0F0E0E"/>
<path d="M90.2444 37.4119C90.2582 37.5587 90.1461 37.7021 89.9319 37.8119C89.7177 37.9216 89.4182 37.9891 89.0967 38C88.7259 37.9905 88.3779 37.9155 88.1265 37.7909C87.8751 37.6663 87.7403 37.5019 87.7505 37.3327C87.7521 37.2545 87.7879 37.1772 87.8558 37.1054C87.9237 37.0336 88.0223 36.9686 88.146 36.9144C88.2696 36.8602 88.4157 36.8177 88.5758 36.7895C88.7358 36.7613 88.9066 36.748 89.0781 36.7502C89.4228 36.7701 89.737 36.8502 89.9546 36.9736C90.1722 37.0971 90.2761 37.2542 90.2444 37.4119Z" fill="#0B0707"/>
<path d="M85.8331 41.8883C85.6013 41.7673 85.3313 41.7238 85.0688 41.7653C84.8063 41.8067 84.5673 41.9305 84.3922 42.1157C84.3135 42.2036 84.2397 42.295 84.171 42.3898C84.0892 42.5102 84.0352 42.6448 84.0124 42.7853C83.9895 42.9258 83.9984 43.0691 84.0383 43.2063C84.0967 43.4291 84.2019 43.6391 84.348 43.8245C84.4377 43.9364 84.5506 44.0308 84.6803 44.102C84.8099 44.1733 84.9536 44.2201 85.103 44.2396C85.2523 44.2592 85.4044 44.2511 85.5504 44.2158C85.6964 44.1806 85.8333 44.1189 85.9532 44.0344C86.1333 43.9047 86.2768 43.7368 86.3716 43.545C86.4665 43.3532 86.5099 43.1431 86.4981 42.9325C86.4863 42.722 86.4197 42.5171 86.304 42.3354C86.1882 42.1536 86.0267 42.0002 85.8331 41.8883Z" fill="#0E0B0B"/>
<path d="M79.9283 44.2433C78.3659 44.1946 76.8765 43.5135 75.7523 42.3336C75.1885 41.7692 74.7409 41.0815 74.4391 40.3158C74.1372 39.5501 73.9878 38.7237 74.0008 37.8908C74.0137 37.058 74.1887 36.2375 74.5142 35.4833C74.8397 34.7292 75.3084 34.0583 75.8895 33.5149C77.0725 32.4021 78.5785 31.7776 80.1432 31.7509C81.7078 31.7242 83.2311 32.2971 84.4458 33.3689C87.4546 36.1058 87.1215 40.9713 83.6873 43.2246C82.5507 43.9503 81.2454 44.304 79.9283 44.2433Z" fill="#F38704"/>
<path d="M75.4123 41.75C75.2843 41.7195 75.2389 41.6309 75.2522 41.5479C75.279 41.4188 75.3202 41.2933 75.3749 41.1741C75.7035 40.4024 76.0777 39.6525 76.4953 38.9287C77.3755 37.3561 78.2531 35.7807 79.1414 34.222C79.3361 33.8787 79.5548 33.5464 79.7762 33.2225C79.9336 32.9899 80.083 32.9456 80.1896 33.0619C80.2963 33.1782 80.2457 33.3388 80.1603 33.4772C79.0613 35.1384 78.1704 36.9463 77.1755 38.6823C76.6445 39.5677 76.1627 40.4837 75.7324 41.4261C75.6886 41.527 75.6301 41.6204 75.559 41.7029C75.5217 41.75 75.447 41.75 75.4123 41.75Z" fill="#060300"/>
<path d="M75.4907 38C75.3645 38 75.2772 37.954 75.2513 37.8594C75.2422 37.7569 75.2801 37.6553 75.3581 37.5731L78.0749 33.6262C78.2022 33.4489 78.3437 33.2781 78.4986 33.115C78.5175 33.0879 78.5433 33.0643 78.5745 33.0455C78.6056 33.0268 78.6413 33.0134 78.6793 33.0061C78.7174 32.9989 78.7569 32.9981 78.7954 33.0036C78.8339 33.0091 78.8705 33.021 78.9029 33.0383C79.0484 33.138 79.0064 33.2556 78.932 33.3706L78.8932 33.4243C77.8453 34.7715 76.9526 36.1876 75.9629 37.5578C75.8769 37.6838 75.7818 37.8058 75.6783 37.9233C75.6362 37.9693 75.5457 37.9821 75.4907 38Z" fill="#080400"/>
<path d="M82.7388 36.9018C82.7869 37.0598 82.67 37.171 82.584 37.2881L80.4721 40.2139C80.2004 40.5942 79.9424 40.9805 79.6707 41.3608C79.5873 41.4797 79.4906 41.5914 79.3818 41.6944C79.3634 41.7119 79.3409 41.7259 79.3157 41.7355C79.2905 41.745 79.2632 41.75 79.2356 41.75C79.208 41.75 79.1807 41.745 79.1555 41.7355C79.1303 41.7259 79.1078 41.7119 79.0894 41.6944C79.061 41.6708 79.0384 41.6426 79.023 41.6114C79.0076 41.5802 78.9998 41.5468 79 41.513C79.0321 41.4001 79.0831 41.2917 79.1513 41.1911C80.0525 39.7984 81.0362 38.4467 82.0165 37.095C82.0981 36.946 82.2396 36.8267 82.4154 36.7585C82.5358 36.7234 82.7388 36.8024 82.7388 36.9018Z" fill="#090500"/>
<path d="M82.75 38.2059C82.7232 38.2754 82.6913 38.3435 82.6545 38.4096C82.0237 39.4316 81.391 40.451 80.7563 41.4681C80.6724 41.6022 80.6087 41.7861 80.3657 41.7438C80.2355 41.724 80.1892 41.55 80.3657 41.2767C80.9617 40.3078 81.5405 39.3313 82.1308 38.3599C82.1806 38.2267 82.2765 38.1097 82.4057 38.0245C82.466 37.9996 82.5345 37.9935 82.5995 38.0071C82.6892 38.027 82.7211 38.1065 82.75 38.2059Z" fill="#0A0600"/>
</svg>
