<svg width="188" height="156" viewBox="0 0 188 156" fill="none" xmlns="http://www.w3.org/2000/svg">
<path d="M47.228 31.8423L47.2236 31.8425C47.2165 31.8428 47.2095 31.8409 47.2032 31.8369L47.1998 31.8347C46.6185 31.4734 46.0214 31.1515 45.4113 30.8704C44.8063 30.5885 44.1792 30.3155 43.5695 30.0966L43.619 30.1054L43.6101 30.1057C43.5949 30.1062 43.5798 30.1038 43.5653 30.0985L43.5531 30.0939C40.3316 28.8554 36.9867 28.1649 33.612 28.0418C31.9301 27.9807 30.2467 28.0465 28.5714 28.2388L23.4935 28.7646C20.1072 29.0994 16.7144 29.3388 13.3233 29.6034C9.93143 29.8553 6.54099 30.1284 3.15539 30.474L3.22784 30.1562C3.82693 30.6897 4.37498 31.3044 4.86161 31.9886C5.34308 32.681 5.75343 33.4431 6.08347 34.2579C6.4028 35.0781 6.6559 35.9346 6.83914 36.8152C7.01274 37.6977 7.12411 38.5968 7.17203 39.5026C7.25437 41.313 7.15502 43.1289 6.87624 44.9096C6.61255 46.6981 6.19874 48.4485 5.64139 50.1327L5.23816 49.4966C7.62036 48.945 10.0018 48.3886 12.3871 47.8584L19.5402 46.2489L19.1494 46.6806L19.2012 46.4924L19.1854 46.5436C19.5315 45.2016 20.2443 44.0467 21.2037 43.2733C22.1573 42.5019 23.2884 42.1278 24.4291 42.2064C25.5748 42.2966 26.6617 42.8597 27.5128 43.804C27.6239 43.9132 27.7242 44.0379 27.8117 44.1757L28.0881 44.5739C28.2539 44.8544 28.4067 45.146 28.5458 45.4475C28.6781 45.7465 28.7684 46.0539 28.8808 46.357C28.9332 46.5095 28.9902 46.6604 29.0383 46.8142L29.1563 47.2841C29.7256 49.7693 29.9444 52.3553 29.8034 54.9308C29.7097 57.4715 29.4188 59.9955 28.9345 62.4685L28.577 62.0287L33.3855 60.7963L38.204 59.6155C38.2161 59.6125 38.2287 59.6155 38.2391 59.6237C38.2495 59.6319 38.2568 59.6448 38.2596 59.6596C38.2624 59.6744 38.2603 59.6899 38.2538 59.7028C38.2474 59.7158 38.2371 59.7252 38.2251 59.7289L33.4728 61.2567L28.712 62.7404C28.6641 62.7553 28.6139 62.7552 28.5661 62.74C28.5182 62.7249 28.4743 62.6952 28.4383 62.6537C28.4022 62.6123 28.3753 62.5604 28.36 62.5028C28.3447 62.4452 28.3414 62.3838 28.3505 62.3243L28.3544 62.3005C28.7386 59.86 28.958 57.3847 29.0105 54.9C29.0969 52.4475 28.8424 49.995 28.258 47.6471L28.1453 47.2183C28.1003 47.0799 28.0473 46.9465 27.9989 46.8103C27.8963 46.544 27.8102 46.2574 27.6958 46.0074C27.5661 45.7752 27.4646 45.517 27.3174 45.3031L27.092 44.9874C27.0227 44.8765 26.9414 44.7776 26.8504 44.6934C26.1611 43.9489 25.2872 43.511 24.3698 43.4505C23.4482 43.3857 22.5341 43.686 21.7624 44.307C20.994 44.9284 20.419 45.8492 20.1304 46.9207L20.1146 46.9722C20.1122 46.9868 20.1085 47.0011 20.1036 47.0148L20.0717 47.1036C20.0393 47.1925 19.9897 47.2702 19.9271 47.3301C19.8645 47.3899 19.7908 47.4299 19.7126 47.4467L12.5421 48.9346C10.1528 49.4369 7.75967 49.9129 5.36733 50.3938C5.30092 50.4072 5.23281 50.3983 5.17017 50.3682C5.10753 50.3381 5.05267 50.2878 5.01138 50.2227C4.9701 50.1575 4.94391 50.08 4.93558 49.9981C4.92724 49.9163 4.93707 49.8332 4.96403 49.7576C5.53255 48.1476 5.97587 46.4754 6.2881 44.7633C6.61288 43.0486 6.75894 41.2903 6.72278 39.5306C6.6993 38.6534 6.61442 37.7804 6.46909 36.921C6.31511 36.0649 6.08367 35.2325 5.77906 34.4392C5.46856 33.6499 5.08031 32.9102 4.623 32.2366C4.15842 31.5681 3.63393 30.9659 3.05943 30.4412L3.05543 30.4374C3.0326 30.4157 3.01567 30.386 3.00685 30.3522C2.99802 30.3185 2.99772 30.2823 3.00598 30.2483C3.01425 30.2144 3.03069 30.1842 3.05315 30.1619C3.07561 30.1396 3.10304 30.1262 3.13186 30.1233C6.51802 29.7861 9.89952 29.3791 13.2792 28.946C16.6598 28.5264 20.0388 28.0817 23.4241 27.7323L28.5036 27.2319C30.2134 27.0531 31.9313 27.0209 33.6447 27.1354C35.3574 27.2517 37.0605 27.5259 38.7396 27.9558C40.4171 28.3719 42.0648 28.9515 43.667 29.6891L43.6101 29.6774L43.619 29.6777L43.6324 29.6782C43.6448 29.6787 43.657 29.6815 43.6687 29.6865C44.3037 29.9645 44.8978 30.2734 45.5023 30.6045C46.1035 30.9335 46.6864 31.3106 47.2472 31.7335L47.2237 31.7258L47.2281 31.726C47.2404 31.7266 47.252 31.7329 47.2605 31.7438C47.269 31.7546 47.2737 31.7691 47.2737 31.7841C47.2737 31.7992 47.269 31.8136 47.2605 31.8245C47.252 31.8353 47.2403 31.8417 47.228 31.8423ZM67.9932 47.3539C67.7226 45.6924 67.1794 44.1155 66.3966 42.7189C66.0061 42.0494 65.5568 41.4344 65.0569 40.8848C64.5506 40.3426 64.008 39.8537 63.4348 39.4232C62.2573 38.5794 61.001 37.9129 59.6931 37.4383C58.3669 36.946 57.0108 36.584 55.6376 36.3557L55.6111 36.3525C55.1418 36.1922 54.6741 36.021 54.208 35.8389C54.6968 35.8683 55.1835 35.911 55.6688 35.9635L55.6425 35.9603C57.0764 35.8835 58.512 36.051 59.9083 36.458C61.3264 36.8494 62.683 37.5216 63.9246 38.448C65.1907 39.3829 66.2447 40.6929 66.9898 42.2574C67.7064 43.8079 68.054 45.5735 67.9932 47.3539Z" fill="black"/>
<path d="M23.2898 42.331C24.134 41.9463 24.9877 41.6114 25.8472 41.3076C26.706 40.9997 27.5692 40.7154 28.4369 40.4546C29.302 40.1801 30.1766 39.9562 31.0478 39.7142C31.9239 39.4978 32.7983 39.2716 33.681 39.0899L33.885 39.0479L34.0132 39.1631C34.3751 39.4923 34.709 39.8619 35.0102 40.267C35.3092 40.6524 35.5839 41.0629 35.832 41.4954C36.0808 41.9226 36.304 42.3696 36.5001 42.8332C36.6977 43.2919 36.8649 43.7678 37 44.2569C36.7472 43.8403 36.4868 43.4371 36.2189 43.0473C35.9472 42.658 35.6731 42.2696 35.3871 41.9171C35.0952 41.5597 34.7965 41.2139 34.4862 40.8884C34.183 40.5745 33.8656 40.2804 33.5351 40.0073L33.8672 40.0805C33.002 40.3536 32.1285 40.5827 31.2575 40.8254C30.3814 41.0415 29.5087 41.2756 28.6265 41.4592C27.7472 41.6581 26.8632 41.8318 25.9743 41.9803C25.0866 42.1346 24.1929 42.2577 23.2898 42.331ZM11 29.5293C12.0348 30.656 12.8491 32.0341 13.3864 33.5682C13.9482 35.102 14.3027 36.7299 14.4369 38.3927C14.5492 40.0515 14.4627 41.7206 14.1801 43.3511C14.146 43.5537 14.1198 43.7578 14.0791 43.9583L13.9345 44.5537L13.631 45.7342C13.3859 46.5037 13.0991 47.254 12.7983 47.9861C12.8962 47.1694 13.0578 46.3866 13.1704 45.5944L13.3124 44.404L13.3907 43.8139C13.4117 43.6167 13.4181 43.417 13.4325 43.2192C13.456 42.8224 13.4828 42.4277 13.5182 42.0348C13.5432 41.6408 13.5301 41.2447 13.5382 40.851C13.5533 40.0649 13.5314 39.2785 13.4727 38.4952C13.3497 36.9291 13.0848 35.383 12.6825 33.8832C12.2772 32.3554 11.712 30.8929 11 29.5293Z" fill="black"/>
<path d="M36.5968 41.4354C37.3065 41.1063 38.0208 40.7827 38.7395 40.4759C38.6997 40.8402 38.6787 41.2073 38.6766 41.5749C38.0612 41.8148 37.4413 42.0435 36.8169 42.2667C36.3946 42.4173 35.9724 42.5679 35.5457 42.7185C35.4873 42.607 35.4289 42.5009 35.3705 42.4005C35.3121 42.2945 35.2492 42.1941 35.1953 42.0993C35.6624 41.8706 36.1296 41.653 36.5968 41.4354ZM43.6762 39.5498C43.1282 39.7841 42.5892 40.0184 42.0411 40.2471H42.0366C41.866 39.9115 41.6672 39.5992 41.4437 39.3155L41.6458 39.2318C42.2523 38.9863 42.8587 38.7408 43.4651 38.5009C43.537 38.8803 43.6133 39.2318 43.6762 39.5498ZM40.5902 35.8733C41.4931 35.5107 42.396 35.1481 43.3034 34.7966C43.2053 35.1711 43.1583 35.5633 43.1641 35.957C42.405 36.2917 41.6369 36.6097 40.8732 36.9333C39.1797 37.6195 37.4772 38.2945 35.7613 38.9026C34.9662 39.1927 34.1666 39.4698 33.3625 39.7339C32.4371 40.0407 31.5118 40.3308 30.573 40.5819C30.9458 40.3754 31.3186 40.169 31.696 39.9682C31.7005 39.9682 31.7005 39.9682 31.7049 39.9626C32.9717 39.2932 34.2564 38.6739 35.5412 38.0769C37.2122 37.2959 38.9012 36.5818 40.5902 35.8733ZM47.6562 33.8984C47.5798 33.9375 47.5035 33.9765 47.4271 34.01C47.2307 33.8059 47.0093 33.642 46.7713 33.5246C47.0138 33.4409 47.2564 33.3572 47.499 33.2736C47.5574 33.5079 47.6113 33.7199 47.6562 33.8984ZM5.14446 49.8852C-4.9969 38.3895 2.98463 29.9676 2.98463 29.9676C10.0727 36.342 5.14446 49.8852 5.14446 49.8852ZM28.5015 62.499C20.133 65.5992 19.478 46.7457 19.478 46.7457C19.4879 46.707 19.4978 46.6685 19.5078 46.6304C20.766 41.8302 26.1594 41.2093 28.02 45.6976C30.5414 51.7796 28.5015 62.499 28.5015 62.499ZM34.8139 60.2474C33.4278 64.4889 32.0098 68.6866 30.7049 72.9231C29.3714 77.1074 28.2477 81.3902 27.3401 85.747C27.126 86.8161 26.9616 87.8997 26.8477 88.9923C26.7239 90.05 26.7277 91.1248 26.8591 92.1812C26.928 92.678 27.0638 93.157 27.2606 93.5979C27.4614 94.0169 27.7396 94.3704 28.0723 94.6292C28.8317 95.1072 29.6952 95.2677 30.5341 95.0867C32.3158 94.7026 34.0301 93.9359 35.5999 92.8209C35.9985 92.5466 36.3977 92.2757 36.7915 91.9895L37.9553 91.09C38.7407 90.5116 39.4768 89.8344 40.2302 89.1983C40.981 88.5562 41.695 87.8481 42.427 87.1786L43.4901 86.1147C43.844 85.76 44.2081 85.4231 44.5494 85.0493C45.2357 84.3083 45.95 83.6137 46.6174 82.8481L47.6349 81.7262L48.6261 80.5685C49.9425 79.0194 51.2089 77.4091 52.4253 75.7376C53.6502 74.0786 54.8255 72.3645 55.9732 70.6219C58.2743 67.1282 60.417 63.478 62.3911 59.6882C63.3816 57.7896 64.3319 55.8557 65.2423 53.8864C66.1539 51.9189 67.0264 49.9146 67.821 47.8602L68 47.9392C66.925 52.3496 65.476 56.6058 63.6774 60.6362C61.9021 64.698 59.853 68.5658 57.5521 72.198C55.2265 75.8164 52.6444 79.1686 49.837 82.2145L48.7833 83.3522L47.6999 84.4464C46.9824 85.182 46.2315 85.8667 45.4809 86.5479C44.7289 87.2271 43.9481 87.8574 43.1742 88.4938C42.3776 89.0902 41.6018 89.722 40.792 90.2851C39.9831 90.85 39.1849 91.432 38.3599 91.9553C37.5423 92.4922 36.7269 93.0334 35.8914 93.5355C34.2272 94.6031 32.4523 95.3802 30.6169 95.8446C29.6381 96.1011 28.6193 95.9736 27.7014 95.4798C27.2275 95.1845 26.8175 94.7525 26.5057 94.2199C26.2126 93.6931 25.9887 93.1117 25.8426 92.4976C25.5836 91.3203 25.4699 90.101 25.5054 88.8813C25.5313 87.6985 25.6269 86.5196 25.7912 85.3541C26.1267 83.0638 26.6186 80.8132 27.2617 78.6267C27.8779 76.4445 28.5822 74.3124 29.3467 72.2182C29.7211 71.167 30.1282 70.1348 30.5381 69.106C30.9445 68.0753 31.3731 67.0583 31.8143 66.0505C32.6935 64.033 33.6203 62.0488 34.6465 60.1357L34.8139 60.2474ZM12.4872 32.411C15.0742 31.9275 17.6682 31.56 20.2645 31.2334C22.8605 30.8995 25.4605 30.6343 28.0614 30.3825C30.6635 30.1526 33.2666 29.9375 35.8737 29.7909C38.4805 29.6369 41.0896 29.5247 43.7059 29.5294C41.119 30.0144 38.525 30.3824 35.9287 30.7087C33.3327 31.0424 30.7326 31.3075 28.1317 31.5579C25.5294 31.7863 22.9264 32.0014 20.3192 32.1477C17.7125 32.3014 15.1033 32.4142 12.4872 32.411Z" fill="black"/>
<path d="M44.8148 86.1301C44.4491 82.0752 44.0974 78.0138 43.7824 73.948L43.6618 72.4234L43.6014 71.6611C43.5954 71.6016 43.5936 71.5249 43.5841 71.4796C43.5731 71.4435 43.5641 71.4064 43.5572 71.3687C43.5267 71.2668 43.4919 71.167 43.453 71.0697C43.0927 70.216 42.6199 69.3619 42.1811 68.5096C41.2857 66.8033 40.4221 65.0539 39.6502 63.2327C39.2683 62.319 38.9085 61.3875 38.594 60.4261C38.2829 59.4525 38.0221 58.4831 37.7519 57.5259C37.2093 55.6039 36.6715 53.68 36.1537 51.7474L35.3681 48.8523L35.1716 48.1285C35.0951 47.8546 35.0438 47.5707 35.0187 47.2822C34.9639 46.6955 35.0301 46.1011 35.2108 45.5553C35.3907 44.9745 35.7329 44.4947 36.1739 44.2049C36.6298 43.9546 37.1444 43.9288 37.6149 44.1327C38.424 44.5123 39.1623 45.095 39.7843 45.845L39.2989 46.186C39.1866 45.2014 39.1145 44.2103 39.083 43.2166C39.0676 42.7207 39.0652 42.2193 39.0811 41.7229C39.1148 41.2224 39.1308 40.7138 39.1983 40.2172C39.2564 39.6883 39.4074 39.182 39.6405 38.7346C39.7796 38.4834 39.9848 38.3013 40.2204 38.22C40.4466 38.1619 40.681 38.1781 40.9008 38.2669C41.6939 38.604 42.3595 39.2956 42.7698 40.2087L42.6289 40.1127H42.6332L42.7246 40.1133L42.7731 40.2067C43.0444 40.7503 43.2899 41.3134 43.5085 41.8929C43.61 42.1684 43.729 42.4333 43.8645 42.685C43.948 42.8088 43.9468 42.8071 44.0657 42.8157C44.103 42.8204 44.1405 42.8108 44.1733 42.788C44.2061 42.7653 44.2326 42.7305 44.2491 42.6885C44.3315 42.4241 44.3645 42.1397 44.3457 41.8569C44.3393 41.5469 44.3198 41.2375 44.2873 40.93C44.224 40.3084 44.1261 39.6931 43.9944 39.0886C43.8601 38.473 43.7518 37.8491 43.6701 37.2193C43.5773 36.5751 43.5701 35.9162 43.6489 35.2692C43.6983 34.9338 43.7979 34.613 43.9425 34.3238C44.0946 34.0314 44.302 33.7906 44.5464 33.6226C45.029 33.3273 45.5658 33.198 46.1016 33.2478L46.074 33.2494C46.3025 33.2219 46.5328 33.2314 46.7594 33.2777C46.9836 33.3229 47.2029 33.4005 47.4128 33.5088C47.8375 33.7312 48.2055 34.0943 48.4772 34.559L48.4601 34.5342C48.4954 34.5809 48.516 34.6422 48.518 34.7065L48.5147 35.6479L48.1694 34.8101L48.1649 34.7992L48.1606 34.7887L48.1532 34.7623C47.5348 32.7126 47.1182 30.5765 46.9124 28.4011C46.8689 27.8374 46.8751 27.2696 46.9309 26.7076C46.9727 26.081 47.1898 25.4929 47.5441 25.0467C47.751 24.8229 48.0038 24.676 48.274 24.6227C48.5358 24.5844 48.8011 24.6182 49.0514 24.7217C49.4985 24.9314 49.9072 25.2519 50.2528 25.664C50.9018 26.4352 51.4722 27.3036 51.9511 28.2495C52.4337 29.1685 52.8772 30.1188 53.2797 31.0963C54.118 33.0346 54.7795 35.0846 55.2517 37.2077C55.7017 39.3098 56.1265 41.3926 56.7036 43.4026C57.2857 45.3878 57.9882 47.3852 59.1058 48.833C59.6242 49.5433 60.3191 50.0142 61.0781 50.1695C61.4679 50.2202 61.8615 50.2003 62.2466 50.1101C62.6571 50.0394 63.0634 49.9352 63.463 49.7981C64.2646 49.5267 65.0375 49.1371 65.7655 48.6375C66.4856 48.1456 67.1508 47.5375 67.7441 46.8288L68.2209 46.237L68.4748 46.9612C68.7501 47.7747 68.9173 48.639 68.9699 49.5199C69.0272 50.374 69.0027 51.2336 68.8969 52.0805C68.6724 53.756 68.1875 55.3603 67.4695 56.8027C67.1131 57.5353 66.6794 58.2046 66.1803 58.7926C65.6724 59.3567 65.1177 59.8512 64.5256 60.2675C63.943 60.677 63.3462 61.0167 62.799 61.3983C62.2648 61.7216 61.8078 62.2146 61.4737 62.828C61.1951 63.4927 61.0478 64.231 61.0439 64.9814C61.0013 65.7799 60.9771 66.5852 60.9695 67.393C60.9534 69.0084 60.9783 70.6293 61.0244 72.2491C61.0741 73.8687 61.1244 75.49 61.2084 77.1088C61.3001 78.7245 61.3718 80.3522 61.5891 81.9443L61.5031 81.9691C61.2258 80.3711 61.0972 78.7524 60.9471 77.1368C60.8102 75.5195 60.6853 73.8999 60.6 72.2762C60.5138 70.6525 60.4486 69.0264 60.4247 67.3941C60.4123 66.5779 60.4175 65.7585 60.4402 64.9359C60.4289 64.058 60.5875 63.1897 60.9027 62.405C61.2857 61.6566 61.8195 61.0474 62.4504 60.6385C63.0319 60.2161 63.6141 59.8686 64.1579 59.4685C64.6929 59.0756 65.193 58.6127 65.6498 58.0878C66.0886 57.5499 66.4675 56.9407 66.7765 56.2766C67.4147 54.938 67.8382 53.4568 68.0235 51.9158C68.1159 51.1564 68.1356 50.3859 68.0823 49.6206C68.0349 48.8795 67.896 48.152 67.6705 47.464L68.4012 47.5963C67.0843 49.178 65.4687 50.3174 63.7049 50.9084C63.2692 51.06 62.8261 51.176 62.3784 51.2556C62.1497 51.2865 61.9403 51.3401 61.6955 51.3514L61.3283 51.3652C61.2055 51.3561 61.0824 51.3383 60.9596 51.3239C59.9909 51.1444 59.1015 50.5523 58.4416 49.6476C57.1562 47.9312 56.471 45.8285 55.878 43.7671C55.301 41.6882 54.8872 39.5601 54.4587 37.472C54.3495 36.9518 54.2406 36.4339 54.109 35.9429C53.9748 35.4424 53.8231 34.9437 53.6651 34.4478C53.3479 33.4559 52.9981 32.4761 52.6165 31.5183C52.2397 30.5601 51.8228 29.6273 51.3675 28.724C50.9299 27.8282 50.41 26.9996 49.8182 26.2552C49.5439 25.9063 49.217 25.6288 48.8563 25.4388C48.6957 25.3658 48.5246 25.3357 48.354 25.3506C48.1936 25.3774 48.0421 25.4588 47.9161 25.5857C47.6552 25.9159 47.4932 26.3484 47.4575 26.8103C47.3958 27.3227 47.3792 27.842 47.4078 28.3589C47.5685 30.4974 47.9372 32.6033 48.506 34.63L48.4943 34.5933L48.4986 34.6043L48.15 34.7079C48.1495 34.7359 48.1536 34.7637 48.1621 34.7896C48.1705 34.8154 48.1832 34.8389 48.1992 34.8583L48.182 34.8334C47.9559 34.423 47.6437 34.0985 47.2798 33.8954C46.9142 33.6946 46.5147 33.6095 46.1166 33.6475L46.0992 33.6496L46.0888 33.6491C45.6107 33.5974 45.13 33.7043 44.6955 33.9591C44.4939 34.1029 44.321 34.3019 44.1897 34.5411C44.0584 34.7804 43.9721 35.0538 43.9374 35.3407C43.8609 35.9466 43.8644 36.5641 43.9477 37.1686C44.0237 37.7889 44.1259 38.4038 44.2539 39.0106C44.3889 39.6269 44.493 40.2531 44.5656 40.8857C44.6023 41.205 44.6256 41.5265 44.6353 41.8489C44.6613 42.1985 44.6177 42.5508 44.5084 42.8742C44.4632 42.9682 44.4002 43.0468 44.3248 43.103C44.2495 43.1591 44.1642 43.1911 44.0766 43.196C43.9889 43.201 43.9017 43.1787 43.8226 43.1313C43.7435 43.0839 43.675 43.0127 43.6233 42.9242C43.4717 42.6547 43.3387 42.3695 43.2257 42.0719C43.0073 41.5098 42.7628 40.9642 42.4935 40.4378L42.6332 40.5318L42.6289 40.5318L42.538 40.5325L42.4879 40.4357C42.1211 39.6192 41.5194 39.0081 40.8051 38.7266C40.6597 38.6481 40.4968 38.6365 40.3452 38.6939C40.1936 38.7512 40.0631 38.8737 39.9768 39.0398C39.7941 39.4279 39.6804 39.8608 39.6435 40.3088C39.5913 40.7816 39.5893 41.2576 39.5678 41.7344C39.564 42.2187 39.5781 42.6988 39.6046 43.1824C39.6588 44.148 39.7516 45.1097 39.8826 46.0637L40.0179 47.0471L39.3971 46.4047C38.8271 45.7535 38.1585 45.2519 37.4308 44.9295C37.1207 44.7994 36.7829 44.8202 36.4846 44.9879C36.2058 45.1982 35.9937 45.5225 35.8842 45.9058C35.755 46.3091 35.7105 46.747 35.7548 47.1779C35.7754 47.3966 35.816 47.6116 35.8758 47.8188L36.0779 48.5412L36.886 51.4307C37.4308 53.3546 37.9555 55.2871 38.4754 57.2215C38.7387 58.1913 38.9904 59.1593 39.2763 60.0836C39.5709 61.0145 39.9125 61.9264 40.2777 62.8253C41.0121 64.6233 41.8641 66.3488 42.7194 68.083C43.1422 68.9607 43.5861 69.8007 43.9664 70.765C44.0159 70.8971 44.0586 71.033 44.0943 71.1719C44.1111 71.2584 44.1258 71.346 44.1382 71.433C44.1477 71.5126 44.147 71.5644 44.152 71.6315L44.195 72.3932L44.2811 73.9168C44.5175 77.9795 44.7172 82.0466 44.9028 86.1203L44.8148 86.1301Z" fill="black"/>
<path d="M50 40.6034L48 34.6502L48.4116 34.4512L50 40.6034Z" fill="black"/>
<path d="M116.487 20.6841C114.851 21.5668 113.147 22.3089 111.44 22.9899C109.725 23.6638 107.981 24.2161 106.218 24.6444C104.444 25.1068 102.639 25.336 100.829 25.3283C99.9104 25.3177 98.9948 25.198 98.094 24.9709C97.1658 24.7456 96.2774 24.3075 95.4721 23.678L95.5112 23.7067C94.1572 22.8459 92.7958 22.0034 91.4493 21.1236L91 20.83L91.2704 20.3342C91.3029 20.2677 91.3436 20.2082 91.3909 20.1581C91.4137 20.1309 91.4381 20.106 91.4639 20.0836C91.5047 20.0478 91.5526 20.001 91.5888 19.9769C91.6635 19.9246 91.7436 19.8599 91.8145 19.8212C91.961 19.729 92.1055 19.6501 92.248 19.5812C92.5345 19.439 92.8185 19.313 93.1036 19.2053C93.6726 18.9754 94.2452 18.8016 94.8174 18.631C95.9621 18.2947 97.1107 18.0102 98.2633 17.7775C99.4147 17.531 100.568 17.3145 101.723 17.1149C102.877 16.9066 104.033 16.7331 105.188 16.5488L105.032 16.6585L107.395 13.2137C108.184 12.0639 108.944 10.8966 109.759 9.75965C111.407 7.50995 113.315 5.59559 115.418 4.0834C116.473 3.33583 117.57 2.68692 118.699 2.14179C119.833 1.61152 120.993 1.17784 122.172 0.843604C124.534 0.0781926 126.982 -0.168964 129.409 0.112742C131.867 0.499612 134.209 1.66274 136.223 3.49639C138.227 5.35707 139.86 7.79189 140.989 10.6043C141.548 12.0095 141.984 13.4888 142.289 15.0155L142.487 16.1696C142.542 16.5518 142.595 16.9312 142.64 17.3144C142.736 18.0787 142.814 18.8473 142.874 19.6202C143.004 21.1717 143.033 22.7341 142.963 24.2918C142.897 25.8733 142.67 27.4372 142.289 28.9447L142.136 29.5309L141.673 29.3535L135.415 26.9569L129.139 24.6295C127.048 23.8539 124.951 23.1012 122.845 22.3985C121.793 22.0368 120.739 21.6958 119.68 21.3754C119.149 21.2351 118.621 21.054 118.086 20.9467L117.284 20.7637L116.487 20.6841ZM116.465 20.5619L117.3 20.5729L118.117 20.6918C118.663 20.7652 119.196 20.911 119.738 21.0172C120.812 21.2686 121.885 21.5374 122.951 21.8375C125.083 22.4402 127.205 23.0928 129.322 23.7685C131.439 24.4422 133.545 25.1714 135.651 25.8956C137.756 26.6289 139.861 27.3533 141.958 28.1335L141.341 28.5422C142.044 25.7635 142.039 22.7172 141.828 19.7513C141.772 19.0065 141.697 18.263 141.605 17.521C141.561 17.1504 141.51 16.7789 141.457 16.4114L141.273 15.3308C141 13.8962 140.606 12.5039 140.096 11.1782C139.062 8.52019 137.552 6.20878 135.689 4.43032C133.808 2.66584 131.618 1.51365 129.308 1.0741C126.964 0.721199 124.59 0.86626 122.282 1.50337C119.941 2.03502 117.681 3.03706 115.587 4.47202C113.493 5.91815 111.601 7.7964 109.989 10.0304C108.421 12.31 106.927 14.712 105.413 17.0684L105.356 17.1576L105.256 17.1783C104.11 17.4162 102.962 17.6451 101.82 17.9047C100.676 18.1558 99.5345 18.4236 98.4 18.7202C97.2646 19.0134 96.134 19.3271 95.0169 19.6793C94.4593 19.8571 93.9046 20.051 93.3646 20.2669C93.0927 20.3708 92.8274 20.491 92.5729 20.6185C92.4435 20.6816 92.3216 20.7496 92.2073 20.8223C92.1444 20.8566 92.103 20.8956 92.0498 20.9308C92.0304 20.9454 92.0116 20.9614 91.9936 20.9785C91.9834 20.9867 91.9754 20.9942 91.9812 20.9896C91.9873 20.9762 91.9648 21.0224 92.0249 20.9116L91.846 20.1225C93.2013 20.9803 94.5417 21.8755 95.8894 22.7524L95.9109 22.7664L95.9287 22.7812C97.3275 23.9422 99.1158 24.2767 100.846 24.3558C101.725 24.3832 102.603 24.3501 103.479 24.2567C104.359 24.1759 105.238 24.0406 106.113 23.8666C107.866 23.5325 109.601 23.0255 111.328 22.4805C113.058 21.9271 114.759 21.2838 116.465 20.5619Z" fill="black"/>
<path d="M127.133 3.68945C126.296 4.93938 125.438 6.1543 124.577 7.36267L121.995 10.982C121.134 12.1863 120.281 13.3981 119.434 14.6175C118.593 15.8443 117.762 17.0784 116.936 18.3413C117.549 16.8947 118.252 15.5127 119.038 14.2085C119.812 12.893 120.652 11.6474 121.511 10.4247C122.381 9.21483 123.278 8.03844 124.213 6.91182C125.142 5.77408 126.116 4.6985 127.133 3.68945ZM131.602 4.28748C132.295 5.88411 132.907 7.53477 133.435 9.22959C133.973 10.9198 134.442 12.6429 134.843 14.399C135.241 16.1562 135.551 17.9436 135.772 19.7504C135.992 21.559 136.053 23.3929 135.955 25.2187C135.8 23.4207 135.571 21.6342 135.27 19.8664C134.965 18.1062 134.606 16.3624 134.215 14.6284C133.83 12.892 133.393 11.173 132.958 9.45064C132.51 7.73378 132.068 6.01014 131.602 4.28748ZM105.137 16.9957C105.91 17.0093 106.681 17.0779 107.447 17.2013C108.211 17.3106 108.968 17.4676 109.724 17.6339C110.478 17.8154 111.23 18.0073 111.976 18.2467C112.727 18.4738 113.468 18.755 114.194 19.0888C113.422 19.0763 112.651 19.008 111.884 18.8844C111.12 18.7749 110.363 18.6179 109.607 18.4506C108.854 18.268 108.102 18.0762 107.356 17.8366C106.605 17.6093 105.864 17.3285 105.137 16.9957ZM105.137 24.5363C105.149 25.3701 105.115 26.2024 105.068 27.036C105.026 27.8774 104.932 28.7132 104.786 29.5357C104.714 29.98 104.582 30.4052 104.396 30.7926C104.229 31.1098 104.067 31.4804 103.905 31.8333C103.578 32.5462 103.263 33.2715 102.948 33.9963C102.312 35.4415 101.686 36.8939 101.071 38.3534C100.769 39.0859 100.457 39.8116 100.168 40.5483C100.022 40.916 99.8845 41.2871 99.7495 41.6554C99.6836 41.8401 99.6208 42.0253 99.5666 42.208C99.5423 42.2974 99.5132 42.3915 99.499 42.4715C99.4899 42.5052 99.4839 42.5401 99.4809 42.5755C99.48 42.5822 99.4754 42.6156 99.4756 42.6009C99.4756 42.5869 99.4728 42.5732 99.4674 42.561C99.4621 42.5488 99.4544 42.5386 99.4451 42.5312L99.325 42.4242C99.5481 42.4915 99.7774 42.5189 100.006 42.5057C100.251 42.4934 100.494 42.4517 100.733 42.3814C100.976 42.309 101.215 42.2176 101.449 42.1077C101.685 41.9931 101.916 41.8623 102.141 41.7157L102.174 41.6946L102.196 41.7001C102.425 41.7553 102.641 41.8819 102.822 42.0687C102.996 42.2544 103.12 42.5039 103.177 42.7829C103.091 42.5305 102.946 42.3179 102.761 42.1745C102.586 42.0335 102.386 41.9489 102.178 41.9281L102.233 41.9125C101.8 42.2947 101.326 42.5975 100.826 42.8122C100.569 42.9175 100.306 42.9917 100.038 43.0339C99.7549 43.0836 99.4673 43.0716 99.1874 42.9981L99.1069 42.9754L99.0673 42.891C99.036 42.8232 99.0142 42.7489 99.0031 42.6716C98.9993 42.6287 98.999 42.5854 99.0021 42.5424C99.0035 42.4742 99.0105 42.4063 99.0232 42.3399C99.0411 42.2269 99.0636 42.1152 99.0907 42.0052C99.1418 41.7949 99.1991 41.5938 99.2587 41.3952C99.3776 40.9985 99.5121 40.6145 99.6483 40.233C99.923 39.4714 100.207 38.7189 100.511 37.98C101.108 36.4955 101.746 35.0419 102.404 33.6016C102.738 32.8849 103.078 32.1732 103.429 31.466C103.608 31.1109 103.783 30.7696 103.996 30.4109C104.16 30.0951 104.284 29.7482 104.363 29.3831C104.713 27.7933 104.971 26.1735 105.137 24.5363Z" fill="black"/>
<path d="M106.752 44.1503C104.833 40.6012 102.065 42.157 102.065 42.157C102.065 42.157 100.995 59.7855 107.551 60.2652C112.541 60.6302 116.834 56.9952 119.853 53.0808C121.416 51.0433 122.406 48.4672 122.681 45.7175C123.091 41.7023 123.706 35.6365 123.862 33.8867C124.102 31.2009 125.009 24.1685 128.259 24.597C128.259 24.597 135.056 24.6782 131.538 38.7787C131.538 38.7787 130.578 47.6035 136.815 46.5484C136.815 46.5484 135.535 42.1359 137.214 38.7787C138.893 35.4214 141.101 31.177 140.996 28.2633C140.996 28.2633 118.985 20.4576 116.506 20.9372C118.032 21.9034 119.259 23.4309 120.007 25.2956C120.755 27.1602 120.986 29.2636 120.664 31.2968C119.933 36.9988 116.415 44.6507 114.783 47.9687C114.524 48.4979 114.151 48.9331 113.702 49.228C113.254 49.523 112.747 49.6666 112.236 49.6436C111.291 49.598 110.206 49.4319 109.69 48.9464C108.671 47.9872 106.752 44.1503 106.752 44.1503Z" fill="black"/>
<path d="M107 26.6618C107.457 26.2152 107.981 25.8897 108.539 25.7045C109.108 25.5018 109.701 25.439 110.288 25.5195C110.888 25.6105 111.459 25.8989 111.943 26.356C112.415 26.8023 112.776 27.4089 112.987 28.1055C112.591 27.6342 112.149 27.2295 111.672 26.9015C111.214 26.6051 110.718 26.4148 110.207 26.3395C109.684 26.266 109.157 26.2648 108.634 26.3359C108.1 26.4068 107.559 26.518 107 26.6618ZM125.463 36.8127C126.512 37.3343 127.726 37.2754 128.502 36.4021C128.894 35.9618 129.207 35.4201 129.42 34.8135C129.649 34.1898 129.832 33.5409 129.968 32.8748C130.27 31.5316 130.449 30.1485 130.501 28.7531C130.525 28.0528 130.511 27.3512 130.459 26.6532C130.434 26.3023 130.393 25.9533 130.339 25.6076C130.315 25.4328 130.28 25.2627 130.243 25.0912C130.215 24.9177 130.159 24.7532 130.079 24.6074C130.276 24.8748 130.424 25.1938 130.512 25.5417C130.617 25.8816 130.705 26.2295 130.775 26.5835C130.908 27.2952 130.987 28.0217 131.01 28.7526C131.052 30.2192 130.912 31.6852 130.596 33.0969C130.282 34.4684 129.826 35.9864 128.809 36.9142C128.309 37.3684 127.7 37.5879 127.086 37.5352C126.503 37.4862 125.942 37.2364 125.463 36.8127ZM117.872 56.0424C118.255 56.3395 118.61 56.6929 118.928 57.0954C119.248 57.4866 119.543 57.9096 119.811 58.3602C120.082 58.815 120.315 59.3039 120.508 59.8192C120.732 60.3383 120.823 60.9333 120.768 61.521C120.58 61.0303 120.346 60.57 120.071 60.1501C119.813 59.7191 119.542 59.2956 119.289 58.855C119.03 58.4176 118.779 57.9697 118.539 57.5066C118.288 57.0399 118.065 56.5505 117.872 56.0424ZM136.652 46.6364C137.067 47.4498 137.445 48.2924 137.784 49.1601C137.955 49.5751 138.125 49.9847 138.315 50.375C138.504 50.786 138.734 51.1638 139 51.4987C138.586 51.4256 138.205 51.1727 137.921 50.7832C137.631 50.4226 137.39 50.0043 137.207 49.5448C137.023 49.0986 136.881 48.6263 136.785 48.1377C136.679 47.6491 136.635 47.1425 136.652 46.6364Z" fill="black"/>
<path d="M146.502 44.4185C146.502 44.4185 138.802 45.1091 137.502 48.8828L137.736 49.4243L138.595 48.8828C142.726 46.3578 145.062 49.7116 142.191 50.3028C139.315 50.8884 122.193 60.5187 122.193 60.5187C114.768 63.099 110.416 76.9616 110.416 76.9616C111.613 76.3317 112.833 75.7681 114.043 75.1659C115.285 74.6741 116.518 74.1437 117.774 73.7072C120.295 72.8333 122.865 72.1924 125.464 71.79C128.068 71.3786 130.698 71.2787 133.317 71.4917C133.969 71.58 134.622 71.6298 135.274 71.7458C135.918 71.884 136.57 71.9779 137.209 72.1657C138.495 72.4758 139.746 72.9671 140.94 73.6299C139.699 73.1743 138.426 72.8617 137.137 72.6961C136.498 72.5746 135.85 72.5359 135.211 72.4641C134.568 72.4143 133.924 72.3867 133.281 72.348C130.704 72.3 128.128 72.4791 125.572 72.884L123.655 73.1879L121.747 73.6023L120.793 73.7957L119.848 74.0498C119.214 74.2211 118.584 74.3868 117.949 74.5471C116.689 74.9062 115.438 75.3151 114.174 75.6853C112.923 76.1052 111.681 76.5693 110.416 76.9616C90.9401 80.8844 71.9365 95.5868 70.663 95.1945C69.3849 94.8022 68.2644 82.4536 68.2644 79.2766C68.2644 76.1052 67.7875 70.0993 63.9534 70.0993C60.1239 70.0993 60.6009 74.2156 60.6009 74.2156C67.7874 76.5693 51.1824 78.3373 46.2323 79.1164C41.2823 79.9009 43.9958 77.5527 43.9958 77.5527C43.9958 77.5527 42.5603 75.6687 41.0213 78.0113C40.541 78.767 40.2172 79.6544 40.0777 80.5975C39.9382 81.5406 39.9871 82.5112 40.2203 83.426C40.7108 85.4371 41.4353 88.487 41.9213 90.8794C42.7223 94.8023 45.5933 123.03 46.5518 125.776C47.5103 128.517 67.3059 135.771 109.458 132.047C112.873 131.39 116.275 130.694 119.677 129.997C123.075 129.285 126.472 128.555 129.843 127.71C131.53 127.296 133.218 126.865 134.887 126.373C136.566 125.903 138.231 125.382 139.882 124.809C141.535 124.24 143.163 123.568 144.76 122.798C146.378 122.083 147.885 121.035 149.215 119.699C148.629 120.486 147.957 121.171 147.217 121.732C146.486 122.312 145.726 122.834 144.94 123.295C143.364 124.196 141.744 124.977 140.089 125.633C136.786 126.921 133.425 127.977 130.023 128.793C126.625 129.622 123.211 130.307 119.781 130.848C116.352 131.406 112.909 131.815 109.458 132.047C109.458 132.047 107.923 143.501 107.122 153.805H167.162C167.099 143.744 167.085 130.412 167.337 118.422C167.814 95.294 167.337 84.4095 167.337 84.4095C166.474 84.2924 165.621 84.0778 164.79 83.7686C163.958 83.4758 163.143 83.1277 162.329 82.7685C160.704 82.0502 159.12 81.2105 157.545 80.3485C155.979 79.47 154.431 78.5528 152.905 77.5638C151.38 76.5859 149.872 75.5527 148.414 74.4145C150.039 75.1438 151.627 75.956 153.207 76.7903C154.786 77.6136 156.348 78.4865 157.918 79.3429L162.594 81.9729C164.164 82.8238 165.699 83.7409 167.337 84.4095C167.337 84.4095 175.239 88.8241 175.959 77.6467C176.675 66.4748 168.053 42.3631 146.502 44.4185ZM149.818 80.7187C150.613 81.6391 151.305 82.683 151.879 83.8238C152.163 84.3928 152.406 84.9951 152.662 85.5918C152.883 86.2051 153.063 86.835 153.27 87.4593C153.368 87.7721 153.446 88.0934 153.504 88.4207L153.711 89.3931C153.851 90.0391 153.953 90.6964 154.017 91.3601L154.125 92.3546L154.179 92.8518L154.197 93.3491L154.251 95.3437L154.264 95.841L154.237 96.3382L154.179 97.3328C154.143 97.9957 154.107 98.6532 154.048 99.3107C153.868 100.615 153.697 101.919 153.468 103.206C153.175 104.477 152.892 105.742 152.568 106.991C152.698 105.681 152.865 104.394 153.031 103.106C153.157 101.814 153.229 100.515 153.351 99.2279L153.391 97.2886L153.414 96.3216L153.427 95.841L153.4 95.3603L153.319 93.432L153.301 92.9513L153.243 92.4761L153.126 91.5258C152.862 88.9858 152.236 86.5227 151.276 84.2492C150.78 83.1224 150.185 82.0646 149.503 81.0944C148.823 80.1013 148.027 79.2374 147.141 78.5307C148.135 79.0529 149.042 79.7945 149.818 80.7187ZM161.163 58.3418C160.841 59.174 160.289 59.8395 159.606 60.2204C159.268 60.4098 158.913 60.5507 158.548 60.6403C158.184 60.7036 157.818 60.7424 157.45 60.7563C157.086 60.7342 156.717 60.7342 156.357 60.679L155.286 60.4635C154.93 60.3751 154.588 60.248 154.237 60.1375L153.225 59.8005C152.565 59.5889 151.892 59.4411 151.213 59.3584C149.838 59.201 148.454 59.1954 147.078 59.3419C144.297 59.6501 141.541 60.2377 138.838 61.0989C137.479 61.5188 136.12 61.9719 134.775 62.4636C133.42 62.9332 132.088 63.4747 130.747 64.0217C133.297 62.5134 135.941 61.2588 138.654 60.2701C141.373 59.24 144.172 58.5604 147.006 58.2424C148.44 58.1025 149.882 58.1284 151.312 58.3197C152.032 58.4334 152.744 58.6163 153.441 58.8667L155.443 59.6237L156.447 59.8888C156.784 59.9607 157.122 59.9772 157.459 60.0325C157.797 60.0601 158.134 60.027 158.467 60.0159C158.798 59.9615 159.122 59.8633 159.435 59.7231C160.072 59.4543 160.609 58.9155 160.951 58.2037C161.128 57.8423 161.262 57.4515 161.347 57.0434C161.449 56.6309 161.503 56.2033 161.509 55.7726C161.588 56.6518 161.468 57.5405 161.163 58.3418Z" fill="black"/>
<path d="M82 154.218C90.8333 153.901 99.6667 153.689 108.5 153.582C112.917 153.506 117.333 153.489 121.75 153.445L135 153.4L148.25 153.443C152.667 153.488 157.083 153.503 161.5 153.579C170.333 153.686 179.167 153.899 188 154.218C179.167 154.536 170.333 154.749 161.5 154.856C157.083 154.932 152.667 154.947 148.25 154.992L135 155.035L121.75 154.99C117.333 154.946 112.917 154.929 108.5 154.854C99.6667 154.746 90.8333 154.534 82 154.218ZM108.082 32.8506C109.814 32.8506 109.817 29.5293 108.082 29.5293C106.35 29.5293 106.347 32.8506 108.082 32.8506Z" fill="black"/>
</svg>
