<svg width="318" height="95" viewBox="0 0 318 95" fill="none" xmlns="http://www.w3.org/2000/svg">
<g filter="url(#filter0_d_2024_4782)">
<rect width="313" height="90" rx="16" fill="#FEBC8D"/>
<path d="M41.48 53.72H40.96C40.4 53.72 40.24 53.88 40.24 54.44V62.52C40.24 63.68 39.92 64 38.76 64H36.2C35.04 64 34.72 63.68 34.72 62.52V35.48C34.72 34.32 35.04 34 36.2 34H41.48C47.56 34 50.32 36.2 50.32 41.6V46.12C50.32 51.52 47.56 53.72 41.48 53.72ZM40.24 40.32V47.4C40.24 47.96 40.4 48.12 40.96 48.12H41.8C43.76 48.12 44.64 47.32 44.64 45.28V42.44C44.64 40.4 43.76 39.6 41.8 39.6H40.96C40.4 39.6 40.24 39.76 40.24 40.32ZM62.78 62.88L59.58 53.16C59.38 52.6 59.22 52.44 58.62 52.44H58.46C57.9 52.44 57.74 52.6 57.74 53.16V62.52C57.74 63.68 57.42 64 56.26 64H53.7C52.54 64 52.22 63.68 52.22 62.52V35.48C52.22 34.32 52.54 34 53.7 34H58.98C65.06 34 67.82 36.08 67.82 41.2V44.08C67.82 47.84 67.22 49.28 65.1 51.08C64.86 51.24 64.82 51.32 64.82 51.52C64.82 51.64 64.86 51.76 64.94 52.04L68.46 62.48C68.82 63.52 68.42 64 67.38 64H64.46C63.34 64 63.1 63.84 62.78 62.88ZM57.74 40.12V46.28C57.74 46.84 57.9 47 58.46 47H59.3C61.18 47 62.14 46.16 62.14 44.24V42.04C62.14 40.16 61.26 39.4 59.3 39.4H58.46C57.9 39.4 57.74 39.56 57.74 40.12ZM85.5413 55.2C85.5413 61.96 83.6213 64.4 77.8213 64.4C72.0213 64.4 70.1012 61.96 70.1012 55.2V42.8C70.1012 36.08 72.0213 33.6 77.8213 33.6C83.6213 33.6 85.5413 36.08 85.5413 42.8V55.2ZM75.7813 56.56C75.7813 58.16 76.4213 58.8 77.8213 58.8C79.2213 58.8 79.8613 58.16 79.8613 56.56V41.64C79.8613 39.88 79.2213 39.2 77.8213 39.2C76.4213 39.2 75.7813 39.88 75.7813 41.64V56.56ZM95.1425 34C102.823 34 104.383 36.8 104.383 43.6V54.4C104.383 61.2 102.823 64 95.1425 64H90.2625C89.1025 64 88.7825 63.68 88.7825 62.52V35.48C88.7825 34.32 89.1025 34 90.2625 34H95.1425ZM95.0225 39.6C94.4625 39.6 94.3025 39.76 94.3025 40.32V57.68C94.3025 58.2 94.4625 58.4 95.0225 58.4H95.4625C97.7025 58.4 98.7025 57.36 98.7025 54.76V43.24C98.7025 40.64 97.7025 39.6 95.4625 39.6H95.0225ZM117.057 35.48C117.057 34.32 117.377 34 118.537 34H121.097C122.257 34 122.577 34.32 122.577 35.48V55.6C122.577 62.04 120.657 64.4 114.857 64.4C109.057 64.4 107.137 62.04 107.137 55.6V35.48C107.137 34.32 107.457 34 108.617 34H111.177C112.337 34 112.657 34.32 112.657 35.48V56.56C112.657 58.16 113.337 58.8 114.857 58.8C116.337 58.8 117.057 58.16 117.057 56.56V35.48ZM140.774 54.4V55.6C140.774 62.04 138.934 64.4 133.134 64.4C127.334 64.4 125.414 62.04 125.414 55.6V42.4C125.414 35.96 127.334 33.6 133.134 33.6C138.934 33.6 140.774 35.96 140.774 42.4V43.6C140.774 44.76 140.454 45.08 139.294 45.08H136.734C135.574 45.08 135.254 44.76 135.254 43.6V41.44C135.254 39.84 134.574 39.2 133.174 39.2C131.774 39.2 131.094 39.84 131.094 41.44V56.56C131.094 58.16 131.774 58.8 133.174 58.8C134.574 58.8 135.254 58.16 135.254 56.56V54.4C135.254 53.24 135.574 52.92 136.734 52.92H139.294C140.454 52.92 140.774 53.24 140.774 54.4ZM154.997 39.6H152.517C151.957 39.6 151.797 39.76 151.797 40.32V62.52C151.797 63.68 151.477 64 150.317 64H147.757C146.597 64 146.277 63.68 146.277 62.52V40.32C146.277 39.76 146.117 39.6 145.557 39.6H143.077C141.917 39.6 141.597 39.28 141.597 38.12V35.48C141.597 34.32 141.917 34 143.077 34H154.997C156.157 34 156.477 34.32 156.477 35.48V38.12C156.477 39.28 156.157 39.6 154.997 39.6ZM171.037 44.68L176.157 49.32C178.837 51.72 179.437 53.16 179.437 55.84V56.56C179.437 61.6 177.517 64.4 171.717 64.4C165.917 64.4 163.997 62.04 163.997 55.6V54.8C163.997 53.64 164.317 53.32 165.477 53.32H168.197C169.357 53.32 169.677 53.64 169.677 54.8V56.56C169.677 58.16 170.317 58.8 171.717 58.8C173.117 58.8 173.757 58.2 173.757 56.76V56C173.757 54.88 173.517 54.32 172.037 53L167.237 48.72C164.557 46.36 163.997 45 163.997 42.32V41.44C163.997 36.4 165.917 33.6 171.717 33.6C177.517 33.6 179.437 35.96 179.437 42.4V43.2C179.437 44.36 179.117 44.68 177.957 44.68H175.237C174.077 44.68 173.757 44.36 173.757 43.2V41.44C173.757 39.84 173.117 39.2 171.717 39.2C170.317 39.2 169.677 39.8 169.677 41.24V41.92C169.677 43.08 169.917 43.64 171.037 44.68ZM196.985 54.4V55.6C196.985 62.04 195.145 64.4 189.345 64.4C183.545 64.4 181.625 62.04 181.625 55.6V42.4C181.625 35.96 183.545 33.6 189.345 33.6C195.145 33.6 196.985 35.96 196.985 42.4V43.6C196.985 44.76 196.665 45.08 195.505 45.08H192.945C191.785 45.08 191.465 44.76 191.465 43.6V41.44C191.465 39.84 190.785 39.2 189.385 39.2C187.985 39.2 187.305 39.84 187.305 41.44V56.56C187.305 58.16 187.985 58.8 189.385 58.8C190.785 58.8 191.465 58.16 191.465 56.56V54.4C191.465 53.24 191.785 52.92 192.945 52.92H195.505C196.665 52.92 196.985 53.24 196.985 54.4ZM214.643 55.2C214.643 61.96 212.723 64.4 206.923 64.4C201.123 64.4 199.203 61.96 199.203 55.2V42.8C199.203 36.08 201.123 33.6 206.923 33.6C212.723 33.6 214.643 36.08 214.643 42.8V55.2ZM204.883 56.56C204.883 58.16 205.523 58.8 206.923 58.8C208.323 58.8 208.963 58.16 208.963 56.56V41.64C208.963 39.88 208.323 39.2 206.923 39.2C205.523 39.2 204.883 39.88 204.883 41.64V56.56ZM224.644 53.72H224.124C223.564 53.72 223.404 53.88 223.404 54.44V62.52C223.404 63.68 223.084 64 221.924 64H219.364C218.204 64 217.884 63.68 217.884 62.52V35.48C217.884 34.32 218.204 34 219.364 34H224.644C230.724 34 233.484 36.2 233.484 41.6V46.12C233.484 51.52 230.724 53.72 224.644 53.72ZM223.404 40.32V47.4C223.404 47.96 223.564 48.12 224.124 48.12H224.964C226.924 48.12 227.804 47.32 227.804 45.28V42.44C227.804 40.4 226.924 39.6 224.964 39.6H224.124C223.564 39.6 223.404 39.76 223.404 40.32ZM240.904 35.48V62.52C240.904 63.68 240.584 64 239.424 64H236.864C235.704 64 235.384 63.68 235.384 62.52V35.48C235.384 34.32 235.704 34 236.864 34H239.424C240.584 34 240.904 34.32 240.904 35.48ZM255.485 48.52V35.48C255.485 34.32 255.805 34 256.965 34H259.205C260.365 34 260.685 34.32 260.685 35.48V62.52C260.685 63.68 260.365 64 259.205 64H257.365C256.125 64 255.765 63.72 255.365 62.64L250.365 49.4C250.245 49.12 250.125 49.04 249.965 49.04C249.765 49.04 249.685 49.12 249.685 49.48V62.52C249.685 63.68 249.365 64 248.205 64H246.005C244.845 64 244.525 63.68 244.525 62.52V35.48C244.525 34.32 244.845 34 246.005 34H247.805C248.965 34 249.365 34.12 249.725 35.04L254.805 48.6C254.925 48.88 255.045 48.96 255.205 48.96C255.405 48.96 255.485 48.88 255.485 48.52ZM274.009 53.32C274.009 52.76 273.849 52.6 273.289 52.6H272.809C271.649 52.6 271.329 52.28 271.329 51.12V48.48C271.329 47.32 271.649 47 272.809 47H277.889C279.049 47 279.369 47.32 279.369 48.48V55.6C279.369 62.04 277.449 64.4 271.649 64.4C265.849 64.4 263.929 62.04 263.929 55.6V42.4C263.929 35.96 265.849 33.6 271.649 33.6C277.449 33.6 279.289 35.96 279.289 42.4V42.6C279.289 43.76 278.969 44.08 277.809 44.08H275.249C274.089 44.08 273.769 43.76 273.769 42.6V41.44C273.769 39.84 273.089 39.2 271.689 39.2C270.289 39.2 269.609 39.84 269.609 41.44V56.56C269.609 58.16 270.329 58.8 271.809 58.8C273.329 58.8 274.009 58.16 274.009 56.56V53.32Z" fill="#33322E"/>
<rect x="0.708861" y="0.708861" width="311.582" height="88.5823" rx="15.2911" stroke="#33322E" stroke-width="1.41772"/>
</g>
<defs>
<filter id="filter0_d_2024_4782" x="0" y="0" width="317.253" height="94.2532" filterUnits="userSpaceOnUse" color-interpolation-filters="sRGB">
<feFlood flood-opacity="0" result="BackgroundImageFix"/>
<feColorMatrix in="SourceAlpha" type="matrix" values="0 0 0 0 0 0 0 0 0 0 0 0 0 0 0 0 0 0 127 0" result="hardAlpha"/>
<feOffset dx="4.25316" dy="4.25316"/>
<feColorMatrix type="matrix" values="0 0 0 0 0.2 0 0 0 0 0.196078 0 0 0 0 0.180392 0 0 0 1 0"/>
<feBlend mode="normal" in2="BackgroundImageFix" result="effect1_dropShadow_2024_4782"/>
<feBlend mode="normal" in="SourceGraphic" in2="effect1_dropShadow_2024_4782" result="shape"/>
</filter>
</defs>
</svg>
