<svg width="185" height="164" viewBox="0 0 185 164" fill="none" xmlns="http://www.w3.org/2000/svg">
<path d="M87.6007 152.011C86.3889 152.235 77.7487 154.615 71.9087 153.282C73.0957 156.321 75.383 157.256 76.6775 157.256C78.2947 157.256 81.3719 159.686 82.7451 161.711C84.1223 163.735 76.6775 163.491 74.5723 163.491C72.4671 163.491 67.3674 160.899 65.3449 160.092C63.3224 159.281 55.1496 158.064 53.367 155.149C51.5885 152.235 55.5508 148.182 55.5508 148.182C55.5508 148.182 67.0448 154.826 71.2552 150.612C71.1625 151.064 71.1739 151.531 71.2883 151.978C71.3835 152.429 71.5849 152.85 71.8756 153.208C71.8618 152.761 71.7994 152.316 71.6895 151.883C71.594 151.444 71.4483 151.017 71.2552 150.612C70.343 148.929 69.9487 147.013 70.122 145.106L70.4446 142.026C70.4446 142.026 73.4183 141.807 74.3696 140.635L74.4399 140.536C74.4399 140.536 76.1895 147.615 81.7731 148.182C87.3608 148.749 88.8167 151.792 87.6007 152.011ZM55.8983 44.7869C56.5558 46.004 57.2382 47.2045 57.9786 48.3719V48.3802C57.9786 48.3802 50.4552 50.0817 46.2448 55.9974C45.7405 55.423 45.284 54.8083 44.8799 54.1593C44.4622 53.5218 44.0858 52.8553 43.7259 52.1888C43.0233 50.8361 42.4018 49.4426 41.8647 48.0159L41.4636 46.9479L41.1038 45.8632C40.839 45.1429 40.6653 44.4019 40.4254 43.6733C40.2103 42.9406 40.0284 42.1995 39.8299 41.4627C39.6438 40.7175 39.4783 39.9723 39.2839 39.2272C39.3873 39.9889 39.5155 40.7465 39.6313 41.504C39.7926 42.2533 39.9415 43.0068 40.1152 43.7561C40.4791 45.2524 40.935 46.7248 41.4801 48.165C42.024 49.6077 42.6823 51.0045 43.4489 52.342C44.1995 53.6892 45.1413 54.9205 46.2448 55.9974C46.2448 55.9974 46.5674 70.5777 47.134 71.8735C47.134 71.8735 34.2669 82.285 18 79.4865C18 79.4865 21.0359 44.0086 33.9029 30.7613C33.9029 30.7613 41.1865 22.8627 50.294 24.8083C50.294 24.8083 53.6111 24.9698 53.6111 32.6657C53.5262 34.0496 53.5179 35.4371 53.5862 36.822C53.6194 38.2243 53.8662 39.6133 54.3183 40.9411C54.4383 41.2722 54.5624 41.5869 54.6575 41.9098C54.7071 42.0712 54.7443 42.2327 54.7815 42.3983C54.8063 42.4811 54.8353 42.5846 54.8643 42.6715L54.9677 42.9199C55.253 43.5656 55.5674 44.1783 55.8983 44.7869Z" fill="#020202"/>
<path d="M58.1998 48.5L57.3448 46.6023L56.4738 44.7003C56.1953 44.0635 55.897 43.4352 55.6505 42.7941L55.567 42.5538C55.5431 42.4778 55.5232 42.4146 55.5034 42.3303C55.4636 42.1531 55.4278 41.976 55.3801 41.7989C55.2846 41.4531 55.1653 41.1157 55.0539 40.791C54.6309 39.4713 54.3702 38.0992 54.2784 36.7087C54.2067 36.0129 54.163 35.3129 54.1232 34.6086C54.0676 33.9085 54.0517 33.2043 54 32.5C57.2692 36.9576 57.3448 33.2422 57.3448 33.2422C57.4243 35.3044 60.3793 41.4025 58.1998 48.5Z" fill="#020202"/>
<path d="M64.3557 1.52272C65.928 2.20101 67.2294 3.39011 68.0521 4.90026C68.4532 5.65667 68.716 6.47952 68.828 7.32957C68.8862 7.75144 68.8911 8.18484 68.9163 8.606L68.9413 9.23792C68.9524 9.44828 68.9869 9.6564 69.0084 9.8657C69.1041 10.7006 69.3447 11.5121 69.7192 12.2631L69.8666 12.5388L70.0394 12.7985C70.1553 12.9709 70.2815 13.1359 70.4176 13.2926C70.6948 13.6013 71.005 13.8783 71.3423 14.1187C71.6802 14.3705 72.0465 14.5321 72.4151 14.8208C72.7466 15.1401 72.9534 15.5687 72.9978 16.0286C73.0114 16.2678 72.962 16.5063 72.8545 16.7201C72.7363 16.9241 72.5717 17.097 72.3743 17.2246C71.9945 17.4561 71.5733 17.6102 71.1345 17.6782L71.2698 17.5133C71.3213 19.2029 71.2211 20.8936 70.9704 22.565C70.8498 23.4186 70.6095 24.2506 70.2567 25.0362C70.066 25.4578 69.774 25.8249 69.4071 26.1044C69.2011 26.2448 68.965 26.334 68.7181 26.3647C68.5961 26.3833 68.472 26.384 68.3498 26.3667L68.1698 26.3459L68.0198 26.321C66.4125 26.0526 64.7682 26.1091 63.1828 26.4872C62.4058 26.6533 61.6661 26.9629 61.0011 27.4004C60.9263 27.4584 60.8464 27.5122 60.7753 27.5726L60.579 27.7659C60.4569 27.9099 60.3476 28.0644 60.2522 28.2276C60.0259 28.594 59.7847 28.9429 59.5452 29.2861C59.0587 29.9447 58.6231 30.6399 58.242 31.3656C57.871 32.0452 57.7136 32.8222 57.7904 33.5939C57.9064 34.3575 58.1637 35.178 58.3736 35.9852C58.5902 36.7974 58.8019 37.617 58.9667 38.4491C59.3251 40.1146 59.4897 41.8165 59.4573 43.5203C59.4173 45.231 59.1264 46.9263 58.594 48.5512C58.5775 48.6014 58.5487 48.6465 58.5102 48.6824C58.4718 48.7183 58.4249 48.7439 58.3741 48.7567L58.3688 48.758C57.2325 49.0463 56.1206 49.4247 55.0435 49.8897C53.9605 50.3537 52.9132 50.8977 51.91 51.5175C50.9044 52.1321 49.9571 52.8384 49.08 53.6277C48.2025 54.4156 47.4074 55.2919 46.7071 56.2429L46.7434 56.124C46.7854 58.7953 46.8421 61.468 46.9488 64.1377C46.998 65.4728 47.0602 66.807 47.1352 68.1402C47.1724 68.8069 47.22 69.4722 47.2724 70.1368C47.3105 70.7908 47.4036 71.4403 47.5507 72.0784L47.5565 72.0979C47.5631 72.1205 47.5627 72.1446 47.5554 72.167C47.5481 72.1894 47.5342 72.209 47.5156 72.2233C45.4399 73.7875 43.2195 75.1467 40.885 76.2822C38.5545 77.4237 36.1294 78.3577 33.6372 79.0735C32.3887 79.4222 31.1257 79.7215 29.8485 79.9504C28.5701 80.1764 27.2808 80.3341 25.9859 80.4228C23.3898 80.5979 20.7825 80.475 18.214 80.0565C18.1503 80.0458 18.0929 80.0112 18.0534 79.9597C18.0139 79.9082 17.9952 79.8436 18.001 79.7787C18.5477 73.896 19.4116 68.0476 20.5889 62.2593C21.7397 56.4561 23.3357 50.7515 25.3625 45.1969C26.3893 42.4135 27.6262 39.7134 29.0625 37.1203C30.4834 34.4927 32.2654 32.0802 34.3559 29.9542C36.5195 27.878 39.0602 26.2413 41.839 25.1336C44.6463 24.0185 47.7156 23.7523 50.6709 24.3676L50.4176 24.414C51.5942 23.5951 52.5838 22.2617 52.5741 20.8119C52.5606 20.0763 52.348 19.3585 51.9591 18.7357L51.6643 18.2584C51.5589 18.1034 51.4279 17.9643 51.3111 17.8161L50.9481 17.3754C50.8179 17.221 50.681 17.0723 50.5572 16.9131C49.5827 15.6298 48.9587 14.1119 48.7473 12.5104C48.5233 10.9299 48.6232 9.32 49.0407 7.77986C49.4409 6.23829 50.1898 4.81081 51.2287 3.609C51.7528 3.01603 52.3592 2.50235 53.029 2.08382C53.3635 1.87498 53.7145 1.69435 54.0786 1.54378C54.4414 1.39262 54.8159 1.28 55.1838 1.14641C58.1883 0.169888 61.44 0.303303 64.3557 1.52272ZM64.3239 1.59539C61.4245 0.409933 58.2006 0.303365 55.2303 1.29479C54.8679 1.42989 54.496 1.54503 54.1418 1.69617C53.7872 1.84615 53.4457 2.02543 53.1205 2.23217C52.4704 2.64714 51.8865 3.15896 51.3887 3.7502C50.3997 4.94193 49.6977 6.34784 49.3376 7.85805C48.9622 9.35842 48.8964 10.9204 49.1444 12.4474C49.377 13.9645 49.9996 15.3939 50.9504 16.5938L51.7177 17.4722C51.846 17.6276 51.9868 17.7722 52.1047 17.937L52.4381 18.4498C52.8942 19.1524 53.1516 19.967 53.1825 20.8059C53.1877 21.6552 52.9461 22.4876 52.4874 23.2004C52.3791 23.3779 52.251 23.5406 52.132 23.7103C51.9959 23.8645 51.8709 24.0302 51.7246 24.1743C51.4391 24.4771 51.1236 24.7498 50.783 24.988C50.7489 25.0121 50.7103 25.029 50.6694 25.0375C50.6286 25.0461 50.5865 25.0462 50.5457 25.0378L50.5296 25.0344C47.7052 24.4873 44.7838 24.7795 42.1214 25.8754C39.4443 26.9509 36.9977 28.5351 34.9149 30.5415C32.8867 32.6167 31.1589 34.9693 29.7823 37.5299C28.3786 40.0934 27.1564 42.7535 26.125 45.4904C24.0821 50.9954 22.4661 56.6515 21.2915 62.408C20.061 68.1595 19.1339 73.9727 18.5141 79.8229L18.3012 79.5453C20.8289 79.9883 23.3983 80.1409 25.9602 80.0001C27.242 79.929 28.5192 79.7896 29.7863 79.5826C31.0536 79.3724 32.3091 79.0922 33.552 78.7623C36.0355 78.0803 38.4511 77.1689 40.7683 76.0398C41.9275 75.4776 43.0603 74.8638 44.1665 74.1985C45.2754 73.5439 46.3426 72.8204 47.3622 72.0321L47.3271 72.1769C47.1627 71.5155 47.0588 70.8403 47.0167 70.1597C46.9598 69.4923 46.9077 68.8247 46.8662 68.1571C46.7818 66.8217 46.7111 65.486 46.6542 64.1501C46.541 61.4779 46.44 58.8054 46.3512 56.1328L46.3511 56.1301C46.3498 56.0883 46.3627 56.0472 46.3877 56.0138C47.09 55.0269 47.8909 54.1151 48.7778 53.2926C49.663 52.4698 50.6216 51.731 51.6415 51.0855C52.6576 50.4358 53.7201 49.8628 54.8202 49.3712C55.9237 48.874 57.0649 48.4664 58.2329 48.1524L58.0077 48.359C58.4933 46.7857 58.7581 45.1517 58.7943 43.5046C58.8173 41.8525 58.6492 40.2033 58.2934 38.5903C58.1287 37.779 57.9172 36.9761 57.6982 36.1707C57.4471 35.3539 57.2447 34.5227 57.0921 33.6817C57.0055 32.7733 57.1938 31.8598 57.6321 31.0612C58.0352 30.3073 58.4953 29.586 59.0085 28.9034C59.2508 28.5631 59.4882 28.2257 59.7046 27.8823C59.8234 27.6863 59.9586 27.5009 60.1089 27.3282L60.3614 27.0846C60.4496 27.0109 60.5433 26.9476 60.6342 26.8792C61.3683 26.4008 62.1847 26.0647 63.0414 25.8884C64.7094 25.5054 66.4383 25.475 68.1186 25.7992L68.276 25.8288L68.4059 25.8449C68.4894 25.8602 68.5748 25.8619 68.6588 25.8499C68.8266 25.8329 68.9878 25.7759 69.1293 25.6836C69.4304 25.4571 69.6719 25.1599 69.8329 24.818C70.1802 24.0799 70.4224 23.2963 70.5526 22.4902C70.833 20.8495 70.9649 19.1866 70.9467 17.522C70.9466 17.4829 70.9601 17.445 70.9849 17.4149C71.0096 17.3847 71.0441 17.3643 71.0822 17.357C71.4788 17.3039 71.8614 17.1741 72.2089 16.9747C72.3699 16.8765 72.5055 16.7415 72.6048 16.5805C72.6902 16.4153 72.7317 16.2305 72.7251 16.0443C72.6918 15.6511 72.5219 15.2823 72.2452 15.0028C71.9537 14.7637 71.5484 14.5602 71.2123 14.3013C70.8666 14.0444 70.5499 13.75 70.2682 13.4233C70.1301 13.2579 70.0024 13.0841 69.8857 12.9028L69.7122 12.6305L69.5657 12.3431C69.1921 11.5706 68.953 10.7392 68.8591 9.88526C68.8385 9.67274 68.8053 9.461 68.7955 9.24792L68.7746 8.60825C68.7524 8.18351 68.7507 7.76472 68.6965 7.34723C68.5924 6.5111 68.3397 5.70064 67.9508 4.95451C67.1484 3.45822 65.8716 2.27562 64.3239 1.59539Z" fill="#020202"/>
<path d="M18.0792 79.21C18.2814 81.4326 18.5786 83.6481 18.977 85.8415C19.3368 88.0346 19.922 90.1845 20.7232 92.257C20.9352 92.7589 21.1929 93.2401 21.493 93.6947C21.7624 94.1401 22.157 94.4961 22.6274 94.7178C23.1383 94.8973 23.6631 95.0339 24.1966 95.1264C24.7404 95.2271 25.2868 95.3183 25.836 95.4002C28.0337 95.7233 30.2495 95.9579 32.4649 96.1816C36.8966 96.6339 41.3392 97.0001 45.7833 97.3405L59.1208 98.3008L59.1238 98.3011C59.2133 98.3075 59.2965 98.3492 59.3554 98.417C59.4143 98.4848 59.4441 98.5731 59.4382 98.6628C59.1646 102.812 58.8711 106.96 58.5577 111.107L57.6457 123.549L56.7811 135.994L55.9828 148.444L55.9119 148.311C57.1369 148.992 58.3997 149.603 59.6942 150.141C60.9832 150.687 62.3079 151.144 63.659 151.509C64.9964 151.888 66.3801 152.078 67.77 152.072C69.1316 152.041 70.5352 151.677 71.4763 150.714L71.4403 151.006C71.0718 150.34 70.7824 149.632 70.578 148.899C70.3707 148.168 70.2456 147.417 70.2049 146.658C70.1841 145.906 70.2231 145.153 70.3217 144.406L70.5401 142.2C70.5467 142.133 70.5759 142.071 70.6228 142.024C70.6696 141.977 70.7313 141.947 70.7975 141.94L70.8091 141.939C71.8511 141.86 72.8713 141.6 73.8239 141.169C74.0327 141.086 74.2214 140.96 74.3776 140.798C74.5339 140.637 74.6541 140.444 74.7303 140.232C74.7478 140.13 74.7511 140.026 74.7402 139.923L74.709 139.51C74.6906 139.236 74.6768 138.962 74.6656 138.689C74.5223 136.48 74.7244 134.263 75.2646 132.117C75.3364 131.846 75.4522 131.582 75.5449 131.315C75.6409 131.08 75.7319 130.824 75.8209 130.572C75.9987 130.065 76.1694 129.551 76.3377 129.038C76.6737 128.009 77.0008 126.977 77.319 125.941C77.9588 123.871 78.5784 121.794 79.1779 119.711C80.3797 115.546 81.5152 111.364 82.5843 107.163C83.6425 102.962 84.629 98.7402 85.378 94.4825C85.766 92.3634 86.0361 90.2243 86.1871 88.0752C86.2675 87.0227 86.2326 85.9646 86.0831 84.9197C86.0171 84.4365 85.8333 83.977 85.548 83.5819C85.2322 83.1835 84.8625 82.8312 84.4495 82.5352C83.588 81.9153 82.6699 81.3784 81.7074 80.9318C80.743 80.4668 79.7512 80.0493 78.7477 79.6594C76.7385 78.8826 74.684 78.2116 72.6163 77.5847C68.48 76.3293 64.2823 75.2635 60.0665 74.2831C55.8506 73.3002 51.6161 72.3862 47.3613 71.5788C47.3509 71.577 47.3417 71.5712 47.3356 71.5626C47.3296 71.554 47.3272 71.5433 47.329 71.533C47.3307 71.5226 47.3366 71.5134 47.3451 71.5073C47.3537 71.5012 47.3643 71.4988 47.3747 71.5006C55.9372 72.8795 64.4188 74.7228 72.782 77.0226C74.8676 77.6254 76.9396 78.2843 78.9801 79.0484C79.9994 79.4329 81.0101 79.8463 82.0019 80.3124C83.0102 80.7688 83.973 81.3201 84.8773 81.9589C85.3487 82.2913 85.7712 82.6885 86.1324 83.1387C86.3212 83.3793 86.4728 83.6469 86.5824 83.9326C86.6859 84.2076 86.7651 84.4911 86.819 84.78C86.9909 85.8829 87.0406 87.0014 86.9671 88.1151C86.8288 90.2973 86.5626 92.4693 86.1698 94.6202C85.4237 98.9133 84.4426 103.151 83.3901 107.367C82.3381 111.584 81.1706 115.769 79.9429 119.935C79.3287 122.018 78.6962 124.096 78.0455 126.169C77.7189 127.205 77.3849 128.239 77.0434 129.271C76.871 129.788 76.6967 130.303 76.5127 130.818C76.4194 131.077 76.3284 131.332 76.2174 131.598C76.133 131.843 76.026 132.077 75.9581 132.33C75.4309 134.398 75.2181 136.534 75.327 138.666C75.3348 138.934 75.3452 139.203 75.36 139.47L75.3854 139.869C75.3997 140.037 75.3905 140.205 75.3578 140.37C75.2757 140.696 75.0999 140.991 74.8522 141.218C74.6302 141.422 74.3793 141.593 74.1076 141.725C73.596 141.97 73.0568 142.153 72.5016 142.27C71.9582 142.392 71.4071 142.476 70.8522 142.522L71.121 142.261L70.8762 144.465C70.7717 145.183 70.7246 145.909 70.7354 146.635C70.7655 147.354 70.8758 148.068 71.064 148.763C71.2485 149.457 71.5124 150.127 71.8502 150.76L71.8553 150.769C71.8801 150.815 71.8895 150.867 71.8821 150.918C71.8747 150.969 71.8509 151.016 71.8142 151.052C71.28 151.57 70.6319 151.954 69.922 152.175C69.2275 152.388 68.5055 152.497 67.7792 152.5C66.3509 152.489 64.9314 152.277 63.5619 151.87C62.2001 151.484 60.8661 151.004 59.5694 150.436C58.2717 149.875 57.0034 149.248 55.7694 148.558C55.7463 148.545 55.7274 148.525 55.7149 148.502C55.7023 148.478 55.6966 148.451 55.6984 148.425L56.5294 135.978L57.2942 123.526L58.0115 111.071C58.2469 106.919 58.4965 102.768 58.7603 98.6183L59.0776 98.9801L52.4008 98.537L45.7303 98.0137C41.2845 97.6462 36.8405 97.253 32.4025 96.7729C30.1847 96.5195 27.9684 96.2492 25.7589 95.8918C25.2066 95.8021 24.6549 95.7016 24.104 95.5901C23.5401 95.484 22.9863 95.3297 22.4487 95.1287C21.9061 94.8672 21.4523 94.4514 21.1438 93.9333C20.8351 93.4516 20.5715 92.9423 20.3565 92.4119C19.5811 90.301 19.0373 88.1118 18.7346 85.883C18.3896 83.6711 18.1448 81.4486 18.0001 79.2155C17.9997 79.2103 18.0004 79.2051 18.0021 79.2002C18.0038 79.1952 18.0064 79.1907 18.0098 79.1867C18.0132 79.1828 18.0174 79.1796 18.0221 79.1773C18.0267 79.175 18.0318 79.1736 18.037 79.1733C18.0474 79.1728 18.0576 79.1763 18.0654 79.1832C18.0733 79.19 18.0782 79.1996 18.0792 79.21Z" fill="#020202"/>
<path d="M44 74.5C51.7082 76.1514 59.326 78.201 66.823 80.6405C68.6949 81.2644 70.5573 81.9238 72.3884 82.6733C74.2387 83.3996 76.0335 84.2604 77.7586 85.2487C78.6496 85.7498 79.4651 86.3751 80.1806 87.1059C80.5781 87.5096 80.8535 88.0177 80.975 88.5716C80.9982 88.7231 81.0053 88.8765 80.9962 89.0295L80.9527 89.4016L80.8658 90.1459C80.6113 92.1179 80.29 94.0614 79.9746 96.0114C79.306 99.9015 78.6125 103.786 77.8941 107.665C77.1756 111.544 76.4759 115.426 75.7112 119.296L73.4347 130.909C72.6419 134.773 71.8727 138.642 71.0472 142.5L73.0545 130.837L75.1141 119.185C76.4844 111.417 77.908 103.658 79.1971 95.8805C79.5232 93.939 79.8567 91.9918 80.1187 90.0535L80.2079 89.3291L80.2527 88.9669C80.2578 88.874 80.2536 88.7807 80.2403 88.6886C80.1421 88.2761 79.9322 87.8987 79.6338 87.5979C78.9702 86.9176 78.2144 86.334 77.3888 85.8643C75.7003 84.8843 73.9428 84.029 72.1302 83.3051C70.3176 82.5602 68.4781 81.8719 66.6272 81.2135C62.921 79.9069 59.1613 78.7428 55.3833 77.6436C51.6105 76.5233 47.8103 75.4951 44 74.5Z" fill="#020202"/>
<path d="M59.1086 98.8391C60.4858 97.3104 61.9065 95.8388 63.4018 94.4344C64.1508 93.7353 64.9185 93.054 65.7295 92.4252C66.1337 92.1089 66.5547 91.8146 66.9906 91.5436C67.42 91.2612 67.896 91.0567 68.3966 90.9395C67.909 91.0871 67.4513 91.3197 67.0449 91.6265C66.6317 91.922 66.2349 92.2396 65.856 92.5779C65.095 93.2512 64.379 93.9746 63.6824 94.7149C62.2941 96.1987 60.9746 97.7564 59.7196 99.3453L59.7159 99.3499C59.6505 99.4322 59.5551 99.4852 59.4507 99.4973C59.3462 99.5095 59.2412 99.4798 59.1587 99.4148C59.0761 99.3498 59.0227 99.2548 59.0102 99.1505C58.9977 99.0463 59.0271 98.9413 59.0919 98.8587C59.0971 98.8522 59.1031 98.8451 59.1086 98.8391ZM47.0768 55.6533C48.434 59.156 50.0303 62.5615 51.8544 65.846C52.3165 66.6531 52.8328 67.428 53.3996 68.1656C53.6786 68.5247 53.9873 68.8598 54.3225 69.1673C54.618 69.4587 54.9885 69.6629 55.393 69.7571C55.4948 69.7748 55.5987 69.7778 55.7014 69.7659L56.0368 69.7539C56.2607 69.7392 56.4855 69.6962 56.7096 69.6694C57.1609 69.5881 57.6066 69.4789 58.0443 69.3425C58.9312 69.0664 59.8001 68.7354 60.6459 68.3515C62.3497 67.5878 64.0072 66.7042 65.641 65.78C67.2747 64.8554 68.8973 63.9076 70.5088 62.9366C73.7229 60.9831 76.9205 58.9976 80.1016 56.9801L80.1035 56.9789C80.1515 56.9486 80.2085 56.9355 80.2649 56.9418C80.3214 56.9481 80.374 56.9735 80.4141 57.0137C80.9548 57.5494 81.5303 58.0489 82.1368 58.5091C82.7416 58.975 83.3793 59.3967 84.045 59.7708C84.7088 60.1427 85.409 60.4459 86.1346 60.6758C86.8599 60.8899 87.6156 60.9833 88.3713 60.9522L88.3755 60.9521C88.3963 60.9512 88.417 60.9544 88.4364 60.9617C89.3733 61.3182 90.3267 61.6465 91.2897 61.9248C91.769 62.0658 92.2553 62.1816 92.7467 62.2718C92.9872 62.3157 93.2311 62.339 93.4756 62.3415C93.7059 62.3428 93.9724 62.2852 93.9586 62.1371C93.9569 62.1194 93.9596 62.1015 93.9665 62.085C93.9733 62.0685 93.9841 62.0539 93.9978 62.0425C94.0115 62.0311 94.0279 62.0232 94.0453 62.0195C94.0628 62.0158 94.0809 62.0164 94.0981 62.0212L94.1143 62.0259C94.6799 62.2046 95.2707 62.2911 95.8639 62.282C95.9962 62.2887 96.1284 62.2665 96.2513 62.2169C96.3742 62.1674 96.4849 62.0918 96.5755 61.9953C96.6295 61.8758 96.656 61.7458 96.653 61.6147C96.65 61.4837 96.6176 61.355 96.5582 61.2381C96.5501 61.216 96.548 61.1921 96.5523 61.1689C96.5566 61.1458 96.5671 61.1242 96.5826 61.1064C96.5981 61.0887 96.6181 61.0754 96.6405 61.068C96.663 61.0606 96.6869 61.0594 96.71 61.0645L96.7122 61.065C97.1078 61.1534 97.5106 61.2055 97.9156 61.2208C98.2938 61.2659 98.6762 61.1814 98.9999 60.9811C99.2502 60.7667 99.1156 60.34 98.9344 60.0047C98.7441 59.6539 98.4993 59.3355 98.2093 59.0611C97.918 58.7869 97.5902 58.5542 97.2351 58.3696C96.8818 58.1925 96.487 58.0257 96.1156 57.8513C95.3623 57.5054 94.6106 57.1555 93.863 56.7941C93.4893 56.6131 93.1166 56.4296 92.7461 56.2371C92.5607 56.1404 92.3761 56.0424 92.1917 55.9356C92.0994 55.8825 92.0077 55.8263 91.9125 55.7607C91.8511 55.7206 91.7956 55.672 91.7476 55.6166C91.7115 55.5719 91.6891 55.5177 91.6833 55.4606C91.6806 55.4094 91.6911 55.3583 91.7139 55.3124C91.7435 55.2542 91.7884 55.2052 91.8438 55.1706C91.9595 55.1031 92.087 55.0582 92.2195 55.038C92.3323 55.0163 92.4416 55.0031 92.5504 54.9929C92.765 54.9748 92.9803 54.9678 93.1956 54.9717C93.6257 54.9761 94.0545 55.021 94.4762 55.1058C94.6857 55.1534 94.8924 55.2126 95.0954 55.2831L95.6856 55.4603C96.0808 55.5755 96.4776 55.6851 96.8762 55.7891C97.6722 55.9949 98.4749 56.1891 99.2744 56.3168C99.6437 56.3908 100.022 56.412 100.397 56.3797C100.419 56.3736 100.459 56.3614 100.441 56.3656C100.439 56.3668 100.44 56.3684 100.437 56.3717C100.427 56.3774 100.418 56.3857 100.412 56.3958C100.404 56.4165 100.384 56.4392 100.385 56.4681C100.386 56.4918 100.387 56.4772 100.386 56.4626L100.385 56.4256L100.384 56.3517L100.376 56.2171C100.364 56.058 100.312 55.9047 100.223 55.7717C100.004 55.4776 99.7255 55.2321 99.4061 55.0508C99.065 54.8425 98.711 54.6559 98.3464 54.492C97.6103 54.153 96.8393 53.8724 96.0659 53.5947C95.2899 53.3172 94.5091 53.0572 93.7233 52.8147C92.1614 52.319 90.5652 51.9381 88.9476 51.6751C88.1431 51.5501 87.3324 51.4689 86.5191 51.4317C86.4117 51.4237 86.3403 51.4305 86.161 51.4058C86.0058 51.3804 85.8573 51.3239 85.7245 51.2397C85.5814 51.1522 85.4612 51.0321 85.3736 50.8893C85.2859 50.7464 85.2334 50.5849 85.2202 50.4179C85.2052 50.2238 85.2567 50.0303 85.3662 49.8691C85.4636 49.7309 85.5929 49.6181 85.7431 49.5403C85.9713 49.4254 86.2176 49.3509 86.4713 49.32C86.5813 49.3 86.7126 49.295 86.7987 49.2796C86.8835 49.2631 86.9661 49.2585 87.0529 49.2356L87.3146 49.1621L87.5766 49.0613C87.9293 48.9083 88.2661 48.7209 88.582 48.5018C89.2204 48.0809 89.7553 47.5213 90.1465 46.8648C90.3178 46.5684 90.4123 46.2341 90.4215 45.892C90.4094 45.8147 90.3997 45.7376 90.3922 45.6597C90.3849 45.6057 90.3654 45.5541 90.3353 45.5088C90.2793 45.4226 90.1925 45.361 90.0926 45.3365C89.9927 45.3121 89.8872 45.3266 89.7976 45.3771C89.7498 45.4049 89.7075 45.4414 89.673 45.4846C89.6014 45.5701 89.5278 45.6532 89.4522 45.734C89.1516 46.0528 88.8237 46.3449 88.4723 46.6069C87.7711 47.1272 86.9913 47.5324 86.1623 47.8073C85.3489 48.0533 84.5174 48.2352 83.6755 48.3511C83.2713 48.4205 82.8533 48.4854 82.4925 48.5764C82.1492 48.7066 81.8277 48.8882 81.539 49.1148C80.8836 49.5797 80.241 50.1027 79.5981 50.6198C78.3242 51.702 76.9895 52.7106 75.6004 53.6407C75.2276 53.8813 74.8261 54.0743 74.4052 54.2152C73.9876 54.3192 73.564 54.3977 73.1369 54.4503C72.3054 54.5652 71.4803 54.6416 70.6543 54.725C69.0039 54.885 67.3548 55.02 65.7157 55.2179C64.8968 55.3173 64.0792 55.4282 63.2742 55.5835C62.4788 55.6945 61.7072 55.936 60.9907 56.2983L60.9739 56.3082C60.9325 56.3326 60.8831 56.3395 60.8366 56.3274C60.7901 56.3154 60.7503 56.2854 60.7259 56.2441C60.7214 56.2363 60.7174 56.2282 60.714 56.2199L57.6626 48.6469C57.6585 48.6372 57.6585 48.6263 57.6624 48.6166C57.6664 48.6068 57.6741 48.5991 57.6838 48.595C57.6935 48.5909 57.7044 48.5908 57.7142 48.5947C57.7239 48.5987 57.7317 48.6064 57.7358 48.6161L61.0538 56.0764L60.7772 55.998C60.9655 55.8821 61.1615 55.7793 61.3639 55.6904C61.5644 55.6186 61.7635 55.5308 61.9662 55.4729L62.575 55.3017L63.1877 55.1624C64.0054 54.9836 64.8278 54.8516 65.6506 54.7308C67.2966 54.4942 68.946 54.3068 70.5909 54.1218C71.4116 54.0263 72.2356 53.9371 73.0437 53.8128C73.438 53.7581 73.8288 53.6804 74.214 53.5801C74.5762 53.4497 74.921 53.2753 75.2406 53.0609C76.5887 52.1259 77.8827 51.1155 79.1165 50.0346C79.7561 49.5054 80.3883 48.9695 81.0783 48.4686C81.4415 48.1837 81.8491 47.9601 82.2847 47.8066C82.7272 47.6943 83.1295 47.6342 83.541 47.5612C84.3407 47.4491 85.1304 47.275 85.903 47.0403C86.6488 46.7907 87.35 46.4238 87.98 45.9536C88.292 45.7196 88.583 45.4589 88.8498 45.1744C88.9153 45.1038 88.9786 45.0318 89.0397 44.9585C89.1361 44.841 89.2526 44.7415 89.3838 44.6647C89.6575 44.5069 89.9814 44.4603 90.2885 44.5344C90.5956 44.6085 90.8624 44.7977 91.0337 45.0627C91.1171 45.1909 91.1747 45.334 91.2035 45.4841L91.2522 45.8671C91.2495 46.3553 91.1221 46.8347 90.8819 47.26C90.4309 48.0352 89.8079 48.6971 89.0609 49.1947C88.6949 49.4461 88.304 49.6593 87.8944 49.8312L87.5755 49.9502L87.2384 50.042C87.1248 50.0704 86.9995 50.0816 86.8805 50.1004C86.762 50.1178 86.6853 50.1173 86.591 50.1335C86.4324 50.15 86.2775 50.1923 86.1325 50.2588C86.0975 50.2748 86.0662 50.298 86.0407 50.3269C86.0328 50.3384 86.0315 50.335 86.0316 50.3657C86.0354 50.4056 86.0489 50.4441 86.0708 50.4777C86.0927 50.5114 86.1224 50.5393 86.1574 50.559C86.2517 50.619 86.3007 50.6187 86.558 50.6316C87.3997 50.6771 88.2383 50.7683 89.0701 50.9047C90.7222 51.1873 92.3512 51.5903 93.9443 52.1106C95.5438 52.6015 97.1106 53.1931 98.6353 53.8817C99.0229 54.0647 99.3985 54.2721 99.7599 54.5025C100.157 54.7406 100.498 55.0611 100.761 55.4424C100.896 55.6602 100.976 55.9079 100.993 56.1637L101 56.3389L101 56.42L101 56.4605C101 56.4844 100.999 56.5083 100.995 56.5318C100.987 56.6091 100.959 56.683 100.913 56.7455C100.891 56.7758 100.866 56.8042 100.84 56.8307C100.818 56.8478 100.795 56.8636 100.771 56.8781C100.696 56.9244 100.613 56.9564 100.526 56.9724C100.291 57.0081 100.052 57.0114 99.8166 56.9822C99.5983 56.962 99.3878 56.929 99.1785 56.8925C98.3442 56.7432 97.5383 56.5315 96.7349 56.3082C96.3338 56.195 95.9344 56.0767 95.5366 55.9534C95.1433 55.8415 94.7278 55.6729 94.3692 55.5862C93.9796 55.5009 93.5828 55.4522 93.1842 55.4409C92.9853 55.4336 92.7863 55.4364 92.5877 55.4493C92.4902 55.4565 92.3936 55.4667 92.3027 55.4825C92.2298 55.4924 92.1588 55.5125 92.0916 55.5422C92.0839 55.5437 92.0958 55.5447 92.1138 55.5091C92.1247 55.4859 92.1294 55.4603 92.1275 55.4347C92.1263 55.4032 92.1167 55.3726 92.0997 55.346C92.122 55.3663 92.1455 55.3853 92.1701 55.4029C92.2444 55.456 92.3282 55.5101 92.4145 55.5616C92.5863 55.6657 92.7655 55.7657 92.9455 55.8639C93.306 56.0603 93.6727 56.2499 94.0407 56.4371C94.7771 56.8111 95.5202 57.1749 96.2651 57.5348C96.6398 57.7199 97.0061 57.8815 97.3894 58.0827C97.7662 58.2881 98.1128 58.5445 98.4193 58.8446C98.7271 59.145 98.9872 59.4905 99.1906 59.8692C99.2986 60.0654 99.3735 60.278 99.4124 60.4984C99.436 60.6226 99.4281 60.7508 99.3893 60.8711C99.3505 60.9915 99.282 61.1002 99.1903 61.1873C99.0085 61.3363 98.7876 61.4301 98.554 61.4574C98.3401 61.4904 98.1235 61.5021 97.9073 61.4922C97.4841 61.4735 97.0635 61.4159 96.6508 61.3203L96.8049 61.1472C96.8791 61.3026 96.9162 61.4731 96.9132 61.6453C96.9101 61.8174 96.8672 61.9865 96.7876 62.1393C96.6753 62.2684 96.5353 62.3707 96.378 62.4385C96.2208 62.5063 96.0502 62.5379 95.8791 62.531C95.2562 62.5365 94.6365 62.4432 94.0429 62.2548L94.1986 62.1437C94.1923 62.1882 94.1837 62.2324 94.1729 62.2761C94.152 62.3176 94.1277 62.3573 94.1001 62.3947C94.0414 62.4527 93.9705 62.4969 93.8925 62.524C93.7597 62.5674 93.6207 62.5891 93.4809 62.5885C93.221 62.5889 92.9614 62.5669 92.7052 62.5228C92.2035 62.4359 91.7067 62.3227 91.2168 62.1837C90.2393 61.9113 89.2808 61.5915 88.3294 61.2401L88.3943 61.2495C87.6022 61.2882 86.8089 61.2005 86.0445 60.9897C85.2889 60.7708 84.5577 60.4753 83.8624 60.1077C83.1703 59.7406 82.5057 59.3241 81.8738 58.8613C81.2366 58.4023 80.6309 57.9012 80.0605 57.3616L80.3729 57.3952C77.2393 59.4889 74.0886 61.5602 70.8664 63.5236L68.4433 64.9867C67.6265 65.461 66.8111 65.9359 65.9795 66.386C64.3264 67.301 62.6472 68.177 60.905 68.9388C60.0312 69.3255 59.1342 69.6575 58.2191 69.9328C57.756 70.0723 57.2846 70.1829 56.8077 70.2639C56.3146 70.3519 55.8121 70.3763 55.3127 70.3365C54.7953 70.219 54.3227 69.9554 53.9511 69.5773C53.5992 69.2405 53.2764 68.8746 52.9863 68.4836C52.4226 67.7151 51.9116 66.9095 51.4569 66.0722C50.5509 64.414 49.7369 62.7072 49.0186 60.9598C48.292 59.2201 47.6099 57.4636 47.0021 55.6803C47.0005 55.6754 46.9998 55.6702 47.0001 55.665C47.0004 55.6598 47.0018 55.6547 47.0041 55.65C47.0064 55.6454 47.0096 55.6412 47.0135 55.6378C47.0174 55.6343 47.022 55.6317 47.0269 55.63C47.0366 55.6269 47.0472 55.6276 47.0565 55.6319C47.0657 55.6362 47.073 55.6439 47.0768 55.6533Z" fill="#020202"/>
<path d="M58 64.5C58.476 63.8924 58.8768 63.2255 59.1932 62.5147C59.5137 61.8093 59.7768 61.0773 59.9796 60.3264C60.1745 59.5753 60.3152 58.8102 60.4005 58.0375C60.458 57.6538 60.4598 57.2633 60.4923 56.8774C60.5079 56.49 60.5016 56.1015 60.5076 55.7144L60.5078 55.6995C60.5081 55.6729 60.5135 55.6467 60.5236 55.6222C60.5337 55.5978 60.5484 55.5757 60.5667 55.5572C60.5851 55.5386 60.6068 55.524 60.6306 55.5142C60.6544 55.5044 60.6799 55.4996 60.7055 55.5C60.7311 55.5004 60.7564 55.5061 60.7799 55.5167C60.8034 55.5273 60.8247 55.5426 60.8425 55.5617C60.8603 55.5808 60.8743 55.6034 60.8836 55.6282C60.893 55.6529 60.8975 55.6793 60.8971 55.7059L60.8968 55.7144C60.8747 56.1104 60.8645 56.5065 60.8322 56.9009C60.783 57.2939 60.7643 57.6899 60.6897 58.0789C60.5706 58.8598 60.3956 59.6304 60.1662 60.3844C59.9299 61.1341 59.6335 61.8619 59.28 62.5602C58.9329 63.2597 58.5029 63.9113 58 64.5ZM93.1768 62.0087L88.2039 59.7645L93.3191 61.6327C93.3676 61.6507 93.4073 61.6879 93.4294 61.7361C93.4516 61.7844 93.4544 61.8398 93.4373 61.8902C93.4202 61.9406 93.3845 61.9819 93.3381 62.0051C93.2918 62.0283 93.2384 62.0315 93.1897 62.014L93.1768 62.0087ZM95.7228 61.0403L89.8853 58.2067L95.877 60.6695C95.925 60.6892 95.9635 60.7279 95.984 60.7771C96.0045 60.8263 96.0053 60.8819 95.9863 60.9317C95.9673 60.9816 95.93 61.0215 95.8826 61.0428C95.8352 61.064 95.7816 61.0649 95.7336 61.0451L95.7228 61.0403Z" fill="#020202"/>
<path d="M65.1672 66.0819C66.4227 66.8208 67.6638 67.5835 68.9112 68.3357L68.7356 68.3361C69.997 67.4632 71.2662 66.5996 72.507 65.7002C73.1259 65.2508 73.7469 64.7964 74.3276 64.3169C74.8915 63.8381 75.3728 63.2644 75.7509 62.6202C75.955 62.2992 76.1486 61.969 76.3349 61.6338L76.6083 61.127L76.6819 60.99C76.7177 60.9264 76.7602 60.8671 76.8084 60.813C76.9074 60.7049 77.0286 60.621 77.1632 60.5675C77.367 60.485 77.5923 60.4779 77.8006 60.5473C78.009 60.6167 78.1875 60.7584 78.3058 60.9482C78.3617 61.0402 78.4122 61.1256 78.4619 61.2177C78.6717 61.5884 78.824 61.9905 78.9134 62.4096C79.0143 62.8721 78.9604 63.356 78.7606 63.7829C78.7078 63.8906 78.6453 63.9929 78.5739 64.0885L78.4008 64.3195L78.0699 64.7799C77.6383 65.4015 77.2507 66.0544 76.91 66.7333L76.5915 66.2197C78.3261 66.1919 80.0622 66.2043 81.7975 66.2768C83.5325 66.3464 85.2684 66.4533 86.9956 66.6858C87.4274 66.743 87.858 66.8131 88.2875 66.896C88.5093 66.944 88.7003 66.9699 88.9469 67.0456C89.0703 67.092 89.1816 67.1673 89.272 67.2654C89.3625 67.3636 89.4296 67.482 89.4682 67.6113C89.5063 67.7392 89.516 67.8742 89.4966 68.0065C89.4772 68.1387 89.4293 68.2648 89.3563 68.3754C89.281 68.4827 89.1847 68.5725 89.0735 68.639C88.9704 68.6948 88.8702 68.7388 88.7684 68.789C88.3628 68.9674 87.9418 69.1063 87.511 69.2038C85.8038 69.5614 84.0669 69.7471 82.3249 69.7584L82.3844 69.4922C84.2234 70.4115 86.0807 71.292 87.9302 72.189L88.6251 72.5233C88.8789 72.6453 89.1123 72.8079 89.3169 73.005C89.5251 73.2054 89.6967 73.4425 89.8237 73.7052C89.9898 73.9951 90.041 74.3397 89.9667 74.6675C89.9313 74.7638 89.8771 74.8515 89.8074 74.9253C89.7378 74.999 89.6541 75.0573 89.5616 75.0963C89.4145 75.1574 89.2587 75.1934 89.1004 75.2031C88.8232 75.2184 88.5451 75.201 88.2717 75.151C87.7495 75.0584 87.2361 74.9189 86.7376 74.7341L87.1327 74.5454C87.0118 74.8701 86.7882 75.1433 86.498 75.321C86.2417 75.4821 85.9611 75.598 85.6677 75.664C85.3918 75.7309 85.1111 75.7747 84.8283 75.795C84.5474 75.8164 84.2654 75.819 83.9841 75.8031L84.2127 75.7373C84.0193 75.8672 83.8119 75.9737 83.5947 76.0546C83.3955 76.1318 83.1917 76.1964 82.9847 76.2478C82.5789 76.3483 82.1661 76.4158 81.75 76.4498C81.3158 76.4734 80.8806 76.43 80.4589 76.321C80.0598 76.2311 79.6795 76.1365 79.2986 76.0596C77.767 75.7823 76.2017 75.7655 74.6648 76.0097C74.2769 76.0664 73.8887 76.1189 73.5027 76.1974L72.9225 76.3031L72.3099 76.3961C71.4755 76.5415 70.6227 76.5343 69.7908 76.3746C69.3561 76.2873 68.938 76.1284 68.5525 75.9039C68.3555 75.7887 68.1716 75.6511 68.0043 75.4937L67.7546 75.2544L67.544 74.9787C67.4084 74.7929 67.2896 74.5948 67.189 74.3868C67.097 74.1783 67.0201 73.9632 66.9588 73.7431C66.8345 73.301 66.78 72.8413 66.7974 72.3814L67.1964 72.8239C66.2739 72.7699 65.3548 72.6664 64.4428 72.5138C63.5424 72.3776 62.6466 72.2265 61.7514 72.0707C59.9616 71.755 58.1764 71.4283 56.396 71.046C55.9498 70.9456 55.51 70.8543 55.0535 70.7163C54.6103 70.551 54.1829 70.3437 53.7768 70.0972C52.9779 69.6334 52.2138 69.1269 51.4542 68.6133C49.9446 67.5722 48.4651 66.4908 47.0156 65.369C47.0073 65.3626 47.0019 65.3531 47.0004 65.3425C46.9989 65.332 47.0016 65.3212 47.0078 65.3127C47.0139 65.3046 47.0227 65.2991 47.0325 65.2973C47.0423 65.2956 47.0524 65.2978 47.0607 65.3033C48.5785 66.3222 50.0992 67.3371 51.6498 68.295C52.4226 68.7763 53.2013 69.2508 53.9972 69.6734C54.38 69.8863 54.7804 70.0637 55.1938 70.2034C55.6098 70.3126 56.0632 70.3906 56.5049 70.472C58.2827 70.7959 60.0678 71.0919 61.8602 71.3598C62.7548 71.494 63.6503 71.6235 64.5454 71.7376C65.4338 71.8442 66.3509 71.9744 67.1964 71.9996C67.3054 72.0029 67.4087 72.0506 67.4836 72.1323C67.5585 72.214 67.5988 72.323 67.5956 72.4353L67.5954 72.4421C67.5904 72.8038 67.639 73.1641 67.7395 73.5107C67.79 73.6844 67.8523 73.8542 67.926 74.0189C68.1251 74.4195 68.4137 74.7657 68.7682 75.029C69.1226 75.2922 69.5327 75.465 69.9646 75.533C71.4068 75.8591 72.9405 75.3619 74.5645 75.1794C76.1872 74.9451 77.8362 74.9861 79.4461 75.3006C80.2467 75.459 81.018 75.7558 81.6944 75.7093C82.0733 75.6835 82.4496 75.6272 82.82 75.5409C83.0009 75.4986 83.1794 75.446 83.3547 75.3835C83.5135 75.3276 83.6667 75.2561 83.8121 75.1699L83.8319 75.1571C83.8941 75.1165 83.9675 75.0979 84.0409 75.104C84.2892 75.1231 84.5384 75.1261 84.787 75.1131C85.034 75.1011 85.2797 75.0688 85.5216 75.0162C85.7344 74.9954 85.9394 74.9227 86.1195 74.8043C86.2997 74.6858 86.4499 74.5248 86.5578 74.3348L86.5603 74.328C86.5893 74.2505 86.6468 74.1878 86.7204 74.1538C86.7939 74.1197 86.8776 74.1169 86.9531 74.1461C87.4137 74.3266 87.8877 74.4686 88.3704 74.5707C88.5991 74.6213 88.8327 74.6452 89.0666 74.6417C89.164 74.6398 89.2605 74.6228 89.3529 74.5911C89.3802 74.5831 89.4055 74.5692 89.4272 74.5504C89.4489 74.5315 89.4665 74.5082 89.4788 74.4819C89.5062 74.2894 89.4705 74.093 89.3775 73.9237C89.2829 73.7106 89.152 73.5168 88.991 73.3513C88.827 73.1823 88.638 73.041 88.4312 72.9327L87.7474 72.5759C85.921 71.63 84.1023 70.6677 82.2653 69.7443C82.2492 69.7362 82.2349 69.725 82.223 69.7112C82.2112 69.6974 82.2021 69.6813 82.1963 69.6639C82.1905 69.6465 82.188 69.6281 82.1891 69.6097C82.1902 69.5913 82.1948 69.5733 82.2026 69.5568C82.2141 69.5334 82.2315 69.5137 82.2531 69.4998C82.2746 69.4859 82.2995 69.4784 82.3249 69.4781C84.0477 69.4968 85.7674 69.3217 87.4534 68.9561C87.8679 68.8602 88.2723 68.7227 88.6608 68.5455C88.753 68.4973 88.8514 68.4511 88.9385 68.4018C89.0139 68.3541 89.079 68.291 89.1297 68.2164C89.1769 68.1408 89.2071 68.0552 89.2181 67.966C89.229 67.8768 89.2205 67.7862 89.1931 67.7009C89.1663 67.617 89.1209 67.5407 89.0605 67.478C89.0002 67.4153 88.9265 67.3679 88.8453 67.3395C88.6761 67.2915 88.4367 67.2548 88.2334 67.2216C87.8091 67.1568 87.3825 67.103 86.9539 67.0626C85.2396 66.8972 83.5119 66.8559 81.7864 66.8486C80.0602 66.848 78.3333 66.8842 76.6066 66.9331L76.6034 66.9332C76.5124 66.9357 76.4241 66.9009 76.358 66.8365C76.2919 66.772 76.2533 66.6831 76.2508 66.5893C76.2494 66.5304 76.2622 66.4721 76.2879 66.4194C76.6424 65.7039 77.0469 65.0158 77.4982 64.3607C77.6109 64.1971 77.7264 64.0353 77.8473 63.8774L78.0258 63.6457C78.0711 63.5866 78.1109 63.5233 78.1448 63.4566C78.2793 63.172 78.3159 62.8488 78.2486 62.54C78.1774 62.1918 78.0543 61.857 77.8838 61.5475C77.8424 61.4677 77.7948 61.3851 77.751 61.3105C77.7274 61.2716 77.6956 61.2387 77.6579 61.2142C77.6184 61.1892 77.5739 61.174 77.5277 61.1696C77.4816 61.1652 77.4351 61.1718 77.3918 61.1889C77.3482 61.2054 77.3085 61.2314 77.2756 61.2653C77.2594 61.2832 77.245 61.3029 77.2328 61.3239C77.218 61.3455 77.1883 61.4045 77.1668 61.443L76.8791 61.9594C76.6828 62.3013 76.4785 62.6392 76.2614 62.9706C76.0433 63.3056 75.8082 63.6284 75.5569 63.9377C75.3001 64.255 75.0073 64.5395 74.6848 64.7852C74.0621 65.2645 73.4266 65.6956 72.7877 66.1272C71.507 66.9817 70.2206 67.8195 68.9119 68.6241L68.9045 68.6287C68.879 68.6444 68.8496 68.6523 68.8198 68.6516C68.7901 68.6508 68.7611 68.6414 68.7363 68.6245C67.5322 67.8007 66.3218 66.9874 65.1258 66.1502C65.1175 66.1443 65.1117 66.1354 65.1096 66.1252C65.1075 66.115 65.1093 66.1044 65.1147 66.0956C65.12 66.0868 65.1285 66.0804 65.1383 66.0779C65.1481 66.0753 65.1584 66.0768 65.1672 66.0819Z" fill="#020202"/>
<path d="M75.5965 67.5C75.4277 68.2454 75.1511 68.9616 74.7757 69.6252C74.4049 70.306 73.9139 70.9122 73.3271 71.4137C72.7274 71.9254 71.9898 72.243 71.2098 72.3255C70.444 72.3876 69.6769 72.225 69 71.8573C69.7029 72.0716 70.4438 72.1268 71.1701 72.0191C71.875 71.8901 72.5338 71.5754 73.0804 71.1067C73.636 70.6327 74.1201 70.079 74.5173 69.463C74.9288 68.8393 75.2897 68.1828 75.5965 67.5ZM86.7135 74.4795L80.1864 71.0836L86.8829 74.1227C86.9065 74.1331 86.9279 74.1483 86.9458 74.1672C86.9636 74.1861 86.9776 74.2084 86.9869 74.2328C86.9962 74.2571 87.0006 74.2831 86.9999 74.3093C86.9992 74.3354 86.9935 74.3612 86.9829 74.385C86.9723 74.4089 86.9572 74.4304 86.9384 74.4483C86.9196 74.4662 86.8975 74.4802 86.8733 74.4894C86.8491 74.4986 86.8234 74.5029 86.7976 74.502C86.7718 74.501 86.7464 74.495 86.7229 74.4841L86.7135 74.4795ZM83.8864 75.4807L79.2566 73.2826L84.0388 75.116C84.063 75.1251 84.0852 75.1389 84.1042 75.1567C84.1231 75.1745 84.1384 75.1959 84.1491 75.2197C84.1598 75.2435 84.1658 75.2692 84.1666 75.2954C84.1675 75.3215 84.1632 75.3476 84.154 75.372C84.1449 75.3965 84.131 75.4189 84.1133 75.4379C84.0956 75.4569 84.0743 75.4722 84.0507 75.4829C84.0271 75.4935 84.0016 75.4993 83.9758 75.4999C83.95 75.5006 83.9243 75.496 83.9002 75.4866L83.8864 75.4807Z" fill="#020202"/>
<path d="M81 69.6476C80.7045 70.6557 80.3377 71.6417 79.9021 72.5979C79.4829 73.5615 78.9949 74.4938 78.4418 75.3876C78.7364 74.3792 79.1033 73.3932 79.5396 72.4373C79.9596 71.4741 80.4476 70.5418 81 69.6476ZM76.5509 69.1183C76.6773 69.8961 76.6947 70.6877 76.6025 71.4702C76.5609 71.863 76.4884 72.2519 76.3859 72.6334C76.2948 73.0232 76.1291 73.3918 75.8978 73.7188C75.9818 73.341 76.0433 72.9585 76.082 72.5735L76.2082 71.427C76.2825 70.6521 76.3969 69.8815 76.5509 69.1183ZM52.6344 20.1007C54.9639 24.7826 61.0809 20.1007 61.0809 20.1007C61.0809 20.1007 56.9583 20.1821 56.1828 17.5766C55.4072 14.971 56.3461 12.2025 57.6522 12.9354C58.6476 13.5167 59.4117 14.4226 59.8156 15.5002C59.9788 16.0295 62.0197 16.8437 62.0197 16.0702C62.0197 15.3934 61.5822 10.5709 60.3517 7.90301C60.2075 7.60446 60.1305 7.27806 60.1262 6.94671C60.1218 6.61536 60.1902 6.28706 60.3264 5.98483C60.4627 5.68261 60.6636 5.41377 60.915 5.19716C61.1665 4.98054 61.4624 4.82141 61.782 4.73089C61.8065 4.72431 61.8313 4.71783 61.8564 4.71146C64.2647 4.10078 66.7118 3.21013 66.7119 3.21004C66.0046 2.47972 65.1589 1.89682 64.2239 1.49519C64.2239 1.49519 59.7747 -0.743989 54.0602 1.49519C48.3457 3.73437 46.7538 12.7318 50.9581 17.1287C52.2167 18.4451 52.6705 19.641 52.6886 20.6707M61.285 20.8335C61.2312 21.4396 61.3911 22.0455 61.7373 22.5465C62.0861 23.0153 62.6669 23.1897 63.2536 23.4289C64.4108 23.8958 65.577 24.3506 66.7119 24.9048C65.4805 24.6375 64.2741 24.2666 63.1057 23.7959C62.8118 23.6683 62.5296 23.5679 62.2298 23.4043C61.9273 23.2436 61.6706 23.0089 61.4839 22.7222C61.3173 22.4399 61.2134 22.1252 61.1791 21.7994C61.1448 21.4736 61.1809 21.1442 61.285 20.8335ZM65.0402 10.1669C65.0356 9.73834 65.1499 9.31684 65.3705 8.94898C65.5962 8.55165 65.9378 8.23229 66.35 8.03338C66.7804 7.82651 67.2753 7.79753 67.727 7.95274C67.9366 8.02124 68.1344 8.12149 68.3135 8.24997C68.4798 8.383 68.6299 8.53513 68.7605 8.70321C68.5392 8.68718 68.351 8.63316 68.16 8.60726C67.9799 8.57987 67.798 8.56585 67.6158 8.5653C67.2944 8.5481 66.9738 8.61212 66.6838 8.75144C66.3811 8.90071 66.1036 9.09601 65.8611 9.33032C65.592 9.57634 65.3319 9.85894 65.0402 10.1669ZM71.0031 19.4922C70.6996 19.701 70.4416 19.8577 70.1983 20.0473C70.0741 20.1367 69.9568 20.2343 69.8368 20.3378C69.7132 20.4396 69.5997 20.555 69.4485 20.6707C69.4564 20.4856 69.5066 20.3047 69.5952 20.1419C69.6838 19.979 69.8085 19.8385 69.9598 19.7311C70.1078 19.62 70.2765 19.5393 70.456 19.4938C70.6348 19.4432 70.8241 19.4426 71.0031 19.4922ZM69.6935 15.4595C69.5813 15.6961 69.5108 15.9502 69.4851 16.2106C69.4678 16.3316 69.4746 16.4549 69.5051 16.5733C69.5357 16.6917 69.5893 16.8029 69.6631 16.9005C69.8307 17.0686 70.0494 17.1764 70.2851 17.207C70.4098 17.216 70.5318 17.2312 70.6562 17.2331L71.0341 17.2159L71.0535 17.215C71.1061 17.2129 71.1573 17.2317 71.1961 17.2672C71.2348 17.3027 71.2579 17.352 71.2603 17.4044C71.2627 17.4568 71.2442 17.5081 71.2089 17.5469C71.1736 17.5858 71.1243 17.6092 71.0718 17.6119C71.0635 17.6123 71.0552 17.6121 71.0469 17.6115L70.6317 17.5786C70.4933 17.5592 70.3542 17.525 70.2178 17.4963C69.9322 17.4215 69.6802 17.2527 69.5027 17.0173C69.43 16.8948 69.3824 16.7592 69.3625 16.6183C69.3426 16.4774 69.3509 16.334 69.3869 16.1963C69.4458 15.9349 69.5496 15.6857 69.6935 15.4595ZM67.6748 14.0555C67.5903 14.0554 67.5089 14.024 67.4464 13.9674C67.3839 13.9107 67.3448 13.8329 67.3366 13.7491L67.128 11.6174C67.1237 11.573 67.1282 11.5282 67.1412 11.4856C67.1542 11.443 67.1755 11.4033 67.2039 11.3689C67.2322 11.3345 67.2671 11.306 67.3065 11.2851C67.346 11.2641 67.3891 11.2511 67.4336 11.2468C67.4781 11.2424 67.5229 11.2469 67.5657 11.2599C67.6084 11.2728 67.6481 11.2941 67.6827 11.3224C67.7172 11.3507 67.7457 11.3855 67.7668 11.4248C67.7878 11.4641 67.8008 11.5072 67.8052 11.5515L68.0138 13.6833C68.0181 13.7276 68.0136 13.7724 68.0006 13.815C67.9876 13.8576 67.9663 13.8973 67.9379 13.9317C67.9096 13.9661 67.8747 13.9946 67.8352 14.0156C67.7958 14.0366 67.7527 14.0496 67.7082 14.0539C67.6972 14.0549 67.6858 14.0555 67.6748 14.0555ZM53.3079 98.5333C53.7927 100.537 54.239 102.547 54.629 104.565C55.0316 106.582 55.388 108.606 55.7358 110.631C56.0688 112.658 56.3921 114.688 56.6698 116.724C56.9584 118.759 57.1965 120.803 57.384 122.855C56.8919 120.854 56.4501 118.844 56.0585 116.825C55.6563 114.808 55.2996 112.784 54.9528 110.758C54.6206 108.73 54.2973 106.7 54.0198 104.663C53.7329 102.627 53.4897 100.585 53.3079 98.5333ZM62.2215 151.446C62.4795 152.606 62.7055 153.771 62.9474 154.934L63.6208 158.431C63.6322 158.49 63.6219 158.55 63.5919 158.601L63.5898 158.605C63.3256 159.061 62.964 159.454 62.5305 159.756C62.0892 160.026 61.6062 160.223 61.1008 160.337C60.6075 160.447 60.1034 160.502 59.5978 160.5C59.0931 160.504 58.5891 160.462 58.092 160.375C58.0278 160.363 57.9686 160.333 57.9223 160.287C57.876 160.241 57.8447 160.182 57.8326 160.118L57.8296 160.101C56.8742 154.986 56.2742 149.812 55.4627 144.673C55.2612 143.388 55.0374 142.107 54.812 140.826C54.5943 139.544 54.3582 138.265 54.1152 136.987C53.6361 134.429 53.1381 131.875 52.6813 129.314C51.7715 124.192 50.8469 119.071 50.0514 113.93C49.265 108.787 48.4718 103.645 47.8355 98.4765C47.8342 98.4663 47.8369 98.4561 47.8431 98.4479C47.8492 98.4397 47.8582 98.4342 47.8683 98.4326C47.8784 98.4309 47.8888 98.4332 47.8972 98.4389C47.9057 98.4447 47.9116 98.4535 47.9137 98.4635C48.994 103.558 49.9144 108.679 50.8419 113.798C51.7604 118.919 52.5496 124.062 53.3538 129.202C53.7538 131.773 54.1129 134.35 54.4908 136.924C54.6762 138.212 54.8686 139.498 55.0795 140.782C55.2825 142.066 55.4872 143.351 55.7141 144.631C56.6261 149.754 57.7346 154.843 58.4942 159.991L58.2319 159.718C58.683 159.804 59.1409 159.85 59.6001 159.854C60.0589 159.865 60.5174 159.825 60.9671 159.733C61.4047 159.643 61.8247 159.482 62.2108 159.258C62.5803 159.023 62.8947 158.711 63.1325 158.344L63.1014 158.518L62.5961 154.993C62.4451 153.815 62.2782 152.639 62.1433 151.459C62.1421 151.449 62.1449 151.438 62.151 151.43C62.1571 151.422 62.1661 151.417 62.1762 151.415C62.1862 151.413 62.1965 151.416 62.2049 151.421C62.2134 151.427 62.2193 151.436 62.2215 151.446ZM25.2319 98.9991C24.3052 104.12 23.302 109.226 22.2898 114.329C21.2471 119.426 20.2333 124.53 19.1229 129.613L15.7416 144.851C15.1941 147.394 14.639 149.936 14.1273 152.486L13.3438 156.309L12.5873 160.137C12.5797 160.175 12.5607 160.209 12.5328 160.236C12.505 160.263 12.4697 160.281 12.4315 160.287C11.9415 160.362 11.4456 160.393 10.95 160.378C10.4517 160.37 9.95581 160.306 9.47159 160.189C8.97586 160.067 8.50366 159.864 8.07396 159.589C7.64602 159.287 7.29005 158.894 7.03129 158.439C7.00303 158.39 6.99348 158.333 7.0044 158.277L7.00715 158.263C7.98819 153.268 8.99485 148.278 10.0271 143.294L11.5637 135.814L13.1479 128.345C14.1878 123.362 15.3041 118.395 16.3887 113.422L18.0643 105.971L19.7854 98.5307C19.7878 98.5206 19.794 98.5118 19.8027 98.5062C19.8115 98.5007 19.822 98.4987 19.8322 98.5009C19.8424 98.503 19.8513 98.509 19.8571 98.5176C19.8628 98.5262 19.865 98.5367 19.863 98.5469L18.4446 106.051L16.9806 113.545C15.9722 118.535 14.9955 123.531 13.9423 128.511L12.3869 135.986L10.784 143.452C9.71541 148.429 8.62902 153.402 7.52478 158.371L7.50063 158.196C7.71046 158.584 8.00193 158.922 8.35508 159.188C8.73224 159.441 9.14833 159.632 9.58699 159.752C10.037 159.874 10.4994 159.945 10.9655 159.963C11.4334 159.987 11.9025 159.969 12.3673 159.909L12.2116 160.059L13.0543 156.249L13.87 152.433C14.4244 149.891 14.9354 147.34 15.4541 144.791L18.4696 129.477C19.4915 124.375 20.6099 119.294 21.6996 114.206C22.8196 109.125 23.9487 104.046 25.1542 98.9829C25.1566 98.9729 25.1628 98.9642 25.1715 98.9586C25.1803 98.9531 25.1908 98.9512 25.201 98.9533C25.2111 98.9554 25.22 98.9614 25.2258 98.9699C25.2316 98.9785 25.2338 98.989 25.2319 98.9991Z" fill="#020202"/>
<path d="M21 96.698L5.0872 158.462C5.0872 158.462 1.16939 158.947 0 156.464L15.5208 96.5" fill="#020202"/>
<path d="M53.9663 99.1632L53.0333 99.3093C52.7209 99.3441 52.408 99.3633 52.0947 99.3875C51.4678 99.4452 50.8416 99.4431 50.2143 99.4713C48.9607 99.5001 47.7066 99.5112 46.454 99.4858C43.9487 99.4424 41.4437 99.3818 38.9424 99.2645L31.4404 98.8943C28.9401 98.77 26.4439 98.5903 23.9457 98.4489L16.4437 97.9832C13.9295 97.7338 11.4038 96.7596 9.63114 94.8976C8.75578 93.9701 8.05697 92.8887 7.56944 91.7072C7.07226 90.5327 6.77168 89.2834 6.6799 88.01C6.41246 85.5051 6.09561 83.0044 5.80491 80.5017C5.19705 75.4986 4.61361 70.494 4.05462 65.4879L3.21735 57.9785L3.01234 56.0941C2.94823 55.3637 3.13529 54.6333 3.54219 54.0251C3.94812 53.4164 4.55184 52.969 5.24973 52.7595C5.42114 52.7082 5.59623 52.6703 5.77344 52.6462L6.24988 52.5901C6.56837 52.5572 6.88809 52.5317 7.20955 52.5164C7.85871 52.4811 8.50968 52.5028 9.1551 52.5812C9.82867 52.6553 10.4831 52.8527 11.0862 53.1636C11.4016 53.3339 11.6872 53.555 11.9316 53.8183C12.0532 53.9553 12.1614 54.1038 12.2547 54.2617C12.3469 54.4107 12.4238 54.5687 12.4842 54.7333C12.7412 55.3464 12.9124 55.953 13.1089 56.5601C13.8237 58.9911 14.4362 61.435 15.0427 63.8826C16.2321 68.7819 17.32 73.7025 18.3406 78.6379C18.3428 78.6482 18.3408 78.6589 18.3352 78.6677C18.3296 78.6766 18.3208 78.6829 18.3106 78.6853C18.3004 78.6877 18.2897 78.6859 18.2808 78.6805C18.2719 78.675 18.2654 78.6663 18.2628 78.6561C16.9993 73.7791 15.7402 68.9016 14.4378 64.0396C13.7862 61.6102 13.1264 59.1787 12.3742 56.7915C12.1744 56.2038 11.9816 55.6036 11.7504 55.0554C11.7035 54.924 11.6425 54.7982 11.5684 54.6802C11.5017 54.5676 11.4243 54.4617 11.3374 54.3641C11.1523 54.1682 10.9366 54.0039 10.699 53.8778C9.70862 53.3565 8.44995 53.2901 7.2493 53.3447C6.94568 53.3604 6.64165 53.386 6.3378 53.4185L5.88217 53.4741C5.74936 53.4929 5.61817 53.5219 5.48977 53.5609C4.9773 53.7167 4.53488 54.0476 4.23879 54.4966C3.94197 54.9442 3.80686 55.4808 3.85604 56.0167L4.04535 57.8906L4.80235 65.4132C5.31069 70.4277 5.79011 75.4444 6.24061 80.4634C6.4813 82.9714 6.69585 85.4814 6.9599 87.9871C7.08501 90.4996 8.10319 92.8831 9.82873 94.7027C10.6998 95.5847 11.7405 96.2785 12.8872 96.7416C14.0383 97.1895 15.2507 97.4578 16.4823 97.5372C17.7058 97.6056 18.981 97.5956 20.2261 97.6476L23.9811 97.7836C26.4815 97.9154 28.983 98.0249 31.4803 98.1895L38.9735 98.6483C41.4713 98.7923 43.9677 98.9585 46.466 99.0642C48.9611 99.151 51.4697 99.3324 53.9508 99.0842L53.9562 99.0837C53.9665 99.0826 53.9768 99.0857 53.985 99.0922C53.9931 99.0987 53.9984 99.1081 53.9997 99.1185C54.001 99.1288 53.9982 99.1393 53.992 99.1477C53.9857 99.156 53.9765 99.1616 53.9663 99.1632Z" fill="#020202"/>
<path d="M53.2315 98.2928C49.0395 99.1095 26.7596 97.3137 16.8378 97.0057C6.9159 96.6976 6.42593 87.8115 6.42593 87.8115L3.0156 56.0426C2.96262 55.5515 3.04515 55.0553 3.25434 54.6074C3.46352 54.1594 3.79146 53.7766 4.20293 53.5L4.20646 53.5009C4.20646 53.5009 7.28337 84.8877 8.2633 87.446C8.87984 89.0556 9.4479 90.7938 10.7606 92.2459C12.0293 93.6181 13.7919 94.4358 15.6643 94.5208L22.4668 94.8941C22.4668 94.8941 28.6024 96.302 32.181 96.3451L52.5732 98.0638L53.2003 98.1058L53.2315 98.2928ZM142 98.4913L134.406 160.296C134.406 160.296 130.608 161.271 129.138 158.956L136.61 98.4913M130.229 105.738C130.219 105.738 130.21 105.737 130.201 105.735C130.156 105.728 130.117 105.703 130.09 105.667C130.064 105.63 130.054 105.585 130.061 105.54L131.367 97.7824C131.376 97.7386 131.4 97.6997 131.437 97.6738C131.473 97.6478 131.518 97.6367 131.563 97.6428C131.607 97.6501 131.647 97.6747 131.673 97.7112C131.7 97.7476 131.71 97.7929 131.703 97.8371L131.623 98.3189L130.397 105.596C130.39 105.636 130.37 105.672 130.339 105.697C130.308 105.723 130.269 105.737 130.229 105.738ZM128.14 150.6C128.118 150.6 128.096 150.596 128.075 150.587C128.054 150.579 128.036 150.566 128.02 150.55C128.004 150.535 127.992 150.516 127.983 150.496C127.975 150.475 127.97 150.453 127.97 150.431C127.971 150.409 127.975 150.387 127.983 150.366L128.143 149.381C128.145 149.37 128.148 149.359 128.152 149.348L129.326 142.32C129.334 142.277 129.359 142.238 129.396 142.212C129.432 142.186 129.477 142.175 129.522 142.181C129.544 142.185 129.565 142.193 129.584 142.204C129.603 142.216 129.619 142.232 129.632 142.25C129.645 142.268 129.655 142.288 129.66 142.31C129.665 142.332 129.666 142.354 129.662 142.376L128.483 149.432C128.481 149.446 128.477 149.46 128.471 149.473L128.312 150.446C128.31 150.458 128.307 150.469 128.303 150.48C128.292 150.515 128.271 150.545 128.241 150.567C128.212 150.588 128.177 150.6 128.14 150.6Z" fill="#020202"/>
<path d="M133.61 119.858C133.564 119.855 133.521 119.835 133.49 119.801C133.458 119.767 133.441 119.722 133.442 119.676V119.672L136.998 98.3926C137.006 98.3482 137.03 98.3085 137.067 98.2824C137.104 98.2562 137.15 98.2457 137.194 98.2531C137.239 98.2604 137.278 98.2851 137.305 98.3217C137.331 98.3583 137.342 98.4038 137.334 98.4482L133.78 119.7C133.78 119.722 133.775 119.743 133.766 119.763C133.758 119.783 133.745 119.801 133.729 119.815C133.713 119.83 133.695 119.841 133.674 119.849C133.654 119.856 133.632 119.859 133.61 119.858ZM122.171 155.581C122.161 155.581 122.152 155.58 122.142 155.579C122.098 155.571 122.058 155.547 122.032 155.51C122.005 155.473 121.995 155.428 122.002 155.384L122.741 150.984C122.749 150.94 122.774 150.901 122.811 150.875C122.847 150.849 122.893 150.838 122.937 150.845C122.982 150.853 123.021 150.877 123.048 150.914C123.074 150.951 123.084 150.996 123.077 151.04L122.338 155.44C122.332 155.479 122.311 155.515 122.28 155.541C122.25 155.567 122.211 155.581 122.171 155.581ZM173.828 159.5C173.428 159.502 173.027 159.473 172.631 159.413C172.592 159.406 172.556 159.388 172.527 159.36C172.498 159.333 172.478 159.297 172.47 159.258L159.668 98.1903C159.662 98.1648 159.662 98.1385 159.667 98.1129C159.672 98.0873 159.682 98.0629 159.696 98.041C159.71 98.0192 159.729 98.0004 159.75 97.9857C159.772 97.971 159.796 97.9607 159.822 97.9554C159.847 97.9501 159.874 97.9498 159.899 97.9547C159.925 97.9596 159.95 97.9695 159.971 97.9838C159.993 97.9981 160.012 98.0166 160.027 98.0382C160.041 98.0597 160.052 98.084 160.057 98.1095L172.831 159.041C173.497 159.123 176.504 159.372 177.592 157.408L165.04 97.7385C165.029 97.6872 165.04 97.6336 165.068 97.5897C165.097 97.5457 165.142 97.515 165.194 97.5042C165.246 97.4934 165.299 97.5035 165.343 97.5322C165.388 97.5609 165.418 97.6059 165.429 97.6573L177.996 157.398C178.005 157.442 177.999 157.489 177.977 157.529C177.104 159.204 175.12 159.5 173.828 159.5Z" fill="#020202"/>
<path d="M165 97.1822L180.071 157.462C180.071 157.462 183.867 157.947 185 155.467L170.215 96.5" fill="#020202"/>
<path d="M181.984 56.5866L178.523 87.9499C178.523 87.9499 178.023 96.7177 167.951 97.0209C157.876 97.3282 135.254 99.0982 131 98.291L132.907 96.8448C142.012 96.5621 158.346 95.9188 165.956 94.7962L168.858 94.6856C169.982 94.6725 171.09 94.4222 172.104 93.9522C173.125 93.4757 174.014 92.7707 174.697 91.8955C175.359 91.0214 175.892 90.0615 176.277 89.0439C176.481 88.5399 176.684 88.0483 176.862 87.5362C176.93 87.2698 177.014 86.9994 177.07 86.7331L177.218 85.9424C177.586 83.8283 177.875 81.7101 178.15 79.5878C178.671 75.3432 179.15 71.0958 179.586 66.8458C180.019 62.593 180.43 58.3361 180.773 54.0792L179.264 66.813C178.764 71.0535 178.286 75.3022 177.731 79.5386C177.468 81.6568 177.192 83.7791 176.837 85.8768L176.697 86.6634C176.646 86.9216 176.57 87.1633 176.506 87.4132C176.341 87.9172 176.133 88.417 175.938 88.9128C175.566 89.904 175.06 90.8435 174.434 91.707C173.796 92.5572 172.956 93.247 171.985 93.7187C171.009 94.1921 169.937 94.4536 168.845 94.4848L167.163 94.5995C168.655 94.3332 169.65 94.0424 169.964 93.7228C171.35 92.3093 173.998 87.9581 168.994 69.3696L169.286 69.1442C169.286 69.1442 171.807 58.3647 173.299 55.2386C174.201 53.3417 177.303 53.3499 179.599 53.6449C180.314 53.7388 180.964 54.0986 181.409 54.6478C181.854 55.1971 182.061 55.8925 181.984 56.5866Z" fill="#020202"/>
<path d="M167 94.5C166.622 94.7048 166.213 94.8855 165.775 95.0783L162 95.5L167 94.5Z" fill="white"/>
<path d="M134.014 41.8852C133.742 42.7392 133.553 43.6144 133.451 44.5H128.023C127.636 38.4478 132.284 36.5 132.284 36.5L135 39.3808C134.593 40.1872 134.263 41.0252 134.014 41.8852Z" fill="#020202"/>
<path d="M167 64.5414C157.563 73.4584 148.246 71.2603 148.246 71.2603C148.852 69.4286 147.034 67.7177 147.034 67.7177C144.014 66.6461 141.367 64.7144 139.411 62.1561L145.826 51.9569C146.427 51.2887 146.97 50.5701 147.45 49.8089C147.944 49.0569 148.371 48.2629 148.728 47.436C148.127 48.102 147.583 48.8193 147.104 49.5799C146.609 50.3328 146.182 51.1282 145.826 51.9569C142.8 36.4376 133 44.9424 133 44.9424C133.745 43.2917 134.234 41.5353 134.451 39.7346C134.698 38.0943 135.303 36.5302 136.224 35.1561C137.145 33.7821 138.357 32.6327 139.774 31.7918C153.205 27.8828 167 64.5414 167 64.5414Z" fill="#020202"/>
<path d="M114.094 78.9941C112.335 79.324 110.6 79.7668 108.899 80.3197C108.077 80.6303 107.216 80.9472 106.649 81.5715C106.02 82.172 105.493 82.8669 105.087 83.6301C104.901 84.012 104.759 84.4128 104.662 84.8253C104.572 85.2421 104.521 85.6659 104.509 86.0916C104.492 86.9545 104.565 87.8168 104.726 88.6653C105.06 90.381 105.511 92.0728 106.076 93.7295C107.18 97.0643 108.504 100.335 109.845 103.595C111.171 106.863 112.575 110.102 113.941 113.357L113.921 113.318C114.171 113.689 114.461 114.034 114.785 114.347C115.109 114.662 115.469 114.941 115.857 115.177C116.241 115.41 116.66 115.584 117.099 115.691C117.537 115.793 117.99 115.824 118.439 115.781L118.453 115.78C118.485 115.778 118.518 115.783 118.548 115.794C119.728 116.222 120.941 116.559 122.175 116.801C123.409 117.056 124.666 117.191 125.927 117.205C127.185 117.23 128.44 117.072 129.65 116.735C130.251 116.559 130.831 116.323 131.382 116.031C131.927 115.731 132.433 115.367 132.89 114.948L132.857 115.07C131.92 112.05 130.98 109.029 129.95 106.037C129.44 104.541 128.917 103.048 128.364 101.568C128.091 100.827 127.805 100.091 127.505 99.3624C127.348 99.0033 127.209 98.631 127.033 98.285L126.78 97.76L126.493 97.2843L126.482 97.2662C126.447 97.2078 126.437 97.138 126.454 97.0722C126.471 97.0064 126.514 96.95 126.574 96.9154C126.611 96.8938 126.654 96.8816 126.697 96.8799C132.862 96.6603 139.026 96.4023 145.188 96.1061C148.268 95.9514 151.345 95.7701 154.42 95.5623C157.495 95.3614 160.569 95.1323 163.621 94.7831C165.138 94.6272 166.645 94.385 168.134 94.0578C168.483 93.9771 168.825 93.8666 169.155 93.7276C169.225 93.7023 169.291 93.6677 169.352 93.6249C169.411 93.5909 169.464 93.5474 169.508 93.4961C169.63 93.3697 169.742 93.2345 169.844 93.0917C170.255 92.5015 170.566 91.8503 170.767 91.1632C171.144 89.728 171.331 88.2511 171.322 86.769C171.324 85.2685 171.239 83.7692 171.067 82.2781C170.729 79.2802 170.224 76.3027 169.554 73.3588C169.221 71.8847 168.883 70.4098 168.515 68.9423L167.361 64.5493C167.359 64.5394 167.36 64.5287 167.365 64.5197C167.37 64.5107 167.379 64.504 167.389 64.5013C167.399 64.4987 167.41 64.5 167.419 64.5049C167.428 64.5098 167.435 64.5178 167.438 64.5275C169.241 70.3111 170.876 76.1743 171.67 82.2115C171.866 83.7243 171.975 85.2467 171.996 86.7715C172.028 88.3177 171.854 89.8614 171.48 91.3639C171.267 92.1361 170.927 92.8694 170.475 93.535C170.358 93.7039 170.228 93.8643 170.087 94.0149C169.923 94.1899 169.724 94.3301 169.502 94.4269C169.126 94.5935 168.734 94.7242 168.333 94.8172C166.811 95.1581 165.27 95.4113 163.718 95.5757C157.563 96.2824 151.395 96.6015 145.225 96.8683C142.14 96.9958 139.055 97.1185 135.969 97.1956C132.883 97.2792 129.795 97.3259 126.709 97.3891L126.913 96.9847L127.233 97.5331L127.487 98.0831C127.663 98.4481 127.794 98.8213 127.948 99.1901C128.237 99.9319 128.512 100.677 128.772 101.426C129.299 102.922 129.793 104.426 130.275 105.934C131.233 108.952 132.189 111.969 133.093 115.002L133.094 115.004C133.1 115.025 133.101 115.048 133.094 115.069C133.088 115.09 133.077 115.109 133.06 115.124C132.583 115.55 132.061 115.925 131.502 116.242C130.938 116.548 130.343 116.796 129.727 116.983C128.493 117.339 127.212 117.513 125.926 117.499C124.645 117.491 123.367 117.374 122.107 117.15C120.843 116.932 119.599 116.617 118.385 116.208L118.494 116.221C117.993 116.282 117.484 116.259 116.989 116.155C116.498 116.047 116.026 115.865 115.592 115.615C115.162 115.367 114.763 115.072 114.402 114.735C114.036 114.399 113.709 114.026 113.425 113.622C113.419 113.613 113.414 113.605 113.41 113.596L113.404 113.583C111.938 110.367 110.55 107.117 109.186 103.856C107.846 100.585 106.566 97.2869 105.477 93.9155C104.911 92.229 104.477 90.5029 104.177 88.752C104.029 87.8653 103.974 86.9662 104.012 86.0685C104.035 85.6143 104.1 85.1631 104.206 84.7203C104.321 84.2766 104.485 83.8467 104.695 83.4382C105.137 82.6457 105.705 81.9274 106.379 81.3106C106.71 80.9839 107.101 80.7214 107.532 80.5366C107.946 80.3504 108.372 80.1891 108.807 80.0536C110.534 79.5485 112.296 79.1687 114.08 78.9172C114.09 78.9156 114.101 78.918 114.11 78.9239C114.118 78.9298 114.124 78.9388 114.126 78.9488C114.128 78.9589 114.125 78.9693 114.12 78.9778C114.114 78.9863 114.105 78.9921 114.094 78.9941Z" fill="#020202"/>
<path d="M130 77.4837C131.676 77.1986 133.36 76.9909 135.047 76.8104C136.733 76.625 138.424 76.4855 140.114 76.3549L142.652 76.1915C142.872 76.1779 143.058 76.1768 143.25 76.1473C143.441 76.1211 143.63 76.0781 143.815 76.0188C144.187 75.8995 144.54 75.7224 144.86 75.4936C145.183 75.2588 145.467 74.9728 145.703 74.6462L146.451 73.589C146.959 72.887 147.465 72.1837 148 71.5C147.607 72.2796 147.185 73.0396 146.765 73.801L146.117 74.9364C145.877 75.3353 145.574 75.6894 145.219 75.9837C144.498 76.574 143.612 76.9082 142.692 76.9364L140.161 77.1408C138.473 77.2555 136.784 77.3613 135.091 77.4212C133.398 77.4859 131.703 77.5234 130 77.4837Z" fill="#020202"/>
<path d="M149.594 71.5337L149.935 73.9025C150.084 74.7207 149.975 75.5647 149.624 76.319C149.263 77.0839 148.664 77.7125 147.916 78.1119C147.543 78.3154 147.14 78.4563 146.721 78.529C146.3 78.6043 145.921 78.6359 145.519 78.6931C142.35 79.1209 139.181 79.5399 136.032 80.0849C134.458 80.3605 132.883 80.6258 131.314 80.9224C129.746 81.2222 128.182 81.5405 126.621 81.8771C125.062 82.2183 123.51 82.5939 121.972 83.0199C120.431 83.4351 118.913 83.9309 117.424 84.5054C115.931 85.0618 114.494 85.758 113.133 86.5847C111.807 87.4323 110.519 88.4562 109.797 89.8436C109.629 90.19 109.504 90.5555 109.425 90.932C109.357 91.3079 109.342 91.6912 109.38 92.0711C109.504 92.8506 109.605 93.6386 109.763 94.4135C110.093 95.964 110.512 97.4945 111.018 98.9974C113.031 105.014 115.959 110.723 119.268 116.124L119.275 116.135L119.29 116.162C120.337 118.281 121.359 120.409 122.354 122.546C123.336 124.693 124.289 126.852 125.216 129.023C126.139 131.196 127.003 133.393 127.81 135.614C128.201 136.729 128.586 137.846 128.899 138.988C129.24 140.121 129.483 141.282 129.624 142.457C129.625 142.467 129.622 142.477 129.616 142.485C129.61 142.493 129.601 142.498 129.59 142.5C129.58 142.501 129.57 142.498 129.562 142.493C129.554 142.487 129.548 142.478 129.546 142.468L129.546 142.464C129.345 141.307 129.045 140.17 128.65 139.064C128.275 137.951 127.841 136.857 127.42 135.761C126.548 133.576 125.583 131.429 124.63 129.277C123.663 127.132 122.658 125.002 121.64 122.88C120.635 120.751 119.607 118.634 118.554 116.528L118.576 116.566C117.714 115.199 116.906 113.821 116.149 112.406C115.383 110.997 114.662 109.566 113.972 108.119C112.581 105.227 111.404 102.237 110.453 99.1739C109.989 97.6367 109.614 96.074 109.332 94.4937C109.195 93.7024 109.114 92.9031 109.011 92.1053C108.982 91.6898 109.01 91.2722 109.095 90.8644C109.191 90.4621 109.336 90.073 109.527 89.706C110.32 88.2486 111.647 87.2223 113.001 86.3753C114.38 85.5477 115.823 84.8335 117.318 84.2397C123.291 81.8652 129.594 80.4283 135.921 79.4117C137.506 79.1639 139.093 78.9368 140.683 78.7304C142.272 78.5179 143.865 78.3367 145.461 78.1867C145.853 78.144 146.274 78.1197 146.643 78.0647C147.017 78.0125 147.379 77.8991 147.715 77.7289C148.054 77.5591 148.365 77.3389 148.637 77.0758C148.905 76.8056 149.133 76.4993 149.315 76.1657C149.678 75.4788 149.817 74.6966 149.714 73.9274L149.515 71.5426C149.514 71.5324 149.518 71.5223 149.524 71.5144C149.531 71.5065 149.54 71.5014 149.55 71.5002C149.56 71.4991 149.571 71.502 149.579 71.5082C149.587 71.5145 149.592 71.5236 149.594 71.5337Z" fill="#020202"/>
<path d="M146 75.5C145.691 76.142 145.313 76.7504 144.872 77.3152C144.447 77.8905 143.959 78.42 143.418 78.8947C143.727 78.2524 144.105 77.6439 144.546 77.0795C144.972 76.5048 145.46 75.9754 146 75.5ZM129.051 143.499C127.273 143.499 123.04 140.632 122.511 140.269C122.481 140.248 122.458 140.22 122.446 140.186C122.434 140.153 122.433 140.117 122.443 140.083C122.655 139.225 117.516 124.671 114.01 115.099C113.995 115.056 113.997 115.01 114.017 114.969C114.037 114.929 114.072 114.898 114.116 114.882C114.159 114.867 114.207 114.87 114.248 114.889C114.29 114.908 114.322 114.942 114.338 114.985C115.214 117.377 122.71 137.9 122.788 140.044C124.963 141.528 128.608 143.627 129.373 143.089C129.408 143.066 129.451 143.055 129.494 143.059C129.565 143.066 136.485 143.776 136.976 140.113L132.574 116.363C132.566 116.319 132.576 116.273 132.603 116.236C132.629 116.199 132.669 116.174 132.715 116.166C132.76 116.158 132.807 116.168 132.845 116.194C132.883 116.219 132.909 116.258 132.917 116.303L137.324 140.079C137.326 140.095 137.327 140.112 137.325 140.129C136.839 144.003 130.271 143.476 129.516 143.402C129.372 143.472 129.212 143.505 129.051 143.499Z" fill="#020202"/>
<path d="M137.231 139.601C137.319 139.622 137.308 139.644 137.343 139.66L137.417 139.715L137.561 139.827C137.657 139.904 137.751 139.981 137.843 140.061C138.028 140.22 138.208 140.385 138.383 140.556C138.731 140.898 139.062 141.257 139.377 141.63C140.004 142.38 140.571 143.176 141.074 144.012C141.607 144.866 141.922 145.835 141.993 146.836C142.05 147.868 141.766 148.891 141.182 149.75L141.245 149.575C141.277 151.529 141.275 153.484 141.292 155.439C141.293 155.522 141.261 155.603 141.202 155.664C141.144 155.725 141.064 155.761 140.979 155.764L140.974 155.765L139.182 155.837C139.137 155.839 139.093 155.832 139.051 155.817C139.009 155.801 138.971 155.778 138.938 155.748C138.905 155.719 138.879 155.683 138.86 155.643C138.841 155.603 138.831 155.56 138.829 155.516L138.829 155.505V155.5L138.813 153.057C138.804 152.242 138.818 151.428 138.819 150.613L139.446 150.827C138.471 152.024 137.475 153.192 136.44 154.333C135.396 155.465 134.329 156.576 133.211 157.64C132.927 157.902 132.652 158.171 132.36 158.425C132.075 158.694 131.773 158.946 131.457 159.179C130.803 159.63 130.073 159.961 129.301 160.156C127.778 160.53 126.195 160.6 124.644 160.362C123.872 160.256 123.11 160.089 122.365 159.864C121.609 159.655 120.885 159.345 120.214 158.942C120.043 158.835 119.885 158.71 119.739 158.572C119.663 158.499 119.594 158.42 119.534 158.335C119.469 158.238 119.427 158.129 119.41 158.014C119.387 157.794 119.436 157.573 119.55 157.383C119.648 157.206 119.766 157.041 119.901 156.889C120.444 156.329 121.047 155.829 121.699 155.397C122.974 154.516 124.321 153.755 125.655 152.989C125.988 152.797 126.322 152.606 126.646 152.409C126.962 152.237 127.249 152.015 127.493 151.753C127.946 151.217 128.192 150.539 128.186 149.841L128.624 150.092C128.283 150.255 127.929 150.391 127.566 150.499L127.032 150.656L126.495 150.774C126.137 150.858 125.778 150.925 125.418 150.979C125.059 151.041 124.699 151.098 124.339 151.139C122.898 151.333 121.452 151.442 120.006 151.507C118.56 151.574 117.112 151.605 115.662 151.584C114.936 151.568 114.21 151.547 113.478 151.491C113.112 151.461 112.744 151.428 112.361 151.36C112.313 151.352 112.269 151.347 112.217 151.336L112.047 151.285C111.93 151.257 111.819 151.213 111.714 151.156C111.489 151.03 111.305 150.844 111.183 150.619C110.976 150.198 110.943 149.713 111.092 149.269C111.206 148.849 111.434 148.468 111.75 148.166C111.946 147.967 112.208 147.844 112.489 147.82C112.607 147.805 112.61 147.813 112.708 147.794C112.788 147.778 112.864 147.769 112.949 147.747C113.281 147.675 113.624 147.575 113.963 147.478C115.327 147.07 116.669 146.594 117.985 146.052C118.31 145.915 118.634 145.773 118.942 145.619L119.171 145.502L119.344 145.38C119.466 145.286 119.58 145.183 119.685 145.071C120.132 144.553 120.519 143.987 120.84 143.385C121.513 142.147 122.1 140.865 122.595 139.548L122.598 139.541C122.613 139.5 122.637 139.462 122.668 139.43C122.698 139.398 122.735 139.372 122.775 139.354C122.816 139.336 122.86 139.326 122.904 139.325C122.948 139.324 122.993 139.331 123.034 139.347C123.063 139.358 123.09 139.372 123.115 139.39C124.185 140.174 125.305 140.89 126.467 141.535C127.039 141.858 127.636 142.138 128.252 142.371C128.551 142.484 128.861 142.568 129.176 142.622C129.461 142.681 129.756 142.658 130.028 142.557L130.039 142.552C130.076 142.535 130.117 142.528 130.158 142.533C130.842 142.602 131.53 142.612 132.215 142.563C132.902 142.521 133.583 142.404 134.244 142.215C134.906 142.031 135.524 141.717 136.06 141.293C136.323 141.074 136.556 140.822 136.752 140.544C136.943 140.246 137.103 139.93 137.231 139.601ZM137.257 139.676C137.177 140.007 137.044 140.324 136.863 140.615C136.673 140.914 136.443 141.188 136.181 141.429C135.643 141.899 135.015 142.258 134.334 142.484C133.66 142.716 132.96 142.869 132.249 142.938C131.538 143.013 130.822 143.026 130.108 142.976L130.239 142.952C129.886 143.11 129.494 143.161 129.112 143.098C128.761 143.051 128.416 142.97 128.082 142.857C127.431 142.636 126.798 142.365 126.189 142.048C125.581 141.74 124.994 141.398 124.416 141.044C123.838 140.688 123.274 140.322 122.713 139.929L123.233 139.771C122.753 141.133 122.179 142.461 121.514 143.745C121.179 144.412 120.765 145.036 120.28 145.605C120.141 145.755 119.99 145.893 119.828 146.017L119.559 146.201L119.309 146.331C118.975 146.499 118.64 146.647 118.304 146.791C116.963 147.351 115.594 147.843 114.203 148.266C113.851 148.368 113.503 148.472 113.132 148.554C113.043 148.578 112.939 148.593 112.844 148.612C112.766 148.633 112.586 148.638 112.527 148.649C112.448 148.67 112.377 148.714 112.323 148.775C111.944 149.118 111.723 149.872 111.933 150.221C111.946 150.243 111.958 150.265 111.969 150.287L112.021 150.341C112.047 150.383 112.102 150.405 112.144 150.438C112.185 150.475 112.259 150.473 112.313 150.496L112.401 150.526C112.436 150.534 112.482 150.54 112.522 150.547C112.848 150.609 113.197 150.645 113.548 150.677C114.251 150.739 114.966 150.769 115.679 150.792C117.109 150.829 118.543 150.816 119.974 150.766C121.406 150.717 122.836 150.624 124.254 150.467C124.61 150.433 124.962 150.384 125.314 150.331C125.667 150.285 126.017 150.227 126.362 150.153L126.881 150.05L127.385 149.912C127.714 149.822 128.035 149.707 128.346 149.569L128.399 149.549C128.47 149.523 128.548 149.526 128.617 149.557C128.686 149.588 128.74 149.644 128.766 149.714C128.779 149.748 128.785 149.785 128.784 149.821C128.773 150.664 128.454 151.475 127.884 152.102C127.597 152.394 127.263 152.639 126.898 152.826C126.558 153.019 126.218 153.2 125.878 153.382C124.521 154.109 123.166 154.832 121.885 155.666C121.24 156.064 120.647 156.538 120.117 157.077C119.86 157.31 119.704 157.632 119.684 157.976C119.716 158.136 119.803 158.28 119.931 158.382C120.062 158.51 120.206 158.624 120.36 158.723C121.685 159.48 123.157 159.949 124.679 160.1C126.191 160.318 127.732 160.226 129.207 159.83C129.928 159.623 130.606 159.29 131.208 158.846C131.502 158.613 131.782 158.362 132.047 158.096C132.326 157.836 132.59 157.559 132.862 157.292C133.933 156.204 134.957 155.068 135.956 153.912C136.955 152.758 137.948 151.591 138.894 150.399C138.922 150.363 138.957 150.333 138.998 150.311C139.038 150.289 139.082 150.274 139.128 150.269C139.173 150.263 139.22 150.267 139.264 150.279C139.309 150.291 139.35 150.312 139.386 150.34C139.428 150.373 139.462 150.414 139.485 150.462C139.508 150.509 139.521 150.561 139.521 150.613C139.522 151.428 139.536 152.242 139.527 153.057L139.511 155.5L139.158 155.163L140.951 155.113L140.632 155.439C140.649 153.484 140.647 151.529 140.68 149.575C140.681 149.513 140.702 149.452 140.74 149.403L140.742 149.4C141.008 149.038 141.207 148.633 141.33 148.204C141.46 147.765 141.524 147.309 141.519 146.851C141.479 145.918 141.212 145.008 140.74 144.199C140.284 143.355 139.765 142.546 139.186 141.78C138.893 141.398 138.585 141.028 138.258 140.674C138.097 140.495 137.93 140.322 137.757 140.153C137.671 140.068 137.583 139.986 137.494 139.905L137.359 139.785L137.29 139.727C137.276 139.706 137.218 139.69 137.257 139.676ZM120.936 74.1694C121.017 72.815 121.203 71.4688 121.495 70.143C121.64 69.4758 121.83 68.8189 122.063 68.1767C122.296 67.5225 122.611 66.8999 123.001 66.3238C123.032 66.2808 123.078 66.2515 123.13 66.2424C123.182 66.2332 123.236 66.2448 123.28 66.2748C123.323 66.3048 123.353 66.3506 123.363 66.4022C123.372 66.4538 123.36 66.507 123.33 66.5501L123.325 66.5574L123.322 66.5614C122.924 67.0933 122.595 67.6725 122.343 68.2853C122.083 68.9053 121.864 69.5419 121.689 70.1906C121.334 71.4956 121.083 72.8259 120.936 74.1694ZM128.139 44.6722C127.186 46.2106 126.202 47.7288 125.234 49.2578L122.28 53.8106C122.247 53.861 122.198 53.8993 122.141 53.9197C122.084 53.9401 122.022 53.9414 121.964 53.9234C121.907 53.9053 121.856 53.869 121.822 53.82C121.787 53.771 121.769 53.712 121.772 53.6522L121.772 53.6428C121.89 50.9296 122.054 48.2191 122.193 45.5072L122.247 44.4903L122.274 43.9819C122.281 43.7907 122.308 43.6006 122.353 43.4145C122.449 43.0537 122.606 42.7112 122.816 42.4008L123.326 41.5214C123.998 40.3442 124.651 39.1543 125.228 37.9385C125.529 37.2804 125.966 36.6925 126.513 36.2131C126.781 35.976 127.07 35.7619 127.376 35.5733C127.529 35.4802 127.684 35.3909 127.844 35.3106C128.036 35.2176 128.085 35.198 128.155 35.1012C128.185 35.0615 128.205 35.0161 128.215 34.968C128.225 34.9199 128.225 34.8702 128.215 34.8222C128.179 34.7298 128.194 34.7354 128.082 34.719C127.759 34.7538 127.439 34.8098 127.123 34.8867L125.118 35.3502C124.782 35.4256 124.446 35.501 124.101 35.563C123.916 35.602 123.726 35.6199 123.537 35.6163C123.376 35.6049 123.215 35.6066 123.055 35.6214C122.373 35.6686 121.682 35.7268 120.988 35.7257C120.279 35.7635 119.57 35.6525 118.907 35.3999C118.823 35.3575 118.743 35.3082 118.667 35.2527C118.595 35.1902 118.527 35.1234 118.463 35.0525C118.357 34.9167 118.252 34.7798 118.153 34.6368C118.052 34.494 117.959 34.346 117.874 34.1935C117.83 34.1152 117.79 34.0347 117.755 33.9522C117.71 33.8566 117.685 33.7527 117.682 33.6471C117.682 33.6234 117.69 33.6003 117.705 33.5819C117.72 33.5634 117.741 33.5507 117.765 33.5459L117.783 33.5423C118.093 33.4812 118.395 33.3868 118.684 33.2606C118.965 33.1562 119.206 32.9692 119.376 32.7249C119.433 32.6001 119.451 32.4616 119.429 32.3264C119.407 32.1912 119.346 32.0654 119.252 31.9646C119.062 31.7201 118.836 31.5044 118.583 31.3242C118.563 31.3085 118.547 31.2876 118.537 31.2636C118.528 31.2397 118.525 31.2136 118.529 31.1882L118.739 29.9244L118.789 29.6081C118.804 29.5125 118.81 29.4158 118.807 29.3192C118.799 29.1284 118.749 28.9416 118.661 28.7717C118.574 28.6048 118.449 28.4607 118.295 28.3515C118.139 28.2469 117.94 28.1537 117.747 28.0431C117.535 27.932 117.345 27.785 117.184 27.6087C117.095 27.5023 117.033 27.3757 117.005 27.2401C116.976 27.1046 116.982 26.9642 117.021 26.8314C117.103 26.6125 117.211 26.4042 117.343 26.2108C117.462 26.0224 117.594 25.8421 117.737 25.6709C118.021 25.3388 118.325 25.0234 118.646 24.7262C118.948 24.4293 119.221 24.1324 119.136 23.8649C119.011 23.4823 118.846 23.1133 118.645 22.7638C118.196 21.9929 117.882 21.1525 117.716 20.2782C117.688 20.047 117.679 19.814 117.69 19.5814C117.7 19.3834 117.696 19.1783 117.689 18.9709C117.671 18.5542 117.637 18.1239 117.626 17.6876C117.57 16.7879 117.694 15.8862 117.993 15.0343C118.327 14.1771 118.87 13.4144 119.573 12.8133L119.577 12.8099C119.623 12.7705 119.678 12.7431 119.738 12.7302C120.513 12.5658 121.306 12.489 122.099 12.5013C122.917 12.4999 123.727 12.6619 124.48 12.9776C124.851 13.1568 125.198 13.3828 125.511 13.6497C125.807 13.8847 126.108 14.1193 126.406 14.3756C127.038 14.8975 127.537 15.5595 127.861 16.3077C128.164 17.0216 128.412 17.7566 128.605 18.5066C128.814 19.2598 128.938 20.0338 128.973 20.8142C128.998 21.5927 128.98 22.3176 129.046 23.0497C129.103 23.7765 129.218 24.5166 129.338 25.2467C129.388 25.5941 129.463 25.9373 129.564 26.2738C129.572 26.2962 129.581 26.3181 129.592 26.3395C129.592 26.3395 129.592 26.3414 129.59 26.3389C129.583 26.3287 129.575 26.3199 129.565 26.3128C129.538 26.2877 129.506 26.2687 129.47 26.2573C129.406 26.2333 129.336 26.2296 129.27 26.2468C129.241 26.2546 129.213 26.2667 129.187 26.2827C129.174 26.2896 129.162 26.2979 129.151 26.3076C129.139 26.3184 129.127 26.33 129.117 26.3423C129.104 26.3644 129.113 26.3452 129.114 26.3476C129.123 26.3282 129.135 26.299 129.146 26.2646C129.196 26.1006 129.235 25.9338 129.264 25.7651C129.403 25.0472 129.451 24.3063 129.629 23.5233C129.708 23.0837 129.92 22.6781 130.237 22.3601C130.327 22.2774 130.429 22.2072 130.538 22.1515L130.703 22.0754L130.839 22.0251C131.021 21.9582 131.209 21.8934 131.402 21.8384C131.804 21.7133 132.225 21.6615 132.645 21.6855C133.107 21.7199 133.536 21.933 133.84 22.2786C134.11 22.6088 134.293 22.9996 134.374 23.4164C134.459 23.8052 134.495 24.2028 134.483 24.6003C134.459 25.38 134.304 26.1502 134.023 26.8793C133.757 27.6153 133.334 28.2866 132.784 28.8482C132.223 29.4186 131.472 29.7692 130.671 29.8352L130.777 29.7577C130.554 30.2663 130.318 30.7659 130.062 31.2581C129.933 31.5034 129.802 31.7477 129.654 31.9839C129.517 32.2325 129.334 32.454 129.116 32.637C129.108 32.643 129.097 32.6456 129.087 32.6442C129.077 32.6428 129.067 32.6375 129.061 32.6294C129.055 32.6213 129.052 32.6111 129.053 32.601C129.054 32.5908 129.059 32.5815 129.067 32.575L129.074 32.5695C129.27 32.3836 129.43 32.1646 129.548 31.923C129.681 31.6843 129.798 31.4358 129.914 31.187C130.141 30.688 130.351 30.1782 130.545 29.6665C130.552 29.6458 130.566 29.6277 130.584 29.6141C130.601 29.6005 130.622 29.592 130.644 29.5896L130.651 29.5889C131.375 29.492 132.039 29.1399 132.521 28.5975C133.013 28.0583 133.382 27.4216 133.605 26.7299C133.841 26.0436 133.961 25.3232 133.958 24.5981C133.957 24.2442 133.912 23.8918 133.825 23.5486C133.753 23.2269 133.604 22.9272 133.389 22.6747C133.288 22.5634 133.166 22.4732 133.029 22.4095C132.892 22.3457 132.744 22.3097 132.593 22.3036C132.252 22.2949 131.912 22.3464 131.59 22.4556C131.42 22.5079 131.25 22.5705 131.077 22.6383L130.947 22.6896L130.855 22.7356C130.796 22.7666 130.742 22.8059 130.695 22.8523C130.488 23.0846 130.355 23.3722 130.313 23.6789C130.17 24.3655 130.132 25.1311 130.003 25.8921C129.973 26.0943 129.929 26.2945 129.874 26.4914C129.855 26.5528 129.832 26.613 129.806 26.6716C129.785 26.716 129.759 26.7583 129.73 26.7979C129.707 26.8303 129.68 26.8595 129.649 26.8848C129.629 26.9019 129.607 26.9178 129.585 26.9322C129.549 26.9531 129.51 26.9693 129.469 26.9803C129.381 27.0043 129.286 27.0003 129.2 26.9689C129.143 26.9464 129.091 26.9147 129.046 26.875C129.02 26.8503 128.996 26.8241 128.973 26.7964L128.933 26.7366C128.897 26.6763 128.866 26.6131 128.841 26.5475C128.713 26.1674 128.616 25.778 128.551 25.3828C128.42 24.632 128.303 23.886 128.238 23.1153C128.165 22.3504 128.179 21.5709 128.152 20.8487C128.116 20.1273 127.998 19.4122 127.8 18.7168C127.615 18.0115 127.379 17.3204 127.092 16.6489C126.812 16.0115 126.386 15.4474 125.846 15.0017C125.574 14.7622 125.281 14.5272 124.987 14.289C124.729 14.0595 124.442 13.8647 124.132 13.7098C122.888 13.154 121.311 13.2046 119.91 13.4654L120.074 13.3824C119.457 13.8957 118.978 14.5512 118.678 15.291C118.403 16.0554 118.279 16.8648 118.312 17.6754C118.314 18.0929 118.338 18.515 118.348 18.9517C118.351 19.1711 118.35 19.393 118.335 19.6215C118.321 19.8153 118.324 20.0098 118.343 20.2032C118.488 21.0121 118.761 21.7932 119.154 22.5172C119.368 22.9166 119.536 23.3387 119.654 23.7753C119.681 23.9169 119.675 24.0628 119.635 24.2015C119.598 24.3319 119.537 24.4545 119.455 24.5631C119.315 24.7473 119.156 24.9173 118.982 25.0706C118.663 25.3469 118.36 25.6413 118.076 25.9523C117.939 26.1059 117.813 26.2687 117.698 26.4394C117.584 26.5973 117.488 26.7668 117.411 26.9451C117.386 27.0166 117.38 27.0934 117.393 27.168C117.407 27.2425 117.44 27.3124 117.489 27.3707C117.616 27.5142 117.767 27.6352 117.936 27.7286C118.113 27.838 118.304 27.9301 118.503 28.071C118.698 28.217 118.854 28.4067 118.96 28.6245C119.064 28.8388 119.119 29.0727 119.123 29.3102C119.124 29.4271 119.114 29.5438 119.092 29.6589L119.034 29.9739L118.811 31.2355L118.757 31.0996C119.031 31.2994 119.274 31.5381 119.478 31.808C119.586 31.9536 119.662 32.1205 119.699 32.2973C119.736 32.4871 119.704 32.6836 119.609 32.8522C119.41 33.1449 119.123 33.3686 118.789 33.4915C118.48 33.6231 118.157 33.7205 117.826 33.7818L117.927 33.677C117.938 33.7406 117.956 33.8027 117.981 33.8621C118.012 33.9364 118.047 34.0091 118.085 34.0796C118.167 34.2239 118.257 34.3633 118.355 34.4972C118.452 34.6335 118.557 34.7656 118.662 34.8966C118.714 34.9511 118.768 35.0031 118.826 35.0521C118.889 35.0963 118.955 35.1355 119.024 35.1695C119.652 35.393 120.32 35.4852 120.986 35.44C121.666 35.432 122.344 35.3658 123.032 35.3087C123.214 35.2899 123.396 35.2844 123.579 35.2922C123.732 35.2829 123.885 35.2605 124.035 35.2252C124.364 35.1541 124.695 35.0681 125.026 34.982L127.017 34.4495C127.365 34.3505 127.721 34.2785 128.08 34.2344C128.22 34.2287 128.358 34.2683 128.473 34.347C128.587 34.4322 128.669 34.5532 128.704 34.6902C128.737 34.807 128.744 34.9293 128.725 35.049C128.706 35.1687 128.662 35.2831 128.595 35.3847C128.531 35.4849 128.448 35.5719 128.35 35.6407C128.269 35.6924 128.185 35.74 128.099 35.7834C127.955 35.8612 127.816 35.9479 127.68 36.0374C127.408 36.2175 127.153 36.4201 126.916 36.6431C126.445 37.084 126.074 37.6186 125.828 38.2116C125.251 39.4603 124.606 40.666 123.941 41.8609L123.435 42.753C123.264 43.0092 123.134 43.2894 123.047 43.5841C123.01 43.7279 122.988 43.8751 122.982 44.0233L122.948 44.5313L122.88 45.5474C122.694 48.2566 122.532 50.9673 122.325 53.6753L121.818 53.5075L124.92 49.0516C125.972 47.5777 127.007 46.093 128.073 44.6284C128.079 44.6201 128.088 44.6144 128.098 44.6125C128.108 44.6107 128.119 44.6128 128.127 44.6185C128.136 44.6242 128.142 44.633 128.144 44.643C128.147 44.653 128.145 44.6635 128.139 44.6722Z" fill="#020202"/>
<path d="M118.693 20.7368C118.806 20.4898 118.969 20.2674 119.172 20.0829C119.375 19.8983 119.614 19.7553 119.875 19.6624C120.418 19.4664 121.011 19.4473 121.566 19.608C122.095 19.7556 122.586 20.0126 123.004 20.3613C123.2 20.535 123.386 20.7196 123.56 20.914C123.722 21.1177 123.869 21.3318 124 21.5549C123.762 21.4535 123.53 21.3386 123.306 21.2108C123.087 21.0909 122.857 20.9942 122.649 20.8741C122.235 20.6645 121.8 20.4942 121.352 20.3655C120.929 20.2407 120.483 20.2035 120.043 20.2561C119.563 20.3225 119.103 20.4863 118.693 20.7368ZM121.606 25.0479C121.523 25.0478 121.442 25.0184 121.379 24.9651C121.316 24.9119 121.275 24.8383 121.263 24.758L120.899 22.2327C120.893 22.1888 120.895 22.1441 120.906 22.1012C120.918 22.0583 120.938 22.0179 120.965 21.9825C120.992 21.9471 121.027 21.9172 121.066 21.8947C121.105 21.8722 121.149 21.8574 121.194 21.8513C121.239 21.8451 121.285 21.8477 121.33 21.8588C121.374 21.87 121.415 21.8895 121.452 21.9162C121.488 21.943 121.519 21.9764 121.542 22.0147C121.565 22.0529 121.58 22.0952 121.586 22.1391L121.95 24.6644C121.957 24.7122 121.954 24.7608 121.94 24.8071C121.925 24.8533 121.901 24.896 121.869 24.9324C121.836 24.9688 121.796 24.9979 121.75 25.0178C121.705 25.0378 121.656 25.048 121.606 25.0479ZM118.693 31.5704C118.239 31.3386 117.77 31.137 117.288 30.9671C117.053 30.8833 116.81 30.8205 116.563 30.7795C116.344 30.7286 116.115 30.7398 115.902 30.8118C115.867 30.8398 115.835 30.8582 115.797 30.8854C115.759 30.9266 115.714 30.9638 115.682 31.0068C115.616 31.0848 115.563 31.1737 115.528 31.2693C115.474 31.4705 115.484 31.6829 115.558 31.8784C115.728 32.3352 115.935 32.7782 116.177 33.2031C116.193 33.2342 116.203 33.2681 116.206 33.3029C116.209 33.3377 116.205 33.3727 116.193 33.4058C116.182 33.439 116.164 33.4697 116.141 33.4962C116.118 33.5228 116.089 33.5445 116.057 33.5603L116.055 33.5615L116.035 33.5712C115.527 33.8155 114.987 34.2438 114.945 34.6736C114.937 34.9085 115.023 35.1373 115.185 35.3118C115.275 35.413 115.38 35.5105 115.482 35.6073L115.835 35.8759L115.842 35.881C115.89 35.9182 115.928 35.9671 115.952 36.0228C115.976 36.0785 115.984 36.1392 115.977 36.199C115.842 37.1103 115.809 38.033 115.878 38.9512C115.897 39.1571 115.949 39.359 116.033 39.5493C116.116 39.752 116.219 39.9562 116.327 40.1612C116.541 40.5715 116.788 40.9753 117.039 41.3759C117.29 41.7829 117.544 42.1693 117.817 42.5816C118.106 43.0372 118.237 43.571 118.189 44.1041C118.162 44.3582 118.101 44.6079 118.008 44.8471L117.777 45.524L117.318 46.8782C116.108 50.4942 115.094 54.1668 114.085 57.8411C113.571 59.6755 113.045 61.5063 112.506 63.3334L111.697 66.0743C111.407 66.9619 111.185 67.869 111.031 68.7882C110.71 70.6063 110.807 72.4709 111.315 74.2483C111.857 76.0165 113.008 77.5506 114.575 78.5944L114.536 78.5743C114.959 78.7503 115.397 78.8889 115.846 78.9884C116.297 79.0907 116.758 79.1508 117.221 79.168C117.684 79.1807 118.146 79.1282 118.593 79.012C119.039 78.8765 119.455 78.6617 119.82 78.3785L119.822 78.3769C119.831 78.3707 119.841 78.3677 119.851 78.3686C119.861 78.3695 119.871 78.3742 119.878 78.3818C119.885 78.3893 119.888 78.3991 119.888 78.4092C119.888 78.4192 119.883 78.4287 119.876 78.4358C119.529 78.7707 119.117 79.0343 118.663 79.2109C118.201 79.3727 117.716 79.4681 117.225 79.4942C116.735 79.5143 116.244 79.4825 115.762 79.3992C115.275 79.3214 114.796 79.2004 114.332 79.0377C114.32 79.0335 114.309 79.0281 114.299 79.0216L114.293 79.0175C113.426 78.5039 112.659 77.8462 112.027 77.0744L111.785 76.7865C111.709 76.6877 111.648 76.5788 111.578 76.4753C111.445 76.2646 111.303 76.0574 111.178 75.8423C110.944 75.4028 110.744 74.9469 110.579 74.4787C110.249 73.5454 110.061 72.5706 110.021 71.5847C109.966 70.6075 110.019 69.6275 110.177 68.661C110.252 68.1777 110.352 67.6984 110.477 67.2248C110.612 66.7408 110.762 66.3008 110.905 65.8436L111.772 63.1201C112.346 61.3034 112.937 59.4913 113.543 57.684C114.768 54.0725 115.988 50.4595 117.011 46.7898L117.389 45.4118L117.577 44.7227C117.646 44.5127 117.686 44.2949 117.697 44.0748C117.71 43.6515 117.582 43.2354 117.332 42.888C117.053 42.516 116.755 42.1175 116.48 41.7228C116.207 41.3212 115.942 40.9142 115.698 40.4845C115.573 40.266 115.461 40.0406 115.364 39.8093C115.256 39.5614 115.186 39.2994 115.157 39.0317C115.083 38.0528 115.128 37.0687 115.292 36.1001L115.434 36.423L115.025 36.1005C114.894 35.9757 114.771 35.8442 114.655 35.7065C114.395 35.3936 114.273 34.9941 114.314 34.5942C114.386 34.2113 114.597 33.8659 114.907 33.6193C115.179 33.3918 115.486 33.2071 115.817 33.0718L115.674 33.4398C115.437 32.9759 115.243 32.4921 115.095 31.9943C115.014 31.7076 115.026 31.4036 115.128 31.1234C115.189 30.9855 115.274 30.859 115.379 30.7499C115.429 30.6985 115.482 30.6497 115.537 30.6036C115.607 30.5555 115.681 30.5129 115.758 30.4763C116.042 30.396 116.344 30.4 116.625 30.4878C116.883 30.5534 117.135 30.6417 117.377 30.7516C117.852 30.9619 118.307 31.2136 118.736 31.5037C118.744 31.5096 118.751 31.5187 118.753 31.5289C118.755 31.5392 118.752 31.5498 118.746 31.5584C118.74 31.5662 118.732 31.5718 118.722 31.574C118.712 31.5762 118.702 31.575 118.693 31.5704ZM122.127 53.8075C122.242 54.7308 122.303 55.6596 122.31 56.5896C122.331 57.5152 122.304 58.4387 122.268 59.3618C122.217 60.2842 122.156 61.2061 122.048 62.1259C121.953 63.0514 121.804 63.9708 121.601 64.8799C121.486 63.9566 121.424 63.0277 121.417 62.0977C121.397 61.1721 121.423 60.2486 121.46 59.3256C121.512 58.4032 121.573 57.4813 121.681 56.5615C121.777 55.6361 121.926 54.7167 122.127 53.8075Z" fill="#020202"/>
<path d="M133.501 44.4339C133.002 46.1028 132.496 47.7688 131.955 49.4231C131.42 51.0793 130.894 52.7386 130.328 54.3838L128.65 59.3269C128.081 60.971 127.481 62.6042 126.866 64.2325L126.86 64.2484C126.854 64.2626 126.847 64.2761 126.839 64.2888C126.521 64.7665 126.17 65.2216 125.789 65.6508C125.412 66.1111 124.944 66.4877 124.414 66.7569C124.257 66.8225 124.088 66.8534 123.919 66.8476C123.736 66.8371 123.564 66.7628 123.43 66.6376C123.368 66.5812 123.312 66.5182 123.264 66.4497L123.144 66.2808C123.065 66.1682 122.982 66.0585 122.897 65.9498C122.577 65.5163 122.184 65.1415 121.737 64.8419L121.791 64.8533C120.828 64.9029 119.915 65.2974 119.217 65.9652C118.543 66.66 118.084 67.5353 117.895 68.4857C117.477 70.3913 117.795 72.3857 118.276 74.2666C118.524 75.2068 118.847 76.1253 119.243 77.013C119.621 77.8879 120.138 78.6954 120.775 79.4038C121.368 80.0942 122.186 80.5515 123.084 80.695C123.528 80.7418 123.978 80.7127 124.413 80.6091C124.634 80.5534 124.852 80.4831 125.065 80.3984L125.385 80.269L125.697 80.1102C127.359 79.2228 128.774 77.8406 130.086 76.4113C131.383 74.9424 132.596 73.4012 133.72 71.795C135.963 68.5496 138.035 65.1879 139.925 61.724C139.93 61.7147 139.939 61.7076 139.949 61.7045C139.959 61.7014 139.97 61.7024 139.979 61.7073C139.988 61.7122 139.994 61.7202 139.998 61.7297C140.001 61.7392 140.001 61.7495 139.997 61.7588C139.194 63.5707 138.305 65.3426 137.354 67.0821C136.411 68.8269 135.392 70.5296 134.296 72.19C133.747 73.0185 133.182 73.8372 132.591 74.6397C131.992 75.4365 131.364 76.2129 130.707 76.9688C130.047 77.7282 129.337 78.4418 128.58 79.1046C127.82 79.79 126.976 80.3756 126.068 80.8473L125.717 81.0178L125.349 81.1596C125.102 81.253 124.848 81.3297 124.59 81.3893C124.061 81.5058 123.517 81.5306 122.979 81.4625C121.912 81.2791 120.943 80.7233 120.244 79.8932C119.898 79.508 119.595 79.0867 119.339 78.6365C119.081 78.1976 118.854 77.741 118.66 77.2702C118.273 76.3401 117.974 75.3756 117.767 74.3894C117.364 72.4411 117.127 70.3912 117.614 68.4183C117.829 67.4206 118.326 66.5065 119.047 65.7861C119.796 65.0791 120.765 64.6541 121.791 64.5833L121.794 64.5831C121.812 64.5821 121.829 64.5861 121.845 64.5947C122.344 64.8969 122.784 65.2865 123.145 65.7449C123.238 65.8529 123.329 65.9621 123.417 66.0739L123.548 66.2418C123.583 66.2858 123.623 66.326 123.666 66.3616C123.75 66.4246 123.852 66.4606 123.957 66.4647C124.062 66.4687 124.166 66.4407 124.255 66.3844C124.71 66.1158 125.106 65.7582 125.42 65.3329C125.762 64.9068 126.076 64.4578 126.357 63.9889L126.33 64.045C126.86 62.3869 127.404 60.7339 127.978 59.0916L129.734 54.1757C130.312 52.5346 130.93 50.9076 131.539 49.2774C132.143 47.6454 132.78 46.025 133.426 44.4076C133.43 44.3981 133.437 44.3904 133.446 44.3861C133.456 44.3819 133.466 44.3814 133.476 44.3848C133.486 44.3882 133.494 44.3951 133.498 44.4043C133.503 44.4134 133.504 44.424 133.501 44.4339ZM120.56 35.2791C120.607 35.6011 120.617 35.9275 120.589 36.2517C120.575 36.4194 120.54 36.5848 120.485 36.744C120.457 36.8373 120.406 36.9221 120.338 36.9909C120.269 37.0598 120.184 37.1105 120.091 37.1386L120.107 36.9261C120.545 37.0728 120.973 37.2503 121.387 37.4571C121.82 37.6606 122.212 37.9427 122.543 38.2892C122.646 38.3847 122.726 38.5022 122.778 38.6331C122.829 38.764 122.851 38.9048 122.84 39.0451C122.83 39.1854 122.788 39.3215 122.718 39.4433C122.648 39.5651 122.551 39.6695 122.435 39.7487C122.34 39.8299 122.238 39.9034 122.131 39.9685C121.997 40.0295 121.852 40.0605 121.706 40.0594C121.463 40.0625 121.22 40.0377 120.982 39.9853L121.202 39.7337C121.273 39.9602 121.306 40.1971 121.299 40.4346C121.297 40.6844 121.225 40.9288 121.091 41.1394C120.949 41.3512 120.732 41.5016 120.485 41.5609C120.26 41.6194 120.028 41.6394 119.797 41.62C119.365 41.5843 118.94 41.5538 118.513 41.5036C118.086 41.4555 117.658 41.4144 117.232 41.3554C117.663 41.3409 118.092 41.3443 118.521 41.3406C118.95 41.3328 119.381 41.3537 119.806 41.3528C119.993 41.3745 120.181 41.3488 120.355 41.2783C120.529 41.2077 120.683 41.0945 120.802 40.949C120.88 40.779 120.924 40.595 120.93 40.4078C120.937 40.2206 120.905 40.0341 120.838 39.8592L120.837 39.8539C120.83 39.8295 120.827 39.8039 120.83 39.7786C120.832 39.7532 120.84 39.7287 120.852 39.7062C120.864 39.6838 120.88 39.6639 120.9 39.6478C120.919 39.6317 120.942 39.6197 120.966 39.6123C120.996 39.6035 121.027 39.6019 121.058 39.6075C121.265 39.6509 121.477 39.6706 121.69 39.6663C121.771 39.6647 121.852 39.651 121.93 39.6256C122.017 39.5716 122.1 39.5122 122.18 39.4478C122.252 39.3975 122.314 39.3332 122.361 39.2588C122.408 39.1843 122.44 39.1012 122.455 39.0142C122.453 38.8332 122.382 38.6599 122.257 38.5296C121.962 38.21 121.617 37.9413 121.236 37.7344C120.849 37.5065 120.447 37.306 120.032 37.1343L120.021 37.1295C119.999 37.1204 119.981 37.1043 119.969 37.0836C119.957 37.063 119.952 37.0389 119.955 37.0153C119.958 36.9916 119.969 36.9696 119.986 36.9527C120.002 36.9358 120.024 36.925 120.048 36.9218C120.109 36.9035 120.166 36.8713 120.213 36.8279C120.261 36.7844 120.298 36.7306 120.321 36.6707C120.387 36.5312 120.435 36.3841 120.465 36.2329C120.524 35.9183 120.556 35.5992 120.56 35.2791ZM116.284 32.5186L118.098 33.3625L116.153 32.8949C116.128 32.8888 116.104 32.8777 116.082 32.8623C116.061 32.8468 116.043 32.8273 116.029 32.8049C116.016 32.7825 116.007 32.7576 116.002 32.7316C115.998 32.7056 115.999 32.6791 116.006 32.6536C116.012 32.628 116.023 32.6039 116.038 32.5826C116.054 32.5613 116.073 32.5433 116.095 32.5295C116.118 32.5158 116.142 32.5066 116.168 32.5025C116.194 32.4984 116.221 32.4994 116.246 32.5055C116.259 32.5087 116.272 32.5131 116.284 32.5186Z" fill="#020202"/>
<path d="M115.992 35.8202C116.582 36.2448 117.216 36.6036 117.885 36.8902C118.558 37.1887 119.278 37.3683 120.012 37.4209C119.265 37.4332 118.522 37.316 117.815 37.0746C117.099 36.8406 116.412 36.5283 115.765 36.1437C115.72 36.1166 115.688 36.0729 115.675 36.0222C115.663 35.9714 115.671 35.9177 115.698 35.8729C115.725 35.8281 115.769 35.7958 115.82 35.7832C115.871 35.7705 115.925 35.7785 115.97 35.8054C115.975 35.8084 115.98 35.8116 115.985 35.8149L115.992 35.8202ZM115.839 38.8697L120.962 40.1568L115.756 39.2552C115.73 39.2508 115.705 39.2414 115.683 39.2276C115.661 39.2138 115.642 39.1957 115.627 39.1745C115.612 39.1533 115.601 39.1293 115.595 39.104C115.59 39.0787 115.589 39.0525 115.594 39.0269C115.598 39.0013 115.608 38.9769 115.622 38.955C115.636 38.9331 115.654 38.9142 115.675 38.8993C115.697 38.8844 115.721 38.8738 115.746 38.8682C115.772 38.8626 115.798 38.8621 115.824 38.8666L115.839 38.8697ZM128.228 34.6038C128.301 34.4443 128.375 34.2891 128.455 34.139L128.575 33.9148C128.599 33.858 128.636 33.8075 128.683 33.7676C128.701 33.7558 128.722 33.7475 128.743 33.7432C128.778 33.7378 128.815 33.7458 128.845 33.7657C128.876 33.7873 128.899 33.8183 128.911 33.8542C128.922 33.8868 128.929 33.9208 128.932 33.9552L128.872 33.8464C129.524 34.1976 130.145 34.6016 130.73 35.0542C131.024 35.2798 131.306 35.5211 131.574 35.7771C131.847 36.0315 132.088 36.318 132.292 36.6305C131.702 36.1813 131.097 35.7835 130.501 35.3595C129.904 34.9405 129.309 34.5136 128.73 34.0643L128.697 34.0389C128.685 34.0292 128.676 34.0161 128.671 34.0012C128.666 33.9863 128.666 33.9703 128.67 33.9553C128.673 33.9478 128.672 33.9284 128.674 33.9295C128.682 33.9433 128.693 33.9552 128.707 33.9644C128.728 33.9781 128.754 33.9833 128.778 33.9788C128.789 33.9771 128.799 33.9731 128.808 33.9672C128.818 33.9526 128.78 33.9927 128.759 34.0216L128.586 34.2211C128.471 34.3536 128.351 34.4809 128.228 34.6038ZM120.007 13.3072C120.265 12.7431 120.591 12.2127 120.979 11.7281C121.363 11.2342 121.799 10.7827 122.28 10.3814C123.262 9.57194 124.42 9.00039 125.663 8.71201C126.912 8.45306 128.198 8.43111 129.455 8.64732C130.705 8.84854 131.915 9.24526 133.04 9.8227C135.259 10.9981 137.128 12.7315 138.461 14.8493C139.124 15.889 139.691 16.9862 140.155 18.1273C140.646 19.2613 141.026 20.4399 141.29 21.6465C141.431 22.2486 141.461 22.9005 141.627 23.4162C141.815 23.9558 142.113 24.4508 142.503 24.8696C143.348 25.7054 144.322 26.4003 145.39 26.9273C147.534 28.0491 149.855 28.8669 152.103 29.9096C153.251 30.4179 154.347 31.0356 155.375 31.7539C155.901 32.1324 156.372 32.5827 156.772 33.0914C156.877 33.2201 156.97 33.3577 157.051 33.5026C157.139 33.6393 157.215 33.7841 157.276 33.9349C157.417 34.2204 157.538 34.5156 157.637 34.8182C158.047 36.0263 158.111 37.3239 157.822 38.5661C157.537 39.782 156.96 40.9115 156.14 41.8579C156.134 41.8653 156.124 41.8699 156.114 41.8707C156.104 41.8716 156.094 41.8686 156.086 41.8623C156.078 41.8561 156.073 41.8472 156.072 41.8373C156.07 41.8274 156.073 41.8173 156.078 41.809L156.08 41.8066C156.774 40.8157 157.235 39.6823 157.427 38.4906C157.617 37.3229 157.487 36.1261 157.052 35.0251C156.95 34.7504 156.829 34.4834 156.688 34.2262C156.63 34.0952 156.559 33.9703 156.476 33.8536C156.403 33.7333 156.32 33.6201 156.226 33.5152C155.849 33.075 155.412 32.6896 154.927 32.3702C153.919 31.7143 152.855 31.1464 151.748 30.6728C149.531 29.6663 147.22 28.784 145.031 27.5776C143.903 26.9913 142.886 26.2135 142.027 25.2794C141.595 24.784 141.281 24.1985 141.107 23.5662C141.06 23.4088 141.029 23.2472 141.014 23.0836C140.989 22.9167 140.974 22.7632 140.965 22.6173C140.943 22.3185 140.906 22.0202 140.862 21.7227C140.672 20.5263 140.351 19.3542 139.905 18.2272C139.477 17.0894 138.921 16.0035 138.246 14.9903C137.903 14.4903 137.527 14.0137 137.12 13.5637C136.706 13.1221 136.265 12.707 135.799 12.3207C134.874 11.5496 133.848 10.9074 132.749 10.4119C130.595 9.35467 128.169 8.9703 125.791 9.30944C124.611 9.55545 123.495 10.0404 122.512 10.7341C121.529 11.4277 120.701 12.3151 120.079 13.3408L120.077 13.3435C120.072 13.3521 120.064 13.3583 120.054 13.361C120.045 13.3636 120.034 13.3625 120.025 13.3579C120.016 13.3533 120.01 13.3455 120.006 13.3361C120.003 13.3266 120.003 13.3163 120.007 13.3072ZM134.023 26.6253C135.039 27.5304 136.001 28.4717 136.997 29.3733C137.492 29.8268 137.997 30.268 138.521 30.682C138.782 30.889 139.054 31.0818 139.336 31.2596C139.612 31.4485 139.924 31.5796 140.253 31.6449C139.905 31.6538 139.56 31.5804 139.246 31.4309C138.93 31.2897 138.627 31.1227 138.34 30.9316C137.771 30.5512 137.232 30.1273 136.73 29.6638C135.722 28.7489 134.814 27.7303 134.023 26.6253ZM43 98.6055L50.5941 160.297C50.5941 160.297 54.3911 161.269 55.861 158.959L48.3894 98.6055" fill="#020202"/>
</svg>
