<svg width="186" height="95" viewBox="0 0 186 95" fill="none" xmlns="http://www.w3.org/2000/svg">
<g filter="url(#filter0_d_2032_3592)">
<rect width="181" height="90" rx="16" fill="#FEBC8D"/>
<path d="M41.08 34C48.76 34 50.32 36.8 50.32 43.6V54.4C50.32 61.2 48.76 64 41.08 64H36.2C35.04 64 34.72 63.68 34.72 62.52V35.48C34.72 34.32 35.04 34 36.2 34H41.08ZM40.96 39.6C40.4 39.6 40.24 39.76 40.24 40.32V57.68C40.24 58.2 40.4 58.4 40.96 58.4H41.4C43.64 58.4 44.64 57.36 44.64 54.76V43.24C44.64 40.64 43.64 39.6 41.4 39.6H40.96ZM58.7947 40.32V44.8C58.7947 45.32 58.9547 45.52 59.5147 45.52H64.4747C65.6347 45.52 65.9547 45.84 65.9547 47V49.64C65.9547 50.8 65.6347 51.12 64.5547 51.12H59.5147C58.9547 51.12 58.7947 51.28 58.7947 51.84V57.68C58.7947 58.2 58.9547 58.4 59.5147 58.4H64.9547C66.1147 58.4 66.4347 58.72 66.4347 59.88V62.52C66.4347 63.68 66.1147 64 64.9547 64H54.7547C53.5947 64 53.2747 63.68 53.2747 62.52V35.48C53.2747 34.32 53.5947 34 54.7547 34H64.9547C66.1147 34 66.4347 34.32 66.4347 35.48V38.12C66.4347 39.28 66.1147 39.6 64.9547 39.6H59.5147C58.9547 39.6 58.7947 39.76 58.7947 40.32ZM74.9825 44.68L80.1025 49.32C82.7825 51.72 83.3825 53.16 83.3825 55.84V56.56C83.3825 61.6 81.4625 64.4 75.6625 64.4C69.8625 64.4 67.9425 62.04 67.9425 55.6V54.8C67.9425 53.64 68.2625 53.32 69.4225 53.32H72.1425C73.3025 53.32 73.6225 53.64 73.6225 54.8V56.56C73.6225 58.16 74.2625 58.8 75.6625 58.8C77.0625 58.8 77.7025 58.2 77.7025 56.76V56C77.7025 54.88 77.4625 54.32 75.9825 53L71.1825 48.72C68.5025 46.36 67.9425 45 67.9425 42.32V41.44C67.9425 36.4 69.8625 33.6 75.6625 33.6C81.4625 33.6 83.3825 35.96 83.3825 42.4V43.2C83.3825 44.36 83.0625 44.68 81.9025 44.68H79.1825C78.0225 44.68 77.7025 44.36 77.7025 43.2V41.44C77.7025 39.84 77.0625 39.2 75.6625 39.2C74.2625 39.2 73.6225 39.8 73.6225 41.24V41.92C73.6225 43.08 73.8625 43.64 74.9825 44.68ZM91.49 35.48V62.52C91.49 63.68 91.17 64 90.01 64H87.45C86.29 64 85.97 63.68 85.97 62.52V35.48C85.97 34.32 86.29 34 87.45 34H90.01C91.17 34 91.49 34.32 91.49 35.48ZM104.791 53.32C104.791 52.76 104.631 52.6 104.071 52.6H103.591C102.431 52.6 102.111 52.28 102.111 51.12V48.48C102.111 47.32 102.431 47 103.591 47H108.671C109.831 47 110.151 47.32 110.151 48.48V55.6C110.151 62.04 108.231 64.4 102.431 64.4C96.6306 64.4 94.7106 62.04 94.7106 55.6V42.4C94.7106 35.96 96.6306 33.6 102.431 33.6C108.231 33.6 110.071 35.96 110.071 42.4V42.6C110.071 43.76 109.751 44.08 108.591 44.08H106.031C104.871 44.08 104.551 43.76 104.551 42.6V41.44C104.551 39.84 103.871 39.2 102.471 39.2C101.071 39.2 100.391 39.84 100.391 41.44V56.56C100.391 58.16 101.111 58.8 102.591 58.8C104.111 58.8 104.791 58.16 104.791 56.56V53.32ZM123.316 43.88C123.516 44.24 123.596 44.32 123.836 44.32C124.076 44.32 124.156 44.2 124.156 43.92V35.48C124.156 34.32 124.476 34 125.636 34H128.076C129.236 34 129.556 34.32 129.556 35.48V62.52C129.556 63.68 129.236 64 128.076 64H125.636C124.476 64 124.156 63.68 124.156 62.52V57.04C124.156 55.16 123.876 54.48 123.196 53.2L119.476 46.28C119.276 45.92 119.196 45.84 118.956 45.84C118.716 45.84 118.636 45.96 118.636 46.24V62.52C118.636 63.68 118.316 64 117.156 64H114.716C113.556 64 113.236 63.68 113.236 62.52V35.48C113.236 34.32 113.556 34 114.716 34H116.276C117.756 34 118.316 34.24 119.156 35.88L123.316 43.88ZM139.201 44.68L144.321 49.32C147.001 51.72 147.601 53.16 147.601 55.84V56.56C147.601 61.6 145.681 64.4 139.881 64.4C134.081 64.4 132.161 62.04 132.161 55.6V54.8C132.161 53.64 132.481 53.32 133.641 53.32H136.361C137.521 53.32 137.841 53.64 137.841 54.8V56.56C137.841 58.16 138.481 58.8 139.881 58.8C141.281 58.8 141.921 58.2 141.921 56.76V56C141.921 54.88 141.681 54.32 140.201 53L135.401 48.72C132.721 46.36 132.161 45 132.161 42.32V41.44C132.161 36.4 134.081 33.6 139.881 33.6C145.681 33.6 147.601 35.96 147.601 42.4V43.2C147.601 44.36 147.281 44.68 146.121 44.68H143.401C142.241 44.68 141.921 44.36 141.921 43.2V41.44C141.921 39.84 141.281 39.2 139.881 39.2C138.481 39.2 137.841 39.8 137.841 41.24V41.92C137.841 43.08 138.081 43.64 139.201 44.68Z" fill="#33322E"/>
<rect x="0.708861" y="0.708861" width="179.582" height="88.5823" rx="15.2911" stroke="#33322E" stroke-width="1.41772"/>
</g>
<defs>
<filter id="filter0_d_2032_3592" x="0" y="0" width="185.253" height="94.2532" filterUnits="userSpaceOnUse" color-interpolation-filters="sRGB">
<feFlood flood-opacity="0" result="BackgroundImageFix"/>
<feColorMatrix in="SourceAlpha" type="matrix" values="0 0 0 0 0 0 0 0 0 0 0 0 0 0 0 0 0 0 127 0" result="hardAlpha"/>
<feOffset dx="4.25316" dy="4.25316"/>
<feColorMatrix type="matrix" values="0 0 0 0 0.2 0 0 0 0 0.196078 0 0 0 0 0.180392 0 0 0 1 0"/>
<feBlend mode="normal" in2="BackgroundImageFix" result="effect1_dropShadow_2032_3592"/>
<feBlend mode="normal" in="SourceGraphic" in2="effect1_dropShadow_2032_3592" result="shape"/>
</filter>
</defs>
</svg>
