<svg width="188" height="148" viewBox="0 0 188 148" fill="none" xmlns="http://www.w3.org/2000/svg">
<path d="M137.671 121.212C139.048 123.011 140.464 124.775 142 126.467H141.996C139.997 126.778 135.496 127 135.496 127L123 113.839C124.203 112.314 125.18 110.634 125.903 108.848C126.106 108.41 126.27 107.958 126.437 107.506C126.614 107.059 126.759 106.602 126.914 106.146C127.042 105.767 127.152 105.384 127.258 105C128.08 106.73 128.998 108.416 130.007 110.05C130.585 111.018 131.203 111.964 131.807 112.914C132.425 113.861 133.06 114.794 133.687 115.731C134.98 117.585 136.29 119.422 137.671 121.212Z" fill="#020202"/>
<path d="M150 125.757C147.532 126.143 145.034 126.307 142.536 126.247C141.463 124.239 140.29 122.301 139.091 120.388C138.5 119.421 137.869 118.484 137.261 117.529L135.383 114.705L133.465 111.911C132.804 110.991 132.174 110.054 131.5 109.143C130.348 107.518 129.162 105.928 127.984 104.311C128.103 103.86 128.234 103.408 128.339 102.953C128.536 102.007 128.746 101.066 128.873 100.107C129.017 99.1529 129.127 98.1987 129.193 97.2358C129.289 96.2772 129.276 95.31 129.298 94.3514C129.28 93.3885 129.232 92.4299 129.14 91.4713C128.939 92.4171 128.816 93.3628 128.654 94.3042L128.413 95.7098C128.335 96.1783 128.273 96.6468 128.177 97.1111C128.085 97.5795 127.998 98.0438 127.923 98.5125C127.849 98.9766 127.739 99.4367 127.647 99.9009C127.472 100.829 127.258 101.749 127.056 102.669C126.842 103.585 126.632 104.509 126.378 105.416C126.154 106.332 125.866 107.23 125.607 108.137C125.058 109.958 124.417 111.752 123.685 113.51C113.144 132.871 102.725 141.515 102.725 141.515C71.1044 161.852 52 127.859 52 127.859V127.854C55.8437 126.178 59.7092 123.681 62.6729 119.962L60.0857 106.344C60.0857 106.344 61.8587 105.966 64.551 105.162C64.7305 105.803 64.9187 106.439 65.1113 107.075C65.571 108.584 66.0613 110.088 66.6085 111.572C67.6762 114.559 68.9396 117.475 70.3909 120.302C71.8749 123.113 73.5822 125.873 75.9199 128.181C77.0879 129.389 78.5186 130.322 80.1051 130.911C81.7628 131.492 83.5849 131.422 85.192 130.717C86.7145 130.018 88.0657 129.005 89.1538 127.747C90.2274 126.545 91.19 125.252 92.03 123.883C93.7242 121.217 95.449 118.565 97.2308 115.952C100.807 110.738 104.575 105.654 108.534 100.7C110.513 98.2329 112.541 95.8071 114.619 93.4229C116.699 91.0458 118.839 88.7161 121.129 86.571C122.24 85.4978 123.457 84.5359 124.762 83.6994C125.322 83.3191 125.969 83.08 126.645 83.0032C126.977 82.9516 127.59 83.5275 128.063 84.0693C129.043 85.2658 129.934 86.53 130.729 87.8519C131.557 89.1801 132.336 90.5471 133.102 91.9184C134.652 94.6566 136.092 97.4549 137.541 100.253C138.986 103.056 140.397 105.877 141.774 108.717C144.563 114.374 147.281 120.065 150 125.757Z" fill="#020202"/>
<path d="M80 97.6306C80.8517 97.1158 81.6845 96.5738 82.489 96C83.9511 98.5369 86 102.418 86 104.244C85.3871 104.447 84.7934 104.7 84.2256 105C84.1061 104.404 83.9352 103.819 83.7145 103.251C83.4498 102.556 83.1367 101.879 82.7776 101.224C82.4202 100.569 82.0154 99.9391 81.5662 99.3387C81.1148 98.7127 80.5892 98.1395 80 97.6306Z" fill="#020202"/>
<path d="M150.569 125.504L150.634 125.473C148.312 119.515 145.819 113.622 143.222 107.777C140.593 101.944 137.904 96.1298 134.856 90.4766C134.09 89.0666 133.295 87.6698 132.451 86.2903C131.62 84.8798 130.675 83.5395 129.625 82.2829C129.336 81.9511 129.02 81.6431 128.681 81.3618C128.487 81.2008 128.274 81.0645 128.047 80.956C127.908 80.8866 127.761 80.8353 127.609 80.8032C127.47 80.7754 127.328 80.7622 127.185 80.7637C126.696 80.7772 126.215 80.887 125.768 81.0869C125.368 81.2598 124.982 81.4641 124.614 81.698C123.246 82.6131 121.973 83.6616 120.814 84.8279C118.529 87.0973 116.375 89.4949 114.363 92.0089C112.325 94.4885 110.41 97.0553 108.512 99.635C104.729 104.804 101.082 110.06 97.4434 115.32L91.9857 123.212C91.1179 124.527 90.1376 125.764 89.0557 126.91C88.0167 128.034 86.7555 128.932 85.3516 129.546C83.9862 130.116 82.4556 130.15 81.0659 129.642C79.6514 129.089 78.373 128.237 77.3181 127.145C76.2104 126.044 75.2144 124.836 74.3443 123.54C73.4504 122.237 72.6271 120.888 71.8779 119.497C70.3685 116.699 69.0223 113.816 67.8458 110.863C67.2598 109.383 66.6782 107.899 66.1316 106.401C65.9041 105.768 65.6767 105.131 65.4625 104.498C69.477 103.258 75.3721 101.093 80.5193 97.8366C80.6161 98.5607 80.7966 99.2711 81.0572 99.9537C81.5528 101.285 82.2218 102.546 83.047 103.704C83.3846 104.177 83.7605 104.623 84.1709 105.035C83.9959 105.131 83.8166 105.236 83.6417 105.341C82.8879 105.804 82.1661 106.317 81.4813 106.877C80.7948 107.441 80.1516 108.055 79.5571 108.715C78.9499 109.382 78.4311 110.125 78.0134 110.924C78.7859 110.486 79.5321 110.004 80.2481 109.479C80.961 108.968 81.6476 108.44 82.3166 107.886C82.9857 107.336 83.6417 106.759 84.2714 106.153C84.9192 105.54 85.5187 104.879 86.0644 104.175L89.9041 100.958C89.9041 100.958 113.379 75.3465 119.108 73.1289C125.914 72.1185 132.847 72.33 139.579 73.7532C146.777 86.5697 153.236 96.3175 154.692 104.049C156.302 112.583 162 121.239 162 121.239C158.593 123.719 154.242 124.923 150.569 125.504ZM61.5953 32C62.3653 32.824 63.0336 33.6481 63.7115 34.512C64.3995 35.3644 65.003 36.2814 65.5137 37.2501C65.5738 37.3757 65.6341 37.5016 65.6941 37.6127C65.7478 37.73 65.8147 37.8407 65.8936 37.9429C66.0403 38.1511 66.2256 38.3294 66.4394 38.4683C66.8988 38.7199 67.4103 38.8619 67.934 38.8831C68.0782 38.8961 68.2211 38.9215 68.361 38.9587C68.4466 38.9808 68.5273 39.0186 68.5989 39.0702C68.6403 39.1061 68.6774 39.1466 68.7095 39.1908C68.7314 39.2428 68.7491 39.2965 68.7624 39.3513C68.7531 39.6683 68.6322 39.9718 68.4208 40.2084C68.0683 40.643 67.6653 41.0343 67.2204 41.3741L67.2162 41.0896C67.6411 41.4986 67.9375 42.0222 68.0693 42.5966C68.2149 43.1385 68.2909 43.6966 68.2955 44.2576C68.3052 44.8108 68.2759 45.3639 68.2079 45.913C68.1477 46.4539 68.0942 46.9958 68.0231 47.5412C67.9944 48.119 67.8268 48.6813 67.5344 49.1808C67.3444 49.4151 67.1014 49.6012 66.8254 49.7237C66.569 49.8518 66.3089 49.9417 66.0538 50.0417C65.5744 50.2543 65.1418 50.5593 64.7807 50.9393C64.4022 51.321 64.0536 51.7311 63.738 52.1662C63.4185 52.6017 63.1268 53.057 62.8648 53.5293C62.733 53.7646 62.61 54.005 62.5011 54.2499C62.3853 54.4835 62.3042 54.7327 62.2602 54.9896C62.2607 56.07 62.2983 57.1654 62.3164 58.2527C62.354 60.4311 62.4242 62.6093 62.486 64.7874L62.4868 64.8158L62.4704 64.8371C62.1369 65.2684 61.7661 65.6695 61.3622 66.0359C60.9615 66.41 60.5142 66.7311 60.0314 66.9912C59.5433 67.2617 59.0029 67.4249 58.4465 67.4699C57.8797 67.4835 57.3195 67.3458 56.8238 67.0711L56.7451 67.0291L56.7582 66.9326C56.9601 65.4393 57.0795 63.9282 57.154 62.4208C57.219 60.9124 57.2486 59.4013 57.1846 57.8948C57.1364 56.39 56.9832 54.8903 56.7262 53.4067C56.4748 51.9321 56.0458 50.4933 55.4486 49.1215L55.6499 49.2513C54.7333 49.1766 53.8781 48.761 53.2538 48.0869C52.6591 47.4167 52.2679 46.5913 52.126 45.7073L52.0344 45.0582C52.0171 44.8408 52.01 44.6228 52.0001 44.4051C51.9982 44.186 52.0196 43.9633 52.033 43.7427C52.0634 43.5141 52.121 43.29 52.2045 43.0751L52.2713 42.9103L52.3768 42.7558C52.4461 42.6482 52.5362 42.5555 52.6419 42.4832C52.7477 42.4079 52.8656 42.3511 52.9905 42.3154C53.1123 42.2876 53.2373 42.2763 53.3621 42.2817C53.8238 42.3222 54.2662 42.4855 54.6433 42.7545L54.4819 42.7315C54.9832 42.5262 55.4556 42.2564 55.8869 41.929C56.3304 41.6024 56.7474 41.2415 57.1342 40.8496C57.9037 40.0518 58.5742 39.1646 59.1313 38.2069C59.6922 37.2466 60.1759 36.2433 60.5779 35.2066C60.7727 34.6851 60.947 34.1562 61.1306 33.6285L61.5953 32ZM61.6061 32.0424L61.2277 33.6579C61.0624 34.1912 60.9051 34.7302 60.7271 35.2614C60.3571 36.3228 59.8921 37.3488 59.3377 38.3269C58.7874 39.3135 58.1202 40.2305 57.3505 41.058C56.959 41.4694 56.5357 41.8494 56.0846 42.1946C55.6305 42.5527 55.1305 42.8485 54.5977 43.074L54.5217 43.1049L54.4361 43.051C54.1142 42.8311 53.7405 42.6987 53.3517 42.6667C53.1783 42.6575 53.0071 42.7084 52.867 42.8109C52.727 42.9134 52.6268 43.0611 52.5835 43.229C52.5178 43.4109 52.4733 43.5997 52.4509 43.7917C52.4438 43.9938 52.4271 44.1948 52.4326 44.399L52.4708 45.0154L52.5588 45.6252C52.6877 46.4262 53.0424 47.1741 53.5813 47.7813C54.1253 48.3632 54.8652 48.7244 55.6593 48.7959L55.8057 48.8069L55.8607 48.9259C56.4857 50.3311 56.9253 51.8112 57.1687 53.3294C57.417 54.8347 57.56 56.3554 57.5967 57.8805C57.6439 59.4011 57.6141 60.9231 57.5074 62.4407C57.4054 63.9577 57.2595 65.4683 57.0287 66.9744L56.9631 66.8361C57.4111 67.0934 57.9193 67.2277 58.4362 67.2253C58.9592 67.1911 59.469 67.0464 59.9318 66.8007C60.4046 66.5571 60.844 66.2537 61.2392 65.898C61.6424 65.5484 62.0115 65.1614 62.3414 64.7421L62.3258 64.7918C62.277 62.6123 62.2368 60.433 62.1639 58.254L62.0651 54.9815C62.1028 54.6991 62.1834 54.424 62.3041 54.1658C62.4106 53.9102 62.5306 53.6619 62.6594 53.4187C62.9151 52.9312 63.2016 52.4604 63.5169 52.0091C63.8317 51.554 64.1812 51.1238 64.5622 50.7223C64.9463 50.301 65.4109 49.9606 65.9287 49.7209C66.422 49.5789 66.8728 49.3179 67.2411 48.9609C67.4883 48.5095 67.6274 48.0071 67.6477 47.4931C67.7136 46.9574 67.7634 46.4143 67.8198 45.8719C67.8832 45.3388 67.9141 44.8024 67.9124 44.2656C67.9133 43.7356 67.8466 43.2076 67.714 42.6944C67.6471 42.4431 67.5556 42.199 67.4408 41.9657C67.3348 41.7448 67.1889 41.5453 67.0103 41.3774L66.8348 41.2269L67.0061 41.0926C67.4291 40.7751 67.8134 40.4092 68.151 40.0023C68.3062 39.8328 68.4045 39.6192 68.4323 39.3912C68.4598 39.3038 68.1438 39.2316 67.8912 39.2026C67.3238 39.1645 66.7731 38.9954 66.2823 38.7087C66.0422 38.5458 65.8355 38.3387 65.6732 38.0985C65.5887 37.9833 65.5172 37.8591 65.4601 37.7282C65.3944 37.5982 65.3401 37.478 65.2854 37.3571C64.797 36.3941 64.2267 35.4747 63.5806 34.6092C62.9569 33.7316 62.2574 32.8637 61.6061 32.0424Z" fill="#020202"/>
<path d="M57 50.5703C57.7603 50.9792 58.588 51.2769 59.4522 51.4523C59.8774 51.5442 60.3107 51.6078 60.7506 51.6624C60.9703 51.6923 61.193 51.7054 61.417 51.7342C61.6413 51.7557 61.8671 51.768 62.0982 51.8038C61.6547 51.9256 61.1945 51.9912 60.7309 51.9987C60.2636 52.0083 59.7967 51.9657 59.3411 51.8718C58.8838 51.7727 58.4446 51.6155 58.0366 51.4051C57.6246 51.2018 57.27 50.9162 57 50.5703ZM67.9994 45.3788C68.0076 45.7649 67.8732 46.1425 67.6173 46.4526C67.4768 46.6142 67.2946 46.7427 67.0866 46.827C66.8786 46.9113 66.6509 46.9489 66.4231 46.9366C65.9799 46.8995 65.5691 46.7117 65.2747 46.4115C64.9772 46.1293 64.793 45.7659 64.7514 45.3788C64.731 45.176 64.7588 44.9716 64.833 44.7792C64.9072 44.5867 65.0261 44.4107 65.1817 44.2628C65.34 44.1089 65.532 43.9862 65.7457 43.9025C65.9594 43.8188 66.1901 43.7758 66.4232 43.7763C66.6542 43.7764 66.8821 43.8238 67.0897 43.9147C67.2974 44.0056 67.4794 44.1377 67.622 44.3011C67.8773 44.6128 68.01 44.9919 67.9994 45.3788ZM67.9568 45.3788C67.9521 45.2019 67.9015 45.0284 67.8089 44.8722C67.7163 44.7161 67.5842 44.5816 67.4234 44.4796C67.1336 44.2878 66.783 44.1847 66.4232 44.1854C66.0694 44.1871 65.7287 44.3054 65.4655 44.5179C65.1957 44.7438 65.0252 45.0494 64.985 45.3788C64.9643 45.5525 64.9886 45.7281 65.0558 45.8919C65.123 46.0558 65.2314 46.2034 65.3725 46.3234C65.5155 46.4352 65.6827 46.519 65.8635 46.5696C66.0444 46.6202 66.2349 46.6364 66.4232 46.6173C66.7863 46.592 67.1343 46.476 67.428 46.2823C67.5885 46.1793 67.7199 46.044 67.8117 45.8871C67.9036 45.7302 67.9532 45.5561 67.9568 45.3788ZM60.8746 39.5192C60.9797 39.2127 61.1761 38.9379 61.4426 38.7247C61.7051 38.5055 62.0091 38.3303 62.3403 38.2076C62.6708 38.0915 63.0197 38.0232 63.374 38.0051C63.7235 37.9855 64.0742 38.0223 64.4093 38.1136C64.0704 38.2019 63.747 38.2594 63.4322 38.3378C63.1228 38.4121 62.8184 38.502 62.5204 38.6073C61.9177 38.8241 61.361 39.1326 60.8746 39.5192ZM63.8655 40.762C64.0124 40.7574 64.1515 40.7018 64.2536 40.6068C64.3557 40.5117 64.4128 40.3848 64.4128 40.2527C64.4128 40.1206 64.3557 39.9936 64.2536 39.8986C64.1515 39.8036 64.0124 39.7479 63.8655 39.7434C63.7187 39.7479 63.5796 39.8036 63.4775 39.8986C63.3754 39.9936 63.3183 40.1206 63.3183 40.2527C63.3183 40.3848 63.3754 40.5117 63.4775 40.6068C63.5796 40.7018 63.7187 40.7574 63.8655 40.762Z" fill="#020202"/>
<path d="M57.1294 67.032C54.5547 76.3059 51.1637 69.7523 51.1637 69.7523C48.0238 55.5322 43 55.6559 43 55.6559C44.3567 52.1566 45.0794 48.4501 45.1351 44.7049C45.1351 43.1195 45.1716 41.9063 45.225 40.98C45.2774 40.0692 45.5335 39.1811 45.9751 38.3792C46.4166 37.5772 47.0326 36.8812 47.779 36.3408C55.2041 30.9651 61.9021 32.1 61.9021 32.1C59.7669 41.3122 54.7431 42.9815 54.7431 42.9815C54.7431 42.9815 52.0428 41.1267 52.4196 45.0836C52.7964 49.0405 55.8735 49.1023 55.8735 49.1023C58.9506 55.4704 57.1294 67.032 57.1294 67.032ZM66.8446 49.7654C66.8446 49.7654 66.9923 62.2095 69 63.9406C69 63.9406 68.4958 71.8544 62.7184 64.868C62.7184 64.868 62.4672 55.9032 62.4672 55.0995C62.4672 54.2957 64.5395 50.648 66.3607 49.9565" fill="#020202"/>
<path d="M42.9106 56.1217C41.1745 56.0159 39.4376 56.3155 37.8361 56.9971C36.2489 57.6949 34.8491 58.7608 33.7514 60.1073C32.6816 61.4703 31.8629 63.0143 31.3339 64.6665C31.0662 65.4923 30.8482 66.3334 30.681 67.1854C30.5199 68.0418 30.3205 68.8877 30.2094 69.7566C29.1607 76.6676 28.5422 83.6493 27.9114 90.6199C27.2859 97.5933 26.7374 104.575 26.2249 111.558C25.7265 118.543 25.2187 125.529 24.7573 132.515L24.4194 132.123C26.5714 132.281 28.7307 132.314 30.8866 132.223C31.9598 132.185 33.03 132.087 34.0921 131.928C35.1391 131.799 36.1618 131.518 37.1282 131.094L37.1953 131.061L37.27 131.06C38.5637 131.026 39.8548 130.923 41.1374 130.749C42.4252 130.583 43.7043 130.359 44.9745 130.076C46.2435 129.798 47.5014 129.466 48.7372 129.065C49.98 128.683 51.1875 128.199 52.385 127.696L52.246 127.91L52.246 127.906L52.2469 127.752L52.3852 127.691C54.4153 126.809 56.3435 125.706 58.1355 124.404C59.9283 123.101 61.5345 121.557 62.909 119.815L62.8763 119.949L59.846 103.431L59.8238 103.31L59.9433 103.28C61.816 102.807 63.6791 102.281 65.5278 101.716C67.3769 101.15 69.2124 100.54 71.0248 99.869C72.8387 99.2072 74.6155 98.4473 76.3476 97.5927C77.2084 97.1639 78.0406 96.6794 78.839 96.1424C79.6375 95.6291 80.3441 94.9842 80.929 94.2348L81.0943 94.0069L81.2322 94.2444L82.6436 96.676C83.0978 97.4954 83.5401 98.322 83.9582 99.1622C84.3758 100.003 84.7732 100.855 85.1236 101.732C85.2952 102.172 85.4612 102.616 85.5917 103.076C85.7409 103.542 85.8275 104.027 85.8494 104.516L85.4676 104.337L89.2568 101.114L89.2405 101.49L89.2362 101.486L89.2014 101.451L89.1809 101.402C87.334 97.0253 85.5021 92.6387 83.6852 88.2427C82.7782 86.0452 81.8822 83.8425 80.9973 81.6347C80.5547 80.5308 80.1192 79.4233 79.6906 78.3121L79.0638 76.6355L78.7664 75.7851C78.6656 75.5043 78.5881 75.1856 78.4997 74.8869L78.3664 74.4369L78.87 74.4355C83.8582 74.4212 88.8497 74.3853 93.8381 74.2952C98.8267 74.2069 103.815 74.072 108.794 73.8296C111.284 73.7157 113.767 73.5488 116.244 73.3288L118.094 73.1349L119.95 72.9063C120.576 72.8324 121.2 72.7489 121.828 72.7072C122.455 72.6579 123.082 72.5955 123.711 72.5755C126.224 72.4472 128.743 72.4794 131.252 72.672C133.768 72.8531 136.267 73.2176 138.73 73.7624L138.178 74.1892C138.199 73.2213 138.251 72.2702 138.326 71.3128C138.402 70.3568 138.504 69.4018 138.644 68.4488C138.78 67.4877 138.978 66.5365 139.236 65.601C139.372 65.1215 139.544 64.653 139.75 64.1996C139.964 63.7036 140.279 63.258 140.674 62.8909L140.909 63.6621C128.594 62.4189 116.257 61.3067 103.907 60.4476C97.7314 60.01 91.5506 59.6514 85.3657 59.4067C79.1829 59.1526 72.9893 58.9525 66.8029 59.2155L66.7982 59.1286C72.9854 58.7625 79.1877 58.8545 85.3793 59.01C91.5718 59.1993 97.7602 59.5025 103.943 59.8849C110.126 60.2618 116.305 60.6943 122.481 61.1825C128.656 61.6756 134.829 62.1816 140.997 62.7917L142 62.8909L141.232 63.5631C140.936 63.8501 140.701 64.1937 140.54 64.5735C140.354 64.9853 140.199 65.4106 140.077 65.8458C139.831 66.7436 139.643 67.6564 139.515 68.5784C139.254 70.442 139.104 72.3196 139.067 74.2011L139.054 74.7501L138.515 74.6282C136.099 74.0998 133.649 73.7472 131.184 73.5732C128.713 73.3874 126.233 73.3594 123.759 73.4895C123.14 73.5099 122.525 73.5725 121.908 73.6218C121.29 73.6635 120.677 73.7467 120.063 73.8203L118.203 74.0523L116.329 74.2439C113.83 74.4544 111.333 74.6124 108.835 74.7178C103.84 74.9413 98.8457 75.0563 93.8512 75.1251C88.8563 75.1886 83.8632 75.2264 78.8669 75.1907L79.2371 74.7393C79.3184 75.0102 79.3761 75.2719 79.4733 75.5515L79.7575 76.3864L80.3649 78.0547C80.7834 79.1645 81.2083 80.2726 81.6396 81.379C82.504 83.5909 83.3803 85.799 84.2684 88.0033C86.041 92.4134 87.8351 96.815 89.6507 101.208L89.5954 101.125L89.5997 101.129L89.7956 101.328L89.5834 101.505L85.7664 104.695L85.3846 105.014L85.3846 104.516C85.3663 104.07 85.2898 103.627 85.1571 103.201C85.0367 102.76 84.8786 102.325 84.7148 101.893C84.3791 101.031 83.9937 100.184 83.5874 99.3467C83.1803 98.5097 82.7481 97.6839 82.3037 96.8645L80.9228 94.4348L81.2259 94.4444C80.6099 95.2241 79.8664 95.893 79.0273 96.4224C78.2116 96.9586 77.3646 97.445 76.4907 97.8789C74.7454 98.733 72.9552 99.4916 71.1282 100.151C69.3067 100.819 67.4642 101.424 65.609 101.985C63.7532 102.545 61.8851 103.062 60.0047 103.534L60.102 103.383L63.2052 119.887L63.2192 119.962L63.1725 120.022C61.7849 121.794 60.1698 123.374 58.3692 124.721C56.5669 126.063 54.6241 127.203 52.5755 128.121L52.7147 127.906L52.7147 127.91L52.7155 128.065L52.5756 128.126C51.3683 128.65 50.1496 129.154 48.8957 129.555C47.6485 129.976 46.3786 130.327 45.0967 130.622C43.8159 130.923 42.5229 131.165 41.2177 131.346C39.9107 131.538 38.5944 131.657 37.2744 131.705L37.416 131.671C36.3948 132.137 35.311 132.451 34.1993 132.601C33.1138 132.776 32.0193 132.889 30.9211 132.939C29.8269 132.992 28.7333 133.011 27.6402 132.994C26.5461 132.977 25.459 132.939 24.3607 132.861L24 132.835L24.0227 132.469C24.4563 125.475 24.9432 118.486 25.4836 111.502C26.0264 104.518 26.605 97.5354 27.2609 90.5595C27.5918 87.0716 27.9575 83.5869 28.3582 80.1054C28.5667 78.3655 28.7573 76.6239 29.0035 74.8878L29.3575 72.2822L29.7751 69.6834C30.0403 67.941 30.4457 66.2231 30.9874 64.5466C31.5582 62.8675 32.4233 61.3045 33.5418 59.9312C34.6863 58.5767 36.1343 57.514 37.7669 56.8304C39.4008 56.1683 41.1654 55.8962 42.9218 56.0355L42.9106 56.1217Z" fill="#020202"/>
<path d="M38.5323 57C39.3047 57.2479 40.0391 57.6051 40.7141 58.0613C41.3994 58.5114 42.0272 59.0467 42.583 59.655C43.6968 60.895 44.5066 62.3871 44.9458 64.0085C45.0621 64.4107 45.151 64.8206 45.2118 65.2353C45.2443 65.4418 45.298 65.6468 45.3126 65.8552L45.3603 66.4804C45.4136 67.3084 45.4155 68.1391 45.3661 68.9674C45.342 69.7932 45.2521 70.6017 45.1925 71.4191C45.1371 72.2363 45.0368 73.0463 44.9459 73.8572C44.5749 77.1016 44.0701 80.324 43.6548 83.5574C43.2492 86.7919 42.8879 90.0314 42.55 93.2748C42.2217 96.5194 41.8569 99.7594 41.4556 102.995C41.054 106.23 40.6563 109.465 40.2032 112.693C39.2775 119.146 38.2793 125.588 37.0859 132L37 131.987C37.6478 125.495 38.4466 119.026 39.2856 112.563C39.7152 109.333 40.185 106.108 40.646 102.883C41.0973 99.6557 41.5848 96.4337 42.0784 93.2122C42.3155 91.6 42.5709 89.9903 42.7732 88.3735C42.9903 86.7586 43.2033 85.1433 43.3752 83.5228L43.626 81.0914L43.8352 78.6557L44.043 76.2206L44.2264 73.7851C44.3694 72.164 44.4844 70.5411 44.5977 68.929C44.7359 67.3409 44.6338 65.7405 44.2949 64.184C43.9358 62.6235 43.2258 61.1696 42.2211 59.9374C41.2164 58.7053 39.9445 57.7286 38.5061 57.0846L38.5323 57ZM54.896 70.8867C55.2661 72.2192 55.5445 73.5661 55.8044 74.9159C56.058 76.267 56.2913 77.6211 56.4476 78.9873C56.5923 80.3554 56.6735 81.7335 56.8481 83.0969C57.0217 84.4603 57.2816 85.8103 57.5625 87.1568C57.852 88.502 58.1243 89.8501 58.3499 91.2052C58.5857 92.5589 58.828 93.9117 59.0225 95.2718C59.3987 97.9943 59.7033 100.728 59.8449 103.488L59.7591 103.501C59.0759 100.827 58.5557 98.1276 58.107 95.4166C57.8892 94.0602 57.719 92.6961 57.5425 91.3329C57.3556 89.9715 57.2155 88.6027 57.0926 87.2311C56.9612 85.861 56.8087 84.4941 56.5698 83.1409C56.332 81.7874 56.0008 80.4489 55.7331 79.1002C55.477 77.7496 55.2979 76.3871 55.1391 75.0211C54.9866 73.6542 54.8526 72.2845 54.8102 70.9001L54.896 70.8867ZM66.8573 67.219C67.5928 68.2649 68.2466 69.3556 68.8837 70.4554C69.5153 71.558 70.1288 72.6706 70.6735 73.8206C71.2079 74.9765 71.6856 76.1631 72.2467 77.3042C72.8069 78.4458 73.4441 79.5456 74.1001 80.635C74.7637 81.7203 75.412 82.8139 76.0185 83.9303C76.6343 85.0416 77.2557 86.1499 77.8346 87.2813C78.9808 89.5506 80.0631 91.8545 81 94.2378L80.9234 94.2796C79.5031 92.1598 78.2284 89.9607 77.0174 87.7268C76.4177 86.6067 75.8606 85.4634 75.2978 84.3231C74.7259 83.1878 74.1955 82.03 73.6806 80.8636C73.1581 79.7014 72.6167 78.5495 71.9983 77.4397C71.3808 76.3293 70.68 75.2643 70.0358 74.1684C69.402 73.0669 68.8369 71.9279 68.29 70.779C67.7486 69.6272 67.2238 68.4662 66.7807 67.2608L66.8573 67.219Z" fill="#020202"/>
<path d="M57.5747 88.4779C58.4916 88.3751 59.3827 88.2629 60.2583 88.1088C61.1213 87.9656 61.9694 87.7398 62.7915 87.4343C63.1933 87.2899 63.58 87.1046 63.9459 86.8811C64.312 86.6681 64.6523 86.4115 64.96 86.1165C65.2664 85.8113 65.5341 85.4674 65.7566 85.093C65.9813 84.6938 66.1688 84.2736 66.3166 83.8381C66.3397 84.3223 66.281 84.807 66.1431 85.2706C65.99 85.7449 65.7584 86.1884 65.4583 86.5814C64.831 87.3507 64.014 87.932 63.0931 88.2644C62.2042 88.5921 61.27 88.7711 60.3261 88.7945C59.3986 88.8363 58.4703 88.7294 57.5747 88.4779ZM68.8806 82.3308C69.8039 82.123 70.6134 81.9733 71.4095 81.7285C71.8095 81.6134 72.2032 81.4766 72.5892 81.3188C72.993 81.175 73.3714 80.9726 73.8278 80.8022C73.606 81.2394 73.2973 81.6236 72.9218 81.93C72.5462 82.2364 72.1121 82.458 71.6479 82.5805C71.1898 82.7178 70.7118 82.771 70.2357 82.7377C69.7594 82.7123 69.2954 82.573 68.8806 82.3308ZM38 126.798C39.1153 126.817 40.2297 126.724 41.3276 126.521C42.4211 126.335 43.5038 126.087 44.5708 125.778C46.6975 125.142 48.7686 124.323 50.7623 123.33L52.2586 122.585L53.7154 121.757L54.4486 121.351L55.1591 120.903C55.6313 120.602 56.1077 120.307 56.5864 120.014C57.0678 119.726 57.5119 119.379 57.9818 119.07L59.3805 118.123C60.2872 117.453 61.1908 116.775 62.1249 116.128C61.3146 116.926 60.4777 117.698 59.637 118.469C58.7508 119.179 57.8792 119.917 56.9608 120.589C56.4963 120.917 56.0294 121.244 55.5583 121.563L54.8527 122.044L54.122 122.485L52.6509 123.352L51.1319 124.131C49.089 125.143 46.9434 125.92 44.7343 126.447C44.1759 126.551 43.6256 126.69 43.0632 126.765C42.5001 126.835 41.9416 126.926 41.3747 126.951C40.2481 127.05 39.1138 126.999 38 126.798ZM70.5899 71.0468C70.7218 71.0421 70.8467 70.9849 70.9384 70.8872C71.0301 70.7896 71.0813 70.6591 71.0813 70.5234C71.0813 70.3876 71.0301 70.2572 70.9384 70.1595C70.8467 70.0619 70.7218 70.0047 70.5899 70C70.458 70.0047 70.333 70.0619 70.2414 70.1595C70.1497 70.2572 70.0984 70.3876 70.0984 70.5234C70.0984 70.6591 70.1497 70.7896 70.2414 70.8872C70.333 70.9849 70.458 71.0421 70.5899 71.0468ZM73.6422 78.081C73.7741 78.0763 73.8991 78.0191 73.9908 77.9214C74.0824 77.8238 74.1337 77.6933 74.1337 77.5576C74.1337 77.4218 74.0824 77.2914 73.9908 77.1937C73.8991 77.0961 73.7741 77.0389 73.6422 77.0342C73.5104 77.0389 73.3854 77.0961 73.2937 77.1937C73.202 77.2914 73.1508 77.4218 73.1508 77.5576C73.1508 77.6933 73.202 77.8238 73.2937 77.9214C73.3854 78.0191 73.5104 78.0763 73.6422 78.081ZM76.4504 84.3615C76.5823 84.3568 76.7072 84.2996 76.7989 84.202C76.8906 84.1044 76.9418 83.9739 76.9418 83.8382C76.9418 83.7024 76.8906 83.5719 76.7989 83.4743C76.7072 83.3767 76.5823 83.3195 76.4504 83.3148C76.3185 83.3195 76.1936 83.3767 76.1019 83.4743C76.0102 83.5719 75.9589 83.7024 75.9589 83.8382C75.9589 83.9739 76.0102 84.1044 76.1019 84.202C76.1936 84.2996 76.3185 84.3568 76.4504 84.3615ZM79.1365 89.386C79.2683 89.3813 79.3933 89.3241 79.485 89.2264C79.5767 89.1288 79.6279 88.9983 79.6279 88.8626C79.6279 88.7268 79.5767 88.5964 79.485 88.4987C79.3933 88.4011 79.2683 88.3439 79.1365 88.3392C79.0046 88.3439 78.8796 88.4011 78.7879 88.4987C78.6963 88.5964 78.645 88.7268 78.645 88.8626C78.645 88.9983 78.6963 89.1288 78.7879 89.2264C78.8796 89.3241 79.0046 89.3813 79.1365 89.386ZM81.8225 94.2848C81.9544 94.2801 82.0794 94.2229 82.1711 94.1253C82.2627 94.0276 82.314 93.8972 82.314 93.7614C82.314 93.6257 82.2627 93.4952 82.1711 93.3976C82.0794 93.2999 81.9544 93.2427 81.8225 93.238C81.6907 93.2427 81.5657 93.2999 81.474 93.3976C81.3823 93.4952 81.3311 93.6257 81.3311 93.7614C81.3311 93.8972 81.3823 94.0276 81.474 94.1253C81.5657 94.2229 81.6907 94.2801 81.8225 94.2848ZM84.5086 99.6861C84.6405 99.6814 84.7654 99.6242 84.8571 99.5265C84.9488 99.4289 85 99.2985 85 99.1627C85 99.027 84.9488 98.8965 84.8571 98.7989C84.7654 98.7012 84.6405 98.644 84.5086 98.6393C84.3767 98.644 84.2518 98.7012 84.1601 98.7989C84.0685 98.8965 84.0172 99.027 84.0172 99.1627C84.0172 99.2985 84.0685 99.4289 84.1601 99.5265C84.2518 99.6242 84.3767 99.6814 84.5086 99.6861Z" fill="#020202"/>
<path d="M151.145 138.855C151.261 138.905 151.376 138.951 151.492 138.994C151.2 139.015 150.908 139.04 150.615 139.068C149.564 139.157 148.521 139.334 147.497 139.598C146.931 139.731 146.346 139.755 145.771 139.669C145.377 139.602 144.987 139.506 144.606 139.381C144.453 139.331 144.304 139.271 144.154 139.207C143.109 138.787 142.169 138.12 141.409 137.259C140.644 136.392 140.16 135.293 140.027 134.121L139.979 133.687L139.996 133.25C140.006 132.958 140.02 132.674 140.037 132.404L140.064 131.991C140.071 131.856 140.057 131.718 140.054 131.579L140.04 131.167C140.03 131.032 140.006 130.893 139.989 130.758C139.907 130.113 139.752 129.481 139.527 128.874C139.373 128.444 139.188 128.027 138.974 127.627C138.457 126.645 137.79 125.757 137 125C138.699 126.441 139.857 128.464 140.268 130.712C140.288 130.854 140.319 130.993 140.333 131.135L140.367 131.565C140.373 131.707 140.394 131.849 140.39 131.991L140.38 132.422C140.37 132.713 140.367 132.99 140.367 133.26L140.363 133.666L140.424 134.064C140.59 135.131 141.064 136.12 141.783 136.897C142.505 137.675 143.386 138.271 144.361 138.638C144.47 138.684 144.582 138.724 144.694 138.759C145.073 138.878 145.459 138.967 145.849 139.026C146.34 139.088 146.837 139.058 147.317 138.937C148.259 138.668 149.22 138.474 150.191 138.357C150.374 138.471 150.561 138.574 150.748 138.67H150.751C150.884 138.738 151.013 138.798 151.145 138.855ZM177 140.131C176.885 140.189 176.766 140.238 176.643 140.277C176.375 140.368 176.098 140.427 175.818 140.455L175.787 140.487C175.721 140.548 175.649 140.603 175.573 140.65C175.44 140.726 175.3 140.789 175.156 140.838C174.9 140.918 174.637 140.967 174.371 140.984C174.121 141.003 173.87 141.005 173.62 140.991C173.372 140.981 173.158 140.949 172.927 140.927L170.186 140.643L164.703 140.071L155.296 139.054C155.307 139.051 155.317 139.051 155.327 139.047C155.432 139.026 155.541 139.004 155.65 138.983C155.663 138.979 155.674 138.98 155.684 138.976C155.792 138.955 155.905 138.933 156.013 138.915C156.258 138.873 156.506 138.834 156.754 138.798H156.76C156.832 138.788 156.907 138.777 156.978 138.766C156.98 138.628 156.989 138.491 157.005 138.354L159.121 138.556H159.125L164.788 139.097L168.456 139.463L170.26 139.644L172.998 139.914C173.222 139.936 173.464 139.968 173.674 139.978C173.882 139.987 174.089 139.984 174.296 139.968C174.438 139.956 174.58 139.936 174.721 139.907C174.768 139.893 174.819 139.879 174.863 139.865C174.939 139.842 175.012 139.811 175.081 139.772C175.108 139.754 175.132 139.737 175.145 139.726C175.149 139.719 175.155 139.715 175.155 139.712C175.159 139.712 175.159 139.712 175.155 139.719L175.149 139.729C175.14 139.742 175.133 139.757 175.128 139.772L175.495 139.498L175.522 139.477L175.543 139.463C175.587 139.459 175.631 139.456 175.675 139.449C175.696 139.496 175.71 139.546 175.716 139.598C175.724 139.667 175.715 139.737 175.691 139.801C175.667 139.866 175.627 139.923 175.577 139.968L175.567 139.989C175.74 140.007 175.906 140.021 176.073 140.039C176.28 140.06 176.48 140.078 176.677 140.099C176.786 140.11 176.895 140.12 177 140.131ZM175.828 137.97C175.794 138.062 175.767 138.155 175.74 138.244C175.706 138.233 175.672 138.222 175.638 138.215C175.502 138.176 175.366 138.141 175.23 138.105C174.955 138.034 174.677 137.966 174.401 137.874C174.69 137.847 174.98 137.848 175.268 137.878C175.456 137.895 175.644 137.925 175.828 137.97Z" fill="black"/>
<path d="M175.817 140C175.861 139.887 175.877 139.76 175.863 139.636C175.85 139.511 175.808 139.395 175.743 139.301C175.734 139.285 175.724 139.27 175.713 139.256C175.669 139.194 175.617 139.143 175.56 139.104C175.31 138.917 175.042 138.775 174.762 138.681C174.483 138.568 174.186 138.478 173.89 138.382C173.598 138.275 173.297 138.185 173 138.044C173.311 137.994 173.625 137.987 173.938 138.021C174.254 138.046 174.567 138.118 174.871 138.236C175.191 138.344 175.488 138.544 175.739 138.822C175.75 138.834 175.76 138.847 175.77 138.861C175.756 138.981 175.749 139.101 175.748 139.222L175.774 139.2C175.831 139.194 175.887 139.188 175.944 139.177C175.97 139.252 175.988 139.332 175.996 139.414C176.007 139.523 175.995 139.634 175.964 139.736C175.933 139.838 175.883 139.929 175.817 140Z" fill="black"/>
<path d="M180 139.773V139.776L179.8 142.224C179.742 142.945 179.479 143.637 179.039 144.224C178.599 144.811 177.999 145.272 177.304 145.555C175.672 146.226 173.97 146.728 172.227 147.054C170.317 146.654 168.513 145.884 166.925 144.791C166.925 144.791 160.767 142.158 159.07 144.53C156.934 143.749 150.453 141.784 151.58 147.242C151.632 147.481 151.694 147.732 151.774 148L137.185 146.501C137.185 146.501 138.595 144.881 137.749 143.14C136.987 141.511 136.801 139.69 137.216 137.95C137.355 137.341 137.534 136.657 137.773 135.889C138.143 134.714 138.356 133.499 138.409 132.273C138.447 131.195 138.35 130.1 137.859 129.736L139.09 129.051L139.19 128.995C139.789 130.144 139.99 131.445 139.764 132.71C139.446 135.793 141.934 137.818 144.298 138.542C145.195 138.854 146.165 138.917 147.098 138.724C148.215 138.448 149.355 138.262 150.505 138.168H150.509C150.643 138.231 150.775 138.288 150.91 138.34C151.027 138.387 151.145 138.43 151.262 138.469H151.269C151.355 138.499 151.445 138.529 151.532 138.555C152.2 138.767 152.902 138.86 153.605 138.83C153.836 138.819 154.064 138.783 154.286 138.724C154.418 138.688 154.556 138.655 154.698 138.622C154.801 138.595 154.901 138.572 155.009 138.552C155.05 138.542 155.088 138.536 155.13 138.526H155.133C155.143 138.522 155.154 138.522 155.164 138.519C155.271 138.499 155.382 138.479 155.493 138.46C155.506 138.456 155.517 138.456 155.527 138.453C155.638 138.433 155.752 138.413 155.862 138.397C156.111 138.357 156.363 138.321 156.616 138.287H156.623C156.692 138.297 156.768 138.304 156.84 138.311C156.84 138.293 156.841 138.275 156.844 138.258C156.846 138.129 156.855 138.001 156.871 137.874L159.025 138.063H159.028C159.225 138.049 159.412 138.039 159.581 138.029C159.647 138.026 159.713 138.023 159.775 138.02C160.027 138.006 160.241 137.996 160.407 137.993C160.476 137.99 160.538 137.986 160.59 137.986C160.718 137.98 160.791 137.98 160.791 137.98C161.05 138.01 161.34 138.039 161.658 138.072C161.717 138.079 161.779 138.086 161.841 138.092C162.097 138.119 162.37 138.145 162.661 138.175C162.782 138.188 162.906 138.198 163.034 138.211C163.055 138.215 163.077 138.218 163.1 138.218C163.175 138.225 163.252 138.235 163.328 138.241C163.404 138.248 163.48 138.258 163.559 138.264C163.621 138.271 163.687 138.278 163.753 138.284C163.846 138.291 163.939 138.301 164.033 138.311C164.095 135.724 166.939 134.27 168.712 132.868C168.712 132.868 168.923 131.284 170.392 131.833C171.467 132.23 171.349 131.972 171.992 132.356L171.992 132.357L171.993 132.358L171.994 132.359L171.996 132.359C172.369 132.579 172.728 132.82 173.071 133.081C172.901 133.183 172.735 133.282 172.576 133.388C169.293 135.495 168.64 137.682 168.536 138.741C168.528 138.796 168.524 138.851 168.522 138.906C168.508 139.068 168.511 139.231 168.532 139.392C171.512 139.66 173.699 139.852 173.699 139.852C175.307 139.941 175.687 139.498 175.756 139.396C175.932 139.412 176.102 139.425 176.271 139.442C176.482 139.462 176.686 139.478 176.886 139.498C176.997 139.508 177.107 139.518 177.214 139.528H177.218C177.328 139.538 177.436 139.548 177.543 139.558C177.65 139.564 177.754 139.574 177.854 139.584C177.975 139.594 178.089 139.604 178.203 139.614C178.358 139.627 178.507 139.64 178.649 139.654C178.794 139.667 178.932 139.68 179.063 139.69C179.191 139.703 179.312 139.713 179.426 139.723C179.599 139.736 179.758 139.753 179.903 139.766C179.938 139.77 179.969 139.773 180 139.773ZM143.014 127.206C142.802 127.287 142.574 127.324 142.345 127.314C142.117 127.304 141.893 127.247 141.69 127.147C141.477 127.035 141.31 126.858 141.217 126.643C141.13 126.439 141.11 126.215 141.16 126C141.219 126.191 141.305 126.374 141.416 126.542C141.521 126.694 141.663 126.819 141.83 126.907C142.005 126.995 142.192 127.06 142.386 127.101C142.586 127.143 142.795 127.181 143.014 127.206Z" fill="black"/>
<path d="M25.199 132.394C25.3441 133.269 25.4229 134.154 25.4346 135.041C25.4897 135.954 25.3507 136.869 25.0267 137.724C24.9198 137.957 24.764 138.165 24.5699 138.332C24.3538 138.507 24.0852 138.605 23.807 138.61C23.4075 138.634 22.9615 138.709 22.5351 138.776L19.9464 139.234L9.59755 141.217C7.87088 141.54 6.1464 141.876 4.43147 142.25C3.57396 142.437 2.71906 142.637 1.87836 142.878C1.45907 142.991 1.04709 143.129 0.644779 143.292C0.549849 143.331 0.457892 143.378 0.369631 143.43C0.33475 143.45 0.302624 143.475 0.274067 143.503C0.269599 143.507 0.265708 143.52 0.272079 143.487C0.266314 143.467 0.266578 143.483 0.271286 143.499L0.2798 143.542C0.326078 143.771 0.356968 143.975 0.414749 144.179C0.534123 144.577 0.778455 144.926 1.11151 145.175C1.46111 145.415 1.84775 145.597 2.25605 145.713C3.08981 145.952 3.95138 146.08 4.81852 146.093C6.5662 146.125 8.31386 146.028 10.0474 145.803L10.3612 146.064C10.3835 146.11 10.4094 146.155 10.4386 146.198C10.4826 146.261 10.5344 146.317 10.5927 146.367C10.7209 146.478 10.8632 146.572 11.0159 146.646C11.3487 146.802 11.6994 146.917 12.0601 146.987C12.8138 147.13 13.5795 147.201 14.3466 147.198C15.917 147.208 17.4941 147.196 19.0673 147.143C20.6412 147.093 22.2121 147.008 23.7801 146.887C25.3476 146.775 26.9087 146.607 28.455 146.386C29.2265 146.269 29.9935 146.131 30.7448 145.951C31.4867 145.787 32.2107 145.55 32.906 145.244C33.2264 145.102 33.5203 144.907 33.775 144.667C33.9753 144.413 34.0976 144.106 34.1272 143.784C34.2543 143.021 34.3246 142.251 34.3377 141.478C34.3942 139.911 34.3689 138.329 34.3108 136.751C34.2576 135.171 34.1787 133.59 34.0865 132.009L34.1726 132C34.6482 135.142 34.924 138.312 34.9984 141.489C35.0099 142.3 34.9606 143.11 34.8509 143.914C34.8169 144.128 34.7683 144.339 34.7054 144.546C34.6681 144.66 34.6239 144.771 34.5731 144.879C34.5095 144.996 34.4298 145.104 34.3364 145.199C34.0278 145.515 33.6666 145.776 33.2688 145.969C31.7826 146.631 30.2085 147.075 28.5955 147.286C25.4467 147.746 22.2691 147.98 19.087 147.987C17.5005 148.007 15.9159 148.012 14.3264 147.944C13.5124 147.921 12.7024 147.821 11.9077 147.643C11.4942 147.55 11.095 147.402 10.7209 147.203C10.5225 147.094 10.3396 146.96 10.177 146.802C10.0891 146.719 10.0119 146.624 9.94701 146.521C9.86428 146.4 9.81038 146.261 9.78943 146.116L10.1032 146.376C8.33831 146.52 6.56566 146.541 4.79786 146.44C3.90601 146.396 3.02258 146.246 2.16629 145.992C1.72915 145.861 1.31664 145.658 0.945368 145.392C0.57456 145.102 0.301127 144.705 0.161674 144.255C0.0964401 144.035 0.0588896 143.804 0.0155468 143.602L0.00741181 143.563C0.00173667 143.541 -0.000702147 143.517 0.000173781 143.494C-0.000173341 143.434 0.021708 143.376 0.0615763 143.331C0.107749 143.279 0.161799 143.234 0.221772 143.199C0.321439 143.137 0.425509 143.083 0.533124 143.037C0.949061 142.859 1.36827 142.719 1.78968 142.584C2.63373 142.319 3.48269 142.082 4.33236 141.847C6.03333 141.383 7.74403 140.961 9.45787 140.554C12.8868 139.744 16.3517 139.112 19.8316 138.557C20.702 138.419 21.5739 138.29 22.4535 138.19C22.8982 138.142 23.3239 138.087 23.8035 138.08C23.9785 138.075 24.1483 138.019 24.2917 137.918C24.435 137.818 24.5456 137.677 24.6096 137.514C24.79 137.137 24.9141 136.736 24.978 136.323C25.0556 135.896 25.1065 135.466 25.1303 135.033C25.176 134.158 25.1702 133.28 25.1129 132.405L25.199 132.394Z" fill="#020202"/>
<path d="M23.5161 141.612C21.2946 142.15 19.087 142.746 16.9133 143.424C15.8284 143.766 14.7504 144.129 13.7066 144.546C13.187 144.756 12.6737 144.979 12.1959 145.231C11.9645 145.349 11.7418 145.483 11.5295 145.633C11.4379 145.697 11.3513 145.769 11.2704 145.846C11.2417 145.88 11.2122 145.912 11.1816 145.943C11.1768 145.965 11.1665 145.984 11.1517 146L10 145.384C10.068 145.283 10.1416 145.184 10.2182 145.09L10.4387 144.891C10.5753 144.783 10.7196 144.685 10.8705 144.599C11.1417 144.444 11.4234 144.308 11.7136 144.192C12.2616 143.973 12.8203 143.781 13.3875 143.617C14.5044 143.291 15.6252 143.03 16.7485 142.791C18.996 142.319 21.2526 141.936 23.5161 141.612ZM152.152 78C152.984 79.7279 153.773 81.4782 154.497 83.2649C154.855 84.1602 155.198 85.0635 155.495 85.9965C155.647 86.4709 155.776 86.9526 155.88 87.4399C155.936 87.7002 155.974 87.9641 155.993 88.2297C156.003 88.3803 156.002 88.5315 155.99 88.6819L155.952 88.9419C155.92 89.0476 155.883 89.1516 155.84 89.2533L154.694 88.6278C154.694 88.6178 154.7 88.6114 154.712 88.6044C154.719 88.5728 154.727 88.5416 154.737 88.511C154.755 88.424 154.765 88.3357 154.769 88.247C154.778 88.0336 154.772 87.8199 154.75 87.6074C154.705 87.1486 154.637 86.6923 154.547 86.2403C154.365 85.3186 154.131 84.3948 153.879 83.4754C153.368 81.6369 152.783 79.8104 152.152 78Z" fill="#020202"/>
<path d="M140.778 64C142.813 64.0762 144.836 64.3339 146.822 64.7701C148.793 65.2397 150.835 65.7894 152.484 67.198C152.873 67.5665 153.211 67.9822 153.491 68.4349C153.739 68.8808 153.995 69.3247 154.221 69.7773L154.844 71.151C155.035 71.6136 155.221 72.0779 155.402 72.5437C156.104 74.4132 156.696 76.3136 157.27 78.2158L158.935 83.9344C159.507 85.8352 160.043 87.7442 160.588 89.6566C160.653 89.8963 160.722 90.1345 160.782 90.3779C160.842 90.6256 160.912 90.8466 160.958 91.1309C161.013 91.6408 161.014 92.1549 160.96 92.6649C160.926 93.1959 160.795 93.7167 160.573 94.2025C160.439 94.4907 160.217 94.7305 159.936 94.8878C159.779 94.9591 159.608 94.9972 159.434 94.9999C159.261 95.0025 159.089 94.9695 158.929 94.9031C158.418 94.6726 157.965 94.3343 157.604 93.9122C157.252 93.5331 156.928 93.1309 156.632 92.7085C156.054 91.8782 155.523 91.0169 155.043 90.1286L155.62 90.3014C155.549 90.3362 155.474 90.3611 155.396 90.3753C155.339 90.3854 155.282 90.3918 155.225 90.3944C155.122 90.3978 155.018 90.3916 154.916 90.3759C154.736 90.3433 154.56 90.2878 154.395 90.2108C154.096 90.0722 153.819 89.8941 153.57 89.6817C153.107 89.2863 152.688 88.8433 152.322 88.3602C151.626 87.4192 151.007 86.4267 150.469 85.3917C149.91 84.3841 149.395 83.3594 148.892 82.3297C148.385 81.3016 147.896 80.266 147.426 79.2228C146.958 78.1786 146.493 77.1334 146.046 76.0798C145.596 75.0269 145.16 73.9706 144.777 72.8829C144.702 72.6295 144.598 72.3851 144.468 72.154C144.334 71.943 144.151 71.7661 143.933 71.6376C143.454 71.3869 142.914 71.2693 142.372 71.2977C141.224 71.3589 140.096 71.6165 139.039 72.0588L139 71.9806C140.041 71.4304 141.179 71.0762 142.354 70.9362C142.976 70.8626 143.606 70.9663 144.17 71.2348C144.461 71.3869 144.712 71.6038 144.902 71.868C145.07 72.1253 145.208 72.4003 145.313 72.6878C146.213 74.7649 147.185 76.834 148.193 78.8762C149.205 80.9176 150.222 82.9593 151.306 84.9533C151.826 85.945 152.41 86.9029 153.055 87.8209C153.373 88.2582 153.738 88.661 154.143 89.0224C154.329 89.1889 154.537 89.3298 154.761 89.4414C154.857 89.4889 154.959 89.5245 155.064 89.5474C155.105 89.554 155.147 89.5575 155.189 89.558C155.208 89.5595 155.22 89.5549 155.235 89.5553C155.236 89.557 155.272 89.5415 155.218 89.5672L155.796 89.7399C156.247 90.6098 156.744 91.4561 157.286 92.2754C157.548 92.6794 157.838 93.0653 158.155 93.4305C158.432 93.7799 158.782 94.068 159.181 94.2758C159.252 94.312 159.33 94.3333 159.41 94.3383C159.49 94.3433 159.57 94.3318 159.645 94.3047C159.808 94.2156 159.938 94.0804 160.02 93.9169C160.229 93.5044 160.363 93.0592 160.415 92.6016C160.491 92.1297 160.514 91.6511 160.486 91.1743C160.417 90.7357 160.299 90.2246 160.191 89.752C159.293 85.8932 158.167 82.0887 156.818 78.3577C156.153 76.4901 155.428 74.6448 154.688 72.8146C154.492 72.3618 154.301 71.9074 154.114 71.4515L153.499 70.1138C153.288 69.6746 153.051 69.2519 152.822 68.8257C152.584 68.4281 152.295 68.0618 151.962 67.7356C151.236 67.1077 150.409 66.6028 149.513 66.2415C148.593 65.8633 147.651 65.5402 146.691 65.2743C144.745 64.7587 142.768 64.3621 140.771 64.0869L140.778 64Z" fill="#020202"/>
<path d="M56.6816 2.13005V0.433757C56.6812 0.318589 56.635 0.208265 56.5531 0.12696C56.4712 0.0456547 56.3603 0 56.2446 0C56.129 0 56.0181 0.0456547 55.9362 0.12696C55.8543 0.208265 55.8081 0.318589 55.8077 0.433757V2.13005C55.8042 2.1881 55.8131 2.24623 55.8338 2.3006C55.8546 2.35497 55.8866 2.40435 55.9279 2.44547C55.9692 2.48659 56.0188 2.51853 56.0734 2.53917C56.128 2.55981 56.1863 2.56869 56.2446 2.56522C56.3605 2.56513 56.4716 2.51926 56.5535 2.43767C56.6354 2.35607 56.6815 2.24544 56.6816 2.13005ZM51.6567 3.78414C51.7548 3.72102 51.8267 3.62463 51.8591 3.5128C51.8915 3.40097 51.8821 3.28124 51.8327 3.17576L51.0012 1.69488C50.9269 1.61076 50.8273 1.55278 50.7172 1.52957C50.6072 1.50636 50.4925 1.51916 50.3903 1.56607C50.2919 1.62895 50.2199 1.72548 50.1879 1.8375C50.1559 1.94952 50.166 2.06934 50.2164 2.17443L51.0458 3.65314C51.116 3.74282 51.2157 3.80507 51.3273 3.82902C51.439 3.85296 51.5556 3.83708 51.6567 3.78414ZM47.7686 7.30987C47.8729 7.36644 47.9954 7.37968 48.1094 7.34671C48.2235 7.31374 48.3198 7.23723 48.3774 7.13384C48.4351 7.03046 48.4494 6.90857 48.4172 6.79474C48.385 6.68092 48.3089 6.58437 48.2056 6.52613L46.7208 5.70018C46.6693 5.67138 46.6125 5.65299 46.5539 5.64608C46.4952 5.63916 46.4357 5.64385 46.3788 5.65987C46.3219 5.67589 46.2688 5.70294 46.2225 5.73945C46.1761 5.77597 46.1374 5.82124 46.1087 5.87266C46.0799 5.92409 46.0617 5.98066 46.0549 6.03913C46.0482 6.09761 46.0531 6.15683 46.0693 6.21342C46.0856 6.27 46.1129 6.32283 46.1497 6.36887C46.1866 6.41492 46.2321 6.45327 46.2839 6.48174L47.7686 7.30987ZM44.5784 11.7038C44.575 11.7618 44.5839 11.8199 44.6046 11.8743C44.6253 11.9287 44.6574 11.9781 44.6987 12.0192C44.74 12.0603 44.7896 12.0922 44.8442 12.1129C44.8987 12.1335 44.9571 12.1424 45.0154 12.1389H46.7208C46.8367 12.1389 46.9479 12.0931 47.0298 12.0115C47.1117 11.9299 47.1578 11.8192 47.1578 11.7038C47.1578 11.5883 47.1117 11.4777 47.0298 11.3961C46.9479 11.3144 46.8367 11.2686 46.7208 11.2686H45.0154C44.8996 11.2691 44.7888 11.3151 44.7069 11.3966C44.6251 11.4781 44.5789 11.5885 44.5784 11.7038ZM65.4207 11.6172C65.4172 11.6752 65.4261 11.7334 65.4468 11.7877C65.4676 11.8421 65.4996 11.8915 65.5409 11.9326C65.5822 11.9737 65.6318 12.0056 65.6864 12.0263C65.741 12.0469 65.7993 12.0558 65.8576 12.0523H67.5631C67.6789 12.0523 67.7901 12.0065 67.872 11.9249C67.954 11.8433 68 11.7326 68 11.6172C68 11.5017 67.954 11.3911 67.872 11.3095C67.7901 11.2278 67.6789 11.182 67.5631 11.182H65.8576C65.7419 11.1825 65.631 11.2285 65.5492 11.31C65.4673 11.3915 65.4211 11.5019 65.4207 11.6172ZM65.8152 5.6114L64.3283 6.43952C64.2247 6.49764 64.1484 6.5942 64.1161 6.70814C64.0838 6.82207 64.098 6.94412 64.1557 7.04764C64.2134 7.15115 64.3099 7.22772 64.4241 7.26062C64.5383 7.29353 64.6609 7.2801 64.7652 7.22327L66.2522 6.39515C66.3559 6.33709 66.4323 6.24051 66.4647 6.12653C66.4971 6.01254 66.4828 5.89041 66.4251 5.78684C66.3674 5.68327 66.2708 5.60668 66.1565 5.57381C66.0422 5.54093 65.9195 5.55445 65.8152 5.6114ZM61.4011 3.61093L62.2327 2.13005C62.2895 2.0262 62.3028 1.90421 62.2697 1.79064C62.2366 1.67708 62.1597 1.58115 62.0559 1.52374C61.9521 1.46634 61.8297 1.45211 61.7154 1.48417C61.6011 1.51622 61.5042 1.59196 61.4457 1.69488L60.6142 3.17576C60.5848 3.22701 60.566 3.28362 60.5589 3.34224C60.5519 3.40086 60.5567 3.46029 60.5731 3.51702C60.5895 3.57375 60.6172 3.62662 60.6545 3.6725C60.6918 3.71838 60.738 3.75634 60.7903 3.78414C60.897 3.82639 61.0148 3.83231 61.1253 3.80098C61.2358 3.76966 61.3327 3.70284 61.4011 3.61093ZM50.6958 14.6633C52.0016 16.2512 52.7396 18.2266 52.7936 20.2783C52.4599 20.3429 52.1594 20.5216 51.944 20.7835C51.7286 21.0454 51.612 21.3741 51.6143 21.7126C51.6235 22.0819 51.7623 22.4362 52.0067 22.714C51.8777 22.8465 51.7765 23.0033 51.7091 23.1752C51.6418 23.3472 51.6095 23.5308 51.6143 23.7153C51.6176 24.0953 51.7706 24.4588 52.0404 24.7274C52.3102 24.9961 52.6751 25.1485 53.0567 25.1518H53.3175C53.3635 25.8942 53.692 26.5912 54.2361 27.1007C54.7802 27.6102 55.4989 27.8938 56.2458 27.8938C56.9926 27.8938 57.7114 27.6102 58.2555 27.1007C58.7996 26.5912 59.1281 25.8942 59.174 25.1518H59.4349C59.8164 25.1485 60.1814 24.9961 60.4512 24.7274C60.721 24.4588 60.874 24.0953 60.8773 23.7153C60.8672 23.3463 60.7285 22.9922 60.4849 22.714C60.6142 22.5817 60.7156 22.4249 60.783 22.2529C60.8504 22.0809 60.8824 21.8972 60.8773 21.7126C60.8726 21.376 60.7534 21.0508 60.5392 20.7903C60.325 20.5297 60.0284 20.3493 59.6979 20.2783C59.7793 18.232 60.5142 16.2649 61.7957 14.6633C62.7857 13.4271 63.3249 11.8929 63.3251 10.3117C63.3236 8.44277 62.577 6.65093 61.2496 5.32995C59.9221 4.00897 58.1223 3.26694 56.2458 3.26694C54.3692 3.26694 52.5694 4.00897 51.242 5.32995C49.9145 6.65093 49.168 8.44277 49.1665 10.3117C49.1656 11.893 49.705 13.4277 50.6958 14.6633ZM56.2447 26.9791C55.7355 26.9836 55.2429 26.7988 54.8632 26.4609C54.4835 26.123 54.2439 25.6562 54.1914 25.1518H58.3425C58.2664 25.6543 58.0138 26.1136 57.6297 26.4482C57.2456 26.7827 56.7549 26.9708 56.2447 26.9791ZM59.4349 24.2371H53.0566C52.982 24.2373 52.908 24.2228 52.839 24.1945C52.77 24.1662 52.7072 24.1246 52.6544 24.0721C52.6015 24.0196 52.5596 23.9573 52.531 23.8886C52.5024 23.82 52.4876 23.7463 52.4876 23.672C52.4876 23.5977 52.5024 23.524 52.531 23.4554C52.5596 23.3867 52.6015 23.3244 52.6544 23.2719C52.7072 23.2194 52.77 23.1778 52.839 23.1495C52.908 23.1212 52.982 23.1067 53.0566 23.1069H59.4348C59.5095 23.1067 59.5834 23.1212 59.6524 23.1495C59.7215 23.1778 59.7842 23.2194 59.8371 23.2719C59.8899 23.3244 59.9319 23.3867 59.9605 23.4554C59.9891 23.524 60.0038 23.5977 60.0038 23.672C60.0038 23.7463 59.9891 23.82 59.9605 23.8886C59.9319 23.9573 59.8899 24.0196 59.8371 24.0721C59.7842 24.1246 59.7215 24.1662 59.6524 24.1945C59.5834 24.2228 59.5095 24.2373 59.4349 24.2371ZM60.0033 21.6704C60.0005 21.8197 59.9396 21.962 59.8336 22.0676C59.7276 22.1731 59.5847 22.2337 59.4349 22.2366H53.0566C52.9059 22.2366 52.7613 22.1769 52.6546 22.0708C52.548 21.9646 52.4881 21.8206 52.4881 21.6704C52.4881 21.5203 52.548 21.3763 52.6546 21.2701C52.7613 21.1639 52.9059 21.1043 53.0566 21.1043H59.4348C59.5847 21.1072 59.7276 21.1677 59.8336 21.2733C59.9396 21.3788 60.0005 21.5212 60.0033 21.6704ZM54.8914 13.2712C55.4555 13.1753 55.9668 12.8825 56.3338 12.4453C56.6879 12.8538 57.1609 13.1424 57.687 13.2712C57.0918 15.5414 56.8853 17.8954 57.0762 20.234H55.6338C55.8928 17.8869 55.6396 15.5118 54.8914 13.2712ZM56.2447 4.08831C57.8887 4.09477 59.4636 4.74807 60.6261 5.90586C61.7887 7.06366 62.4446 8.6321 62.4511 10.2695C62.4439 11.6534 61.9837 12.9973 61.1403 14.0972C59.7441 15.8349 58.9336 17.9667 58.824 20.1896H57.9055C57.7058 17.8483 57.9278 15.4903 58.561 13.2269C58.5899 13.1324 58.5971 13.0326 58.5821 12.935C58.567 12.8374 58.5301 12.7444 58.474 12.6629C58.4236 12.5777 58.3537 12.5056 58.27 12.4524C58.1864 12.3992 58.0913 12.3663 57.9925 12.3565C57.7558 12.3194 57.5292 12.2348 57.3265 12.1077C57.1237 11.9806 56.9491 11.8137 56.8132 11.6172C56.7447 11.5334 56.6579 11.4664 56.5593 11.4213C56.4607 11.3763 56.3531 11.3544 56.2447 11.3574C56.1393 11.3629 56.0368 11.3933 55.9457 11.4463C55.8546 11.4992 55.7775 11.573 55.7208 11.6616C55.5785 11.8675 55.39 12.0376 55.1702 12.1583C54.9504 12.2789 54.7053 12.3468 54.4545 12.3565C54.3534 12.3573 54.2546 12.3865 54.1695 12.4407C54.0843 12.4949 54.0162 12.5719 53.973 12.6629C53.9118 12.7512 53.8756 12.8543 53.8682 12.9613C53.8607 13.0683 53.8823 13.1754 53.9306 13.2713C54.7313 15.485 54.971 17.8614 54.6284 20.1896H53.623C53.5624 17.9572 52.747 15.8106 51.3089 14.0972C50.4466 13.0074 49.9841 11.6569 49.998 10.2695C50.0211 8.63037 50.6879 7.06548 51.8555 5.9101C53.0232 4.75471 54.5987 4.10073 56.2447 4.08831ZM27.0209 53.6513C24.3076 53.6377 21.5943 53.7779 18.881 53.8817C17.5243 53.9384 16.1676 53.9847 14.811 53.9917L13.7935 54C13.4432 53.9934 13.144 54.0111 12.7358 53.9789C11.9652 53.8951 11.2551 53.524 10.748 52.9401C10.2408 52.3563 9.97432 51.603 10.002 50.8315L10.0645 48.8048C10.1097 47.4537 10.152 46.1026 10.1664 44.7515L10.1735 40.6845C10.2358 39.957 10.5655 39.2779 11.0995 38.7775C11.6335 38.2771 12.3341 37.9906 13.0671 37.9729C15.7804 37.889 18.4937 37.8267 21.2071 37.8014L25.277 37.757L26.2945 37.7479C26.6471 37.7528 26.9382 37.7332 27.3602 37.7645C28.1567 37.8467 28.8932 38.2235 29.4243 38.8203C29.9554 39.4171 30.2425 40.1906 30.2287 40.988L30.2016 43.0147C30.1813 44.3657 30.1279 45.7169 30.068 47.068C30.0011 48.4242 29.9682 49.7593 29.8876 51.1324C29.7944 51.8314 29.45 52.4731 28.9183 52.9387C28.3952 53.4002 27.7198 53.6539 27.0209 53.6513ZM27.0209 53.5642C27.6935 53.5573 28.3392 53.3001 28.8309 52.843C29.3142 52.3898 29.6055 51.7698 29.6451 51.1098C29.6173 49.782 29.5462 48.414 29.4911 47.068C29.4312 45.7169 29.3778 44.3658 29.3576 43.0147L29.3304 40.988C29.3272 40.4195 29.1152 39.8719 28.7343 39.4485C28.3533 39.0251 27.8299 38.7553 27.2629 38.69C27.0082 38.6677 26.6201 38.6796 26.2946 38.6757L25.277 38.6666L21.2071 38.6223C18.4937 38.5969 15.7804 38.5347 13.0671 38.4507C12.4287 38.4362 11.8079 38.6604 11.3272 39.079C10.8465 39.4976 10.5406 40.0804 10.4699 40.7124C10.4258 42.035 10.4437 43.4068 10.4505 44.7515C10.465 46.1026 10.5072 47.4537 10.5524 48.8048L10.615 50.8315C10.6315 51.4256 10.8638 51.9935 11.2687 52.4301C11.6736 52.8667 12.2237 53.1423 12.8171 53.2057C13.0856 53.2273 13.4657 53.2132 13.7935 53.2158L14.811 53.2241C16.1676 53.2309 17.5243 53.2771 18.881 53.3338C21.5943 53.4378 24.3076 53.5778 27.0209 53.5642Z" fill="black"/>
<path d="M20 42C19.0111 42 18.0444 42.2932 17.2222 42.8427C16.3999 43.3921 15.759 44.1729 15.3806 45.0866C15.0022 46.0002 14.9032 47.0055 15.0961 47.9754C15.289 48.9454 15.7652 49.8363 16.4645 50.5355C17.1637 51.2348 18.0546 51.711 19.0246 51.9039C19.9945 52.0969 20.9998 51.9978 21.9134 51.6194C22.827 51.241 23.6079 50.6001 24.1573 49.7779C24.7068 48.9556 25 47.9889 25 47C25 46.3434 24.8707 45.6932 24.6195 45.0865C24.3682 44.4799 23.9999 43.9287 23.5356 43.4644C23.0713 43.0001 22.5201 42.6318 21.9135 42.3805C21.3068 42.1293 20.6566 42 20 42ZM20 51.3333C19.143 51.3333 18.3051 51.0792 17.5925 50.603C16.8799 50.1269 16.3245 49.4501 15.9965 48.6583C15.6685 47.8665 15.5827 46.9952 15.7499 46.1546C15.9171 45.314 16.3299 44.5419 16.9359 43.9359C17.5419 43.3298 18.314 42.9171 19.1546 42.7499C19.9952 42.5827 20.8665 42.6685 21.6583 42.9965C22.4501 43.3245 23.1269 43.8799 23.6031 44.5925C24.0792 45.3051 24.3333 46.1429 24.3333 47C24.3334 47.5691 24.2213 48.1326 24.0035 48.6583C23.7858 49.1841 23.4666 49.6618 23.0642 50.0642C22.6618 50.4666 22.1841 50.7857 21.6583 51.0035C21.1326 51.2213 20.5691 51.3333 20 51.3333Z" fill="black"/>
<path d="M22.1306 45.8394C22.1306 45.5322 22.0291 45.2336 21.8422 44.9908C21.6552 44.7479 21.3935 44.5744 21.098 44.4977C21.0994 44.4828 21.0994 44.4679 21.098 44.453V43.7598C21.098 43.7143 21.0891 43.6692 21.0718 43.6271C21.0545 43.5851 21.0291 43.5469 20.9972 43.5147C20.9652 43.4825 20.9273 43.457 20.8855 43.4396C20.8437 43.4221 20.799 43.4132 20.7538 43.4132C20.7086 43.4132 20.6638 43.4221 20.622 43.4396C20.5803 43.457 20.5423 43.4825 20.5104 43.5147C20.4784 43.5469 20.4531 43.5851 20.4358 43.6271C20.4185 43.6692 20.4096 43.7143 20.4096 43.7598V44.453H19.7211V43.7598C19.7213 43.7142 19.7125 43.6689 19.6953 43.6268C19.678 43.5846 19.6527 43.5462 19.6207 43.5139C19.5888 43.4816 19.5508 43.4559 19.5089 43.4384C19.4671 43.4209 19.4222 43.4119 19.3769 43.4119C19.3316 43.4119 19.2867 43.4209 19.2449 43.4384C19.203 43.4559 19.165 43.4816 19.133 43.5139C19.1011 43.5462 19.0757 43.5846 19.0585 43.6268C19.0413 43.6689 19.0325 43.7142 19.0327 43.7598V44.453H18.3442C18.2529 44.453 18.1654 44.4895 18.1008 44.5545C18.0363 44.6195 18 44.7077 18 44.7996C18 44.8915 18.0363 44.9797 18.1008 45.0447C18.1654 45.1097 18.2529 45.1462 18.3442 45.1462H19.0326V48.6123H18.3442C18.2529 48.6123 18.1654 48.6488 18.1008 48.7138C18.0363 48.7788 18 48.867 18 48.9589C18 49.0508 18.0363 49.139 18.1008 49.204C18.1654 49.269 18.2529 49.3055 18.3442 49.3055H19.0326V49.6521C19.0325 49.6977 19.0413 49.743 19.0585 49.7852C19.0757 49.8274 19.101 49.8657 19.133 49.898C19.165 49.9304 19.203 49.956 19.2449 49.9735C19.2867 49.991 19.3316 50 19.3769 50C19.4222 50 19.467 49.991 19.5089 49.9735C19.5507 49.956 19.5887 49.9304 19.6207 49.898C19.6527 49.8657 19.678 49.8274 19.6953 49.7852C19.7125 49.743 19.7213 49.6977 19.7211 49.6521V49.3055H20.4095V49.6521C20.4095 49.744 20.4458 49.8322 20.5104 49.8972C20.5749 49.9622 20.6625 49.9987 20.7538 49.9987C20.845 49.9987 20.9326 49.9622 20.9971 49.8972C21.0617 49.8322 21.098 49.744 21.098 49.6521V49.2566C21.3385 49.1922 21.5572 49.0632 21.7307 48.8835C21.9043 48.7038 22.0262 48.48 22.0834 48.2361C22.1407 47.9921 22.1312 47.7371 22.0559 47.4982C21.9806 47.2593 21.8424 47.0454 21.6559 46.8793C21.804 46.7499 21.9229 46.5903 22.0047 46.4109C22.0866 46.2316 22.1295 46.0368 22.1306 45.8394ZM21.4422 47.9191C21.4422 48.0101 21.4244 48.1003 21.3899 48.1844C21.3553 48.2685 21.3046 48.3449 21.2406 48.4093C21.1767 48.4737 21.1008 48.5248 21.0173 48.5596C20.9337 48.5944 20.8442 48.6123 20.7538 48.6123H19.7211V47.2259H20.7538C20.8442 47.2258 20.9337 47.2438 21.0173 47.2786C21.1008 47.3134 21.1767 47.3645 21.2406 47.4288C21.3046 47.4932 21.3553 47.5697 21.3899 47.6538C21.4244 47.7379 21.4422 47.828 21.4422 47.9191ZM19.7211 46.5326V45.1462H20.7538C20.9364 45.1462 21.1115 45.2192 21.2406 45.3492C21.3697 45.4792 21.4422 45.6556 21.4422 45.8394C21.4422 46.0233 21.3697 46.1996 21.2406 46.3296C21.1115 46.4596 20.9364 46.5326 20.7538 46.5326H19.7211ZM139.737 43.8989C135.853 43.9243 131.968 43.9226 128.084 43.9701L116.43 44.1314C112.546 44.2001 108.661 44.2091 104.776 44.2366C102.834 44.2566 100.892 44.2474 98.9497 44.2396L96.0363 44.2297C95.5492 44.225 95.0777 44.2396 94.5414 44.1938C94.022 44.1308 93.5141 43.9935 93.0331 43.7862C92.0736 43.3579 91.2676 42.6437 90.7237 41.7399C90.1849 40.8459 89.9238 39.8103 89.9739 38.7658L90.0363 32.8986L90.1 27.0314L90.1284 21.164C90.157 17.2526 90.1405 13.3409 90.126 9.42954L90.1166 6.49594C90.1201 6.00253 90.0938 5.52804 90.119 5.01914C90.1395 4.51118 90.2408 4.00981 90.419 3.53416C90.772 2.57175 91.4064 1.7397 92.2386 1.14774C92.657 0.856927 93.114 0.626755 93.5961 0.463973C94.0838 0.315145 94.5894 0.233671 95.0989 0.221781C102.868 0.137038 110.637 0.0792482 118.406 0.0484167L130.06 0.00367957L135.886 0L138.8 0.00430394C139.287 0.00817512 139.755 -0.00795761 140.304 0.038069C140.832 0.101122 141.349 0.239746 141.838 0.449753C142.817 0.883094 143.642 1.60451 144.206 2.51913C144.49 2.9717 144.7 3.46736 144.828 3.98712C144.894 4.24586 144.942 4.5088 144.973 4.77413C144.985 5.0374 145.005 5.31745 144.999 5.55211C144.997 7.50771 144.996 9.46351 144.973 11.4193C144.936 15.3307 144.913 19.2423 144.844 23.1537L144.678 34.8882L144.648 37.822C144.639 38.3128 144.657 38.7953 144.626 39.2932C144.599 39.7905 144.493 40.2802 144.312 40.7436C143.956 41.6757 143.328 42.4773 142.51 43.0424C142.101 43.318 141.656 43.5346 141.188 43.6858C140.716 43.8223 140.228 43.894 139.737 43.8989ZM139.737 43.811C140.218 43.8005 140.696 43.7249 141.157 43.5862C141.613 43.4332 142.045 43.2169 142.442 42.9435C143.231 42.3854 143.833 41.5995 144.17 40.6896C144.543 39.7866 144.462 38.7989 144.464 37.822L144.435 34.8882L144.268 23.1538C144.199 19.2424 144.177 15.3307 144.14 11.4193C144.116 9.46352 144.116 7.50772 144.114 5.55213C144.119 5.29746 144.098 5.08947 144.09 4.86449C144.063 4.64425 144.022 4.42603 143.967 4.21126C143.86 3.78012 143.685 3.36932 143.447 2.99493C142.977 2.23724 142.291 1.64033 141.478 1.2826C141.072 1.11093 140.645 0.997546 140.207 0.945772C139.788 0.910494 139.283 0.922327 138.8 0.921467L135.886 0.925767L130.06 0.921898L118.406 0.877158C110.637 0.851565 102.868 0.793852 95.0989 0.704015C94.6363 0.707501 94.1762 0.773325 93.731 0.89974C93.2889 1.04108 92.8685 1.24378 92.482 1.502C91.7073 2.03334 91.1108 2.78869 90.7711 3.6684C90.3944 4.54209 90.4574 5.51171 90.4431 6.49596L90.4337 9.42957C90.4191 13.341 90.4026 17.2526 90.4313 21.164L90.4596 27.0314L90.5234 32.8986L90.5858 38.7658C90.5829 39.0175 90.6054 39.2362 90.6167 39.4666C90.6462 39.693 90.6906 39.9172 90.7497 40.1377C90.8634 40.5793 91.0477 40.9994 91.2953 41.3815C91.7846 42.1501 92.4904 42.7544 93.3224 43.1171C93.7368 43.2916 94.1734 43.4064 94.6196 43.4582C95.0516 43.4933 95.5526 43.4802 96.0362 43.4802L98.9497 43.4703C100.892 43.4626 102.834 43.4535 104.776 43.4733C108.661 43.5008 112.545 43.5101 116.43 43.5785L128.084 43.7398C131.968 43.7873 135.853 43.7856 139.737 43.811Z" fill="black"/>
<path d="M112.704 23.0167C110.041 23.003 107.379 23.1442 104.716 23.2487C103.384 23.3058 102.053 23.3524 100.721 23.3594L99.7229 23.3678C99.3791 23.3611 99.0855 23.3789 98.6849 23.3465C97.9287 23.2621 97.2317 22.8884 96.734 22.3005C96.2364 21.7125 95.9748 20.9539 96.0019 20.177L96.0633 18.1361C96.1076 16.7755 96.1491 15.4149 96.1632 14.0543L96.1703 9.95883C96.2314 9.22617 96.555 8.54234 97.079 8.03844C97.6031 7.53453 98.2906 7.24602 99.01 7.22818C101.673 7.14363 104.336 7.08097 106.998 7.05543L110.993 7.01079L111.991 7.00157C112.337 7.00672 112.623 6.98675 113.037 7.0183C113.819 7.10123 114.542 7.48065 115.063 8.08164C115.584 8.68263 115.866 9.46149 115.852 10.2644L115.826 12.3053C115.806 13.6659 115.753 15.0267 115.695 16.3873C115.629 17.7529 115.597 19.0974 115.518 20.4803C115.426 21.1841 115.088 21.8302 114.566 22.2991C114.053 22.7638 113.39 23.0192 112.704 23.0167ZM112.704 22.9289C113.364 22.922 113.998 22.6629 114.481 22.2027C114.955 21.7462 115.241 21.1219 115.28 20.4573C115.252 19.1203 115.183 17.7426 115.128 16.3873C115.07 15.0267 115.017 13.6659 114.997 12.3053L114.971 10.2644C114.968 9.69196 114.759 9.14048 114.386 8.71413C114.012 8.28778 113.498 8.01608 112.942 7.95033C112.692 7.92801 112.311 7.93982 111.991 7.93595L110.993 7.92672L106.998 7.88209C104.336 7.85655 101.673 7.79389 99.01 7.70933C98.3834 7.69474 97.7743 7.92047 97.3025 8.34204C96.8307 8.7636 96.5305 9.35044 96.4611 9.98694C96.4179 11.3188 96.4354 12.7002 96.4422 14.0543C96.4563 15.4149 96.4978 16.7755 96.5421 18.1361L96.6035 20.177C96.6198 20.7753 96.8477 21.3473 97.2451 21.7869C97.6425 22.2265 98.1824 22.504 98.7647 22.568C99.0282 22.5896 99.4012 22.5757 99.7229 22.578L100.721 22.5864C102.053 22.5933 103.384 22.6398 104.716 22.6969C107.379 22.8017 110.041 22.9426 112.704 22.9289ZM135.851 37.6491C133.189 37.6352 130.526 37.7764 127.863 37.8811C126.532 37.9382 125.2 37.9848 123.869 37.9916L122.87 38C122.526 37.9936 122.233 38.0112 121.832 37.9788C121.076 37.8943 120.379 37.5207 119.881 36.9328C119.384 36.3449 119.122 35.5863 119.149 34.8095L119.21 32.7686C119.255 31.408 119.296 30.0474 119.31 28.6868L119.317 24.5912C119.379 23.8586 119.702 23.1747 120.226 22.6708C120.75 22.1669 121.438 21.8783 122.157 21.8604C124.82 21.7761 127.483 21.7134 130.146 21.6876L134.14 21.643L135.139 21.6338C135.484 21.6389 135.77 21.619 136.184 21.6505C136.966 21.7334 137.689 22.1129 138.21 22.7139C138.731 23.315 139.013 24.0939 139 24.8968L138.973 26.9377C138.953 28.2983 138.901 29.6589 138.842 31.0195C138.776 32.3851 138.744 33.7296 138.665 35.1125C138.573 35.8164 138.235 36.4626 137.714 36.9315C137.2 37.3961 136.537 37.6515 135.851 37.6491ZM135.851 37.5611C136.511 37.5544 137.145 37.2954 137.628 36.8351C138.102 36.3786 138.388 35.7542 138.427 35.0895C138.4 33.7525 138.33 32.3748 138.276 31.0195C138.217 29.659 138.164 28.2983 138.145 26.9377L138.118 24.8968C138.115 24.3244 137.907 23.7729 137.533 23.3466C137.159 22.9202 136.645 22.6485 136.089 22.5828C135.839 22.5602 135.458 22.5722 135.139 22.5684L134.14 22.5592L130.146 22.5145C127.483 22.4888 124.82 22.4261 122.157 22.3418C121.531 22.3271 120.921 22.5527 120.45 22.9743C119.978 23.3958 119.678 23.9827 119.608 24.6191C119.565 25.9512 119.583 27.3324 119.589 28.6868C119.603 30.0474 119.645 31.408 119.689 32.7686L119.751 34.8095C119.767 35.4077 119.995 35.9797 120.392 36.4193C120.79 36.8589 121.33 37.1364 121.912 37.2004C122.175 37.2221 122.548 37.2079 122.87 37.2103L123.869 37.2186C125.2 37.2257 126.532 37.2723 127.863 37.3294C130.526 37.4339 133.189 37.5751 135.851 37.5611Z" fill="black"/>
<path d="M103.826 19.881L102.182 19.9942L102.098 20L102.095 19.881C102.069 18.7739 102.04 17.6668 102.024 16.5595C102.008 15.4524 102.004 14.3453 102.001 13.2382L102 13L102.182 13.0014L103.826 13.013L104 13.0141L103.998 13.2382C103.99 14.3724 103.966 15.5052 103.932 16.6171C103.907 17.7335 103.863 18.8242 103.826 19.881ZM103.826 19.881C103.789 18.7237 103.745 17.5999 103.72 16.5021C103.686 15.3998 103.662 14.3182 103.654 13.2382L103.826 13.4634L102.182 13.475L102.363 13.2382C102.36 14.3453 102.357 15.4524 102.34 16.5595C102.324 17.6668 102.295 18.7739 102.269 19.881L102.182 19.7678L103.826 19.881Z" fill="black"/>
<path d="M105.836 19.8468C105.325 19.8928 104.763 19.9619 104.183 19.9937L104.072 20L104.066 19.8468C104.02 18.6417 104.005 17.4364 104.001 16.2313L104 16L104.183 16.0016C104.734 16.0065 105.285 16.0085 105.836 16.0287L106 16.0348L105.997 16.2313C105.977 17.4869 105.901 18.7256 105.836 19.8468ZM105.836 19.8468C105.771 18.5576 105.695 17.3859 105.675 16.2313L105.836 16.4337C105.285 16.4539 104.734 16.4559 104.183 16.4609L104.365 16.2313C104.361 17.4364 104.346 18.6417 104.3 19.8468L104.183 19.6998C104.705 19.7317 105.245 19.8008 105.836 19.8468Z" fill="black"/>
<path d="M107.745 19.8617L106.541 19.9313C106.128 19.953 105.704 19.9862 105.274 19.9966L105.133 20L105.128 19.8617C105.098 18.927 105.047 17.9925 105.033 17.0578C105.01 16.1231 105.008 15.1887 105.002 14.254L105 14L105.274 14.0022C106.098 14.0086 106.922 14.0057 107.745 14.0209L108 14.0258L107.997 14.254C107.986 15.217 107.942 16.176 107.899 17.1166C107.863 18.0612 107.797 18.9769 107.745 19.8617ZM107.745 19.8617C107.694 18.8773 107.628 17.9239 107.592 16.999C107.549 16.0705 107.504 15.1604 107.493 14.254L107.745 14.487C106.922 14.5023 106.098 14.4993 105.274 14.5057L105.547 14.254C105.54 15.1887 105.539 16.1231 105.515 17.0578C105.501 17.9925 105.451 18.927 105.42 19.8617L105.274 19.7268C105.668 19.7371 106.068 19.7704 106.479 19.792L107.745 19.8617Z" fill="black"/>
<path d="M110.474 19.3306C108.765 19.4279 107.056 19.4673 105.347 19.5071C103.639 19.538 101.93 19.5503 100.221 19.5439L100 19.5429L100.001 19.3306C100.007 17.9421 100.016 16.5538 100.06 15.1653C100.092 13.7768 100.138 12.3885 100.221 11C100.304 12.3885 100.349 13.7768 100.382 15.1653C100.425 16.5538 100.434 17.9421 100.44 19.3306L100.221 19.1174C101.93 19.1104 103.639 19.1226 105.347 19.154C107.056 19.1938 108.765 19.2332 110.474 19.3306ZM127.639 26.0203C129.194 25.8666 130.757 25.7943 132.32 25.8037C133.883 25.7933 135.445 25.8656 137 26.0203C135.445 26.175 133.883 26.2473 132.32 26.2369C130.757 26.2462 129.194 26.174 127.639 26.0203ZM123.844 27.9852C125.399 27.8316 126.962 27.7593 128.525 27.7687C130.088 27.7582 131.65 27.8305 133.205 27.9852C131.65 28.14 130.088 28.2122 128.525 28.2018C126.962 28.2112 125.399 28.1389 123.844 27.9852ZM123.844 30.0344C125.399 29.8808 126.962 29.8085 128.525 29.8179C130.088 29.8075 131.65 29.8798 133.205 30.0344C131.65 30.1891 130.088 30.2615 128.525 30.2512C126.962 30.2606 125.399 30.1883 123.844 30.0344ZM123.844 32.0838C125.399 31.93 126.962 31.8576 128.525 31.8671C130.088 31.8567 131.65 31.929 133.205 32.0838C131.65 32.2385 130.088 32.3107 128.525 32.3004C126.962 32.3098 125.399 32.2375 123.844 32.0838ZM127.639 33.7825C129.194 33.6286 130.757 33.5563 132.32 33.5657C133.883 33.5553 135.445 33.6277 137 33.7825C135.445 33.9371 133.883 34.0094 132.32 33.999C130.757 34.0084 129.194 33.9361 127.639 33.7825Z" fill="black"/>
<path d="M144 125.129C145.177 126.14 146.11 127.422 146.724 128.872C146.729 128.883 146.731 128.895 146.732 128.907L146.732 128.913L146.732 128.916L146.701 128.84L146.708 128.854L146.731 128.89C147.252 130.143 147.473 131.508 147.375 132.868L147.371 132.895C147.373 132.888 147.374 132.88 147.373 132.872H147.373L147.372 132.892L147.359 133.37C147.356 133.529 147.363 133.688 147.38 133.846L147.381 133.854L147.381 133.863L147.381 133.867L147.38 133.851C147.397 133.998 147.413 134.144 147.441 134.291C147.463 134.441 147.504 134.574 147.536 134.707L147.545 134.745C147.547 134.748 147.548 134.751 147.549 134.754C147.549 134.757 147.549 134.76 147.548 134.763L147.559 134.795C147.615 134.981 147.682 135.163 147.76 135.34L147.87 135.61L148.008 135.866L148.321 136.357C148.431 136.515 148.548 136.667 148.674 136.812L148.712 136.87C148.699 136.837 148.676 136.809 148.647 136.791L148.697 136.836C148.843 137.004 149 137.161 149.167 137.306C149.338 137.447 149.494 137.609 149.677 137.734C149.854 137.866 150.049 137.981 150.233 138.106C150.425 138.219 150.623 138.319 150.817 138.426L150.692 138.396H150.695C150.734 138.396 150.772 138.404 150.807 138.42L150.82 138.426C151.054 138.535 151.291 138.637 151.535 138.725L151.437 138.707H151.444C151.475 138.707 151.506 138.712 151.535 138.723L151.549 138.728C152.128 138.941 152.735 139.058 153.348 139.076C153.644 139.085 153.94 139.054 154.228 138.984C154.508 138.903 154.87 138.802 155.164 138.732L155.167 138.731C155.193 138.725 155.22 138.722 155.246 138.721H155.25L155.143 138.739L155.173 138.732L155.216 138.72L155.39 138.684L155.477 138.666C155.507 138.66 155.543 138.651 155.53 138.657L155.575 138.645C155.941 138.57 156.3 138.516 156.662 138.454C156.673 138.452 156.684 138.451 156.696 138.45L156.71 138.45H156.717L156.667 138.454C157.064 138.391 157.47 138.343 157.863 138.298L158.464 138.236L159.086 138.182L159.059 138.183L159.933 138.121L160.822 138.074L160.846 138.074L160.869 138.076L163.095 138.308L163.133 138.31L175.569 139.504L175.526 139.502L175.56 139.505L175.607 139.507L177.043 139.645L176.996 139.643H177C177.014 139.643 177.031 139.644 177.045 139.645L179.74 139.899L179.82 139.905L179.881 139.912L179.843 139.907L180.243 139.943L180.442 139.962C180.493 139.964 180.544 139.97 180.594 139.978L180.599 140.074C180.599 140.09 180.604 140.105 180.613 140.118C180.622 140.131 180.634 140.141 180.648 140.147C180.663 140.154 180.678 140.155 180.693 140.152C180.708 140.15 180.722 140.142 180.734 140.132C180.745 140.121 180.753 140.107 180.757 140.092C180.761 140.076 180.76 140.06 180.756 140.045C180.751 140.03 180.742 140.017 180.731 140.006C180.719 139.996 180.705 139.99 180.689 139.988C180.602 139.976 180.658 139.985 180.675 139.983L180.742 139.985L180.876 139.99C180.968 139.996 181.045 139.989 181.131 139.99C181.293 139.986 181.455 139.973 181.616 139.95C181.759 139.928 181.9 139.891 182.035 139.84C182.088 139.819 182.138 139.793 182.184 139.762C182.199 139.752 182.213 139.741 182.225 139.729C182.232 139.724 182.231 139.723 182.231 139.723C182.225 139.736 182.235 139.707 182.201 139.784L182.619 139.474C182.891 139.46 183.161 139.411 183.422 139.329C183.539 139.293 183.651 139.243 183.757 139.18C183.803 139.154 183.846 139.123 183.887 139.089C183.906 139.074 183.921 139.059 183.935 139.045C183.94 139.042 183.97 138.998 183.94 139.046L184.235 138.815C184.429 138.769 184.614 138.693 184.786 138.589C184.848 138.552 184.903 138.504 184.95 138.448C184.964 138.431 184.976 138.413 184.985 138.393C184.989 138.386 184.99 138.382 184.991 138.38C184.99 138.393 184.989 138.355 184.989 138.435L185.326 137.936C185.555 137.865 185.767 137.749 185.953 137.595C186.04 137.52 186.118 137.434 186.186 137.341C186.244 137.262 186.292 137.176 186.329 137.085C186.375 136.954 186.465 136.846 186.584 136.78C186.739 136.708 186.881 136.606 187 136.48C187.065 136.376 187.063 136.407 187.03 136.297C186.945 136.145 186.83 136.013 186.692 135.91C186.529 135.776 186.353 135.659 186.168 135.56L186.247 135.591L178.568 133.316C176.008 132.561 173.454 131.784 170.899 131.007L170.923 131.013L170.217 130.836L170.301 130.847H170.291L170.275 130.846C170.252 130.846 170.229 130.842 170.207 130.836C168.487 130.344 166.822 129.667 165.239 128.814C163.665 127.964 162.17 126.966 160.772 125.835C159.379 124.708 158.061 123.486 156.826 122.176C155.588 120.875 154.448 119.479 153.415 118C154.521 119.414 155.716 120.751 156.992 122.002C158.262 123.251 159.612 124.411 161.032 125.474C162.444 126.535 163.938 127.474 165.499 128.281C167.057 129.074 168.692 129.695 170.375 130.134L170.291 130.124L170.301 130.124C170.324 130.123 170.347 130.126 170.369 130.131L170.386 130.134L171.068 130.288C171.075 130.29 171.085 130.293 171.092 130.295C173.664 131.008 176.236 131.721 178.801 132.457L186.501 134.652L186.507 134.654C186.532 134.661 186.557 134.671 186.58 134.683C186.828 134.812 187.062 134.966 187.28 135.143C187.534 135.338 187.743 135.591 187.889 135.881C187.983 136.078 188.018 136.299 187.991 136.517C187.983 136.575 187.973 136.633 187.961 136.69L187.898 136.84L187.826 136.986C187.799 137.025 187.77 137.06 187.74 137.097C187.532 137.342 187.275 137.539 186.988 137.674L187.242 137.368C187.176 137.57 187.078 137.76 186.953 137.93C186.841 138.086 186.712 138.229 186.568 138.354C186.285 138.594 185.96 138.775 185.611 138.886L185.948 138.388C185.95 138.471 185.941 138.553 185.92 138.633C185.905 138.691 185.885 138.747 185.861 138.801C185.819 138.899 185.764 138.99 185.699 139.073C185.587 139.215 185.452 139.336 185.301 139.432C185.045 139.593 184.767 139.712 184.476 139.785L184.771 139.554C184.73 139.622 184.682 139.686 184.628 139.743C184.588 139.785 184.546 139.824 184.502 139.862C184.421 139.93 184.336 139.992 184.245 140.046C184.08 140.145 183.904 140.225 183.722 140.285C183.384 140.394 183.035 140.46 182.682 140.48L183.1 140.17C183.073 140.234 183.037 140.295 182.995 140.349C182.968 140.384 182.939 140.417 182.908 140.448C182.855 140.502 182.798 140.551 182.736 140.594C182.631 140.667 182.518 140.729 182.4 140.777C182.194 140.859 181.979 140.917 181.76 140.95C181.559 140.978 181.356 140.994 181.153 140.998C181.056 140.998 180.951 141.003 180.86 140.997L180.72 140.992L180.65 140.989C180.599 140.989 180.549 140.984 180.499 140.974L180.594 140.984L179.759 140.907L179.722 140.902L179.66 140.895L179.74 140.901L179.612 140.893L179.522 140.884L179.353 140.867L179.012 140.833L178.324 140.766L176.955 140.633L177 140.635H176.997C176.981 140.635 176.965 140.634 176.95 140.633L175.514 140.489L175.56 140.491L175.526 140.487L175.483 140.485L169.266 139.855L163.057 139.176L163.095 139.178L161.913 139.045L160.774 138.901L160.822 138.904L159.973 138.93L159.112 138.971L159.086 138.972L158.52 139.009L157.935 139.056C157.539 139.092 157.155 139.127 156.767 139.18L156.758 139.181C156.744 139.183 156.73 139.184 156.717 139.183H156.71L156.758 139.18C156.405 139.233 156.046 139.279 155.701 139.341L155.746 139.329C155.673 139.348 155.65 139.35 155.62 139.356L155.528 139.373L155.344 139.407L155.387 139.395L155.356 139.402L155.295 139.415C155.28 139.418 155.265 139.42 155.25 139.42H155.246L155.328 139.409C154.99 139.483 154.726 139.55 154.38 139.641C154.035 139.717 153.683 139.746 153.332 139.729C152.649 139.694 151.977 139.547 151.339 139.294L151.444 139.314H151.437L151.429 139.314C151.399 139.313 151.369 139.307 151.34 139.297C151.079 139.196 150.823 139.079 150.571 138.954L150.695 138.984H150.692L150.675 138.983C150.637 138.983 150.6 138.973 150.567 138.953C150.361 138.834 150.15 138.721 149.948 138.595C149.753 138.457 149.554 138.332 149.363 138.184C149.167 138.042 149.001 137.865 148.819 137.707C148.64 137.543 148.472 137.367 148.316 137.179L148.366 137.225C148.323 137.193 148.287 137.152 148.261 137.104L148.299 137.162C148.164 136.998 148.038 136.827 147.92 136.65L147.598 136.103L147.457 135.816L147.346 135.516C147.267 135.317 147.201 135.114 147.147 134.906L147.157 134.937C147.145 134.894 147.134 134.851 147.126 134.807L147.135 134.845C147.058 134.53 147.01 134.207 146.992 133.882L146.991 133.877L146.991 133.866L146.991 133.863L146.992 133.88C146.98 133.708 146.978 133.536 146.987 133.365L147.02 132.852L147.019 132.872C147.021 132.85 147.024 132.828 147.028 132.807L147.024 132.834C147.164 131.524 146.997 130.199 146.538 128.971L146.561 129.007L146.554 128.992L146.528 128.935C146.525 128.929 146.523 128.923 146.524 128.916L146.524 128.913L146.531 128.953C146.256 128.23 145.902 127.541 145.477 126.899C145.055 126.25 144.559 125.656 144 125.129Z" fill="#020202"/>
<path d="M187 137.203C186.911 137.02 186.786 136.862 186.634 136.741C186.488 136.621 186.33 136.524 186.162 136.449C185.828 136.283 185.461 136.192 185.082 136.043C185.279 136 185.48 135.989 185.68 136.01C185.882 136.032 186.081 136.087 186.269 136.175C186.463 136.263 186.637 136.399 186.777 136.572C186.923 136.741 187.003 136.968 187 137.203ZM185.751 138.409C185.77 138.181 185.583 138.07 185.442 137.958C185.283 137.852 185.117 137.757 184.947 137.674C184.589 137.505 184.24 137.314 183.901 137.101C184.302 137.114 184.697 137.216 185.061 137.404C185.248 137.496 185.422 137.622 185.573 137.777C185.653 137.858 185.718 137.954 185.765 138.062C185.791 138.116 185.804 138.177 185.802 138.238C185.799 138.299 185.782 138.358 185.751 138.409ZM184.697 139.313C184.687 139.168 184.63 139.032 184.536 138.931C184.45 138.829 184.35 138.743 184.24 138.675C184.012 138.538 183.771 138.43 183.522 138.353C183.272 138.264 183.014 138.193 182.754 138.123C182.494 138.049 182.231 137.983 181.967 137.89C182.517 137.833 183.072 137.893 183.602 138.068C183.875 138.154 184.131 138.295 184.358 138.484C184.482 138.569 184.581 138.693 184.641 138.841C184.702 138.989 184.721 139.153 184.697 139.313ZM183.082 140C183.125 139.896 183.129 139.778 183.093 139.671C183.058 139.564 182.986 139.477 182.893 139.429C182.709 139.31 182.511 139.22 182.305 139.162C182.096 139.09 181.879 139.032 181.66 138.97C181.443 138.904 181.221 138.847 181 138.757C181.464 138.693 181.934 138.734 182.383 138.876C182.619 138.945 182.839 139.073 183.025 139.249C183.127 139.345 183.196 139.478 183.217 139.625C183.224 139.695 183.215 139.766 183.192 139.831C183.168 139.897 183.131 139.955 183.082 140Z" fill="#020202"/>
<path d="M187 136.614L186.997 136.643L186.547 142.224C186.489 142.945 186.228 143.637 185.79 144.224C185.353 144.811 184.756 145.272 184.066 145.555C181.375 146.66 176.675 148.069 171.872 147.054C169.973 146.654 168.179 145.884 166.601 144.791C166.601 144.791 160.478 142.158 158.791 144.53C158.307 145.211 158.19 146.306 158.688 148L151.346 147.242L144.182 146.501C144.182 146.501 145.587 144.881 144.745 143.14C144.108 141.792 143.873 140.3 144.065 138.83C144.074 138.733 144.088 138.637 144.106 138.542C144.117 138.444 144.133 138.347 144.155 138.251C144.172 138.149 144.192 138.049 144.213 137.95C144.35 137.341 144.529 136.657 144.766 135.889C145.137 134.715 145.349 133.5 145.398 132.273C145.436 131.195 145.34 130.1 144.855 129.736L146.175 128.995V128.998C146.178 129.002 146.178 129.008 146.182 129.012C146.772 130.148 146.972 131.437 146.752 132.69C146.75 132.697 146.749 132.703 146.749 132.71C146.729 132.889 146.72 133.069 146.721 133.249C146.721 133.342 146.724 133.431 146.728 133.521C146.731 133.56 146.735 133.6 146.738 133.64V133.643C146.745 133.729 146.752 133.815 146.766 133.901C146.776 133.987 146.79 134.073 146.807 134.159C146.814 134.199 146.824 134.242 146.834 134.281C146.847 134.354 146.866 134.426 146.889 134.496C146.892 134.52 146.898 134.544 146.907 134.566C146.927 134.642 146.951 134.718 146.979 134.794C147.045 134.992 147.125 135.186 147.219 135.373C147.264 135.462 147.312 135.548 147.364 135.634C147.467 135.817 147.583 135.992 147.711 136.16C147.762 136.23 147.821 136.303 147.875 136.369C147.934 136.438 147.989 136.504 148.051 136.571C148.056 136.579 148.063 136.586 148.071 136.59C148.137 136.663 148.205 136.736 148.281 136.805C148.326 136.852 148.374 136.898 148.425 136.944C148.599 137.104 148.782 137.256 148.971 137.398C149.051 137.454 149.126 137.51 149.205 137.56C149.37 137.675 149.542 137.778 149.714 137.877C149.899 137.983 150.088 138.079 150.277 138.168H150.281C150.415 138.231 150.545 138.287 150.679 138.34C150.796 138.387 150.913 138.43 151.03 138.469H151.037C151.122 138.499 151.212 138.529 151.298 138.555C151.962 138.767 152.66 138.86 153.359 138.83C153.588 138.819 153.815 138.783 154.036 138.724C154.167 138.688 154.304 138.655 154.445 138.622C154.548 138.595 154.648 138.572 154.754 138.552C154.795 138.542 154.833 138.536 154.874 138.526H154.878C154.888 138.522 154.898 138.522 154.909 138.519C155.015 138.499 155.125 138.479 155.235 138.459C155.249 138.456 155.259 138.456 155.27 138.453C155.38 138.433 155.493 138.413 155.603 138.397C155.85 138.357 156.101 138.321 156.352 138.287H156.359C156.431 138.278 156.506 138.268 156.579 138.258C156.771 138.235 156.96 138.215 157.149 138.195C157.328 138.178 157.499 138.162 157.671 138.145C157.891 138.125 158.104 138.109 158.307 138.092C158.372 138.089 158.437 138.082 158.499 138.079C158.585 138.072 158.668 138.066 158.747 138.062H158.75C158.946 138.049 159.132 138.039 159.3 138.029C159.365 138.026 159.43 138.023 159.492 138.02C159.743 138.006 159.956 137.996 160.121 137.993C160.19 137.99 160.252 137.986 160.303 137.986C160.43 137.98 160.502 137.98 160.502 137.98C160.76 138.01 161.049 138.039 161.365 138.072C161.423 138.079 161.485 138.086 161.547 138.092C161.801 138.119 162.073 138.145 162.361 138.175C162.482 138.188 162.605 138.198 162.732 138.211C162.754 138.215 162.776 138.218 162.798 138.218C162.873 138.225 162.949 138.235 163.024 138.241C163.1 138.248 163.176 138.258 163.255 138.264C163.316 138.271 163.382 138.278 163.447 138.284C163.54 138.291 163.633 138.301 163.725 138.311C163.787 135.724 165.873 133.517 167.635 132.115C167.91 131.893 168.178 131.691 168.429 131.516C168.646 131.357 168.852 131.218 169.037 131.096C169.649 130.689 170.061 130.47 170.061 130.47H170.071C175.297 129.445 179.857 133.081 179.857 133.081C179.323 133.397 178.811 133.748 178.324 134.129C178.037 134.351 177.763 134.589 177.503 134.84C176.686 135.589 176.051 136.503 175.644 137.517C175.61 137.603 175.583 137.689 175.555 137.771C175.456 138.076 175.388 138.39 175.352 138.708C175.342 138.778 175.336 138.848 175.335 138.919C175.332 138.935 175.331 138.95 175.332 138.966C175.324 139.108 175.329 139.251 175.346 139.392C175.356 139.392 175.37 139.396 175.38 139.396C175.555 139.412 175.723 139.425 175.892 139.442C176.101 139.462 176.304 139.482 176.503 139.498C176.613 139.508 176.723 139.518 176.83 139.528H176.833C176.943 139.538 177.05 139.548 177.156 139.558C177.263 139.564 177.366 139.574 177.465 139.584C177.586 139.594 177.699 139.604 177.813 139.614C177.967 139.627 178.115 139.64 178.256 139.654C178.4 139.667 178.537 139.68 178.668 139.69C178.795 139.703 178.915 139.713 179.029 139.723C179.201 139.736 179.359 139.753 179.503 139.766C179.534 139.769 179.568 139.773 179.599 139.776C179.62 139.776 179.64 139.779 179.661 139.779C180.015 139.809 180.269 139.832 180.393 139.842C180.424 139.846 180.444 139.849 180.462 139.849C180.469 139.851 180.478 139.852 180.486 139.852C182.289 139.951 182.537 139.376 182.537 139.376C183.921 139.29 184.258 138.741 184.258 138.741C185.409 138.456 185.382 137.907 185.382 137.907C185.679 137.836 185.954 137.698 186.185 137.505C186.416 137.312 186.597 137.069 186.711 136.795L187 136.614ZM149.978 127.206C149.767 127.287 149.54 127.324 149.313 127.314C149.086 127.304 148.863 127.247 148.661 127.147C148.45 127.035 148.284 126.858 148.191 126.643C148.104 126.439 148.085 126.215 148.135 126C148.193 126.191 148.279 126.374 148.388 126.543C148.493 126.694 148.634 126.819 148.8 126.907C149.172 127.072 149.57 127.174 149.978 127.206Z" fill="#020202"/>
</svg>
