<svg width="138" height="191" viewBox="0 0 138 191" fill="none" xmlns="http://www.w3.org/2000/svg">
<path d="M92.9664 73.9318C87.2118 85.6578 79.775 93.8382 70.6602 90.1513H73.1271L71.1001 79.7925C71.5309 76.8849 72.0841 73.631 72.7825 69.8986C74.2401 70.7766 75.7765 71.515 77.3715 72.1043C80.6309 73.4198 84.0919 74.1598 87.6019 74.2918C89.398 74.3906 91.1994 74.2697 92.9664 73.9318ZM123.566 101.494C125.475 110.313 127.321 117.172 129.262 121.023C128.467 121.936 127.627 122.809 126.745 123.639C125.888 124.455 124.951 125.182 123.947 125.808C122.967 126.432 121.882 126.87 120.746 127.102C120.171 127.205 119.588 127.246 119.004 127.225C118.416 127.192 117.832 127.108 117.259 126.974C116.306 123.297 116.016 122.536 115.812 118.083C115.617 113.95 116.347 100.77 116.347 100.77C115.463 73.7449 106.466 64.8855 106.466 64.8855C114.338 60.6745 115.476 54.6953 115.476 54.6953C115.476 54.6953 120.705 88.2874 123.566 101.494Z" fill="#020202"/>
<path d="M129.261 121.021C128.745 122.15 128.069 123.198 127.252 124.13C126.437 125.089 125.481 125.917 124.418 126.586C123.873 126.915 123.299 127.191 122.703 127.411C122.1 127.623 121.472 127.756 120.835 127.807C120.201 127.854 119.564 127.807 118.944 127.666C118.353 127.525 117.787 127.298 117.262 126.992C117.552 128.117 117.906 129.516 118.336 131.376C125.039 136.011 133.841 124.367 134.067 124.061C132.353 125.205 130.775 124.029 129.261 121.021ZM119.815 130.66C119.639 130.654 119.472 130.579 119.349 130.452C119.227 130.324 119.158 130.154 119.158 129.977C119.158 129.799 119.227 129.629 119.349 129.502C119.472 129.374 119.639 129.299 119.815 129.293C119.991 129.299 120.158 129.374 120.28 129.502C120.403 129.629 120.471 129.799 120.471 129.977C120.471 130.154 120.403 130.324 120.28 130.452C120.158 130.579 119.991 130.654 119.815 130.66ZM122.971 130.441C122.795 130.435 122.628 130.36 122.505 130.233C122.383 130.105 122.315 129.935 122.315 129.758C122.315 129.581 122.383 129.41 122.505 129.283C122.628 129.155 122.795 129.081 122.971 129.074C123.147 129.081 123.314 129.155 123.436 129.283C123.559 129.41 123.627 129.581 123.627 129.758C123.627 129.935 123.559 130.105 123.436 130.233C123.314 130.36 123.147 130.435 122.971 130.441ZM126.454 128.801C126.277 128.795 126.11 128.72 125.988 128.592C125.866 128.465 125.797 128.294 125.797 128.117C125.797 127.94 125.866 127.77 125.988 127.642C126.11 127.515 126.277 127.44 126.454 127.434C126.63 127.44 126.797 127.515 126.919 127.642C127.041 127.77 127.11 127.94 127.11 128.117C127.11 128.294 127.041 128.465 126.919 128.592C126.797 128.72 126.63 128.795 126.454 128.801ZM129.066 126.285C128.889 126.279 128.722 126.204 128.6 126.077C128.478 125.949 128.409 125.779 128.409 125.602C128.409 125.424 128.478 125.254 128.6 125.127C128.722 124.999 128.889 124.924 129.066 124.918C129.242 124.924 129.409 124.999 129.531 125.127C129.654 125.254 129.722 125.424 129.722 125.602C129.722 125.779 129.654 125.949 129.531 126.077C129.409 126.204 129.242 126.279 129.066 126.285Z" fill="#020202"/>
<path d="M117.26 126.992C117.246 126.983 117.228 126.974 117.215 126.965C117.228 126.969 117.242 126.969 117.255 126.974C117.258 126.979 117.26 126.986 117.26 126.992Z" fill="white"/>
<path d="M82.9418 1.98222C82.3113 2.41993 81.8128 3.02357 81.501 3.72703C81.3495 4.07353 81.2288 4.43276 81.1401 4.80057L81.0296 5.37004C80.9942 5.57467 80.9434 5.77631 80.8778 5.97325C80.6323 6.78033 80.1941 7.51482 79.6015 8.11272C79.296 8.42862 78.9354 8.68543 78.5376 8.87035C78.3152 8.96847 78.0772 9.02582 77.8347 9.0397C77.5529 9.05561 77.2733 8.98101 77.0364 8.82669C76.9656 8.78227 76.9138 8.71303 76.8909 8.6324L76.8898 8.62846C76.8397 8.4528 76.8164 8.27049 76.8208 8.0878C76.8224 7.92374 76.8397 7.76021 76.8723 7.59946C76.9372 7.28933 77.049 6.99105 77.204 6.71504C77.3538 6.44976 77.5304 6.20073 77.7311 5.97192C77.9275 5.75085 78.14 5.54489 78.367 5.35574L78.2936 5.43855C78.614 4.94291 78.8616 4.40346 79.0288 3.83682C79.072 3.68652 79.0905 3.57251 79.1343 3.38982C79.1752 3.21394 79.2339 3.04271 79.3094 2.87876C79.4517 2.57079 79.6272 2.27945 79.8328 2.01C80.2301 1.4686 80.7418 1.02248 81.3313 0.703796C81.6287 0.535345 81.9589 0.433767 82.2992 0.406082C82.6395 0.378397 82.9817 0.425263 83.3021 0.54344L83.2177 0.536973C84.6334 0.278107 86.0645 0.112434 87.5017 0.0410049C88.9511 -0.0582933 90.4071 0.0229249 91.8366 0.282811C92.5674 0.421148 93.2772 0.654714 93.9479 0.977592C94.643 1.30409 95.2668 1.76593 95.7832 2.33637C95.9033 2.48919 96.0344 2.63463 96.1442 2.7957C96.2464 2.95944 96.3646 3.12396 96.4519 3.28905C96.627 3.61855 96.8032 3.94828 96.9459 4.29137C97.2448 4.96893 97.4904 5.66899 97.6804 6.38511C98.3658 9.22236 98.5769 12.1544 98.3049 15.0612C98.2847 16.4652 98.4669 17.8647 98.8458 19.2162C99.0456 19.8922 99.2966 20.5518 99.5968 21.1892C99.7383 21.5004 99.9428 21.7785 100.197 22.0057C100.471 22.222 100.782 22.3846 101.115 22.4851C101.121 22.4869 101.126 22.4898 101.131 22.4937C101.135 22.4975 101.139 22.5022 101.142 22.5076C101.144 22.5129 101.146 22.5187 101.147 22.5247C101.147 22.5306 101.146 22.5366 101.145 22.5424C101.141 22.553 101.134 22.5619 101.124 22.5677C101.115 22.5734 101.104 22.5754 101.093 22.5734C100.727 22.5169 100.376 22.3851 100.063 22.1864C99.755 21.9667 99.4958 21.685 99.302 21.3593C98.9211 20.7335 98.6008 20.0725 98.3454 19.3853C97.8276 18.0039 97.5455 16.5445 97.5111 15.0687C97.4918 14.3196 97.5234 13.6195 97.4998 12.9102C97.4862 12.2018 97.465 11.4936 97.4058 10.7894C97.3075 9.38619 97.0944 7.99346 96.7687 6.62534C96.6087 5.94807 96.3959 5.2845 96.1324 4.64077C96.0082 4.31664 95.8534 4.00947 95.7006 3.70064C95.5474 3.40988 95.3657 3.13516 95.1584 2.88055C94.233 1.87591 93.0257 1.17755 91.6965 0.878001C88.931 0.221789 86.0534 0.205123 83.2806 0.829258C83.2542 0.834667 83.2268 0.833042 83.2012 0.824548L83.1959 0.822766C82.9182 0.732042 82.6237 0.705988 82.3345 0.746582C82.0453 0.787175 81.7691 0.893352 81.5268 1.05707C80.7804 1.55626 80.2061 2.27543 79.8828 3.1158C79.8348 3.24387 79.7999 3.37648 79.7784 3.51161C79.7559 3.63902 79.7352 3.84036 79.7008 3.99787C79.5615 4.66403 79.3088 5.30102 78.9538 5.88079C78.9413 5.90179 78.926 5.92095 78.9083 5.93772L78.8804 5.96374C78.6909 6.13471 78.5106 6.31564 78.3402 6.50578C78.179 6.69271 78.0372 6.89575 77.9171 7.11172C77.8004 7.31645 77.7132 7.5368 77.6581 7.76618C77.6336 7.87554 77.6195 7.98699 77.6159 8.09904C77.6126 8.19264 77.6195 8.28633 77.6367 8.37838L77.4903 8.18029C77.609 8.23557 77.7387 8.26289 77.8695 8.26017C78.0003 8.25745 78.1287 8.22476 78.245 8.1646C78.5656 8.02889 78.8588 7.83554 79.1104 7.59404C79.6487 7.0906 80.065 6.46986 80.3273 5.7795C80.4684 5.43551 80.5436 5.07575 80.6654 4.66902C80.7904 4.278 80.9577 3.90195 81.1643 3.5476C81.5675 2.83627 82.1732 2.26237 82.9034 1.89962C82.9138 1.89496 82.9255 1.89438 82.9362 1.89799C82.947 1.9016 82.956 1.90915 82.9614 1.91912C82.9669 1.92909 82.9684 1.94077 82.9658 1.95183C82.9631 1.96289 82.9563 1.97253 82.9469 1.97883L82.9418 1.98222Z" fill="#020202"/>
<path d="M79.3758 7.83664C79.2976 9.1286 79.3368 10.425 79.4927 11.7099C79.5696 12.34 79.6917 12.9637 79.8581 13.5761C79.923 13.8851 80.0395 14.1763 80.1308 14.475C80.2425 14.7652 80.361 15.0531 80.4935 15.3312C80.7575 15.8865 81.0891 16.4066 81.4807 16.8797C81.8583 17.3606 82.296 17.7906 82.7831 18.1591C83.2589 18.5193 83.7947 18.7918 84.3653 18.9639C84.6481 19.047 84.9396 19.0967 85.2339 19.1122C85.517 19.1352 85.8019 19.1179 86.0803 19.061L86.1318 19.0497C86.174 19.0404 86.2175 19.0395 86.26 19.0471C86.3025 19.0548 86.343 19.0708 86.3794 19.0941C86.4157 19.1175 86.4471 19.1479 86.4718 19.1835C86.4964 19.2191 86.5139 19.2592 86.5231 19.3015C86.5283 19.3261 86.5309 19.3512 86.5307 19.3763C86.5213 20.1958 86.4578 21.0137 86.3407 21.8247C86.2826 22.2342 86.1902 22.6379 86.0644 23.0317C86.0007 23.2349 85.9042 23.4263 85.7788 23.5982C85.7085 23.6879 85.608 23.7488 85.4962 23.7693C85.3892 23.7691 85.2864 23.7274 85.2091 23.653C85.2911 23.7046 85.3895 23.7233 85.4846 23.7053C85.5668 23.6693 85.6335 23.6049 85.6725 23.5238C85.7537 23.3492 85.8077 23.1631 85.8328 22.9721C85.8877 22.5798 85.916 22.1842 85.9174 21.7881C85.932 20.9931 85.8935 20.1878 85.8464 19.3985L86.2968 19.7138C85.6033 19.922 84.8666 19.9371 84.1652 19.7574C83.4792 19.5971 82.8329 19.2978 82.2658 18.8779C81.704 18.4776 81.2041 17.9959 80.7826 17.4485C80.6789 17.3129 80.5695 17.1829 80.4711 17.0424L80.1926 16.6051C80.0109 16.3131 79.8495 16.0089 79.7096 15.6945C79.1925 14.445 78.916 13.1082 78.8949 11.755C78.8616 10.4322 79.0237 9.1117 79.3758 7.83664ZM105.754 23.5995C106.652 23.814 107.537 24.0772 108.421 24.3435C109.303 24.6211 110.181 24.8997 111.051 25.2311L111.022 25.223C112.097 25.4724 113.089 25.9984 113.901 26.7496C114.71 27.4915 115.393 28.3609 115.923 29.3235C116.941 31.2568 117.6 33.3603 117.868 35.531C118.151 37.6789 118.236 39.8484 118.122 42.0119C118.018 44.166 117.794 46.3126 117.453 48.4417L117.452 48.4447C117.435 48.5501 117.382 48.6459 117.301 48.715C117.22 48.784 117.117 48.8217 117.011 48.8213L111.449 48.7949L105.887 48.7323L105.877 48.7322C105.789 48.7309 105.704 48.6963 105.64 48.6353C105.576 48.5744 105.536 48.4914 105.53 48.4028C105.372 46.0836 105.274 43.7644 105.236 41.445C105.223 40.2843 105.234 39.1234 105.27 37.9622C105.287 36.8006 105.387 35.6419 105.57 34.4949C105.488 35.649 105.47 36.8068 105.515 37.9629C105.549 39.1187 105.607 40.2736 105.689 41.4274C105.833 43.7348 106.026 46.0428 106.245 48.3409L105.887 48.0115L111.449 47.949L117.011 47.9225L116.569 48.302C116.877 46.1981 117.135 44.0872 117.243 41.9692C117.37 39.8571 117.32 37.738 117.092 35.6345C116.964 34.5901 116.77 33.555 116.512 32.5354C116.246 31.5223 115.876 30.5395 115.409 29.6028C114.944 28.6685 114.333 27.8155 113.598 27.0764C112.878 26.3257 111.977 25.7738 110.983 25.4736L110.961 25.4678L110.954 25.4655C110.113 25.1064 109.243 24.792 108.376 24.4812C107.508 24.1708 106.639 23.8605 105.754 23.5995ZM83.5304 1.62362C84.0222 1.73035 84.4842 1.94597 84.8827 2.25477C85.2812 2.56357 85.6061 2.95779 85.8339 3.40872C86.0736 3.85098 86.2568 4.3219 86.3792 4.8103C86.5019 5.25635 86.6558 5.69312 86.8398 6.11735C87.1971 6.95286 87.7136 7.71011 88.36 8.34646C88.6387 8.66513 88.9836 8.91846 89.3703 9.08858C89.7571 9.2587 90.1762 9.34146 90.5983 9.33102L90.4008 9.44481C90.7245 9.09564 91.0849 8.78281 91.4757 8.51181C91.8745 8.19686 92.3686 8.02857 92.8758 8.03493C93.0108 8.05335 93.1408 8.09843 93.2584 8.16757C93.376 8.23672 93.4788 8.32856 93.5609 8.4378C93.7042 8.63858 93.8116 8.86297 93.8781 9.10085C93.999 9.55066 94.0655 10.0135 94.076 10.4793C94.1764 11.4229 93.9938 12.3752 93.5517 13.2137C93.2846 13.6522 92.892 13.9996 92.4254 14.2104C91.9587 14.4213 91.4396 14.4857 90.936 14.3953L91.3429 14.1783C91.1387 14.9991 90.9509 15.838 90.7969 16.6747C90.6313 17.5103 90.4958 18.3504 90.4033 19.1901C90.3096 20.0189 90.2759 20.8534 90.3023 21.6871C90.2861 22.4468 90.4897 23.1948 90.8884 23.8404L90.4281 23.6968C91.1685 23.5257 91.89 23.4217 92.6229 23.3193C93.3545 23.2281 94.0868 23.151 94.8213 23.1109C96.2871 23.0184 97.7575 23.032 99.2213 23.1517C99.2333 23.1528 99.2444 23.1586 99.2522 23.1679C99.2599 23.1772 99.2637 23.1892 99.2627 23.2012C99.2616 23.2119 99.2569 23.2219 99.2494 23.2294C99.2418 23.237 99.2319 23.2418 99.2213 23.2428C98.4933 23.3183 97.7681 23.3724 97.0466 23.4686C96.3241 23.5422 95.6051 23.6438 94.8895 23.7557C94.1738 23.8668 93.4609 23.9882 92.7526 24.1275C92.0466 24.2597 91.333 24.4218 90.6558 24.5936L90.6534 24.5942C90.5712 24.615 90.4849 24.6125 90.4041 24.587C90.3232 24.5616 90.2509 24.5141 90.1952 24.4499C89.874 24.0595 89.6461 23.6003 89.529 23.1075C89.4137 22.6585 89.3487 22.1979 89.3351 21.7343C89.3048 20.8445 89.3601 19.9538 89.5001 19.0746C89.7555 17.3457 90.1639 15.6431 90.7203 13.9871L90.7263 13.9691C90.7528 13.8895 90.8098 13.8236 90.8846 13.7861C90.9594 13.7487 91.046 13.7426 91.1253 13.7693L91.1274 13.77C91.5006 13.8655 91.8938 13.845 92.2552 13.7111C92.6384 13.5674 92.9716 13.3145 93.214 12.9833C93.6837 12.2434 93.8898 11.3653 93.7987 10.4925C93.7937 10.0509 93.7263 9.61235 93.5984 9.18988C93.4682 8.78477 93.2032 8.41227 92.8436 8.41103C92.4439 8.4614 92.0716 8.64203 91.7838 8.92526C91.4578 9.20538 91.1618 9.51895 90.9007 9.86088C90.8576 9.91713 90.7958 9.95587 90.7265 9.96998L90.703 9.97475C90.1633 10.0857 89.6028 10.0296 89.0954 9.81394C88.6106 9.60662 88.1697 9.30812 87.7963 8.93449C87.0723 8.21985 86.5139 7.3536 86.1609 6.39741C85.9829 5.93125 85.8461 5.45025 85.7521 4.95996C85.6742 4.50722 85.5472 4.06439 85.3736 3.63935C85.1948 3.21956 84.9497 2.83157 84.6477 2.49039C84.3333 2.14823 83.9456 1.88247 83.5139 1.71327L83.5076 1.71094C83.4971 1.70704 83.4884 1.69935 83.4832 1.68937C83.478 1.67938 83.4767 1.66781 83.4796 1.65691C83.4824 1.64601 83.4892 1.63656 83.4986 1.63041C83.5079 1.62426 83.5193 1.62184 83.5304 1.62362Z" fill="#020202"/>
<path d="M105.601 31.337C105.702 30.6134 105.893 29.9053 106.168 29.2289C106.434 28.5408 106.79 27.8915 107.228 27.2985C107.664 26.69 108.222 26.179 108.864 25.7978C109.514 25.4348 110.258 25.2773 110.998 25.3462C110.302 25.4506 109.637 25.708 109.051 26.1C108.488 26.5079 107.995 27.0047 107.591 27.5712C107.17 28.1383 106.802 28.7422 106.489 29.3757C106.171 30.0117 105.867 30.6619 105.601 31.337ZM90.5376 24.1431C90.6854 24.8973 90.6845 25.6733 90.535 26.4272C90.4083 27.1823 90.1563 27.9107 89.7894 28.5819C89.8439 27.8314 89.944 27.085 90.0889 26.3467C90.2266 25.6151 90.3505 24.8919 90.5376 24.1431ZM69.8594 41.3698C69.9371 40.5792 70.0648 39.7938 70.2172 39.0135C70.3683 38.2328 70.536 37.4538 70.7359 36.6822C71.1351 35.1334 71.6501 33.617 72.2765 32.1461C72.5908 31.4059 72.9449 30.6834 73.3375 29.9818C73.7231 29.2701 74.1595 28.5873 74.6433 27.9388C75.6 26.5966 76.8238 25.4689 78.237 24.6271L78.1982 24.6519C78.3497 24.5538 78.5088 24.4683 78.6741 24.3963C78.8248 24.3268 78.9759 24.2687 79.1269 24.2102C79.4297 24.1021 79.7335 24.0052 80.0392 23.9269C80.6451 23.7671 81.2612 23.6496 81.8832 23.5753C82.5001 23.4918 83.1178 23.4465 83.7347 23.4103C84.3517 23.3794 84.9682 23.3769 85.5836 23.3844L85.5947 23.3845C85.6409 23.3851 85.6864 23.3948 85.7289 23.413C85.7713 23.4313 85.8097 23.4578 85.842 23.491C85.8742 23.5241 85.8996 23.5634 85.9168 23.6065C85.9339 23.6495 85.9424 23.6955 85.9419 23.7419L85.9408 23.7655C85.8258 25.2287 85.748 26.7093 85.7119 28.1851C85.6575 29.6636 85.6851 31.1412 85.7762 32.6242C85.5055 31.16 85.3342 29.6789 85.2635 28.1912C85.1938 26.7019 85.1752 25.2159 85.2306 23.7186L85.5878 24.0996C84.9851 24.1224 84.3843 24.1555 83.7853 24.1989C83.1877 24.2517 82.5913 24.3131 82.0034 24.4105C81.4184 24.5017 80.8387 24.6242 80.2666 24.7774C79.9829 24.8528 79.7067 24.9446 79.4366 25.0436C79.3041 25.0967 79.1712 25.1491 79.0457 25.2086C78.9321 25.2598 78.8221 25.3185 78.7162 25.3842C78.7046 25.3922 78.6891 25.402 78.6772 25.4092C77.377 26.201 76.2433 27.2405 75.34 28.4694C74.4068 29.7106 73.605 31.0463 72.9478 32.4548C72.2732 33.8723 71.6843 35.3294 71.1841 36.8181C70.6673 38.3122 70.2251 39.8313 69.8594 41.3698Z" fill="#020202"/>
<path d="M63.985 20.5888C64.4622 20.902 64.8733 21.3068 65.1946 21.78C65.5112 22.2596 65.7642 22.7786 65.9474 23.324C66.1321 23.8687 66.2697 24.4284 66.3586 24.9968C66.452 25.5682 66.4995 26.1463 66.5007 26.7253L66.495 26.6611L70.2037 41.0325C70.5141 42.2288 70.8325 43.422 71.159 44.6122L71.4046 45.504L71.5384 45.8966C71.5975 46.0269 71.65 46.1582 71.7131 46.2883C71.9814 46.8188 72.2917 47.3267 72.641 47.8072C73.3473 48.7922 74.1248 49.7236 74.9672 50.5938L77.6075 53.1836L76.95 53.2849L79.866 47.8952L80.0903 48.4707L74.8541 46.655L74.8312 46.6471C74.7934 46.6338 74.7589 46.6124 74.7302 46.5844C74.2606 46.1084 73.901 45.5344 73.6767 44.9031C73.4539 44.3008 73.3238 43.6679 73.2911 43.0262C73.247 41.7704 73.4543 40.5186 73.9008 39.3449C74.1077 38.7578 74.3626 38.2068 74.5993 37.6506L75.301 35.9735C75.5296 35.4124 75.7531 34.8491 75.9651 34.2816C76.194 33.7207 76.3821 33.1438 76.528 32.5555C76.2966 33.7505 75.9699 34.925 75.5511 36.0674C75.1757 37.2172 74.7287 38.3717 74.3614 39.499C73.9951 40.6198 73.8494 41.8015 73.9324 42.9783C73.98 43.5502 74.1141 44.1115 74.3303 44.6427C74.531 45.1525 74.8354 45.6147 75.224 45.9997L75.1002 45.9291L80.3501 47.7045C80.4052 47.7232 80.4557 47.7538 80.4979 47.794C80.5402 47.8343 80.5732 47.8833 80.5948 47.9376C80.6164 47.992 80.6259 48.0504 80.6228 48.1088C80.6197 48.1672 80.604 48.2243 80.5768 48.276L80.5745 48.2802L77.6838 53.6835C77.6579 53.7319 77.6228 53.7747 77.5804 53.8095C77.5381 53.8443 77.4893 53.8703 77.437 53.8861C77.3846 53.9019 77.3297 53.9072 77.2753 53.9017C77.2209 53.8962 77.1681 53.8799 77.1199 53.8539C77.0858 53.8351 77.0544 53.8119 77.0263 53.7848L74.366 51.1997C73.4762 50.3084 72.6586 49.3473 71.9209 48.3255C71.5401 47.8082 71.2016 47.2608 70.9084 46.6888C70.8355 46.5414 70.7711 46.3861 70.7026 46.2348C70.6422 46.0773 70.5873 45.9095 70.5344 45.7504L70.2877 44.8526C69.9649 43.6542 69.6531 42.4543 69.3522 41.2529C68.7412 38.8515 68.1837 36.4383 67.6254 34.0259C67.0784 31.6106 66.552 29.1908 66.0461 26.7665L66.0445 26.7588C66.0407 26.7402 66.0393 26.7212 66.0403 26.7022C66.07 26.1489 66.0581 25.5941 66.0046 25.0426C65.9533 24.4872 65.8543 23.9373 65.7088 23.3989C65.4513 22.2997 64.8466 21.3138 63.985 20.5888ZM59.4141 19.0575C59.6569 18.7985 59.9608 18.6052 60.2977 18.4955C60.6346 18.3859 60.9935 18.3634 61.3414 18.4301C61.6912 18.496 62.0224 18.6384 62.3114 18.8472C62.4516 18.949 62.5823 19.0635 62.7019 19.1891C62.8133 19.3197 62.9148 19.4585 63.0055 19.6044C62.8462 19.5319 62.7082 19.4431 62.565 19.3656C62.4156 19.2987 62.2815 19.2119 62.1347 19.1553C61.8564 19.0279 61.5637 18.935 61.2631 18.8787C60.9642 18.8245 60.659 18.8141 60.3571 18.848C60.0363 18.8841 59.7202 18.9543 59.4141 19.0575ZM63.0055 22.7763C63.1145 23.0762 63.124 23.4035 63.0324 23.7093C62.9365 24.0375 62.7274 24.3207 62.4425 24.508C62.1573 24.6742 61.832 24.758 61.5024 24.7504C61.3475 24.7405 61.1935 24.7196 61.0414 24.6881C60.8946 24.6439 60.7509 24.5899 60.6112 24.5263C60.7579 24.4974 60.9061 24.4768 61.055 24.4647L61.4729 24.3961C61.7279 24.3446 61.9731 24.2527 62.1993 24.1237C62.6315 23.7965 62.9205 23.3134 63.0055 22.7763ZM61.2098 27.4518C61.5785 27.4674 61.9457 27.5091 62.3087 27.5766L62.8386 27.6745C63.0096 27.7071 63.193 27.7367 63.332 27.7483L63.3606 27.7507C63.3868 27.7529 63.4122 27.7608 63.4352 27.7738C63.7088 27.9262 63.9544 28.1245 64.1614 28.3603C64.2686 28.4791 64.356 28.6146 64.4202 28.7616C64.4902 28.9069 64.5094 29.0718 64.4748 29.2295C64.3646 28.9694 64.1762 28.7506 63.9359 28.6037C63.7098 28.4438 63.4736 28.2988 63.2289 28.1695L63.3319 28.195C63.1334 28.1885 62.9363 28.1584 62.7448 28.1054C62.5626 28.0622 62.3872 28.0004 62.2122 27.9411C61.8608 27.8165 61.5245 27.6523 61.2098 27.4518Z" fill="#020202"/>
<path d="M70.6572 90.2196C65.9109 90.3389 61.1646 90.4009 56.4183 90.484L42.1794 90.6437L27.9404 90.7198C23.1941 90.7319 18.4478 90.7878 13.7015 90.7515L13.6947 90.7515C13.5545 90.7504 13.4192 90.6995 13.3127 90.608C13.2062 90.5164 13.1352 90.3899 13.1124 90.2509L11.4889 80.3463L9.94162 70.4288L8.399 60.5104L7.62601 55.5516L6.81956 50.5984L5.19799 40.6934L3.5034 30.8008C2.36879 24.2066 1.18098 17.6214 0.00657368 11.0339C-0.01304 10.9238 0.0116421 10.8105 0.0751906 10.7187C0.138739 10.627 0.235946 10.5644 0.345433 10.5447C0.365677 10.541 0.386161 10.5389 0.406714 10.5382L0.417403 10.538L14.6725 10.1853L28.9283 9.88265L43.1844 9.60405L57.4411 9.35753C57.6115 9.35463 57.7776 9.41212 57.9101 9.51993C58.0425 9.62774 58.133 9.77899 58.1657 9.94714L61.5312 27.3822L64.8133 44.8338C65.9199 50.6485 66.9647 56.4755 68.0371 62.2969C69.1163 68.1171 70.1192 73.9523 71.1639 79.7792C71.1671 79.7969 71.1632 79.8151 71.1531 79.8299C71.1431 79.8447 71.1276 79.855 71.1101 79.8584C71.0926 79.8619 71.0744 79.8583 71.0595 79.8484C71.0446 79.8385 71.0342 79.8232 71.0304 79.8056C69.801 74.0152 68.5298 68.233 67.3347 62.4358C66.133 56.6399 64.9036 50.8494 63.7362 45.0468L60.1957 27.6463L56.7388 10.2292L57.4633 10.8188L43.2058 11.0097L28.9478 11.1686L14.6894 11.3035L0.430323 11.3883L0.841081 10.8925C1.87961 17.503 2.90474 24.1158 3.98306 30.7195L5.60787 40.6239L7.30569 50.516L8.15896 55.4613L9.04568 60.4009L10.8224 70.2796L12.5946 80.159L14.2905 90.0514L13.7015 89.5509C18.4478 89.5146 23.1941 89.5705 27.9404 89.5826L42.1794 89.6588L56.4183 89.8185C61.1646 89.9016 65.9109 89.9635 70.6572 90.0828C70.675 90.0833 70.6918 90.0907 70.7042 90.1035C70.7166 90.1162 70.7235 90.1334 70.7235 90.1512C70.7235 90.169 70.7166 90.1861 70.7042 90.1989C70.6918 90.2117 70.6749 90.2191 70.6572 90.2196Z" fill="#020202"/>
<path d="M4.91406 15.8001L29.788 15.1651L42.3218 14.854L54.8941 14.5763C54.9998 14.5739 55.103 14.609 55.1856 14.6753C55.2682 14.7416 55.325 14.8349 55.3461 14.939L55.3472 14.945L58.8882 32.4682L62.3646 50.0043L69.3037 85.0791C69.321 85.1668 69.321 85.257 69.3037 85.3447C69.2863 85.4324 69.2519 85.5157 69.2025 85.5901C69.1531 85.6644 69.0896 85.7282 69.0156 85.7779C68.9417 85.8275 68.8587 85.8621 68.7714 85.8795C68.7275 85.888 68.6828 85.8924 68.638 85.8926L16.5523 85.7895H16.5472C16.4117 85.7892 16.2807 85.7405 16.1776 85.6521C16.0745 85.5637 16.006 85.4413 15.9844 85.3068L10.3814 50.4099L4.91406 15.8001ZM4.91406 15.8001L11.085 50.6008L17.1202 85.1145L16.5523 84.6319L68.638 84.5289L67.9723 85.3423L61.1746 50.2396L57.7825 32.6868L54.4551 15.1213L54.908 15.4899L42.4869 15.5957L30.0272 15.668L4.91406 15.8001ZM100.396 54.4965C101.216 54.246 102.034 54.0659 102.843 53.8803C103.635 53.7145 104.416 53.5041 105.184 53.2502L104.891 53.63C104.934 53.1877 104.987 52.7464 105.045 52.3057C105.115 51.8662 105.17 51.4251 105.255 50.9872C105.331 50.5483 105.424 50.1111 105.522 49.6746C105.632 49.2392 105.736 48.8032 105.885 48.3719C105.943 48.8247 105.957 49.2729 105.975 49.7215C105.983 50.1691 105.985 50.6161 105.971 51.0613C105.965 51.5075 105.929 51.9505 105.909 52.3952C105.876 52.8386 105.838 53.2814 105.79 53.7232L105.79 53.7323C105.78 53.8155 105.748 53.8944 105.696 53.96C105.645 54.0256 105.576 54.0752 105.497 54.1031C105.081 54.2486 104.652 54.3564 104.217 54.425C103.795 54.4962 103.37 54.5446 102.942 54.5701C102.093 54.6303 101.24 54.6057 100.396 54.4965Z" fill="#020202"/>
<path d="M97.3804 60.1023C97.9279 59.4372 98.5219 58.8123 99.1578 58.2322C99.7803 57.6432 100.418 57.0732 101.07 56.5222C101.716 55.962 102.386 55.4344 103.053 54.9014C103.727 54.378 104.403 53.859 105.098 53.3617L105.125 53.3421C105.174 53.3073 105.232 53.2862 105.291 53.2809C106.059 53.215 106.825 53.1671 107.596 53.1526C107.981 53.1402 108.368 53.1447 108.754 53.1533C109.143 53.1574 109.53 53.195 109.912 53.2656C109.528 53.3032 109.155 53.3877 108.778 53.4567L107.649 53.6705C106.898 53.8146 106.143 53.9449 105.392 54.0707L105.585 53.9899C104.937 54.5446 104.274 55.0802 103.61 55.6138C102.938 56.1377 102.272 56.6692 101.583 57.1723C100.902 57.6836 100.21 58.1818 99.5076 58.667C98.8108 59.1605 98.0887 59.6161 97.3804 60.1023ZM98.8641 69.3459L104.988 65.3953C105.999 64.726 107.014 64.0675 108.009 63.3797L109.501 62.3506C109.981 62.0078 110.442 61.6387 110.881 61.2449C112.65 59.6665 114.016 57.6836 114.863 55.4636C115.716 53.2041 115.997 50.7669 115.681 48.3711C116.359 50.7736 116.307 53.3249 115.531 55.6974C114.758 58.0989 113.36 60.2492 111.483 61.9258C111.012 62.3382 110.519 62.7241 110.006 63.0817C109.499 63.4243 108.997 63.772 108.481 64.098C107.449 64.7509 106.416 65.3985 105.356 65.9998C103.247 67.2207 101.082 68.3416 98.8641 69.3459ZM88.1929 168.098C88.0619 168.355 87.9204 168.605 87.8003 168.864C87.6865 169.124 87.5863 169.39 87.5003 169.661C87.33 170.197 87.2469 170.756 87.2543 171.318C87.2675 171.87 87.3722 172.417 87.5642 172.935C87.7487 173.443 88.0237 173.912 88.3759 174.321L88.3798 174.326C88.3932 174.341 88.4052 174.357 88.4154 174.375C89.1973 175.693 89.7673 177.127 90.1043 178.623C90.2777 179.387 90.3466 180.172 90.3091 180.955C90.2695 181.766 90.0547 182.56 89.6794 183.28C89.2812 183.999 88.7077 184.604 88.0126 185.04C87.3419 185.473 86.5951 185.773 85.8122 185.925C85.04 186.079 84.2473 186.1 83.4681 185.987C83.0897 185.93 82.7147 185.852 82.3448 185.754C81.9907 185.669 81.6333 185.595 81.2734 185.533C78.3734 184.983 75.3808 185.2 72.5893 186.162C72.2489 186.302 71.9037 186.43 71.5677 186.579C71.2376 186.741 70.9003 186.888 70.5764 187.062L69.6123 187.604C69.2849 187.794 68.9482 187.967 68.6033 188.123C67.2193 188.738 65.7456 189.126 64.2389 189.271C62.7298 189.436 61.2053 189.393 59.7078 189.143C58.9485 189.017 58.2026 188.819 57.4798 188.553C56.7044 188.288 56.0043 187.839 55.4391 187.243C55.1189 186.89 54.9217 186.441 54.8773 185.966C54.8654 185.721 54.8992 185.476 54.9769 185.244C55.0435 185.024 55.1421 184.815 55.2695 184.624C55.7506 183.961 56.3654 183.407 57.0737 182.999C58.3903 182.246 59.771 181.612 61.1995 181.106C63.9514 179.997 66.7553 178.987 69.3947 177.735C70.7079 177.154 71.8912 176.313 72.8741 175.263C73.7975 174.133 74.5619 172.881 75.1457 171.541L75.1274 171.602C75.2914 170.75 75.4721 169.902 75.6483 169.052L76.1884 166.506C76.1911 166.493 76.1985 166.482 76.2091 166.475C76.2198 166.467 76.2328 166.464 76.2455 166.467C76.2582 166.469 76.2695 166.476 76.2772 166.486C76.2849 166.497 76.2883 166.509 76.2867 166.522L75.9643 169.106C75.8531 169.966 75.7464 170.828 75.6229 171.686C75.6205 171.703 75.6161 171.719 75.6098 171.735L75.6045 171.747C75.0751 173.177 74.3489 174.525 73.4472 175.753C72.4329 176.92 71.1952 177.87 69.8079 178.547C68.4716 179.257 67.1013 179.857 65.7255 180.431C64.3503 181.003 62.9715 181.56 61.5889 182.101C60.2182 182.589 58.8857 183.178 57.6024 183.866C57.0129 184.188 56.4948 184.627 56.08 185.157C55.9973 185.273 55.9329 185.401 55.889 185.537C55.8435 185.657 55.821 185.785 55.8227 185.913C55.849 186.184 55.9617 186.439 56.1441 186.641C56.6077 187.129 57.1753 187.505 57.8042 187.741C58.4675 188.01 59.1542 188.217 59.8555 188.359C61.2818 188.646 62.7382 188.754 64.191 188.679C65.6507 188.611 67.0895 188.304 68.45 187.768C68.7877 187.631 69.116 187.472 69.4326 187.291L70.4203 186.758C70.7538 186.586 71.1004 186.441 71.4395 186.281C71.7846 186.135 72.1385 186.011 72.4874 185.875C73.9024 185.375 75.371 185.045 76.8629 184.891C78.3593 184.723 79.8698 184.729 81.3647 184.909C81.7394 184.952 82.1129 185.009 82.4851 185.077C82.8373 185.151 83.1933 185.205 83.5515 185.24C84.2494 185.297 84.952 185.248 85.6351 185.093C86.3034 184.962 86.938 184.696 87.5002 184.31C88.0624 183.924 88.5403 183.427 88.9046 182.849C89.564 181.669 89.5746 180.183 89.3192 178.781C89.1826 178.069 88.9907 177.37 88.7453 176.688C88.5075 176 88.2208 175.331 87.8874 174.684L87.9268 174.738C87.5424 174.252 87.2521 173.699 87.071 173.105C86.8835 172.526 86.8073 171.917 86.8463 171.309C86.8861 170.712 87.0217 170.125 87.248 169.571C87.3572 169.298 87.4847 169.032 87.6295 168.775C87.7805 168.524 87.9512 168.286 88.1099 168.042C88.1168 168.032 88.1276 168.024 88.14 168.021C88.1524 168.018 88.1654 168.02 88.1764 168.026C88.1874 168.033 88.1956 168.043 88.1992 168.056C88.2028 168.068 88.2015 168.081 88.1957 168.092L88.1929 168.098ZM104.58 168.698C105.118 170.266 105.198 171.958 104.808 173.571C104.705 173.982 104.553 174.38 104.356 174.756C104.177 175.104 104.014 175.468 103.863 175.833C103.564 176.562 103.317 177.313 103.125 178.078C102.756 179.586 102.647 181.21 103.244 182.553C103.841 183.89 105.21 184.749 106.668 185.093C107.409 185.261 108.172 185.305 108.927 185.225C109.117 185.204 109.306 185.175 109.494 185.14L110.098 185.031C110.502 184.966 110.907 184.913 111.314 184.873C112.936 184.717 114.57 184.756 116.183 184.99C117.791 185.218 119.365 185.651 120.865 186.277C121.231 186.452 121.611 186.602 121.967 186.798C122.322 186.987 122.688 187.194 123.035 187.37C123.735 187.735 124.475 188.017 125.24 188.209C126.003 188.413 126.782 188.547 127.569 188.609C128.354 188.68 129.143 188.693 129.93 188.647C131.491 188.597 133.032 188.284 134.49 187.722C135.167 187.48 135.769 187.063 136.235 186.514C136.321 186.404 136.384 186.278 136.421 186.143C136.458 186.008 136.468 185.867 136.45 185.728C136.382 185.424 136.231 185.145 136.014 184.922C135.495 184.389 134.891 183.948 134.227 183.617C133.884 183.439 133.536 183.265 133.181 183.103C132.817 182.951 132.465 182.794 132.091 182.647C129.105 181.448 126.103 180.299 123.18 178.856C122.444 178.493 121.729 178.088 121.038 177.643C120.343 177.18 119.71 176.628 119.155 176.001C118.13 174.714 117.33 173.262 116.787 171.706L116.783 171.695C116.78 171.687 116.778 171.678 116.776 171.669L116.504 169.439C116.502 169.427 116.506 169.414 116.513 169.403C116.521 169.393 116.532 169.386 116.545 169.384C116.558 169.382 116.571 169.384 116.581 169.392C116.592 169.399 116.6 169.41 116.602 169.423L117.074 171.619L117.063 171.582C117.789 173.014 118.526 174.462 119.616 175.571C120.764 176.641 122.096 177.493 123.547 178.085C124.992 178.746 126.493 179.312 127.988 179.898C129.481 180.487 130.989 181.05 132.481 181.651C133.986 182.27 135.552 182.91 136.783 184.269C137.117 184.639 137.338 185.097 137.423 185.589C137.486 186.12 137.339 186.653 137.013 187.075C136.434 187.763 135.679 188.28 134.829 188.57C134.047 188.865 133.236 189.074 132.41 189.195C129.967 189.583 127.469 189.409 125.103 188.685C124.317 188.448 123.561 188.118 122.851 187.704L121.803 187.113C121.457 186.915 121.088 186.763 120.732 186.585C119.275 185.932 117.725 185.511 116.139 185.336C114.557 185.166 112.959 185.21 111.389 185.467C110.998 185.529 110.609 185.602 110.223 185.687L109.647 185.825C109.442 185.875 109.236 185.92 109.028 185.954C108.187 186.099 107.328 186.09 106.491 185.926C105.641 185.762 104.834 185.424 104.122 184.931C103.385 184.43 102.803 183.731 102.444 182.914C102.108 182.108 101.951 181.238 101.985 180.365C102.017 179.524 102.152 178.689 102.387 177.881C102.616 177.086 102.912 176.312 103.273 175.568C103.451 175.196 103.638 174.832 103.848 174.472C104.044 174.143 104.201 173.791 104.314 173.423C104.552 172.673 104.684 171.893 104.707 171.106C104.72 170.306 104.645 169.507 104.483 168.724C104.481 168.711 104.483 168.698 104.49 168.687C104.496 168.676 104.507 168.668 104.519 168.665C104.531 168.662 104.545 168.663 104.556 168.669C104.567 168.675 104.576 168.685 104.58 168.698Z" fill="#020202"/>
<path d="M103.217 183.399C105.539 187.58 112.26 183.907 116.629 185.226C117.256 185.415 117.377 185.357 117.377 185.357C117.377 185.357 120.156 177.529 123.864 177.772C123.864 177.772 129.966 178.977 130.803 180.781C130.803 180.781 125.944 185.239 126.331 188.732C135.662 189.709 136.958 186.251 136.958 186.251C138.803 189.858 131.625 191.797 126.735 190.309C122.623 189.058 114.623 186.251 114.623 186.251V188.596L111.662 189.858H103.192L104.484 187.033C102.032 185.049 103.217 183.399 103.217 183.399ZM55.3433 186.251C55.3433 186.251 56.639 189.709 65.9699 188.732C66.3575 185.239 61.4984 180.781 61.4984 180.781C62.3358 178.977 68.437 177.772 68.437 177.772C72.1456 177.529 74.9239 185.357 74.9239 185.357C74.9239 185.357 75.0453 185.415 75.6719 185.226C80.0413 183.907 86.7629 187.58 89.0846 183.399C89.0846 183.399 90.2698 185.049 87.8174 187.033L89.109 189.858H80.6395L77.6786 188.596V186.251C77.6786 186.251 69.678 189.058 65.5659 190.309C60.6759 191.797 53.4981 189.858 55.3433 186.251ZM77.9291 25.3462C78.0495 23.9406 78.1267 22.5513 78.1843 21.1618C78.23 19.7726 78.2719 18.3866 78.2522 16.9996C78.2498 16.3064 78.2443 15.6125 78.2173 14.9193L78.19 13.878L78.1426 12.8365C78.0898 11.4448 77.9779 10.0566 77.9291 8.64258C78.3514 9.98969 78.6585 11.3706 78.8473 12.7701C79.0458 14.1697 79.1498 15.5812 79.1586 16.9949C79.165 18.4093 79.0741 19.8224 78.8866 21.2242C78.7165 22.6289 78.3955 24.011 77.9291 25.3462ZM87.3847 18.614C87.701 18.4482 87.9993 18.2496 88.2746 18.0216C88.5475 17.8016 88.8087 17.5672 89.0569 17.3194C89.3151 17.0807 89.5514 16.8168 89.8057 16.5642C90.052 16.3036 90.2983 16.0398 90.5779 15.788C90.4543 16.1399 90.2879 16.4751 90.0824 16.786C89.8763 17.0976 89.638 17.3865 89.3713 17.6476C89.1025 17.9125 88.7981 18.1384 88.467 18.3185C88.1387 18.5118 87.7651 18.6138 87.3847 18.614ZM81.7979 11.9846C81.7624 12.2254 81.711 12.4417 81.6703 12.652C81.6272 12.8425 81.609 13.0378 81.6164 13.2331C81.6169 13.3101 81.6357 13.3859 81.6712 13.4542C81.7068 13.5224 81.758 13.5812 81.8206 13.6256C82.0011 13.7393 82.1944 13.831 82.3965 13.8987C82.166 14.0063 81.9034 14.0223 81.6617 13.9433C81.5914 13.9266 81.5262 13.8931 81.4717 13.8456C81.4081 13.8035 81.3534 13.7493 81.3105 13.6861C81.2253 13.5634 81.1749 13.4197 81.1647 13.2704C81.1536 13.0124 81.2139 12.7564 81.339 12.5308C81.4486 12.316 81.6055 12.1292 81.7979 11.9846ZM81.8903 15.594C82.3739 15.6133 82.8563 15.6578 83.3353 15.7276C83.5512 15.7577 83.7698 15.7642 83.9871 15.7469C84.0937 15.7374 84.1954 15.6974 84.28 15.6315C84.3646 15.5656 84.4286 15.4767 84.4643 15.3752C84.4779 15.4416 84.4864 15.5089 84.4897 15.5766C84.4795 15.6495 84.4599 15.7209 84.4314 15.7888C84.3884 15.8529 84.3397 15.9129 84.2859 15.9682C84.2264 16.0112 84.1601 16.0473 84.0936 16.086C83.8369 16.1843 83.56 16.2168 83.2877 16.1805C83.0328 16.1511 82.7832 16.086 82.5462 15.9871C82.307 15.8942 82.0853 15.7613 81.8903 15.594ZM116.416 100.774C116.349 103.621 116.268 106.467 116.225 109.312C116.193 112.153 116.109 115.011 116.231 117.823C116.468 123.465 118.425 128.843 119.726 134.412C120.408 137.193 120.991 139.988 121.504 142.799C122.016 145.61 122.483 148.432 122.836 151.272C123.186 154.112 123.457 156.967 123.569 159.838C123.713 162.722 123.619 165.613 123.289 168.481L123.286 168.51C123.271 168.621 123.228 168.725 123.159 168.813C123.091 168.901 123 168.969 122.896 169.01C122.359 169.213 121.807 169.373 121.245 169.489C120.706 169.61 120.167 169.701 119.627 169.779C118.548 169.93 117.468 170.023 116.389 170.07C114.239 170.154 112.086 170.098 109.943 169.904C105.687 169.471 101.491 169.038 97.2483 168.763C95.1312 168.623 93.0119 168.521 90.8904 168.455C89.8298 168.426 88.769 168.401 87.7077 168.391C86.6505 168.385 85.5689 168.362 84.5043 168.285C82.3676 168.141 80.2479 167.806 78.1701 167.286C76.0967 166.752 74.0722 166.043 72.1185 165.165C72.0793 165.147 72.0464 165.118 72.0241 165.081C72.0018 165.045 71.9911 165.002 71.9936 164.959L71.9939 164.955C72.3674 158.717 72.4601 152.459 72.4604 146.212C72.4378 139.965 72.3124 133.72 71.9529 127.499L71.8081 125.168C71.7558 124.391 71.6696 123.619 71.602 122.844C71.4833 121.29 71.2628 119.755 71.0652 118.216C70.9857 117.441 70.8104 116.69 70.6785 115.928C70.5354 115.166 70.406 114.413 70.231 113.634C69.9148 112.086 69.6799 110.522 69.5274 108.949C69.2657 105.816 69.1859 102.67 69.2884 99.5276C69.3593 96.3949 69.4992 93.2594 69.8446 90.1466C69.8465 90.129 69.8552 90.1129 69.8688 90.1016C69.8824 90.0903 69.8998 90.0847 69.9174 90.086C69.9349 90.0874 69.9513 90.0955 69.9631 90.1087C69.9748 90.122 69.9809 90.1393 69.9802 90.157C69.8527 93.282 69.8167 96.404 69.9073 99.5262C69.9465 101.086 69.9815 102.652 70.041 104.208C70.106 105.759 70.2325 107.307 70.435 108.844C70.6343 110.38 70.9125 111.904 71.2468 113.413C71.4279 114.157 71.5784 114.942 71.7373 115.715C71.8857 116.49 72.0782 117.262 72.1723 118.043L72.5129 120.382C72.6346 121.161 72.6829 121.945 72.7715 122.727C72.8461 123.509 72.9394 124.291 72.9986 125.074L73.1635 127.423C73.5706 133.69 73.5662 139.965 73.3631 146.225C73.1718 152.487 72.8148 158.735 72.42 164.984L72.2956 164.774C76.1524 166.537 80.3042 167.556 84.5352 167.779C85.5927 167.841 86.6384 167.826 87.7067 167.806C88.7714 167.789 89.8364 167.786 90.9014 167.787C93.0314 167.796 95.1612 167.839 97.2908 167.914C99.4201 167.989 101.549 168.094 103.674 168.241C105.794 168.379 107.937 168.593 110.029 168.742C112.126 168.884 114.229 168.905 116.328 168.805C117.372 168.748 118.411 168.646 119.436 168.491C119.948 168.41 120.457 168.319 120.954 168.2C121.432 168.096 121.902 167.957 122.36 167.783L121.967 168.312C122.255 165.517 122.313 162.704 122.141 159.9C121.999 157.082 121.75 154.267 121.392 151.454C120.686 145.837 119.699 140.238 118.496 134.703C117.884 131.933 117.17 129.188 116.521 126.4C116.202 125.005 115.906 123.595 115.712 122.164C115.521 120.736 115.41 119.297 115.38 117.856C115.359 114.975 115.514 112.139 115.675 109.291C115.854 106.447 116.039 103.605 116.28 100.767C116.281 100.749 116.29 100.732 116.303 100.721C116.316 100.709 116.334 100.703 116.351 100.704C116.369 100.705 116.386 100.713 116.398 100.726C116.41 100.739 116.416 100.756 116.416 100.774Z" fill="#020202"/>
<path d="M60.207 24.1575L68.6371 12.4121" stroke="#020202" stroke-width="2.903" stroke-linecap="round" stroke-linejoin="round"/>
<path d="M99.2171 23.1949C90.4833 23.4 74.9746 46.2914 74.9746 46.2914L74.9474 46.5512L74.4849 50.7211C74.4849 50.7211 74.2348 52.5968 75.2013 57.5115L75.1968 57.548C75.7092 57.3566 76.2171 57.1789 76.7159 57.0102C78.9313 56.3024 81.2484 55.9698 83.5724 56.0258C86.2252 55.9848 86.9388 56.3479 89.3603 56.799C92.2036 57.3322 97.3795 60.1019 97.3795 60.1019C97.9107 59.5896 98.4728 59.1107 99.0625 58.6678C102.925 47.4432 105.778 35.8932 107.588 24.1564C104.287 20.5653 99.2171 23.1949 99.2171 23.1949ZM89.0549 48.0414C88.7551 47.9835 88.4679 47.8723 88.2068 47.7133C87.9453 47.5604 87.7244 47.3462 87.5629 47.0889C88.0682 47.3171 88.5976 47.4868 89.141 47.5948C89.4059 47.647 89.6741 47.6805 89.9437 47.6951C90.2158 47.7224 90.4924 47.7087 90.7962 47.7315C90.277 48.0561 89.6534 48.1671 89.0549 48.0414ZM0.425781 10.9642C0.91773 11.238 1.38072 11.5614 1.80764 11.9292C2.22789 12.2854 2.62651 12.6666 3.00134 13.0707C3.37726 13.4738 3.72835 13.8996 4.05263 14.3458C4.38859 14.7991 4.67723 15.2861 4.91396 15.7989C4.42135 15.526 3.95799 15.2029 3.5312 14.8347C3.11085 14.4786 2.71251 14.0971 2.3384 13.6923C1.96321 13.2885 1.61245 12.8625 1.28801 12.4165C0.952414 11.963 0.663527 11.4764 0.425781 10.9642ZM68.6379 85.2096C69.1314 85.4938 69.5953 85.8271 70.0225 86.2045C70.4432 86.5702 70.8421 86.9607 71.2169 87.3738C71.5928 87.7859 71.9436 88.2205 72.2674 88.6751C72.6028 89.1369 72.8905 89.6319 73.1261 90.1523C72.6319 89.869 72.1677 89.5359 71.7407 89.1582C71.3198 88.7926 70.9212 88.4018 70.5472 87.988C70.172 87.5752 69.8215 87.1405 69.4975 86.686C69.1625 86.224 68.8745 85.7294 68.6379 85.2096ZM54.901 15.0319C54.9533 14.554 55.0617 14.084 55.224 13.6317C55.3773 13.1921 55.5615 12.764 55.7753 12.3506C55.9878 11.9366 56.2298 11.5386 56.4994 11.1598C56.7739 10.7658 57.0945 10.4064 57.4542 10.0892C57.403 10.5674 57.295 11.0377 57.1324 11.49C56.9792 11.9296 56.7946 12.3576 56.58 12.7705C56.3666 13.184 56.1242 13.5818 55.8547 13.9608C55.58 14.3544 55.2599 14.7139 54.901 15.0319ZM81.0033 11.285C81.1992 11.2782 81.3849 11.1952 81.5211 11.0534C81.6573 10.9117 81.7334 10.7224 81.7334 10.5253C81.7334 10.3283 81.6573 10.1389 81.5211 9.99721C81.3849 9.85549 81.1992 9.77245 81.0033 9.76562C80.8073 9.77245 80.6217 9.85549 80.4855 9.99721C80.3492 10.1389 80.2731 10.3283 80.2731 10.5253C80.2731 10.7224 80.3492 10.9117 80.4855 11.0534C80.6217 11.1952 80.8073 11.2782 81.0033 11.285ZM85.1233 11.5485C85.3193 11.5417 85.5049 11.4586 85.6412 11.3169C85.7774 11.1752 85.8535 10.9858 85.8535 10.7888C85.8535 10.5917 85.7774 10.4024 85.6412 10.2606C85.5049 10.1189 85.3193 10.0359 85.1233 10.0291C84.9274 10.0359 84.7417 10.1189 84.6054 10.2606C84.4692 10.4024 84.3931 10.5917 84.3931 10.7888C84.3931 10.9858 84.4692 11.1752 84.6054 11.3169C84.7417 11.4586 84.9274 11.5417 85.1233 11.5485Z" fill="#020202"/>
<path d="M79.3945 8.81417C79.815 8.64277 80.2672 8.56389 80.7206 8.58284C81.1739 8.60179 81.618 8.71813 82.0229 8.92403M84.6059 9.032C85.3291 8.7659 86.1278 8.79928 86.8264 9.12481" stroke="#020202" stroke-width="1.075" stroke-linecap="round" stroke-linejoin="round"/>
<path d="M83.2 8.55861C83.3764 8.55247 83.5434 8.47776 83.666 8.35023C83.7886 8.2227 83.8571 8.05232 83.8571 7.87501C83.8571 7.69769 83.7886 7.52731 83.666 7.39978C83.5434 7.27225 83.3764 7.19754 83.2 7.19141C83.0237 7.19754 82.8566 7.27225 82.7341 7.39978C82.6115 7.52731 82.543 7.69769 82.543 7.87501C82.543 8.05232 82.6115 8.2227 82.7341 8.35023C82.8566 8.47776 83.0237 8.55247 83.2 8.55861Z" fill="#B21919"/>
<path d="M83.3125 2.74954L83.4048 1.28125" stroke="#B21919" stroke-width="1.936" stroke-linecap="round" stroke-linejoin="round"/>
<path d="M97.6492 65.2266C98.066 65.0467 98.4263 64.7564 98.6917 64.3867C98.9571 64.017 99.1176 63.5818 99.156 63.1276C99.1502 62.6749 99.047 62.2288 98.8535 61.82C98.6601 61.4111 98.3809 61.0492 98.0352 60.759C97.6957 60.4606 97.3169 60.2107 96.9096 60.0163C96.5047 59.8017 96.094 59.5946 95.6797 59.3983C94.8513 59.0043 94.0078 58.6486 93.1491 58.3312C89.7305 57.056 86.1126 56.405 82.4661 56.409C80.6477 56.4013 78.8366 56.642 77.0827 57.1246C76.2049 57.3775 75.3449 57.6888 74.5082 58.0563C73.664 58.4 72.8617 58.8397 72.1169 59.3668C71.3828 59.8975 70.7882 60.5999 70.3847 61.4133C70.0023 62.2368 69.7871 63.1288 69.7516 64.0369C69.7038 64.9397 69.8709 65.841 70.2389 66.6659C70.6303 67.4718 71.2094 68.1709 71.9269 68.7039C73.4 69.7755 75.0015 70.6565 76.6936 71.326C78.3746 72.0325 80.1108 72.598 81.8846 73.0168C83.6518 73.4427 85.4541 73.7049 87.2689 73.8002C89.0861 73.887 90.9072 73.8449 92.7185 73.6743C94.5043 73.4896 96.3395 73.1719 97.8269 72.3176C98.1819 72.1091 98.498 71.8398 98.7607 71.522C99.0132 71.2141 99.1925 70.8524 99.2848 70.4644C99.3256 70.297 99.3197 70.1216 99.268 69.9574C99.2163 69.7931 99.1207 69.6463 98.9916 69.5329C98.6785 69.2559 98.3121 69.0464 97.9152 68.9173C97.0575 68.6311 96.1729 68.4338 95.2751 68.3286C94.8229 68.2621 94.3671 68.2461 93.8848 68.1306C93.6261 68.0757 93.3914 67.9398 93.2144 67.7423C93.0498 67.54 92.9504 67.292 92.9294 67.0314C92.9049 66.7806 92.9421 66.5276 93.0377 66.2947C93.1265 66.0521 93.3067 65.8544 93.5393 65.7442C93.9749 65.5626 94.4358 65.45 94.9057 65.4103C95.3702 65.361 95.8316 65.3508 96.2926 65.3394C96.7475 65.3506 97.2023 65.3128 97.6492 65.2266ZM97.6853 65.3102C97.2289 65.4087 96.7629 65.4555 96.296 65.4496C95.8372 65.4581 95.379 65.4897 94.9232 65.5442C94.4745 65.5983 94.0366 65.7209 93.6247 65.9078C93.4999 65.9988 93.3952 66.1148 93.3173 66.2485C93.2394 66.3822 93.1899 66.5307 93.1719 66.6846C93.1539 66.8385 93.1678 66.9945 93.2128 67.1427C93.2578 67.2909 93.3329 67.4281 93.4333 67.5458C93.5772 67.6858 93.7619 67.7758 93.9605 67.8027C94.3818 67.8787 94.8542 67.8724 95.3171 67.9107C96.258 67.9622 97.1915 68.1087 98.1032 68.348C98.5952 68.4756 99.0552 68.7048 99.454 69.0211C99.6789 69.2067 99.8528 69.447 99.9593 69.7191C100.058 69.9971 100.085 70.2955 100.039 70.5868C99.9491 71.1105 99.737 71.6054 99.4201 72.0309C99.1065 72.4384 98.724 72.7874 98.2901 73.0617C97.4588 73.567 96.5525 73.9355 95.6054 74.1531C94.6885 74.3798 93.7572 74.5429 92.8181 74.6413C90.957 74.8265 89.0842 74.8624 87.2175 74.7487C83.4791 74.4798 79.8181 73.5452 76.4052 71.9886C75.554 71.6046 74.7237 71.1757 73.9177 70.7034C73.1007 70.237 72.3281 69.6961 71.6095 69.0876C70.8608 68.4827 70.2679 67.7057 69.8809 66.8221C69.5302 65.9324 69.3774 64.9765 69.433 64.0213C69.4832 63.0728 69.7213 62.1439 70.1335 61.2891C70.5613 60.4391 71.1795 59.7005 71.9394 59.1312C72.6923 58.5743 73.5021 58.0995 74.3549 57.7147C75.1902 57.2994 76.0519 56.9402 76.9345 56.6395C78.7175 56.0537 80.5731 55.7209 82.4476 55.6506C86.2009 55.5243 89.9335 56.2596 93.3616 57.8005C94.2135 58.1782 95.0469 58.5913 95.8618 59.04C96.2693 59.2635 96.6702 59.4964 97.0676 59.7381C97.4814 59.9679 97.862 60.2533 98.1988 60.5866C98.5455 60.9123 98.8207 61.3071 99.0069 61.7459C99.193 62.1846 99.286 62.6575 99.2798 63.1344C99.2332 63.6076 99.0605 64.0595 98.7799 64.4424C98.4993 64.8253 98.1212 65.1251 97.6853 65.3102Z" fill="#020202"/>
<path d="M86.8362 66.308C86.4235 66.6407 85.9021 66.5359 85.0405 66.3628C84.1082 66.2659 83.2404 65.8395 82.5917 65.1596C82.3287 64.8452 81.8979 64.3302 82.0476 63.7377C82.1284 63.4884 82.2793 63.268 82.4821 63.103C82.6849 62.938 82.9308 62.8356 83.1903 62.808C83.6891 62.7625 83.8977 63.0815 84.6051 63.4643C86.029 64.239 86.7682 63.8152 87.1627 64.4487C87.3216 64.751 87.3757 65.0979 87.3166 65.4346C87.2575 65.7713 87.0884 66.0786 86.8362 66.308ZM73.261 64.067C75.0117 64.067 75.0146 61.3326 73.261 61.3326C71.5102 61.3326 71.5073 64.067 73.261 64.067ZM74.4853 68.2506C76.236 68.2506 76.2389 65.5162 74.4853 65.5162C72.7346 65.5162 72.7317 68.2506 74.4853 68.2506ZM79.2196 70.7936C80.9703 70.7936 80.9732 68.0592 79.2196 68.0592C77.4688 68.0592 77.4659 70.7936 79.2196 70.7936ZM84.77 72.2702C86.5207 72.2702 86.5236 69.5358 84.77 69.5358C83.0193 69.5358 83.0164 72.2702 84.77 72.2702ZM90.4837 72.5163C92.2345 72.5163 92.2374 69.7819 90.4837 69.7819C88.733 69.7819 88.7301 72.5163 90.4837 72.5163ZM77.3422 61.0318C79.0929 61.0318 79.0958 58.2974 77.3422 58.2974C75.5915 58.2974 75.5886 61.0318 77.3422 61.0318ZM83.2192 60.3756C84.9699 60.3756 84.9728 57.6412 83.2192 57.6412C81.4684 57.6412 81.4655 60.3756 83.2192 60.3756ZM89.1778 61.2779C90.9285 61.2779 90.9314 58.5435 89.1778 58.5435C87.427 58.5435 87.4241 61.2779 89.1778 61.2779ZM95.6261 64.3131C97.3768 64.3131 97.3797 61.5787 95.6261 61.5787C93.8754 61.5787 93.8725 64.3131 95.6261 64.3131ZM51.6524 189.033C49.3533 173.921 47.2761 158.783 45.1857 143.647L42.152 120.931C41.1385 113.359 40.1966 105.779 39.2153 98.203L37.7573 86.838L36.3499 75.4671L33.5483 52.7238L28.1589 7.21224L33.1267 7.05186L30.6687 52.5722L29.3315 75.3268L28.6567 86.7038L27.9305 98.0782C27.4373 105.661 26.9828 113.245 26.4577 120.826L24.8871 143.568C23.7714 158.727 22.6695 173.885 21.3438 189.033C21.5667 173.829 22.0136 158.636 22.4466 143.443L23.1991 120.658C23.4484 113.063 23.7683 105.471 24.0494 97.8781L24.4848 86.4888L24.9715 75.1022L25.9574 52.3294L28.1456 6.79515L33.1134 6.63477L38.2322 52.1779L40.6846 74.9619L41.9042 86.3547L43.0732 97.7533C43.8433 105.353 44.6527 112.949 45.3906 120.553L47.6109 143.364C49.0233 158.579 50.4488 173.793 51.6524 189.033Z" fill="#020202"/>
<path d="M33.41 4.52344H27.8959C26.8941 4.52344 26.082 5.33957 26.082 6.34633V8.67544C26.082 9.6822 26.8941 10.4983 27.8959 10.4983H33.41C34.4118 10.4983 35.2239 9.6822 35.2239 8.67544V6.34633C35.2239 5.33957 34.4118 4.52344 33.41 4.52344Z" fill="#020202"/>
<path d="M72.6633 158.328C76.8145 159.117 80.9847 159.816 85.1653 160.38C87.2533 160.675 89.3483 160.919 91.4392 161.071C91.962 161.109 92.4847 161.147 93.0044 161.153C93.5257 161.173 94.0458 161.187 94.5558 161.158C94.8093 161.143 95.0746 161.155 95.3178 161.12L96.0474 161.018C96.5947 160.913 97.1492 160.85 97.7061 160.83C98.7838 160.799 99.8625 160.826 100.937 160.912C102.002 160.984 103.061 161.08 104.116 161.182C106.225 161.405 108.322 161.661 110.406 161.952C112.491 162.238 114.575 162.503 116.659 162.67C117.698 162.758 118.741 162.792 119.784 162.774C120.824 162.782 121.857 162.611 122.839 162.268L122.843 162.266C122.859 162.26 122.877 162.261 122.892 162.267C122.908 162.273 122.921 162.285 122.928 162.3C122.936 162.315 122.937 162.333 122.933 162.349C122.928 162.366 122.918 162.38 122.903 162.389C121.956 162.919 120.916 163.261 119.84 163.395C118.777 163.547 117.704 163.626 116.63 163.631C114.5 163.637 112.37 163.53 110.251 163.31C108.138 163.114 106.044 162.809 103.957 162.526C101.898 162.187 99.8188 161.986 97.7335 161.924C97.2337 161.925 96.7348 161.964 96.2411 162.043L95.3974 162.133C95.1163 162.163 94.8506 162.142 94.5767 162.149C94.0299 162.162 93.4946 162.129 92.9605 162.092C92.4237 162.068 91.8938 162.012 91.3642 161.956C89.2457 161.733 87.1483 161.419 85.0614 161.056C80.891 160.308 76.7525 159.43 72.6345 158.462C72.6171 158.458 72.6021 158.447 72.5925 158.432C72.583 158.417 72.5798 158.398 72.5836 158.381C72.5873 158.363 72.5978 158.348 72.6127 158.338C72.6276 158.328 72.6458 158.325 72.6633 158.328ZM74.975 163.831C76.7257 163.831 76.7286 161.097 74.975 161.097C73.2242 161.097 73.2213 163.831 74.975 163.831ZM79.5459 164.815C81.2967 164.815 81.2996 162.081 79.5459 162.081C77.7952 162.081 77.7923 164.815 79.5459 164.815ZM84.6611 165.8C86.4118 165.8 86.4147 163.065 84.6611 163.065C82.9104 163.065 82.9075 165.8 84.6611 165.8ZM90.2116 166.237C91.9623 166.237 91.9652 163.503 90.2116 163.503C88.4608 163.503 88.4579 166.237 90.2116 166.237ZM96.3062 166.018C98.0569 166.018 98.0598 163.284 96.3062 163.284C94.5555 163.284 94.5526 166.018 96.3062 166.018ZM102.401 166.893C104.152 166.893 104.154 164.159 102.401 164.159C100.65 164.159 100.647 166.893 102.401 166.893ZM108.604 167.768C110.355 167.768 110.358 165.034 108.604 165.034C106.854 165.034 106.851 167.768 108.604 167.768ZM114.372 167.55C116.123 167.55 116.126 164.815 114.372 164.815C112.622 164.815 112.619 167.55 114.372 167.55ZM120.249 166.893C122 166.893 122.003 164.159 120.249 164.159C118.499 164.159 118.496 166.893 120.249 166.893ZM107.008 47.3731C107.184 47.3669 107.352 47.2922 107.474 47.1647C107.597 47.0372 107.665 46.8668 107.665 46.6895C107.665 46.5121 107.597 46.3417 107.474 46.2142C107.352 46.0867 107.184 46.012 107.008 46.0059C106.832 46.012 106.665 46.0867 106.542 46.2142C106.419 46.3417 106.351 46.5121 106.351 46.6895C106.351 46.8668 106.419 47.0372 106.542 47.1647C106.665 47.2922 106.832 47.3669 107.008 47.3731ZM109.838 47.3184C110.014 47.3122 110.181 47.2375 110.304 47.11C110.426 46.9825 110.495 46.8121 110.495 46.6348C110.495 46.4574 110.426 46.2871 110.304 46.1595C110.181 46.032 110.014 45.9573 109.838 45.9512C109.661 45.9573 109.494 46.032 109.372 46.1595C109.249 46.2871 109.181 46.4574 109.181 46.6348C109.181 46.8121 109.249 46.9825 109.372 47.11C109.494 47.2375 109.661 47.3122 109.838 47.3184ZM112.939 47.3184C113.116 47.3122 113.283 47.2375 113.405 47.11C113.528 46.9825 113.597 46.8121 113.597 46.6348C113.597 46.4574 113.528 46.2871 113.405 46.1595C113.283 46.032 113.116 45.9573 112.939 45.9512C112.763 45.9573 112.596 46.032 112.473 46.1595C112.351 46.2871 112.282 46.4574 112.282 46.6348C112.282 46.8121 112.351 46.9825 112.473 47.11C112.596 47.2375 112.763 47.3122 112.939 47.3184ZM115.733 47.3184C115.909 47.3122 116.076 47.2375 116.199 47.11C116.321 46.9825 116.39 46.8121 116.39 46.6348C116.39 46.4574 116.321 46.2871 116.199 46.1595C116.076 46.032 115.909 45.9573 115.733 45.9512C115.557 45.9573 115.389 46.032 115.267 46.1595C115.144 46.2871 115.076 46.4574 115.076 46.6348C115.076 46.8121 115.144 46.9825 115.267 47.11C115.389 47.2375 115.557 47.3122 115.733 47.3184Z" fill="#020202"/>
<path d="M77.8875 91.6113H8.1875" stroke="#020202" stroke-width="7.742" stroke-linecap="round" stroke-linejoin="round"/>
<path d="M26.9129 90.267L27.5353 89.8545C27.2713 89.8758 27.0063 89.879 26.7419 89.8639C25.9903 89.8021 25.2491 89.6472 24.5352 89.4028C23.6278 89.0701 22.7508 88.6589 21.9141 88.1738L22.0926 89.0859C22.7436 89.5872 23.4677 89.9846 24.2392 90.2641C25.0055 90.5265 25.8159 90.6339 26.6237 90.5801L26.9129 90.267Z" fill="#020202"/>
</svg>
