<svg width="199" height="165" viewBox="0 0 199 165" fill="none" xmlns="http://www.w3.org/2000/svg">
<path d="M77.9954 102.489C77.6401 103.089 77.2218 103.651 76.7474 104.163C76.2921 104.692 75.7929 105.177 75.3024 105.672C74.2909 106.628 73.2522 107.56 72.1597 108.425C69.9805 110.168 67.6712 111.744 65.2519 113.139C62.8349 114.553 60.2804 115.721 57.6273 116.624C56.2958 117.075 54.9329 117.428 53.5495 117.68C52.8489 117.764 52.1507 117.9 51.4473 117.939C50.7432 117.959 50.0382 117.991 49.334 118C46.5261 117.906 43.7365 117.513 41.0129 116.828C38.294 116.174 35.6177 115.356 32.9985 114.38C30.3771 113.422 27.803 112.345 25.2417 111.257C24.6012 110.989 23.959 110.715 23.3138 110.481C22.998 110.37 22.6577 110.256 22.3197 110.117C22.1633 110.026 21.9992 109.946 21.85 109.845C21.7033 109.74 21.5631 109.626 21.4302 109.504C20.9216 108.998 20.5397 108.38 20.3153 107.7C20.0871 107.031 19.961 106.331 19.941 105.624L19.9428 105.645C18.2646 96.499 16.1098 87.4459 13.4873 78.5222C12.211 74.0521 10.7854 69.6261 9.32061 65.2155C7.85315 60.8054 6.28881 56.4291 4.6276 52.0867C3.78937 49.9194 2.94961 47.7526 2.06929 45.6026C1.64325 44.5242 1.14365 43.4761 0.774985 42.3347C0.409599 41.2034 0.17085 40.0355 0.0630737 38.8522C0.00272529 38.2526 -0.0143474 37.6495 0.0119846 37.0475C0.0788394 36.3958 0.349472 35.7813 0.785824 35.2905C1.22218 34.7996 1.8023 34.4571 2.44463 34.311C3.02783 34.1657 3.62207 34.0683 4.22132 34.0199C5.43231 33.9392 6.64713 34.1047 7.79167 34.5062L11.1244 35.5935L24.4557 39.9426C25.0263 40.1053 25.5831 40.3126 26.1207 40.5626C26.6586 40.832 27.1517 41.1819 27.5828 41.6C28.4542 42.4353 29.0229 43.5339 29.2002 44.7243L30.1894 51.6306C30.1905 51.6391 30.1883 51.6477 30.1831 51.6546C30.1779 51.6615 30.1703 51.6661 30.1617 51.6674C30.1532 51.6687 30.1445 51.6666 30.1375 51.6616C30.1305 51.6566 30.1257 51.6491 30.1242 51.6407L28.9597 44.7637C28.7594 43.6395 28.1994 42.6095 27.3631 41.8271C26.9505 41.4375 26.4802 41.1132 25.9685 40.8656C25.4433 40.6308 24.9002 40.4376 24.3444 40.2877L10.9551 36.1187L7.60771 35.0765C6.53522 34.7141 5.39945 34.5738 4.27036 34.6642C3.70456 34.7193 3.14363 34.8159 2.59213 34.953C2.08625 35.0694 1.62972 35.3403 1.28664 35.7277C0.943556 36.1152 0.731143 36.5998 0.679225 37.1134C0.659594 37.6731 0.678165 38.2334 0.734807 38.7906C0.840707 39.9246 1.07214 41.0435 1.4249 42.1271C1.77251 43.2007 2.27711 44.2598 2.7088 45.3431C3.59516 47.4981 4.449 49.6655 5.27033 51.8453C8.55492 60.5634 11.4324 69.417 13.9026 78.406C15.1366 82.8939 16.2878 87.4043 17.3084 91.944C18.3859 96.4711 19.2706 101.039 20.1698 105.604L20.1712 105.616L20.1716 105.624C20.1671 106.991 20.6799 108.309 21.608 109.317C21.7317 109.428 21.862 109.533 21.9982 109.629C22.136 109.723 22.2897 109.791 22.4341 109.874C22.7413 109.993 23.0632 110.097 23.4067 110.21C24.074 110.439 24.7177 110.701 25.3652 110.96C27.9474 112.004 30.5304 113.033 33.1558 113.944C35.7753 114.861 38.4409 115.642 41.1419 116.284C43.8313 116.934 46.5793 117.317 49.3451 117.425C50.0332 117.42 50.7211 117.393 51.4095 117.379C52.0962 117.345 52.7721 117.216 53.4545 117.14C54.8136 116.901 56.1532 116.563 57.4626 116.13C60.0875 115.245 62.6234 114.118 65.037 112.763C67.4603 111.412 69.7805 109.886 71.9788 108.198C73.0889 107.366 74.1466 106.468 75.1793 105.543C75.6798 105.064 76.1903 104.594 76.6564 104.082C77.1395 103.587 77.5686 103.043 77.9367 102.459L77.9388 102.456C77.9432 102.448 77.9505 102.443 77.959 102.441C77.9674 102.439 77.9764 102.44 77.9839 102.444C77.9914 102.449 77.9968 102.456 77.999 102.464C78.0011 102.473 77.9999 102.482 77.9954 102.489Z" fill="black"/>
<path d="M3.04354 37.5281L8.04167 39.2942L13.0274 41.0936L18.0071 42.9095L22.9779 44.749C23.0201 44.7646 23.0578 44.7904 23.0877 44.8242C23.1176 44.8579 23.1387 44.8986 23.1492 44.9426L23.1502 44.9474C24.1443 49.2287 25.0996 53.5188 26.016 57.8179C26.9408 62.115 27.8276 66.4208 28.7886 70.7097C30.6809 79.2942 32.7478 87.8387 34.7449 96.3993C35.2215 98.5121 36.0918 100.515 37.3097 102.301C38.5255 104.078 40.1158 105.563 41.9673 106.651C43.8245 107.714 45.9186 108.288 48.055 108.319C49.1336 108.311 50.2111 108.248 51.2831 108.128C52.3626 108.011 53.4416 107.89 54.5105 107.711C56.6513 107.382 58.7571 106.853 60.8005 106.131C62.839 105.379 64.819 104.476 66.7239 103.427C68.6451 102.398 70.5211 101.276 72.3797 100.125C74.2475 98.9888 76.0978 97.8208 77.9499 96.6561C77.9572 96.6515 77.9659 96.6499 77.9743 96.6517C77.9827 96.6536 77.99 96.6587 77.9947 96.6659C77.9994 96.6731 78.001 96.6819 77.9993 96.6904C77.9976 96.6989 77.9927 96.7063 77.9856 96.7111C74.3644 99.1687 70.7609 101.66 66.9441 103.832C65.0383 104.934 63.0492 105.883 60.9951 106.67C58.9283 107.441 56.7919 108.008 54.616 108.362C53.531 108.548 52.44 108.674 51.3489 108.796C50.2511 108.922 49.1474 108.99 48.0425 109C45.7896 108.982 43.5797 108.377 41.6278 107.244C39.7223 106.07 38.0792 104.511 36.8021 102.666C35.525 100.82 34.6417 98.7283 34.2078 96.5219C32.34 87.9318 30.5421 79.3258 28.5696 70.7597C27.5982 66.4732 26.5526 62.2037 25.5449 57.9255C24.5334 53.6481 23.5562 49.363 22.6134 45.07L22.7857 45.2683L17.8317 43.383L12.8865 41.474L7.94749 39.5485L3.02067 37.5897C3.01271 37.5866 3.0063 37.5804 3.00282 37.5725C2.99934 37.5647 2.99907 37.5557 3.00206 37.5477C3.00506 37.5396 3.01107 37.533 3.01883 37.5294C3.02658 37.5257 3.03548 37.5253 3.04354 37.5281ZM60.7735 12.176C59.4044 11.339 59.0592 8.81731 60.1148 7.12945C61.4459 5.00096 62.9336 8.86377 62.9336 8.86377C65.361 12.4901 70.2941 2.79364 70.2941 2.79364C70.2941 2.79364 66.3789 -2.17283 57.4524 1.13815C48.5259 4.44913 54.6335 15.7222 54.6335 15.7222C54.6335 15.7222 45.3155 20.1369 48.4476 31.883C48.4476 31.883 56.7741 29.9323 56.2779 15.9415C56.2779 15.9415 59.7624 14.5594 60.7735 12.176Z" fill="black"/>
<path d="M62.5142 12.4056C62.0267 12.5331 61.5115 12.4549 61.0774 12.1877C61.0593 12.1761 61.0436 12.1608 61.0311 12.1428C61.0186 12.1247 61.0096 12.1042 61.0046 12.0824C60.9996 12.0607 60.9987 12.0381 61.0019 12.016C61.0051 11.9939 61.0124 11.9726 61.0234 11.9535C61.0344 11.9344 61.0489 11.9177 61.0659 11.9045C61.083 11.8913 61.1024 11.8818 61.1229 11.8765C61.1435 11.8711 61.1648 11.8702 61.1857 11.8736C61.2066 11.877 61.2267 11.8848 61.2448 11.8964C61.2564 11.9042 61.2671 11.9133 61.2768 11.9236C61.6156 12.2462 62.0586 12.4188 62.5142 12.4056ZM70.6334 3.01227C71.1541 3.89413 71.5615 4.84551 71.8447 5.84128C72.1481 6.85026 72.2625 7.91218 72.1816 8.96753L72.1203 8.77579C72.412 9.10011 72.6963 9.43173 72.9771 9.76697L73.8186 10.7913C73.8923 10.8947 73.9453 11.013 73.9743 11.1389C74.0034 11.2648 74.0078 11.3956 73.9874 11.5234C73.967 11.6511 73.9222 11.7732 73.8557 11.882C73.7893 11.9908 73.7025 12.0841 73.6008 12.1562C73.4279 12.2963 73.2431 12.4191 73.0488 12.523C72.9486 12.5893 72.8356 12.631 72.7182 12.6452C72.6008 12.6593 72.4818 12.6454 72.3701 12.6046L72.4813 12.5336C72.4687 13.9939 72.3237 15.4494 72.0485 16.8804C71.9045 17.6271 71.6051 18.3306 71.1722 18.9396C70.9186 19.2727 70.561 19.4991 70.1637 19.5778C69.9639 19.6022 69.7617 19.5936 69.5644 19.5522L69.0723 19.4626C68.4316 19.3409 67.7755 19.3412 67.1349 19.4632C66.505 19.6016 65.9222 19.9175 65.4482 20.3776C64.5242 21.415 63.8111 22.642 63.3532 23.9828C63.3507 23.9894 63.3459 23.9948 63.3397 23.9977C63.3335 24.0006 63.3264 24.0008 63.3201 23.9982C63.3144 23.9956 63.3096 23.991 63.3068 23.985C63.304 23.9791 63.3033 23.9723 63.3049 23.9659C63.4701 23.2565 63.6978 22.5651 63.985 21.9007C64.2665 21.215 64.6598 20.5869 65.1469 20.0453C65.6558 19.487 66.3063 19.0961 67.0201 18.9199C67.7244 18.7622 68.4513 18.7547 69.1584 18.898L69.674 19.0089C69.8116 19.0424 69.9531 19.0541 70.0939 19.0438C70.3757 18.9924 70.6309 18.8366 70.814 18.6042C71.2166 18.0616 71.5105 17.438 71.6777 16.7713C72.0706 15.3945 72.2894 13.9687 72.3283 12.5311C72.329 12.5094 72.338 12.4888 72.353 12.474C72.3681 12.4591 72.3882 12.4513 72.4087 12.452C72.4194 12.4526 72.4299 12.4554 72.4396 12.4601C72.53 12.486 72.6245 12.4912 72.7169 12.4751C72.8093 12.4591 72.8974 12.4223 72.9752 12.3672C73.1557 12.2627 73.3251 12.1379 73.4805 11.9952C73.553 11.9389 73.6136 11.8674 73.6587 11.785C73.7037 11.7027 73.732 11.6113 73.742 11.5168C73.752 11.4222 73.7433 11.3265 73.7165 11.2357C73.6897 11.1449 73.6455 11.0609 73.5864 10.9891L72.6836 10.0623C72.3813 9.7488 72.0825 9.43171 71.791 9.10726C71.7692 9.08307 71.7524 9.05434 71.7418 9.0229C71.7311 8.99146 71.7267 8.95801 71.729 8.92468L71.7297 8.91541C71.7702 8.42056 71.769 7.92287 71.7261 7.42825C71.6771 6.92761 71.599 6.43063 71.4925 5.94011C71.2692 4.94756 70.9669 3.97681 70.5889 3.03825C70.5874 3.03505 70.5866 3.03157 70.5864 3.02803C70.5862 3.02448 70.5867 3.02094 70.5879 3.01759C70.589 3.01425 70.5907 3.01117 70.5929 3.00853C70.5952 3.00589 70.5979 3.00375 70.6009 3.00222C70.6066 2.99969 70.6129 2.99931 70.6188 3.00114C70.6247 3.00297 70.6299 3.0069 70.6334 3.01227Z" fill="black"/>
<path d="M69.1931 6.5173C69.4904 6.21392 69.8882 6.03291 70.3096 6.00929C70.7258 5.96856 71.1439 6.06242 71.504 6.27739C71.0884 6.30959 70.7146 6.3068 70.3381 6.34108C69.9531 6.37535 69.5707 6.43421 69.1931 6.5173ZM70.2005 8.57649C70.3285 8.572 70.4498 8.51738 70.5387 8.42414C70.6277 8.3309 70.6775 8.20632 70.6775 8.07668C70.6775 7.94705 70.6277 7.82247 70.5387 7.72923C70.4498 7.63599 70.3285 7.58137 70.2005 7.57688C70.0725 7.58137 69.9512 7.63599 69.8622 7.72923C69.7732 7.82247 69.7235 7.94705 69.7235 8.07668C69.7235 8.20632 69.7732 8.3309 69.8622 8.42414C69.9512 8.51738 70.0725 8.572 70.2005 8.57649ZM63.801 14.3143C64.2615 14.8807 64.6806 15.4536 65.1285 16.0031C65.5684 16.5621 66.0561 17.0807 66.586 17.5529C65.9093 17.2663 65.319 16.8047 64.8742 16.2144C64.4107 15.6485 64.0476 15.0056 63.801 14.3143ZM30 49.6913C30.327 48.154 30.7242 46.6614 31.1531 45.1625C31.5872 43.669 32.0406 42.1789 32.5655 40.7134C33.5857 37.7644 34.8053 34.89 36.2155 32.1105C36.9344 30.7203 37.729 29.3716 38.5956 28.0705C39.4559 26.7524 40.4298 25.514 41.5059 24.3699C42.5827 23.197 43.8254 22.1923 45.1935 21.3886C46.5891 20.5731 48.1522 20.0952 49.7605 19.9923L49.7648 19.9921C49.7921 19.9908 49.8195 19.9921 49.8466 19.9959C51.4025 20.2256 52.944 20.4966 54.4831 20.8039C56.0219 21.1077 57.5567 21.4363 59.0822 21.8179C60.628 22.1658 62.1382 22.66 63.5927 23.294C64.3133 23.6559 64.967 24.0386 65.677 24.3811L67.793 25.4058C68.507 25.7478 69.1982 26.1366 69.862 26.5699C70.5444 27.0032 71.1346 27.5698 71.5983 28.2366C72.5088 29.4966 73.5783 30.6677 74.6016 31.8563C76.6718 34.2238 78.7822 36.5558 80.9326 38.8524C80.9688 38.8912 80.9918 38.9407 80.9982 38.9937C81.0046 39.0467 80.994 39.1004 80.968 39.1468L80.9659 39.1505C80.1685 40.5722 79.308 41.9419 78.4041 43.2907C77.4986 44.6366 76.5374 45.9471 75.5061 47.2059C74.4722 48.4737 73.3381 49.6542 72.115 50.7357C70.8771 51.8711 69.4229 52.7382 67.8418 53.2838L68.0526 53.1571C66.9098 54.3331 65.7409 55.4622 64.5085 56.545C63.8909 57.0841 63.259 57.6098 62.5831 58.0997C62.2405 58.3521 61.8831 58.5832 61.5129 58.7918C61.0856 59.0621 60.5957 59.2141 60.0922 59.2326L60.6456 58.5814C60.9075 59.7446 61.1798 60.9102 61.4651 62.0673L61.9059 63.7954C61.9803 64.0818 62.0589 64.3664 62.1408 64.6445C62.2124 64.9024 62.2986 65.156 62.3989 65.404L62.4108 65.4309C62.4402 65.4975 62.4563 65.5693 62.4583 65.6422C62.4602 65.7151 62.448 65.7877 62.4222 65.8558C62.3964 65.9239 62.3577 65.9862 62.3081 66.0391C62.2586 66.0921 62.1992 66.1346 62.1334 66.1644C62.0787 66.1888 62.0205 66.2042 61.9611 66.2101C58.2907 66.5589 54.6262 66.7971 50.9466 66.927C47.2604 67.0792 43.5684 66.9934 39.893 66.6703C38.9718 66.5731 38.0507 66.4556 37.1336 66.277C36.2015 66.1156 35.2893 65.8531 34.4127 65.4941C33.9529 65.304 33.5236 65.0459 33.1387 64.7282C32.9349 64.5516 32.761 64.3425 32.6238 64.1092C32.4923 63.8742 32.4198 63.6689 32.3154 63.4474C31.9453 62.5799 31.6427 61.6844 31.4103 60.7692C30.9531 58.959 30.6216 57.1186 30.4183 55.2615C30.2041 53.4085 30.0625 51.5647 30 49.6913ZM30.1043 49.7013C30.3767 53.3896 30.999 57.0429 31.9628 60.6105C32.2148 61.4862 32.5339 62.3406 32.9171 63.166C33.0158 63.3599 33.1112 63.5897 33.2121 63.754C33.3161 63.9161 33.4451 64.0603 33.5944 64.1809C33.9314 64.4376 34.3037 64.6431 34.6994 64.791C36.4059 65.358 38.1791 65.6938 39.9727 65.7897C43.6139 66.021 47.2651 66.0435 50.9088 65.857C54.5594 65.7126 58.2175 65.4587 61.8487 65.0979L61.4109 65.904C61.2796 65.6003 61.169 65.2879 61.0799 64.9689C60.9913 64.6732 60.9094 64.3807 60.832 64.088C60.6725 63.5032 60.5354 62.917 60.3961 62.3315C60.1207 61.1596 59.8607 59.9891 59.6092 58.8122C59.5944 58.7431 59.5932 58.6717 59.6057 58.6021C59.6181 58.5326 59.644 58.4662 59.6819 58.4067C59.7197 58.3473 59.7687 58.296 59.8261 58.2557C59.8836 58.2154 59.9483 58.187 60.0165 58.1721C60.0645 58.1619 60.1136 58.1581 60.1626 58.1609C60.4652 58.1229 60.7563 58.0196 61.0161 57.858C61.3516 57.6733 61.6758 57.4683 61.987 57.244C62.6262 56.7917 63.2462 56.2885 63.8537 55.7695C65.0662 54.7284 66.2423 53.6172 67.3709 52.4811L67.3746 52.4773C67.4325 52.4195 67.5038 52.3772 67.5819 52.3543C69.044 51.8641 70.3952 51.0845 71.5568 50.0608C72.7638 49.0315 73.888 47.9066 74.9188 46.6968C75.9663 45.4921 76.9527 44.2271 77.8868 42.9224C78.8201 41.6188 79.7122 40.2742 80.5294 38.8987L80.5627 39.1965C78.4865 36.8282 76.4025 34.4696 74.3424 32.0868C73.3199 30.8849 72.291 29.704 71.3267 28.4313C70.4507 27.1597 69.008 26.4441 67.6226 25.7629C66.2193 25.0983 64.7648 24.4456 63.3781 23.7501C61.9403 23.1802 60.4531 22.7471 58.9359 22.4564C55.8958 21.7911 52.8005 21.3435 49.7236 20.8839L49.8095 20.8875C48.3408 20.9974 46.9173 21.4498 45.6501 22.2092C44.3668 22.9793 43.1916 23.9205 42.1558 25.0073C41.1008 26.1026 40.1439 27.2904 39.2962 28.5568C38.4312 29.8225 37.6363 31.1359 36.9151 32.4909C35.454 35.2076 34.1692 38.0177 33.0688 40.9034C31.95 43.7836 30.9517 46.7329 30.1043 49.7013Z" fill="black"/>
<path d="M67 52.8858C66.6341 52.0495 66.2904 51.2064 65.9426 50.3654C65.5936 49.5251 65.2649 48.677 64.903 47.8434C64.5668 46.999 64.206 46.1653 63.8313 45.3398C63.65 44.924 63.4524 44.5166 63.2386 44.1177C63.139 43.9149 63.0269 43.7184 62.9029 43.5296C62.8441 43.4332 62.7802 43.3401 62.7116 43.2506L62.4817 43C63.1464 43.6329 63.6806 44.3909 64.0538 45.2307C64.4783 46.0416 64.8389 46.8813 65.1997 47.7194C65.5384 48.567 65.8725 49.4158 66.1729 50.2771C66.4732 51.1383 66.7591 52.0047 67 52.8858ZM61.9025 68.9814C61.8719 68.9813 61.842 68.9725 61.8162 68.9561C61.7905 68.9396 61.7699 68.9162 61.7568 68.8884L60.1644 65.4953C60.1553 65.4761 60.15 65.4552 60.1489 65.4339C60.1479 65.4127 60.151 65.3914 60.1581 65.3714C60.1653 65.3513 60.1763 65.3329 60.1905 65.3171C60.2048 65.3014 60.222 65.2886 60.2412 65.2795C60.2604 65.2704 60.2811 65.2653 60.3023 65.2643C60.3235 65.2633 60.3447 65.2665 60.3646 65.2738C60.3846 65.281 60.4029 65.2922 60.4185 65.3065C60.4341 65.3209 60.4468 65.3383 60.4558 65.3576L62.0482 68.7507C62.0597 68.7754 62.0648 68.8025 62.063 68.8297C62.0613 68.8569 62.0528 68.8832 62.0383 68.9061C62.0238 68.9291 62.0037 68.9481 61.98 68.9612C61.9563 68.9744 61.9296 68.9813 61.9025 68.9814ZM33 63.8183L34.9438 71C33.9268 67.3979 33.2059 64.6162 33 63.8183Z" fill="black"/>
<path d="M103.409 110.092C102.278 112.06 102.801 116.105 102.566 117.481C102.247 119.427 101.498 121.28 100.373 122.908C100.069 120.593 99.7111 118.283 99.343 115.973C98.9748 113.668 98.5586 111.369 98.1745 109.064C97.7422 106.77 97.3367 104.465 96.8832 102.176L96.1949 98.7376C95.9441 97.5932 95.7146 96.4487 95.4478 95.3096C95.5972 96.4698 95.7734 97.6248 95.9387 98.7851L96.4776 102.245C96.8458 104.555 97.2567 106.854 97.6462 109.154C98.0784 111.453 98.4839 113.752 98.9375 116.047C99.3911 118.335 99.8499 120.63 100.373 122.908C97.8436 126.573 93.5856 128.888 88.8367 130.655C85.2784 131.971 81.6138 132.987 77.8822 133.693C75.1502 109.971 79.4136 93.2843 79.4136 93.2843C79.4136 93.2843 78.928 92.6885 77.2419 92.6885C75.5504 92.6885 70.8495 95.4309 70.8495 95.4309C53.0009 106.158 47.4517 100.198 43.2311 95.6682C40.4616 92.6938 36.4332 79.7727 34 71.2712C50.4025 77.2307 59.5108 68.9665 61.2183 68.9665C61.7572 68.9665 64.3984 68.6923 68.0802 68.3441C68.5138 68.7819 68.8513 69.3034 69.0717 69.876C69.2921 70.4486 69.3905 71.06 69.3608 71.672C70.8869 73.8132 72.7384 70.2375 71.9327 68.9665C71.7521 68.6753 71.6121 68.3613 71.5165 68.0331C72.2475 67.9697 73.0052 67.9012 73.779 67.8379C75.0648 69.5782 76.5536 72.152 77.8822 73.4177C80.214 75.6433 80.6195 72.0675 80.6195 72.0675C83.5115 74.1349 83.5115 70.4801 83.5115 70.4801C86.0834 71.9885 85.1976 68.3442 85.1976 68.3442C85.3741 68.1924 85.5045 67.9952 85.5742 67.7745C85.6439 67.5538 85.6502 67.3183 85.5925 67.0943C88.8772 66.9329 92.169 66.9787 95.4478 67.2314C105.458 68.2334 114.988 97.0975 114.988 97.0975C115.351 102.224 107.507 102.941 103.409 110.092ZM46.1496 118.18C46.5228 120.481 46.7528 122.792 46.9955 125.103C47.2212 127.415 47.3285 129.736 47.4742 132.054L47.9194 139.008L48.3314 145.965C48.3319 145.973 48.329 145.982 48.3232 145.988C48.3174 145.995 48.3093 145.999 48.3005 146C48.2918 146 48.2831 145.998 48.2763 145.992C48.2696 145.986 48.2654 145.978 48.2645 145.97L47.5856 139.034L46.9398 132.095C46.722 129.783 46.4658 127.473 46.3277 125.154C46.2068 122.834 46.0732 120.515 46.0828 118.185C46.0828 118.177 46.086 118.169 46.0917 118.162C46.0974 118.156 46.1053 118.153 46.1138 118.152C46.1222 118.151 46.1306 118.154 46.1372 118.159C46.1439 118.164 46.1483 118.172 46.1496 118.18ZM53.4768 117.996C53.7123 120.323 53.8041 122.653 53.9089 124.983C53.9963 127.313 53.9651 129.645 53.9724 131.977L54.0027 138.972L53.9993 145.967C53.9993 145.975 53.9959 145.984 53.9897 145.99C53.9836 145.996 53.9752 146 53.9664 146C53.9576 146 53.949 145.997 53.9427 145.991C53.9363 145.985 53.9326 145.977 53.9323 145.968L53.6677 138.978L53.4366 131.987C53.3569 129.657 53.2386 127.327 53.239 124.995C53.2565 122.663 53.2613 120.332 53.4098 117.997C53.4104 117.989 53.4141 117.981 53.4202 117.975C53.4263 117.97 53.4343 117.966 53.4427 117.966C53.4511 117.966 53.4593 117.969 53.4656 117.975C53.4719 117.98 53.4759 117.988 53.4768 117.996Z" fill="black"/>
<path d="M51.5 151C60.6127 151 68 148.09 68 144.5C68 140.91 60.6127 138 51.5 138C42.3873 138 35 140.91 35 144.5C35 148.09 42.3873 151 51.5 151Z" fill="black"/>
<path d="M60.2911 58.4112C59.9472 58.6533 59.548 58.8071 59.1293 58.8589C58.9141 58.8886 58.6953 58.8806 58.4829 58.8351C58.3692 58.8194 58.2627 58.7708 58.1768 58.6954C58.0909 58.62 58.0294 58.5211 58 58.4112C58.0698 58.4736 58.1519 58.5211 58.2411 58.5507C58.3303 58.5802 58.4246 58.5913 58.5183 58.5831C58.7089 58.5785 58.899 58.5626 59.0876 58.5356C59.4863 58.4733 59.888 58.4317 60.2911 58.4112ZM67.5193 53.0054C69.2524 54.1179 70.9802 55.2391 72.7282 56.3169C73.1664 56.5832 73.6063 56.849 74.0523 57.094C74.2735 57.2225 74.5005 57.3311 74.7215 57.4468C74.8268 57.4902 74.9509 57.5543 75.04 57.5818C75.0797 57.5909 75.1188 57.6025 75.157 57.6164C75.2447 57.6326 75.3337 57.653 75.4206 57.677C75.913 57.8824 76.3894 58.1236 76.8459 58.3986C77.296 58.659 77.7393 58.9281 78.1759 59.2059C79.9377 60.3007 81.6054 61.5374 83.162 62.9036C83.9609 63.5872 84.6657 64.3718 85.2582 65.2373L85.4584 65.5902L85.6193 65.9362C85.7392 66.1737 85.8419 66.4194 85.9266 66.6714C86.0109 66.9444 86.0228 67.2343 85.9612 67.5132C85.8913 67.7938 85.7336 68.0453 85.5108 68.2319L85.554 68.0933C85.6205 68.425 85.6622 68.7611 85.6788 69.0989C85.7048 69.4451 85.663 69.7929 85.5556 70.1233C85.5277 70.2116 85.4839 70.2942 85.4264 70.3672L85.3404 70.4809L85.22 70.5672C85.1409 70.6247 85.0484 70.6614 84.9511 70.6739C84.8599 70.696 84.7651 70.6988 84.6727 70.6822C84.4959 70.662 84.3229 70.6171 84.1589 70.5486L83.7025 70.3139L83.8583 70.2261C83.8466 70.6083 83.7868 70.9876 83.6803 71.3552C83.5848 71.7427 83.3588 72.0864 83.0397 72.3296C82.8642 72.4342 82.6668 72.4976 82.4627 72.5149C82.2586 72.5322 82.0532 72.5029 81.8623 72.4294C81.6794 72.3617 81.5007 72.2837 81.3269 72.1956L80.8386 71.8903L81.034 71.8045C80.9833 72.4196 80.7764 73.0121 80.4324 73.5267C80.3321 73.6654 80.2016 73.7799 80.0506 73.8618C79.8995 73.9437 79.7318 73.991 79.5598 74L79.2999 73.98C79.2187 73.9603 79.1424 73.9289 79.0634 73.9029C78.9116 73.8481 78.7675 73.7744 78.6346 73.6835C78.1353 73.3293 77.6879 72.9084 77.305 72.4328C76.9189 71.9743 76.5576 71.5004 76.2131 71.0174C75.5228 70.053 74.8754 69.065 74.1868 68.1205C73.8555 67.6496 73.4936 67.2006 73.1032 66.7765C72.9255 66.581 72.7204 66.4119 72.4941 66.2744C72.4136 66.2222 72.3206 66.192 72.2245 66.1868C72.1568 66.1878 72.092 66.2147 72.0439 66.2619L72.144 66.0772C72.0759 66.7028 72.1492 67.3356 72.3585 67.9297C72.4119 68.0752 72.4755 68.2169 72.5488 68.3537C72.5853 68.4216 72.6243 68.4882 72.6655 68.5527C72.7134 68.6446 72.7625 68.7509 72.8067 68.8513C72.9231 69.2343 72.9461 69.6393 72.8737 70.0328C72.751 70.7916 72.3795 71.4893 71.8165 72.0181C71.6498 72.1724 71.4476 72.284 71.2276 72.3435C71.0075 72.403 70.7761 72.4086 70.5534 72.3596C70.1472 72.223 69.7997 71.9542 69.5675 71.5969C69.5235 71.5448 69.5008 71.4783 69.5038 71.4104L69.5056 71.3708C69.5391 70.5934 69.3559 69.8218 68.9762 69.1406C68.879 68.9738 68.7694 68.8143 68.6482 68.6637C68.5224 68.5061 68.4026 68.3944 68.2364 68.2131C67.926 67.8811 67.6685 67.5041 67.4728 67.0951C67.112 66.2934 66.8978 65.4346 66.8399 64.5588C66.7728 63.7055 66.7802 62.8482 66.8619 61.9962L66.8766 62.0907C66.614 61.5949 66.2233 61.177 65.7445 60.8795C65.2513 60.5575 64.7111 60.3126 64.1426 60.1533C63.5696 59.9805 62.9818 59.8601 62.3865 59.7937C62.0869 59.7711 61.7867 59.7404 61.4855 59.7242L60.5789 59.7022C60.5701 59.7025 60.5616 59.6993 60.5552 59.6935C60.5488 59.6876 60.545 59.6794 60.5447 59.6707C60.5449 59.6623 60.5482 59.6542 60.5539 59.648C60.5597 59.6418 60.5676 59.6379 60.576 59.637L61.4876 59.5941C61.7919 59.5916 62.0967 59.6059 62.4023 59.6112C63.0156 59.644 63.6245 59.7326 64.2214 59.8759C64.8289 60.0173 65.4105 60.2518 65.9449 60.571C66.2166 60.734 66.4691 60.9264 66.6978 61.1446C66.9433 61.3681 67.1454 61.6344 67.2941 61.9301C67.3051 61.9526 67.3105 61.9774 67.3097 62.0024L67.3089 62.0248C67.2675 62.8524 67.2877 63.682 67.3695 64.5067C67.443 65.3133 67.6598 66.1007 68.0098 66.8327C68.1877 67.1813 68.4183 67.501 68.6935 67.7807C68.8144 67.9094 69.008 68.0848 69.1487 68.2548C69.2978 68.4289 69.4316 68.6154 69.5486 68.8122C70.008 69.6068 70.2321 70.5136 70.1953 71.4285L70.1335 71.2025C70.3194 71.4194 70.5212 71.6541 70.7315 71.6847C70.845 71.7049 70.9617 71.6974 71.0715 71.6628C71.1814 71.6282 71.281 71.5675 71.3618 71.4861C71.7973 71.0625 72.0851 70.5126 72.1836 69.916C72.2351 69.6377 72.2256 69.3516 72.1556 69.0773L72.0825 68.9111C72.033 68.8309 71.9868 68.7494 71.9438 68.6664C71.8582 68.5009 71.7844 68.3298 71.7227 68.1542C71.4846 67.454 71.4109 66.7093 71.5072 65.9767C71.5157 65.9089 71.5481 65.8462 71.5988 65.7998L71.6074 65.7919C71.7784 65.637 72.0025 65.5522 72.2343 65.5548C72.4361 65.5629 72.6323 65.623 72.8036 65.729C73.0835 65.9004 73.3362 66.1118 73.5536 66.3564C73.9574 66.8068 74.3307 67.2831 74.6712 67.7822C75.3479 68.762 75.9678 69.7641 76.6262 70.7353C76.9562 71.2197 77.2869 71.7026 77.6455 72.1601C77.9855 72.6185 78.3871 73.0288 78.8392 73.3796C78.9468 73.4607 79.065 73.5271 79.1906 73.5771C79.2514 73.599 79.3121 73.6281 79.3732 73.646L79.5567 73.6655C79.6809 73.6618 79.8027 73.6301 79.9128 73.5731C80.0228 73.516 80.1185 73.435 80.1924 73.3361C80.5177 72.8731 80.7223 72.3377 80.7879 71.7774C80.7933 71.7443 80.8117 71.7147 80.8391 71.695C80.8666 71.6754 80.9008 71.6673 80.9342 71.6726C80.9517 71.6757 80.9685 71.6821 80.9835 71.6915L81.444 71.9883C81.6034 72.071 81.7672 72.1451 81.9347 72.2103C82.0925 72.2753 82.2632 72.3037 82.4338 72.2931C82.6044 72.2825 82.7702 72.2332 82.9185 72.1491C83.199 71.9358 83.3984 71.6348 83.4845 71.2951C83.593 70.9489 83.6494 70.5887 83.652 70.2261C83.6522 70.2088 83.6569 70.1917 83.6655 70.1766C83.6742 70.1615 83.6865 70.1489 83.7014 70.1398C83.7164 70.1307 83.7334 70.1255 83.7509 70.1247C83.7684 70.1238 83.7858 70.1274 83.8016 70.1351L83.8079 70.1383L84.2413 70.3525C84.3851 70.4094 84.5362 70.4463 84.6902 70.4621C84.831 70.4832 84.9747 70.4516 85.0932 70.3735C85.2118 70.2954 85.2968 70.1764 85.3315 70.0397C85.4212 69.7389 85.4522 69.424 85.423 69.1118C85.4031 68.7906 85.3533 68.472 85.2745 68.1598C85.2684 68.1349 85.2691 68.1089 85.2768 68.0845C85.2844 68.06 85.2985 68.0381 85.3177 68.021C85.4846 67.8643 85.5999 67.6613 85.6484 67.4386C85.6969 67.2159 85.6764 66.9839 85.5894 66.773C85.5003 66.5436 85.3951 66.3207 85.2746 66.1058L85.097 65.7624L84.9039 65.4548C84.3005 64.6516 83.5944 63.9292 82.8033 63.306C81.2308 62.0017 79.5846 60.7871 77.8727 59.6681C77.0414 59.099 76.168 58.5927 75.2599 58.1535C75.2219 58.1445 75.1849 58.1319 75.1494 58.1157C75.0765 58.0997 74.9753 58.0798 74.8912 58.0557C74.7363 58.0033 74.6323 57.9424 74.5007 57.8855C74.2664 57.7609 74.0358 57.6321 73.8159 57.4948C73.3693 57.2263 72.9382 56.9423 72.5074 56.6571C70.7876 55.5143 69.1205 54.3054 67.4812 53.0585C67.4744 53.0534 67.4699 53.0459 67.4686 53.0375C67.4673 53.0291 67.4694 53.0206 67.4743 53.0137C67.4793 53.0068 67.4867 53.0021 67.4951 53.0006C67.5035 52.999 67.5122 53.0007 67.5193 53.0054Z" fill="black"/>
<path d="M74.2703 64.6397C75.4415 65.7067 76.5522 66.836 77.5973 68.0223C78.6511 69.2059 79.6338 70.4486 80.5405 71.7441C80.5648 71.7802 80.5738 71.8242 80.5654 71.8666C80.557 71.9091 80.5319 71.9466 80.4955 71.9711C80.4591 71.9956 80.4144 72.005 80.371 71.9975C80.3275 71.9899 80.2889 71.9659 80.2633 71.9306L80.2592 71.9244C79.4048 70.607 78.473 69.3395 77.4685 68.1281C76.4683 66.9089 75.4006 65.7443 74.2703 64.6397ZM77.6577 63.9281C79.6893 65.9063 81.6179 67.9836 83.4361 70.1522C83.4637 70.1861 83.4766 70.2294 83.4718 70.2726C83.4671 70.3158 83.4452 70.3554 83.4108 70.3828C83.3764 70.4102 83.3324 70.4232 83.2883 70.4189C83.2442 70.4147 83.2036 70.3935 83.1753 70.3601L83.1705 70.354C81.4441 68.1226 79.6042 65.9779 77.6577 63.9281ZM80.0772 63.4142C80.9408 64.1555 81.7973 64.9051 82.6468 65.6628L83.9097 66.8133C84.3251 67.2055 84.7395 67.5912 85.1285 68.029C85.1578 68.062 85.1725 68.105 85.1695 68.1486C85.1664 68.1922 85.1458 68.2328 85.1122 68.2616C85.0785 68.2903 85.0347 68.3047 84.9902 68.3017C84.9457 68.2987 84.9043 68.2785 84.875 68.2455L84.8701 68.2398L84.8655 68.2341C84.5213 67.806 84.123 67.3949 83.7315 66.988L82.5305 65.7817C81.7212 64.9848 80.9034 64.1956 80.0772 63.4142ZM70.1034 51.0228C70.5365 51.5506 71.0182 52.0381 71.5424 52.4794C72.0577 52.9375 72.5801 53.3883 73.1096 53.8318L76.3132 56.4639C78.4535 58.2135 80.6414 59.9112 82.804 61.6317L82.8341 61.6584L82.841 61.6652C83.784 62.6304 84.8548 63.4675 86.0246 64.1539C87.195 64.8234 88.4657 65.3081 89.7898 65.5902C92.4547 66.1601 95.2328 65.9308 97.763 64.9322C99.0021 64.4359 100.254 63.7266 101.53 63.1599C102.799 62.5589 104.098 62.0209 105.402 61.5009C106.715 60.9986 108.044 60.5378 109.393 60.1368C110.744 59.7147 112.133 59.4211 113.541 59.2599C113.558 59.2584 113.575 59.2602 113.591 59.2653L113.597 59.2672C114.829 59.6685 116.117 59.8819 117.415 59.8999C118.703 59.9257 119.979 59.6506 121.137 59.0974C121.71 58.7956 122.261 58.4548 122.786 58.0776C123.427 57.7733 124.148 57.67 124.851 57.7816C125.521 57.8512 126.182 57.9799 126.828 58.1659C126.969 58.2131 127.113 58.2481 127.26 58.2707C127.386 58.2858 127.514 58.2779 127.638 58.2475C127.873 58.1823 128.078 58.0397 128.219 57.8436L128.353 57.7204C128.328 57.7326 128.305 57.7484 128.284 57.7674C128.233 57.813 128.199 57.874 128.187 57.9407C128.178 57.9905 128.181 58.0415 128.196 58.0898C128.211 58.1381 128.238 58.1822 128.274 58.2185L128.226 57.8325C128.31 57.6703 128.342 57.4875 128.32 57.3071C128.31 57.2061 128.29 57.1062 128.261 57.0086C128.234 56.9128 128.198 56.8195 128.154 56.7297C128.133 56.6889 128.12 56.6442 128.117 56.5985C128.114 56.5528 128.12 56.507 128.136 56.4638L128.144 56.4426C128.235 56.0322 128.207 55.6051 128.063 55.2094C127.93 54.7606 127.756 54.3244 127.543 53.9064C127.518 53.8583 127.504 53.806 127.501 53.7525C127.498 53.6991 127.506 53.6456 127.525 53.5951L127.534 53.5702C127.598 53.4059 127.627 53.2305 127.619 53.0548C127.6 52.8664 127.55 52.6822 127.472 52.5092C127.385 52.3219 127.276 52.1448 127.149 51.9812C127.022 51.8153 126.881 51.6611 126.726 51.5205C126.658 51.4614 126.611 51.3835 126.591 51.2973C126.57 51.2111 126.577 51.1208 126.611 51.0387L126.621 51.0136C126.759 50.6905 126.766 50.328 126.642 49.9999C126.47 49.6843 126.181 49.4451 125.835 49.3311C124.995 49.0725 124.103 49.0163 123.236 49.1672C121.371 49.422 119.533 49.8455 117.748 50.4322L117.743 50.4335C117.684 50.4521 117.621 50.4603 117.558 50.4579C115.892 50.3895 114.207 51.1116 112.469 51.6438C111.59 51.912 110.761 52.2133 109.793 52.4129C108.865 52.6029 107.954 52.6991 107.039 52.8028C103.384 53.1364 99.7443 53.2517 96.1003 53.2939L94.7342 53.3067L94.0512 53.3105L93.7098 53.312C93.5908 53.3124 93.4523 53.3083 93.3247 53.2969C92.5401 53.2249 91.8033 52.8956 91.2333 52.3623C91.0417 52.1765 90.9113 52.0318 90.7473 51.8645L87.022 47.9582C84.5404 45.3521 82.0771 42.7286 79.6321 40.0878C79.6227 40.0777 79.6177 40.0645 79.6182 40.0508C79.6186 40.0372 79.6244 40.0243 79.6344 40.0148C79.6444 40.0053 79.6578 40 79.6718 40C79.6857 40 79.699 40.0054 79.709 40.0149C82.3248 42.4937 84.9192 44.9928 87.4923 47.5121L91.3536 51.2895C91.5082 51.44 91.6861 51.623 91.8214 51.7469C92.2567 52.1348 92.8126 52.3678 93.3995 52.4082C93.5804 52.4217 93.8031 52.4075 94.0358 52.4028L94.7163 52.3828L96.0766 52.3378C99.7009 52.1908 103.335 52.0516 106.919 51.6845C107.809 51.5855 108.709 51.4901 109.562 51.316C110.376 51.1541 111.261 50.8444 112.117 50.5827C112.98 50.3114 113.841 50.0286 114.743 49.7831C115.669 49.507 116.635 49.381 117.603 49.4103L117.414 49.436C118.353 49.149 119.284 48.9047 120.235 48.6911C121.19 48.4704 122.157 48.3066 123.131 48.2004C123.632 48.1478 124.136 48.1297 124.64 48.1464C125.178 48.1639 125.709 48.2766 126.206 48.4789C126.769 48.6942 127.226 49.1146 127.481 49.6523C127.596 49.933 127.645 50.2355 127.624 50.5373C127.607 50.83 127.535 51.1172 127.413 51.3845L127.308 50.8779C127.506 51.0625 127.685 51.2655 127.843 51.484C128.004 51.7019 128.139 51.9369 128.247 52.1845C128.359 52.4484 128.425 52.7287 128.444 53.014C128.452 53.3138 128.394 53.6119 128.274 53.8879L128.266 53.552C128.492 54.024 128.67 54.5169 128.798 55.0234C128.866 55.2852 128.908 55.5528 128.923 55.8225C128.948 56.1235 128.904 56.4261 128.794 56.7081L128.784 56.421C128.905 56.6867 128.977 56.9716 128.996 57.2622C129.019 57.5747 128.945 57.8866 128.785 58.1578L128.737 57.7719C128.774 57.809 128.801 57.854 128.817 57.9034C128.832 57.9528 128.836 58.0051 128.826 58.056C128.814 58.125 128.779 58.188 128.726 58.2351C128.701 58.2571 128.674 58.2756 128.644 58.2897L128.779 58.1666C128.668 58.3451 128.514 58.4936 128.33 58.5984C128.16 58.7038 127.974 58.7831 127.779 58.8335C127.582 58.8751 127.379 58.8808 127.18 58.8504C127.003 58.8182 126.829 58.7713 126.661 58.7102C126.053 58.5146 125.429 58.3729 124.795 58.2869C124.199 58.1705 123.581 58.2316 123.02 58.4623C122.474 58.828 121.903 59.1575 121.312 59.4484C120.095 60.0138 118.757 60.2874 117.411 60.2466C116.081 60.2053 114.764 59.9795 113.499 59.576L113.555 59.5832C112.177 59.7479 110.82 60.0557 109.509 60.5015C108.181 60.9207 106.885 61.4318 105.606 61.9786C104.334 62.5424 103.071 63.1247 101.837 63.766C100.581 64.379 99.4267 65.1008 98.0923 65.6977C95.417 66.8538 92.4337 67.1374 89.5816 66.5067C88.1643 66.1908 86.8065 65.6581 85.5582 64.9284C84.327 64.1884 83.2077 63.2828 82.2333 62.238L82.2701 62.2713C80.1232 60.5174 78.0286 58.7079 75.9393 56.8898C74.8928 55.9832 73.866 55.0542 72.8589 54.1026C72.353 53.63 71.8549 53.1487 71.3647 52.6586C71.1248 52.4072 70.8776 52.1657 70.6507 51.9013L70.3101 51.5066C70.2037 51.3669 70.1085 51.2157 70.0089 51.0723C70.0012 51.061 69.9983 51.0471 70.0009 51.0337C70.0036 51.0202 70.0115 51.0084 70.0229 51.0006C70.0344 50.9928 70.0485 50.9898 70.0622 50.9921C70.076 50.9944 70.0882 51.0019 70.0963 51.013L70.1034 51.0228Z" fill="black"/>
<path d="M119.929 51.5512C121.026 51.2006 122.155 50.9565 123.299 50.8224C123.876 50.752 124.46 50.7413 125.039 50.7905C125.643 50.8192 126.228 51.0101 126.732 51.3431C126.768 51.3689 126.791 51.4075 126.798 51.4505C126.804 51.4936 126.794 51.5375 126.768 51.5726C126.742 51.6078 126.703 51.6313 126.66 51.6379C126.617 51.6446 126.573 51.6338 126.538 51.6081L126.53 51.6017C126.083 51.2809 125.558 51.0852 125.01 51.0349C124.447 50.9604 123.878 50.944 123.313 50.9859C122.169 51.0653 121.036 51.2546 119.929 51.5512ZM121.427 53.4783C122.456 53.2551 123.502 53.122 124.554 53.0806C125.086 53.0628 125.619 53.0953 126.145 53.1777C126.706 53.2389 127.23 53.491 127.627 53.8919C127.656 53.9245 127.671 53.9673 127.669 54.0108C127.666 54.0543 127.646 54.0949 127.613 54.1238C127.597 54.1381 127.578 54.1491 127.558 54.1562C127.538 54.1632 127.516 54.1662 127.494 54.1649C127.451 54.1622 127.41 54.1424 127.381 54.1098L127.375 54.1025L127.37 54.0953C127.033 53.7331 126.584 53.4948 126.095 53.4188C125.588 53.3126 125.072 53.2543 124.555 53.2448C123.507 53.2316 122.461 53.3098 121.427 53.4783ZM121.979 55.5693C123.046 55.3763 124.134 55.3233 125.215 55.4118C125.764 55.4517 126.304 55.5698 126.819 55.7626C127.357 55.9527 127.83 56.2902 128.186 56.7365C128.199 56.7538 128.208 56.7734 128.214 56.7944C128.219 56.8153 128.22 56.8372 128.217 56.8586C128.214 56.88 128.207 56.9007 128.196 56.9193C128.185 56.9379 128.17 56.9542 128.153 56.9672C128.136 56.9802 128.116 56.9896 128.095 56.9949C128.074 57.0003 128.052 57.0014 128.031 56.9983C128.009 56.9951 127.989 56.9878 127.97 56.9767C127.952 56.9656 127.935 56.9509 127.922 56.9335L127.918 56.9272L127.915 56.9234C127.613 56.5075 127.201 56.1842 126.724 55.99C126.237 55.7794 125.722 55.6396 125.195 55.5748C124.128 55.4332 123.047 55.4314 121.979 55.5693ZM105 3V34.6728L149 38.5727V3H105ZM144.151 33.8455L109.495 31.0091V7.25454L144.151 6.89997V33.8455Z" fill="black"/>
<path d="M111.619 9.80576C111.665 10.7804 111.706 11.716 111.727 12.6364C111.751 13.5579 111.765 14.4642 111.73 15.3793L111.608 15.2564C112.392 15.2828 113.176 15.3219 113.96 15.3255C114.745 15.3333 115.529 15.3152 116.313 15.289L116.223 15.3793C116.189 14.4484 116.164 13.5176 116.156 12.5868C116.138 11.6559 116.136 10.725 116.146 9.79418L116.313 9.96215C115.55 9.96549 114.783 9.92749 114.008 9.90862L111.619 9.80576ZM111.596 9.78239L113.913 9.67951C114.706 9.6607 115.508 9.62272 116.313 9.62604C116.358 9.62648 116.4 9.64433 116.432 9.67576C116.463 9.70719 116.481 9.7497 116.481 9.79414C116.49 10.725 116.489 11.6558 116.471 12.5867C116.463 13.5175 116.438 14.4484 116.404 15.3793L116.403 15.3856C116.403 15.3971 116.4 15.4083 116.396 15.4187C116.391 15.4292 116.384 15.4386 116.376 15.4464C116.367 15.4542 116.358 15.4603 116.347 15.4643C116.336 15.4683 116.325 15.4701 116.313 15.4697C115.529 15.4436 114.745 15.4254 113.96 15.4333C113.176 15.4368 112.392 15.4759 111.608 15.5023C111.592 15.5028 111.576 15.5003 111.562 15.4948C111.547 15.4893 111.534 15.481 111.523 15.4703C111.511 15.4597 111.502 15.4469 111.496 15.4327C111.489 15.4185 111.486 15.4031 111.485 15.3875L111.485 15.3793C111.45 14.4326 111.464 13.4772 111.488 12.537C111.509 11.5956 111.55 10.6695 111.596 9.78239ZM134.19 9.31314C134.271 11.2096 134.326 13.0562 134.375 14.8882C134.431 16.7247 134.456 18.529 134.477 20.3322C134.498 22.1341 134.47 23.9159 134.411 25.7072C134.361 27.4988 134.288 29.3043 134.282 31.1177L134.163 30.9982C135.235 31.0131 136.306 30.9851 137.378 30.9807C138.45 30.9729 139.521 30.9318 140.593 30.9089L140.385 31.1177C140.326 29.2984 140.282 27.4791 140.254 25.6598L140.193 20.202C140.179 18.3826 140.184 16.5633 140.207 14.7441L140.308 9.28616L140.593 9.57211L137.448 9.45516L134.19 9.31314ZM134.136 9.25916L137.308 9.11718L140.593 9.00017C140.629 8.99889 140.665 9.00475 140.699 9.01742C140.733 9.0301 140.764 9.04934 140.791 9.07404C140.817 9.09875 140.839 9.12844 140.854 9.16142C140.869 9.19439 140.877 9.23001 140.878 9.26623L140.878 9.26944L140.879 9.28619L140.979 14.7441C141.001 16.5634 141.006 18.3827 140.994 20.202L140.932 25.6599C140.902 27.4792 140.859 29.2985 140.802 31.1178L140.801 31.1291C140.8 31.1828 140.777 31.2337 140.738 31.2707C140.699 31.3076 140.647 31.3278 140.593 31.3266C139.521 31.3038 138.45 31.2626 137.378 31.2549C136.306 31.2504 135.235 31.2225 134.163 31.2374C134.148 31.2376 134.132 31.2347 134.118 31.229C134.103 31.2233 134.09 31.2148 134.079 31.204C134.068 31.1932 134.059 31.1803 134.053 31.1661C134.047 31.1518 134.044 31.1365 134.044 31.121L134.044 31.1178C134.038 29.2927 133.965 27.4595 133.915 25.6125C133.856 23.7652 133.828 21.9084 133.849 20.0718C133.87 18.2363 133.895 16.402 133.951 14.5999C134 12.7933 134.055 11.0013 134.136 9.25916ZM129.514 40.1404V37.0238L124.65 36.5916V39.6514C121.696 39.7313 119.496 40.5429 119.38 41.7402C119.234 43.2427 122.425 44.7822 126.505 45.179C130.586 45.5756 134.013 44.6791 134.158 43.1767C134.273 41.9969 132.329 40.7945 129.514 40.1404ZM84.0076 44.9152C86.4215 43.374 88.8634 41.8797 91.3134 40.3991C91.3421 40.3822 91.3757 40.3758 91.4085 40.3809C93.6755 40.7298 95.9341 41.13 98.1918 41.5359C100.449 41.9475 102.713 42.3111 104.981 42.6524L111.785 43.6805C114.051 44.0392 116.319 44.3801 118.581 44.7604C118.625 44.7677 118.665 44.7926 118.692 44.8295C118.718 44.8663 118.729 44.9122 118.722 44.957C118.714 45.0006 118.691 45.0396 118.656 45.0663C116.976 46.3295 115.285 47.5767 113.582 48.8081L111.036 50.6671L108.474 52.5045C108.471 52.507 108.466 52.5081 108.462 52.5074C108.458 52.5067 108.454 52.5044 108.451 52.501C108.449 52.4975 108.448 52.4932 108.448 52.4889C108.449 52.4846 108.451 52.4808 108.454 52.4781L110.937 50.5345L113.436 48.6126C115.099 47.3276 116.771 46.0541 118.451 44.7923L118.526 45.0982C116.26 44.7437 114 44.3498 111.738 43.9738L104.958 42.7975C102.698 42.4041 100.435 42.0329 98.1637 41.7097C95.8935 41.3809 93.6243 41.0462 91.3633 40.6605L91.4583 40.6422C88.9951 42.1007 86.5237 43.5455 84.0245 44.9434C84.0207 44.9455 84.0163 44.9461 84.0122 44.945C84.0081 44.9439 84.0045 44.9412 84.0023 44.9375C84.0001 44.9338 83.9995 44.9294 84.0004 44.9252C84.0014 44.9211 84.004 44.9175 84.0076 44.9152ZM86.9336 47.9495C88.3218 48.3053 89.6994 48.6956 91.0753 49.0913L95.1913 50.3172L99.285 51.616C100.645 52.0623 102.004 52.5135 103.352 53C101.964 52.6447 100.587 52.2542 99.2106 51.8587L95.0947 50.6323L91.0013 49.3329C89.6408 48.8868 88.2819 48.4354 86.9336 47.9495Z" fill="black"/>
<path d="M133.295 41.1183C134.163 40.9946 135.041 40.9678 135.915 41.0384C136.813 41.0835 137.693 41.3205 138.501 41.7348C138.923 41.9648 139.286 42.2969 139.562 42.7035C139.836 43.128 139.988 43.6263 139.999 44.1388C140.008 44.6309 139.937 45.1209 139.791 45.5884C139.661 46.0696 139.439 46.5179 139.138 46.9055C138.837 47.2932 138.467 47.6168 138.05 47.8587C137.657 48.0961 137.246 48.2967 136.82 48.4582C135.972 48.789 135.079 48.9714 134.175 48.998C133.283 49.0174 132.393 48.896 131.535 48.6378C130.713 48.3719 129.837 48.344 129 48.557C129.391 48.3343 129.827 48.2118 130.272 48.1996C130.716 48.1693 131.161 48.1855 131.602 48.2481C132.44 48.4063 133.294 48.4516 134.142 48.383C134.978 48.3117 135.8 48.115 136.582 47.799C136.971 47.6411 137.348 47.453 137.711 47.2364C138.06 47.043 138.37 46.7803 138.624 46.4629C138.879 46.1455 139.073 45.7805 139.198 45.3872C139.335 44.9915 139.408 44.5745 139.414 44.1535C139.422 43.7493 139.32 43.3512 139.12 43.0052C138.904 42.6559 138.612 42.3645 138.269 42.1544C137.53 41.7225 136.721 41.4385 135.883 41.3169C135.027 41.1739 134.161 41.1074 133.295 41.1183Z" fill="black"/>
<path d="M130.927 50.6905C130.927 50.6905 130.774 55.2569 128.115 58C128.222 57.7782 128.273 57.5377 128.267 57.2956C128.26 57.0535 128.195 56.8157 128.076 56.5992C128.503 55.6632 127.478 53.7911 127.478 53.7911C128.076 52.543 126.538 51.295 126.538 51.295C126.538 51.295 127.478 49.5009 125 48.8769C125 48.8769 131.771 45.9908 130.927 50.6905Z" fill="black"/>
<path d="M143.794 85C143.772 85.0002 143.75 84.9968 143.728 84.9899L101.073 71.2211C101.047 71.2126 101.022 71.1991 101.001 71.1815C100.98 71.1638 100.963 71.1422 100.951 71.118C100.938 71.0939 100.931 71.0675 100.929 71.0405C100.927 71.0135 100.93 70.9864 100.939 70.9607C100.948 70.935 100.961 70.9112 100.979 70.8907C100.998 70.8702 101.02 70.8534 101.044 70.8412C101.069 70.8291 101.096 70.8218 101.124 70.8198C101.151 70.8178 101.179 70.8211 101.206 70.8296L143.771 84.5698L198.578 53.9697V51.5151L96.9324 33.4188L80.2864 39.6861C80.2343 39.7056 80.1763 39.704 80.1253 39.6819C80.0742 39.6597 80.0343 39.6187 80.0142 39.5678C79.994 39.517 79.9954 39.4604 80.0179 39.4105C80.0405 39.3606 80.0823 39.3215 80.1344 39.3017L96.8357 33.0133C96.8722 33.0005 96.9113 32.9969 96.9496 33.0027L198.827 51.1402C198.875 51.149 198.919 51.174 198.951 51.211C198.983 51.2481 199 51.2948 199 51.343V54.0894C199 54.1257 198.99 54.1614 198.972 54.1928C198.953 54.2242 198.926 54.2501 198.894 54.2681L143.899 84.9728C143.867 84.9907 143.831 85 143.794 85Z" fill="black"/>
<path d="M144.147 83C144.13 83 144.113 82.9974 144.097 82.9922L99.1146 68.6388C99.094 68.6323 99.075 68.6217 99.0585 68.6077C99.042 68.5937 99.0284 68.5765 99.0184 68.5572C98.9984 68.5182 98.9945 68.4728 99.0077 68.4309C99.0208 68.3891 99.0499 68.3542 99.0886 68.334C99.1273 68.3138 99.1723 68.3099 99.2138 68.3231L144.127 82.6543L198.754 51.022C198.772 51.0111 198.793 51.0041 198.814 51.0014C198.836 50.9986 198.858 51.0001 198.879 51.0058C198.899 51.0115 198.919 51.0213 198.936 51.0346C198.953 51.0479 198.967 51.0645 198.978 51.0834C198.989 51.1023 198.996 51.1231 198.999 51.1447C199.001 51.1664 199 51.1883 198.994 51.2093C198.989 51.2304 198.979 51.2501 198.966 51.2673C198.953 51.2846 198.936 51.299 198.917 51.3098L144.228 82.9783C144.203 82.9926 144.175 83.0001 144.147 83Z" fill="black"/>
<path d="M143.632 85C143.537 85 143.447 84.9834 143.378 84.9536C143.31 84.9237 143.27 84.883 143.265 84.8399L143 82.1758C142.998 82.1538 143.005 82.1317 143.022 82.1109C143.038 82.0901 143.063 82.071 143.096 82.0547C143.129 82.0383 143.168 82.0251 143.212 82.0157C143.255 82.0063 143.303 82.001 143.351 82C143.447 81.9995 143.541 82.0158 143.612 82.0455C143.683 82.0752 143.727 82.1162 143.735 82.1601L144 84.8242C144.002 84.8463 143.995 84.8683 143.978 84.8891C143.962 84.9099 143.937 84.929 143.904 84.9454C143.871 84.9617 143.832 84.9749 143.788 84.9843C143.745 84.9937 143.697 84.999 143.649 85H143.632Z" fill="black"/>
<path d="M143.957 84.6365L144.285 104.708L144.531 124.78C144.62 131.471 144.803 138.161 144.695 144.852C144.636 148.197 144.577 151.543 144.447 154.888L144.249 159.906C144.151 161.579 144.083 163.251 143.957 164.924C143.956 164.945 143.946 164.964 143.931 164.978C143.916 164.992 143.896 165 143.875 165C143.854 165 143.834 164.992 143.819 164.978C143.804 164.964 143.795 164.945 143.793 164.924C143.667 163.251 143.599 161.579 143.501 159.906L143.303 154.888C143.173 151.543 143.114 148.197 143.055 144.852C142.947 138.161 143.13 131.471 143.219 124.78L143.465 104.708L143.793 84.6365C143.793 84.6149 143.802 84.5944 143.818 84.5793C143.833 84.5642 143.854 84.5557 143.875 84.5557C143.897 84.5557 143.917 84.5642 143.933 84.5793C143.948 84.5944 143.957 84.6149 143.957 84.6365ZM194.229 57.0809L194.557 77.1528L194.803 97.2246C194.892 103.915 195.075 110.606 194.967 117.296C194.908 120.642 194.849 123.987 194.719 127.332L194.521 132.35C194.423 134.023 194.355 135.696 194.229 137.368C194.227 137.389 194.218 137.408 194.203 137.422C194.188 137.437 194.168 137.444 194.147 137.444C194.126 137.444 194.106 137.437 194.091 137.422C194.076 137.408 194.066 137.389 194.065 137.368C193.939 135.696 193.871 134.023 193.772 132.35L193.575 127.332C193.445 123.987 193.386 120.642 193.326 117.296C193.219 110.606 193.402 103.915 193.491 97.2246L193.737 77.1528L194.065 57.0809C194.065 57.0594 194.074 57.0388 194.089 57.0236C194.105 57.0085 194.125 57 194.147 57C194.168 57 194.189 57.0085 194.204 57.0236C194.22 57.0388 194.228 57.0594 194.229 57.0809ZM110.63 112.223C110.63 112.223 114.383 112.536 127.275 121.39C129.384 122.866 131.965 123.509 134.519 123.195C135.2 123.119 135.867 122.948 136.5 122.686C136.5 122.686 146.305 125.221 137.563 126.876C137.563 126.876 125.041 127.23 115.709 120.377L115.827 124.158H111.102C111.102 124.158 108.976 114.35 110.63 112.223Z" fill="black"/>
<path d="M114.785 98C115.521 99.2229 116.22 100.465 116.939 101.697L119.032 105.427C119.738 106.665 120.401 107.929 121.085 109.175C121.762 110.405 122.571 111.56 123.498 112.619C123.953 113.155 124.437 113.666 124.947 114.152C125.455 114.634 126.005 115.091 126.548 115.558C127.633 116.488 128.747 117.385 129.848 118.295C130.956 119.198 132.083 120.078 133.249 120.902C133.827 121.321 134.419 121.722 135.033 122.086L135.498 122.351L135.979 122.585C136.301 122.741 136.645 122.848 137 122.902C136.276 122.826 135.577 122.6 134.948 122.239C134.302 121.913 133.677 121.55 133.065 121.168C131.851 120.391 130.682 119.551 129.529 118.692C128.371 117.839 127.265 116.923 126.155 116.013C125.605 115.554 125.045 115.103 124.508 114.607C122.896 113.129 121.557 111.386 120.551 109.456C119.889 108.19 119.216 106.937 118.58 105.661L116.652 101.846C116.03 100.564 115.388 99.2916 114.785 98ZM105.971 106.692C106.935 107.489 107.815 108.38 108.598 109.35C109.405 110.302 110.112 111.332 110.709 112.424C109.744 111.627 108.864 110.736 108.081 109.765C107.276 108.812 106.569 107.783 105.971 106.692ZM83.3237 141.218C83.3237 141.218 87.146 141.028 101.329 148.097C103.653 149.28 106.339 149.574 108.87 148.921C109.546 148.755 110.194 148.497 110.796 148.153C110.796 148.153 121.015 149.361 112.434 152.168C112.434 152.168 99.8696 154.19 89.5428 148.633L90.1733 152.37L85.414 153C85.414 153 81.9456 143.55 83.3237 141.218Z" fill="black"/>
<path d="M91.2894 129.301C91.6014 130.463 91.8719 131.633 92.1643 132.798L92.5688 134.553C92.6809 135.127 92.8598 135.686 93.1018 136.219C93.3455 136.74 93.6562 137.228 94.0262 137.669C94.4064 138.111 94.8214 138.542 95.2458 138.951C96.0941 139.774 97.0133 140.521 97.9928 141.183C99.9826 142.501 102.011 143.792 104.056 145.032C105.081 145.652 106.118 146.25 107.183 146.792C107.709 147.075 108.249 147.33 108.801 147.557C109.344 147.809 109.929 147.956 110.526 147.993C109.919 148.028 109.311 147.936 108.742 147.722C108.166 147.539 107.599 147.326 107.044 147.084C105.939 146.595 104.866 146.043 103.804 145.473C101.681 144.325 99.6445 143.051 97.6215 141.729C96.6142 141.038 95.6725 140.257 94.8082 139.395C94.3788 138.959 93.9709 138.514 93.5802 138.035C93.1875 137.547 92.8698 137.002 92.6378 136.42C92.4106 135.845 92.2508 135.247 92.1617 134.636L91.8489 132.862C91.6632 131.675 91.4556 130.492 91.2894 129.301ZM83.0007 132.202C83.2873 133.653 83.4512 135.126 83.4907 136.604C83.56 138.082 83.5033 139.563 83.3212 141.03C83.0332 139.58 82.8693 138.107 82.8312 136.628C82.7634 135.151 82.8201 133.67 83.0007 132.202ZM72.0641 14.7205C71.3908 14.7864 70.7122 14.6707 70.0989 14.3854C69.7789 14.2441 69.4984 14.0267 69.2819 13.7522C69.0664 13.4763 68.9683 13.1266 69.009 12.779C69.0999 13.0772 69.2584 13.3504 69.4722 13.5775C69.686 13.8045 69.9493 13.9792 70.2416 14.088C70.8318 14.3458 71.4411 14.5573 72.0641 14.7205ZM135.922 11.577C136.127 11.5699 136.321 11.4838 136.463 11.3367C136.605 11.1896 136.684 10.993 136.684 10.7885C136.684 10.584 136.605 10.3875 136.463 10.2404C136.321 10.0933 136.127 10.0071 135.922 10C135.718 10.0071 135.524 10.0933 135.382 10.2404C135.24 10.3875 135.16 10.584 135.16 10.7885C135.16 10.993 135.24 11.1896 135.382 11.3367C135.524 11.4838 135.718 11.5699 135.922 11.577ZM136.048 15.9296C136.253 15.9225 136.447 15.8363 136.589 15.6892C136.731 15.5421 136.811 15.3456 136.811 15.1411C136.811 14.9365 136.731 14.74 136.589 14.5929C136.447 14.4458 136.253 14.3596 136.048 14.3526C135.844 14.3596 135.65 14.4458 135.508 14.5929C135.366 14.74 135.286 14.9365 135.286 15.1411C135.286 15.3456 135.366 15.5421 135.508 15.6892C135.65 15.8363 135.844 15.9225 136.048 15.9296ZM136.112 20.5975C136.316 20.5905 136.51 20.5043 136.652 20.3572C136.794 20.2101 136.874 20.0136 136.874 19.809C136.874 19.6045 136.794 19.408 136.652 19.2609C136.51 19.1138 136.316 19.0276 136.112 19.0205C135.907 19.0276 135.713 19.1138 135.571 19.2609C135.429 19.408 135.349 19.6045 135.349 19.809C135.349 20.0136 135.429 20.2101 135.571 20.3572C135.713 20.5043 135.907 20.5905 136.112 20.5975ZM136.112 25.7702C136.316 25.7631 136.51 25.6769 136.652 25.5298C136.794 25.3827 136.874 25.1862 136.874 24.9816C136.874 24.7771 136.794 24.5806 136.652 24.4335C136.51 24.2864 136.316 24.2002 136.112 24.1931C135.907 24.2002 135.713 24.2864 135.571 24.4335C135.429 24.5806 135.349 24.7771 135.349 24.9816C135.349 25.1862 135.429 25.3827 135.571 25.5298C135.713 25.6769 135.907 25.7631 136.112 25.7702ZM136.238 29.9335C136.442 29.9264 136.636 29.8402 136.778 29.6931C136.921 29.546 137 29.3495 137 29.145C137 28.9404 136.921 28.7439 136.778 28.5968C136.636 28.4497 136.442 28.3635 136.238 28.3565C136.033 28.3635 135.84 28.4497 135.697 28.5968C135.555 28.7439 135.476 28.9404 135.476 29.145C135.476 29.3495 135.555 29.546 135.697 29.6931C135.84 29.8402 136.033 29.9264 136.238 29.9335ZM114.138 12.5177C114.253 12.5171 114.364 12.4843 114.461 12.4231C114.557 12.3619 114.635 12.2747 114.684 12.1716C114.764 11.9918 114.819 11.8015 114.847 11.6065C114.872 11.5022 114.875 11.3939 114.856 11.2883C114.837 11.1828 114.796 11.0824 114.736 10.9934C114.663 10.9103 114.569 10.8485 114.464 10.8145C114.359 10.7806 114.246 10.7757 114.138 10.8004C113.946 10.8393 113.772 10.9419 113.646 11.0917C113.54 11.2426 113.483 11.4227 113.484 11.6071C113.48 11.7998 113.518 11.9911 113.597 12.1671C113.645 12.2704 113.722 12.3582 113.817 12.4202C113.913 12.4822 114.024 12.516 114.138 12.5177ZM114.138 12.5644C113.87 12.581 113.603 12.5155 113.372 12.3766C113.251 12.2882 113.153 12.1722 113.086 12.0384C113.019 11.9045 112.985 11.7566 112.986 11.6069C112.984 11.4552 113.012 11.3047 113.071 11.1647C113.129 11.0246 113.215 10.8979 113.324 10.7924C113.431 10.6898 113.56 10.6139 113.701 10.5708C113.843 10.5277 113.993 10.5187 114.138 10.5446C114.404 10.5858 114.651 10.7062 114.847 10.8901C115.057 11.0754 115.195 11.3294 115.236 11.6067C115.253 11.7525 115.23 11.9002 115.171 12.0346C115.112 12.169 115.018 12.2852 114.899 12.3713C114.671 12.5108 114.405 12.5781 114.138 12.5644Z" fill="black"/>
<path d="M116.212 14.814C115.724 14.8965 115.233 14.9517 114.739 14.9796C114.474 14.9913 114.207 15.0051 113.937 14.9981C113.666 14.9918 113.396 14.9561 113.133 14.9313L113.107 14.9287C113.091 14.9272 113.076 14.9228 113.063 14.9155C113.049 14.9082 113.037 14.8983 113.027 14.8863C113.017 14.8743 113.01 14.8605 113.005 14.8457C113.001 14.8308 112.999 14.8152 113.001 14.7997L113.001 14.7975C113.038 14.5107 113.059 14.2219 113.063 13.9326C113.045 13.6305 113.087 13.3278 113.188 13.0429C113.307 12.7358 113.514 12.4715 113.782 12.2836C114.051 12.0957 114.369 11.9928 114.695 11.988C115.022 11.9832 115.343 12.0767 115.617 12.2566C115.89 12.4365 116.105 12.6946 116.233 12.998C116.356 13.299 116.392 13.6291 116.337 13.95C116.305 14.2668 116.253 14.5617 116.212 14.814ZM116.179 14.7811L116.054 13.9152C116.04 13.6596 115.971 13.4101 115.85 13.1847C115.727 12.9736 115.555 12.7962 115.348 12.6678C115.141 12.5395 114.907 12.4641 114.664 12.4483C114.41 12.4418 114.159 12.5022 113.935 12.6234C113.711 12.7446 113.522 12.9226 113.386 13.1397C113.245 13.3782 113.181 13.6555 113.204 13.9325C113.208 14.2218 113.228 14.5107 113.266 14.7975L113.133 14.6639C113.381 14.6391 113.621 14.6033 113.861 14.597C114.101 14.59 114.344 14.6038 114.59 14.6155C115.083 14.6456 115.598 14.7058 116.179 14.7811ZM119.129 9.1813C119.175 10.1634 119.216 11.1062 119.237 12.0336C119.261 12.9622 119.275 13.8754 119.24 14.7975L119.117 14.6737C119.902 14.7003 120.687 14.7396 121.472 14.7433C122.257 14.7512 123.042 14.7329 123.826 14.7065L123.736 14.7975C123.702 13.8595 123.677 12.9215 123.669 11.9836C123.651 11.0456 123.65 10.1076 123.659 9.16963L123.826 9.33889C123.063 9.34225 122.295 9.30396 121.519 9.28495L119.129 9.1813ZM119.106 9.15775L121.425 9.05408C122.218 9.03513 123.021 8.99686 123.826 9.00021C123.871 9.00064 123.913 9.01863 123.945 9.05031C123.976 9.08198 123.994 9.12481 123.994 9.16959C124.004 10.1075 124.002 11.0455 123.984 11.9835C123.976 12.9215 123.951 13.8595 123.917 14.7975L123.917 14.8038C123.916 14.8154 123.914 14.8267 123.909 14.8372C123.904 14.8477 123.897 14.8572 123.889 14.8651C123.881 14.8729 123.871 14.8791 123.86 14.8831C123.849 14.8871 123.838 14.889 123.826 14.8886C123.042 14.8622 122.257 14.8439 121.472 14.8519C120.687 14.8555 119.902 14.8948 119.117 14.9214C119.102 14.9219 119.086 14.9194 119.072 14.9138C119.057 14.9083 119.044 14.8999 119.032 14.8892C119.021 14.8785 119.012 14.8656 119.005 14.8513C118.999 14.8369 118.995 14.8215 118.995 14.8058L118.995 14.7975C118.96 13.8436 118.974 12.8808 118.998 11.9335C119.019 10.9848 119.06 10.0517 119.106 9.15775Z" fill="black"/>
<path d="M121.022 12.9516C121.123 12.951 121.222 12.9188 121.308 12.8587C121.394 12.7986 121.462 12.7131 121.506 12.6118C121.577 12.4352 121.626 12.2484 121.65 12.0569C121.672 11.9545 121.675 11.8481 121.658 11.7445C121.641 11.6409 121.605 11.5422 121.552 11.4548C121.487 11.3733 121.404 11.3126 121.311 11.2792C121.217 11.2459 121.118 11.2411 121.022 11.2654C120.851 11.3035 120.698 11.4043 120.585 11.5514C120.491 11.6996 120.441 11.8764 120.442 12.0575C120.438 12.2467 120.472 12.4346 120.542 12.6074C120.585 12.7089 120.652 12.795 120.737 12.8559C120.822 12.9168 120.921 12.95 121.022 12.9516ZM121.022 12.9975C120.784 13.0138 120.547 12.9495 120.343 12.8131C120.235 12.7263 120.148 12.6124 120.089 12.481C120.029 12.3496 119.999 12.2043 120 12.0573C119.998 11.9084 120.024 11.7606 120.075 11.623C120.127 11.4855 120.203 11.3611 120.3 11.2575C120.394 11.1568 120.509 11.0822 120.635 11.0399C120.76 10.9976 120.893 10.9888 121.022 11.0142C121.258 11.0546 121.477 11.1729 121.651 11.3534C121.837 11.5354 121.959 11.7848 121.995 12.0571C122.01 12.2003 121.99 12.3453 121.938 12.4773C121.885 12.6092 121.802 12.7233 121.696 12.8079C121.494 12.9449 121.259 13.0109 121.022 12.9975Z" fill="black"/>
<path d="M122.175 14.814C121.693 14.8965 121.207 14.9517 120.719 14.9796C120.458 14.9913 120.194 15.0051 119.926 14.9981C119.659 14.9918 119.391 14.9561 119.132 14.9313L119.105 14.9287C119.09 14.9272 119.075 14.9228 119.062 14.9155C119.048 14.9082 119.036 14.8983 119.027 14.8863C119.017 14.8743 119.01 14.8605 119.005 14.8457C119.001 14.8308 118.999 14.8152 119.001 14.7997L119.001 14.7975C119.038 14.5107 119.058 14.2219 119.062 13.9326C119.044 13.6305 119.086 13.3278 119.186 13.0429C119.303 12.7358 119.508 12.4715 119.773 12.2836C120.039 12.0957 120.353 11.9928 120.676 11.988C120.999 11.9832 121.316 12.0767 121.587 12.2566C121.858 12.4365 122.07 12.6946 122.196 12.998C122.318 13.299 122.354 13.6291 122.299 13.95C122.268 14.2668 122.216 14.5617 122.175 14.814ZM122.143 14.7811L122.019 13.9152C122.006 13.6596 121.937 13.4101 121.818 13.1847C121.696 12.9736 121.526 12.7962 121.322 12.6678C121.117 12.5395 120.885 12.4641 120.646 12.4483C120.394 12.4418 120.146 12.5022 119.924 12.6234C119.702 12.7446 119.516 12.9226 119.382 13.1397C119.242 13.3782 119.179 13.6555 119.201 13.9325C119.205 14.2218 119.226 14.5107 119.263 14.7975L119.132 14.6639C119.377 14.6391 119.614 14.6033 119.851 14.597C120.088 14.59 120.329 14.6038 120.572 14.6155C121.06 14.6456 121.569 14.7058 122.143 14.7811ZM125.184 9.1813C125.23 10.1634 125.27 11.1062 125.291 12.0336C125.314 12.9622 125.329 13.8754 125.294 14.7975L125.173 14.6737C125.949 14.7003 126.725 14.7396 127.5 14.7433C128.276 14.7512 129.052 14.7329 129.828 14.7065L129.739 14.7975C129.705 13.8595 129.681 12.9215 129.672 11.9836C129.654 11.0456 129.653 10.1076 129.662 9.16963L129.828 9.33889C129.073 9.34225 128.315 9.30396 127.547 9.28495L125.184 9.1813ZM125.161 9.15775L127.454 9.05408C128.238 9.03513 129.032 8.99686 129.828 9.00021C129.872 9.00064 129.914 9.01863 129.945 9.0503C129.976 9.08197 129.994 9.12481 129.994 9.16959C130.003 10.1075 130.002 11.0455 129.985 11.9835C129.976 12.9215 129.952 13.8595 129.918 14.7975L129.917 14.8038C129.917 14.8154 129.914 14.8267 129.91 14.8372C129.905 14.8477 129.898 14.8572 129.89 14.8651C129.882 14.8729 129.872 14.8791 129.862 14.8831C129.851 14.8871 129.84 14.889 129.828 14.8886C129.052 14.8622 128.276 14.8439 127.5 14.8519C126.725 14.8555 125.949 14.8948 125.173 14.9214C125.157 14.9219 125.142 14.9194 125.127 14.9138C125.113 14.9083 125.1 14.8999 125.088 14.8892C125.077 14.8785 125.068 14.8656 125.062 14.8513C125.055 14.8369 125.052 14.8215 125.051 14.8058L125.051 14.7975C125.016 13.8436 125.031 12.8808 125.054 11.9335C125.075 10.9848 125.115 10.0517 125.161 9.15775Z" fill="black"/>
<path d="M127.533 12.9516C127.685 12.951 127.834 12.9188 127.962 12.8587C128.091 12.7986 128.193 12.7131 128.259 12.6118C128.366 12.4353 128.439 12.2484 128.475 12.0569C128.508 11.9545 128.513 11.8481 128.487 11.7445C128.462 11.6409 128.408 11.5422 128.328 11.4548C128.231 11.3733 128.106 11.3126 127.966 11.2792C127.826 11.2459 127.676 11.2411 127.533 11.2654C127.277 11.3035 127.046 11.4043 126.878 11.5514C126.737 11.6996 126.662 11.8764 126.663 12.0575C126.657 12.2467 126.709 12.4346 126.813 12.6074C126.877 12.7089 126.979 12.795 127.106 12.8559C127.233 12.9168 127.381 12.95 127.533 12.9516ZM127.533 12.9975C127.176 13.0138 126.82 12.9495 126.514 12.8131C126.353 12.7263 126.223 12.6124 126.133 12.481C126.044 12.3496 125.998 12.2043 126 12.0573C125.997 11.9084 126.035 11.7606 126.113 11.623C126.19 11.4855 126.305 11.3611 126.45 11.2575C126.592 11.1568 126.764 11.0822 126.952 11.0399C127.14 10.9976 127.339 10.9888 127.533 11.0142C127.886 11.0546 128.215 11.1728 128.476 11.3534C128.756 11.5354 128.939 11.7848 128.993 12.0571C129.015 12.2003 128.985 12.3453 128.907 12.4773C128.828 12.6092 128.703 12.7234 128.545 12.8079C128.241 12.9449 127.888 13.011 127.533 12.9975Z" fill="black"/>
<path d="M128.853 14.8483C128.379 14.9314 127.9 14.9871 127.419 15.0151C127.161 15.0269 126.901 15.0409 126.638 15.0338C126.374 15.0274 126.111 14.9914 125.855 14.9664L125.829 14.9638C125.814 14.9624 125.799 14.9578 125.786 14.9505C125.773 14.9432 125.761 14.9332 125.752 14.9211C125.742 14.9091 125.735 14.8951 125.73 14.8801C125.726 14.8652 125.724 14.8494 125.726 14.8338L125.726 14.8317C125.762 14.5426 125.783 14.2515 125.787 13.9599C125.769 13.6555 125.81 13.3505 125.908 13.0633C126.024 12.7539 126.226 12.4875 126.487 12.2981C126.749 12.1088 127.058 12.005 127.377 12.0002C127.695 11.9953 128.007 12.0896 128.274 12.2709C128.541 12.4522 128.749 12.7123 128.874 13.0181C128.994 13.3214 129.029 13.6541 128.976 13.9775C128.945 14.2968 128.893 14.594 128.853 14.8483ZM128.822 14.8151L128.7 13.9424C128.686 13.6848 128.619 13.4334 128.501 13.2062C128.382 12.9935 128.214 12.8147 128.012 12.6853C127.811 12.556 127.582 12.48 127.346 12.4641C127.099 12.4576 126.854 12.5184 126.636 12.6405C126.417 12.7627 126.233 12.942 126.102 13.1609C125.964 13.4012 125.901 13.6807 125.923 13.9599C125.927 14.2515 125.948 14.5425 125.984 14.8316L125.855 14.697C126.097 14.672 126.33 14.6359 126.564 14.6296C126.797 14.6225 127.034 14.6364 127.274 14.6482C127.754 14.6785 128.256 14.7392 128.822 14.8151ZM122.151 16.215C122.196 17.2048 122.236 18.155 122.257 19.0895C122.279 20.0254 122.294 20.9457 122.26 21.8751L122.14 21.7503C122.904 21.7771 123.669 21.8167 124.433 21.8204C125.198 21.8283 125.962 21.8099 126.727 21.7834L126.639 21.8751C126.605 20.9297 126.581 19.9844 126.573 19.0392C126.555 18.0938 126.554 17.1485 126.563 16.2032L126.727 16.3738C125.983 16.3772 125.235 16.3386 124.479 16.3195L122.151 16.215ZM122.129 16.1913L124.387 16.0868C125.16 16.0677 125.942 16.0291 126.727 16.0325C126.77 16.0329 126.811 16.0511 126.842 16.083C126.872 16.1149 126.89 16.1581 126.89 16.2032C126.899 17.1485 126.898 18.0938 126.881 19.0391C126.872 19.9844 126.848 20.9297 126.815 21.875L126.814 21.8815C126.814 21.8931 126.811 21.9045 126.807 21.9151C126.802 21.9257 126.796 21.9352 126.788 21.9432C126.779 21.9511 126.77 21.9573 126.759 21.9613C126.749 21.9654 126.738 21.9672 126.727 21.9668C125.962 21.9403 125.198 21.9218 124.433 21.9299C123.669 21.9334 122.904 21.9731 122.14 21.9999C122.109 22.001 122.08 21.9893 122.057 21.9675C122.035 21.9456 122.022 21.9154 122.021 21.8835L122.02 21.875C121.986 20.9137 122 19.9434 122.023 18.9887C122.044 18.0326 122.084 17.0922 122.129 16.1913Z" fill="black"/>
<path d="M125.022 18.9758C125.123 18.9755 125.222 18.9594 125.308 18.9294C125.394 18.8993 125.462 18.8565 125.506 18.8059C125.577 18.7176 125.626 18.6242 125.65 18.5284C125.672 18.4772 125.675 18.4241 125.658 18.3722C125.641 18.3204 125.605 18.2711 125.552 18.2274C125.487 18.1866 125.404 18.1563 125.311 18.1396C125.217 18.123 125.118 18.1206 125.022 18.1327C124.851 18.1517 124.698 18.2022 124.585 18.2757C124.491 18.3498 124.441 18.4382 124.442 18.5287C124.438 18.6234 124.472 18.7173 124.542 18.8037C124.585 18.8544 124.652 18.8975 124.737 18.928C124.822 18.9584 124.921 18.975 125.022 18.9758ZM125.022 18.9988C124.784 19.0069 124.547 18.9747 124.343 18.9065C124.235 18.8631 124.148 18.8062 124.089 18.7405C124.029 18.6748 123.999 18.6022 124 18.5286C123.998 18.4542 124.024 18.3803 124.075 18.3115C124.127 18.2427 124.203 18.1805 124.3 18.1288C124.394 18.0784 124.509 18.0411 124.635 18.0199C124.76 17.9988 124.893 17.9944 125.022 18.0071C125.258 18.0273 125.477 18.0864 125.651 18.1767C125.837 18.2677 125.959 18.3924 125.995 18.5285C126.01 18.6002 125.99 18.6727 125.938 18.7386C125.885 18.8046 125.802 18.8617 125.696 18.904C125.494 18.9724 125.259 19.0055 125.022 18.9988Z" fill="black"/>
<path d="M125.857 22.7251C125.393 22.8063 124.926 22.8607 124.456 22.8881C124.204 22.8997 123.95 22.9133 123.693 22.9063C123.436 22.9001 123.178 22.8649 122.929 22.8405L122.903 22.838C122.889 22.8366 122.875 22.8322 122.862 22.825C122.849 22.8178 122.837 22.8081 122.828 22.7963C122.818 22.7845 122.811 22.7709 122.807 22.7562C122.803 22.7416 122.801 22.7262 122.803 22.7109L122.803 22.7088C122.838 22.4264 122.858 22.142 122.862 21.8571C122.844 21.5597 122.885 21.2617 122.981 20.9811C123.094 20.6787 123.291 20.4184 123.546 20.2334C123.801 20.0484 124.104 19.947 124.415 19.9423C124.725 19.9376 125.03 20.0296 125.291 20.2068C125.551 20.3839 125.755 20.6381 125.877 20.9369C125.994 21.2332 126.029 21.5583 125.976 21.8743C125.946 22.1862 125.896 22.4766 125.857 22.7251ZM125.826 22.6926L125.707 21.84C125.694 21.5883 125.628 21.3426 125.513 21.1207C125.396 20.9128 125.232 20.7381 125.035 20.6117C124.839 20.4853 124.616 20.4111 124.385 20.3956C124.143 20.3892 123.904 20.4486 123.691 20.5679C123.478 20.6873 123.298 20.8625 123.169 21.0764C123.035 21.3112 122.974 21.5842 122.996 21.8571C122.999 22.1419 123.019 22.4263 123.055 22.7088L122.929 22.5772C123.165 22.5528 123.393 22.5176 123.621 22.5114C123.849 22.5044 124.08 22.5181 124.314 22.5296C124.783 22.5592 125.273 22.6185 125.826 22.6926ZM115.227 17.1785C115.27 18.1456 115.309 19.074 115.329 19.9871C115.352 20.9016 115.366 21.8008 115.332 22.7088L115.215 22.5869C115.962 22.613 116.708 22.6518 117.455 22.6554C118.202 22.6632 118.948 22.6451 119.695 22.6192L119.609 22.7088C119.576 21.7852 119.553 20.8615 119.544 19.9379C119.527 19.0143 119.526 18.0906 119.535 17.167L119.695 17.3337C118.968 17.337 118.238 17.2993 117.5 17.2807L115.227 17.1785ZM115.204 17.1554L117.41 17.0533C118.165 17.0346 118.928 16.9969 119.695 17.0002C119.737 17.0006 119.777 17.0184 119.807 17.0495C119.837 17.0807 119.854 17.1229 119.854 17.167C119.863 18.0906 119.862 19.0143 119.845 19.9379C119.837 20.8615 119.813 21.7851 119.781 22.7088L119.78 22.7151C119.78 22.7264 119.777 22.7376 119.773 22.7479C119.768 22.7583 119.762 22.7676 119.754 22.7753C119.746 22.7831 119.737 22.7891 119.727 22.7931C119.716 22.797 119.706 22.7989 119.695 22.7985C118.948 22.7725 118.202 22.7545 117.455 22.7623C116.708 22.7658 115.962 22.8046 115.215 22.8308C115.201 22.8313 115.186 22.8288 115.172 22.8234C115.158 22.8179 115.145 22.8097 115.135 22.7991C115.124 22.7885 115.115 22.7759 115.109 22.7618C115.103 22.7477 115.099 22.7325 115.099 22.717L115.099 22.7088C115.065 21.7695 115.079 20.8214 115.102 19.8886C115.122 18.9545 115.16 18.0356 115.204 17.1554ZM112.148 24.3476C112.192 25.3147 112.23 26.2431 112.251 27.1562C112.273 28.0707 112.287 28.9699 112.253 29.8779L112.137 29.756C112.883 29.7821 113.63 29.8209 114.376 29.8244C115.123 29.8323 115.869 29.8142 116.616 29.7883L116.53 29.8779C116.497 28.9543 116.474 28.0306 116.466 27.107C116.449 26.1834 116.448 25.2597 116.456 24.3362L116.616 24.5028C115.889 24.5061 115.16 24.4684 114.421 24.4497L112.148 24.3476ZM112.126 24.3245L114.331 24.2224C115.086 24.2036 115.849 24.166 116.616 24.1693C116.658 24.1697 116.699 24.1875 116.728 24.2186C116.758 24.2498 116.775 24.292 116.776 24.3361C116.784 25.2597 116.783 26.1834 116.766 27.107C116.758 28.0306 116.734 28.9542 116.702 29.8779L116.702 29.8842C116.701 29.8955 116.699 29.9067 116.694 29.917C116.69 29.9274 116.683 29.9367 116.675 29.9444C116.667 29.9522 116.658 29.9582 116.648 29.9622C116.638 29.9662 116.627 29.968 116.616 29.9676C115.869 29.9417 115.123 29.9236 114.376 29.9314C113.63 29.935 112.883 29.9738 112.137 29.9999C112.122 30.0005 112.107 29.9979 112.093 29.9925C112.079 29.987 112.067 29.9788 112.056 29.9682C112.045 29.9576 112.036 29.9449 112.03 29.9308C112.024 29.9167 112.021 29.9015 112.02 29.8861L112.02 29.8779C111.987 28.9386 112 27.9905 112.023 27.0577C112.043 26.1235 112.082 25.2046 112.126 24.3245Z" fill="black"/>
<path d="M114.533 26.9516C114.685 26.951 114.834 26.9188 114.962 26.8587C115.091 26.7986 115.193 26.713 115.259 26.6118C115.366 26.4352 115.439 26.2484 115.475 26.0569C115.508 25.9545 115.513 25.8481 115.487 25.7445C115.462 25.6408 115.408 25.5422 115.328 25.4548C115.231 25.3732 115.106 25.3126 114.966 25.2792C114.826 25.2459 114.676 25.2411 114.533 25.2653C114.277 25.3035 114.046 25.4043 113.878 25.5514C113.737 25.6995 113.662 25.8764 113.663 26.0574C113.657 26.2467 113.709 26.4346 113.814 26.6073C113.877 26.7088 113.979 26.795 114.106 26.8559C114.233 26.9168 114.381 26.95 114.533 26.9516ZM114.533 26.9975C114.176 27.0138 113.82 26.9495 113.514 26.8131C113.353 26.7263 113.223 26.6124 113.133 26.481C113.044 26.3496 112.998 26.2043 113 26.0573C112.997 25.9084 113.035 25.7606 113.113 25.623C113.19 25.4855 113.305 25.3611 113.45 25.2575C113.592 25.1568 113.764 25.0822 113.952 25.0399C114.14 24.9976 114.339 24.9888 114.533 25.0142C114.886 25.0546 115.215 25.1728 115.476 25.3534C115.756 25.5354 115.939 25.7847 115.993 26.057C116.015 26.2002 115.985 26.3453 115.907 26.4772C115.828 26.6092 115.703 26.7233 115.545 26.8079C115.241 26.9448 114.888 27.0109 114.533 26.9975Z" fill="black"/>
<path d="M116.064 29.814C115.599 29.8964 115.13 29.9517 114.659 29.9796C114.407 29.9913 114.152 30.0051 113.894 29.9981C113.636 29.9918 113.378 29.956 113.127 29.9312L113.102 29.9287C113.087 29.9272 113.073 29.9228 113.06 29.9155C113.047 29.9082 113.035 29.8983 113.026 29.8863C113.016 29.8743 113.009 29.8605 113.005 29.8456C113.001 29.8308 112.999 29.8151 113 29.7997L113.001 29.7975C113.036 29.5107 113.056 29.2219 113.06 28.9325C113.043 28.6305 113.083 28.3278 113.179 28.0428C113.293 27.7358 113.49 27.4715 113.746 27.2836C114.002 27.0957 114.306 26.9928 114.617 26.988C114.929 26.9832 115.235 27.0767 115.496 27.2566C115.757 27.4365 115.962 27.6946 116.084 27.998C116.202 28.299 116.236 28.6291 116.184 28.95C116.153 29.2667 116.103 29.5617 116.064 29.814ZM116.033 29.7811L115.913 28.9151C115.9 28.6595 115.834 28.4101 115.719 28.1847C115.602 27.9736 115.437 27.7962 115.24 27.6678C115.043 27.5395 114.819 27.4641 114.588 27.4483C114.345 27.4418 114.105 27.5022 113.892 27.6234C113.678 27.7446 113.498 27.9226 113.369 28.1397C113.233 28.3782 113.172 28.6555 113.194 28.9325C113.198 29.2218 113.218 29.5107 113.254 29.7975L113.127 29.6638C113.364 29.6391 113.593 29.6033 113.821 29.597C114.05 29.59 114.282 29.6038 114.516 29.6155C114.987 29.6456 115.479 29.7057 116.033 29.7811ZM118.847 24.1813C118.891 25.1634 118.93 26.1062 118.95 27.0336C118.973 27.9622 118.987 28.8754 118.953 29.7975L118.836 29.6737C119.585 29.7003 120.334 29.7397 121.082 29.7432C121.831 29.7512 122.58 29.7329 123.329 29.7065L123.243 29.7975C123.21 28.8595 123.186 27.9215 123.178 26.9836C123.161 26.0456 123.16 25.1076 123.169 24.1696L123.329 24.3389C122.6 24.3423 121.868 24.304 121.128 24.285L118.847 24.1813ZM118.825 24.1578L121.037 24.0541C121.794 24.0351 122.56 23.9969 123.329 24.0002C123.371 24.0006 123.412 24.0186 123.442 24.0503C123.471 24.082 123.488 24.1248 123.489 24.1696C123.498 25.1075 123.497 26.0456 123.479 26.9836C123.471 27.9215 123.448 28.8595 123.415 29.7975L123.415 29.8039C123.414 29.8154 123.412 29.8267 123.407 29.8372C123.403 29.8477 123.396 29.8572 123.388 29.8651C123.38 29.8729 123.371 29.8791 123.361 29.8831C123.35 29.8871 123.34 29.889 123.329 29.8886C122.58 29.8623 121.831 29.844 121.082 29.8519C120.334 29.8555 119.585 29.8949 118.836 29.9214C118.821 29.922 118.807 29.9194 118.793 29.9139C118.779 29.9083 118.766 29.9 118.755 29.8892C118.744 29.8785 118.735 29.8656 118.729 29.8513C118.723 29.837 118.72 29.8215 118.719 29.8058L118.719 29.7975C118.686 28.8436 118.699 27.8808 118.722 26.9335C118.742 25.9848 118.781 25.0516 118.825 24.1578ZM125.353 24.1813C125.397 25.1634 125.436 26.1062 125.456 27.0336C125.479 27.9622 125.492 28.8754 125.459 29.7975L125.342 29.6737C126.091 29.7003 126.839 29.7397 127.588 29.7432C128.337 29.7512 129.086 29.7329 129.834 29.7065L129.748 29.7975C129.716 28.8595 129.692 27.9215 129.684 26.9836C129.667 26.0456 129.666 25.1076 129.674 24.1696L129.834 24.3389C129.106 24.3423 128.374 24.304 127.633 24.285L125.353 24.1813ZM125.331 24.1578L127.543 24.0541C128.3 24.0351 129.066 23.9969 129.834 24.0002C129.877 24.0006 129.917 24.0186 129.947 24.0503C129.977 24.082 129.994 24.1248 129.995 24.1696C130.003 25.1075 130.002 26.0456 129.985 26.9836C129.977 27.9215 129.953 28.8595 129.921 29.7975L129.92 29.8039C129.92 29.8154 129.917 29.8267 129.913 29.8373C129.908 29.8478 129.902 29.8572 129.894 29.8651C129.886 29.873 129.877 29.8791 129.866 29.8831C129.856 29.8871 129.845 29.889 129.834 29.8886C129.086 29.8623 128.337 29.844 127.588 29.8519C126.839 29.8555 126.091 29.8949 125.342 29.9214C125.327 29.922 125.312 29.9194 125.298 29.9139C125.284 29.9083 125.272 29.9 125.261 29.8892C125.25 29.8785 125.241 29.8656 125.235 29.8513C125.229 29.837 125.225 29.8215 125.225 29.8058L125.225 29.7975C125.191 28.8436 125.205 27.8808 125.228 26.9335C125.248 25.9848 125.287 25.0516 125.331 24.1578Z" fill="black"/>
<path d="M127.533 26.9516C127.685 26.951 127.834 26.9188 127.962 26.8587C128.091 26.7986 128.193 26.713 128.259 26.6118C128.366 26.4352 128.439 26.2484 128.475 26.0569C128.509 25.9545 128.513 25.8481 128.487 25.7445C128.462 25.6408 128.408 25.5422 128.328 25.4548C128.231 25.3732 128.106 25.3126 127.966 25.2792C127.826 25.2459 127.676 25.2411 127.533 25.2653C127.277 25.3035 127.046 25.4043 126.878 25.5514C126.737 25.6995 126.662 25.8764 126.663 26.0574C126.657 26.2467 126.708 26.4346 126.813 26.6073C126.877 26.7088 126.979 26.795 127.106 26.8559C127.233 26.9168 127.381 26.95 127.533 26.9516ZM127.533 26.9975C127.176 27.0138 126.82 26.9495 126.514 26.8131C126.353 26.7263 126.223 26.6124 126.133 26.481C126.044 26.3495 125.998 26.2043 126 26.0573C125.997 25.9084 126.035 25.7606 126.113 25.6231C126.19 25.4855 126.305 25.3611 126.45 25.2575C126.591 25.1568 126.763 25.0822 126.952 25.0399C127.14 24.9976 127.339 24.9888 127.533 25.0142C127.886 25.0546 128.215 25.1728 128.476 25.3534C128.756 25.5354 128.939 25.7847 128.993 26.057C129.015 26.2002 128.985 26.3453 128.907 26.4772C128.828 26.6092 128.703 26.7233 128.545 26.8079C128.241 26.9449 127.888 27.011 127.533 26.9975Z" fill="black"/>
<path d="M128.866 29.8148C128.431 29.8968 127.992 29.9519 127.552 29.9797C127.316 29.9913 127.077 30.0051 126.836 29.9981C126.594 29.9918 126.353 29.9562 126.119 29.9315L126.095 29.929C126.081 29.9275 126.068 29.9231 126.056 29.9158C126.044 29.9086 126.033 29.8987 126.024 29.8868C126.015 29.8749 126.009 29.8611 126.005 29.8463C126.001 29.8315 125.999 29.8159 126 29.8005L126.001 29.7984C126.034 29.5127 126.053 29.225 126.056 28.9369C126.04 28.636 126.078 28.3346 126.168 28.0508C126.274 27.745 126.458 27.4817 126.698 27.2946C126.938 27.1075 127.221 27.005 127.513 27.0002C127.804 26.9954 128.091 27.0885 128.335 27.2677C128.579 27.4469 128.77 27.7039 128.884 28.0061C128.994 28.3059 129.027 28.6346 128.978 28.9542C128.949 29.2697 128.902 29.5635 128.866 29.8148ZM128.837 29.782L128.725 28.9195C128.713 28.6649 128.651 28.4165 128.543 28.192C128.434 27.9818 128.28 27.8051 128.095 27.6772C127.911 27.5494 127.701 27.4744 127.485 27.4586C127.258 27.4522 127.034 27.5123 126.834 27.633C126.634 27.7537 126.465 27.9309 126.345 28.1472C126.218 28.3847 126.161 28.6609 126.182 28.9368C126.185 29.225 126.204 29.5126 126.237 29.7983L126.119 29.6652C126.34 29.6405 126.554 29.6049 126.768 29.5987C126.982 29.5916 127.199 29.6054 127.418 29.6171C127.859 29.647 128.318 29.7069 128.837 29.782Z" fill="black"/>
<path d="M91.7626 42.44L91.6719 42.957L92.1895 43.0479L92.2802 42.5308L91.7626 42.44Z" fill="black"/>
<path d="M110.908 47L109.854 46.7988L109.947 46.2209L111 46.4221L110.908 47ZM108.801 46.5975L107.747 46.3963L107.84 45.8184L108.893 46.0196L108.801 46.5975ZM106.694 46.1951L105.641 45.9938L105.733 45.4159L106.786 45.6172L106.694 46.1951ZM104.587 45.7926L103.534 45.5908L103.626 45.0129L104.68 45.2147L104.587 45.7926ZM102.481 45.3896L101.427 45.1883L101.519 44.6104L102.573 44.8117L102.481 45.3896ZM100.374 44.9871L99.3204 44.7859L99.4128 44.208L100.466 44.4092L100.374 44.9871ZM98.2668 44.5846L97.2134 44.3834L97.3058 43.8055L98.3591 44.0067L98.2668 44.5846ZM96.1601 44.1816L95.1067 43.9804L95.199 43.4025L96.2524 43.6037L96.1601 44.1816ZM94.0534 43.7791L93 43.5779L93.0923 43L94.1457 43.2012L94.0534 43.7791Z" fill="black"/>
<path d="M111.858 45.9536L111.768 46.4707L112.285 46.5616L112.376 46.0445L111.858 45.9536Z" fill="black"/>
<path d="M90.067 44.2453L89.957 44.7598L90.4709 44.8696L90.5809 44.3552L90.067 44.2453Z" fill="black"/>
<path d="M108.885 49L107.833 48.7422L107.948 48.1213L109 48.3791L108.885 49ZM106.781 48.4851L105.729 48.2273L105.844 47.6064L106.896 47.8642L106.781 48.4851ZM104.677 47.9695L103.625 47.7124L103.74 47.0915L104.792 47.3486L104.677 47.9695ZM102.572 47.4546L101.52 47.1968L101.636 46.5759L102.688 46.8337L102.572 47.4546ZM100.469 46.939L99.4166 46.6819L99.5314 46.061L100.583 46.3181L100.469 46.939ZM98.3647 46.4241L97.3124 46.1663L97.4273 45.5454L98.4795 45.8032L98.3647 46.4241ZM96.2602 45.9092L95.2083 45.6514L95.3237 45.0305L96.3756 45.2883L96.2602 45.9092ZM94.1561 45.3936L93.1041 45.1358L93.2195 44.5149L94.2715 44.7727L94.1561 45.3936ZM92.0519 44.8787L91 44.6209L91.1154 44L92.1673 44.2578L92.0519 44.8787Z" fill="black"/>
<path d="M109.606 48.4074L109.496 48.9219L110.01 49.0317L110.12 48.5173L109.606 48.4074Z" fill="black"/>
<path d="M91 47C92.0426 47.073 93.0754 47.287 94.0798 47.6381C95.0913 47.9573 96.0708 48.4141 97 49C95.9573 48.9285 94.9243 48.7145 93.9202 48.3618C92.9091 48.041 91.9298 47.5843 91 47Z" fill="black"/>
</svg>
