<svg width="200" height="173" viewBox="0 0 200 173" fill="none" xmlns="http://www.w3.org/2000/svg">
<path d="M98.546 52.402C98.5215 51.8559 98.4151 51.3165 98.2305 50.8019C98.0541 50.2834 97.8488 49.7752 97.6156 49.2795C97.1447 48.2897 96.6117 47.3304 96.0198 46.4076C96.0028 46.3811 95.9964 46.3491 96.0019 46.3181C96.0075 46.2871 96.0244 46.2593 96.0496 46.2402L96.0519 46.2385C96.9165 45.5384 97.6326 44.6732 98.1583 43.6936C98.7121 42.7228 99.1918 41.7117 99.5931 40.6688C100.409 38.5791 101.003 36.414 101.657 34.2488C101.744 33.9782 101.824 33.7075 101.922 33.4368C102.008 33.1481 102.131 32.8715 102.287 32.6135C102.619 32.1162 103.039 31.6832 103.527 31.3353C104.469 30.6731 105.488 30.1247 106.56 29.7014C107.613 29.2624 108.692 28.8977 109.767 28.5486L110.562 28.283C110.784 28.2308 110.983 28.1082 111.129 27.9336C111.399 27.5141 111.539 27.0249 111.533 26.5265L111.534 26.5148C111.536 26.4484 111.56 26.3845 111.602 26.333C111.644 26.2814 111.702 26.245 111.767 26.2294L113.127 25.9013L113.807 25.7374L113.977 25.6963C114.036 25.6818 113.953 25.6973 113.942 25.7141C113.933 25.7187 113.924 25.726 113.919 25.7351C113.917 25.7357 113.916 25.7367 113.914 25.738C113.941 25.6742 113.957 25.6066 113.963 25.5377C113.995 25.1004 113.984 24.6611 113.93 24.2259C113.885 23.7758 113.819 23.3196 113.747 22.8742L114.061 23.1425C113.17 23.1433 112.286 22.9937 111.445 22.7C111.01 22.5392 110.608 22.301 110.258 21.9971C109.903 21.6853 109.621 21.3003 109.431 20.8689C108.697 19.1064 109.318 17.2763 109.42 15.7085C109.452 14.8346 109.595 13.9683 109.846 13.1305C110.08 12.3246 110.259 11.504 110.384 10.6743C110.474 9.8125 110.666 8.9643 110.955 8.1472C111.235 7.33176 111.573 6.53756 111.967 5.77084L112.155 6.07902C111.821 6.07356 111.488 6.04765 111.158 6.00145C110.818 5.95475 110.487 5.85972 110.174 5.71925C109.835 5.57327 109.556 5.31523 109.385 4.98847C109.229 4.64532 109.212 4.25504 109.338 3.89963C109.35 3.86445 109.373 3.83425 109.404 3.81374C109.435 3.79324 109.472 3.7836 109.51 3.78634L109.515 3.78691C109.848 3.81014 110.18 3.72761 110.462 3.55115C110.758 3.35995 111.027 3.13132 111.263 2.87099C111.747 2.31242 112.276 1.79456 112.845 1.32267C113.456 0.884871 114.148 0.572978 114.881 0.405214C115.597 0.218473 116.33 0.0984218 117.068 0.0466026C118.551 -0.103316 120.048 0.109751 121.43 0.667353C122.103 0.986486 122.725 1.40132 123.279 1.8989C123.56 2.14979 123.805 2.43888 124.005 2.7577C124.107 2.9218 124.186 3.09944 124.239 3.2854C124.301 3.48313 124.308 3.69401 124.26 3.89563L124.215 3.75941C125.042 4.33643 125.799 5.00607 126.472 5.7552C127.167 6.49511 127.716 7.35829 128.092 8.30007C128.186 8.53743 128.258 8.78271 128.308 9.03297C128.332 9.15849 128.37 9.28172 128.382 9.40915L128.413 9.7928C128.428 10.0493 128.419 10.3067 128.387 10.5616C128.363 10.8173 128.287 11.0618 128.239 11.3126C127.949 12.2817 127.527 13.2062 126.984 14.06C125.912 15.7563 124.67 17.3391 123.277 18.7839L123.017 19.0554C122.93 19.1361 122.85 19.2237 122.776 19.3173C122.651 19.4986 122.56 19.7011 122.508 19.9149C122.386 20.3838 122.304 20.8621 122.263 21.3448C122.174 22.326 122.143 23.3116 122.169 24.2964L121.922 24.0557L123.408 24.0462C123.474 24.0457 123.537 24.0707 123.585 24.1159C123.633 24.1611 123.661 24.223 123.664 24.2886L123.665 24.3026C123.715 25.182 123.907 26.0475 124.234 26.8656C124.392 27.2742 124.59 27.6665 124.823 28.0369C125.072 28.3977 125.351 28.7366 125.657 29.0501C126.908 30.3397 128.319 31.5046 129.689 32.7096C130.376 33.312 131.063 33.9182 131.733 34.5485C132.069 34.8636 132.398 35.1884 132.72 35.5231C133.045 35.8701 133.337 36.2061 133.646 36.5298C133.954 36.8567 134.28 37.1708 134.603 37.5061C134.951 37.846 135.254 38.2293 135.503 38.6465C135.747 39.0863 135.898 39.5709 135.948 40.0708C136.002 40.5447 136.014 41.0226 135.983 41.4986C135.956 41.9688 135.918 42.4229 135.847 42.8912L135.698 43.6059C135.631 43.8367 135.543 44.0572 135.466 44.2832C135.39 44.5076 135.299 44.726 135.191 44.9366C135.088 45.148 134.995 45.3654 134.885 45.5715C134.649 45.9726 134.439 46.3938 134.177 46.7754C133.167 48.3175 132.044 49.7832 130.818 51.1603C129.616 52.5466 128.355 53.875 127.121 55.2117C126.816 55.5468 126.51 55.8817 126.222 56.2214C126.073 56.3905 125.959 56.5622 125.825 56.7317C125.711 56.9037 125.609 57.084 125.522 57.2711C125.348 57.6033 125.292 57.9845 125.363 58.3526C125.411 58.5203 125.492 58.6766 125.602 58.8117C125.716 58.9459 125.853 59.0587 126.007 59.1446L126.023 59.1528C126.065 59.1753 126.103 59.206 126.133 59.2431C126.164 59.2801 126.187 59.3228 126.201 59.3687C126.215 59.4146 126.22 59.4629 126.215 59.5107C126.21 59.5584 126.196 59.6048 126.174 59.6472L126.166 59.6619L124.781 61.9928C124.748 62.0501 124.699 62.097 124.64 62.1283C124.581 62.1597 124.515 62.1743 124.448 62.1707L124.435 62.1699C123.812 62.114 123.187 62.2501 122.645 62.5597C122.41 62.713 122.227 62.9341 122.121 63.1936L122.051 63.3975L121.993 63.6441C121.956 63.81 121.922 63.9777 121.891 64.1468C121.649 65.5037 121.512 66.9039 121.404 68.2906L121.403 68.3013C121.397 68.3767 121.365 68.4476 121.312 68.5016C121.259 68.5557 121.189 68.5895 121.113 68.5971C119.159 68.7937 117.201 68.9565 115.237 68.9805C113.274 69.0365 111.311 68.9666 109.354 68.8369C107.396 68.7031 105.448 68.4547 103.514 68.1357C101.575 67.8235 99.6585 67.3882 97.7754 66.8327L97.771 66.8313C97.7491 66.8246 97.7292 66.813 97.7126 66.7974C97.6959 66.7817 97.6832 66.7625 97.6752 66.7412C97.3926 65.9554 97.1824 65.1456 97.0473 64.3218C96.9051 63.5051 96.8184 62.6797 96.7875 61.8513C96.7484 61.0212 96.8125 60.1895 96.9783 59.3752C97.131 58.562 97.3438 57.764 97.5698 56.9715C97.5723 56.9623 97.5784 56.9546 97.5867 56.9499C97.595 56.9452 97.6048 56.944 97.614 56.9465C97.6232 56.9489 97.631 56.955 97.6358 56.9632C97.6406 56.9714 97.6419 56.9812 97.6395 56.9904C97.2374 58.5796 96.8484 60.2072 96.9853 61.8409C97.0367 62.6581 97.1432 63.471 97.3041 64.2739C97.4562 65.0731 97.6805 65.8569 97.9741 66.6158L97.874 66.5245C99.7494 67.0408 101.656 67.4381 103.581 67.714C105.507 67.9972 107.444 68.2098 109.388 68.3082C111.331 68.4083 113.278 68.4624 115.221 68.3842C117.166 68.3395 119.104 68.1573 121.035 67.9423L120.744 68.2488C120.839 66.8352 120.96 65.4343 121.196 64.0228C121.226 63.8463 121.26 63.6696 121.297 63.4923L121.357 63.2257C121.384 63.1311 121.421 63.0278 121.454 62.93C121.61 62.5337 121.886 62.1952 122.242 61.9606C122.578 61.7438 122.954 61.595 123.348 61.5226C123.727 61.4471 124.115 61.4215 124.501 61.4464L124.155 61.6233L125.534 59.2892L125.692 59.8066C125.442 59.677 125.22 59.4993 125.039 59.2838C124.858 59.066 124.726 58.8127 124.65 58.5404C124.534 58.0091 124.603 57.4541 124.847 56.9677C124.951 56.7412 125.073 56.523 125.211 56.3152C125.358 56.1257 125.5 55.9178 125.652 55.7447C125.953 55.3878 126.262 55.0485 126.57 54.7084C127.809 53.3611 129.058 52.0388 130.244 50.6643C131.438 49.3092 132.54 47.8756 133.542 46.3732C133.8 46.0037 133.999 45.6065 134.228 45.2236C134.334 45.0284 134.421 44.8264 134.519 44.6283C134.621 44.434 134.708 44.2321 134.778 44.0244C134.848 43.8194 134.933 43.6161 134.994 43.4101L135.127 42.7873C135.196 42.3557 135.237 41.8998 135.266 41.4606C135.297 41.0269 135.289 40.5913 135.243 40.1589C135.207 39.7481 135.087 39.3491 134.89 38.9868C134.491 38.2801 133.77 37.6811 133.148 36.9998C132.829 36.6616 132.524 36.3076 132.227 35.9868C131.919 35.6622 131.601 35.3441 131.272 35.0325C130.617 34.4091 129.939 33.8028 129.257 33.1982C127.899 31.9811 126.506 30.7968 125.23 29.4496C124.903 29.1059 124.607 28.7345 124.344 28.3398C124.096 27.9356 123.887 27.5083 123.722 27.0637C123.381 26.1807 123.189 25.2479 123.151 24.3026L123.408 24.5588L121.922 24.5492H121.916C121.852 24.5487 121.791 24.5232 121.746 24.4781C121.701 24.433 121.675 24.372 121.675 24.3083C121.661 23.3026 121.707 22.2971 121.811 21.2967C121.861 20.7878 121.954 20.2841 122.09 19.7912C122.161 19.5219 122.282 19.2686 122.449 19.0453C122.531 18.9441 122.62 18.8491 122.716 18.761L122.977 18.4964C124.37 17.0887 125.617 15.5438 126.699 13.8852C127.238 13.0636 127.661 12.1717 127.956 11.2347C128.004 10.9982 128.081 10.7639 128.106 10.5249C128.14 10.2868 128.152 10.0459 128.14 9.8056L128.116 9.44489C128.105 9.3249 128.069 9.20778 128.047 9.08914C128.001 8.851 127.933 8.61754 127.845 8.39161C127.485 7.47781 126.956 6.6394 126.287 5.91973C125.631 5.18251 124.893 4.52253 124.086 3.95261C124.067 3.93887 124.052 3.9197 124.044 3.89753C124.035 3.87536 124.033 3.85118 124.039 3.82805L124.042 3.81621C124.082 3.48428 123.999 3.1491 123.81 2.87335C123.622 2.57224 123.392 2.29891 123.128 2.06136C122.596 1.57573 121.993 1.1746 121.338 0.87203C119.989 0.339984 118.53 0.143705 117.088 0.30014C116.366 0.355644 115.651 0.477866 114.952 0.665238C114.254 0.828477 113.597 1.12889 113.018 1.54887C112.466 2.01722 111.956 2.53259 111.494 3.08917C111.242 3.37491 110.954 3.62663 110.638 3.83792C110.297 4.05643 109.896 4.16245 109.492 4.14094L109.669 4.02841C109.586 4.29108 109.604 4.57521 109.72 4.82531C109.858 5.07223 110.077 5.26401 110.341 5.36829C110.621 5.48693 110.916 5.56522 111.218 5.6008C111.529 5.63861 111.841 5.6575 112.155 5.65736C112.211 5.65875 112.265 5.68262 112.305 5.72371C112.344 5.76481 112.365 5.81976 112.364 5.8765C112.363 5.90745 112.355 5.93785 112.342 5.96573C111.972 6.71811 111.656 7.49598 111.398 8.29336C111.131 9.08479 110.96 9.90493 110.888 10.7366C110.716 12.4737 109.993 14.0841 110.013 15.7098C109.994 16.1489 109.946 16.5862 109.87 17.0191C109.807 17.4383 109.749 17.8515 109.717 18.2632C109.617 19.0593 109.714 19.8677 109.998 20.618C110.162 20.9668 110.395 21.2789 110.683 21.5352C110.97 21.7916 111.307 21.9869 111.673 22.1094C112.445 22.3714 113.256 22.5021 114.071 22.4961C114.147 22.4974 114.219 22.525 114.277 22.574C114.334 22.6229 114.372 22.6903 114.385 22.7645C114.465 23.232 114.523 23.6936 114.568 24.1644C114.625 24.6485 114.633 25.1372 114.59 25.6227C114.575 25.785 114.524 25.942 114.442 26.0826C114.424 26.1078 114.407 26.1321 114.387 26.156C114.359 26.1841 114.329 26.2099 114.297 26.2333C114.237 26.2702 114.17 26.2968 114.101 26.3122L113.933 26.3516L113.26 26.5094L111.915 26.8247L112.148 26.5279C112.14 26.836 112.096 27.1421 112.016 27.4399C111.938 27.7547 111.797 28.0505 111.601 28.309C111.491 28.4489 111.356 28.5668 111.202 28.6565C111.062 28.7349 110.914 28.7983 110.761 28.8457L109.949 29.1112C108.875 29.4523 107.811 29.8046 106.778 30.2274C105.745 30.6265 104.764 31.1457 103.854 31.7742C103.419 32.0808 103.041 32.4609 102.738 32.8974C102.599 33.1205 102.489 33.3605 102.412 33.6116C102.313 33.8687 102.23 34.1375 102.14 34.402C101.457 36.5389 100.821 38.7172 99.9623 40.8161C99.5369 41.8706 99.0322 42.8914 98.4526 43.87C97.8806 44.8683 97.1147 45.7425 96.1998 46.4416L96.2319 46.2727C96.8039 47.2197 97.3153 48.2018 97.7631 49.2132C97.985 49.72 98.1783 50.2388 98.3422 50.7671C98.5154 51.2953 98.6084 51.8463 98.6181 52.402C98.6181 52.4115 98.6142 52.4207 98.6074 52.4274C98.6006 52.4341 98.5914 52.4379 98.5819 52.4379C98.5724 52.4376 98.5634 52.4338 98.5567 52.4271C98.5501 52.4204 98.5462 52.4114 98.546 52.402Z" fill="#020202"/>
<path d="M114.361 10.4953C114.646 10.2936 114.964 10.1531 115.298 10.0814C115.633 10.0036 115.978 9.98137 116.319 10.0156C116.664 10.0493 117.001 10.1503 117.312 10.3137C117.623 10.4709 117.897 10.7017 118.114 10.989C117.814 10.8566 117.507 10.7425 117.196 10.6474C116.895 10.5586 116.588 10.4994 116.278 10.4703C115.64 10.4151 114.998 10.4235 114.361 10.4953ZM110 10.989C110.169 10.8564 110.358 10.7582 110.559 10.6994C110.756 10.6374 110.958 10.6018 111.163 10.5932C111.37 10.5864 111.577 10.6113 111.778 10.6674C111.985 10.722 112.176 10.8327 112.333 10.989L111.74 11.0217C111.551 11.0349 111.364 11.0408 111.176 11.0498C110.783 11.0728 110.389 11.0524 110 10.989ZM116.39 13.3198C116.554 13.3137 116.71 13.2388 116.824 13.1109C116.938 12.983 117.002 12.8121 117.002 12.6343C117.002 12.4565 116.938 12.2856 116.824 12.1577C116.71 12.0298 116.554 11.9549 116.39 11.9487C116.225 11.9549 116.07 12.0298 115.955 12.1577C115.841 12.2856 115.777 12.4565 115.777 12.6343C115.777 12.8121 115.841 12.983 115.955 13.1109C116.07 13.2388 116.225 13.3137 116.39 13.3198ZM123.388 16.9944C123.552 16.9883 123.708 16.9133 123.822 16.7854C123.936 16.6576 124 16.4867 124 16.3089C124 16.1311 123.936 15.9602 123.822 15.8323C123.708 15.7044 123.552 15.6295 123.388 15.6233C123.223 15.6295 123.068 15.7044 122.954 15.8323C122.839 15.9602 122.775 16.1311 122.775 16.3089C122.775 16.4867 122.839 16.6576 122.954 16.7854C123.068 16.9133 123.223 16.9883 123.388 16.9944ZM111.42 13.7038C111.584 13.6976 111.74 13.6227 111.854 13.4948C111.968 13.3669 112.032 13.196 112.032 13.0182C112.032 12.8404 111.968 12.6695 111.854 12.5416C111.74 12.4137 111.584 12.3388 111.42 12.3326C111.256 12.3388 111.1 12.4137 110.986 12.5416C110.871 12.6695 110.808 12.8404 110.808 13.0182C110.808 13.196 110.871 13.3669 110.986 13.4948C111.1 13.6227 111.256 13.6976 111.42 13.7038ZM111.42 18.5574C111.553 18.7007 111.693 18.8364 111.838 18.9641C111.971 19.0792 112.111 19.1829 112.258 19.2741C112.407 19.3666 112.561 19.4489 112.719 19.5208C112.882 19.5993 113.056 19.6632 113.245 19.7641C112.952 19.8925 112.626 19.9062 112.324 19.8028C112.022 19.6994 111.763 19.4854 111.591 19.1976C111.471 19.0098 111.411 18.7852 111.42 18.5574ZM122.789 19.9402C122.31 20.333 121.821 20.6834 121.316 21.0189C120.811 21.3508 120.295 21.6626 119.762 21.9383C118.711 22.5219 117.566 22.8823 116.39 23C117.546 22.8087 118.658 22.3794 119.665 21.7354C120.174 21.4299 120.665 21.0901 121.143 20.7318C121.618 20.3724 122.086 19.9904 122.52 19.5881L122.524 19.5843C122.545 19.5645 122.569 19.5494 122.596 19.5398C122.622 19.5303 122.65 19.5265 122.678 19.5287C122.706 19.5308 122.733 19.539 122.758 19.5526C122.783 19.5661 122.805 19.5849 122.823 19.6078C122.841 19.6307 122.855 19.6573 122.864 19.686C122.873 19.7147 122.876 19.745 122.874 19.7751C122.871 19.8051 122.864 19.8345 122.851 19.8613C122.838 19.8881 122.821 19.912 122.799 19.9315L122.789 19.9402ZM112.992 12.6343C113.113 13.0885 113.098 13.5726 112.949 14.017C112.875 14.2452 112.772 14.4609 112.642 14.6575C112.511 14.8196 112.39 14.9902 112.278 15.1683C112.09 15.4976 112.046 15.8778 112.322 16.0806C112.475 16.191 112.651 16.2578 112.835 16.2749C113.038 16.303 113.243 16.3144 113.448 16.3089C113.253 16.4076 113.045 16.4718 112.832 16.4992C112.599 16.5363 112.362 16.4968 112.151 16.386C112.031 16.3212 111.929 16.2235 111.855 16.1027C111.78 15.9819 111.736 15.8422 111.728 15.6974C111.719 15.4273 111.785 15.1606 111.917 14.9315C112.04 14.7406 112.177 14.5605 112.327 14.393C112.45 14.2337 112.557 14.061 112.647 13.8777C112.831 13.4894 112.948 13.068 112.992 12.6343Z" fill="#020202"/>
<path d="M124.612 16.6983C125.228 15.487 124.96 15.0506 124.301 13.727C123.642 12.4034 120.907 15.1565 120.907 15.1565V10.3904C122.173 9.59508 122.274 6.73833 120.907 5.20297C119.539 3.6676 112.598 5.73241 112.598 5.73241L112.596 5.73063C109.357 5.73063 110.066 3.82731 110.066 3.82731C111.584 3.93165 112.194 1.92039 113.815 0.96693C115.433 0.0134696 119.589 -0.619772 122.02 0.96693C124.454 2.55723 124.048 3.71937 124.048 3.71937C124.048 3.71937 128 6.47541 128 9.86109C128 11.9345 126.293 14.5627 124.782 16.4845M112.483 26.2139C112.854 27.0936 113.195 27.9835 113.52 28.8789C113.847 29.7736 114.161 30.6728 114.461 31.5765L113.922 31.4825C114.292 30.9348 114.668 30.3926 115.051 29.8557C115.428 29.3143 115.813 28.7785 116.204 28.2482C116.589 27.7129 116.984 27.1853 117.382 26.66C117.775 26.1306 118.185 25.6152 118.588 25.0937L118.6 25.0784C118.626 25.0437 118.663 25.0186 118.703 25.0066C119.947 24.6392 121.192 24.2792 122.454 23.9725C121.266 24.5122 120.06 24.999 118.853 25.4781L118.968 25.3912C118.603 25.9418 118.245 26.4984 117.869 27.0411C117.499 27.588 117.126 28.1325 116.742 28.6694C116.364 29.2102 115.98 29.7465 115.591 30.2781C115.205 30.813 114.813 31.3428 114.414 31.8677L114.405 31.8801C114.37 31.9255 114.325 31.9601 114.273 31.9803C114.221 32.0004 114.164 32.0052 114.11 31.9943C114.055 31.9833 114.005 31.957 113.963 31.9181C113.922 31.8792 113.892 31.8293 113.876 31.7737C113.612 30.8577 113.366 29.9357 113.131 29.0099C112.894 28.0849 112.674 27.1544 112.483 26.2139ZM111.918 28.3702L110.166 31.1193L111.307 28.0389C111.324 27.9946 111.348 27.9541 111.38 27.9197C111.411 27.8853 111.449 27.8577 111.49 27.8385C111.532 27.8193 111.577 27.8089 111.622 27.8078C111.668 27.8067 111.713 27.8149 111.755 27.8321C111.798 27.8492 111.836 27.875 111.869 27.9078C111.902 27.9406 111.929 27.9799 111.947 28.0234C111.965 28.0669 111.975 28.1137 111.976 28.1612C111.978 28.2087 111.97 28.256 111.953 28.3003C111.944 28.3248 111.932 28.3482 111.918 28.3702Z" fill="#020202"/>
<path d="M118.267 26C118.429 26.5607 118.555 27.1258 118.684 27.6905C118.806 28.2562 118.921 28.8226 119.025 29.3904C119.236 30.5257 119.411 31.6653 119.566 32.8076L118.961 32.6C119.38 32.2441 119.791 31.8798 120.217 31.5311C120.642 31.1813 121.064 30.8284 121.499 30.4888C122.363 29.8036 123.242 29.1338 124.169 28.5123C123.441 29.337 122.666 30.1137 121.876 30.875C121.484 31.2587 121.08 31.629 120.677 32.0025C120.276 32.3768 119.86 32.7358 119.453 33.1032C119.405 33.1465 119.345 33.1764 119.28 33.1895C119.215 33.2026 119.148 33.1985 119.085 33.1776C119.022 33.1567 118.967 33.1198 118.925 33.0711C118.884 33.0223 118.857 32.9635 118.848 32.9013L118.848 32.8956C118.689 31.7539 118.551 30.6098 118.449 29.4611C118.396 28.887 118.355 28.3115 118.32 27.7352C118.293 27.158 118.262 26.5812 118.267 26ZM98 52.1039C98.0314 50.3977 98.1899 48.6956 98.4742 47.0105C98.7299 45.3048 99.1839 43.631 99.8278 42.0196L102.181 37.4259C102.953 35.8948 103.731 34.3637 104.562 32.8517C104.011 34.4745 103.378 36.0671 102.701 37.6436C102.368 38.4344 102.004 39.2129 101.64 39.9933C101.28 40.7695 100.83 41.5447 100.501 42.2836C99.8731 43.8518 99.3816 45.4659 99.0312 47.1097C98.6533 48.7614 98.3228 50.4278 98 52.1039ZM125.994 38.8882L123.993 41.68C123.324 42.6048 122.679 43.5423 122.044 44.4832L121.081 45.8891C120.774 46.3658 120.458 46.8393 120.182 47.3332C119.595 48.3029 119.186 49.3594 118.971 50.4582C118.966 50.4868 118.95 50.5128 118.926 50.5311C118.903 50.5494 118.872 50.5588 118.842 50.5574L118.835 50.557C118.058 50.5403 117.286 50.6737 116.565 50.949C116.22 51.0883 115.896 51.271 115.603 51.4923C115.321 51.7104 115.079 51.9716 114.888 52.2652L114.936 52.0713C115.136 53.0618 115.495 54.0176 115.999 54.9061C116.245 55.3548 116.52 55.7891 116.821 56.207L117.288 56.8239L117.806 57.4034C117.972 57.6037 118.174 57.7716 118.359 57.9551C118.542 58.1413 118.738 58.3156 118.946 58.4769L119.562 58.9735L120.222 59.42C120.666 59.7178 121.13 59.9896 121.61 60.2338C122.085 60.4918 122.594 60.6862 123.086 60.9333L123.089 60.9351C123.097 60.9391 123.103 60.9458 123.107 60.9538C123.11 60.9618 123.109 60.9706 123.106 60.9784C123.103 60.9863 123.096 60.9928 123.088 60.9965C123.08 61.0002 123.071 61.001 123.062 60.9987C122.796 60.9263 122.53 60.8501 122.264 60.77C121.995 60.6984 121.73 60.6138 121.47 60.5167C120.95 60.3163 120.443 60.0859 119.953 59.8269C118.958 59.3085 118.052 58.6499 117.266 57.8737C115.671 56.3003 114.635 54.2943 114.305 52.1365L114.303 52.1238C114.294 52.0596 114.312 51.9946 114.353 51.9424C114.603 51.6046 114.913 51.3095 115.268 51.0696C115.62 50.8437 116.005 50.6686 116.412 50.5503C117.204 50.3291 118.034 50.2503 118.857 50.318L118.721 50.4166C119.001 49.3114 119.387 48.2324 119.873 47.1932C120.329 46.1423 120.871 45.1269 121.495 44.1566C122.128 43.1954 122.818 42.2688 123.561 41.3811C124.297 40.4893 125.091 39.6418 125.938 38.8435C125.941 38.8403 125.945 38.8378 125.95 38.8361C125.954 38.8344 125.959 38.8335 125.964 38.8335C125.969 38.8336 125.973 38.8345 125.978 38.8363C125.982 38.838 125.986 38.8406 125.99 38.8439C125.996 38.8497 125.999 38.8573 126 38.8654C126.001 38.8735 125.998 38.8815 125.994 38.8882Z" fill="#020202"/>
<path d="M125 57.9938C124.288 57.6109 123.612 57.1657 122.98 56.6634C122.34 56.1661 121.744 55.6156 121.198 55.0177C120.921 54.7213 120.674 54.3971 120.424 54.0768C120.186 53.7447 119.973 53.3963 119.785 53.0344C119.387 52.3189 119.188 51.5115 119.209 50.6947C119.356 51.4683 119.655 52.2059 120.088 52.866C120.507 53.5292 120.989 54.151 121.528 54.7228C122.054 55.3096 122.622 55.8636 123.205 56.4035C123.792 56.9393 124.385 57.4746 125 57.9938ZM118.633 63C118.091 62.2204 117.59 61.414 117.131 60.584C116.665 59.7539 116.244 58.8991 115.872 58.0236C115.058 56.2594 114.639 54.3415 114.642 52.4015C114.646 52.3063 114.688 52.2165 114.758 52.1517C114.829 52.0869 114.922 52.0524 115.018 52.0558C115.114 52.0592 115.205 52.1002 115.271 52.1699C115.336 52.2395 115.371 52.3321 115.368 52.4273C115.368 52.4351 115.367 52.4428 115.366 52.4506L115.365 52.4634C115.284 53.3749 115.325 54.293 115.488 55.1937C115.658 56.1115 115.899 57.0147 116.211 57.8951C116.523 58.783 116.884 59.6533 117.292 60.5021C117.696 61.3567 118.144 62.1904 118.633 63ZM96 46.1431C96.2954 46.0461 96.6048 45.9979 96.9159 46.0003C97.2289 45.9964 97.5409 46.0354 97.8432 46.1161C98.1569 46.1944 98.4498 46.3387 98.7022 46.5394C98.8317 46.6369 98.9405 46.7589 99.0224 46.8982C99.1043 47.0376 99.1577 47.1916 99.1795 47.3514C98.9953 47.1318 98.767 46.9527 98.5091 46.8255C98.259 46.7022 97.9959 46.6067 97.7247 46.5409C97.1769 46.3857 96.6018 46.2988 96 46.1431Z" fill="#020202"/>
<path d="M115.427 52.9289C113.547 53.1578 111.667 53.3311 109.785 53.4712C108.844 53.5433 107.903 53.6049 106.961 53.6612L106.608 53.6832C106.48 53.6933 106.351 53.6969 106.222 53.6941C105.974 53.6874 105.726 53.6682 105.48 53.6367C104.997 53.5802 104.528 53.4841 104.063 53.3886C103.134 53.184 102.223 52.9443 101.309 52.7209C100.405 52.479 99.4842 52.2932 98.5539 52.1645C98.3242 52.1388 98.093 52.1261 97.8616 52.1264C97.6442 52.1161 97.4272 52.154 97.2279 52.237C97.1889 52.2565 97.154 52.2827 97.125 52.3141C97.0939 52.3526 97.0633 52.4018 97.0323 52.4451C96.9668 52.5312 96.921 52.6334 96.8641 52.7266C96.5626 53.3171 96.3884 53.9586 96.3518 54.6136C96.3148 55.0295 96.3987 55.4471 96.5942 55.8212C96.6972 55.9862 96.8404 56.1256 97.0118 56.2276C97.1832 56.3296 97.3779 56.3913 97.5796 56.4075C97.7862 56.4443 97.9975 56.4513 98.2063 56.428C98.4204 56.3986 98.6301 56.3454 98.831 56.2695C99.0832 56.1821 99.349 56.135 99.6175 56.1302C99.8839 56.1311 100.149 56.1662 100.405 56.2348C100.88 56.3716 101.339 56.551 101.778 56.7705C102.613 57.1623 103.468 57.5134 104.341 57.8225C105.214 58.1434 106.096 58.4433 106.983 58.7302C108.754 59.3124 110.557 59.8008 112.385 60.1929C114.204 60.6287 116.084 60.7895 117.956 60.6694L117.959 60.6692C117.968 60.6683 117.978 60.6709 117.985 60.6764C117.993 60.682 117.998 60.69 117.999 60.699C118.001 60.7079 117.999 60.7171 117.994 60.7246C117.988 60.7322 117.98 60.7375 117.971 60.7396C116.09 61.0858 114.157 61.0868 112.276 60.7426C110.396 60.445 108.541 60.0142 106.728 59.4538C104.909 58.8963 103.142 58.1976 101.445 57.365C101.052 57.1578 100.642 56.9824 100.218 56.8405C99.8299 56.703 99.404 56.6928 99.0087 56.8114C98.7655 56.8891 98.5134 56.9395 98.2578 56.9614C97.9951 56.974 97.7318 56.9485 97.4772 56.8859C97.3491 56.8609 97.224 56.8233 97.1042 56.7735C96.9741 56.7314 96.8523 56.669 96.744 56.5888C96.6888 56.5495 96.6301 56.514 96.5795 56.4705L96.4435 56.3232C96.3559 56.2256 96.2829 56.1171 96.2265 56.0007C96.0247 55.5573 95.9559 55.0698 96.0275 54.5917C96.0832 54.1349 96.1957 53.6859 96.3627 53.254C96.4471 53.0395 96.5435 52.8294 96.6515 52.6246C96.7136 52.5248 96.7623 52.42 96.8357 52.3247C96.8714 52.2759 96.9014 52.2281 96.9421 52.1787C96.99 52.1252 97.0482 52.0809 97.1138 52.0481C97.3472 51.949 97.601 51.9002 97.8568 51.9052C98.0979 51.9011 98.3391 51.9107 98.579 51.9339C100.477 52.1252 102.333 52.5139 104.185 52.8047C104.646 52.8835 105.108 52.9484 105.562 53.0046C105.785 53.0313 106.009 53.047 106.233 53.0515C106.346 53.0557 106.437 53.0479 106.554 53.0452L106.909 53.0297C107.854 52.9856 108.799 52.9465 109.745 52.9183C111.636 52.8573 113.53 52.8298 115.423 52.8575C115.433 52.8576 115.442 52.8612 115.449 52.8676C115.456 52.8739 115.46 52.8825 115.46 52.8915C115.461 52.9006 115.458 52.9096 115.451 52.9165C115.445 52.9234 115.436 52.9279 115.427 52.9289ZM111.619 35.3157C111.799 35.3098 111.969 35.2379 112.094 35.1151C112.22 34.9924 112.29 34.8285 112.29 34.6578C112.29 34.4872 112.22 34.3233 112.094 34.2005C111.969 34.0778 111.799 34.0059 111.619 34C111.438 34.0059 111.268 34.0778 111.143 34.2005C111.017 34.3233 110.947 34.4872 110.947 34.6578C110.947 34.8285 111.017 34.9924 111.143 35.1151C111.268 35.2379 111.438 35.3098 111.619 35.3157ZM108.033 41.9467C108.213 41.9408 108.384 41.869 108.509 41.7462C108.634 41.6235 108.704 41.4595 108.704 41.2889C108.704 41.1183 108.634 40.9543 108.509 40.8316C108.384 40.7088 108.213 40.637 108.033 40.6311C107.853 40.637 107.682 40.7088 107.557 40.8316C107.432 40.9543 107.362 41.1183 107.362 41.2889C107.362 41.4595 107.432 41.6235 107.557 41.7462C107.682 41.869 107.853 41.9408 108.033 41.9467ZM105.865 47.8673C106.045 47.8614 106.216 47.7895 106.341 47.6668C106.466 47.5441 106.536 47.3801 106.536 47.2095C106.536 47.0389 106.466 46.8749 106.341 46.7522C106.216 46.6294 106.045 46.5575 105.865 46.5516C105.685 46.5575 105.514 46.6294 105.389 46.7522C105.264 46.8749 105.194 47.0389 105.194 47.2095C105.194 47.3801 105.264 47.5441 105.389 47.6668C105.514 47.7895 105.685 47.8614 105.865 47.8673Z" fill="#020202"/>
<path d="M104.653 53.5421C104.671 53.3896 104.749 53.249 104.873 53.1484C104.996 53.0479 105.156 52.995 105.32 53.0004C105.42 52.9991 105.52 53.019 105.611 53.0585C105.702 53.098 105.782 53.1561 105.846 53.2287C105.91 53.3012 105.956 53.3862 105.98 53.4774C106.004 53.5687 106.006 53.6639 105.986 53.756L104.653 53.5421ZM104.142 62.4925C104.324 62.4867 104.496 62.415 104.622 62.2927C104.748 62.1704 104.819 62.007 104.819 61.837C104.819 61.6669 104.748 61.5035 104.622 61.3812C104.496 61.2589 104.324 61.1873 104.142 61.1814C103.96 61.1873 103.788 61.2589 103.662 61.3812C103.536 61.5035 103.465 61.6669 103.465 61.837C103.465 62.007 103.536 62.1704 103.662 62.2927C103.788 62.415 103.96 62.4867 104.142 62.4925ZM98.2318 66.6941C98.1283 66.6671 98.0497 66.6476 98 66.6321L98.2318 66.6941ZM98.6084 66.795C98.4595 66.7562 98.3311 66.7212 98.2318 66.6941L98.6084 66.795ZM104.569 82.7134C104.594 82.8103 104.61 82.9071 104.631 83C104.152 82.7736 103.744 82.4346 103.447 82.0162C103.104 81.5225 102.847 80.9812 102.685 80.4122C102.522 79.8358 102.401 79.2494 102.325 78.6572C102.238 78.0606 102.189 77.4602 102.164 76.8558C102.118 76.2514 102.114 75.6433 102.114 75.0349C102.106 74.4267 102.127 73.8146 102.139 73.2027L102.267 69.7353C102.867 69.8787 103.472 70.0026 104.076 70.1187C103.886 71.3508 103.745 72.5866 103.666 73.8263C103.514 75.8176 103.583 77.8183 103.873 79.7961C103.919 80.0441 103.956 80.2921 104.01 80.5401L104.192 81.2722L104.569 82.7134Z" fill="#020202"/>
<path d="M109.155 139.513C110.346 147.412 111.79 155.296 114 163C109.645 163 103.786 156.993 103.786 156.993L107.258 147.821C107.258 147.821 98.9282 119.993 97.4643 105.448C96.0004 90.8996 98.4663 67 98.4663 67C100.329 67.4552 102.216 67.8164 104.12 68.0822C104.004 68.6234 103.901 69.1724 103.811 69.7174C101.963 69.476 100.124 69.1918 98.2973 68.7869C99.4553 69.2391 100.648 69.6087 101.864 69.8925C101.53 71.0238 101.291 72.1785 101.151 73.3457C100.988 74.589 100.934 75.843 100.99 77.0947C101.029 78.3675 101.277 79.6269 101.724 80.8283C101.962 81.439 102.32 82.0016 102.78 82.4867C103.182 82.9053 103.71 83.1975 104.293 83.3237C104.479 84.1686 104.648 85.0172 104.775 85.8698C105.089 87.8359 105.291 89.8136 105.439 91.7952C105.588 93.7807 105.674 95.7622 105.728 97.7555L105.918 103.739C106.099 107.726 106.268 111.712 106.565 115.695C107.167 123.656 107.971 131.61 109.155 139.513Z" fill="#020202"/>
<path d="M104 70.0607C104.068 69.369 104.144 68.682 104.231 68C109.974 69.0506 115.806 69.1604 121.573 68.3264C121.725 69.1692 121.867 70.0136 122 70.8598C121.01 70.8598 120.033 70.9328 119.047 70.9523L117.575 70.9816C117.084 70.9961 116.593 71.0058 116.106 70.9961C115.616 70.9866 115.125 70.9866 114.634 70.9913L113.166 70.9425C112.188 70.9378 111.21 70.85 110.237 70.8013C108.282 70.6552 106.334 70.4311 104.395 70.129C104.263 70.1047 104.132 70.0802 104 70.0607Z" fill="#020202"/>
<path d="M126 165.383C121.622 167.75 113.802 162.542 113.802 162.542C112.904 158.663 112.184 154.749 111.553 150.823C110.906 146.901 110.341 142.965 109.859 139.015C108.884 131.121 108.14 123.202 107.625 115.258C107.333 111.294 107.144 107.322 106.955 103.345L106.743 97.3827C106.69 95.3928 106.582 93.3909 106.401 91.4048C106.224 89.4187 105.997 87.4325 105.669 85.458C105.511 84.4745 105.311 83.4912 105.084 82.5155L104.703 81.0657L104.526 80.3544C104.472 80.1136 104.433 79.8686 104.387 79.6277C104.064 77.6737 103.943 75.6911 104.025 73.7119C104.067 72.472 104.156 71.2321 104.291 70C104.406 70.0233 104.522 70.0466 104.637 70.0698C106.516 70.4289 108.416 70.6678 110.324 70.7851C112.232 70.892 114.144 70.888 116.05 70.7734C117.005 70.7385 117.952 70.6064 118.9 70.513C119.847 70.3925 120.786 70.2333 121.722 70.0583H121.726C125.738 90.8451 121.78 112.658 121.78 112.658C124.907 127.972 126 165.383 126 165.383Z" fill="#020202"/>
<path d="M113.831 163.043C113.557 164.503 112.959 165.878 112.083 167.063C111.635 167.664 111.102 168.192 110.501 168.631C109.892 169.071 109.21 169.394 108.489 169.586C107.811 169.74 107.146 169.95 106.501 170.216C106.187 170.348 105.892 170.523 105.624 170.736C105.382 170.949 105.159 171.252 105.261 171.541C105.312 171.689 105.413 171.813 105.546 171.89C105.684 171.98 105.839 172.04 106.001 172.067C106.352 172.131 106.698 172.203 107.048 172.255C107.744 172.367 108.446 172.441 109.15 172.476C109.845 172.51 110.542 172.492 111.235 172.422C111.899 172.367 112.547 172.182 113.145 171.878C114.362 171.112 115.619 170.416 116.911 169.792C117.583 169.481 118.289 169.253 119.013 169.112C119.395 169.046 119.785 169.037 120.169 169.087C120.352 169.114 120.534 169.151 120.714 169.199L120.976 169.258C121.047 169.275 121.119 169.287 121.192 169.292C121.498 169.313 121.801 169.23 122.057 169.057C122.312 168.884 122.505 168.63 122.606 168.334C122.659 168.177 122.689 168.013 122.695 167.847L122.731 167.303C122.754 166.94 122.777 166.577 122.809 166.213C122.81 166.204 122.814 166.196 122.82 166.19C122.827 166.184 122.835 166.18 122.844 166.18C122.853 166.18 122.862 166.184 122.868 166.19C122.875 166.196 122.879 166.204 122.879 166.213C122.911 166.577 122.935 166.94 122.958 167.303L122.993 167.847C123.01 168.045 122.995 168.244 122.948 168.436C122.85 168.843 122.621 169.203 122.299 169.461C121.976 169.718 121.579 169.857 121.17 169.856C121.066 169.854 120.962 169.845 120.859 169.826L120.599 169.784C120.433 169.75 120.265 169.727 120.097 169.713C119.775 169.692 119.451 169.72 119.137 169.795C118.475 169.961 117.831 170.196 117.215 170.495C115.95 171.08 114.724 171.79 113.462 172.474C112.778 172.803 112.034 172.979 111.278 172.992C110.555 173.019 109.831 172.978 109.116 172.87C108.404 172.78 107.704 172.633 107.006 172.496L105.963 172.283C105.774 172.248 105.594 172.179 105.429 172.078C105.251 171.976 105.115 171.812 105.045 171.616C105.01 171.514 104.995 171.405 105.002 171.297C105.015 171.193 105.042 171.092 105.084 170.996C105.171 170.818 105.287 170.656 105.427 170.519C105.696 170.257 105.999 170.034 106.327 169.856C106.969 169.512 107.64 169.228 108.333 169.007C108.974 168.792 109.584 168.489 110.147 168.106C110.707 167.709 111.215 167.239 111.66 166.71C112.557 165.611 113.268 164.366 113.763 163.026L113.764 163.023C113.767 163.015 113.773 163.008 113.781 163.004C113.789 163 113.798 162.999 113.806 163.001C113.815 163.004 113.822 163.01 113.826 163.017C113.831 163.025 113.833 163.034 113.831 163.043Z" fill="#020202"/>
<path d="M105.617 158.119C105.337 159.567 104.725 160.932 103.828 162.108C103.37 162.704 102.824 163.229 102.21 163.665C101.586 164.101 100.889 164.421 100.15 164.612C99.4564 164.764 98.7761 164.973 98.1165 165.237C97.795 165.368 97.493 165.541 97.2187 165.753C96.9708 165.965 96.7429 166.266 96.8471 166.552C96.899 166.699 97.0028 166.822 97.1393 166.899C97.2807 166.988 97.4391 167.048 97.6047 167.074C97.964 167.137 98.3177 167.209 98.6759 167.261C99.3884 167.372 100.106 167.445 100.827 167.48C101.538 167.514 102.251 167.496 102.96 167.426C103.64 167.371 104.304 167.188 104.915 166.887C106.16 166.127 107.447 165.435 108.769 164.816C109.457 164.508 110.179 164.282 110.92 164.141C111.311 164.076 111.71 164.068 112.103 164.117C112.291 164.144 112.477 164.181 112.66 164.227L112.929 164.287C113.272 164.367 113.632 164.318 113.941 164.148C114.249 163.979 114.483 163.701 114.597 163.37C114.651 163.214 114.682 163.051 114.688 162.887L114.724 162.346C114.748 161.986 114.772 161.626 114.804 161.265C114.805 161.256 114.809 161.248 114.816 161.242C114.823 161.236 114.831 161.232 114.841 161.232C114.85 161.232 114.858 161.236 114.865 161.242C114.872 161.248 114.876 161.256 114.877 161.265C114.909 161.626 114.933 161.986 114.957 162.346L114.993 162.887C115.01 163.083 114.995 163.28 114.947 163.471C114.846 163.874 114.612 164.233 114.282 164.488C113.952 164.743 113.546 164.881 113.127 164.88C113.021 164.878 112.914 164.869 112.809 164.85L112.543 164.808C112.373 164.775 112.201 164.752 112.029 164.738C111.699 164.717 111.369 164.745 111.047 164.819C110.369 164.984 109.71 165.217 109.08 165.514C107.786 166.095 106.531 166.799 105.239 167.478C104.539 167.804 103.778 167.98 103.005 167.992C102.265 168.019 101.524 167.978 100.792 167.871C100.064 167.782 99.3477 167.636 98.633 167.5L97.5653 167.288C97.3727 167.254 97.188 167.185 97.0198 167.085C96.8376 166.984 96.6979 166.821 96.6259 166.626C96.59 166.525 96.5751 166.418 96.5819 166.31C96.5951 166.207 96.6236 166.106 96.6665 166.011C96.7552 165.835 96.8739 165.674 97.0174 165.538C97.2925 165.278 97.6022 165.056 97.9378 164.88C98.5952 164.539 99.2822 164.257 99.9905 164.038C100.647 163.824 101.271 163.524 101.847 163.144C102.42 162.749 102.94 162.283 103.396 161.758C104.314 160.667 105.041 159.432 105.547 158.102L105.548 158.099C105.551 158.091 105.558 158.084 105.566 158.08C105.574 158.076 105.583 158.075 105.592 158.078C105.6 158.08 105.608 158.086 105.612 158.094C105.617 158.101 105.619 158.11 105.617 158.119ZM97.3666 57.0321C96.274 56.8032 95.242 56.3489 94.3375 55.6984C93.4261 55.0648 92.5901 54.3305 91.8456 53.5093C91.0454 52.7422 90.297 51.9234 89.6053 51.0584C88.9401 50.1357 88.4946 49.0748 88.3026 47.956C88.1109 46.8619 88.0125 45.7537 88.0085 44.6432C87.9885 43.5408 87.9833 42.4575 87.9487 41.3636C87.876 39.1813 87.813 36.997 87.6927 34.8148L87.6482 33.9966L87.6268 33.5873C87.6217 33.476 87.6033 33.3656 87.572 33.2586C87.5189 33.0997 87.4318 32.9541 87.3168 32.8318C87.2017 32.7094 87.0614 32.6132 86.9055 32.5498C86.7495 32.4864 86.5816 32.4572 86.4132 32.4643C86.2449 32.4714 86.08 32.5145 85.93 32.5908L85.185 32.9519C84.6867 33.1894 84.1855 33.4215 83.6798 33.6443C82.6707 34.1053 81.6311 34.4973 80.5682 34.8175C80.297 34.8948 80.0209 34.9546 79.7419 34.9966C79.4439 35.0572 79.1351 35.0395 78.8461 34.9451C78.7661 34.9071 78.6947 34.8535 78.6361 34.7875C78.5937 34.7402 78.5487 34.6952 78.5013 34.6528C78.4043 34.5645 78.2993 34.4796 78.1929 34.3966C77.9794 34.2304 77.7569 34.0716 77.5329 33.9151C76.633 33.2922 75.704 32.7038 74.7798 32.1094C73.8531 31.5176 72.9146 30.9447 72.0069 30.3142C71.7805 30.1552 71.556 29.9936 71.3397 29.8115C71.2169 29.7167 71.1119 29.6012 71.0293 29.4704C71.0153 29.4424 71.0057 29.4124 71.001 29.3815C70.9984 29.3557 71.0009 29.3297 71.0086 29.305C71.0162 29.2802 71.0287 29.2572 71.0453 29.2373C71.0922 29.1896 71.1556 29.1614 71.2227 29.1585C71.2993 29.1538 71.3763 29.1561 71.4525 29.1655C72.0097 29.2088 72.5557 29.2955 73.1022 29.3784C74.1939 29.5526 75.2761 29.7617 76.3574 29.9904L76.2096 30.3123C75.4403 29.7798 74.7275 29.171 74.0821 28.4953C73.9052 28.3069 73.7636 28.0887 73.6637 27.8509C73.6273 27.763 73.6137 27.6675 73.6242 27.5731C73.6346 27.4786 73.6688 27.3883 73.7235 27.3104C73.8378 27.181 73.9946 27.0963 74.166 27.0715C74.4192 27.0306 74.6774 27.0309 74.9305 27.0722C75.1747 27.102 75.4157 27.1538 75.6505 27.227C76.5472 27.5524 77.3809 28.0286 78.1151 28.6349C78.8516 29.2158 79.5362 29.8589 80.1611 30.5571L79.6852 30.5514C80.2912 29.8716 80.9523 29.2423 81.6618 28.6699C82.0241 28.3773 82.4103 28.1152 82.8163 27.8862C83.2534 27.6155 83.7572 27.4698 84.2723 27.4652L83.927 27.939C83.895 27.881 83.8571 27.8264 83.8139 27.7761C83.7621 27.7142 83.7048 27.657 83.6428 27.6051C83.512 27.4971 83.367 27.4074 83.2117 27.3383C82.8786 27.1956 82.5218 27.1153 82.1593 27.1015C81.7712 27.0732 81.4486 27.1383 80.9404 27.1226C80.4492 27.0957 79.9818 26.9031 79.6156 26.5767C79.2765 26.2586 79.017 25.8662 78.8576 25.4307C78.8359 25.3792 78.8188 25.3268 78.8002 25.275L78.7723 25.192L78.7427 25.07C78.7139 24.8976 78.7362 24.7206 78.8069 24.5605C78.8763 24.4056 78.9864 24.2721 79.1256 24.1739C79.2648 24.0758 79.428 24.0166 79.5981 24.0027C79.764 23.9905 79.9303 24.0201 80.0816 24.0889L80.3452 24.2002C80.5236 24.2703 80.7056 24.3338 80.8911 24.3909C81.2641 24.5052 81.6439 24.5966 82.0283 24.6644C82.8162 24.7731 83.6105 24.8302 84.4059 24.8351C85.2762 24.8419 86.1324 25.0531 86.9047 25.4516C87.2864 25.6631 87.6381 25.924 87.9507 26.2274L88.1821 26.4515L88.3887 26.6589C88.5243 26.8002 88.6688 26.9252 88.8125 27.0528C88.9603 27.1769 89.1055 27.2902 89.2734 27.4179C89.4656 27.5544 89.6345 27.7208 89.7737 27.9105C90.0089 28.2737 90.2021 28.662 90.3497 29.0681C90.9415 30.5907 91.4437 32.117 91.9858 33.6362C92.5245 35.1523 93.0807 36.6634 93.6545 38.1694C94.8154 41.1753 96.0146 44.1702 97.2774 47.1393C97.2812 47.1479 97.2814 47.1577 97.278 47.1664C97.2746 47.1752 97.2679 47.1823 97.2593 47.1862C97.2507 47.19 97.2409 47.1904 97.232 47.1872C97.2231 47.184 97.2159 47.1774 97.2118 47.169C95.8066 44.2616 94.4715 41.3199 93.2288 38.3377C92.6027 36.8485 92.0007 35.3487 91.4365 33.8335C90.8653 32.3253 90.3279 30.7964 89.7218 29.323C89.5874 28.9732 89.4156 28.6388 89.2094 28.3253C89.1068 28.1907 88.9819 28.0743 88.84 27.9812C88.6831 27.8672 88.5066 27.7352 88.3449 27.5987C88.1854 27.4591 88.0237 27.3189 87.8786 27.1693L87.6565 26.948L87.451 26.7514C87.1823 26.4917 86.88 26.2687 86.552 26.0884C85.8756 25.7462 85.1269 25.5688 84.3679 25.5709C83.5409 25.5687 82.7151 25.5115 81.8958 25.3996C81.481 25.3282 81.071 25.2313 80.6682 25.1096C80.4658 25.0484 80.265 24.9791 80.0658 24.9018C79.9664 24.8625 79.8674 24.8218 79.769 24.778C79.7355 24.7618 79.6984 24.7546 79.6612 24.7571C79.6284 24.7602 79.597 24.7718 79.57 24.7906C79.5431 24.8094 79.5215 24.8349 79.5074 24.8646C79.4967 24.8903 79.493 24.9184 79.4969 24.946C79.4999 24.954 79.5019 24.9624 79.5028 24.9709L79.5226 25.0315C79.5375 25.0744 79.551 25.1185 79.5683 25.1599C79.6816 25.4869 79.8697 25.7834 80.1179 26.0259C80.3582 26.2458 80.6679 26.376 80.994 26.3944C81.2962 26.4145 81.7834 26.3503 82.2062 26.386C82.6562 26.4097 83.0979 26.5159 83.509 26.6994C83.7231 26.7978 83.9226 26.925 84.1018 27.0775C84.1939 27.1567 84.2789 27.2438 84.3557 27.3377C84.4434 27.4416 84.5162 27.557 84.572 27.6807C84.5963 27.7332 84.6065 27.7911 84.6017 27.8486C84.5969 27.9062 84.5772 27.9616 84.5445 28.0094C84.5118 28.0572 84.4673 28.0958 84.4152 28.1214C84.3631 28.1471 84.3052 28.159 84.2472 28.1559L84.2265 28.1546C83.8419 28.1665 83.4673 28.2791 83.1405 28.4809C82.7665 28.6875 82.4103 28.9243 82.0754 29.1889C81.3914 29.7322 80.7498 30.3262 80.1562 30.9658L80.1525 30.9696C80.1242 30.9999 80.0902 31.0243 80.0524 31.0415C80.0146 31.0587 79.9737 31.0683 79.9322 31.0698C79.8906 31.0713 79.8492 31.0647 79.8102 31.0502C79.7713 31.0358 79.7355 31.0139 79.7051 30.9858L79.6802 30.9601C79.0934 30.2802 78.4489 29.6517 77.7537 29.0814C77.0787 28.5049 76.3125 28.043 75.4861 27.7144C75.2836 27.6452 75.0753 27.5942 74.8637 27.562C74.6632 27.5223 74.4577 27.5142 74.2547 27.5379C74.1969 27.5438 74.1414 27.5635 74.093 27.5955C74.0883 27.5953 74.0716 27.6247 74.0986 27.7087C74.1758 27.8938 74.2834 28.065 74.4172 28.215C75.0215 28.8838 75.6938 29.4888 76.4234 30.0202L76.4288 30.0244C76.4616 30.0496 76.4847 30.0852 76.4943 30.1253C76.5039 30.1654 76.4994 30.2075 76.4815 30.2447C76.4636 30.2819 76.4334 30.3118 76.3959 30.3296C76.3585 30.3473 76.3161 30.3517 76.2757 30.3421C75.2086 30.0888 74.1333 29.8531 73.0547 29.6537C72.5158 29.5538 71.9725 29.4706 71.4322 29.4216C71.3719 29.4135 71.311 29.4104 71.2502 29.4121C71.2236 29.4102 71.217 29.4267 71.2392 29.4032C71.2453 29.3967 71.2499 29.389 71.2526 29.3805C71.2553 29.3721 71.256 29.3631 71.2547 29.3543C71.2586 29.3551 71.2522 29.3511 71.2595 29.3621C71.3276 29.4605 71.4099 29.5484 71.5039 29.6229C71.706 29.7965 71.9263 29.9587 72.148 30.1173C73.9381 31.3791 75.8488 32.4761 77.6813 33.7021C77.9096 33.8574 78.1367 34.0151 78.3588 34.1835C78.4698 34.2682 78.5798 34.3546 78.6869 34.4498C78.7424 34.4983 78.7952 34.5499 78.8449 34.6042C78.8777 34.6408 78.9178 34.6703 78.9626 34.6908C79.202 34.7583 79.4548 34.7632 79.6966 34.7051C79.9608 34.6568 80.2216 34.5916 80.4773 34.51C81.5127 34.1624 82.5231 33.7452 83.5013 33.2611C83.9952 33.0246 84.4857 32.7807 84.9728 32.5295L85.7015 32.1491C85.9876 31.9941 86.3129 31.9253 86.6377 31.9512C86.9668 31.9776 87.2812 32.0978 87.5434 32.2972C87.8055 32.4966 88.0043 32.7668 88.1159 33.0755C88.1673 33.2295 88.1997 33.3891 88.2123 33.5509L88.2419 33.9608L88.2944 34.7808C88.4234 36.968 88.5511 39.1569 88.5754 41.3499C88.6437 43.5437 88.4696 45.7453 88.8424 47.8561C89.0055 48.9055 89.3968 49.9069 89.989 50.7908C90.6439 51.6577 91.3551 52.4811 92.1181 53.2558C92.8248 54.0837 93.6155 54.8369 94.4778 55.5034C94.9118 55.8319 95.373 56.1232 95.8565 56.3744C96.3359 56.6339 96.8468 56.8311 97.3767 56.9612L97.3807 56.9622C97.3899 56.9642 97.3979 56.9697 97.403 56.9776C97.4082 56.9854 97.41 56.9949 97.4081 57.004C97.4063 57.0132 97.4009 57.0212 97.3931 57.0265C97.3854 57.0317 97.3758 57.0337 97.3666 57.0321Z" fill="#020202"/>
<path d="M76.3656 30.0448L79 32L76.1222 30.4421C76.0683 30.4129 76.028 30.3631 76.0101 30.3035C75.9922 30.244 75.9983 30.1797 76.0269 30.1247C76.0555 30.0697 76.1044 30.0286 76.1627 30.0103C76.2211 29.9921 76.2842 29.9982 76.3381 30.0273C76.3476 30.0326 76.3568 30.0384 76.3656 30.0448Z" fill="#020202"/>
<path d="M30.0185 47.6624C29.9638 46.4508 29.9168 45.2586 29.8816 44.078C29.8425 42.8975 29.819 41.7285 29.8033 40.5597C29.7956 39.5228 29.7956 38.4858 29.8112 37.449C28.6807 37.4334 27.5501 37.4219 26.4197 37.3947C25.2226 37.3674 24.0295 37.3286 22.8326 37.2781C22.7973 38.3965 22.7544 39.5189 22.7504 40.6372C22.7348 41.8296 22.7544 43.0217 22.8013 44.2138L22.95 47.7904C22.9812 48.8739 22.9812 49.9574 22.9694 51.0371C24.0804 51.0526 25.1914 51.0875 26.3219 51.138L28.2231 51.235L30.1828 51.3399L30.0185 47.6624ZM49.2216 31.321C49.1629 30.4706 49.116 29.6473 49.1121 28.824C48.8617 28.8202 48.6153 28.8124 48.3649 28.8046L47.2032 28.7697C46.4951 28.7542 45.787 28.6998 45.079 28.6453C45.0477 29.0725 45.0164 29.5035 45.0047 29.9308C44.9968 30.4395 44.9929 30.9443 45.0203 31.4492C45.0711 32.3463 45.1885 33.2432 45.2159 34.1403C45.8378 34.1443 46.4559 34.1754 47.0935 34.218C47.8525 34.2763 48.6348 34.3578 49.4993 34.4511C49.3937 33.3443 49.292 32.3112 49.2216 31.321ZM49.2216 31.321C49.1629 30.4706 49.116 29.6473 49.1121 28.824C48.8617 28.8202 48.6153 28.8124 48.3649 28.8046L47.2032 28.7697C46.4951 28.7542 45.787 28.6998 45.079 28.6453C45.0477 29.0725 45.0164 29.5035 45.0047 29.9308C44.9968 30.4395 44.9929 30.9443 45.0203 31.4492C45.0711 32.3463 45.1885 33.2432 45.2159 34.1403C45.8378 34.1443 46.4559 34.1754 47.0935 34.218C47.8525 34.2763 48.6348 34.3578 49.4993 34.4511C49.3937 33.3443 49.292 32.3112 49.2216 31.321ZM30.0185 47.6624C29.9638 46.4508 29.9168 45.2586 29.8816 44.078C29.8425 42.8975 29.819 41.7285 29.8033 40.5597C29.7956 39.5228 29.7956 38.4858 29.8112 37.449C28.6807 37.4334 27.5501 37.4219 26.4197 37.3947C25.2226 37.3674 24.0295 37.3286 22.8326 37.2781C22.7973 38.3965 22.7544 39.5189 22.7504 40.6372C22.7348 41.8296 22.7544 43.0217 22.8013 44.2138L22.95 47.7904C22.9812 48.8739 22.9812 49.9574 22.9694 51.0371C24.0804 51.0526 25.1914 51.0875 26.3219 51.138L28.2231 51.235L30.1828 51.3399L30.0185 47.6624ZM30.0185 47.6624C29.9638 46.4508 29.9168 45.2586 29.8816 44.078C29.8425 42.8975 29.819 41.7285 29.8033 40.5597C29.7956 39.5228 29.7956 38.4858 29.8112 37.449C28.6807 37.4334 27.5501 37.4219 26.4197 37.3947C25.2226 37.3674 24.0295 37.3286 22.8326 37.2781C22.7973 38.3965 22.7544 39.5189 22.7504 40.6372C22.7348 41.8296 22.7544 43.0217 22.8013 44.2138L22.95 47.7904C22.9812 48.8739 22.9812 49.9574 22.9694 51.0371C24.0804 51.0526 25.1914 51.0875 26.3219 51.138L28.2231 51.235L30.1828 51.3399L30.0185 47.6624ZM49.2216 31.321C49.1629 30.4706 49.116 29.6473 49.1121 28.824C48.8617 28.8202 48.6153 28.8124 48.3649 28.8046L47.2032 28.7697C46.4951 28.7542 45.787 28.6998 45.079 28.6453C45.0477 29.0725 45.0164 29.5035 45.0047 29.9308C44.9968 30.4395 44.9929 30.9443 45.0203 31.4492C45.0711 32.3463 45.1885 33.2432 45.2159 34.1403C45.8378 34.1443 46.4559 34.1754 47.0935 34.218C47.8525 34.2763 48.6348 34.3578 49.4993 34.4511C49.3937 33.3443 49.292 32.3112 49.2216 31.321ZM49.2216 31.321C49.1629 30.4706 49.116 29.6473 49.1121 28.824C48.8617 28.8202 48.6153 28.8124 48.3649 28.8046L47.2032 28.7697C46.4951 28.7542 45.787 28.6998 45.079 28.6453C45.0477 29.0725 45.0164 29.5035 45.0047 29.9308C44.9968 30.4395 44.9929 30.9443 45.0203 31.4492C45.0711 32.3463 45.1885 33.2432 45.2159 34.1403C45.8378 34.1443 46.4559 34.1754 47.0935 34.218C47.8525 34.2763 48.6348 34.3578 49.4993 34.4511C49.3937 33.3443 49.292 32.3112 49.2216 31.321ZM30.0185 47.6624C29.9638 46.4508 29.9168 45.2586 29.8816 44.078C29.8425 42.8975 29.819 41.7285 29.8033 40.5597C29.7956 39.5228 29.7956 38.4858 29.8112 37.449C28.6807 37.4334 27.5501 37.4219 26.4197 37.3947C25.2226 37.3674 24.0295 37.3286 22.8326 37.2781C22.7973 38.3965 22.7544 39.5189 22.7504 40.6372C22.7348 41.8296 22.7544 43.0217 22.8013 44.2138L22.95 47.7904C22.9812 48.8739 22.9812 49.9574 22.9694 51.0371C24.0804 51.0526 25.1914 51.0875 26.3219 51.138L28.2231 51.235L30.1828 51.3399L30.0185 47.6624ZM30.0185 47.6624C29.9638 46.4508 29.9168 45.2586 29.8816 44.078C29.8425 42.8975 29.819 41.7285 29.8033 40.5597C29.7956 39.5228 29.7956 38.4858 29.8112 37.449C28.6807 37.4334 27.5501 37.4219 26.4197 37.3947C25.2226 37.3674 24.0295 37.3286 22.8326 37.2781C22.7973 38.3965 22.7544 39.5189 22.7504 40.6372C22.7348 41.8296 22.7544 43.0217 22.8013 44.2138L22.95 47.7904C22.9812 48.8739 22.9812 49.9574 22.9694 51.0371C24.0804 51.0526 25.1914 51.0875 26.3219 51.138L28.2231 51.235L30.1828 51.3399L30.0185 47.6624ZM49.2216 31.321C49.1629 30.4706 49.116 29.6473 49.1121 28.824C48.8617 28.8202 48.6153 28.8124 48.3649 28.8046L47.2032 28.7697C46.4951 28.7542 45.787 28.6998 45.079 28.6453C45.0477 29.0725 45.0164 29.5035 45.0047 29.9308C44.9968 30.4395 44.9929 30.9443 45.0203 31.4492C45.0711 32.3463 45.1885 33.2432 45.2159 34.1403C45.8378 34.1443 46.4559 34.1754 47.0935 34.218C47.8525 34.2763 48.6348 34.3578 49.4993 34.4511C49.3937 33.3443 49.292 32.3112 49.2216 31.321ZM49.2216 31.321C49.1629 30.4706 49.116 29.6473 49.1121 28.824C48.8617 28.8202 48.6153 28.8124 48.3649 28.8046L47.2032 28.7697C46.4951 28.7542 45.787 28.6998 45.079 28.6453C45.0477 29.0725 45.0164 29.5035 45.0047 29.9308C44.9968 30.4395 44.9929 30.9443 45.0203 31.4492C45.0711 32.3463 45.1885 33.2432 45.2159 34.1403C45.8378 34.1443 46.4559 34.1754 47.0935 34.218C47.8525 34.2763 48.6348 34.3578 49.4993 34.4511C49.3937 33.3443 49.292 32.3112 49.2216 31.321ZM30.0185 47.6624C29.9638 46.4508 29.9168 45.2586 29.8816 44.078C29.8425 42.8975 29.819 41.7285 29.8033 40.5597C29.7956 39.5228 29.7956 38.4858 29.8112 37.449C28.6807 37.4334 27.5501 37.4219 26.4197 37.3947C25.2226 37.3674 24.0295 37.3286 22.8326 37.2781C22.7973 38.3965 22.7544 39.5189 22.7504 40.6372C22.7348 41.8296 22.7544 43.0217 22.8013 44.2138L22.95 47.7904C22.9812 48.8739 22.9812 49.9574 22.9694 51.0371C24.0804 51.0526 25.1914 51.0875 26.3219 51.138L28.2231 51.235L30.1828 51.3399L30.0185 47.6624ZM50.579 22.0202H20.904C19.8687 22.0205 18.8758 22.4289 18.1437 23.1557C17.4116 23.8824 17.0003 24.8681 17 25.8959V52.1244C17.0002 53.1522 17.4116 54.1378 18.1437 54.8646C18.8758 55.5914 19.8686 55.9998 20.904 56H44.8795V50.2993C43.9289 50.4506 42.9784 50.5321 42.0278 50.5905C41.0498 50.6525 40.0719 50.6681 39.0939 50.6758C38.116 50.6681 37.138 50.6487 36.1601 50.5905C35.1788 50.5397 34.2009 50.4385 33.2301 50.2875C34.2006 50.1346 35.1787 50.0335 36.1601 49.9847C37.138 49.9225 38.116 49.9069 39.0939 49.8992C40.0719 49.9069 41.0498 49.9225 42.0278 49.9847C42.9829 50.0316 43.9348 50.1288 44.8795 50.2759V47.4565C43.9145 47.6112 42.9416 47.7123 41.9652 47.7595C40.9951 47.8215 40.025 47.841 39.0549 47.8448C38.0808 47.8371 37.1107 47.8215 36.1405 47.7595C35.1656 47.7104 34.1941 47.6093 33.2301 47.4565C34.1941 47.3051 35.1657 47.2053 36.1405 47.1575C37.1107 47.0955 38.0808 47.0759 39.0549 47.0682C40.025 47.0759 40.9951 47.0915 41.9652 47.1537C42.9412 47.2047 43.914 47.3057 44.8795 47.4565V44.8081C43.9345 44.9531 42.9827 45.0504 42.0278 45.0993C41.0498 45.1615 40.0719 45.1771 39.0939 45.1847C38.116 45.1771 37.138 45.1615 36.1601 45.0993C35.1788 45.0486 34.2008 44.9475 33.2301 44.7963C34.2009 44.6454 35.1788 44.5443 36.1601 44.4935C37.138 44.4313 38.116 44.4158 39.0939 44.408C40.0719 44.4158 41.0498 44.4313 42.0278 44.4935C42.9827 44.5425 43.9345 44.6397 44.8795 44.7848V44.3964C44.8792 43.8872 44.98 43.3829 45.176 42.9124C45.3721 42.4418 45.6596 42.0142 46.0221 41.654C46.3846 41.2937 46.8151 41.0079 47.2889 40.8128C47.7627 40.6177 48.2705 40.5172 48.7835 40.517H54.483V25.8959C54.4832 25.3868 54.3823 24.8828 54.1862 24.4125C53.9901 23.9422 53.7025 23.5148 53.34 23.1549C52.9774 22.795 52.547 22.5095 52.0732 22.3148C51.5995 22.1201 51.0917 22.02 50.579 22.0202ZM27.5932 28.1133C29.2479 28.0512 30.9026 28.0357 32.5573 28.0279C34.212 28.0357 35.8666 28.0513 37.5214 28.1133C39.1799 28.1717 40.8346 28.2532 42.4894 28.4163C40.8346 28.5793 39.1799 28.6609 37.5214 28.7191C35.8667 28.7813 34.212 28.7968 32.5573 28.8046C30.9026 28.7968 29.2479 28.7813 27.5932 28.7191C25.9385 28.6609 24.2838 28.5755 22.6292 28.4163C24.2838 28.257 25.9385 28.1717 27.5932 28.1133ZM27.5932 31.1851C29.2479 31.1229 30.9026 31.1036 32.5573 31.0958C34.212 31.1036 35.8666 31.1191 37.5214 31.1813C39.1799 31.2395 40.8346 31.3248 42.4894 31.4841C40.8346 31.6472 39.1799 31.7327 37.5214 31.7869C35.8667 31.8491 34.212 31.8685 32.5573 31.8725C30.9026 31.8647 29.2479 31.8491 27.5932 31.7869C25.9385 31.7287 24.2838 31.6472 22.6292 31.4841C24.2838 31.3248 25.9385 31.2395 27.5932 31.1851ZM30.621 40.715C30.6014 41.9304 30.578 43.1459 30.5388 44.3498C30.5036 45.5537 30.4592 46.7446 30.4058 47.9226C30.3589 49.0992 30.3002 50.2604 30.2376 51.3943L28.4069 51.503L26.5175 51.6001C25.2383 51.6545 23.9317 51.6933 22.6292 51.7049L22.2927 51.7089L22.2888 51.3672C22.2692 50.1749 22.2731 48.9827 22.3084 47.7904L22.4531 44.2138C22.5 43.0217 22.5196 41.8296 22.504 40.6372C22.5 39.4451 22.4531 38.253 22.414 37.0606L22.4062 36.8549L22.6292 36.8471C23.8927 36.7927 25.1562 36.75 26.4197 36.7267C27.6832 36.6956 28.9467 36.6841 30.2102 36.6645L30.6014 36.6567L30.6092 37.0606C30.6327 38.2761 30.6288 39.4955 30.621 40.715ZM32.5573 34.8665C30.9026 34.8588 29.2479 34.8432 27.5932 34.781C25.9385 34.7268 24.2838 34.6413 22.6292 34.4822C24.2838 34.3189 25.9385 34.2336 27.5932 34.1792C29.2479 34.117 30.9026 34.1014 32.5573 34.0938C34.212 34.0976 35.8666 34.117 37.5214 34.1792C39.1799 34.2336 40.8346 34.3189 42.4894 34.4822C40.8346 34.6413 39.1799 34.7268 37.5214 34.785C35.8666 34.8432 34.212 34.8628 32.5573 34.8665ZM41.9652 42.2721C40.9951 42.3343 40.025 42.3499 39.0548 42.3576C38.0808 42.3499 37.1107 42.3305 36.1405 42.2683C35.1656 42.2206 34.1941 42.1208 33.2301 41.9693C34.194 41.8166 35.1656 41.7155 36.1405 41.6665C37.1107 41.6043 38.0808 41.5887 39.0548 41.581C40.025 41.5849 40.9951 41.6043 41.9652 41.6665C42.9415 41.7135 43.9145 41.8146 44.8795 41.9693C43.914 42.1202 42.9412 42.2212 41.9652 42.2721ZM41.9652 39.3131C40.9951 39.3751 40.025 39.3907 39.0548 39.3984C38.0808 39.3907 37.1107 39.3751 36.1405 39.3131C35.1657 39.2622 34.1943 39.161 33.2301 39.0101C34.1943 38.8593 35.1657 38.7583 36.1405 38.7073C37.1107 38.6451 38.0808 38.6295 39.0548 38.6218C40.025 38.6295 40.9951 38.6451 41.9652 38.7073C42.9414 38.7563 43.9142 38.8574 44.8795 39.0101C43.9145 39.1648 42.9415 39.2659 41.9652 39.3131ZM49.8318 31.5734C49.7614 32.6065 49.6597 33.5967 49.5541 34.5093C48.8695 34.6024 48.1028 34.6839 47.3126 34.7424C46.5186 34.7966 45.6971 34.8317 44.8795 34.8277L44.5274 34.8239L44.5314 34.4822C44.5314 33.4685 44.68 32.459 44.7348 31.4493C44.766 30.9443 44.7621 30.4395 44.7543 29.9308C44.7387 29.426 44.6995 28.9211 44.6643 28.4163L44.6526 28.2221L44.8795 28.2026C45.654 28.1406 46.4285 28.0822 47.2031 28.0628L48.3648 28.028C48.7522 28.0202 49.1395 28.0007 49.5267 28.0007L49.9414 28.0046L49.9452 28.4163C49.957 29.4764 49.9023 30.5444 49.8318 31.5734ZM49.1121 28.824C48.8617 28.8202 48.6153 28.8124 48.3649 28.8046L47.2032 28.7697C46.4951 28.7542 45.787 28.6998 45.079 28.6453C45.0477 29.0725 45.0164 29.5035 45.0047 29.9308C44.9968 30.4395 44.9929 30.9443 45.0203 31.4492C45.0711 32.3463 45.1885 33.2432 45.2159 34.1403C45.8378 34.1443 46.4559 34.1754 47.0935 34.218C47.8525 34.2763 48.6348 34.3578 49.4993 34.4511C49.3937 33.3443 49.292 32.3112 49.2216 31.321C49.1629 30.4706 49.116 29.6473 49.1121 28.824ZM29.8816 44.078C29.8425 42.8975 29.819 41.7285 29.8033 40.5597C29.7956 39.5228 29.7956 38.4858 29.8112 37.449C28.6807 37.4334 27.5501 37.4219 26.4197 37.3947C25.2226 37.3674 24.0295 37.3286 22.8326 37.2781C22.7973 38.3965 22.7544 39.5189 22.7504 40.6372C22.7348 41.8296 22.7544 43.0217 22.8013 44.2138L22.95 47.7904C22.9812 48.8739 22.9812 49.9574 22.9694 51.0371C24.0804 51.0526 25.1914 51.0875 26.3219 51.138L28.2231 51.235L30.1828 51.3399L30.0185 47.6624C29.9638 46.4508 29.9168 45.2586 29.8816 44.078ZM30.0185 47.6624C29.9638 46.4508 29.9168 45.2586 29.8816 44.078C29.8425 42.8975 29.819 41.7285 29.8033 40.5597C29.7956 39.5228 29.7956 38.4858 29.8112 37.449C28.6807 37.4334 27.5501 37.4219 26.4197 37.3947C25.2226 37.3674 24.0295 37.3286 22.8326 37.2781C22.7973 38.3965 22.7544 39.5189 22.7504 40.6372C22.7348 41.8296 22.7544 43.0217 22.8013 44.2138L22.95 47.7904C22.9812 48.8739 22.9812 49.9574 22.9694 51.0371C24.0804 51.0526 25.1914 51.0875 26.3219 51.138L28.2231 51.235L30.1828 51.3399L30.0185 47.6624ZM49.2216 31.321C49.1629 30.4706 49.116 29.6473 49.1121 28.824C48.8617 28.8202 48.6153 28.8124 48.3649 28.8046L47.2032 28.7697C46.4951 28.7542 45.787 28.6998 45.079 28.6453C45.0477 29.0725 45.0164 29.5035 45.0047 29.9308C44.9968 30.4395 44.9929 30.9443 45.0203 31.4492C45.0711 32.3463 45.1885 33.2432 45.2159 34.1403C45.8378 34.1443 46.4559 34.1754 47.0935 34.218C47.8525 34.2763 48.6348 34.3578 49.4993 34.4511C49.3937 33.3443 49.292 32.3112 49.2216 31.321ZM49.2216 31.321C49.1629 30.4706 49.116 29.6473 49.1121 28.824C48.8617 28.8202 48.6153 28.8124 48.3649 28.8046L47.2032 28.7697C46.4951 28.7542 45.787 28.6998 45.079 28.6453C45.0477 29.0725 45.0164 29.5035 45.0047 29.9308C44.9968 30.4395 44.9929 30.9443 45.0203 31.4492C45.0711 32.3463 45.1885 33.2432 45.2159 34.1403C45.8378 34.1443 46.4559 34.1754 47.0935 34.218C47.8525 34.2763 48.6348 34.3578 49.4993 34.4511C49.3937 33.3443 49.292 32.3112 49.2216 31.321ZM30.0185 47.6624C29.9638 46.4508 29.9168 45.2586 29.8816 44.078C29.8425 42.8975 29.819 41.7285 29.8033 40.5597C29.7956 39.5228 29.7956 38.4858 29.8112 37.449C28.6807 37.4334 27.5501 37.4219 26.4197 37.3947C25.2226 37.3674 24.0295 37.3286 22.8326 37.2781C22.7973 38.3965 22.7544 39.5189 22.7504 40.6372C22.7348 41.8296 22.7544 43.0217 22.8013 44.2138L22.95 47.7904C22.9812 48.8739 22.9812 49.9574 22.9694 51.0371C24.0804 51.0526 25.1914 51.0875 26.3219 51.138L28.2231 51.235L30.1828 51.3399L30.0185 47.6624ZM30.0185 47.6624C29.9638 46.4508 29.9168 45.2586 29.8816 44.078C29.8425 42.8975 29.819 41.7285 29.8033 40.5597C29.7956 39.5228 29.7956 38.4858 29.8112 37.449C28.6807 37.4334 27.5501 37.4219 26.4197 37.3947C25.2226 37.3674 24.0295 37.3286 22.8326 37.2781C22.7973 38.3965 22.7544 39.5189 22.7504 40.6372C22.7348 41.8296 22.7544 43.0217 22.8013 44.2138L22.95 47.7904C22.9812 48.8739 22.9812 49.9574 22.9694 51.0371C24.0804 51.0526 25.1914 51.0875 26.3219 51.138L28.2231 51.235L30.1828 51.3399L30.0185 47.6624ZM49.2216 31.321C49.1629 30.4706 49.116 29.6473 49.1121 28.824C48.8617 28.8202 48.6153 28.8124 48.3649 28.8046L47.2032 28.7697C46.4951 28.7542 45.787 28.6998 45.079 28.6453C45.0477 29.0725 45.0164 29.5035 45.0047 29.9308C44.9968 30.4395 44.9929 30.9443 45.0203 31.4492C45.0711 32.3463 45.1885 33.2432 45.2159 34.1403C45.8378 34.1443 46.4559 34.1754 47.0935 34.218C47.8525 34.2763 48.6348 34.3578 49.4993 34.4511C49.3937 33.3443 49.292 32.3112 49.2216 31.321ZM49.2216 31.321C49.1629 30.4706 49.116 29.6473 49.1121 28.824C48.8617 28.8202 48.6153 28.8124 48.3649 28.8046L47.2032 28.7697C46.4951 28.7542 45.787 28.6998 45.079 28.6453C45.0477 29.0725 45.0164 29.5035 45.0047 29.9308C44.9968 30.4395 44.9929 30.9443 45.0203 31.4492C45.0711 32.3463 45.1885 33.2432 45.2159 34.1403C45.8378 34.1443 46.4559 34.1754 47.0935 34.218C47.8525 34.2763 48.6348 34.3578 49.4993 34.4511C49.3937 33.3443 49.292 32.3112 49.2216 31.321ZM30.0185 47.6624C29.9638 46.4508 29.9168 45.2586 29.8816 44.078C29.8425 42.8975 29.819 41.7285 29.8033 40.5597C29.7956 39.5228 29.7956 38.4858 29.8112 37.449C28.6807 37.4334 27.5501 37.4219 26.4197 37.3947C25.2226 37.3674 24.0295 37.3286 22.8326 37.2781C22.7973 38.3965 22.7544 39.5189 22.7504 40.6372C22.7348 41.8296 22.7544 43.0217 22.8013 44.2138L22.95 47.7904C22.9812 48.8739 22.9812 49.9574 22.9694 51.0371C24.0804 51.0526 25.1914 51.0875 26.3219 51.138L28.2231 51.235L30.1828 51.3399L30.0185 47.6624ZM49.2216 31.321C49.1629 30.4706 49.116 29.6473 49.1121 28.824C48.8617 28.8202 48.6153 28.8124 48.3649 28.8046L47.2032 28.7697C46.4951 28.7542 45.787 28.6998 45.079 28.6453C45.0477 29.0725 45.0164 29.5035 45.0047 29.9308C44.9968 30.4395 44.9929 30.9443 45.0203 31.4492C45.0711 32.3463 45.1885 33.2432 45.2159 34.1403C45.8378 34.1443 46.4559 34.1754 47.0935 34.218C47.8525 34.2763 48.6348 34.3578 49.4993 34.4511C49.3937 33.3443 49.292 32.3112 49.2216 31.321ZM49.2216 31.321C49.1629 30.4706 49.116 29.6473 49.1121 28.824C48.8617 28.8202 48.6153 28.8124 48.3649 28.8046L47.2032 28.7697C46.4951 28.7542 45.787 28.6998 45.079 28.6453C45.0477 29.0725 45.0164 29.5035 45.0047 29.9308C44.9968 30.4395 44.9929 30.9443 45.0203 31.4492C45.0711 32.3463 45.1885 33.2432 45.2159 34.1403C45.8378 34.1443 46.4559 34.1754 47.0935 34.218C47.8525 34.2763 48.6348 34.3578 49.4993 34.4511C49.3937 33.3443 49.292 32.3112 49.2216 31.321ZM179.419 38.0779C176.346 38.0984 173.273 38.0971 170.2 38.1356L160.981 38.2664C157.907 38.322 154.834 38.3294 151.761 38.3517C150.217 38.362 148.706 38.3735 147.133 38.3411C146.306 38.2905 145.509 38.0148 144.829 37.5442C144.149 37.0737 143.613 36.4264 143.278 35.6734C143.112 35.2996 143.001 34.9037 142.949 34.4981C142.922 34.2964 142.907 34.0932 142.906 33.8896L142.911 33.3156L142.936 31.0277L142.988 26.4514L143.04 21.8752L143.063 17.2989C143.087 14.2481 143.073 11.1973 143.062 8.14656L143.054 5.85842C143.041 5.46764 143.067 5.07654 143.132 4.69094C143.213 4.30375 143.344 3.92859 143.522 3.57484C143.884 2.86329 144.437 2.26471 145.119 1.84495C145.805 1.42203 146.594 1.19343 147.401 1.18394C153.547 1.13919 159.693 1.0622 165.84 1.04363L175.059 1.00722C176.605 1.0038 178.111 0.988257 179.691 1.01727C180.531 1.06731 181.34 1.34585 182.032 1.82239C182.723 2.29892 183.268 2.95507 183.609 3.71896C183.778 4.099 183.893 4.50072 183.95 4.91242C183.98 5.11759 183.996 5.32445 183.999 5.53172L184 6.10608L183.996 8.39421C183.995 9.9195 183.994 11.445 183.975 12.9705C183.945 16.0213 183.926 19.072 183.869 22.1228L183.732 31.2754L183.708 33.5633C183.716 33.9496 183.685 34.3357 183.615 34.7158C183.53 35.0944 183.396 35.4605 183.217 35.805C182.853 36.492 182.307 37.067 181.638 37.4677C180.968 37.8684 180.201 38.0795 179.419 38.0779ZM179.419 38.0064C180.184 37.9995 180.933 37.7849 181.584 37.386C182.233 36.9894 182.76 36.4225 183.106 35.7479C183.276 35.4121 183.401 35.056 183.479 34.6883C183.543 34.3168 183.569 33.9399 183.557 33.5633L183.532 31.2754L183.396 22.1228C183.339 19.072 183.32 16.0213 183.29 12.9705C183.271 11.445 183.27 9.9195 183.268 8.39421L183.265 6.10608L183.263 5.53646C183.259 5.36241 183.245 5.18875 183.219 5.01653C183.17 4.6719 183.073 4.33575 182.93 4.018C182.644 3.37962 182.186 2.83186 181.607 2.43476C181.027 2.03767 180.349 1.80658 179.646 1.76684C179.478 1.7549 179.287 1.75395 179.093 1.75584L178.516 1.75679L177.364 1.7585L175.059 1.75205L165.84 1.71564C159.693 1.69706 153.547 1.62008 147.401 1.57532C146.661 1.57129 145.933 1.76867 145.298 2.14604C144.662 2.52341 144.143 3.06636 143.797 3.71593C143.625 4.04231 143.497 4.38935 143.415 4.74841C143.346 5.11433 143.315 5.48626 143.322 5.85844L143.315 8.14658C143.303 11.1974 143.289 14.2481 143.313 17.2989L143.336 21.8752L143.388 26.4515L143.44 31.0277L143.465 33.3157L143.473 33.8859C143.478 34.0636 143.495 34.2409 143.523 34.4166C143.577 34.7673 143.678 35.1093 143.823 35.4333C144.116 36.0825 144.583 36.6391 145.174 37.0422C145.764 37.4452 146.455 37.6791 147.17 37.7182L151.761 37.7327C154.834 37.755 157.907 37.7624 160.981 37.818L170.2 37.9488C173.273 37.9873 176.346 37.986 179.419 38.0064Z" fill="black"/>
<path d="M195.43 66.7182C192.364 66.7385 189.298 66.7372 186.232 66.7753L177.033 66.9048C173.967 66.9599 170.901 66.9672 167.835 66.9893C166.294 66.9997 164.787 67.0109 163.218 66.9788C162.392 66.9287 161.597 66.6557 160.918 66.1897C160.24 65.7237 159.705 65.0827 159.371 64.337C159.205 63.9668 159.094 63.5747 159.043 63.1731C159.016 62.9734 159.001 62.7721 159 62.5705L159.005 62.0023L159.03 59.7364L159.081 55.2045L159.134 50.6726L159.157 46.1409C159.18 43.1196 159.167 40.0984 159.155 37.0772L159.147 34.8113C159.134 34.4243 159.16 34.0371 159.225 33.6553C159.306 33.2718 159.436 32.9002 159.614 32.5498C159.975 31.8452 160.527 31.2525 161.208 30.8367C161.892 30.4179 162.679 30.1916 163.484 30.1823C169.617 30.1378 175.749 30.0616 181.881 30.0432L191.08 30.0073C192.622 30.0037 194.124 29.9883 195.7 30.0172C196.538 30.0667 197.347 30.3426 198.036 30.8145C198.726 31.2864 199.27 31.9362 199.61 32.6927C199.779 33.0691 199.893 33.4669 199.95 33.8746C199.98 34.0777 199.996 34.2825 199.999 34.4877L200 35.0565L199.996 37.3224C199.995 38.8331 199.994 40.3436 199.975 41.8543C199.945 44.8755 199.926 47.8967 199.869 50.9178L199.733 59.9816L199.709 62.2475C199.716 62.63 199.685 63.0123 199.615 63.3887C199.531 63.7636 199.398 64.1261 199.218 64.4673C198.856 65.1477 198.311 65.7172 197.643 66.1141C196.975 66.5109 196.21 66.7198 195.43 66.7182ZM195.43 66.6474C196.193 66.6407 196.94 66.4282 197.589 66.0332C198.237 65.6403 198.763 65.079 199.108 64.4109C199.277 64.0784 199.403 63.7256 199.48 63.3614C199.544 62.9936 199.57 62.6205 199.558 62.2475L199.533 59.9816L199.397 50.9179C199.34 47.8967 199.322 44.8755 199.291 41.8543C199.272 40.3436 199.271 38.8331 199.27 37.3224L199.266 35.0565L199.264 34.4924C199.261 34.32 199.246 34.1481 199.221 33.9775C199.172 33.6362 199.075 33.3034 198.933 32.9887C198.647 32.3565 198.19 31.8141 197.612 31.4209C197.034 31.0277 196.358 30.7989 195.656 30.7595C195.489 30.7477 195.298 30.7468 195.104 30.7486L194.529 30.7494L193.379 30.7511L191.08 30.7447L181.881 30.7088C175.749 30.6904 169.617 30.6142 163.485 30.5697C162.746 30.5657 162.02 30.7612 161.386 31.1349C160.752 31.5086 160.234 32.0463 159.889 32.6895C159.717 33.0128 159.589 33.3564 159.508 33.712C159.439 34.0744 159.408 34.4427 159.415 34.8113L159.407 37.0772C159.396 40.0984 159.382 43.1196 159.406 46.1409L159.429 50.6726L159.481 55.2045L159.532 59.7364L159.558 62.0023L159.565 62.5668C159.571 62.7428 159.587 62.9184 159.615 63.0924C159.669 63.4397 159.77 63.7783 159.915 64.0992C160.207 64.7421 160.673 65.2934 161.262 65.6925C161.851 66.0916 162.541 66.3233 163.254 66.362L167.835 66.3762C170.901 66.3984 173.967 66.4057 177.033 66.4607L186.232 66.5903C189.298 66.6284 192.364 66.6271 195.43 66.6474Z" fill="black"/>
<path d="M163.687 30C163.133 30 162.585 30.1078 162.073 30.3173C161.561 30.5267 161.095 30.8337 160.703 31.2207C160.312 31.6078 160.001 32.0672 159.789 32.5729C159.577 33.0786 159.467 33.6205 159.468 34.1679V38.222H179.78C180.899 38.222 181.973 37.7829 182.764 37.0012C183.555 36.2196 184 35.1595 184 34.0541V30H163.687ZM33.9172 94.7166C28.2114 94.7052 22.5056 94.8196 16.7999 94.9044C13.947 94.9598 11.0942 94.9671 8.24122 94.9894C6.80677 95 5.40646 95.0102 3.94378 94.9798C3.17166 94.9326 2.42758 94.6765 1.79305 94.2394C1.15852 93.8024 0.658026 93.2012 0.346394 92.5019C0.190829 92.1549 0.0875036 91.7872 0.0397006 91.4107C0.0142396 91.2234 0.000979768 91.0348 0 90.8459L0.00497662 90.3156L0.0303308 88.2025L0.0818006 83.9759L0.134319 79.7493L0.157657 75.5228C0.181287 72.7052 0.167706 69.8875 0.155748 67.0699L0.147904 64.9566C0.135676 64.595 0.159903 64.2331 0.220225 63.8763C0.295084 63.5176 0.416694 63.17 0.582018 62.8422C0.91899 62.183 1.43343 61.6282 2.06881 61.2389C2.70703 60.8466 3.4418 60.6343 4.19347 60.6251C9.89925 60.5567 15.605 60.5101 21.3108 60.4851L29.8695 60.449C31.3057 60.445 32.7006 60.4309 34.1707 60.4581C34.9555 60.5047 35.7121 60.7637 36.3577 61.2067C37.0034 61.6497 37.5131 62.2597 37.8312 62.9698C37.9894 63.3231 38.0967 63.6965 38.1501 64.0792C38.1779 64.2698 38.1932 64.462 38.196 64.6546L38.1965 65.1854L38.1929 67.2986C38.1914 68.7075 38.1906 70.1162 38.1715 71.5251C38.141 74.3427 38.1223 77.1603 38.0655 79.9782L37.9284 88.431L37.9041 90.5444C37.9112 90.9015 37.8819 91.2584 37.8167 91.6098C37.7379 91.9598 37.6134 92.2982 37.4465 92.6166C37.1076 93.2508 36.5997 93.7816 35.9778 94.1517C35.3558 94.5218 34.6433 94.7171 33.9172 94.7166ZM33.9172 94.6453C34.6252 94.638 35.3177 94.4399 35.9201 94.0724C36.5224 93.7049 37.0118 93.1819 37.3353 92.5599C37.4927 92.2502 37.6089 91.9216 37.681 91.5824C37.7401 91.2397 37.764 90.8919 37.7524 90.5445L37.7281 88.4311L37.591 79.9782C37.5341 77.1604 37.5155 74.3428 37.4849 71.5251C37.4658 70.1162 37.465 68.7075 37.4635 67.2986L37.4601 65.1854L37.4579 64.6595C37.4547 64.5 37.4412 64.3408 37.4176 64.183C37.3728 63.867 37.2832 63.5589 37.1516 63.2676C36.8876 62.6827 36.4657 62.1808 35.9321 61.8169C35.3985 61.4531 34.7737 61.2414 34.1263 61.2051C33.9719 61.1942 33.7949 61.1934 33.6139 61.1951L33.079 61.196L32.0091 61.1977L29.8694 61.1911L21.3108 61.155C15.605 61.1343 9.89924 61.0876 4.19345 61.015C3.50871 61.0121 2.83614 61.1938 2.24828 61.5406C1.66042 61.8874 1.17958 62.3862 0.85761 62.9831C0.698678 63.2835 0.579648 63.603 0.503468 63.9336C0.439419 64.2708 0.410441 64.6136 0.416987 64.9566L0.40924 67.07C0.397282 69.8876 0.383699 72.7052 0.407231 75.5229L0.430669 79.7494L0.483187 83.9759L0.534557 88.2025L0.559915 90.3157L0.567565 90.8421C0.572624 91.0054 0.588152 91.1681 0.614055 91.3295C0.664428 91.6514 0.758012 91.9652 0.892337 92.2627C1.1626 92.8585 1.59375 93.3693 2.1385 93.7391C2.68326 94.1089 3.32059 94.3234 3.98061 94.3591L8.24122 94.3725C11.0942 94.3948 13.947 94.4022 16.7999 94.4575C22.5056 94.5422 28.2114 94.6565 33.9172 94.6453Z" fill="black"/>
<path d="M50.3269 46.3868C52.0055 46.2367 53.6841 46.1582 55.3627 46.1049C57.0413 46.0469 58.7199 46.0315 60.3985 46.0244C62.0772 46.0306 63.7558 46.0462 65.4344 46.1037C67.1129 46.1568 68.7915 46.2357 70.4701 46.3868C68.7915 46.5377 67.1129 46.6166 65.4344 46.6697C63.7558 46.7273 62.0772 46.7429 60.3985 46.7492C58.7199 46.7419 57.0413 46.7265 55.3627 46.6686C53.6841 46.6153 52.0055 46.5368 50.3269 46.3868ZM50.3269 49.5017C52.0055 49.3517 53.6841 49.2732 55.3627 49.2199C57.0413 49.162 58.7199 49.1466 60.3985 49.1393C62.0772 49.1456 63.7558 49.1612 65.4344 49.2187C67.1129 49.2719 68.7915 49.3508 70.4701 49.5017C68.7915 49.6527 67.1129 49.7317 65.4344 49.7848C63.7558 49.8423 62.0772 49.8579 60.3985 49.8641C58.7199 49.857 57.0413 49.8416 55.3627 49.7836C53.6841 49.7303 52.0055 49.6518 50.3269 49.5017ZM50.3269 52.5416C52.0055 52.3915 53.6841 52.313 55.3627 52.2597C57.0413 52.2019 58.7199 52.1863 60.3985 52.1792C62.0772 52.1856 63.7558 52.201 65.4344 52.2587C67.1129 52.3118 68.7915 52.3905 70.4701 52.5416C68.7915 52.6925 67.1129 52.7714 65.4344 52.8245C63.7558 52.8823 62.0772 52.8977 60.3985 52.904C58.7199 52.8967 57.0413 52.8813 55.3627 52.8236C53.6841 52.7701 52.0055 52.6917 50.3269 52.5416ZM77.6353 52.5672C76.932 52.6556 76.1559 52.7306 75.3535 52.7847C74.5498 52.8361 73.7193 52.8709 72.8948 52.865L72.5685 52.8626L72.5693 52.5416C72.5718 51.5158 72.7081 50.49 72.7611 49.4641C72.7892 48.9512 72.7858 48.4383 72.7774 47.9254C72.7652 47.4127 72.7264 46.8997 72.6949 46.3868L72.6838 46.204L72.8948 46.1882C73.6806 46.1297 74.4664 46.0741 75.2521 46.0556L76.4307 46.0238C76.8237 46.0152 77.2166 45.9973 77.6095 46.0004L77.9945 46.0032L77.9984 46.3868C78.0097 47.4588 77.9586 48.5374 77.8945 49.5815C77.8285 50.6264 77.7335 51.6332 77.6353 52.5672ZM77.5837 52.516C77.4855 51.3984 77.3903 50.3535 77.3244 49.3469C77.2604 48.3394 77.2093 47.3663 77.2205 46.3868L77.6095 46.7731C77.2166 46.7762 76.8237 46.7583 76.4307 46.7496L75.2521 46.7179C74.4664 46.6994 73.6806 46.6438 72.8948 46.5853L73.0946 46.3868C73.0633 46.8997 73.0243 47.4127 73.0121 47.9254C73.0037 48.4383 73.0003 48.9512 73.0284 49.4641C73.0815 50.49 73.2177 51.5158 73.2203 52.5416L72.8948 52.2181C73.6419 52.2123 74.3829 52.2471 75.1508 52.2985C75.92 52.3526 76.7154 52.4277 77.5837 52.516ZM58.0445 69.7086L56.182 69.8091L54.2627 69.8984C52.9672 69.9494 51.6461 69.9881 50.3269 69.9977L50.0141 70L50.0101 69.6828C49.9944 68.4726 49.9948 67.2622 50.0273 66.052L50.164 62.4212C50.2077 61.2108 50.2239 60.0004 50.2127 58.7901C50.2082 57.5799 50.1647 56.3695 50.1271 55.1593L50.1212 54.9686L50.3269 54.9607C51.6089 54.912 52.8908 54.8712 54.1728 54.8471L58.0186 54.7902L58.3839 54.7848L58.3901 55.1593C58.4107 56.3915 58.4094 57.6282 58.399 58.8623C58.3841 60.0956 58.3615 61.3272 58.3205 62.5453C58.2579 64.9882 58.1557 67.3935 58.0445 69.7086ZM57.9929 69.6572C57.8817 67.1313 57.7796 64.6951 57.717 62.297C57.676 61.0945 57.6534 59.9053 57.6384 58.7182C57.628 57.5316 57.6268 56.3478 57.6473 55.1593L58.0187 55.5283L54.1728 55.4713C52.8908 55.4472 51.6089 55.4064 50.3269 55.3578L50.5267 55.1593C50.489 56.3695 50.4456 57.5799 50.4411 58.7902C50.4287 60.0006 50.4449 61.2109 50.4898 62.4212L50.6265 66.052C50.6589 67.2622 50.6594 68.4726 50.6437 69.6828L50.3269 69.3682C51.5716 69.3778 52.8145 69.4165 54.083 69.4675L57.9929 69.6572ZM61.0784 57.14C62.4468 56.9898 63.8151 56.9113 65.1835 56.858C66.5519 56.8003 67.9201 56.7847 69.2885 56.7776C70.6568 56.7839 72.0252 56.7993 73.3936 56.857C74.7618 56.9102 76.1302 56.9891 77.4985 57.14C76.1302 57.2908 74.7618 57.3698 73.3936 57.4229C72.0252 57.4806 70.6569 57.496 69.2885 57.5024C67.9201 57.4951 66.5519 57.4797 65.1835 57.4219C63.8151 57.3684 62.4468 57.2901 61.0784 57.14ZM61.0784 60.1412C62.4468 59.9911 63.8151 59.9126 65.1835 59.8593C66.5519 59.8015 67.9201 59.786 69.2885 59.7788C70.6568 59.7852 72.0252 59.8006 73.3936 59.8583C74.7618 59.9114 76.1302 59.9902 77.4985 60.1412C76.1302 60.2921 74.7618 60.371 73.3936 60.4242C72.0252 60.4819 70.6569 60.4973 69.2885 60.5037C67.9201 60.4963 66.5519 60.4809 65.1835 60.423C63.8151 60.3697 62.4468 60.2912 61.0784 60.1412ZM61.0784 63.0122C62.4537 62.8621 63.8289 62.7836 65.2041 62.7303C66.5794 62.6723 67.9546 62.6569 69.3298 62.6498C70.7051 62.6562 72.0802 62.6716 73.4555 62.7291C74.8307 62.7822 76.2059 62.8611 77.5812 63.0122C76.2059 63.1631 74.8307 63.242 73.4555 63.2951C72.0802 63.3529 70.7051 63.3683 69.3298 63.3746C67.9546 63.3673 66.5794 63.3519 65.2041 63.294C63.8289 63.2407 62.4537 63.1622 61.0784 63.0122ZM61.0784 65.7142C62.4468 65.5641 63.8151 65.4858 65.1835 65.4325C66.5519 65.3745 67.9201 65.3591 69.2885 65.3518C70.6568 65.3582 72.0252 65.3736 73.3936 65.4313C74.7618 65.4844 76.1302 65.5633 77.4985 65.7142C76.1302 65.8653 74.7618 65.944 73.3936 65.9971C72.0252 66.0549 70.6569 66.0703 69.2885 66.0766C67.9201 66.0695 66.5519 66.0539 65.1835 65.9962C63.8151 65.9429 62.4468 65.8643 61.0784 65.7142ZM61.0784 68.5852C62.4537 68.4351 63.8289 68.3567 65.2041 68.3032C66.5794 68.2455 67.9546 68.2301 69.3298 68.2228C70.7051 68.2291 72.0802 68.2445 73.4555 68.3023C74.8307 68.3554 76.2059 68.4343 77.5812 68.5852C76.2059 68.7361 74.8307 68.815 73.4555 68.8681C72.0802 68.9259 70.7051 68.9413 69.3298 68.9476C67.9546 68.9405 66.5794 68.9249 65.2041 68.8672C63.8289 68.8138 62.4537 68.7353 61.0784 68.5852Z" fill="black"/>
<path d="M78.5354 74.7152C72.8939 74.704 67.2523 74.8189 61.6108 74.9039C58.7901 74.9595 55.9692 74.9669 53.1485 74.9893C51.7301 75.0001 50.3456 75.0102 48.8995 74.9796C48.136 74.9322 47.4003 74.6749 46.7729 74.2358C46.1455 73.7967 45.6506 73.1929 45.3425 72.4903C45.1887 72.1417 45.0865 71.7723 45.0394 71.394C45.0141 71.2059 45.001 71.0164 45 70.8266L45.005 70.2941L45.0301 68.171L45.0809 63.9251L45.1328 59.679L45.156 55.4329C45.1792 52.6022 45.1658 49.7714 45.154 46.9407L45.1463 44.8178C45.1342 44.4545 45.1581 44.091 45.2177 43.7325C45.2918 43.3722 45.412 43.023 45.5756 42.6937C45.9086 42.0314 46.4172 41.474 47.0455 41.083C47.6766 40.6889 48.4031 40.4756 49.1463 40.4664C54.7879 40.3977 60.4294 40.3508 66.0709 40.3257L74.5332 40.2895C75.9532 40.2855 77.3324 40.2712 78.786 40.2986C79.5619 40.3454 80.31 40.6055 80.9484 41.0506C81.5868 41.4957 82.0908 42.1085 82.4053 42.8219C82.5617 43.1767 82.6678 43.5518 82.7205 43.9362C82.748 44.1278 82.7632 44.3209 82.766 44.5145L82.7664 45.0475L82.763 47.1707C82.7615 48.5859 82.7607 50.0013 82.7418 51.4165C82.7116 54.2474 82.6932 57.078 82.6369 59.9087L82.5014 68.4009L82.4773 70.5238C82.4843 70.8826 82.4554 71.2411 82.3909 71.5941C82.3129 71.9458 82.1899 72.2858 82.0248 72.6057C81.6898 73.2429 81.1876 73.7761 80.5727 74.1479C79.9577 74.5196 79.2533 74.7158 78.5354 74.7152ZM78.5354 74.6436C79.2354 74.6363 79.9201 74.4374 80.5157 74.0682C81.1113 73.699 81.5951 73.1737 81.9149 72.5488C82.0706 72.2375 82.1855 71.9074 82.2569 71.5666C82.3152 71.2222 82.3388 70.8729 82.3273 70.5238L82.3033 68.4009L82.1678 59.9087C82.1116 57.078 82.0931 54.2474 82.063 51.4165C82.044 50.0013 82.0433 48.5859 82.0418 47.1707L82.0383 45.0475L82.0361 44.5192C82.033 44.3589 82.0197 44.199 81.9963 44.0404C81.952 43.7231 81.8635 43.4136 81.7333 43.121C81.4724 42.5334 81.0553 42.0291 80.5276 41.6636C80 41.2981 79.3823 41.0854 78.7422 41.049C78.5894 41.038 78.4144 41.037 78.2355 41.0389L77.7066 41.0397L76.6488 41.0414L74.5332 41.0349L66.0708 40.9987C60.4294 40.9776 54.7879 40.9307 49.1463 40.858C48.4693 40.855 47.8043 41.0375 47.223 41.386C46.6418 41.7344 46.1663 42.2355 45.848 42.8351C45.6908 43.137 45.5731 43.4579 45.4978 43.79C45.4345 44.1288 45.4059 44.4732 45.4124 44.8178L45.4046 46.9408C45.3928 49.7714 45.3794 52.6023 45.4027 55.4329L45.4258 59.679L45.4777 63.9251L45.5286 68.171L45.5537 70.2941L45.5613 70.823C45.5662 70.9869 45.5815 71.1504 45.6072 71.3124C45.657 71.6358 45.7495 71.9511 45.8823 72.25C46.1495 72.8485 46.5758 73.3617 47.1145 73.7332C47.6531 74.1047 48.2833 74.3202 48.9359 74.356L53.1485 74.3697C55.9692 74.3919 58.7901 74.3993 61.6108 74.455C67.2523 74.5402 72.8939 74.655 78.5354 74.6436ZM148.343 25.4752C150.731 25.2785 153.119 25.1754 155.507 25.1056C157.895 25.0296 160.283 25.0095 162.671 25C165.06 25.0084 167.448 25.0285 169.836 25.104C172.224 25.1737 174.612 25.2772 177 25.4752C174.612 25.6732 172.224 25.7766 169.836 25.8463C167.448 25.9218 165.06 25.9422 162.671 25.9503C160.283 25.9408 157.895 25.9207 155.507 25.8448C153.119 25.7749 150.731 25.672 148.343 25.4752Z" fill="black"/>
<path d="M151.449 6C151.635 7.91657 151.732 9.83334 151.798 11.7499C151.87 13.6667 151.889 15.5832 151.898 17.5C151.89 19.4166 151.871 21.3333 151.799 23.2499C151.733 25.1667 151.636 27.0832 151.449 29C151.262 27.0832 151.164 25.1667 151.098 23.2499C151.027 21.3333 151.008 19.4166 151 17.5C151.009 15.5832 151.028 13.6667 151.1 11.7499C151.166 9.83333 151.263 7.91657 151.449 6ZM158.776 26.2111C157.993 26.2628 157.173 26.3074 156.338 26.3429C155.505 26.386 154.651 26.4022 153.802 26.4102L153.607 26.4121L153.603 26.1938C153.58 24.7031 153.661 23.2123 153.71 21.7216C153.73 20.9762 153.742 20.2308 153.728 19.4856C153.725 18.7401 153.702 17.9947 153.679 17.2495L153.675 17.1214L153.802 17.1158C154.629 17.0789 155.455 17.0516 156.281 17.0339L158.76 16.9947L158.993 16.991L158.995 17.2495C159.001 18.0093 159.004 18.7735 158.991 19.5333C158.984 20.2947 158.964 21.0518 158.941 21.8031C158.905 23.3098 158.84 24.787 158.776 26.2111ZM158.745 26.1766C158.681 24.6193 158.615 23.115 158.579 21.6402C158.557 20.9006 158.537 20.1671 158.53 19.4378C158.517 18.707 158.52 17.9801 158.526 17.2495L158.76 17.5041L156.281 17.4649C155.455 17.4468 154.629 17.4195 153.802 17.3831L153.925 17.2495C153.902 17.9948 153.879 18.7402 153.876 19.4856C153.863 20.2308 153.875 20.9762 153.894 21.7217C153.943 23.2123 154.024 24.7032 154.001 26.1938L153.802 25.9774C154.606 25.9856 155.405 26.0018 156.224 26.0447C157.042 26.0801 157.875 26.125 158.745 26.1766Z" fill="black"/>
<path d="M164.754 25.8176C163.87 25.8551 162.963 25.9021 162.034 25.9299C161.108 25.9633 160.167 25.9946 159.224 25.999L159.026 26L159.023 25.7999C159.012 24.6703 158.99 23.5405 159.005 22.4109C159.018 21.2811 159.065 20.1515 159.096 19.0217C159.136 17.8921 159.153 16.7625 159.145 15.6328C159.141 14.503 159.121 13.3732 159.087 12.2436L159.083 12.1118L159.224 12.1074C161.061 12.0506 162.899 12.0155 164.736 12.002L164.976 12L164.979 12.2436C164.991 13.3873 165.005 14.5357 164.998 15.6826C164.992 16.8284 164.981 17.9757 164.952 19.1109C164.923 20.2452 164.907 21.3836 164.867 22.4991L164.754 25.8176ZM164.719 25.7824L164.606 22.3226C164.565 21.1787 164.549 20.0578 164.52 18.9328C164.491 17.8086 164.481 16.6964 164.474 15.5829C164.468 14.4704 164.482 13.3595 164.494 12.2436L164.736 12.4852C162.899 12.4699 161.061 12.4348 159.224 12.3798L159.36 12.2436C159.328 13.3734 159.308 14.5031 159.302 15.6328C159.295 16.7624 159.312 17.892 159.351 19.0217C159.382 20.1515 159.429 21.2811 159.442 22.4109C159.457 23.5405 159.435 24.6703 159.423 25.7999L159.224 25.6008C160.118 25.6051 161.014 25.6367 161.926 25.6699L164.719 25.7824Z" fill="black"/>
<path d="M169.755 25.8237L167.032 25.9295C166.105 25.9537 165.167 25.9968 164.225 25.9994L164.032 26L164.031 25.8061C164.023 24.5087 163.99 23.2113 164.003 21.9139C164.01 20.6168 164.056 19.3194 164.089 18.022C164.131 16.7247 164.143 15.4273 164.147 14.1299L164.131 12.184L164.088 10.238L164.085 10.1055L164.225 10.1017C166.062 10.0523 167.9 10.0149 169.737 10.0018L169.972 10L169.974 10.2381C169.983 11.5485 170.006 12.8654 169.999 14.1798C170 15.4953 169.981 16.808 169.957 18.1131C169.927 19.4146 169.912 20.7215 169.871 22.0048L169.755 25.8237ZM169.719 25.7886L169.603 21.8235L169.516 17.931C169.493 16.6414 169.474 15.3593 169.475 14.0803C169.468 12.8 169.491 11.5221 169.5 10.238L169.737 10.4743C167.899 10.4609 166.062 10.4236 164.225 10.3741L164.361 10.238L164.318 12.184L164.302 14.1299C164.306 15.4273 164.318 16.7247 164.36 18.022C164.393 19.3194 164.439 20.6168 164.446 21.9139C164.459 23.2113 164.426 24.5087 164.419 25.806L164.225 25.6127C165.119 25.6153 166.019 25.6584 166.93 25.6828L169.719 25.7886Z" fill="black"/>
<path d="M174.543 25.2495C173.692 25.2855 172.818 25.3306 171.923 25.3573C171.031 25.3892 170.124 25.4193 169.215 25.4235L169.025 25.4244L169.023 25.2326C169.011 24.1494 168.99 23.0661 169.005 21.9829C169.017 20.8996 169.063 19.8164 169.092 18.7331C169.131 17.6499 169.147 16.5667 169.14 15.4834C169.136 14.4001 169.117 13.3168 169.084 12.2336L169.08 12.1072L169.215 12.103C170.986 12.0485 172.756 12.0148 174.526 12.0019L174.758 12L174.76 12.2336C174.772 13.3302 174.785 14.4315 174.779 15.5312C174.772 16.6299 174.763 17.73 174.734 18.8185C174.707 19.9063 174.691 20.9978 174.652 22.0674L174.543 25.2495ZM174.509 25.2158L174.401 21.8982C174.362 20.8013 174.346 19.7266 174.318 18.6478C174.29 17.5698 174.28 16.5034 174.274 15.4356C174.268 14.3689 174.281 13.3036 174.293 12.2336L174.526 12.4652C172.756 12.4506 170.986 12.4169 169.215 12.3642L169.347 12.2336C169.316 13.3169 169.295 14.4001 169.291 15.4834C169.284 16.5666 169.3 17.6498 169.339 18.7331C169.368 19.8164 169.413 20.8996 169.426 21.9829C169.44 23.0661 169.42 24.1494 169.408 25.2326L169.215 25.0416C170.077 25.0458 170.94 25.0761 171.819 25.1079L174.509 25.2158ZM169.271 56.9711C170.027 54.8442 170.835 52.7386 171.674 50.6458C172.091 49.5988 172.517 48.555 172.951 47.5145L173.031 47.3192C173.068 47.2337 173.114 47.1521 173.167 47.0753C173.273 46.9169 173.417 46.7867 173.586 46.6963C173.753 46.6057 173.937 46.5521 174.127 46.5394C174.316 46.5266 174.506 46.555 174.683 46.6225C174.861 46.6935 175.021 46.8018 175.152 46.9398C175.264 47.0704 175.355 47.2173 175.422 47.3754L175.786 48.1387C176.743 50.1813 177.652 52.2471 178.632 54.2784L179.003 55.0383C179.056 55.1611 179.12 55.2781 179.197 55.3875C179.273 55.4876 179.372 55.5672 179.487 55.6189C179.601 55.673 179.725 55.7015 179.851 55.7025C179.977 55.7036 180.101 55.677 180.216 55.6248C180.33 55.5745 180.43 55.497 180.507 55.3993C180.585 55.2922 180.651 55.1768 180.703 55.0551C181.211 54.0483 181.692 53.0274 182.187 52.0141C183.159 49.978 184.151 47.9518 185.162 45.9357L185.921 44.4238L186.3 43.6679L186.49 43.2898C186.527 43.2205 186.541 43.1783 186.597 43.0865C186.644 43.0012 186.702 42.9214 186.768 42.8489C186.902 42.7027 187.068 42.5882 187.253 42.5137C187.438 42.4392 187.637 42.4067 187.836 42.4185C188.036 42.4303 188.23 42.4862 188.404 42.582C188.579 42.6778 188.73 42.8112 188.846 42.9723C188.899 43.0495 188.946 43.1309 188.986 43.2158L189.076 43.4073L189.255 43.7905L189.61 44.5576C191.48 48.6618 193.306 52.7856 195 56.9699L194.934 57C192.823 53.0062 190.845 48.9519 188.909 44.878L188.552 44.1116L188.374 43.728L188.285 43.5363C188.265 43.4937 188.242 43.4527 188.215 43.4137C188.165 43.3463 188.1 43.2905 188.026 43.2502C187.951 43.2099 187.869 43.186 187.784 43.1803C187.699 43.1745 187.615 43.187 187.535 43.2168C187.456 43.2466 187.384 43.2931 187.325 43.353C187.255 43.4353 187.197 43.5273 187.154 43.626L186.956 43.9999L186.56 44.7474L185.768 46.2427C184.715 48.2379 183.639 50.2213 182.54 52.1928C182.001 53.184 181.448 54.168 180.922 55.1659C180.808 55.4549 180.59 55.6918 180.31 55.8308C180.165 55.8954 180.008 55.9276 179.849 55.9249C179.69 55.9222 179.533 55.8849 179.391 55.8154C179.118 55.6676 178.909 55.4261 178.803 55.1362L178.421 54.3812C177.394 52.3731 176.296 50.3996 175.245 48.4026L174.857 47.6512C174.812 47.5503 174.752 47.4561 174.681 47.3716C174.615 47.3056 174.537 47.2535 174.451 47.2183C174.362 47.1856 174.267 47.1724 174.172 47.1794C174.078 47.1865 173.986 47.2138 173.903 47.2594C173.821 47.3032 173.751 47.3658 173.698 47.442C173.67 47.4809 173.646 47.5221 173.626 47.5653L173.542 47.7595C173.098 48.7958 172.648 49.8294 172.191 50.8601C171.278 52.9221 170.334 54.9711 169.338 56.9989L169.271 56.9711Z" fill="black"/>
<path d="M164 56.9722C164.764 54.9305 165.58 52.9092 166.428 50.9002C166.85 49.8951 167.28 48.8931 167.718 47.8943L167.8 47.7068C167.837 47.6248 167.883 47.5464 167.936 47.4727C168.044 47.3206 168.19 47.1956 168.361 47.1089C168.529 47.0218 168.715 46.9704 168.907 46.9582C169.098 46.9459 169.29 46.9732 169.469 47.038C169.648 47.1062 169.81 47.2101 169.943 47.3426C170.056 47.4679 170.148 47.6089 170.216 47.7607L170.583 48.4935C171.551 50.4543 172.469 52.4374 173.459 54.3874L173.835 55.1169C173.887 55.2347 173.953 55.3471 174.031 55.452C174.107 55.5481 174.208 55.6245 174.324 55.6742C174.438 55.7261 174.564 55.7535 174.691 55.7545C174.818 55.7555 174.944 55.73 175.06 55.6799C175.175 55.6316 175.277 55.5572 175.354 55.4633C175.433 55.3606 175.5 55.2498 175.553 55.133C176.066 54.1664 176.552 53.1864 177.052 52.2137C178.034 50.2591 179.036 48.3141 180.058 46.3786L180.825 44.9273L181.209 44.2016L181.4 43.8387C181.438 43.7722 181.452 43.7316 181.508 43.6436C181.556 43.5616 181.614 43.4851 181.681 43.4155C181.817 43.2751 181.984 43.1651 182.171 43.0936C182.358 43.0221 182.559 42.9909 182.761 43.0023C182.962 43.0136 183.158 43.0673 183.335 43.1593C183.511 43.2513 183.664 43.3793 183.781 43.5339C183.835 43.608 183.882 43.6862 183.923 43.7676L184.013 43.9515L184.194 44.3193L184.554 45.0558C186.443 48.9956 188.288 52.9543 190 56.9711L189.934 57C187.8 53.1661 185.801 49.2741 183.845 45.3633L183.484 44.6276L183.304 44.2594L183.214 44.0754C183.194 44.0345 183.171 43.9951 183.144 43.9577C183.093 43.8929 183.027 43.8394 182.952 43.8007C182.877 43.762 182.794 43.7391 182.708 43.7336C182.623 43.728 182.537 43.74 182.457 43.7686C182.376 43.7972 182.304 43.8418 182.244 43.8994C182.173 43.9784 182.115 44.0667 182.071 44.1614L181.871 44.5203L181.471 45.238L180.671 46.6734C179.607 48.5887 178.52 50.4927 177.409 52.3853C176.864 53.3368 176.305 54.2814 175.774 55.2393C175.658 55.5167 175.438 55.7441 175.155 55.8776C175.009 55.9397 174.85 55.9705 174.689 55.968C174.528 55.9654 174.37 55.9295 174.226 55.8628C173.95 55.721 173.739 55.4891 173.632 55.2108L173.247 54.4861C172.208 52.5583 171.098 50.6639 170.037 48.7468L169.644 48.0255C169.599 47.9286 169.539 47.8382 169.467 47.757C169.4 47.6938 169.321 47.6437 169.234 47.6099C169.144 47.5785 169.048 47.5658 168.953 47.5726C168.857 47.5794 168.764 47.6056 168.68 47.6494C168.597 47.6915 168.526 47.7516 168.473 47.8246C168.445 47.862 168.421 47.9016 168.4 47.9431L168.316 48.1295C167.867 49.1243 167.412 50.1164 166.951 51.1059C166.028 53.0853 165.074 55.0524 164.068 56.9989L164 56.9722Z" fill="black"/>
<path d="M181.177 55.3243C181.097 55.4834 180.973 55.6168 180.822 55.7095C180.67 55.8022 180.496 55.8506 180.318 55.8492C180.141 55.8479 179.967 55.7969 179.817 55.702C179.666 55.607 179.545 55.4718 179.467 55.3115L177.667 51.6341L175.794 55.3243C175.713 55.4834 175.59 55.6168 175.438 55.7095C175.286 55.8022 175.112 55.8506 174.934 55.8492C174.757 55.8479 174.583 55.7969 174.433 55.702C174.283 55.607 174.161 55.4718 174.083 55.3115L172.153 51.3671L169.8 57.034H190L185.404 47L181.177 55.3243ZM19.228 78.5492L20.6946 88.943C20.671 88.9468 20.6475 88.9468 20.6279 88.9509C20.4789 88.9667 20.3298 88.9785 20.1808 88.9863H20.1338C17.9356 89.0984 15.7571 88.5191 13.9007 87.3286C12.0443 86.1381 10.6019 84.3956 9.77361 82.3427C9.76978 82.323 9.76193 82.3072 9.758 82.2914C9.70306 82.1573 9.6482 82.0191 9.6011 81.8808C9.57754 81.8176 9.55801 81.7505 9.53839 81.6875C9.50699 81.5927 9.47568 81.494 9.44428 81.3953C9.39335 81.2295 9.35017 81.0597 9.30699 80.8901C9.25999 80.7007 9.22074 80.5071 9.18158 80.3177C9.17373 80.2743 9.1698 80.2309 9.16193 80.1874C9.13446 80.0335 9.11091 79.8834 9.09138 79.7296C9.08353 79.6901 9.0796 79.6506 9.07568 79.611C9.05605 79.4491 9.04035 79.2913 9.02858 79.1296C9.02531 79.1007 9.024 79.0717 9.02465 79.0426C9.01287 78.869 9.00502 78.6912 9.00119 78.5176V78.4742C8.98352 77.2921 9.16243 76.1153 9.53052 74.9926C9.53837 74.9727 9.54622 74.949 9.55407 74.9294C9.605 74.7715 9.65989 74.6176 9.71874 74.4675L9.76583 74.349C9.82067 74.2148 9.87947 74.0807 9.93835 73.9463C9.95799 73.8991 9.9775 73.8556 9.99713 73.8122C10.0638 73.674 10.1305 73.5399 10.1971 73.4057C10.2167 73.37 10.2364 73.3346 10.2521 73.2991C10.3423 73.1293 10.4364 72.9635 10.5344 72.8016C10.5501 72.7779 10.5657 72.7542 10.5814 72.7266C10.6637 72.5925 10.7501 72.4581 10.8363 72.328C10.8716 72.2766 10.9069 72.2293 10.9422 72.1819C10.9578 72.1582 10.9735 72.1345 10.9892 72.1148L19.228 78.5492ZM19.5339 77.7795L11.4716 71.4871C13.2106 69.3911 15.6826 68.0472 18.3774 67.7328C21.0722 67.4184 23.784 68.1576 25.9531 69.7976L19.5339 77.7795ZM22.1377 88.6903C21.9181 88.7456 21.6945 88.793 21.4749 88.8325L20.0122 78.4466L26.5687 70.2949C26.6746 70.3897 26.7765 70.4844 26.8785 70.5831C26.9021 70.6029 26.9217 70.6226 26.9413 70.6424C27.1374 70.8319 27.3294 71.0293 27.5099 71.2346C27.5099 71.2351 27.51 71.2356 27.5102 71.2361C27.5104 71.2365 27.5107 71.237 27.511 71.2373C27.5114 71.2377 27.5118 71.238 27.5123 71.2382C27.5128 71.2383 27.5133 71.2384 27.5138 71.2384C27.891 71.6651 28.2332 72.1219 28.5372 72.6042C28.5411 72.6083 28.5411 72.6121 28.5451 72.6162C28.847 73.0943 29.1106 73.5958 29.3333 74.1162C29.3376 74.1234 29.3403 74.1315 29.3411 74.1399C29.447 74.3846 29.5372 74.6333 29.6234 74.886C29.6391 74.9294 29.6548 74.9727 29.6666 75.0163C29.7489 75.2649 29.8234 75.5174 29.8861 75.7742C30.22 77.1344 30.2843 78.5476 30.0756 79.9329C29.8668 81.3182 29.3891 82.6485 28.6695 83.8479C27.95 85.0473 27.0028 86.0923 25.8821 86.9231C24.7613 87.754 23.489 88.3545 22.1377 88.6903Z" fill="black"/>
<path d="M11 72.2977L11.1972 72.0512C11.1328 72.1334 11.0684 72.2194 11.0081 72.3056L11 72.2977ZM11.495 71.6752L11.503 71.6831C11.4185 71.7809 11.334 71.8828 11.2496 71.9845L11.495 71.6752ZM21.0242 88.9882C21.1127 88.9765 21.2012 88.9687 21.2898 88.957L20.9678 89V88.9922C20.9839 88.9922 21.0041 88.9882 21.0242 88.9882ZM21.4708 88.9295C21.5714 88.9178 21.668 88.9021 21.7686 88.8827V88.8903L21.4708 88.9295ZM26.3723 70L26.6861 70.2506C26.5815 70.1684 26.4729 70.086 26.3642 70.0078L26.3723 70ZM27 70.4971L26.996 70.5009C26.8994 70.4188 26.7988 70.3366 26.6982 70.2584L27 70.4971Z" fill="white"/>
</svg>
