<svg width="150" height="167" viewBox="0 0 150 167" fill="none" xmlns="http://www.w3.org/2000/svg">
<path d="M75.9963 77.5165C76.0319 78.1737 76.1267 78.8264 76.2794 79.4669L0 81V70.8817L76.4853 71.6993C76.3008 72.3315 76.1716 72.9784 76.0992 73.6327C76.0177 74.28 75.9705 74.923 75.9533 75.5703C75.9334 76.2194 75.9477 76.869 75.9963 77.5165ZM84 70.8817V77.9339L76.2794 79.4669C76.4619 78.8342 76.591 78.1875 76.6654 77.5336C76.7426 76.8863 76.7941 76.2431 76.8112 75.5959C76.8283 74.9486 76.8112 74.297 76.764 73.6497C76.7277 72.9928 76.6345 72.3403 76.4853 71.6993L84 70.8817ZM13.0046 0.106567L13.2548 14.348C13.3401 19.0589 13.4105 23.724 13.4558 28.3683C13.4977 33.0125 13.543 37.642 13.4958 42.2592C13.4474 46.8768 13.358 51.5085 13.2789 56.164L13.009 55.8591C15.7301 56.263 18.4536 56.6479 21.1797 57.0137L25.2698 57.5544L29.3645 58.0606C32.094 58.3991 34.8233 58.7406 37.5574 59.0442L45.7571 59.9768L45.2949 60.38C45.2227 56.5026 45.1875 52.6252 45.1459 48.7478L45.0659 37.1155C45.0425 33.2381 45.0117 29.3607 45.0177 25.4833C45.0046 21.6059 45.0396 17.7285 45.0552 13.8511L45.4507 14.4443L37.4255 10.9488C34.7485 9.77005 32.0698 8.60737 29.378 7.39738L13.0046 0.106567ZM12.9336 0L29.2956 6.50689C32.0596 7.59648 34.8368 8.73348 37.6157 9.85427L45.9581 13.2577L46.3519 13.4183L46.3537 13.851C46.3693 17.7284 46.4043 21.6059 46.3912 25.4833C46.3971 29.3607 46.3664 33.2381 46.343 37.1155L46.2629 48.7477C46.2214 52.6252 46.186 56.5026 46.114 60.38L46.1053 60.8486L45.6517 60.7833L37.4837 59.6079C34.7621 59.2089 32.0354 58.8477 29.3092 58.4836L25.22 57.9357L21.1263 57.4225C18.3961 57.0885 15.6638 56.7707 12.9293 56.469L12.6641 56.44L12.6595 56.164C12.5803 51.4678 12.4908 46.7477 12.4424 42.0136C12.3952 37.2788 12.4406 32.5566 12.4824 27.849C12.5278 23.1415 12.5981 18.4548 12.6835 13.8138L12.9336 0Z" fill="black"/>
<path d="M18 6V48.9802L42 53V16.5133L18 6Z" fill="black"/>
<path d="M33.2023 56.4383C34.9333 56.4383 34.9361 54 33.2023 54C31.4713 54 31.4685 56.4383 33.2023 56.4383ZM24.448 58.12C24.6336 59.2432 24.7307 60.3663 24.7965 61.4896C24.8681 62.6128 24.8872 63.736 24.8962 64.8592L24.8726 66.544C24.8575 66.8113 24.8583 67.0791 24.875 67.3463C24.8998 67.609 24.9402 67.8703 24.9962 68.1291C25.2583 69.1996 25.8249 70.1894 26.6398 71C25.5343 70.3791 24.7114 69.4192 24.3208 68.2948C24.1213 67.7289 24.021 67.1381 24.0235 66.544L24 64.8592C24.0089 63.736 24.028 62.6128 24.0995 61.4896C24.1655 60.3663 24.2625 59.2432 24.448 58.12ZM32.1065 59.0204C32.2143 60.166 32.2341 61.3044 32.2227 62.4408C32.2254 63.0094 32.196 63.5765 32.1817 64.144C32.1736 64.4276 32.1521 64.7109 32.1381 64.9944L32.1143 65.4195L32.1037 65.6306L32.1131 65.8184C32.1654 66.88 32.5694 67.9026 33.2724 68.7529C33.4519 68.9671 33.6469 69.1703 33.8561 69.361C34.0763 69.5526 34.3104 69.7307 34.5568 69.8941C35.0431 70.2531 35.532 70.6107 36 71C35.4218 70.7611 34.8644 70.4905 34.3046 70.2213C34.0159 70.0876 33.7381 69.9352 33.4735 69.7655C33.2094 69.5831 32.9628 69.3807 32.7364 69.1605C31.8148 68.253 31.2768 67.0794 31.2175 65.8471L31.2131 65.6087L31.229 65.394L31.2633 64.9676C31.2878 64.6834 31.3051 64.399 31.3356 64.115C31.3986 63.5472 31.4464 62.9789 31.5264 62.4121C31.6696 61.2778 31.844 60.1455 32.1065 59.0204Z" fill="black"/>
<path d="M6 79H4V167H6V79Z" fill="black"/>
<path d="M45 79H43V167H45V79Z" fill="black"/>
<path d="M71 79H69V167H71V79Z" fill="black"/>
<path d="M100.71 12C100.784 12.7921 100.814 13.5857 100.82 14.3831C100.82 14.7817 100.813 15.1817 100.784 15.5841C100.77 16.0044 100.707 16.4213 100.598 16.8256C100.293 17.5304 100.023 18.2513 99.7886 18.9854C99.7467 19.1213 99.7309 19.2648 99.7424 19.4073C99.7538 19.5497 99.7922 19.6883 99.8553 19.8148C100.043 20.0378 100.294 20.1909 100.571 20.2515L100.699 20.292L100.759 20.3687C101.187 20.9248 101.584 21.507 101.948 22.1125C102.133 22.4184 102.301 22.7363 102.449 23.0644C102.527 23.2358 102.589 23.4149 102.635 23.5991C102.669 23.765 102.714 23.9283 102.768 24.0881C103.21 25.3571 104.152 26.5375 105.398 26.8858C105.551 26.9304 105.707 26.9609 105.865 26.9768L106.1 27.0028C106.178 27.0048 106.258 26.9998 106.337 26.9988L106.842 26.9926C107.022 26.9863 107.202 27.0021 107.379 27.0396C108.104 27.1724 108.765 27.5598 109.255 28.1392C109.745 28.6988 110.113 29.3652 110.333 30.0914C110.571 30.8283 110.641 31.6139 110.538 32.3849L110.232 31.8636C110.69 31.9567 111.154 32.0164 111.619 32.0425C112.096 32.0613 112.573 32.0531 113.05 32.0178C113.527 31.9842 114.003 31.918 114.472 31.8195L115.176 31.6606L115.869 31.4474C116.102 31.3817 116.322 31.2749 116.551 31.1923C116.78 31.1108 117.004 31.0134 117.222 30.9006L117.884 30.5802L118.522 30.2029C118.962 29.9708 119.339 29.6365 119.761 29.364C120.166 29.0663 120.537 28.7211 120.941 28.4088L121 28.471C120.663 28.859 120.328 29.2581 119.963 29.6245C119.776 29.8023 119.586 29.9785 119.393 30.1506C119.203 30.3281 119.003 30.4918 118.792 30.6406C117.972 31.286 117.073 31.8106 116.119 32.2002C115.158 32.5951 114.149 32.8461 113.122 32.9458C112.079 33.0623 111.026 32.9907 110.007 32.734L109.627 32.6334L109.7 32.2126C109.785 31.576 109.744 30.9279 109.581 30.3086C109.417 29.6894 109.135 29.1125 108.752 28.6137C108.375 28.1076 107.857 27.7399 107.271 27.5629C107.125 27.5149 106.973 27.4859 106.82 27.4763L106.589 27.4553L106.327 27.4379C106.239 27.4312 106.151 27.4282 106.064 27.4179L105.805 27.3662C105.633 27.3327 105.464 27.2837 105.3 27.2197C104.647 26.9709 104.062 26.5573 103.596 26.0149C103.131 25.4832 102.751 24.8752 102.471 24.2147C102.404 24.05 102.339 23.8709 102.283 23.7041C102.228 23.5524 102.16 23.4066 102.079 23.2686C101.909 22.9775 101.723 22.6977 101.521 22.4307C101.118 21.8871 100.666 21.3714 100.229 20.8642L100.416 20.9813C99.951 20.9071 99.5304 20.6483 99.2396 20.2577C99.1616 20.148 99.1037 20.0239 99.0689 19.8918C99.0283 19.7679 99.0055 19.6383 99.0013 19.5073C98.9938 19.2709 99.0188 19.0345 99.0755 18.8057C99.3244 18.0445 99.6322 17.3064 99.9959 16.5987C100.111 16.2481 100.191 15.8859 100.236 15.518C100.29 15.1349 100.342 14.7468 100.384 14.3562C100.475 13.5756 100.546 12.7884 100.627 12L100.71 12Z" fill="black"/>
<path d="M101.238 15.5395L101 15.2145C101.396 14.7131 101.876 14.3504 102.399 14.1578C102.922 13.9653 103.471 13.9486 104 14.1094L103.919 14.5545C103.447 14.4177 102.957 14.4357 102.491 14.607C102.025 14.7783 101.595 15.098 101.238 15.5395ZM102.376 17.4954C102.508 17.4893 102.632 17.4142 102.724 17.2859C102.815 17.1576 102.866 16.9861 102.866 16.8076C102.866 16.6292 102.815 16.4577 102.724 16.3294C102.632 16.2011 102.508 16.126 102.376 16.1199C102.245 16.126 102.12 16.2011 102.029 16.3294C101.937 16.4577 101.886 16.6292 101.886 16.8076C101.886 16.9861 101.937 17.1576 102.029 17.2859C102.12 17.4142 102.245 17.4893 102.376 17.4954ZM101.119 20.9985V20.54C101.242 20.54 101.274 20.4782 101.285 20.458C101.338 20.2622 101.338 20.0467 101.283 19.8513L101.604 19.7063C101.649 19.8713 101.668 20.0471 101.66 20.2226C101.652 20.3981 101.618 20.5696 101.559 20.7262C101.508 20.8175 101.441 20.8902 101.364 20.9377C101.288 20.9852 101.203 21.0061 101.119 20.9985Z" fill="black"/>
<path d="M99 11.2102C99 11.2102 104.185 15.2082 108.749 14.3943C108.749 14.3943 111.03 11.1999 111.653 13.8387C112.275 16.4775 112.378 19.6906 110.408 19.1638C110.408 19.1638 108.801 25.1686 111.497 29.8038C114.193 34.439 116.579 32.8589 117.097 37.0727C117.616 41.2866 132.343 41.2866 128.298 34.8604C124.253 28.4343 122.801 20.8494 122.801 20.744C122.801 20.6387 119.897 6.73298 116.994 5.15276C114.09 3.57254 100.296 2.20306 99 11.2102ZM107.141 38.5476C107.141 38.5476 102.267 34.7551 102.682 31.384C103.097 28.0129 101.541 23.5884 101.541 23.5884C101.8 24.5892 103.097 27.2228 105.793 27.1175C108.489 27.0121 109.838 30.2779 109.475 32.1741L107.141 38.5476Z" fill="black"/>
<path d="M129.285 37.5344C130.299 38.7293 131.146 40.0544 131.804 41.4742C132.472 42.8911 133.033 44.3556 133.483 45.8554C134.357 48.8571 134.978 51.9259 135.34 55.0301C136.078 61.2198 136.197 67.4669 135.697 73.6801L135.694 73.7222L135.671 73.7476C135.06 74.3715 134.282 74.8064 133.429 75C134.229 74.7236 134.942 74.2405 135.493 73.6001L135.466 73.6675C135.468 70.5676 135.401 67.4677 135.249 64.3763C135.103 61.2844 134.865 58.1993 134.502 55.1314C134.154 52.0648 133.608 49.0237 132.868 46.0267C132.482 44.5345 132.007 43.0667 131.445 41.6311C130.891 40.1852 130.166 38.81 129.285 37.5344ZM104.026 56.535C103.736 55.4935 103.473 54.4483 103.258 53.3833C103.005 52.3 102.937 51.1818 103.058 50.076C103.557 47.9589 104.21 45.8806 105.01 43.8572C105.776 41.838 106.583 39.8368 107.449 37.8601C108.311 35.882 109.213 33.9208 110.207 32C109.541 34.0563 108.812 36.0848 108.068 38.106L105.81 44.1543C105.424 45.1577 105.057 46.1666 104.69 47.1745C104.334 48.1793 103.964 49.1992 103.711 50.2017C103.543 51.2349 103.53 52.2871 103.672 53.3241C103.768 54.3907 103.921 55.4596 104.026 56.535ZM105.345 71.1398L104.92 71.1066C104.966 70.5234 105 69.9443 105.021 69.3856L105.448 69.4013C105.427 69.9663 105.393 70.5512 105.345 71.1398ZM116.071 33.6136C115.405 33.9557 114.793 34.3936 114.255 34.913C113.973 35.1547 113.731 35.441 113.468 35.7013C113.231 35.9877 112.988 36.2675 112.758 36.5578C112.544 36.8613 112.32 37.1568 112.115 37.4645L111.529 38.4092C111.188 39.0686 110.818 39.7111 110.541 40.4025C110.225 41.0745 109.986 41.7801 109.723 42.4764C109.575 42.819 109.489 43.1839 109.371 43.5377L109.02 44.6032C108.836 45.3283 108.636 46.0522 108.461 46.783C108.314 47.5196 108.173 48.2592 108.045 49.0015L107.996 48.8752C109.02 49.7478 110.124 50.524 111.292 51.194C112.456 51.8631 113.677 52.4272 114.942 52.8796C116.184 53.3396 117.479 53.6434 118.796 53.7839C119.444 53.8479 120.097 53.8493 120.745 53.7879C121.384 53.7192 122.013 53.5801 122.621 53.3733L123.005 53.4164C122.958 53.3821 122.9 53.3669 122.842 53.374C122.8 53.3745 122.76 53.4075 122.756 53.4043C122.751 53.4051 122.748 53.4141 122.748 53.4141C122.75 53.4077 122.753 53.4016 122.757 53.396C122.771 53.3783 122.781 53.358 122.787 53.3363C122.842 53.1957 122.879 53.0486 122.897 52.8986C122.944 52.5404 122.964 52.1793 122.956 51.8182C122.957 51.0731 122.903 50.3179 122.83 49.5534L122.772 48.9769L122.758 48.8328C122.754 48.7702 122.754 48.7075 122.756 48.6449C122.76 48.5362 122.768 48.4321 122.778 48.3281C122.822 47.9208 122.902 47.5182 123.017 47.125C123.249 46.3536 123.589 45.6185 124.027 44.9416L123.99 45.0317C124.247 44.1149 124.498 43.1916 124.731 42.2664L125.081 40.8777C125.191 40.4134 125.299 39.9483 125.389 39.4795L125.474 39.489C125.454 39.9701 125.4 40.448 125.34 40.9245C125.279 41.4008 125.219 41.8778 125.137 42.3503C124.978 43.2971 124.808 44.2394 124.62 45.1827L124.613 45.2197L124.583 45.2731C124.221 45.9177 123.947 46.6074 123.768 47.3241C123.681 47.6749 123.625 48.0327 123.602 48.3933C123.597 48.4814 123.594 48.5696 123.595 48.6534C123.595 48.6871 123.596 48.7208 123.6 48.7543L123.619 48.8971L123.692 49.4688C123.793 50.2469 123.853 51.0297 123.871 51.8141C123.878 52.2234 123.853 52.6326 123.797 53.0382C123.767 53.2707 123.705 53.498 123.613 53.7138C123.586 53.7825 123.55 53.8474 123.506 53.9072L123.433 54.0079C123.397 54.0462 123.358 54.0818 123.317 54.1145C123.209 54.2043 123.075 54.2588 122.934 54.2705C122.793 54.2821 122.652 54.2505 122.53 54.1798L122.913 54.2229C122.232 54.4345 121.53 54.5697 120.819 54.6258C120.115 54.673 119.409 54.6522 118.71 54.5635C118.018 54.477 117.335 54.3319 116.668 54.1298C116.005 53.9389 115.355 53.702 114.725 53.4207C113.476 52.8626 112.274 52.2068 111.129 51.4595C109.98 50.7303 108.871 49.9402 107.807 49.0927L107.747 49.0448L107.758 48.9663C107.859 48.2154 107.947 47.4618 108.029 46.7052C108.146 45.9543 108.289 45.206 108.42 44.4536C108.605 43.7134 108.769 42.9642 109.009 42.2364C109.247 41.5062 109.529 40.7911 109.854 40.0951C110.475 38.681 111.306 37.3677 112.319 36.1991C112.576 35.9109 112.851 35.6368 113.124 35.3651C113.408 35.1029 113.705 34.8559 114.016 34.6251C114.625 34.149 115.311 33.7796 116.044 33.5328L116.071 33.6136Z" fill="black"/>
<path d="M82.8774 105.222C86.1354 111.698 89.8049 117.931 93.6545 124.047C87.3615 128.249 83.6404 126.734 83.6404 126.734C83.0274 124.651 67.8005 98.815 68.002 89.6474C68.2077 80.48 104.629 71 104.629 71C104.629 71 115.976 74.6028 125 75.4102C124.779 77.1992 124.19 78.9216 123.272 80.4662C122.353 82.0107 121.125 83.3433 119.667 84.3779C118.947 84.8924 118.185 85.3454 117.391 85.7321C116.59 86.1068 115.763 86.4217 114.917 86.6741C113.218 87.1729 111.47 87.4786 109.704 87.5856C109.263 87.6074 108.821 87.6508 108.38 87.6508L107.051 87.6638C106.164 87.6334 105.28 87.616 104.38 87.5682C102.588 87.4858 100.792 87.4381 98.9959 87.4555C95.3851 87.4175 91.7799 87.752 88.236 88.4537C86.4368 88.8266 84.7038 89.4735 83.0961 90.3724C82.2769 90.8451 81.5434 91.4557 80.9269 92.178C80.6187 92.5496 80.354 92.956 80.1381 93.3891C79.9259 93.8261 79.769 94.2884 79.6709 94.7651C79.5757 95.2391 79.5354 95.7227 79.5508 96.2062C79.5664 96.6871 79.6354 97.1647 79.7566 97.6299C79.9922 98.5223 80.2814 99.3993 80.6226 100.256C81.2912 101.958 82.0671 103.598 82.8774 105.222Z" fill="black"/>
<path d="M111.929 95.0524C100.837 95.0524 95.6706 96.2855 92.0239 95.8231C88.3814 95.3607 88.7866 96.8507 88.7866 96.8507C88.7866 101.167 101.073 117.608 101.073 117.608C98.9866 120.035 96.6038 122.183 93.9823 124C92.235 120.896 90.4918 117.788 88.8162 114.645C87.1279 111.511 85.4734 108.355 83.9539 105.14C83.1984 103.53 82.4724 101.907 81.8309 100.263C81.5129 99.4482 81.2437 98.6146 81.0248 97.7669C80.9234 97.3592 80.8668 96.9413 80.856 96.521C80.8437 96.1042 80.8805 95.6874 80.9656 95.2794C81.2906 93.631 82.5316 92.3336 83.9961 91.4902C85.511 90.6603 87.14 90.0657 88.8288 89.7262C92.2573 89.0217 95.7474 88.6717 99.2455 88.6815C101.001 88.6558 102.757 88.69 104.513 88.7586C105.387 88.7928 106.281 88.8142 107.168 88.8271L108.502 88.7842C108.949 88.7756 109.392 88.72 109.835 88.69C111.615 88.5409 113.373 88.1919 115.077 87.6496C115.929 87.3753 116.758 87.036 117.559 86.6348C118.359 86.2279 119.122 85.7493 119.838 85.2048C121.268 84.1237 122.454 82.7457 123.317 81.1628C124.181 79.5799 124.701 77.8284 124.844 76.0252C127.951 76.3035 130.774 76.2435 132.745 75.5799H132.75C134.881 94.0249 123.021 95.0524 111.929 95.0524ZM108.354 50.0384C108.109 50.5361 107.879 51.0424 107.622 51.535C107.352 52.0193 107.103 52.5185 106.809 52.9894C106.245 53.9494 105.63 54.8779 104.967 55.7706C104.293 56.6588 103.571 57.5077 102.803 58.3132C102.033 59.1321 101.195 59.8818 100.297 60.5537L100.243 60.593L100.162 60.6023C96.6587 61.003 93.1526 61.3769 89.6436 61.7239C88.7661 61.8138 87.8866 61.8794 87.0058 61.9487L85.6813 62.0413L85.0105 62.0732L84.6404 62.0701L84.3247 62.0529C82.5836 62.0089 80.8124 61.989 79.054 61.9656L73.7685 61.9135C73.3352 61.9146 72.8711 61.8936 72.4616 61.9106C72.0411 61.9715 71.628 62.0776 71.2295 62.2269C70.4074 62.5244 69.5971 62.8718 68.7889 63.2244L67.5744 63.7551C67.3705 63.8422 67.1662 63.9283 66.9554 64.0087L66.7919 64.0653C66.7444 64.0856 66.644 64.0962 66.5973 64.1098C66.5234 64.1488 66.4528 64.1939 66.3861 64.2446C65.7153 64.8123 65.0875 65.4302 64.5078 66.0933C63.9132 66.7478 63.3315 67.4189 62.7967 68.118C62.6637 68.288 62.5407 68.4658 62.4282 68.6503C62.3183 68.8208 62.258 69.0276 62.3361 69.1114C62.3989 69.2169 62.6172 69.2707 62.8143 69.2828C63.0219 69.2961 63.2303 69.2861 63.4358 69.253L63.5594 69.2332L63.6151 69.3664C63.7016 69.5309 63.8261 69.6716 63.978 69.7765C64.1299 69.8814 64.3047 69.9474 64.4872 69.9687C64.8851 70.0291 65.2908 70.01 65.6815 69.9124C66.4896 69.7306 67.2559 69.3934 67.939 68.9192C68.2861 68.6872 68.6141 68.4212 68.9667 68.1623C69.326 67.8776 69.7308 67.6575 70.1634 67.5117C70.6187 67.3807 71.0992 67.3685 71.5603 67.4764C71.9868 67.5767 72.4075 67.7008 72.8205 67.8482C74.4309 68.411 76.0342 68.9371 77.6826 68.9911C78.4965 69.0116 79.3089 68.9102 80.0936 68.6901C80.8708 68.4536 81.6089 68.1005 82.2833 67.6426L82.4121 67.5606L82.552 67.5766C86.3329 68.0121 90.1267 68.367 93.9152 68.7308C97.704 69.0845 101.501 69.3919 105.291 69.5292C106.237 69.562 107.185 69.5831 108.124 69.5554C108.593 69.5426 109.06 69.5166 109.517 69.4661C109.947 69.4387 110.368 69.326 110.755 69.1342C111.512 68.622 112.174 67.9778 112.71 67.2315C113.292 66.4796 113.834 65.6978 114.336 64.8893C115.353 63.2691 116.264 61.5745 117.141 59.8635C118.022 58.1531 118.855 56.4173 119.642 54.6559L119.72 54.6887C118.345 58.307 116.703 61.815 114.808 65.183C114.323 66.0284 113.792 66.8456 113.217 67.6306C112.644 68.4611 111.927 69.1793 111.102 69.7505C110.986 69.8175 110.858 69.8731 110.736 69.9332C110.611 69.9809 110.483 70.022 110.354 70.0565C110.108 70.118 109.86 70.1655 109.609 70.199C109.12 70.2633 108.635 70.2997 108.153 70.3229C107.188 70.3709 106.229 70.369 105.271 70.3555C103.355 70.334 101.448 70.2089 99.5426 70.0838C97.6376 69.9528 95.7351 69.8007 93.8351 69.6273C90.0336 69.288 86.2465 68.8397 82.4577 68.3749L82.7263 68.3092C81.2324 69.3283 79.4505 69.8228 77.6533 69.7171C75.9206 69.552 74.2231 69.1179 72.6203 68.43C71.8224 68.1406 71.042 67.8168 70.3074 68.03C69.5708 68.2287 68.9287 68.8474 68.1868 69.3066C67.4469 69.7917 66.6222 70.1287 65.7573 70.2992C65.3159 70.3961 64.86 70.4039 64.4156 70.322C64.1743 70.2853 63.9462 70.1872 63.7523 70.0369C63.5585 69.8866 63.4053 69.6891 63.3069 69.4626L63.486 69.5759C63.2553 69.6069 63.022 69.6144 62.7898 69.5982C62.6567 69.6012 62.5245 69.5747 62.4025 69.5207C62.2805 69.4667 62.1715 69.3864 62.0832 69.2853C62.038 69.2182 62.0095 69.141 62.0002 69.0603C61.9988 68.9873 62.0043 68.9143 62.0168 68.8424C62.0516 68.7205 62.1032 68.6041 62.17 68.4968C62.2906 68.3022 62.4225 68.115 62.5649 67.9362C63.1171 67.2287 63.7067 66.5619 64.3121 65.9081C64.913 65.2437 65.5517 64.6157 66.2252 64.0273C66.2672 63.9903 66.3235 63.9582 66.3722 63.9238C66.4359 63.879 66.5083 63.8484 66.5845 63.8341C66.643 63.8159 66.6547 63.8193 66.7104 63.7996L66.8588 63.7459C67.0593 63.6665 67.2608 63.5787 67.4618 63.4896L68.6678 62.944C69.4734 62.58 70.2826 62.2203 71.1165 61.9062C71.5402 61.7339 71.9808 61.6079 72.4308 61.5301C72.8999 61.496 73.3184 61.5044 73.7655 61.4882L79.0516 61.3693C80.817 61.3395 82.5703 61.286 84.3521 61.3298L84.6963 61.3454L84.9869 61.3433L85.6357 61.3059L86.947 61.2008L89.5754 60.964C93.0838 60.6626 96.5915 60.3183 100.099 59.9871L99.9639 60.0356C100.847 59.4121 101.677 58.7131 102.443 57.9462C103.221 57.1773 103.956 56.3645 104.644 55.5116C105.323 54.65 105.994 53.7766 106.586 52.847C107.195 51.9281 107.742 50.9686 108.278 50L108.354 50.0384Z" fill="black"/>
<path d="M70.4514 66.0321L68.3547 66.3758C67.6686 66.5193 67.037 66.8528 66.5322 67.3379L63.2628 70.0506L63 69.7192L66.4009 67.1722C66.6795 66.9439 66.9825 66.747 67.3045 66.5852C67.6312 66.4304 67.9791 66.3248 68.3368 66.2717L70.4514 66.0321ZM133.549 52.314C134.465 51.6028 135.515 51.0824 136.636 50.7839C137.742 50.4487 138.88 50.228 140.032 50.1252C140.606 50.0499 141.182 50.0444 141.759 50.0058C142.335 49.9969 142.912 49.9983 143.489 50.0099C144.063 50.0431 144.64 50.0574 145.214 50.1067L146.074 50.1918L146.503 50.2363L146.718 50.2586C146.762 50.2625 146.805 50.2687 146.848 50.277L146.975 50.305C147.62 50.4489 148.216 50.7581 148.704 51.2021C149.192 51.6461 149.556 52.2096 149.759 52.8367C150.095 54.0351 150.079 55.3046 149.713 56.4941C149.577 57.0698 149.395 57.6337 149.169 58.1805L149.013 58.5931L148.825 58.9876L148.447 59.7744C148.195 60.296 147.916 60.8037 147.61 61.2955L147.17 62.0422C147.031 62.2666 146.89 62.5121 146.753 62.753C145.65 64.7142 144.684 66.7484 143.86 68.8412C143.017 70.939 142.313 73.0897 141.752 75.2793C141.21 77.4766 140.803 79.7048 140.532 81.9514C140.301 84.224 139.915 86.4782 139.375 88.6981C138.824 90.9622 137.841 93.0997 136.482 94.9948C135.064 96.8717 133.28 98.4429 131.237 99.6139C129.209 100.761 127.046 101.65 124.796 102.26C122.567 102.858 120.297 103.293 118.004 103.563C113.443 104.027 108.853 104.122 104.277 103.846C99.7157 103.596 95.1789 103.096 90.6777 102.395L90.6919 102.269C95.2364 102.554 99.7748 102.808 104.309 102.855L106.008 102.881L107.707 102.861L109.404 102.836L111.098 102.763C113.357 102.67 115.604 102.489 117.84 102.221C120.066 101.947 122.272 101.534 124.446 100.986C126.604 100.445 128.686 99.6366 130.643 98.5794C132.576 97.5153 134.286 96.0914 135.681 94.3848C137.038 92.6237 138.063 90.6316 138.707 88.5053C139.042 87.4319 139.317 86.341 139.532 85.2375C139.764 84.1331 139.94 83.0148 140.104 81.893C140.447 79.6468 140.825 77.398 141.352 75.1829C142.396 70.7541 143.737 66.3649 145.823 62.2495C145.96 61.9928 146.094 61.7419 146.247 61.4795L146.65 60.7466C146.908 60.2537 147.214 59.7817 147.432 59.2746L147.787 58.525L147.964 58.1499L148.105 57.7652L148.395 56.9981C148.485 56.7438 148.561 56.4844 148.621 56.2213C148.949 55.2349 148.987 54.1758 148.732 53.1683C148.596 52.7049 148.341 52.2851 147.993 51.9503C147.644 51.6155 147.213 51.3775 146.744 51.2598L146.663 51.2387C146.636 51.2323 146.609 51.2279 146.582 51.2253L146.373 51.1976L145.956 51.1424L145.121 51.0279C144.564 50.9553 144.004 50.9173 143.444 50.86C142.885 50.8237 142.324 50.8009 141.763 50.78C141.203 50.7854 140.64 50.7571 140.081 50.798C138.96 50.8332 137.844 50.9679 136.747 51.2004C136.198 51.3187 135.659 51.475 135.133 51.6679C134.603 51.85 134.1 52.0989 133.634 52.4086L133.549 52.314Z" fill="black"/>
<path d="M90.011 100.146C93.9376 100.461 97.8669 100.641 101.799 100.686C105.728 100.733 109.65 100.605 113.564 100.302C115.52 100.148 117.47 99.9211 119.404 99.5824C121.341 99.2613 123.247 98.769 125.1 98.1112C126.953 97.4641 128.703 96.548 130.297 95.3915C131.876 94.2401 133.129 92.6887 133.931 90.8923L133.919 90.9255C134.671 88.0857 135.373 85.2249 135.964 82.3497C136.26 80.9125 136.528 79.4699 136.73 78.0233L136.864 76.9384L136.961 75.8545C137.025 75.1002 137.135 74.3507 137.291 73.6103C137.423 72.8656 137.65 72.1532 137.842 71.4286C138.08 70.7222 138.285 70.0012 138.566 69.3131C139.078 67.9144 139.691 66.5637 140.313 65.2203C141.602 62.5578 143.041 59.9731 144.624 57.479L144.613 57.4976C144.966 56.8238 145.233 56.107 145.406 55.3647C145.591 54.6277 145.624 53.86 145.504 53.1094C145.376 52.3599 145.003 51.6756 144.447 51.1652C143.86 50.6645 143.175 50.2955 142.438 50.0825L142.459 50C143.237 50.1601 143.969 50.495 144.602 50.98C145.24 51.5004 145.687 52.2214 145.875 53.0287C146.041 53.8319 146.042 54.6611 145.877 55.4646C145.726 56.2653 145.474 57.0427 145.126 57.7777L145.126 57.779L145.115 57.7963C143.632 60.3175 142.281 62.9163 141.068 65.5819C140.476 66.9177 139.883 68.255 139.401 69.6298C139.269 69.9697 139.153 70.3143 139.042 70.6602L138.702 71.6956C138.516 72.395 138.293 73.0885 138.167 73.7972C138.018 74.4988 137.905 75.2079 137.83 75.9216L137.714 77.0395L137.56 78.1473C137.332 79.6182 137.04 81.0715 136.719 82.5165C136.067 85.4043 135.299 88.2578 134.418 91.077L134.411 91.098L134.406 91.1103C133.505 92.9401 132.153 94.503 130.481 95.6477C128.846 96.7901 127.066 97.703 125.189 98.3616C121.448 99.6803 117.569 100.56 113.63 100.983C109.695 101.402 105.736 101.527 101.784 101.356C97.837 101.22 93.9021 100.845 90 100.231L90.011 100.146ZM113.977 129.891C112.785 129.026 111.65 128.095 110.537 127.139C109.42 126.188 108.339 125.198 107.267 124.197C106.206 123.184 105.155 122.159 104.145 121.09C103.106 120.043 102.151 118.914 101.289 117.713C102.375 118.703 103.511 119.626 104.599 120.608C105.698 121.576 106.77 122.573 107.841 123.573C108.899 124.586 109.955 125.602 110.98 126.652C112.009 127.699 113.02 128.765 113.977 129.891ZM93.2384 124.702C94.2126 125.61 95.0083 126.698 95.5836 127.906C95.8931 128.54 96.0705 129.232 96.1047 129.938C96.0751 130.639 95.9394 131.33 95.7024 131.989C95.2611 133.239 94.7282 134.455 94.108 135.624C93.5047 136.795 92.8238 137.923 92.07 139C92.5237 137.759 93.0196 136.548 93.5139 135.341C93.9961 134.131 94.5004 132.93 94.9056 131.716C95.1225 131.145 95.2588 130.545 95.3105 129.936C95.3056 129.327 95.193 128.725 94.9782 128.157C94.5159 126.948 93.933 125.79 93.2384 124.702Z" fill="black"/>
<path d="M107.076 124.154C106.861 128.052 100.394 131.166 100.394 131.166C91.5812 143.342 90.8904 138.667 90.8904 138.667C90.8904 138.667 82.6902 147.142 84.1812 148.895C85.6721 150.648 89.932 151.038 96.6412 144.511C103.35 137.985 103.563 134.575 104.309 134.673C105.054 134.77 106.758 136.718 106.758 136.718L114 129.997C114 129.997 108.145 125.312 107.076 124" fill="black"/>
<path d="M109.951 103.297L107.385 103.381L109.439 165.952L112.005 165.867L109.951 103.297Z" fill="black"/>
<path d="M132.279 155L131.112 146.372C130.958 145.215 130.361 144.166 129.449 143.454L109 127.394L110.063 126L130.512 142.059C131.784 143.054 132.618 144.517 132.833 146.132L134 154.761L132.279 155Z" fill="black"/>
<path d="M123.328 161L122.705 148.77C122.661 147.917 122.381 147.097 121.897 146.407L109 128.027L110.352 127L123.249 145.381C123.925 146.342 124.317 147.488 124.377 148.678L125 160.908L123.328 161Z" fill="black"/>
<path d="M95.3901 161L93.6853 160.909L94.321 148.819C94.3819 147.643 94.7814 146.511 95.4706 145.56L108.621 127.39L110 128.405L96.8495 146.575C96.3559 147.256 96.0697 148.068 96.0258 148.911L95.3901 161ZM62.0154 52C61.7935 52.6328 61.5416 53.2527 61.2897 53.8725L60.2867 55.577L58.3617 58.8571H57.619L57.7343 58.6633L59.7361 55.2499L60.7391 53.541C61.1574 53.0245 61.5715 52.5037 62.0154 52ZM57.3288 54.1436L57.0897 56.2529L56.7953 58.8571H56.1506L56.4538 56.1796L56.6886 54.0705C56.8635 53.3775 57.0342 52.6844 57.2476 52C57.2989 52.7189 57.3159 53.4291 57.3288 54.1436ZM54.6866 58.857H55.0921L54.8659 57.2601L54.6824 55.9774L54.4007 53.9629C54.2086 53.3086 54.0208 52.65 53.7946 52C53.7647 52.5639 53.7561 53.1235 53.7604 53.6831V54.0576L53.8415 54.6129L54.0507 56.0678L54.4476 58.857L54.6866 58.857ZM53.3336 58.8571H52.6891L52.2879 56.0678L52.0019 54.0575C51.9976 53.3732 51.9976 52.6887 52.036 52C52.2622 52.6501 52.45 53.3086 52.6422 53.9629L52.9239 55.9774L53.197 57.8972L53.3336 58.8571Z" fill="black"/>
<path d="M53.739 54.7992V55.1434L53.7341 56.5984V59H53V54.7992C53.1077 54.2008 53.2153 53.6024 53.367 53C53.4747 53.4342 53.5678 53.8683 53.646 54.2986C53.6803 54.4667 53.7097 54.6311 53.739 54.7992ZM56 55.1003L55.7455 56.8878L55.4469 59H54.708L54.9136 57.5489L55.0163 56.8214L55.2659 55.0339C55.4567 54.4472 55.6477 53.8605 55.8826 53.2816C55.951 53.8879 55.9755 54.4941 56 55.1003Z" fill="black"/>
<path d="M51 61.6217V63.935C51.1126 63.9222 51.225 63.9136 51.3375 63.9007L52.3111 61.7374C51.8741 61.7073 51.4372 61.6731 51 61.6217ZM52.4323 61.7759L51.3895 63.8964C52.0169 63.8321 52.6486 63.7893 53.2762 63.7636L52.4323 61.7759ZM52.5708 61.7545L53.4622 63.6565L54.1718 61.8188C53.6396 61.8102 53.103 61.7845 52.5708 61.7545ZM54.3968 62.003L53.6656 63.7507C54.1285 63.7335 54.5872 63.725 55.0502 63.7208L54.3968 62.003ZM55.3184 61.8358C55.0934 61.8315 54.8642 61.8273 54.6392 61.8273L55.3012 63.4423L55.8638 61.8273C55.682 61.8316 55.5003 61.8315 55.3184 61.8358ZM56.1536 62.2428L55.5868 63.7208C55.9503 63.725 56.3137 63.7294 56.6772 63.7421C56.4955 63.241 56.3224 62.7441 56.1536 62.2428ZM56.4565 61.8188C56.6426 62.3285 56.82 62.8383 56.9931 63.348C57.2267 62.8211 57.4561 62.2985 57.6941 61.7759C57.283 61.7973 56.8719 61.8102 56.4565 61.8188ZM57.9364 62.0158C57.72 62.5984 57.4951 63.1767 57.2701 63.7593C57.7676 63.7764 58.2652 63.8064 58.7586 63.8492C58.4729 63.241 58.2047 62.6327 57.9364 62.0158ZM51 59V61.6217C52.434 61.4669 53.876 61.3954 55.3184 61.4075C55.5824 61.4075 55.8464 61.4118 56.1103 61.4161C56.1485 61.4053 56.189 61.4053 56.2272 61.4161C56.7811 61.4246 57.3306 61.4461 57.8802 61.476C57.8941 61.4712 57.9086 61.4683 57.9234 61.4675C57.9457 61.4676 57.9677 61.472 57.9883 61.4804C58.5379 61.5146 59.0874 61.5574 59.6369 61.6216V59L51 59ZM52.0083 60.9149C51.8399 60.9092 51.6804 60.839 51.5634 60.7192C51.4463 60.5993 51.3809 60.439 51.3809 60.2723C51.3809 60.1056 51.4463 59.9454 51.5634 59.8255C51.6804 59.7056 51.8399 59.6354 52.0083 59.6297C52.1766 59.6354 52.3361 59.7056 52.4531 59.8255C52.5701 59.9454 52.6356 60.1056 52.6356 60.2723C52.6356 60.439 52.5701 60.5992 52.4531 60.7191C52.3361 60.839 52.1766 60.9092 52.0083 60.9149ZM54.3449 60.9149C54.1765 60.9092 54.017 60.839 53.9 60.7192C53.7829 60.5993 53.7175 60.439 53.7175 60.2723C53.7175 60.1056 53.7829 59.9454 53.9 59.8255C54.017 59.7056 54.1765 59.6354 54.3449 59.6297C54.5132 59.6354 54.6727 59.7056 54.7897 59.8255C54.9067 59.9454 54.9722 60.1056 54.9722 60.2723C54.9722 60.439 54.9067 60.5992 54.7897 60.7191C54.6727 60.839 54.5132 60.9092 54.3449 60.9149ZM56.6037 60.8378C56.4353 60.8322 56.2758 60.762 56.1587 60.6421C56.0417 60.5222 55.9762 60.362 55.9762 60.1952C55.9762 60.0285 56.0417 59.8683 56.1587 59.7484C56.2758 59.6285 56.4353 59.5583 56.6037 59.5527C56.772 59.5583 56.9316 59.6285 57.0486 59.7484C57.1657 59.8683 57.2311 60.0285 57.2311 60.1952C57.2311 60.362 57.1657 60.5222 57.0486 60.6421C56.9316 60.762 56.772 60.8322 56.6037 60.8378ZM58.8234 60.9149C58.6551 60.9092 58.4956 60.839 58.3785 60.7192C58.2615 60.5993 58.196 60.439 58.196 60.2723C58.196 60.1056 58.2615 59.9454 58.3785 59.8255C58.4956 59.7056 58.6551 59.6354 58.8234 59.6297C58.9917 59.6354 59.1512 59.7056 59.2683 59.8255C59.3853 59.9454 59.4507 60.1056 59.4507 60.2723C59.4507 60.439 59.3853 60.5992 59.2683 60.7191C59.1513 60.839 58.9917 60.9092 58.8234 60.9149ZM58.1268 61.7502C58.3691 62.4484 58.6027 63.1467 58.8191 63.8536C59.0918 63.8793 59.3643 63.9007 59.6369 63.935L59.6369 61.6216C59.135 61.6774 58.6331 61.7202 58.1268 61.7502ZM52.4323 61.7759L51.3895 63.8964C52.0169 63.8321 52.6486 63.7893 53.2762 63.7636L52.4323 61.7759ZM52.5708 61.7545L53.4622 63.6565L54.1718 61.8188C53.6396 61.8102 53.103 61.7845 52.5708 61.7545ZM54.3968 62.003L53.6656 63.7507C54.1285 63.7335 54.5872 63.725 55.0502 63.7208L54.3968 62.003ZM55.3184 61.8358C55.0934 61.8315 54.8642 61.8273 54.6392 61.8273L55.3012 63.4423L55.8638 61.8273C55.682 61.8316 55.5003 61.8315 55.3184 61.8358ZM56.1536 62.2428L55.5868 63.7208C55.9503 63.725 56.3137 63.7294 56.6772 63.7421C56.4955 63.241 56.3224 62.7441 56.1536 62.2428ZM56.4565 61.8188C56.6426 62.3285 56.82 62.8383 56.9931 63.348C57.2267 62.8211 57.4561 62.2985 57.6941 61.7759C57.283 61.7973 56.8719 61.8102 56.4565 61.8188ZM57.9364 62.0158C57.72 62.5984 57.4951 63.1767 57.2701 63.7593C57.7676 63.7764 58.2652 63.8064 58.7586 63.8492C58.4729 63.241 58.2047 62.6327 57.9364 62.0158ZM52.4323 61.7759L51.3895 63.8964C52.0169 63.8321 52.6486 63.7893 53.2762 63.7636L52.4323 61.7759ZM52.5708 61.7545L53.4622 63.6565L54.1718 61.8188C53.6396 61.8102 53.103 61.7845 52.5708 61.7545ZM54.3968 62.003L53.6656 63.7507C54.1285 63.7335 54.5872 63.725 55.0502 63.7208L54.3968 62.003ZM55.3184 61.8358C55.0934 61.8315 54.8642 61.8273 54.6392 61.8273L55.3012 63.4423L55.8638 61.8273C55.682 61.8316 55.5003 61.8315 55.3184 61.8358ZM56.1536 62.2428L55.5868 63.7208C55.9503 63.725 56.3137 63.7294 56.6772 63.7421C56.4955 63.241 56.3224 62.7441 56.1536 62.2428ZM56.4565 61.8188C56.6426 62.3285 56.82 62.8383 56.9931 63.348C57.2267 62.8211 57.4561 62.2985 57.6941 61.7759C57.283 61.7973 56.8719 61.8102 56.4565 61.8188ZM57.9364 62.0158C57.72 62.5984 57.4951 63.1767 57.2701 63.7593C57.7676 63.7764 58.2652 63.8064 58.7586 63.8492C58.4729 63.241 58.2047 62.6327 57.9364 62.0158ZM51 66.441V66.9722C51 68.106 51.455 69.1935 52.2648 69.9952C53.0747 70.797 54.1731 71.2474 55.3184 71.2474C56.4638 71.2474 57.5622 70.797 58.3721 69.9952C59.1819 69.1935 59.6369 68.106 59.6369 66.9722V66.441C56.7652 66.7266 53.8718 66.7266 51 66.441ZM57.0839 64.1149C57.0563 64.1333 57.0245 64.1448 56.9914 64.1486C56.9583 64.1523 56.9247 64.1481 56.8936 64.1364C56.8846 64.1311 56.8759 64.1254 56.8676 64.1192C56.3527 64.1364 55.8335 64.1449 55.3184 64.1492C53.8761 64.157 52.4344 64.0855 51 63.935V66.441C53.8718 66.1554 56.7652 66.1554 59.6369 66.441L59.6369 63.935C58.7845 64.0335 57.9364 64.0849 57.0839 64.1149ZM52.203 65.8499C52.0346 65.8442 51.8751 65.774 51.758 65.6542C51.6409 65.5343 51.5755 65.374 51.5755 65.2073C51.5755 65.0405 51.6409 64.8803 51.758 64.7604C51.8751 64.6405 52.0346 64.5704 52.203 64.5647C52.3713 64.5704 52.5308 64.6405 52.6479 64.7604C52.765 64.8803 52.8304 65.0405 52.8304 65.2073C52.8304 65.374 52.765 65.5343 52.6479 65.6541C52.5308 65.774 52.3713 65.8442 52.203 65.8499ZM54.1891 65.8113C54.0208 65.8056 53.8612 65.7354 53.7442 65.6156C53.6271 65.4957 53.5617 65.3354 53.5617 65.1687C53.5617 65.0019 53.6271 64.8417 53.7442 64.7218C53.8612 64.6019 54.0208 64.5318 54.1891 64.5261C54.3575 64.5318 54.517 64.6019 54.6341 64.7218C54.7511 64.8417 54.8166 65.0019 54.8166 65.1687C54.8166 65.3354 54.7511 65.4957 54.6341 65.6156C54.517 65.7354 54.3575 65.8056 54.1891 65.8113ZM56.37 65.8113C56.2017 65.8056 56.0421 65.7354 55.9251 65.6156C55.808 65.4957 55.7426 65.3354 55.7426 65.1687C55.7426 65.0019 55.808 64.8417 55.9251 64.7218C56.0421 64.6019 56.2017 64.5318 56.37 64.5261C56.5383 64.5318 56.6979 64.6019 56.8149 64.7218C56.932 64.8417 56.9975 65.0019 56.9975 65.1687C56.9975 65.3354 56.932 65.4957 56.8149 65.6156C56.6979 65.7354 56.5383 65.8056 56.37 65.8113ZM58.5509 65.7342C58.3825 65.7285 58.223 65.6584 58.1059 65.5385C57.9889 65.4186 57.9234 65.2584 57.9234 65.0916C57.9234 64.9249 57.9889 64.7646 58.1059 64.6448C58.223 64.5249 58.3825 64.4547 58.5509 64.449C58.7192 64.4547 58.8787 64.5249 58.9958 64.6447C59.1129 64.7646 59.1783 64.9249 59.1783 65.0916C59.1783 65.2584 59.1129 65.4186 58.9958 65.5385C58.8788 65.6584 58.7192 65.7285 58.5509 65.7342ZM58.7586 63.8492C58.4729 63.241 58.2047 62.6327 57.9364 62.0158C57.72 62.5984 57.4951 63.1767 57.2701 63.7593C57.7676 63.7764 58.2652 63.8064 58.7586 63.8492ZM57.6941 61.7759C57.283 61.7973 56.8719 61.8102 56.4565 61.8188C56.6426 62.3285 56.82 62.8383 56.9931 63.348C57.2267 62.8211 57.4561 62.2985 57.6941 61.7759ZM56.6772 63.7421C56.4955 63.241 56.3224 62.7441 56.1536 62.2428L55.5868 63.7208C55.9503 63.725 56.3137 63.7294 56.6772 63.7421ZM55.8638 61.8273C55.682 61.8316 55.5003 61.8315 55.3184 61.8358C55.0934 61.8315 54.8642 61.8273 54.6392 61.8273L55.3012 63.4423L55.8638 61.8273ZM55.0502 63.7208L54.3968 62.003L53.6656 63.7507C54.1285 63.7335 54.5872 63.725 55.0502 63.7208ZM54.1718 61.8188C53.6396 61.8102 53.103 61.7845 52.5708 61.7545L53.4622 63.6565L54.1718 61.8188ZM52.4323 61.7759L51.3895 63.8964C52.0169 63.8321 52.6486 63.7893 53.2762 63.7636L52.4323 61.7759ZM57.9364 62.0158C57.72 62.5984 57.4951 63.1767 57.2701 63.7593C57.7676 63.7764 58.2652 63.8064 58.7586 63.8492C58.4729 63.241 58.2047 62.6327 57.9364 62.0158ZM56.4565 61.8188C56.6426 62.3285 56.82 62.8383 56.9931 63.348C57.2267 62.8211 57.4561 62.2985 57.6941 61.7759C57.283 61.7973 56.8719 61.8102 56.4565 61.8188ZM56.1536 62.2428L55.5868 63.7208C55.9503 63.725 56.3137 63.7294 56.6772 63.7421C56.4955 63.241 56.3224 62.7441 56.1536 62.2428ZM55.3184 61.8358C55.0934 61.8315 54.8642 61.8273 54.6392 61.8273L55.3012 63.4423L55.8638 61.8273C55.682 61.8316 55.5003 61.8315 55.3184 61.8358ZM54.3968 62.003L53.6656 63.7507C54.1285 63.7335 54.5872 63.725 55.0502 63.7208L54.3968 62.003ZM52.5708 61.7545L53.4622 63.6565L54.1718 61.8188C53.6396 61.8102 53.103 61.7845 52.5708 61.7545ZM52.4323 61.7759L51.3895 63.8964C52.0169 63.8321 52.6486 63.7893 53.2762 63.7636L52.4323 61.7759ZM57.9364 62.0158C57.72 62.5984 57.4951 63.1767 57.2701 63.7593C57.7676 63.7764 58.2652 63.8064 58.7586 63.8492C58.4729 63.241 58.2047 62.6327 57.9364 62.0158ZM56.4565 61.8188C56.6426 62.3285 56.82 62.8383 56.9931 63.348C57.2267 62.8211 57.4561 62.2985 57.6941 61.7759C57.283 61.7973 56.8719 61.8102 56.4565 61.8188ZM56.1536 62.2428L55.5868 63.7208C55.9503 63.725 56.3137 63.7294 56.6772 63.7421C56.4955 63.241 56.3224 62.7441 56.1536 62.2428ZM55.3184 61.8358C55.0934 61.8315 54.8642 61.8273 54.6392 61.8273L55.3012 63.4423L55.8638 61.8273C55.682 61.8316 55.5003 61.8315 55.3184 61.8358ZM54.3968 62.003L53.6656 63.7507C54.1285 63.7335 54.5872 63.725 55.0502 63.7208L54.3968 62.003ZM52.5708 61.7545L53.4622 63.6565L54.1718 61.8188C53.6396 61.8102 53.103 61.7845 52.5708 61.7545ZM52.4323 61.7759L51.3895 63.8964C52.0169 63.8321 52.6486 63.7893 53.2762 63.7636L52.4323 61.7759ZM95.4253 129.183C95.9286 129.175 96.4313 129.22 96.9248 129.318C97.4066 129.41 97.8819 129.532 98.3478 129.684C98.8142 129.835 99.2701 130.015 99.7126 130.225C100.169 130.436 100.601 130.695 101 130.999C100.497 131.008 99.9936 130.963 99.5 130.865C99.0183 130.773 98.5431 130.651 98.0775 130.498C97.6115 130.346 97.1557 130.165 96.7131 129.956C96.2569 129.745 95.8252 129.486 95.4253 129.183Z" fill="black"/>
</svg>
