<svg width="230" height="133" viewBox="0 0 230 133" fill="none" xmlns="http://www.w3.org/2000/svg">
<path d="M210.158 77.4034C209.874 77.0368 209.625 76.6488 209.376 76.2563C204.573 68.8046 183.585 72.3364 183.585 72.3364C181.212 90.3017 177.082 88.1844 176.317 87.0545C175.552 85.9247 174.171 74.8289 173.258 73.3196C170.618 73.091 165.225 73.1298 165.225 73.1298C160.02 73.2506 155.125 77.77 150.308 85.1312C145.492 92.4881 137 98.7151 137 98.7151C137 98.7151 139.522 98.9437 140.44 104.377C141.003 104.55 142.695 103.812 143.927 103.217C145.027 102.686 146.253 102.464 147.472 102.575C149.456 102.756 152.31 103.381 154.591 105.511C154.872 105.77 155.17 106.009 155.483 106.227C155.771 106.068 155.933 105.96 155.933 105.96C160.636 104.037 163.389 97.3568 163.389 97.3568C163.008 96.5169 162.786 95.6151 162.734 94.6961C162.659 93.7812 162.672 92.8615 162.773 91.9491C162.873 91.0564 162.943 90.1723 162.97 89.284C163.015 88.3882 162.976 87.4902 162.852 86.6017C163.226 87.4456 163.44 88.3506 163.481 89.2711C163.545 90.1851 163.526 91.103 163.424 92.0137C163.324 92.9021 163.267 93.7861 163.245 94.6788C163.213 95.5739 163.261 96.4701 163.389 97.3568C163.653 99.7402 164.224 102.081 165.089 104.321C166.332 104.727 167.613 105.006 168.914 105.154C169.553 105.226 170.198 105.246 170.841 105.214C171.5 105.178 172.156 105.109 172.808 105.007C172.22 105.355 171.572 105.594 170.898 105.714C170.56 105.779 170.218 105.819 169.875 105.835C169.531 105.839 169.187 105.826 168.844 105.796C168.161 105.723 167.492 105.564 166.851 105.322C166.211 105.087 165.616 104.749 165.089 104.321C165.457 105.319 165.946 106.268 166.545 107.15C169.786 107.334 172.964 108.12 175.911 109.466C176.658 109.807 177.344 110.264 178.035 110.6C178.738 110.946 179.474 111.222 180.233 111.424C181.761 111.834 183.335 112.054 184.918 112.079C185.723 112.105 186.487 112.062 187.318 112.036C188.134 112.027 188.95 112.066 189.761 112.153C191.369 112.316 192.973 112.497 194.564 112.774C195.172 112.877 195.775 112.989 196.378 113.106C196.098 112.731 195.858 112.329 195.661 111.907C195.354 111.27 195.124 110.6 194.975 109.91C194.822 109.221 194.73 108.519 194.7 107.814C194.66 107.103 194.688 106.39 194.783 105.684L194.787 105.662L194.796 105.632C195.035 104.867 195.183 104.077 195.237 103.278C195.305 102.467 195.314 101.653 195.263 100.841C195.206 100.029 195.106 99.2196 194.962 98.4176C194.804 97.6284 194.595 96.8048 194.481 95.9725C194.252 94.3136 194.199 92.6356 194.324 90.9658C194.367 90.1336 194.455 89.3012 194.582 88.4819C194.698 87.6594 194.857 86.8433 195.058 86.0368C194.851 87.6765 194.737 89.3265 194.717 90.9788C194.693 92.619 194.814 94.2582 195.08 95.8776C195.137 96.283 195.237 96.6797 195.32 97.0765L195.591 98.3012C195.752 99.1287 195.859 99.9656 195.91 100.807C196.039 102.493 195.842 104.187 195.329 105.8C195.22 106.464 195.165 107.134 195.163 107.806C195.158 108.489 195.212 109.171 195.325 109.845C195.434 110.522 195.61 111.186 195.849 111.829C196.017 112.281 196.23 112.716 196.483 113.127C197.431 113.317 198.371 113.533 199.302 113.787C200.867 114.191 202.372 114.795 203.777 115.585C202.325 114.911 200.796 114.41 199.223 114.093C198.415 113.908 197.6 113.747 196.78 113.61C196.778 113.608 196.775 113.606 196.771 113.606C196.015 113.476 195.255 113.364 194.49 113.265C192.899 113.062 191.304 112.886 189.708 112.761C188.918 112.688 188.125 112.657 187.331 112.67C186.557 112.696 185.709 112.752 184.905 112.726C183.267 112.693 181.639 112.452 180.063 112.01C179.272 111.782 178.505 111.479 177.773 111.105C177.405 110.928 177.047 110.691 176.711 110.497C176.374 110.294 176.038 110.083 175.683 109.91C174.27 109.178 172.782 108.597 171.243 108.177C169.704 107.722 168.134 107.379 166.545 107.15L162.93 107.491C163.042 107.643 163.124 107.814 163.171 107.995C164.102 110.967 162.76 122.606 162.76 122.606C167.921 126.34 196.492 132.115 196.492 132.115C214.909 135.172 215.079 119.035 215.079 119.035C218.375 90.0775 211.897 79.6286 210.158 77.4034ZM187.112 106.922C186.775 106.986 186.433 107.026 186.09 107.042C185.745 107.047 185.401 107.034 185.058 107.004C184.376 106.93 183.706 106.771 183.065 106.529C182.426 106.294 181.831 105.956 181.304 105.529C182.546 105.935 183.828 106.214 185.128 106.361C185.768 106.433 186.412 106.453 187.055 106.421C187.714 106.385 188.371 106.316 189.022 106.214C188.434 106.562 187.787 106.802 187.112 106.922Z" fill="black"/>
<path d="M173.866 73.1148C173.739 72.9207 173.598 72.7366 173.444 72.564C173.291 72.3943 173.122 72.2393 172.941 72.101C172.76 71.9657 172.566 71.8513 172.361 71.7598C172.163 71.6699 171.953 71.6121 171.738 71.5887L171.806 71.575C171.365 71.791 170.898 71.9495 170.416 72.0466C169.928 72.1535 169.425 72.1703 168.931 72.0961C168.417 72.0189 167.933 71.8043 167.529 71.4742C167.157 71.136 166.831 70.7495 166.559 70.3245C166.027 69.5065 165.555 68.6507 165.144 67.7636C164.731 66.8827 164.359 65.992 164.013 65.077L164.369 65.3156C163.959 65.3579 163.545 65.294 163.165 65.1299C162.944 65.0246 162.758 64.8569 162.629 64.6468C162.509 64.4438 162.438 64.2153 162.421 63.9795C162.4 63.5753 162.457 63.1708 162.587 62.7885C162.702 62.4237 162.853 62.0719 163.039 61.7385C163.387 61.2214 163.55 60.599 163.502 59.9746C163.474 59.6706 163.392 59.3744 163.259 59.1006L163.019 58.6443C162.936 58.4825 162.855 58.318 162.78 58.1498C162.624 57.8131 162.5 57.4623 162.41 57.102C162.31 56.7512 162.23 56.3951 162.169 56.0354C162.092 55.6785 162.069 55.3127 162.024 54.951C162.01 54.586 161.988 54.2218 162.007 53.8573C162.037 52.391 162.391 50.9503 163.042 49.6411C163.064 49.5971 163.099 49.5604 163.141 49.5355C163.183 49.5105 163.232 49.4983 163.28 49.5002C163.329 49.5021 163.377 49.5181 163.417 49.5462C163.457 49.5744 163.489 49.6136 163.508 49.6593L163.512 49.6692C164.049 50.9293 164.735 52.1185 165.554 53.2108C166.37 54.3138 167.35 55.2812 168.459 56.0781C169.565 56.8769 170.828 57.423 172.161 57.6788C173.492 57.928 174.86 57.8908 176.176 57.5695L176.186 57.5673C176.217 57.5602 176.249 57.5622 176.279 57.573C176.309 57.5839 176.335 57.6031 176.354 57.6286C176.886 58.3711 177.256 59.2195 177.44 60.1179C177.636 60.9955 177.736 61.8925 177.739 62.7924C177.743 63.6881 177.681 64.5828 177.551 65.4687C177.396 66.3098 177.337 67.1663 177.377 68.0211C177.417 68.8471 177.637 69.6539 178.021 70.383C178.404 71.0855 178.991 71.6518 179.7 72.0058C180.424 72.3486 181.223 72.493 182.019 72.4245C182.834 72.3576 183.632 72.1491 184.378 71.8079C184.45 71.7762 184.528 71.7644 184.606 71.7735C184.684 71.7827 184.758 71.8125 184.821 71.86C184.884 71.9075 184.933 71.971 184.964 72.0441C184.995 72.1171 185.006 72.1972 184.997 72.2762L184.996 72.2819C184.673 75.1317 184.17 77.9574 183.491 80.7419C183.139 82.1473 182.677 83.5218 182.109 84.852C181.817 85.5316 181.458 86.1795 181.038 86.786C180.819 87.0986 180.57 87.3887 180.295 87.6522C180.009 87.9364 179.673 88.1636 179.305 88.3219C178.911 88.494 178.475 88.5428 178.053 88.4621C177.635 88.3751 177.251 88.1671 176.947 87.8632C176.785 87.707 176.656 87.5191 176.567 87.3108C176.496 87.1309 176.435 86.9468 176.386 86.7594C176.288 86.4018 176.213 86.0502 176.139 85.6974C175.848 84.2898 175.648 82.8795 175.427 81.472L174.775 77.2532C174.663 76.5511 174.546 75.8501 174.411 75.1535C174.301 74.4563 174.118 73.7729 173.866 73.1148L173.863 73.1085C173.859 73.098 173.858 73.086 173.862 73.0752C173.866 73.0643 173.874 73.0553 173.884 73.0502C173.894 73.045 173.906 73.0441 173.916 73.0475C173.927 73.051 173.936 73.0586 173.942 73.0687C174.248 73.7172 174.479 74.4 174.629 75.1031C174.804 75.7954 174.96 76.4914 175.111 77.188C175.416 78.581 175.673 79.9821 175.949 81.3782C176.22 82.7742 176.501 84.1708 176.809 85.5457C176.89 85.8873 176.972 86.23 177.071 86.5558C177.116 86.7115 177.17 86.8644 177.232 87.0138C177.287 87.1313 177.364 87.2362 177.46 87.3217C177.66 87.5184 177.914 87.6485 178.189 87.6946C178.463 87.7408 178.745 87.7008 178.997 87.58C179.551 87.2792 180.017 86.8342 180.347 86.2905C180.717 85.7193 181.035 85.1151 181.296 84.4854C181.83 83.195 182.26 81.8634 182.584 80.5032C183.239 77.7532 183.749 74.9699 184.112 72.165L184.731 72.6391C183.887 73.0101 182.987 73.2308 182.07 73.2916C181.128 73.3569 180.186 73.1706 179.337 72.7513C178.483 72.315 177.785 71.6194 177.34 70.7614C176.92 69.9236 176.689 69.0014 176.664 68.0619C176.641 67.156 176.724 66.2505 176.912 65.3646C177.069 64.5142 177.162 63.6528 177.189 62.788C177.221 61.9264 177.155 61.0641 176.995 60.2174C176.85 59.3822 176.538 58.5862 176.077 57.879L176.255 57.9379C174.887 58.2257 173.477 58.2378 172.104 57.9734C171.421 57.8379 170.755 57.6233 170.12 57.3338C169.483 57.0525 168.874 56.7094 168.302 56.3095C167.162 55.5038 166.143 54.5363 165.274 53.4364C164.385 52.3463 163.631 51.15 163.028 49.8742L163.499 49.9023C162.946 51.1472 162.672 52.5008 162.695 53.866C162.698 54.5472 162.768 55.2263 162.905 55.8932C162.968 56.2273 163.05 56.5575 163.15 56.8824C163.238 57.2038 163.352 57.5172 163.492 57.8192C163.561 57.9717 163.635 58.1229 163.714 58.2733C163.792 58.4277 163.872 58.5596 163.966 58.7491C164.142 59.1089 164.252 59.4982 164.29 59.8981C164.35 60.6931 164.142 61.4853 163.701 62.1447C163.375 62.6777 163.193 63.2876 163.17 63.9142C163.168 64.0272 163.198 64.1384 163.256 64.235C163.313 64.3317 163.397 64.4099 163.496 64.4607C163.759 64.5719 164.045 64.6166 164.329 64.5908L164.334 64.5906C164.41 64.5872 164.485 64.6085 164.548 64.6515C164.611 64.6945 164.659 64.757 164.685 64.8296C165 65.7227 165.356 66.6155 165.735 67.4875C166.1 68.3622 166.527 69.209 167.012 70.0214C167.243 70.4155 167.524 70.7774 167.848 71.0978C168.179 71.3865 168.579 71.5808 169.008 71.661C169.914 71.8072 170.843 71.6897 171.686 71.3219L171.704 71.3145C171.72 71.308 171.738 71.3058 171.755 71.3082C172.001 71.3465 172.24 71.4258 172.46 71.5429C172.675 71.6541 172.877 71.7893 173.062 71.9461C173.242 72.1043 173.406 72.28 173.553 72.4707C173.697 72.6598 173.827 72.8597 173.942 73.0687C173.945 73.0738 173.946 73.0795 173.947 73.0853C173.948 73.0911 173.948 73.097 173.946 73.1027C173.945 73.1084 173.942 73.1137 173.938 73.1183C173.935 73.123 173.931 73.1269 173.926 73.1298C173.916 73.1351 173.904 73.1366 173.893 73.1338C173.882 73.131 173.873 73.1243 173.866 73.1148Z" fill="black"/>
<path d="M162.908 64.7554C162.819 65.4485 162.726 66.136 162.653 66.8246C162.584 67.5134 162.518 68.2006 162.497 68.8877C162.463 69.5707 162.491 70.2554 162.582 70.9334C162.626 71.2692 162.717 71.5973 162.851 71.9087C162.976 72.2283 163.185 72.5087 163.456 72.7208C163.136 72.5565 162.871 72.3012 162.696 71.9872C162.523 71.6728 162.395 71.3358 162.315 70.986C162.165 70.2929 162.107 69.5832 162.143 68.8751C162.172 68.1736 162.253 67.4752 162.385 66.7855C162.508 66.0967 162.683 65.4181 162.908 64.7554ZM162.697 50.0865C162.607 49.93 162.55 49.7568 162.53 49.5776C162.509 49.3983 162.525 49.2168 162.577 49.044L162.649 48.7846L162.762 48.5442C162.802 48.4647 162.837 48.3819 162.88 48.3045L163.029 48.0864C163.226 47.7954 163.45 47.523 163.697 47.2727C163.947 47.0304 164.214 46.8071 164.475 46.5751C165.578 45.744 166.759 45.0215 168.002 44.4177C168.623 44.1244 169.25 43.8439 169.876 43.5649C170.51 43.3056 171.148 43.0553 171.787 42.8092C172.428 42.5755 173.078 42.3736 173.725 42.1596C174.053 42.0615 174.368 41.9501 174.718 41.8537C175.057 41.7629 175.401 41.69 175.748 41.6354C177.126 41.4095 178.535 41.4667 179.889 41.8035C181.239 42.1423 182.486 42.8006 183.525 43.7227C184.55 44.6588 185.395 45.774 186.017 47.0131C186.643 48.247 187.12 49.5498 187.441 50.8946L187.447 50.9308C187.785 52.7764 188.38 54.5661 189.213 56.2482C189.625 57.0876 190.101 57.8936 190.638 58.6592C191.167 59.4263 191.763 60.1446 192.42 60.8054L193.46 61.7652C193.835 62.0914 194.186 62.4423 194.513 62.8156C195.182 63.552 195.734 64.3861 196.149 65.2888C197.01 67.0726 197.226 69.0983 196.759 71.0223C196.756 71.033 196.749 71.0423 196.74 71.0481C196.73 71.054 196.719 71.056 196.708 71.0539C196.697 71.0517 196.688 71.0455 196.681 71.0364C196.675 71.0274 196.672 71.0163 196.674 71.0053L196.674 71.0004C196.797 70.061 196.759 69.1076 196.562 68.1809C196.383 67.2629 196.059 66.3792 195.601 65.5627C195.377 65.1568 195.127 64.7654 194.853 64.3909C194.572 64.0215 194.267 63.6707 193.94 63.3408C193.621 63.0031 193.279 62.6875 192.917 62.3961L191.806 61.4375C190.379 60.0639 189.22 58.438 188.389 56.6426C187.975 55.7537 187.625 54.8366 187.342 53.8983C187.047 52.9595 186.833 51.9975 186.701 51.0227L186.707 51.0586C186.446 49.7502 186.056 48.4707 185.542 47.2387C185.028 46.0048 184.273 44.8847 183.322 43.9433C182.832 43.4881 182.288 43.0959 181.7 42.7758C181.108 42.4628 180.476 42.2335 179.821 42.0945C178.509 41.8339 177.155 41.8661 175.857 42.1886C175.536 42.2627 175.218 42.3536 174.906 42.4609C174.606 42.5662 174.288 42.7032 173.971 42.8233L172.061 43.5355C171.434 43.7872 170.805 44.0347 170.173 44.2732L168.313 45.0696C167.089 45.6169 165.908 46.257 164.782 46.9844C164.519 47.184 164.247 47.3774 163.992 47.5876C163.741 47.8004 163.508 48.0323 163.294 48.2812L163.134 48.4686C163.087 48.5348 163.048 48.6051 163.005 48.6735L162.877 48.8816L162.789 49.1051C162.663 49.4014 162.656 49.7347 162.769 50.0362L162.773 50.0453C162.778 50.0552 162.778 50.0665 162.775 50.0768C162.771 50.0871 162.764 50.0958 162.754 50.101C162.745 50.1062 162.734 50.1076 162.723 50.1049C162.713 50.1023 162.703 50.0957 162.697 50.0865ZM163.779 58.5064C164.384 58.073 165.044 57.7216 165.742 57.4614C166.091 57.3278 166.449 57.2206 166.814 57.1408C167.182 57.048 167.564 57.0305 167.938 57.0892C167.581 57.1662 167.23 57.272 166.89 57.4055L165.868 57.7907C165.184 58.0466 164.502 58.3103 163.779 58.5064ZM165.693 60.9422C165.831 60.9375 165.961 60.8797 166.057 60.781C166.152 60.6823 166.206 60.5504 166.206 60.4132C166.206 60.276 166.152 60.1441 166.057 60.0454C165.961 59.9467 165.831 59.8889 165.693 59.8842C165.555 59.8889 165.425 59.9467 165.329 60.0454C165.234 60.1441 165.18 60.276 165.18 60.4132C165.18 60.5504 165.234 60.6823 165.329 60.781C165.425 60.8797 165.555 60.9375 165.693 60.9422ZM164.837 67.3512C165.103 67.3595 165.369 67.3522 165.634 67.3292C165.893 67.3057 166.148 67.2745 166.402 67.2265C166.654 67.1774 166.907 67.1211 167.16 67.0521C167.413 66.984 167.668 66.9089 167.938 66.8414C167.737 67.0318 167.507 67.1898 167.257 67.3096C167.006 67.4315 166.74 67.52 166.466 67.5731C165.914 67.6918 165.337 67.6132 164.837 67.3512ZM162.867 121.036C161.552 120.553 160.2 120.177 158.824 119.912C157.47 119.637 156.078 119.593 154.709 119.781L154.205 119.866L153.713 119.999C153.386 120.09 153.065 120.2 152.752 120.329C152.125 120.598 151.524 120.923 150.957 121.301C150.379 121.679 149.83 122.111 149.184 122.485C148.537 122.846 147.842 123.113 147.118 123.275C146.4 123.445 145.662 123.519 144.924 123.496C144.151 123.497 143.39 123.312 142.703 122.959C142.514 122.844 142.345 122.698 142.203 122.528C142.076 122.372 141.998 122.259 141.887 122.132C141.679 121.893 141.438 121.685 141.171 121.513C140.585 121.173 139.965 120.893 139.322 120.677C138.629 120.458 137.964 120.157 137.341 119.782C137.026 119.569 136.749 119.305 136.521 119.001C136.41 118.858 136.309 118.72 136.202 118.594C136.149 118.528 136.094 118.472 136.037 118.408C135.976 118.335 135.904 118.262 135.852 118.189C135.434 117.612 135.051 117.011 134.704 116.389C134.352 115.777 134.003 115.168 133.667 114.548L133.77 114.623L132.869 114.427C132.558 114.374 132.253 114.291 131.958 114.179C131.366 113.933 130.847 113.541 130.448 113.041C130.23 112.791 130.081 112.489 130.013 112.164C129.988 111.993 129.999 111.818 130.046 111.652C130.092 111.485 130.174 111.33 130.285 111.197C130.498 110.947 130.758 110.742 131.051 110.593C131.343 110.444 131.663 110.354 131.99 110.329C132.307 110.311 132.625 110.324 132.939 110.368L133.856 110.434C134.467 110.472 135.079 110.501 135.691 110.519C136.915 110.557 138.139 110.548 139.355 110.472C140.563 110.41 141.762 110.243 142.941 109.972C143.511 109.837 144.062 109.636 144.585 109.372C144.83 109.245 145.058 109.087 145.263 108.903C145.469 108.715 145.657 108.507 145.823 108.282C145.961 108.125 146.048 107.93 146.07 107.723C146.063 107.678 146.056 107.661 145.998 107.611C145.912 107.556 145.818 107.515 145.72 107.488C145.173 107.378 144.61 107.37 144.06 107.465C143.779 107.504 143.502 107.565 143.23 107.647C143.12 107.68 143.013 107.725 142.912 107.781L142.818 107.842C142.776 107.87 142.735 107.893 142.693 107.917C142.612 107.962 142.528 108.003 142.442 108.038C142.121 108.165 141.786 108.252 141.443 108.296C141.279 108.32 141.115 108.336 140.952 108.347C140.763 108.364 140.573 108.357 140.386 108.327C139.99 108.26 139.624 108.075 139.335 107.797C139.06 107.523 138.861 107.182 138.756 106.808C138.573 106.092 138.669 105.333 139.026 104.685C139.204 104.323 139.483 104.022 139.831 103.818C139.947 103.757 140.073 103.717 140.203 103.698C140.279 103.688 140.356 103.688 140.432 103.696C140.472 103.701 140.511 103.708 140.55 103.718L140.599 103.731L140.605 103.73C140.694 103.739 140.784 103.733 140.872 103.713C141.434 103.584 141.983 103.4 142.509 103.164C142.786 103.047 143.061 102.925 143.336 102.797L143.747 102.603C143.894 102.532 144.044 102.466 144.197 102.404C144.806 102.161 145.447 102.004 146.1 101.938C146.746 101.879 147.396 101.902 148.037 102.004C148.663 102.09 149.282 102.215 149.892 102.379C151.121 102.701 152.289 103.22 153.351 103.914C153.878 104.265 154.371 104.665 154.824 105.107C155.262 105.508 155.73 105.876 156.224 106.205C158.333 107.43 160.767 107.983 163.2 107.79L163.203 107.79C163.215 107.789 163.226 107.793 163.234 107.8C163.243 107.807 163.248 107.818 163.249 107.829C163.251 107.84 163.247 107.851 163.24 107.86C163.233 107.869 163.223 107.875 163.212 107.876C160.725 108.257 158.181 107.824 155.96 106.644C155.417 106.317 154.901 105.947 154.416 105.539C153.073 104.351 151.451 103.519 149.7 103.122C149.119 102.983 148.53 102.881 147.935 102.816C147.358 102.738 146.774 102.733 146.195 102.801C145.625 102.868 145.066 103.013 144.535 103.231C144.403 103.287 144.273 103.346 144.144 103.41L143.725 103.614C143.444 103.749 143.16 103.879 142.873 104.006C142.282 104.282 141.663 104.493 141.026 104.634C140.812 104.678 140.591 104.679 140.377 104.634L140.327 104.623C140.31 104.619 140.323 104.623 140.32 104.622L140.325 104.622C140.327 104.623 140.328 104.622 140.324 104.622C140.301 104.627 140.28 104.635 140.26 104.646C140.082 104.766 139.94 104.931 139.848 105.125C139.606 105.561 139.535 106.072 139.651 106.558C139.711 106.777 139.824 106.979 139.979 107.146C140.134 107.298 140.331 107.401 140.545 107.44C140.661 107.461 140.78 107.466 140.897 107.455C141.041 107.448 141.183 107.436 141.323 107.418C141.592 107.388 141.855 107.325 142.108 107.231C142.165 107.209 142.22 107.184 142.273 107.155C142.298 107.143 142.323 107.128 142.346 107.113L142.446 107.05C142.612 106.955 142.79 106.88 142.975 106.828C143.293 106.736 143.617 106.67 143.946 106.629C144.612 106.525 145.293 106.55 145.949 106.704C146.147 106.762 146.333 106.853 146.499 106.974C146.602 107.054 146.688 107.154 146.752 107.267C146.816 107.381 146.856 107.507 146.87 107.636C146.888 107.86 146.844 108.084 146.744 108.285C146.668 108.45 146.572 108.605 146.46 108.748C146.258 109.014 146.028 109.258 145.774 109.476C145.516 109.695 145.232 109.882 144.928 110.03C144.345 110.307 143.733 110.513 143.102 110.645C141.877 110.897 140.63 111.028 139.379 111.036C138.139 111.062 136.903 111.02 135.671 110.942C135.055 110.902 134.44 110.851 133.827 110.79L132.907 110.692C132.613 110.647 132.315 110.63 132.018 110.642C131.731 110.66 131.45 110.734 131.192 110.86C130.934 110.986 130.703 111.162 130.513 111.377C130.425 111.478 130.359 111.597 130.32 111.726C130.282 111.854 130.271 111.989 130.289 112.122C130.346 112.4 130.473 112.659 130.657 112.875C131.024 113.341 131.508 113.703 132.06 113.924C132.341 114.027 132.631 114.103 132.926 114.15L133.831 114.325C133.852 114.329 133.872 114.338 133.889 114.35C133.906 114.362 133.92 114.377 133.931 114.396L133.934 114.401C134.611 115.617 135.372 116.786 136.21 117.898C136.263 117.966 136.319 118.015 136.373 118.075C136.436 118.14 136.507 118.206 136.567 118.275C136.693 118.411 136.806 118.553 136.916 118.682C137.12 118.934 137.366 119.149 137.643 119.319C138.242 119.642 138.877 119.895 139.535 120.072C140.237 120.273 140.915 120.551 141.557 120.899C141.887 121.101 142.187 121.348 142.448 121.633C142.572 121.767 142.701 121.939 142.8 122.052C142.888 122.148 142.989 122.23 143.102 122.297C143.677 122.577 144.31 122.72 144.951 122.714C145.622 122.735 146.293 122.672 146.948 122.528C147.602 122.389 148.232 122.156 148.819 121.837C149.394 121.51 149.97 121.093 150.576 120.712C151.189 120.325 151.836 119.994 152.51 119.724C152.853 119.599 153.203 119.495 153.558 119.411L154.09 119.291L154.631 119.222C156.062 119.077 157.509 119.184 158.903 119.54C160.277 119.886 161.615 120.36 162.9 120.955C162.911 120.96 162.919 120.968 162.923 120.978C162.927 120.988 162.928 121 162.924 121.01C162.92 121.021 162.912 121.029 162.902 121.034C162.892 121.039 162.88 121.04 162.869 121.036L162.867 121.036Z" fill="black"/>
<path d="M133.835 114.612C134.697 114.536 135.559 114.5 136.42 114.47C137.282 114.436 138.144 114.431 139.005 114.426L140.298 114.436C140.742 114.436 141.184 114.499 141.611 114.624C142.43 114.926 143.228 115.285 144 115.698C143.584 115.575 143.176 115.428 142.764 115.294C142.367 115.135 141.96 115.005 141.546 114.902C141.135 114.814 140.717 114.776 140.298 114.788L139.005 114.798C138.144 114.793 137.282 114.789 136.42 114.755C135.559 114.725 134.697 114.689 133.835 114.612ZM134.273 115.413C134.853 115.877 135.406 116.372 135.956 116.872C136.241 117.112 136.493 117.395 136.77 117.595C137.05 117.804 137.363 117.959 137.695 118.053C138.015 118.153 138.385 118.168 138.75 118.239C139.113 118.301 139.474 118.383 139.829 118.484C140.557 118.642 141.233 118.992 141.793 119.5C141.492 119.292 141.161 119.134 140.814 119.032C140.471 118.918 140.121 118.828 139.767 118.763C139.412 118.699 139.057 118.632 138.699 118.587C138.329 118.55 137.962 118.492 137.598 118.411C137.227 118.301 136.878 118.12 136.57 117.878C136.286 117.628 136.017 117.361 135.766 117.076C135.257 116.535 134.753 115.99 134.273 115.413ZM126.13 103.511C125.845 102.911 125.496 102.344 125.091 101.823L125.159 101.869C124.48 101.759 123.847 101.443 123.339 100.963C123.075 100.684 122.911 100.319 122.878 99.9291C122.862 99.7357 122.87 99.5409 122.903 99.3498C122.948 99.1676 123.003 98.9882 123.067 98.8123C123.377 98.1267 123.923 97.5864 124.597 97.2977C124.934 97.1312 125.301 97.0399 125.674 97.0297C126.076 97.0272 126.469 97.1553 126.797 97.3962L126.215 97.5895C126.304 97.339 126.426 97.1026 126.577 96.8867C126.72 96.6753 126.888 96.4829 127.077 96.314C127.457 95.9759 127.909 95.7357 128.396 95.6128C128.866 95.4957 129.353 95.4695 129.832 95.5355L130.174 95.5812C130.307 95.6016 130.438 95.6353 130.565 95.6819C130.802 95.7655 131.028 95.8766 131.241 96.0131C132.042 96.5514 132.684 97.3116 133.092 98.208C133.493 99.0569 133.785 99.9568 133.96 100.885L133.126 100.938C133.198 100.347 133.369 99.7748 133.631 99.2457C133.892 98.7005 134.281 98.2325 134.763 97.8848C135.254 97.5504 135.826 97.3662 136.414 97.353C136.554 97.3471 136.695 97.3515 136.835 97.366L137.044 97.3798C137.125 97.3834 137.207 97.3971 137.285 97.4207C137.568 97.508 137.835 97.6432 138.075 97.8208C138.936 98.5242 139.574 99.4817 139.902 100.568C140.25 101.596 140.475 102.664 140.573 103.749C140.343 102.703 140.013 101.684 139.589 100.705C139.203 99.7516 138.567 98.9295 137.753 98.3326C137.561 98.21 137.352 98.1177 137.134 98.0588C137.087 98.0469 137.039 98.0423 136.991 98.045L136.811 98.0433C136.234 98.0132 135.664 98.1824 135.19 98.5245C134.835 98.8314 134.544 99.21 134.333 99.6373C134.123 100.065 133.999 100.532 133.968 101.011L133.968 101.014C133.957 101.117 133.911 101.214 133.838 101.285C133.766 101.357 133.671 101.4 133.571 101.406C133.47 101.412 133.371 101.381 133.291 101.318C133.211 101.255 133.155 101.165 133.133 101.064C132.964 100.218 132.69 99.3991 132.318 98.6268C131.971 97.8844 131.443 97.2492 130.786 96.7843C130.63 96.6809 130.462 96.5961 130.287 96.5317C130.21 96.5013 130.13 96.4792 130.048 96.4657L129.744 96.4215C129.359 96.3638 128.968 96.377 128.588 96.4603C128.224 96.5392 127.883 96.7061 127.592 96.9474C127.308 97.1872 127.083 97.4934 126.934 97.841L126.916 97.8848C126.878 97.9777 126.806 98.051 126.716 98.0887C126.626 98.1264 126.525 98.1254 126.436 98.086C126.406 98.0725 126.377 98.0551 126.352 98.0341C126.134 97.8805 125.881 97.7904 125.618 97.7732C125.356 97.756 125.093 97.8124 124.859 97.9364C124.313 98.1368 123.855 98.5363 123.57 99.0608C123.423 99.3064 123.351 99.5931 123.365 99.8823C123.379 100.171 123.478 100.449 123.648 100.678C124.068 101.147 124.608 101.482 125.204 101.641L125.219 101.646C125.241 101.653 125.26 101.668 125.273 101.688C125.637 102.252 125.926 102.866 126.13 103.511ZM123.145 103.199C122.908 102.692 122.487 102.302 121.974 102.117C121.476 101.968 120.943 102.01 120.472 102.234C120.245 102.307 120.042 102.442 119.882 102.624C119.723 102.807 119.614 103.031 119.568 103.273C119.546 103.779 119.679 104.279 119.947 104.702C120.216 105.169 120.537 105.603 120.903 105.993C120.991 106.095 121.085 106.187 121.177 106.281L121.477 106.554C121.691 106.746 121.898 106.942 122.103 107.14C122.924 107.929 123.691 108.757 124.456 109.598C124.513 109.661 124.551 109.741 124.564 109.826L124.569 109.856C124.619 110.123 124.703 110.382 124.819 110.627C125.061 111.152 125.405 111.619 125.83 111.999C126.046 112.202 126.262 112.338 126.551 112.569C127.079 113 127.526 113.53 127.866 114.132C128.209 114.724 128.462 115.367 128.619 116.038L128.598 115.972C128.8 116.552 129.179 117.048 129.677 117.384C130.208 117.706 130.812 117.879 131.428 117.884C132.074 117.898 132.719 117.829 133.348 117.677C133.992 117.532 134.623 117.332 135.236 117.081C134.66 117.433 134.052 117.723 133.42 117.947C132.779 118.18 132.11 118.323 131.431 118.369C130.718 118.423 130.005 118.275 129.366 117.942C129.043 117.756 128.752 117.514 128.507 117.227C128.271 116.937 128.073 116.615 127.921 116.269L127.913 116.248L127.9 116.204C127.737 115.628 127.495 115.079 127.182 114.575C126.873 114.076 126.484 113.636 126.031 113.274C125.828 113.112 125.512 112.909 125.266 112.681C125.006 112.454 124.77 112.199 124.561 111.922C124.348 111.643 124.166 111.339 124.02 111.018C123.865 110.682 123.758 110.324 123.702 109.956L123.815 110.213C123.074 109.376 122.31 108.55 121.543 107.744C121.35 107.545 121.155 107.347 120.957 107.157L120.644 106.851C120.543 106.741 120.44 106.631 120.347 106.517C119.964 106.062 119.635 105.561 119.367 105.025C119.055 104.463 118.937 103.806 119.032 103.164C119.067 102.995 119.128 102.833 119.213 102.685C119.305 102.546 119.409 102.415 119.523 102.295L119.908 102.02L120.32 101.844C120.885 101.636 121.503 101.655 122.055 101.896C122.313 102.023 122.543 102.205 122.731 102.429C122.918 102.654 123.059 102.916 123.145 103.199Z" fill="black"/>
<path d="M124.1 110.5C123.958 110.009 123.968 109.49 124.128 109.004C124.205 108.751 124.342 108.517 124.528 108.322C124.62 108.221 124.732 108.141 124.858 108.085C124.985 108.029 125.122 107.999 125.261 107.997C125.055 108.12 124.883 108.29 124.762 108.492C124.644 108.687 124.552 108.896 124.487 109.113C124.338 109.551 124.247 110.016 124.1 110.5ZM125.2 102.638C125.521 102.563 125.782 102.511 126.06 102.459C126.35 102.397 126.646 102.36 126.943 102.35C126.741 102.593 126.452 102.758 126.131 102.811C125.972 102.847 125.807 102.85 125.646 102.82C125.486 102.79 125.334 102.728 125.2 102.638ZM126.901 98.7388C126.895 99.124 126.948 99.5079 127.059 99.8785C127.156 100.249 127.363 100.584 127.656 100.845C127.81 100.969 127.99 101.062 128.183 101.118C128.377 101.173 128.58 101.191 128.781 101.169C128.99 101.153 129.197 101.12 129.401 101.071L130 100.865L129.419 101.124C129.215 101.192 129.006 101.244 128.793 101.279C128.572 101.321 128.345 101.319 128.125 101.275C127.905 101.23 127.697 101.144 127.513 101.02C127.152 100.755 126.88 100.396 126.728 99.9868C126.567 99.588 126.468 99.1686 126.435 98.7423C126.432 98.713 126.435 98.6835 126.445 98.6554C126.454 98.6274 126.469 98.6013 126.489 98.5788C126.509 98.5564 126.533 98.5379 126.561 98.5244C126.588 98.511 126.618 98.5029 126.649 98.5007C126.68 98.4984 126.711 98.502 126.74 98.5112C126.77 98.5204 126.797 98.5351 126.82 98.5543C126.843 98.5736 126.863 98.5971 126.876 98.6235C126.89 98.6498 126.898 98.6785 126.9 98.7079C126.901 98.7147 126.901 98.7214 126.901 98.728L126.901 98.7388Z" fill="black"/>
<path d="M128 100.5C128.302 100.948 128.568 101.418 128.797 101.905C129.053 102.395 129.228 102.922 129.316 103.466C129.341 103.567 129.39 103.661 129.46 103.74C129.53 103.818 129.619 103.879 129.718 103.917C129.945 104.028 130.189 104.104 130.44 104.142C130.697 104.188 130.96 104.19 131.218 104.149C131.484 104.127 131.73 104.006 131.907 103.81C131.84 103.933 131.748 104.041 131.637 104.128C131.525 104.214 131.397 104.277 131.259 104.312C130.984 104.391 130.697 104.423 130.412 104.405C130.12 104.392 129.833 104.325 129.567 104.207C129.412 104.147 129.276 104.05 129.17 103.925C129.065 103.799 128.994 103.649 128.966 103.489C128.878 102.981 128.738 102.484 128.547 102.004L128 100.5ZM133.305 101.043C133.401 101.705 133.616 102.345 133.941 102.934C134.023 103.074 134.115 103.209 134.218 103.336C134.348 103.488 134.464 103.652 134.563 103.826C134.662 104.002 134.742 104.188 134.8 104.38C134.86 104.584 134.888 104.752 134.929 104.92C134.95 105.069 134.992 105.215 135.054 105.354C135.139 105.479 135.246 105.588 135.371 105.676C135.493 105.769 135.634 105.838 135.784 105.878C135.934 105.919 136.091 105.93 136.245 105.91C136.571 105.844 136.863 105.672 137.075 105.422C137.313 105.164 137.515 104.878 137.678 104.569L137.668 104.596C137.777 104.098 137.849 103.592 137.885 103.083C137.932 102.572 137.897 102.057 137.781 101.557C137.935 102.052 138.008 102.568 137.999 103.086C138.002 103.605 137.966 104.124 137.894 104.638C137.893 104.646 137.89 104.653 137.887 104.66L137.885 104.665C137.736 105.007 137.542 105.328 137.307 105.621C137.066 105.944 136.719 106.177 136.323 106.282C136.115 106.325 135.9 106.326 135.692 106.287C135.483 106.248 135.284 106.169 135.107 106.054C134.924 105.943 134.764 105.801 134.634 105.634C134.562 105.542 134.511 105.436 134.481 105.325L134.399 105.06C134.326 104.735 134.198 104.424 134.022 104.139C133.931 104.005 133.828 103.88 133.714 103.765C133.577 103.62 133.452 103.464 133.34 103.3C132.914 102.652 132.612 101.934 132.448 101.18C132.435 101.126 132.433 101.07 132.443 101.015C132.452 100.96 132.473 100.907 132.503 100.86C132.533 100.813 132.573 100.772 132.619 100.74C132.666 100.707 132.718 100.684 132.774 100.672C132.83 100.659 132.887 100.658 132.944 100.667C133 100.676 133.054 100.696 133.102 100.726C133.151 100.755 133.193 100.794 133.226 100.839C133.259 100.885 133.283 100.936 133.296 100.99C133.298 101 133.3 101.01 133.302 101.021L133.305 101.043ZM132.503 108.47C132.521 108.47 132.534 108.475 132.551 108.475L132.59 108.5L132.503 108.47Z" fill="black"/>
<path d="M142.962 109.307C135.331 108.221 128.139 105.449 126.353 104.729C126.044 104.602 125.713 104.527 125.376 104.508C123.75 104.429 123.191 104.925 123.04 105.436C122.972 105.684 122.991 105.945 123.094 106.181C123.198 106.417 123.379 106.616 123.613 106.747L131.55 111.425L131.555 111.421C131.955 110.97 132.418 110.573 132.932 110.239C132.744 110.609 132.513 110.958 132.243 111.279C132.982 111.089 133.763 111.092 134.5 111.288C143.69 112.103 146 110.306 146 110.306C145.014 109.444 142.962 109.307 142.962 109.307ZM136.259 108.595L138.125 109.869L133.847 109.269L129.996 106.851L136.259 108.595ZM138.658 110.755C137.067 110.618 135.482 110.447 133.896 110.281C133.865 110.275 133.835 110.265 133.807 110.251C132.341 109.423 130.88 108.587 129.432 107.729L127.26 106.435C126.549 105.99 125.825 105.561 125.119 105.103C125.878 105.478 126.624 105.873 127.375 106.256L129.609 107.451C131.084 108.237 132.541 109.053 133.998 109.873C135.561 110.052 137.134 110.235 138.697 110.443C140.274 110.651 141.856 110.867 143.428 111.125C141.834 111.034 140.243 110.896 138.658 110.755Z" fill="black"/>
<path d="M80 46.9061C80 46.9061 78.8661 46.25 77.8077 47.4164C77.8077 47.4164 75.9178 44.8269 67.9047 47.0693C67.9047 47.0693 68.963 49.0201 69.719 49.0201C70.4749 49.0201 68.2827 52.3734 66.2416 52.2276C66.2416 52.2276 62.7642 57.1118 65.41 61.8501C68.0178 66.5202 69.8912 68.0037 72.4779 64.9745C72.5572 64.8805 72.6457 64.7941 72.7422 64.7164C73.4861 64.1249 76.7794 61.6653 77.9465 63.4993C78.1951 63.9067 78.2663 64.3925 78.1444 64.8504C77.6116 67.002 75.1204 74.9269 67.9047 71.7641C67.9047 71.7641 59.4957 68.7233 61.4791 61.5197C61.6912 60.787 61.9987 60.0832 62.3945 59.4251C62.776 58.7529 63.0111 58.0126 63.0854 57.2496C63.1597 56.4866 63.0717 55.7171 62.8267 54.9881C62.5227 53.9488 61.8369 53.0517 60.8974 52.4642C59.9866 51.9163 58.7858 51.6713 57.8762 53.2034C57.4998 53.8407 57.3013 54.5614 57.3003 55.2948C57.2986 55.9662 57.428 56.7895 58.0016 57.1847L57.3003 58.4968C56.9188 57.7484 56.431 57.0548 55.851 56.4363C54.8796 55.4876 54.2557 54.2593 54.0737 52.9378C53.8169 50.8413 54.126 47.711 56.7165 44.0631C56.7165 44.0631 60.1939 37.3566 66.6952 37.5023C73.1964 37.6481 78.7905 39.3248 80 46.9061Z" fill="black"/>
<path d="M69 55.7897C70.1411 55.5453 71.3136 55.4548 72.482 55.521C73.0705 55.5484 73.6546 55.6314 74.2253 55.7687C74.8078 55.8858 75.349 56.1392 75.7986 56.5053C75.2796 56.2795 74.7253 56.1333 74.1569 56.0722C73.5953 55.9966 73.0286 55.9416 72.457 55.9176C71.3148 55.8513 70.1665 55.8462 69 55.7897ZM80 55.6876C79.5821 55.8065 79.1954 56.0061 78.8648 56.2735C78.7081 56.3946 78.5805 56.5453 78.4902 56.7158C78.3999 56.8862 78.3489 57.0726 78.3407 57.2628C78.3715 57.6529 78.4806 58.034 78.6624 58.3862L79.162 59.5366C79.5346 60.3149 79.7512 61.1509 79.8008 62.0027C79.8001 62.2271 79.7561 62.4496 79.671 62.6593C79.5796 62.8717 79.4301 63.0578 79.2376 63.1989C78.8466 63.4296 78.385 63.5323 77.925 63.4911C78.3563 63.4566 78.7668 63.3028 79.1045 63.0491C79.2431 62.9106 79.3476 62.7454 79.4107 62.5651C79.4738 62.3847 79.4939 62.1936 79.4697 62.0052C79.4367 61.6067 79.3504 61.2138 79.2127 60.8355C79.0843 60.4481 78.9308 60.0643 78.7672 59.6818C78.6103 59.2965 78.4405 58.9134 78.2876 58.5189C78.2145 58.3197 78.1403 58.1211 78.0829 57.911C78.0115 57.6939 77.9873 57.4656 78.0118 57.2395C78.0373 57.0147 78.1155 56.798 78.2408 56.6047C78.366 56.4115 78.5353 56.2465 78.7364 56.1216C79.1147 55.8847 79.5479 55.7359 80 55.6876Z" fill="black"/>
<path d="M79.5369 46.5C79.6775 47.3271 79.782 48.1587 79.8504 48.9947C79.9286 49.8294 79.9769 50.6665 79.9953 51.5062C80.0086 52.3457 79.9959 53.1868 79.9292 54.0285C79.8901 54.8865 79.6952 55.7306 79.3538 56.5211C79.3489 56.5309 79.3425 56.54 79.335 56.5481C79.0717 56.8269 78.8245 57.1201 78.5947 57.4263C78.4806 57.5796 78.3791 57.7416 78.2912 57.9108C78.1934 58.0755 78.1543 58.2676 78.18 58.4567C78.1198 58.2665 78.1307 58.0614 78.2107 57.8784C78.2797 57.6938 78.3637 57.5149 78.4617 57.3434C78.6577 57.0017 78.8842 56.6779 79.1385 56.3756L79.1198 56.4025C79.2651 56.025 79.3619 55.631 79.408 55.2299C79.473 54.8252 79.4993 54.412 79.5303 54.0002C79.5799 53.1735 79.5885 52.3419 79.5934 51.5098C79.5933 49.8444 79.5561 48.1759 79.5369 46.5ZM75.0353 60.9631C74.9562 61.1233 74.8922 61.2903 74.8442 61.4621C74.7954 61.6207 74.7847 61.7883 74.813 61.9517C74.8363 62.1137 74.9083 62.265 75.0196 62.3865C75.1374 62.5206 75.2684 62.6429 75.4105 62.7519C75.3196 62.7254 75.2303 62.6939 75.143 62.6576C75.058 62.6116 74.9779 62.5573 74.9039 62.4956C74.7491 62.3638 74.6446 62.184 74.6077 61.9858C74.5814 61.7896 74.6112 61.59 74.6938 61.4095C74.7709 61.2367 74.8878 61.0839 75.0353 60.9631ZM57.7043 56.9046C57.964 57.2252 58.1711 57.5836 58.3183 57.9671C58.3972 58.1628 58.4543 58.3664 58.4885 58.5742C58.507 58.6832 58.5143 58.7937 58.5104 58.9041L58.5083 58.989L58.5133 59.0351C58.5114 59.0651 58.5181 59.095 58.5326 59.1215C58.597 59.2564 58.7107 59.3627 58.851 59.419C59.0176 59.5027 59.1932 59.5681 59.3744 59.614C59.7598 59.7162 60.1562 59.7727 60.5553 59.7825C60.1611 59.9344 59.734 59.9847 59.3145 59.9285C59.0956 59.9065 58.8813 59.8525 58.6786 59.7682C58.5594 59.7227 58.4505 59.6544 58.3582 59.5673C58.2659 59.4803 58.192 59.3761 58.1409 59.2608C58.114 59.1959 58.1008 59.1262 58.1022 59.0561L58.1007 58.9526L58.1039 58.888C58.1085 58.7987 58.1065 58.7092 58.0978 58.6202C58.0812 58.4312 58.0512 58.2435 58.008 58.0585C57.9229 57.6794 57.8109 57.2982 57.7043 56.9046ZM57.0082 58.2329C56.8407 58.8297 56.6047 59.4058 56.3045 59.9501C56.0107 60.5023 55.6561 61.0211 55.2469 61.4971C54.8376 61.9821 54.352 62.3996 53.8087 62.7338C53.264 63.0659 52.6405 63.2524 52 63.2748C52.5862 63.1016 53.137 62.8286 53.6273 62.4683C54.1071 62.1052 54.544 61.6904 54.9297 61.2315C55.3258 60.7732 55.6921 60.2907 56.0262 59.7868C56.3626 59.2807 56.6966 58.7675 57.0082 58.2329ZM62.506 75.5C62.98 75.2955 63.4283 75.0375 63.8418 74.7311C64.252 74.4298 64.6411 74.1018 65.0066 73.7491C65.3834 73.4069 65.7212 73.0242 66.0722 72.6497L66.583 72.0696C66.7494 71.8716 66.9153 71.6722 67.0983 71.4811C66.9938 71.7204 66.8723 71.9516 66.7512 72.1843C66.614 72.4063 66.4791 72.6319 66.3282 72.8469C66.024 73.2778 65.6781 73.6788 65.2954 74.0443C64.9109 74.4127 64.4817 74.7333 64.0177 74.9987C63.5575 75.2735 63.0413 75.4446 62.506 75.5Z" fill="black"/>
<path d="M55.3297 62.3333C54.9559 61.8078 54.4936 61.3442 53.9612 60.9611C53.8504 60.8682 53.7161 60.8041 53.5715 60.775C53.4268 60.7459 53.2767 60.7528 53.1357 60.795C52.8865 60.9556 52.7077 61.1969 52.6328 61.4736C52.5302 61.7687 52.4562 62.0721 52.4119 62.38C52.3896 62.5331 52.3697 62.6925 52.3552 62.8397C52.356 62.98 52.369 63.1447 52.3838 63.298C52.4485 63.9264 52.5713 64.5481 52.7508 65.1561C53.0814 66.3932 53.5949 67.5796 54.2762 68.6801C54.9664 69.7801 55.7921 70.7983 56.7358 71.7133C57.209 72.1674 57.7009 72.6046 58.2 73.0306C58.7184 73.4364 59.2138 73.8722 59.7534 74.2448C60.0138 74.4443 60.3008 74.6062 60.5726 74.7887C60.8604 74.9457 61.1368 75.124 61.4365 75.2573C62.0158 75.5559 62.632 75.785 63.2709 75.9393C64.5468 76.2604 65.9027 76.1254 67.0805 75.5599C68.2641 74.9606 69.2584 74.0732 69.9611 72.9889C69.9637 72.9842 69.968 72.9807 69.9733 72.9791C69.9786 72.9775 69.9843 72.9779 69.9893 72.9803C69.9938 72.983 69.9973 72.9872 69.9989 72.992C70.0006 72.9969 70.0003 73.0021 69.9983 73.0068C69.387 74.1843 68.4264 75.1665 67.2345 75.8328C66.6241 76.1613 65.9525 76.3749 65.2568 76.462C64.5588 76.5402 63.8516 76.4975 63.1697 76.3361C62.4927 76.1835 61.841 75.9432 61.2331 75.6219C60.9227 75.4757 60.6409 75.2864 60.3464 75.1172C60.07 74.9239 59.7776 74.7501 59.5154 74.5407C58.9657 74.149 58.4845 73.6915 57.9758 73.2617C57.7164 73.0524 57.4966 72.8025 57.2584 72.5722C57.029 72.3335 56.7806 72.1123 56.5675 71.8599C55.6782 70.8847 54.8707 69.8451 54.1522 68.7505C53.4206 67.6561 52.838 66.4783 52.4181 65.2451C52.2131 64.6212 52.0793 63.9782 52.0188 63.3272C52.0074 63.1605 51.997 63.0049 52.0008 62.824C52.0207 62.6525 52.0452 62.4931 52.0729 62.3289C52.1282 62.0016 52.2152 61.6798 52.3327 61.3676C52.3857 61.1954 52.4743 61.0348 52.5933 60.8954C52.7123 60.7559 52.8594 60.6403 53.026 60.5553C53.2133 60.4857 53.4206 60.4817 53.6108 60.5441C53.7836 60.6002 53.9451 60.6841 54.0881 60.792C54.613 61.2163 55.0467 61.7327 55.3654 62.3128C55.3668 62.315 55.3676 62.3175 55.368 62.3201C55.3683 62.3227 55.3681 62.3253 55.3674 62.3278C55.3667 62.3303 55.3654 62.3326 55.3637 62.3347C55.3621 62.3367 55.36 62.3384 55.3576 62.3397C55.3529 62.342 55.3475 62.3426 55.3424 62.3414C55.3373 62.3402 55.3327 62.3374 55.3297 62.3333Z" fill="black"/>
<path d="M56.7804 59.4922C56.1073 59.0781 55.3565 58.8061 54.5742 58.6928C53.8035 58.5521 53.0079 58.6945 52.334 59.0937C52.0162 59.3143 51.749 59.5998 51.5501 59.9314L50.8661 60.9129C50.4134 61.58 49.9065 62.2087 49.3505 62.7926C49.3376 62.8054 49.3221 62.8153 49.305 62.8217C49.288 62.8282 49.2698 62.831 49.2516 62.83L49.2415 62.8293C46.4241 62.6626 43.5971 62.5958 40.7775 62.6148C39.3674 62.6265 37.9588 62.683 36.5583 62.7929C35.1686 62.8697 33.7926 63.1084 32.4583 63.5039L32.4347 63.5104L32.4024 63.5173C31.6639 63.7061 30.9604 64.012 30.3189 64.4234C29.9851 64.6253 29.664 64.8474 29.3572 65.0883L28.8924 65.4457C28.7424 65.5713 28.601 65.7081 28.4549 65.8386C27.2908 66.9015 26.2565 68.0981 25.3737 69.4037C23.6018 72.0366 22.1536 74.8731 21.0602 77.8519C20.79 78.5993 20.494 79.3372 20.2447 80.092L19.5311 82.3692C19.2896 83.119 19.0736 83.9137 18.7924 84.673C18.5189 85.4397 18.1989 86.1813 17.8925 86.9175L16.9494 89.1296L16.4582 90.232C16.2909 90.6133 16.1043 90.9858 15.8992 91.3483C15.8576 91.416 15.8103 91.48 15.7579 91.5397C15.7878 91.5409 15.7904 91.4723 15.7921 91.4998C15.7873 91.5427 15.7891 91.5862 15.7975 91.6287C15.8289 91.7843 15.8826 91.9347 15.957 92.075C16.1216 92.389 16.3413 92.6709 16.6057 92.9073C17.1457 93.3921 17.8211 93.7005 18.5414 93.7912L18.2582 94.4779C17.814 94.1312 17.3935 93.7552 16.9996 93.3523C16.7838 93.1352 16.5956 92.8923 16.4392 92.6291C16.3921 92.5434 16.3547 92.4528 16.3277 92.3589C16.3135 92.297 16.3039 92.2341 16.299 92.1708C16.299 92.0878 16.3131 92.0055 16.3408 91.9273C16.3724 91.8432 16.4232 91.7676 16.4891 91.7065C16.5197 91.6781 16.5518 91.6513 16.5855 91.6265C16.6147 91.6096 16.6431 91.5963 16.6727 91.5823C16.7718 91.5367 16.8776 91.5073 16.986 91.495C17.2959 91.4729 17.6073 91.4949 17.911 91.5604C18.1947 91.6118 18.4663 91.6805 18.7369 91.7515L19.5435 92.0077L20.3236 92.3203C22.3615 93.239 24.1688 94.4585 26.0503 95.5317C27.9195 96.6222 29.8527 97.5994 31.8393 98.4579C33.8326 99.306 35.8699 100.047 37.9424 100.678L37.9449 100.678C38.0017 100.696 38.0508 100.732 38.0841 100.782C38.1174 100.831 38.1328 100.89 38.1279 100.949C37.9485 102.972 37.8757 105.004 37.9101 107.034C37.9242 108.044 38.0105 109.052 38.1686 110.049C38.2437 110.536 38.3837 111.01 38.5848 111.46C38.6783 111.663 38.8184 111.84 38.9935 111.978C39.0384 111.998 39.0818 112.019 39.1252 112.042C39.171 112.056 39.2199 112.055 39.2667 112.066C39.372 112.078 39.5157 112.071 39.6384 112.074L51.8902 112.108C55.9741 112.128 60.0577 112.106 64.1416 112.101L76.3931 112.059L76.2518 112.122C77.086 111.244 77.999 110.444 78.9794 109.733C79.9577 109.012 81.0203 108.412 82.1438 107.947C83.2793 107.47 84.4992 107.225 85.7312 107.228C86.3563 107.239 86.9775 107.329 87.58 107.496L89.2774 108.064C89.8447 108.248 90.4135 108.427 90.9834 108.593C91.5316 108.777 92.0988 108.9 92.6743 108.958C93.3134 109.03 93.9313 109.23 94.491 109.547C94.7853 109.704 95.0513 109.909 95.2778 110.154C95.4045 110.289 95.5027 110.449 95.5663 110.623C95.63 110.797 95.658 110.982 95.6485 111.167C95.6644 111.483 95.6536 111.799 95.6164 112.113C95.5774 112.477 95.4234 112.819 95.1767 113.09C94.9109 113.352 94.5609 113.512 94.1887 113.541C93.8613 113.576 93.5305 113.565 93.2059 113.51C92.8964 113.461 92.5906 113.392 92.2906 113.301L91.4341 113.043C91.1602 112.964 90.8817 112.904 90.6001 112.861C90.367 112.813 90.1263 112.815 89.8941 112.868L89.9787 112.285C91.112 113.078 92.4429 113.542 93.8239 113.626C94.5219 113.663 95.2219 113.623 95.911 113.506C96.6228 113.409 97.3287 113.29 98.0459 113.17C98.4071 113.113 98.7659 113.05 99.1628 113.025C99.3803 113.007 99.5993 113.02 99.8133 113.063C100.072 113.118 100.305 113.256 100.478 113.455C100.628 113.632 100.742 113.836 100.816 114.056C101.026 114.645 101.057 115.284 100.906 115.891C100.799 116.295 100.609 116.671 100.348 116.997C100.087 117.323 99.7613 117.59 99.3909 117.783C98.6965 118.139 97.9409 118.36 97.1641 118.435L97.5032 118.18C97.3217 118.594 97.0967 118.987 96.8319 119.353C96.5685 119.722 96.2621 120.058 95.9189 120.355C95.5582 120.657 95.1479 120.894 94.7063 121.056C94.2518 121.209 93.7714 121.27 93.2931 121.235L93.6552 121.086C92.9193 121.943 92.1973 122.784 91.3684 123.594C91.2627 123.694 91.1508 123.796 91.0262 123.896C90.8981 123.994 90.7639 124.083 90.6245 124.163C90.3629 124.311 90.091 124.439 89.811 124.548C89.265 124.76 88.7006 124.921 88.1251 125.03C86.9853 125.242 85.8216 125.296 84.6671 125.189C84.3793 125.169 84.0949 125.122 83.8087 125.09L82.9605 124.942L82.1656 124.812L81.3563 124.727C79.1537 124.614 76.9454 124.685 74.7546 124.94C72.5487 125.164 70.3489 125.496 68.16 125.884C67.074 126.076 65.9984 126.331 64.9027 126.573C63.8116 126.815 62.7168 127.05 61.619 127.272C59.4225 127.71 57.2163 128.109 54.9972 128.427C50.5597 129.085 46.0824 129.439 41.5966 129.486C41.0359 129.488 40.4755 129.509 39.9149 129.496L38.2331 129.458C37.1116 129.45 35.9924 129.37 34.8731 129.304C33.7523 129.256 32.6376 129.127 31.5216 129.018C30.9611 128.956 30.4121 128.922 29.8404 128.833C29.2744 128.745 28.714 128.625 28.1622 128.471C25.9334 127.871 23.9117 126.672 22.3162 125.005C20.7185 123.329 19.7083 121.18 19.4371 118.882C18.946 114.427 18.7488 109.966 18.637 105.502C18.5395 101.039 18.5273 96.5762 18.6003 92.114C18.6005 92.1023 18.6052 92.0912 18.6135 92.083C18.6219 92.0748 18.6331 92.0703 18.6448 92.0704C18.6565 92.0705 18.6676 92.0753 18.6758 92.0836C18.684 92.0919 18.6885 92.1032 18.6884 92.1148C18.7071 96.5752 18.81 101.034 18.9969 105.49C19.1944 109.942 19.4382 114.402 19.9921 118.81C20.2764 120.977 21.258 122.993 22.7888 124.554C24.3142 126.116 26.2374 127.233 28.3512 127.784C28.8764 127.925 29.4094 128.035 29.9475 128.114C30.4801 128.192 31.0469 128.224 31.5964 128.28C32.7034 128.378 33.8084 128.497 34.9199 128.535C36.0299 128.591 37.139 128.661 38.2511 128.659L39.9179 128.682C40.4735 128.691 41.0292 128.665 41.5848 128.658L43.2515 128.624L44.9165 128.538C46.0272 128.494 47.1347 128.397 48.2427 128.308C49.352 128.236 50.4549 128.088 51.5612 127.981C52.6642 127.843 53.7679 127.707 54.8675 127.543C57.0685 127.224 59.2572 126.824 61.4383 126.384C62.5287 126.162 63.6161 125.926 64.7041 125.682C65.7881 125.442 66.8855 125.179 67.9977 124.98C70.2046 124.585 72.4227 124.245 74.6593 124.015C76.9059 123.749 79.1717 123.682 81.4301 123.816L82.2859 123.909L83.1427 124.054L83.9431 124.198C84.2113 124.229 84.4784 124.274 84.7474 124.294C85.8188 124.399 86.8996 124.355 87.959 124.163C88.4813 124.067 88.9937 123.924 89.4898 123.734C89.7309 123.642 89.9651 123.534 90.1906 123.408C90.2932 123.35 90.3922 123.285 90.4871 123.215C90.5801 123.141 90.6756 123.056 90.7725 122.964C91.5445 122.218 92.2849 121.369 93.0058 120.537C93.0479 120.488 93.1003 120.449 93.1593 120.423C93.2182 120.397 93.2822 120.385 93.3466 120.387L93.368 120.388C93.7268 120.414 94.0874 120.37 94.4293 120.258C94.7751 120.132 95.0967 119.947 95.3803 119.712C95.6714 119.462 95.9318 119.178 96.1561 118.866C96.3835 118.554 96.5782 118.22 96.7372 117.869L96.7382 117.867C96.768 117.799 96.8148 117.74 96.874 117.696C96.9333 117.651 97.003 117.623 97.0764 117.614C97.743 117.553 98.3925 117.369 98.9916 117.071C99.2672 116.934 99.5106 116.741 99.7059 116.503C99.9012 116.265 100.044 115.989 100.124 115.692C100.204 115.393 100.221 115.08 100.173 114.774C100.144 114.491 100.045 114.22 99.8846 113.984C99.8216 113.905 99.7319 113.852 99.6324 113.835C99.4911 113.808 99.3468 113.8 99.2034 113.811C98.8777 113.828 98.5213 113.884 98.1676 113.937C97.4562 114.048 96.7338 114.162 96.0106 114.253C95.2702 114.369 94.5194 114.403 93.7716 114.355C92.2464 114.248 90.782 113.715 89.5455 112.817L89.5389 112.812C89.4904 112.776 89.4526 112.728 89.4297 112.672C89.4068 112.616 89.3997 112.555 89.4091 112.496C89.4185 112.436 89.4441 112.38 89.483 112.334C89.522 112.288 89.5729 112.254 89.6301 112.235C89.9775 112.131 90.3454 112.116 90.7 112.192C91.0096 112.242 91.3157 112.312 91.6165 112.401L92.4753 112.67C92.7472 112.755 93.0247 112.822 93.3058 112.869C93.8473 112.962 94.4369 112.951 94.7266 112.65C95.0321 112.352 95.051 111.763 95.0369 111.176C95.0395 111.109 95.0368 111.042 95.0288 110.975C95.0283 110.926 95.0176 110.878 94.9974 110.834C94.9583 110.728 94.899 110.631 94.8227 110.548C94.6428 110.353 94.432 110.189 94.1986 110.062C93.7162 109.783 93.1836 109.603 92.6311 109.53C92.0159 109.463 91.4102 109.328 90.8255 109.125C90.2484 108.951 89.6777 108.764 89.1088 108.573L87.4082 107.984C86.8579 107.83 86.2906 107.743 85.7191 107.726C84.5525 107.714 83.395 107.934 82.3148 108.375C80.1327 109.297 78.1647 110.66 76.5341 112.378L76.528 112.384C76.5103 112.402 76.4893 112.416 76.4661 112.426C76.4428 112.436 76.4179 112.441 76.3927 112.441L64.1424 112.399C60.059 112.394 55.9754 112.372 51.8921 112.392L39.642 112.426C39.5098 112.424 39.3972 112.434 39.2489 112.422C39.1698 112.415 39.0913 112.402 39.0141 112.383L38.7994 112.284C38.566 112.114 38.3781 111.889 38.2525 111.629C38.0282 111.15 37.8698 110.643 37.7814 110.121C37.6056 109.106 37.503 108.079 37.4744 107.048C37.4113 104.999 37.4564 102.949 37.6096 100.905L37.795 101.176C35.6936 100.568 33.6264 99.8471 31.6025 99.017C29.5809 98.1751 27.6119 97.2125 25.7061 96.1343C23.7919 95.0835 21.9698 93.8629 20.0283 93.0014L19.2922 92.7098L18.542 92.4749C18.286 92.4089 18.0293 92.3453 17.7773 92.301C17.5482 92.2519 17.3137 92.2331 17.0797 92.2451C17.0484 92.2532 16.9938 92.2597 17.0014 92.264L16.9963 92.2628C17.0041 92.2608 17.0111 92.2565 17.0164 92.2505C17.0201 92.2386 17.0458 92.221 17.0503 92.1949C17.0636 92.0906 17.0498 92.1883 17.108 92.268C17.2338 92.4703 17.3827 92.6573 17.5517 92.8253C17.9207 93.1986 18.314 93.5471 18.7289 93.8685L18.7325 93.8713C18.7987 93.9233 18.846 93.9956 18.8672 94.077C18.8883 94.1585 18.8821 94.2446 18.8496 94.3222C18.8171 94.3998 18.7599 94.4646 18.687 94.5067C18.6141 94.5488 18.5293 94.5658 18.4458 94.5551C17.5659 94.4475 16.7401 94.0735 16.0793 93.4832C15.7449 93.1855 15.4669 92.8302 15.2584 92.4342C15.1448 92.221 15.0642 91.9918 15.0193 91.7545C14.99 91.6003 14.9941 91.4417 15.0312 91.2892C15.0617 91.1759 15.1185 91.0712 15.1969 90.9838C15.2056 90.9593 15.1998 90.9816 15.2281 90.9304C15.4011 90.6322 15.5764 90.2544 15.7418 89.9019L16.2328 88.8153L17.183 86.6186C17.4948 85.88 17.8126 85.1537 18.0802 84.4149C18.3586 83.6747 18.5656 82.9254 18.8179 82.1541L19.5511 79.8567C19.8073 79.0947 20.1109 78.3481 20.3885 77.5932C21.5178 74.5672 23.0078 71.6881 24.8264 69.0182C25.2898 68.3528 25.7867 67.7114 26.3152 67.0964C26.8537 66.4859 27.4301 65.9098 28.0409 65.3716C28.1947 65.2376 28.3433 65.098 28.5015 64.9691L28.9927 64.6009C29.3186 64.352 29.6592 64.123 30.0128 63.9152C30.7257 63.4696 31.5083 63.1467 32.3281 62.9599L32.2724 62.9732C33.6561 62.5784 35.0815 62.3479 36.5191 62.2865C37.9386 62.1932 39.3579 62.1549 40.7755 62.1611C43.6113 62.1671 46.4395 62.3106 49.2637 62.5357L49.1548 62.5723C49.7075 62.0132 50.2141 61.4103 50.6697 60.7697L51.3717 59.8074C51.5927 59.4596 51.8845 59.1621 52.2281 58.9343C52.5756 58.7105 52.9713 58.5722 53.3826 58.5307C53.7857 58.4829 54.1934 58.4909 54.5942 58.5546C55.3908 58.6871 56.1516 58.9814 56.8298 59.4194C56.8396 59.4256 56.8465 59.4355 56.849 59.4468C56.8516 59.458 56.8496 59.4699 56.8435 59.4797C56.8373 59.4895 56.8276 59.4966 56.8163 59.4992C56.805 59.5019 56.7931 59.5 56.7832 59.494L56.7804 59.4922Z" fill="black"/>
<path d="M37 66.8436C37.5398 66.9977 38.0296 67.2925 38.4199 67.6983C38.8222 68.0977 39.1439 68.5716 39.3674 69.094C39.5913 69.6135 39.7172 70.1704 39.7386 70.7363C39.7493 71.0148 39.7351 71.2937 39.6962 71.5696C39.6491 71.8434 39.5772 72.1123 39.4815 72.373C39.3854 72.1033 39.3421 71.8431 39.2715 71.5887C39.1957 71.3359 39.1504 71.0843 39.0662 70.8438C38.9319 70.3661 38.7672 69.8976 38.5733 69.4411C38.3787 68.9873 38.1512 68.5485 37.8926 68.1283C37.6218 67.6818 37.3237 67.2528 37 66.8436ZM38.8885 77.2913C39.0553 79.2264 39.1367 81.1611 39.188 83.0956C39.2448 85.0301 39.2508 86.9643 39.2471 88.8985C39.2272 90.8324 39.1964 92.7664 39.1152 94.7C39.0394 96.6337 38.9329 98.5671 38.7403 100.5C38.5724 98.5648 38.4906 96.63 38.4395 94.6957C38.383 92.7611 38.3769 90.8269 38.3817 88.8928C38.4027 86.9588 38.4335 85.0249 38.5149 83.0913C38.5909 81.1576 38.697 79.2242 38.8885 77.2913ZM78.5242 64.5066C80.1098 65.5056 81.6663 66.5461 83.1938 67.6281C83.9583 68.1683 84.7165 68.7183 85.4685 69.2781L86.5876 70.1388C86.7838 70.2869 86.9687 70.4498 87.1405 70.6261L87.4064 70.9057L87.6304 71.1915C88.2104 71.9446 88.7395 72.7361 89.2141 73.5608C89.6923 74.3733 90.1577 75.1911 90.6103 76.0143C91.5048 77.6682 92.4259 79.3035 93.3737 80.9204C93.8478 81.7296 94.3309 82.5334 94.8232 83.3318L95.5595 84.5288C95.7777 84.9202 96.037 85.2869 96.3329 85.6225C96.6466 85.9323 97.0202 86.2394 97.3451 86.625C97.7301 87.0288 97.9619 87.5559 98 88.1143C97.9708 88.6868 97.7232 89.2259 97.3087 89.6189C97.1315 89.7991 96.9452 89.97 96.7506 90.1309C96.5763 90.2724 96.4071 90.4208 96.2414 90.574C95.9081 90.8821 95.6016 91.2058 95.2899 91.554C94.9725 91.9072 94.6439 92.2498 94.3104 92.5884C93.6372 93.2653 92.9224 93.8989 92.1701 94.4855C91.4032 95.0834 90.5683 95.5873 89.6831 95.9865C89.2188 96.1842 88.7309 96.3202 88.2317 96.3909C87.7075 96.4692 87.1723 96.4224 86.6693 96.2541C86.5892 96.2298 86.5208 96.1763 86.4775 96.1042L86.4747 96.0995C86.1497 95.5574 85.7939 95.0169 85.434 94.4878C85.0745 93.9564 84.6979 93.4377 84.3044 92.9318C83.9093 92.4297 83.4871 91.95 83.0396 91.4946C82.6088 91.0263 82.0812 90.6588 81.494 90.4182L81.4908 90.417C81.4805 90.4133 81.4719 90.4059 81.4669 90.3961C81.4618 90.3864 81.4606 90.3751 81.4635 90.3644C81.4664 90.3538 81.4732 90.3447 81.4825 90.3389C81.4918 90.3331 81.5029 90.3311 81.5136 90.3333C82.1553 90.4999 82.7485 90.8174 83.2447 91.2596C83.7537 91.6741 84.2306 92.1269 84.6713 92.6142C85.5571 93.58 86.3709 94.6103 87.1063 95.6965L86.9119 95.5419C87.7363 95.7113 88.5936 95.5858 89.336 95.1869C90.1465 94.7979 90.9083 94.3135 91.6056 93.744C92.3281 93.1792 93.019 92.5745 93.675 91.9327C94.0068 91.6132 94.3352 91.2888 94.6528 90.9539C94.9746 90.6129 95.3216 90.2649 95.6845 89.9477C95.8667 89.788 96.0535 89.6328 96.2464 89.4847C96.4213 89.3378 96.5872 89.2123 96.7336 89.0627C97.0171 88.8167 97.2023 88.4754 97.2547 88.1023C97.2322 87.7151 97.0789 87.3473 96.8202 87.06C96.555 86.7164 96.2202 86.4052 95.895 86.0314C95.8093 85.9337 95.7291 85.8313 95.6547 85.7246L95.4671 85.4049L95.1294 84.7809L94.4693 83.5361C94.0337 82.7046 93.5888 81.8789 93.1346 81.0591C92.2237 79.4205 91.2634 77.8094 90.2232 76.2509C89.1922 74.6947 88.1462 73.1192 87.029 71.6814L86.8179 71.4156L86.5976 71.1889C86.4466 71.0263 86.2828 70.8761 86.1078 70.7399L85.0194 69.8692L82.8217 68.1317C81.3534 66.9747 79.9039 65.7899 78.4733 64.5772C78.4649 64.5701 78.4595 64.5601 78.4581 64.5491C78.4568 64.5381 78.4596 64.527 78.4661 64.518C78.4725 64.5091 78.4821 64.5029 78.4929 64.5008C78.5037 64.4987 78.5149 64.5008 78.5242 64.5066Z" fill="black"/>
<path d="M83.4542 79.5C82.6968 82.3563 81.9817 85.2196 81.3844 88.0941C81.0771 89.5189 80.8626 90.9623 80.7421 92.4151C80.7012 93.1138 80.697 93.885 80.6359 94.6325C80.5763 95.3949 80.4493 96.1503 80.2561 96.89C79.8015 98.3522 79.073 99.7138 78.1098 100.902C77.6647 101.498 77.1931 102.074 76.7515 102.652C76.5392 102.94 76.3237 103.225 76.133 103.533C75.9284 103.829 75.7435 104.141 75.5595 104.454C74.835 105.725 74.1872 107.038 73.6197 108.387C73.0209 109.731 72.5046 111.111 72 112.5C72.6425 109.596 73.6398 106.784 74.9692 104.125C75.3125 103.453 75.7057 102.808 76.1455 102.195C76.5817 101.59 77.0286 101.012 77.4497 100.415C78.3356 99.2971 79.005 98.0226 79.4231 96.6573C79.6086 95.9699 79.733 95.2674 79.7946 94.5579C79.8634 93.8344 79.8611 93.128 79.9274 92.3541C80.082 90.8663 80.3497 89.3925 80.7283 87.9457C81.4545 85.0744 82.3651 82.2533 83.4542 79.5ZM96.1131 90.2523C97.0649 90.9943 97.967 91.7847 98.8831 92.5208C99.1147 92.6998 99.3456 92.8761 99.572 93.0309L99.9492 93.2562C100.088 93.3443 100.22 93.4368 100.346 93.5337C100.831 93.9265 101.278 94.3653 101.68 94.8442C102.478 95.7924 103.106 96.8728 103.535 98.0369C103.984 99.19 104.111 100.444 103.902 101.664C103.776 100.492 103.442 99.3524 102.917 98.298C102.405 97.2586 101.768 96.2863 101.02 95.403C100.659 94.9596 100.26 94.5491 99.8274 94.1766C99.7228 94.0833 99.6148 93.9975 99.5065 93.9177L99.1315 93.6565C98.8849 93.4647 98.6513 93.2569 98.4321 93.0342C97.5752 92.1807 96.7989 91.2494 96.1131 90.2523ZM86.5617 96.8726C87.4124 98.0179 87.9937 99.3416 88.2621 100.745C88.2922 100.923 88.3177 101.104 88.3418 101.285C88.3586 101.46 88.3605 101.668 88.3824 101.818C88.4158 102.125 88.4887 102.426 88.5992 102.714C88.8405 103.33 89.1498 103.916 89.5213 104.463C89.8892 105.028 90.2939 105.569 90.7329 106.081C90.9449 106.345 91.1793 106.59 91.4046 106.843C91.649 107.076 91.8718 107.336 92.1236 107.562C93.0832 108.54 94.2327 109.31 95.5008 109.824C94.7945 109.752 94.1074 109.551 93.4731 109.231C92.8393 108.907 92.2396 108.52 91.683 108.076C90.5622 107.189 89.5884 106.13 88.7978 104.938C88.3962 104.328 88.0701 103.67 87.8267 102.981C87.7093 102.612 87.642 102.228 87.6266 101.841C87.6153 101.645 87.6203 101.504 87.6203 101.332L87.5955 100.835C87.4404 99.4713 87.0923 98.1372 86.5617 96.8726ZM96.1131 108.016C96.1995 107.456 96.3927 106.919 96.6821 106.433C96.9661 105.942 97.3109 105.489 97.7085 105.085C98.1107 104.688 98.557 104.339 99.0385 104.044C99.2778 103.898 99.5249 103.765 99.7789 103.646C100.038 103.539 100.297 103.435 100.561 103.348C100.102 103.668 99.6498 103.975 99.2203 104.309C98.7919 104.64 98.3841 104.996 97.9994 105.376C97.6201 105.76 97.2697 106.171 96.9511 106.607C96.6261 107.047 96.3454 107.519 96.1131 108.016Z" fill="black"/>
<path d="M99.0064 109.033C99.9859 107.447 101.059 105.921 102.22 104.465C102.8 103.736 103.403 103.023 104.029 102.327C104.666 101.635 105.34 100.98 106.049 100.364C106.771 99.7213 107.584 99.1913 108.461 98.7916C108.935 98.5893 109.446 98.4902 109.96 98.5008C110.487 98.5145 111.002 98.6638 111.457 98.9346C112.303 99.4871 112.951 100.302 113.304 101.257C113.487 101.712 113.62 102.186 113.7 102.671C113.798 103.172 113.788 103.689 113.67 104.187L113.529 103.874C114.521 104.386 115.476 104.942 116.423 105.519C117.368 106.097 118.301 106.697 119.2 107.349C120.119 107.984 120.969 108.713 121.739 109.525C122.129 109.944 122.459 110.415 122.721 110.926C123.009 111.47 123.077 112.106 122.911 112.7L122.916 112.683C122.791 113.175 122.523 113.617 122.146 113.952C121.941 114.118 121.703 114.237 121.448 114.3C121.193 114.363 120.927 114.369 120.67 114.317C120.193 114.218 119.739 114.026 119.334 113.752C118.945 113.494 118.577 113.204 118.235 112.885L118.825 112.627C118.809 113.239 118.68 113.843 118.444 114.408C118.213 114.977 117.868 115.492 117.429 115.919C116.99 116.34 116.476 116.671 115.914 116.896C115.676 117 115.445 117.118 115.22 117.249C115.117 117.309 115.018 117.376 114.923 117.449C114.888 117.476 114.855 117.507 114.824 117.54C114.8 117.56 114.807 117.585 114.828 117.505L114.678 117.078C114.953 117.319 115.18 117.611 115.348 117.938C115.526 118.274 115.62 118.65 115.62 119.032C115.62 119.413 115.527 119.789 115.348 120.125C115.185 120.444 114.971 120.733 114.714 120.981C114.199 121.473 113.544 121.789 112.842 121.884C112.516 121.924 112.188 121.939 111.859 121.93C111.506 121.93 111.155 121.873 110.819 121.763L111.131 121.764C110.105 122.086 109.049 122.306 107.981 122.421C106.914 122.532 105.84 122.526 104.775 122.404C104.22 122.351 103.676 122.22 103.157 122.017C102.868 121.904 102.607 121.729 102.391 121.504C102.175 121.28 102.009 121.01 101.905 120.715C101.753 120.124 101.823 119.496 102.102 118.954C102.227 118.691 102.389 118.449 102.582 118.233C102.788 117.972 103.084 117.801 103.41 117.752L103.373 117.756C103.527 117.733 103.682 117.72 103.837 117.717C103.99 117.713 104.143 117.719 104.295 117.734C104.606 117.759 104.91 117.842 105.192 117.976L104.965 118.246C104.825 117.993 104.715 117.725 104.639 117.447C104.56 117.169 104.525 116.881 104.534 116.593C104.545 116.301 104.626 116.017 104.771 115.765C104.918 115.523 105.118 115.317 105.356 115.165C105.366 115.158 105.378 115.156 105.389 115.158C105.401 115.16 105.411 115.167 105.417 115.177C105.423 115.187 105.425 115.198 105.423 115.209C105.422 115.22 105.416 115.23 105.407 115.237C105.201 115.4 105.034 115.608 104.919 115.846C104.81 116.08 104.759 116.337 104.769 116.595C104.781 116.855 104.834 117.111 104.924 117.354C105.012 117.597 105.128 117.829 105.27 118.044C105.292 118.076 105.302 118.114 105.301 118.153C105.3 118.192 105.286 118.229 105.263 118.26C105.239 118.291 105.206 118.313 105.169 118.323C105.132 118.334 105.093 118.332 105.057 118.319L105.043 118.313C104.793 118.221 104.531 118.17 104.266 118.162C104.13 118.157 103.995 118.16 103.86 118.171C103.728 118.182 103.596 118.2 103.466 118.227L103.449 118.23L103.429 118.232C103.245 118.297 103.085 118.419 102.972 118.581C102.826 118.766 102.706 118.971 102.617 119.19C102.429 119.602 102.397 120.071 102.528 120.506C102.61 120.704 102.734 120.882 102.89 121.028C103.046 121.174 103.232 121.284 103.434 121.35C103.893 121.507 104.371 121.601 104.855 121.629C105.863 121.707 106.877 121.675 107.878 121.535C108.878 121.409 109.864 121.187 110.822 120.872C110.92 120.839 111.025 120.838 111.123 120.87L111.134 120.873C111.652 120.989 112.186 121.011 112.712 120.938C113.219 120.872 113.693 120.646 114.068 120.293C114.435 119.969 114.665 119.514 114.711 119.023C114.713 118.788 114.658 118.556 114.553 118.347C114.444 118.127 114.298 117.928 114.121 117.759L114.09 117.73C114.037 117.68 113.998 117.617 113.977 117.547C113.956 117.477 113.954 117.403 113.972 117.331C114.006 117.184 114.081 117.048 114.187 116.941C114.252 116.873 114.322 116.81 114.397 116.754C114.524 116.659 114.657 116.573 114.795 116.496C115.053 116.352 115.319 116.223 115.591 116.11C116.065 115.935 116.502 115.668 116.876 115.324C117.244 114.978 117.54 114.562 117.749 114.099C117.961 113.635 118.088 113.136 118.124 112.627L118.126 112.6C118.13 112.533 118.153 112.468 118.192 112.414C118.231 112.36 118.285 112.318 118.347 112.293C118.409 112.269 118.477 112.263 118.542 112.276C118.607 112.29 118.667 112.321 118.715 112.368C119.02 112.671 119.347 112.95 119.694 113.201C120.019 113.449 120.387 113.632 120.78 113.739C120.959 113.788 121.145 113.796 121.327 113.762C121.509 113.729 121.681 113.655 121.831 113.545C122.14 113.293 122.368 112.954 122.486 112.57L122.491 112.554C122.645 112.067 122.608 111.539 122.385 111.081C122.165 110.588 121.867 110.135 121.504 109.739C120.764 108.928 119.94 108.201 119.045 107.57C117.241 106.311 115.32 105.234 113.308 104.354C113.254 104.33 113.21 104.287 113.184 104.233C113.157 104.18 113.15 104.118 113.163 104.06L113.167 104.041C113.234 103.622 113.214 103.194 113.11 102.783C113.014 102.352 112.872 101.933 112.684 101.534C112.348 100.745 111.785 100.079 111.067 99.6208C110.713 99.4261 110.32 99.3167 109.917 99.3009C109.515 99.2851 109.114 99.3635 108.746 99.5299C107.94 99.8905 107.19 100.367 106.518 100.945C105.813 101.522 105.139 102.139 104.501 102.791C103.851 103.438 103.221 104.111 102.61 104.802C101.395 106.19 100.213 107.616 99.079 109.084C99.0755 109.089 99.0712 109.093 99.0662 109.096C99.0612 109.098 99.0557 109.1 99.0499 109.101C99.0442 109.102 99.0384 109.102 99.0328 109.1C99.0271 109.099 99.0219 109.096 99.0173 109.093C99.0086 109.086 99.0027 109.076 99.0007 109.065C98.9988 109.054 99.0008 109.043 99.0064 109.033Z" fill="black"/>
<path d="M106.874 102.5C106.879 103.28 106.988 104.056 107.198 104.812C107.307 105.169 107.481 105.507 107.712 105.813C107.93 106.1 108.259 106.302 108.632 106.379C109.018 106.463 109.421 106.459 109.804 106.367C110.202 106.283 110.579 106.131 110.916 105.921C111.616 105.477 112.221 104.921 112.701 104.278C112.361 105.026 111.819 105.683 111.126 106.188C110.768 106.459 110.349 106.654 109.898 106.758C109.447 106.861 108.976 106.871 108.521 106.787C108.045 106.681 107.629 106.417 107.358 106.045C107.11 105.692 106.937 105.3 106.849 104.889C106.691 104.099 106.699 103.288 106.874 102.5ZM113.676 109.95C114.554 109.979 115.409 110.219 116.153 110.646C116.528 110.853 116.875 111.098 117.188 111.378C117.501 111.654 117.774 111.965 118 112.305C117.671 112.046 117.355 111.788 117.019 111.554C116.688 111.318 116.342 111.1 115.982 110.903C115.624 110.703 115.252 110.524 114.868 110.367C114.481 110.205 114.083 110.066 113.676 109.95ZM104 117.508C104.204 117.696 104.439 117.853 104.696 117.975C104.946 118.107 105.2 118.231 105.457 118.352C105.971 118.593 106.492 118.824 107.016 119.05C108.061 119.512 109.119 119.955 110.141 120.5C108.993 120.256 107.878 119.897 106.816 119.429C106.282 119.198 105.766 118.932 105.273 118.634C104.755 118.358 104.318 117.971 104 117.508ZM112.147 111.776C112.328 111.866 112.486 111.99 112.611 112.14C112.683 112.219 112.735 112.312 112.763 112.412C112.791 112.512 112.794 112.616 112.773 112.717C112.708 112.918 112.57 113.094 112.383 113.216C112.214 113.334 112.029 113.432 111.833 113.508C111.743 113.542 111.656 113.583 111.572 113.628C111.493 113.664 111.416 113.704 111.343 113.749L111.143 113.909C111.083 113.968 111.028 114.031 110.978 114.098C110.767 114.366 110.641 114.681 110.613 115.009C110.561 115.333 110.614 115.663 110.767 115.96C110.92 116.256 111.165 116.505 111.472 116.674C111.548 116.721 111.632 116.756 111.72 116.777C111.807 116.803 111.892 116.839 111.983 116.86C112.17 116.893 112.359 116.914 112.549 116.923C112.745 116.928 112.941 116.921 113.136 116.904C113.33 116.873 113.527 116.847 113.729 116.823C113.543 116.89 113.353 116.954 113.16 117.014C112.962 117.064 112.761 117.102 112.557 117.129C112.348 117.145 112.138 117.146 111.929 117.132C111.823 117.115 111.718 117.093 111.615 117.066C111.508 117.048 111.405 117.014 111.309 116.967C110.901 116.799 110.57 116.505 110.375 116.138C110.186 115.773 110.109 115.368 110.154 114.967C110.199 114.565 110.363 114.183 110.629 113.86C110.696 113.78 110.77 113.704 110.851 113.634L111.114 113.446C111.3 113.348 111.495 113.268 111.698 113.204C112.051 113.131 112.359 112.935 112.557 112.659C112.587 112.584 112.598 112.504 112.589 112.424C112.581 112.344 112.553 112.267 112.507 112.199C112.413 112.041 112.291 111.898 112.147 111.776Z" fill="black"/>
<path d="M109.335 103.863C109.388 104.083 109.46 104.298 109.552 104.506C109.628 104.703 109.763 104.877 109.942 105.006C110.031 105.065 110.133 105.105 110.241 105.124C110.349 105.142 110.459 105.139 110.566 105.115C110.682 105.095 110.797 105.068 110.91 105.033C111.023 104.994 111.134 104.947 111.254 104.911C111.16 104.985 111.056 105.05 110.955 105.121C110.842 105.177 110.724 105.225 110.603 105.264C110.472 105.305 110.334 105.317 110.197 105.3C110.061 105.284 109.931 105.238 109.817 105.167C109.609 105.01 109.462 104.796 109.397 104.556C109.328 104.331 109.307 104.096 109.335 103.863ZM109.748 103.592C109.99 103.529 110.241 103.498 110.494 103.5C110.75 103.501 111.006 103.539 111.25 103.611C111.505 103.688 111.727 103.837 111.886 104.036C112.023 104.243 112.07 104.49 112.018 104.728C111.989 104.51 111.897 104.303 111.753 104.128C111.598 103.971 111.399 103.857 111.178 103.798C110.714 103.669 110.233 103.599 109.748 103.592ZM113.204 116.144C113.294 115.975 113.43 115.83 113.6 115.725C113.69 115.668 113.792 115.627 113.899 115.607C114.007 115.586 114.118 115.586 114.226 115.606C114.431 115.667 114.612 115.784 114.742 115.943C114.796 116.024 114.852 116.102 114.898 116.183C114.933 116.271 114.973 116.355 115 116.443C114.868 116.304 114.751 116.165 114.619 116.044C114.496 115.929 114.343 115.844 114.176 115.799C114.008 115.762 113.832 115.783 113.68 115.858C113.509 115.935 113.349 116.031 113.204 116.144ZM105.268 117.069C105.28 116.742 105.37 116.422 105.532 116.131C105.575 116.05 105.636 115.977 105.71 115.918C105.785 115.859 105.871 115.815 105.965 115.788C106.064 115.77 106.166 115.773 106.263 115.797C106.361 115.821 106.451 115.865 106.528 115.926C106.676 116.029 106.803 116.158 106.9 116.305C107 116.46 107.033 116.644 106.994 116.821C106.941 116.981 106.851 117.127 106.729 117.251C106.607 117.375 106.458 117.472 106.291 117.537C106.561 117.356 106.753 117.093 106.832 116.795C106.846 116.656 106.811 116.516 106.732 116.396C106.643 116.275 106.531 116.17 106.401 116.086C106.35 116.039 106.288 116.004 106.22 115.983C106.153 115.962 106.081 115.955 106.009 115.963C105.868 116.006 105.748 116.095 105.671 116.212C105.494 116.479 105.358 116.767 105.268 117.069ZM99.7533 114.652C99.7322 114.978 99.6328 115.296 99.4625 115.583C99.4172 115.663 99.3546 115.734 99.2785 115.791C99.2025 115.849 99.1145 115.891 99.02 115.916C98.9206 115.931 98.8187 115.925 98.7221 115.899C98.6254 115.873 98.5364 115.827 98.4616 115.765C98.3157 115.657 98.193 115.526 98.0998 115.377C98.0046 115.219 97.9763 115.034 98.0201 114.858C98.0779 114.7 98.1727 114.555 98.2977 114.435C98.4227 114.314 98.5749 114.22 98.7436 114.16C98.4687 114.333 98.2698 114.592 98.1823 114.888C98.1643 115.027 98.1953 115.168 98.2707 115.289C98.3563 115.412 98.4653 115.52 98.5927 115.608C98.6423 115.655 98.703 115.692 98.7702 115.715C98.8374 115.738 98.9093 115.746 98.9806 115.74C99.123 115.7 99.2453 115.614 99.3256 115.498C99.5106 115.236 99.6546 114.951 99.7533 114.652ZM102.989 120.048C103.082 119.823 103.212 119.612 103.374 119.424C103.457 119.324 103.557 119.237 103.669 119.165C103.734 119.121 103.809 119.092 103.888 119.08C103.968 119.069 104.049 119.076 104.125 119.1C104.26 119.17 104.361 119.285 104.409 119.421C104.458 119.537 104.488 119.659 104.5 119.783C104.532 120.022 104.52 120.264 104.466 120.5C104.438 120.268 104.395 120.037 104.338 119.81C104.31 119.701 104.274 119.595 104.229 119.492C104.178 119.401 104.116 119.302 104.039 119.281C103.892 119.207 103.663 119.374 103.496 119.526C103.318 119.692 103.149 119.866 102.989 120.048Z" fill="black"/>
<path d="M96.7699 108.995L95.0006 110.95C95.0006 110.95 95.0137 113.449 93.7525 113.554C93.7525 113.554 93.1131 114.134 93.5685 114.252C93.9758 114.353 95.443 113.989 96.078 114.064C96.078 114.064 99.0867 113.466 99.5991 113.791C99.7533 113.896 99.8829 114.033 99.979 114.193C100.075 114.353 100.135 114.532 100.155 114.718L100.401 114.692L109.891 115.258L114.008 108.995L96.7699 108.995ZM108.998 113.378L95.6794 113.155L97.4181 110.348H110.763L108.998 113.378ZM85.8561 113.555C86.3693 113.18 86.9498 112.908 87.5657 112.752C88.1918 112.591 88.8402 112.535 89.4846 112.586C89.5424 112.591 89.596 112.618 89.6337 112.662C89.6714 112.706 89.6901 112.764 89.6857 112.822C89.6814 112.88 89.6543 112.934 89.6104 112.972C89.5666 113.01 89.5095 113.029 89.4516 113.025C89.4426 113.024 89.4336 113.023 89.4247 113.021C88.8266 112.903 88.2131 112.885 87.6092 112.967C86.9926 113.049 86.3974 113.248 85.8561 113.555ZM89.4546 118.092C90.6869 118.115 91.9189 118.158 93.1514 118.275C93.4564 118.303 93.7753 118.352 94.0697 118.387C94.3672 118.419 94.667 118.425 94.9656 118.405C95.5568 118.364 96.1371 118.225 96.6823 117.992L96.6966 117.985C96.7498 117.962 96.8101 117.96 96.8643 117.982C96.9185 118.003 96.9622 118.044 96.9856 118.098C97.0091 118.151 97.0105 118.212 96.9894 118.266C96.9684 118.32 96.9267 118.364 96.8735 118.388L96.8614 118.393C96.2577 118.613 95.6209 118.729 94.9785 118.734C94.6613 118.737 94.3445 118.712 94.0317 118.659C93.7169 118.602 93.4301 118.539 93.1233 118.493C91.911 118.304 90.6825 118.188 89.4546 118.092ZM90.4042 121.5C90.822 121.349 91.2442 121.208 91.6709 121.078C92.1023 120.942 92.5423 120.834 92.9878 120.755C93.0454 120.745 93.1043 120.759 93.1515 120.794C93.1988 120.828 93.2306 120.88 93.2399 120.937C93.2492 120.995 93.2352 121.054 93.2011 121.101C93.167 121.149 93.1154 121.181 93.0579 121.19C93.0463 121.192 93.0346 121.193 93.0229 121.193H93.0186C92.5829 121.198 92.148 121.231 91.7167 121.293C91.2788 121.35 90.8407 121.42 90.4042 121.5ZM92.0536 110.403C92.2778 110.636 92.5413 110.828 92.8319 110.969C93.1265 111.105 93.4354 111.208 93.7529 111.275C93.5851 111.314 93.4117 111.323 93.2408 111.301C93.0676 111.278 92.899 111.229 92.7403 111.156C92.5845 111.075 92.4425 110.97 92.3197 110.845C92.197 110.721 92.1058 110.569 92.0536 110.403ZM98.7385 118.169C98.6224 118.169 98.5108 118.124 98.4283 118.042C98.3457 117.96 98.2991 117.848 98.2985 117.732C98.298 117.615 98.3436 117.503 98.4254 117.421C98.5071 117.338 98.6183 117.291 98.7345 117.291L104.282 117.238C104.34 117.237 104.398 117.247 104.451 117.268C104.505 117.289 104.554 117.321 104.596 117.361C104.637 117.402 104.67 117.45 104.692 117.504C104.714 117.558 104.725 117.615 104.724 117.673C104.725 117.731 104.714 117.788 104.693 117.842C104.671 117.895 104.639 117.944 104.599 117.985C104.559 118.026 104.511 118.059 104.458 118.082C104.405 118.104 104.348 118.116 104.29 118.117L98.7426 118.169H98.7385ZM113.983 118.027C113.867 118.027 113.755 117.98 113.673 117.898C113.591 117.816 113.545 117.704 113.545 117.588C113.545 117.471 113.591 117.359 113.673 117.277C113.755 117.195 113.866 117.148 113.982 117.148L129.275 117.128H129.275C129.392 117.128 129.503 117.174 129.585 117.256C129.667 117.339 129.714 117.45 129.714 117.567C129.714 117.683 129.668 117.795 129.586 117.878C129.504 117.96 129.392 118.006 129.276 118.006L113.984 118.027H113.983ZM215.506 117.891C215.389 117.891 215.278 117.845 215.196 117.763C215.114 117.68 215.068 117.569 215.067 117.452C215.067 117.336 215.114 117.224 215.196 117.141C215.278 117.059 215.389 117.013 215.505 117.013L229.561 116.995C229.678 116.995 229.789 117.042 229.872 117.124C229.954 117.206 230 117.318 230 117.434C230 117.551 229.954 117.663 229.872 117.745C229.79 117.827 229.678 117.874 229.562 117.874L215.506 117.891H215.506ZM135.45 117.665H134.41C134.382 117.665 134.356 117.654 134.336 117.634C134.316 117.615 134.305 117.588 134.304 117.56C134.304 117.547 134.307 117.533 134.312 117.521C134.317 117.508 134.324 117.496 134.334 117.487C134.343 117.477 134.355 117.469 134.367 117.464C134.38 117.459 134.393 117.456 134.407 117.456H135.45C135.464 117.456 135.477 117.459 135.49 117.464C135.503 117.469 135.514 117.477 135.524 117.486C135.534 117.496 135.541 117.508 135.547 117.52C135.552 117.533 135.555 117.547 135.555 117.56C135.555 117.574 135.552 117.588 135.547 117.6C135.541 117.613 135.534 117.625 135.524 117.634C135.514 117.644 135.503 117.652 135.49 117.657C135.477 117.662 135.464 117.665 135.45 117.665ZM0.439988 119.088C0.323836 119.089 0.212227 119.043 0.129714 118.961C0.0472013 118.879 0.000543666 118.767 4.72106e-06 118.651C-0.000534224 118.534 0.0450899 118.422 0.126841 118.34C0.208591 118.257 0.319773 118.21 0.435925 118.21L19.7178 118.03C19.8329 118.032 19.943 118.078 20.0252 118.159C20.1074 118.24 20.1556 118.349 20.1598 118.465C20.1603 118.523 20.1496 118.58 20.128 118.633C20.1065 118.687 20.0747 118.735 20.0344 118.777C19.9941 118.818 19.9462 118.851 19.8932 118.873C19.8403 118.896 19.7834 118.908 19.7259 118.908L0.444051 119.088H0.439988ZM73.1611 58.2987C73.3231 58.2931 73.4765 58.2246 73.5891 58.1078C73.7017 57.9909 73.7646 57.8347 73.7646 57.6722C73.7646 57.5097 73.7017 57.3536 73.5891 57.2367C73.4765 57.1198 73.3231 57.0513 73.1611 57.0457C72.9991 57.0513 72.8457 57.1198 72.7331 57.2367C72.6205 57.3536 72.5575 57.5097 72.5575 57.6722C72.5575 57.8347 72.6205 57.9909 72.7331 58.1078C72.8457 58.2246 72.9991 58.2931 73.1611 58.2987ZM104.743 46.147L99.6283 46.338C97.9504 46.389 96.2912 46.4298 94.6414 46.4607C92.9941 46.4836 91.3523 46.5098 89.7173 46.4913C88.0814 46.479 86.4458 46.4057 84.7937 46.3599L85.0369 46.1159C85.0105 47.0624 84.9678 48.0089 84.9551 48.9553C84.9319 49.9017 84.9311 50.8482 84.9254 51.7947C84.9241 53.6876 84.9638 55.5805 85.0171 57.4734L84.7937 57.2493L88.8752 57.1357C88.9168 57.1344 88.9582 57.1415 88.997 57.1565C89.0359 57.1716 89.0713 57.1942 89.1014 57.223L89.1135 57.2346L90.6722 58.7379H90.1363L91.6436 57.1831C91.6799 57.1455 91.7233 57.1155 91.7712 57.0949C91.8192 57.0742 91.8708 57.0634 91.923 57.0629L91.9333 57.0628C94.0734 57.0451 96.2135 57.001 98.3536 57.005C99.4236 56.9996 100.494 57.004 101.564 57.0181L104.774 57.0589L104.36 57.4734C104.39 55.6287 104.443 53.7836 104.519 51.9005L104.743 46.147ZM104.805 46.0849L105.029 51.6888C105.105 53.5915 105.158 55.5323 105.187 57.4734C105.189 57.5817 105.148 57.6862 105.072 57.7639C104.997 57.8417 104.894 57.8863 104.786 57.8879H104.785L104.774 57.888L101.564 57.9288C100.494 57.9416 99.4236 57.946 98.3536 57.942C96.2135 57.9459 94.0734 57.9018 91.9333 57.8842L92.2228 57.764L90.6723 59.2754L90.6632 59.2843C90.6282 59.3185 90.5868 59.3453 90.5415 59.3634C90.4961 59.3815 90.4477 59.3904 90.3989 59.3898C90.3501 59.3891 90.3019 59.3787 90.2571 59.3594C90.2122 59.34 90.1717 59.3119 90.1376 59.2768L90.1362 59.2754L88.6371 57.7124L88.8752 57.8113L84.7937 57.6976L84.7812 57.6973C84.7236 57.6957 84.669 57.6712 84.6294 57.6292C84.5898 57.5873 84.5685 57.5312 84.5701 57.4735C84.6235 55.5807 84.6631 53.6876 84.6618 51.7947C84.6562 50.8482 84.6553 49.9018 84.6322 48.9553C84.6195 48.0089 84.5766 47.0624 84.5504 46.116C84.5495 46.0848 84.5548 46.0538 84.5658 46.0247C84.5769 45.9957 84.5936 45.969 84.615 45.9464C84.6363 45.9238 84.6619 45.9056 84.6902 45.8929C84.7185 45.8802 84.7491 45.8732 84.7802 45.8723L84.7937 45.872C86.4716 45.8262 88.1659 45.7528 89.8601 45.7406C91.5551 45.7221 93.2434 45.7483 94.9262 45.7712C96.6064 45.802 98.2772 45.8429 99.9293 45.8939L104.805 46.0849ZM163.503 25.1379L155.975 25.2685L148.511 25.3629L133.687 25.4673L126.312 25.4412L118.941 25.3478C114.023 25.2721 109.079 25.2359 104.138 25.2484L104.279 25.1069L104.305 30.7856L104.371 36.4644L104.138 36.2313C108.493 36.1718 112.847 36.1155 117.202 36.0853L130.266 36.013C134.621 35.9792 138.976 36.018 143.33 36.0171C147.685 36.0117 152.04 36.0691 156.394 36.104L156.4 36.1041C156.494 36.105 156.583 36.1429 156.648 36.2096L158.164 37.7565H157.683L159.229 36.2404L159.235 36.2347C159.263 36.2066 159.297 36.1844 159.335 36.1694C159.372 36.1544 159.412 36.147 159.452 36.1476L163.534 36.2071L163.277 36.4644C163.307 34.6006 163.332 32.7369 163.383 30.8482L163.503 25.1379ZM163.565 25.0758L163.685 30.7229C163.736 32.6201 163.761 34.5423 163.79 36.4644C163.792 36.5315 163.766 36.5964 163.719 36.6446C163.673 36.6928 163.609 36.7205 163.542 36.7216L163.534 36.7217L159.452 36.7812L159.676 36.6885L158.164 38.2387C158.101 38.3027 158.016 38.3391 157.927 38.3401C157.838 38.3411 157.752 38.3066 157.688 38.244L157.688 38.2435L157.683 38.2388L156.14 36.7192L156.394 36.8247C152.04 36.8597 147.685 36.9171 143.33 36.9117C138.976 36.9107 134.621 36.9495 130.266 36.9158L117.202 36.8435C112.847 36.8133 108.493 36.757 104.138 36.6975H104.132C104.102 36.6971 104.072 36.6908 104.045 36.6789C104.017 36.6669 103.992 36.6497 103.971 36.628C103.95 36.6064 103.933 36.5808 103.922 36.5527C103.911 36.5246 103.905 36.4946 103.905 36.4644L103.971 30.7856L103.997 25.1069C103.997 25.0694 104.012 25.0334 104.038 25.0069C104.065 24.9803 104.101 24.9654 104.138 24.9653C109.096 24.9778 114.052 24.9417 119.033 24.866L126.511 24.7725L133.985 24.7463L148.858 24.8509L156.244 24.9451L163.565 25.0758ZM122.261 0.901364C119.049 0.993037 115.893 1.05683 112.754 1.11173C109.608 1.17724 106.501 1.20651 103.394 1.23052C100.288 1.25497 97.2034 1.23546 94.112 1.16609C91.0189 1.11302 87.9116 1.02649 84.7937 1.01094L84.9339 0.870378C84.9326 1.81679 84.9191 2.76323 84.9297 3.70966L84.9469 6.54904C84.9492 8.442 84.9953 10.3349 85.0229 12.2278L84.7937 11.9979L88.8752 11.9213C88.9135 11.9205 88.9516 11.9274 88.9873 11.9414C89.023 11.9554 89.0556 11.9764 89.0832 12.0031L89.0915 12.0111L90.6448 13.5197H90.1637L91.6734 11.9673C91.706 11.9336 91.7451 11.9067 91.7881 11.8882C91.8312 11.8697 91.8776 11.8599 91.9245 11.8594L91.9333 11.8593L99.5229 11.7932C102.053 11.773 104.583 11.7544 107.113 11.7584C112.172 11.7561 117.232 11.8303 122.292 11.8978L121.963 12.2278L122.097 6.62989L122.261 0.901364ZM122.323 0.839287L122.487 6.46821L122.621 12.2278C122.623 12.3133 122.591 12.3961 122.532 12.4579C122.473 12.5198 122.392 12.5556 122.307 12.5576L122.304 12.5577L122.292 12.5579C117.232 12.6254 112.172 12.6996 107.113 12.6972C104.583 12.7013 102.053 12.6827 99.5229 12.6626L91.9333 12.5963L92.193 12.4885L90.6449 14.0023L90.638 14.0091C90.5744 14.0713 90.4888 14.1056 90.4 14.1045C90.3111 14.1034 90.2264 14.0669 90.1644 14.0032L90.1636 14.0023L88.6591 12.4446L88.8752 12.5344L84.7937 12.4577L84.786 12.4576C84.7564 12.4571 84.7272 12.4508 84.7 12.439C84.6728 12.4272 84.6482 12.4102 84.6276 12.3888C84.607 12.3675 84.5908 12.3423 84.58 12.3147C84.5691 12.287 84.5638 12.2575 84.5643 12.2278C84.5919 10.3349 84.638 8.44201 84.6403 6.54905L84.6575 3.70966C84.6681 2.76325 84.6546 1.81681 84.6533 0.870381C84.6534 0.833062 84.6682 0.797279 84.6945 0.770885C84.7208 0.744491 84.7564 0.729645 84.7937 0.729602C87.9255 0.714055 91.0678 0.627528 94.2245 0.574572C97.3828 0.505095 100.548 0.48569 103.692 0.510016C106.835 0.53414 109.977 0.563411 113.081 0.628923C116.192 0.683714 119.285 0.747619 122.323 0.839287Z" fill="black"/>
</svg>
