<svg width="152" height="189" viewBox="0 0 152 189" fill="none" xmlns="http://www.w3.org/2000/svg">
<path d="M39.8906 12.3534L40.9565 9.06641C40.8565 10.3541 40.8795 11.6484 41.0252 12.9318C40.8884 12.7604 40.7163 12.62 40.5207 12.5203C40.325 12.4205 40.1102 12.3636 39.8906 12.3534ZM52.1953 9.34062L53.1709 12.3534C52.9302 12.3648 52.6955 12.4324 52.4858 12.5507C52.276 12.6691 52.0971 12.8348 51.9632 13.0347C52.0105 12.739 52.0492 12.469 52.075 12.2205C52.1652 11.3119 52.1953 10.2921 52.1953 9.34062Z" fill="black"/>
<path d="M58.9042 26.3718L53.7254 25.2661C53.7254 25.2661 50.8759 23.5305 50.4246 17.411V17.2439C50.9913 16.3368 51.4145 15.3481 51.6796 14.3126C51.7108 14.7209 51.899 15.1014 52.205 15.3745C52.511 15.6476 52.9109 15.7922 53.3213 15.7782C55.4402 15.7782 55.5304 12.6242 53.5792 12.367C55.1866 9.40159 52.6982 9.09734 52.191 9.06732C52.1824 7.27605 52.075 5.78045 52.075 5.78045C48.8129 7.51166 46.7757 3.31207 46.7757 3.31207C46.7757 3.31207 45.6325 6.13188 41.3218 6.45747V6.19183C41.1412 7.14054 41.0192 8.0994 40.9565 9.06301C40.9565 9.06301 37.6987 9.08018 39.4823 12.367C37.5354 12.6242 37.617 15.7782 39.7402 15.7782C40.1001 15.7934 40.4543 15.6846 40.7432 15.4699C41.032 15.2553 41.2379 14.948 41.3261 14.5997C41.4973 15.291 41.7528 15.9588 42.0868 16.5882L42.0911 17.0466V18.4052C42.1089 19.5563 41.8134 20.6908 41.2358 21.6877C39.031 25.3646 33.9338 24.9018 33.9338 24.9018L31.2305 24.6061C31.2305 24.6061 37.8663 6.58604 38.9451 4.85043C40.0281 3.11493 45.9033 -2.13896 52.1953 2.84061C52.1953 2.84061 55.2897 5.18043 58.9042 26.3718Z" fill="black"/>
<path d="M27.9991 52.9236C28.3901 52.5528 28.8304 52.2372 29.3074 51.9856C29.7824 51.7288 30.2835 51.5234 30.8023 51.3729L30.7684 51.4952L29.3112 50.035C29.1914 49.9171 29.0641 49.7819 28.9527 49.6837C28.8286 49.5881 28.683 49.5239 28.5285 49.4968C28.1837 49.4447 27.844 49.363 27.5133 49.2527C27.1833 49.129 26.8664 48.973 26.5672 48.7871C26.2548 48.6079 25.9728 48.3805 25.7317 48.1134C25.6045 47.9586 25.5254 47.77 25.504 47.571C25.4873 47.3651 25.5461 47.1602 25.6694 46.9944C25.896 46.6958 26.1969 46.4614 26.5423 46.3145L26.507 46.5942C26.2737 46.4203 26.0541 46.2288 25.8502 46.0214C25.6128 45.802 25.4566 45.5091 25.4071 45.1901C25.404 45.098 25.4138 45.006 25.436 44.9165C25.4692 44.832 25.5127 44.7519 25.5657 44.6781C25.6702 44.5495 25.7999 44.4434 25.9469 44.3665C26.216 44.2244 26.5071 44.1282 26.808 44.0818L26.78 44.4558C26.5276 44.3866 26.3021 44.2426 26.1334 44.0429C26.0496 43.9415 25.9832 43.8269 25.9369 43.7038C25.8883 43.5788 25.8605 43.4466 25.8547 43.3126L25.8583 43.3506C25.8116 43.2036 25.8001 43.0477 25.825 42.8955C25.8499 42.7433 25.9103 42.599 26.0015 42.4744C26.0927 42.3498 26.212 42.2483 26.3497 42.1782C26.4875 42.1081 26.6399 42.0714 26.7946 42.0709C27.061 42.0425 27.3298 42.046 27.5954 42.0812C27.8551 42.1131 28.1122 42.1643 28.3643 42.2344L28.1812 42.6293C28.0066 42.515 27.8479 42.3782 27.7092 42.2225C27.6211 42.1335 27.5529 42.0269 27.5088 41.9099C27.4648 41.7928 27.446 41.6678 27.4536 41.5429C27.4747 41.4034 27.5387 41.2738 27.6366 41.172C27.7195 41.0898 27.8141 41.0205 27.9175 40.9662C28.1092 40.861 28.3216 40.7991 28.5399 40.7845C29.3091 40.7495 30.0797 40.8066 30.8352 40.9545C31.208 41.0164 31.5782 41.087 31.9469 41.1636C32.3314 41.2326 32.7075 41.3422 33.0688 41.4905C33.7994 41.7979 34.4448 42.2767 34.9499 42.8862L40.766 49.6934L40.5325 49.5854C41.9584 49.557 43.3819 49.4574 44.7977 49.287C46.2203 49.1312 47.6413 48.9421 49.0596 48.7314C51.8961 48.3143 54.7263 47.823 57.5461 47.3103L57.4144 47.3663C58.466 46.6228 59.5135 45.8675 60.5464 45.0986C61.0626 44.7137 61.5759 44.3252 62.0786 43.928L62.4527 43.6279L62.6405 43.476L62.8607 43.3151C63.1547 43.1236 63.472 42.9703 63.8049 42.8591C65.083 42.48 66.416 42.3179 67.748 42.3798L68.2425 42.3963C68.4209 42.4056 68.5982 42.4296 68.7726 42.468C69.125 42.5446 69.4604 42.6849 69.7621 42.8819C70.0737 43.0768 70.3425 43.3327 70.5523 43.634C70.762 43.9354 70.9083 44.2759 70.9824 44.6352L70.8405 44.4149C71.0572 44.5421 71.2653 44.6835 71.4634 44.838C71.6697 45.0001 71.8521 45.1905 72.005 45.4034C72.1748 45.6299 72.2822 45.8967 72.3168 46.1774C72.3517 46.4794 72.2813 46.7842 72.1176 47.0405L72.0898 46.7009C72.3662 46.9828 72.6433 47.2544 72.9188 47.5445C73.059 47.7004 73.1875 47.8665 73.3031 48.0414C73.4409 48.2364 73.5292 48.4619 73.5604 48.6984C73.5716 48.8573 73.5242 49.0149 73.427 49.1413C73.3353 49.2501 73.2154 49.3317 73.0803 49.3771C72.8675 49.4479 72.6442 49.482 72.4199 49.4778C72.0097 49.4749 71.6009 49.4288 71.2004 49.3404L71.3916 48.9298C71.7347 49.1961 72.0198 49.5294 72.2294 49.9093C72.3465 50.1247 72.3958 50.3703 72.371 50.6141C72.3543 50.7575 72.2961 50.8931 72.2034 51.0041C72.1481 51.0601 72.0837 51.1065 72.0129 51.1413C71.9487 51.1661 71.8822 51.185 71.8144 51.1976C71.3762 51.2138 70.9404 51.1267 70.5425 50.9432C70.1623 50.7922 69.7923 50.6167 69.4349 50.4179L69.5512 50.4424L67.0299 50.6647L67.1362 50.6172C66.6871 51.0531 66.2122 51.4616 65.714 51.8407C65.2021 52.2117 64.6499 52.5238 64.0677 52.7712C62.9092 53.2467 61.7018 53.5939 60.4672 53.8064C59.8486 53.917 59.2574 54.042 58.6612 54.2016C58.0681 54.3704 57.4761 54.5446 56.8912 54.7478C55.7165 55.1348 54.5544 55.5664 53.3934 55.999C48.7491 57.733 44.1666 59.6439 39.4517 61.2112C37.1023 62.0337 34.6963 62.6856 32.2525 63.1617C31.0116 63.4311 29.7269 63.4293 28.4867 63.1567C27.2318 62.8545 26.1011 62.1733 25.2491 61.2062C24.4213 60.2415 23.79 59.1252 23.3903 57.9198C22.9872 56.7322 22.7035 55.5075 22.5432 54.264C22.463 53.6474 22.3716 53.0395 22.3105 52.4123C22.2502 51.7916 22.2069 51.1721 22.1688 50.5527C22.0941 49.3136 22.043 48.0768 22.0069 46.836L22.465 47.0693C22.1485 47.2711 21.7906 47.3997 21.4178 47.4456C21.0711 47.4954 20.7201 47.5075 20.3709 47.4816C20.03 47.4615 19.6907 47.4203 19.3549 47.3583C19.0188 47.2986 18.686 47.2217 18.3578 47.1277L18.1528 47.0683L18.1391 46.8581C18.0978 46.2822 18.1827 45.7042 18.3878 45.1643C18.6126 44.646 18.9219 44.1683 19.3031 43.7506C19.6767 43.3449 20.0953 42.9827 20.5508 42.671C21.0011 42.3541 21.4804 42.0804 21.9824 41.8535L21.994 42.492C21.9678 42.4816 21.9427 42.4685 21.9192 42.4529C21.904 42.4429 21.8896 42.4317 21.8763 42.4194L21.8438 42.3861C21.8256 42.3669 21.8093 42.346 21.795 42.3238L21.747 42.2392C21.7233 42.1889 21.7108 42.1505 21.6931 42.1052C21.6658 42.0225 21.6478 41.9487 21.6283 41.8716C21.5986 41.7254 21.5716 41.5798 21.5556 41.4397C21.5181 41.1562 21.4945 40.8782 21.4802 40.6014C21.4457 40.0467 21.4407 39.4979 21.4388 38.9489C21.4424 37.8522 21.4769 36.7596 21.5298 35.669C21.5817 34.5784 21.6503 33.4897 21.7266 32.4019C21.7792 31.2759 22.004 30.1645 22.3933 29.1062C22.5999 28.5716 22.8652 28.0613 23.1842 27.5847C23.8428 26.6337 24.7251 25.8582 25.754 25.3261C26.2586 25.0588 26.7897 24.8443 27.3387 24.6861C28.4236 24.3732 29.5467 24.2115 30.676 24.2057C31.8007 24.1854 32.9242 24.2874 34.0266 24.51L34.2743 24.5613L34.3299 24.8128C34.7357 26.648 35.0698 28.4844 35.317 30.3467C35.4434 31.2762 35.5307 32.2138 35.5788 33.1594C35.6512 34.1251 35.5974 35.096 35.4188 36.0479L35.1005 35.5702C37.3177 35.965 39.5027 36.4527 41.6699 37.0623C42.7528 37.3654 43.8254 37.7177 44.8825 38.1283C45.9772 38.5163 47.0035 39.0744 47.9236 39.7817L47.4568 39.7554C48.2144 39.2509 48.9809 38.796 49.7656 38.3549C50.5508 37.919 51.3465 37.5003 52.1668 37.1274C52.9859 36.7456 53.8268 36.4122 54.6852 36.129C55.5545 35.8399 56.4521 35.644 57.3631 35.5447L57.0853 35.9719L53.4785 25.3541L53.338 24.9408L53.7642 25.0095C55.7892 25.3342 57.7907 25.7907 59.7558 26.3761C60.7411 26.6695 61.7077 27.0216 62.6507 27.4305C63.6109 27.8305 64.5101 28.3629 65.322 29.0121C66.8289 30.4803 67.7384 32.4521 67.8755 34.5484C67.9852 36.6053 67.6251 38.6602 66.8224 40.5581L66.7741 40.4432C67.1643 40.6285 67.5413 40.8401 67.9025 41.0765C68.2658 41.3091 68.6082 41.5725 68.9259 41.8639C69.2507 42.1508 69.53 42.485 69.7544 42.8552C69.9817 43.2279 70.1078 43.6531 70.1202 44.0891H70.0439C70.0229 43.6694 69.8929 43.2624 69.6665 42.908C69.4405 42.5518 69.1616 42.2319 68.8394 41.9591C68.1965 41.4076 67.4762 40.9527 66.7013 40.6088L66.6236 40.5731L66.653 40.4938C67.4037 38.6157 67.7174 36.5924 67.5704 34.5759C67.4725 33.5816 67.2088 32.6106 66.79 31.703C66.6832 31.4784 66.5594 31.2619 66.4453 31.0409L66.0414 30.4127C65.8884 30.2169 65.7458 30.009 65.5849 29.8231C65.4108 29.6522 65.2456 29.4737 65.0667 29.3078C64.2783 28.694 63.4079 28.1928 62.4807 27.8187C61.5497 27.4273 60.5959 27.0918 59.6247 26.8139C57.6764 26.2569 55.6937 25.8273 53.6893 25.5279L53.975 25.1834L57.6982 35.7611L57.8332 36.1447L57.4204 36.1885C56.5613 36.2931 55.7157 36.4882 54.8978 36.7704C54.0685 37.0543 53.2567 37.3866 52.4666 37.7656C51.6704 38.1379 50.8944 38.5571 50.1291 38.9929C49.3672 39.4311 48.6089 39.8956 47.8896 40.3829L47.6508 40.5446L47.4226 40.3566C46.5657 39.7092 45.6132 39.1983 44.5991 38.8422C43.5757 38.447 42.5248 38.1031 41.4578 37.8068C39.3267 37.2112 37.148 36.7292 34.9694 36.3457L34.5628 36.2741L34.651 35.8678C34.8099 34.9864 34.8551 34.0883 34.7857 33.1954C34.738 32.2823 34.6509 31.3649 34.5247 30.4504C34.2789 28.6224 33.9423 26.7929 33.5409 24.9937L33.8441 25.2963C31.7675 24.8561 29.6167 24.9038 27.5617 25.4356C27.0607 25.5769 26.5757 25.7699 26.1147 26.0113C25.1943 26.4809 24.4034 27.1684 23.8113 28.0135C23.5225 28.4415 23.2819 28.8999 23.0937 29.3804C22.727 30.3673 22.5138 31.4042 22.4614 32.4553C22.3802 33.5383 22.3065 34.6216 22.2498 35.7046C22.192 36.7877 22.1526 37.8708 22.1438 38.9505C22.1431 39.4895 22.1455 40.0295 22.1762 40.5613C22.1884 40.8276 22.2101 41.0926 22.2428 41.3486C22.2568 41.479 22.2797 41.6009 22.303 41.7216C22.3168 41.7763 22.3311 41.8351 22.3459 41.8815L22.3668 41.9373C22.3678 41.9386 22.3684 41.9402 22.3684 41.9419C22.3716 41.9489 22.3591 41.9276 22.3504 41.9199L22.3346 41.906L22.3012 41.8808C22.2812 41.8675 22.2596 41.8568 22.237 41.8489L22.2486 42.4875C21.7896 42.6936 21.3499 42.9403 20.935 43.2245C20.5175 43.5033 20.133 43.8285 19.789 44.1938C19.4559 44.5512 19.1835 44.9604 18.9826 45.4052C18.8103 45.8498 18.735 46.3258 18.7619 46.8017L18.5432 46.5322C18.8471 46.622 19.1555 46.6965 19.467 46.7552C19.7781 46.8162 20.0926 46.8578 20.4089 46.8799C20.7164 46.9065 21.026 46.8995 21.332 46.8592C21.6153 46.8289 21.8885 46.7372 22.1325 46.5905L22.5809 46.2934L22.5907 46.8239C22.6136 48.056 22.6517 49.2917 22.7129 50.5226C22.7443 51.138 22.7809 51.7531 22.8338 52.364C22.8858 52.9686 22.9717 53.5856 23.0446 54.1963C23.1877 55.4098 23.4513 56.6061 23.8316 57.7676C24.2 58.9218 24.7902 59.9935 25.5691 60.923C26.3568 61.8375 27.4088 62.4869 28.5809 62.7823C29.7694 63.0558 31.0031 63.0692 32.1973 62.8215C34.6307 62.3806 37.0267 61.7546 39.3642 60.9489C41.7174 60.1761 44.0432 59.3175 46.361 58.4381L53.3062 55.7693C54.4664 55.3298 55.6275 54.8912 56.8064 54.4957C57.3921 54.2886 57.9887 54.1091 58.5877 53.9352C59.1875 53.7706 59.8112 53.636 60.4125 53.5253C61.6241 53.312 62.8078 52.9637 63.9414 52.4868C64.4982 52.2414 65.0254 51.9339 65.5128 51.5702C65.9955 51.1918 66.455 50.7849 66.8888 50.3517L66.9325 50.3105L66.9953 50.304L69.5133 50.0468L69.5725 50.0407L69.6297 50.0713C69.9727 50.2557 70.3274 50.4179 70.6913 50.5568C71.0224 50.7042 71.3817 50.7779 71.7442 50.7729C71.9816 50.7748 71.9899 50.41 71.8295 50.1115C71.6455 49.7956 71.4007 49.5192 71.109 49.2981L70.3699 48.7078L71.3002 48.8875C71.6659 48.9626 72.0383 48.9998 72.4116 48.9983C72.5795 49.0002 72.7465 48.9744 72.9059 48.9218C73.0505 48.8576 73.066 48.8264 73.0648 48.7301C72.9646 48.4108 72.7848 48.1221 72.5422 47.8909L71.7164 47.0731L71.5697 46.9278L71.6887 46.7333C71.7704 46.5819 71.8033 46.409 71.7827 46.2382C71.7552 46.0482 71.6778 45.8688 71.5584 45.7183C71.4325 45.5492 71.2834 45.3986 71.1155 45.271C70.9385 45.1375 70.7531 45.0153 70.5606 44.9053L70.4434 44.836L70.4186 44.6849C70.3601 44.4206 70.242 44.1731 70.0731 43.9612C69.8953 43.7328 69.6811 43.5352 69.4389 43.3764C69.196 43.2226 68.9269 43.1146 68.6449 43.0576C68.503 43.0284 68.359 43.0108 68.2142 43.0051L67.7392 42.9958C66.4818 42.9496 65.2253 43.1071 64.0185 43.4623C63.7379 43.5567 63.4705 43.6863 63.2228 43.8481L63.0521 43.9733L62.864 44.1268L62.4836 44.4346C61.9745 44.8404 61.4592 45.2338 60.9413 45.6235C59.9049 46.4018 58.8595 47.1624 57.8044 47.915L57.7454 47.9572L57.6726 47.9711C54.8428 48.51 52.0048 48.9737 49.1537 49.3801C47.7287 49.5841 46.2997 49.7668 44.8651 49.9163C43.4265 50.0816 41.9805 50.1749 40.5325 50.1956L40.3902 50.1958L40.2989 50.0876L34.5254 43.2445C34.0823 42.6927 33.5113 42.2567 32.8616 41.9739C32.5329 41.834 32.1901 41.7299 31.839 41.6633C31.477 41.5833 31.114 41.5092 30.7503 41.444C30.0397 41.2953 29.314 41.2301 28.5882 41.25C28.4321 41.2554 28.2792 41.2961 28.1412 41.3692C27.9996 41.4393 27.9048 41.5342 27.9041 41.6055C27.9076 41.7295 27.96 41.8472 28.0499 41.933C28.1587 42.0571 28.2829 42.1669 28.4194 42.2598L29.5402 43.0236L28.2364 42.6546C27.7877 42.5154 27.3173 42.4587 26.8482 42.4873C26.6519 42.4938 26.466 42.5773 26.3311 42.7197C26.2352 42.8879 26.2071 43.0862 26.2527 43.2742L26.2559 43.2992L26.2564 43.3124C26.2614 43.3987 26.2791 43.4837 26.3091 43.5648C26.3391 43.6488 26.3832 43.7271 26.4393 43.7965C26.556 43.9367 26.7127 44.0383 26.8886 44.0878L27.6781 44.334L26.8606 44.4617C26.6053 44.4985 26.3577 44.5766 26.1275 44.6928C25.9105 44.811 25.7432 44.9737 25.7692 45.1701C25.7747 45.2226 25.7853 45.2744 25.801 45.3248L25.873 45.4853C25.9426 45.5929 26.0202 45.695 26.1053 45.7907C26.2908 45.9867 26.4907 46.1686 26.7034 46.3347L26.9089 46.5056L26.6682 46.6143C26.3758 46.7321 26.1182 46.9219 25.9194 47.166C25.833 47.2792 25.7893 47.4191 25.7958 47.5612C25.8024 47.7033 25.8588 47.8386 25.9552 47.9435C26.1716 48.1892 26.4246 48.4002 26.7054 48.5691C26.9862 48.7522 27.2844 48.9073 27.5957 49.032C27.915 49.1458 28.2436 49.2319 28.5778 49.2893C28.7625 49.3275 28.9353 49.4094 29.0817 49.5281C29.2246 49.6606 29.3285 49.7798 29.4509 49.9048L30.8718 51.392L30.9583 51.4826L30.8378 51.5144C30.3261 51.6513 29.8304 51.8422 29.3593 52.0838C28.8845 52.3211 28.4447 52.6221 28.0519 52.9785L27.9991 52.9236Z" fill="black"/>
<path d="M35.6295 46.9657C35.4334 47.4881 35.1479 47.9726 34.7857 48.3977C34.4387 48.8318 34.0282 49.2114 33.5679 49.5237C33.6259 49.2423 33.7295 48.9722 33.8746 48.7241C34.0101 48.4817 34.1667 48.2517 34.3425 48.0367C34.5189 47.8234 34.7126 47.6249 34.9216 47.4432C35.1342 47.252 35.3725 47.0913 35.6295 46.9657ZM26.6527 46.279L29.0076 46.9936C29.4044 47.1255 29.7775 47.3199 30.1127 47.5692L31.1398 48.2447L30.0633 47.6506C29.7225 47.435 29.3492 47.2752 28.9577 47.1773L26.5558 46.6473L26.6527 46.279ZM26.8703 44.0838L29.9836 44.7944C30.519 44.8989 31.02 45.1344 31.4415 45.4797L32.6974 46.4632L31.3848 45.5563C30.961 45.248 30.4666 45.0503 29.9466 44.9812L26.7963 44.4572L26.8703 44.0838ZM28.3387 42.257L29.904 42.6342C30.4282 42.767 30.9422 42.8698 31.4747 43.0273C31.7357 43.1165 31.9842 43.2386 32.214 43.3908C32.44 43.5472 32.6489 43.7077 32.8671 43.866L34.1635 44.8187L32.8128 43.9441C32.5881 43.8006 32.3618 43.6477 32.1383 43.5119C31.9122 43.3807 31.6701 43.2789 31.418 43.209C30.9137 43.0916 30.368 43.0134 29.845 42.9136L28.26 42.6295L28.3387 42.257ZM30.8636 51.6273L30.7746 51.2573C31.0734 51.1858 38.1191 49.5252 40.5459 49.6993L40.5173 50.0793C38.1418 49.8897 30.9358 51.6097 30.8636 51.6273ZM65.7746 45.3668C66.5591 45.0602 67.3648 44.8106 68.1854 44.6201C68.5993 44.5216 69.0197 44.4526 69.4435 44.4136C69.8807 44.3629 70.3233 44.3841 70.7537 44.4762L70.6454 44.8413C70.2599 44.7303 69.8589 44.6821 69.4579 44.6987C69.0435 44.7056 68.63 44.7418 68.2207 44.8072C67.3929 44.9346 66.5754 45.1217 65.7746 45.3668ZM66.7367 46.9657C67.5881 46.7827 68.4498 46.6512 69.3171 46.5718C69.754 46.5297 70.1931 46.5133 70.6319 46.5224C71.0834 46.5222 71.5327 46.5842 71.9671 46.7067L71.8372 47.0647C71.4433 46.9238 71.032 46.8372 70.6146 46.8074C70.1866 46.7672 69.7566 46.752 69.3268 46.7619C68.4601 46.7778 67.5952 46.8459 66.7367 46.9657ZM67.3781 48.8843C68.024 48.8127 68.6741 48.769 69.3277 48.761C69.9913 48.7385 70.6551 48.7954 71.305 48.9306L71.1936 49.2947C70.5851 49.1068 69.9564 48.9915 69.3206 48.9512C68.677 48.8961 68.0276 48.876 67.3781 48.8843ZM64.0337 45.5952C64.3816 45.6798 64.6909 45.8786 64.9119 46.1595C65.0355 46.3139 65.1209 46.4951 65.1612 46.6884C65.1857 46.8595 65.2004 47.0319 65.2052 47.2046C65.1976 47.4948 65.229 47.7846 65.2984 48.0665C65.4027 48.3551 65.5647 48.6195 65.7746 48.8438C65.595 48.8142 65.4238 48.7469 65.2723 48.6462C65.1208 48.5456 64.9925 48.414 64.8959 48.2602C64.7185 47.9432 64.6279 47.5852 64.6331 47.2222C64.6328 47.0635 64.6342 46.884 64.6262 46.7663C64.6165 46.6369 64.5848 46.5101 64.5323 46.3914C64.3962 46.1084 64.229 45.8414 64.0337 45.5952ZM21.9531 41.8242C22.1603 41.7662 22.3724 41.7272 22.5867 41.7076C22.7945 41.6856 23.0039 41.6833 23.2121 41.7009C23.6243 41.7177 24.016 41.8843 24.3136 42.1692C23.978 42.0074 23.594 41.9759 23.2364 42.0808C23.0619 42.1245 22.8921 42.1847 22.7292 42.2606C22.5707 42.3313 22.4191 42.4161 22.276 42.5141L21.9531 41.8242ZM22.2978 46.8286C22.6073 46.654 22.939 46.5219 23.2839 46.4358C23.6224 46.3455 23.9681 46.2845 24.3172 46.2536C24.6687 46.2241 25.0223 46.2293 25.3727 46.2692C25.7308 46.3046 26.0793 46.4048 26.4013 46.5648C25.692 46.6874 25.0426 46.7606 24.3652 46.8222C23.678 46.8925 22.9854 46.8947 22.2978 46.8286ZM69.5313 50.2432C69.7723 51.0805 69.928 51.9399 69.9961 52.8083C70.0772 53.6824 70.0661 54.5625 69.9631 55.4343C69.8786 56.3337 69.5842 57.2009 69.1033 57.9665C68.8453 58.3551 68.483 58.6636 68.0577 58.8567C67.6397 59.0291 67.1794 59.0719 66.7367 58.9796C67.158 58.9548 67.5667 58.8273 67.9271 58.6084C68.2626 58.386 68.537 58.0835 68.7256 57.7285C69.0938 56.9875 69.3209 56.1849 69.3955 55.3613C69.4969 54.5195 69.5489 53.6725 69.5512 52.8247C69.5598 51.9703 69.5453 51.1122 69.5313 50.2432ZM59.4982 35.6369C59.9929 36.1947 60.4391 36.7935 60.8321 37.4267C61.2323 38.0556 61.5902 38.7103 61.9035 39.3864C62.2236 40.0646 62.4786 40.7715 62.665 41.4977C62.8754 42.2235 62.932 42.985 62.8311 43.7337C62.7081 43.0136 62.5093 42.3083 62.2382 41.6296C61.9818 40.9521 61.6968 40.2838 61.3835 39.6246C60.7803 38.2959 60.1055 36.9979 59.4982 35.6369ZM32.2851 33.4898C32.397 34.1525 32.4713 34.821 32.5077 35.4921C32.5534 36.1596 32.5656 36.827 32.5713 37.4944C32.5663 38.1618 32.5541 38.8293 32.5086 39.4967C32.4723 40.1678 32.3977 40.8363 32.2851 41.499C32.1725 40.8363 32.0979 40.1678 32.0617 39.4967C32.0162 38.8293 32.0039 38.1618 31.9989 37.4944C32.0047 36.827 32.0169 36.1596 32.0625 35.4921C32.0989 34.821 32.1732 34.1525 32.2851 33.4898ZM34.4424 25.1081C34.1201 25.1081 33.927 25.0922 33.9174 25.0913L33.9518 24.7122C34.0005 24.7151 38.9568 25.1173 41.0726 21.5898C41.6304 20.6218 41.9156 19.5217 41.8982 18.4054V17.0449H42.2801V18.4054C42.2976 19.5904 41.9935 20.758 41.4 21.7848C39.5835 24.8151 35.8254 25.1081 34.4424 25.1081Z" fill="black"/>
<path d="M39.7426 24.9819C39.8911 24.9768 40.0317 24.9144 40.1349 24.8079C40.2381 24.7014 40.2958 24.559 40.2958 24.4109C40.2958 24.2628 40.2381 24.1205 40.1349 24.014C40.0317 23.9074 39.8911 23.845 39.7426 23.8399C39.5942 23.845 39.4535 23.9074 39.3503 24.014C39.2471 24.1205 39.1895 24.2628 39.1895 24.4109C39.1895 24.559 39.2471 24.7014 39.3503 24.8079C39.4535 24.9144 39.5942 24.9768 39.7426 24.9819ZM41.3232 26.6264C41.4716 26.6213 41.6123 26.5589 41.7155 26.4524C41.8187 26.3459 41.8764 26.2035 41.8764 26.0554C41.8764 25.9073 41.8187 25.765 41.7155 25.6585C41.6123 25.5519 41.4716 25.4895 41.3232 25.4844C41.1747 25.4895 41.0341 25.5519 40.9309 25.6585C40.8277 25.765 40.77 25.9073 40.77 26.0554C40.77 26.2035 40.8277 26.3459 40.9309 26.4524C41.0341 26.5589 41.1747 26.6213 41.3232 26.6264ZM43.213 28.2367C43.3614 28.2316 43.5021 28.1691 43.6053 28.0626C43.7085 27.9561 43.7662 27.8138 43.7662 27.6657C43.7662 27.5176 43.7085 27.3752 43.6053 27.2687C43.5021 27.1622 43.3614 27.0998 43.213 27.0947C43.0645 27.0998 42.9239 27.1622 42.8207 27.2687C42.7175 27.3752 42.6598 27.5176 42.6598 27.6657C42.6598 27.8138 42.7175 27.9561 42.8207 28.0626C42.9239 28.1691 43.0645 28.2316 43.213 28.2367ZM45.4464 30.3608C45.5948 30.3557 45.7355 30.2933 45.8387 30.1868C45.9419 30.0802 45.9996 29.9379 45.9996 29.7898C45.9996 29.6417 45.9419 29.4994 45.8387 29.3929C45.7355 29.2863 45.5948 29.2239 45.4464 29.2188C45.2979 29.2239 45.1573 29.2863 45.0541 29.3929C44.9509 29.4994 44.8932 29.6417 44.8932 29.7898C44.8932 29.9379 44.9509 30.0802 45.0541 30.1868C45.1573 30.2933 45.2979 30.3557 45.4464 30.3608ZM48.2295 31.9025C48.378 31.8974 48.5187 31.835 48.6219 31.7285C48.7251 31.622 48.7827 31.4796 48.7827 31.3315C48.7827 31.1834 48.7251 31.0411 48.6219 30.9346C48.5187 30.8281 48.378 30.7657 48.2295 30.7605C48.0811 30.7657 47.9405 30.8281 47.8373 30.9346C47.7341 31.0411 47.6764 31.1834 47.6764 31.3315C47.6764 31.4796 47.7341 31.622 47.8373 31.7285C47.9405 31.835 48.0811 31.8974 48.2295 31.9025ZM49.7414 30.0182C49.8898 30.0131 50.0305 29.9507 50.1337 29.8442C50.2369 29.7376 50.2946 29.5953 50.2946 29.4472C50.2946 29.2991 50.2369 29.1568 50.1337 29.0503C50.0305 28.9437 49.8898 28.8813 49.7414 28.8762C49.5929 28.8813 49.4523 28.9437 49.3491 29.0503C49.2459 29.1568 49.1882 29.2991 49.1882 29.4472C49.1882 29.5953 49.2459 29.7376 49.3491 29.8442C49.4523 29.9507 49.5929 30.0131 49.7414 30.0182ZM51.3219 27.6542C51.4704 27.6491 51.611 27.5867 51.7142 27.4802C51.8174 27.3737 51.8751 27.2313 51.8751 27.0832C51.8751 26.9351 51.8174 26.7928 51.7142 26.6863C51.611 26.5798 51.4704 26.5174 51.3219 26.5122C51.1735 26.5174 51.0328 26.5798 50.9296 26.6863C50.8264 26.7928 50.7688 26.9351 50.7688 27.0832C50.7688 27.2313 50.8264 27.3737 50.9296 27.4802C51.0328 27.5867 51.1735 27.6491 51.3219 27.6542ZM52.7307 25.0162C52.8792 25.0111 53.0198 24.9487 53.123 24.8421C53.2262 24.7356 53.2839 24.5933 53.2839 24.4452C53.2839 24.2971 53.2262 24.1548 53.123 24.0482C53.0198 23.9417 52.8792 23.8793 52.7307 23.8742C52.5823 23.8793 52.4416 23.9417 52.3384 24.0482C52.2352 24.1548 52.1775 24.2971 52.1775 24.4452C52.1775 24.5933 52.2352 24.7356 52.3384 24.8421C52.4416 24.9487 52.5823 25.0111 52.7307 25.0162ZM41.6324 7.93167C42.1339 7.75338 42.6584 7.64772 43.19 7.61791C43.7589 7.54204 44.3357 7.68097 44.8071 8.00742C45.162 8.44424 45.3824 8.97427 45.4415 9.53336C45.5372 10.0582 45.5272 10.5969 45.412 11.1179C45.3765 10.6027 45.2887 10.0925 45.15 9.59498C45.0853 9.35183 45.0041 9.11334 44.907 8.88113C44.8588 8.76848 44.8051 8.65832 44.7458 8.55105L44.6497 8.39965C44.6163 8.35352 44.5797 8.32621 44.5477 8.28635C44.1436 8.02789 43.6703 7.89796 43.1905 7.91377C42.6801 7.88961 42.1597 7.9074 41.6324 7.93167ZM45.2059 11.884C45.3826 12.0073 45.5423 12.1532 45.6808 12.318L45.8609 12.5243C45.9342 12.6028 46.0139 12.6751 46.0992 12.7405C46.0423 12.7763 45.978 12.7986 45.9111 12.8059C45.8443 12.8132 45.7766 12.8051 45.7133 12.7824C45.59 12.741 45.48 12.6675 45.3947 12.5696C45.3111 12.4783 45.2505 12.3686 45.2177 12.2494C45.1849 12.1303 45.1808 12.005 45.2059 11.884ZM47.8516 11.8031C47.9492 11.9629 47.9813 12.1541 47.9411 12.337C47.8991 12.5375 47.7791 12.7134 47.6074 12.826C47.4405 12.9257 47.2474 12.973 47.0531 12.9618C46.8736 12.9495 46.6999 12.8927 46.548 12.7966C46.7224 12.7373 46.8782 12.7045 47.0248 12.6661C47.1562 12.629 47.2823 12.5754 47.4001 12.5066C47.6293 12.3327 47.7893 12.0834 47.8516 11.8031ZM47.7141 8.03441C48.1922 7.76926 48.7287 7.62638 49.2757 7.61853C49.8288 7.58502 50.3779 7.73092 50.8409 8.03441C50.5641 8.02018 50.3094 8.00135 50.0523 7.99455C49.7953 7.99413 49.5415 7.9888 49.2855 7.99884C48.7722 8.0093 48.2614 8.04561 47.7141 8.03441ZM47.2041 9.26782C47.3388 9.45331 47.4274 9.66815 47.4623 9.89454C47.4972 10.1209 47.4775 10.3524 47.4049 10.5697C47.2278 10.4084 47.1144 10.1893 47.0851 9.95197C47.0438 9.71707 47.0859 9.47515 47.2041 9.26782Z" fill="black"/>
<path d="M43.2485 10.2496C43.3969 10.2445 43.5376 10.1821 43.6408 10.0755C43.744 9.96902 43.8017 9.8267 43.8017 9.67859C43.8017 9.53048 43.744 9.38816 43.6408 9.28164C43.5376 9.17511 43.3969 9.11271 43.2485 9.10758C43.1 9.11271 42.9594 9.17511 42.8562 9.28164C42.753 9.38816 42.6953 9.53048 42.6953 9.67859C42.6953 9.8267 42.753 9.96902 42.8562 10.0755C42.9594 10.1821 43.1 10.2445 43.2485 10.2496ZM49.1928 10.1811C49.3412 10.176 49.4819 10.1136 49.5851 10.007C49.6883 9.9005 49.7459 9.75818 49.7459 9.61007C49.7459 9.46196 49.6883 9.31964 49.5851 9.21312C49.4819 9.10659 49.3412 9.04419 49.1928 9.03906C49.0443 9.04419 48.9037 9.10659 48.8005 9.21312C48.6973 9.31964 48.6396 9.46196 48.6396 9.61007C48.6396 9.75818 48.6973 9.9005 48.8005 10.007C48.9037 10.1136 49.0443 10.176 49.1928 10.1811ZM44.4511 15.0918C44.7867 15.3322 45.145 15.5394 45.5208 15.7104C45.8779 15.8751 46.2633 15.9698 46.6562 15.9895C47.0451 16.0084 47.4323 15.9279 47.7811 15.7555C47.9646 15.6719 48.1409 15.5736 48.3084 15.4615C48.4792 15.3482 48.6338 15.2102 48.8148 15.0918C48.6989 15.2714 48.5703 15.4425 48.43 15.6038C48.2789 15.7618 48.1088 15.9004 47.9234 16.0165C47.5447 16.2667 47.096 16.3904 46.6421 16.3697C46.195 16.3467 45.7613 16.2098 45.3823 15.9722C45.0115 15.7496 44.6937 15.4492 44.4511 15.0918Z" fill="black"/>
<path d="M52.1914 9.06679C52.1957 9.15677 52.1957 9.25103 52.1957 9.34101L52.1055 9.0625C52.1055 9.0625 52.1355 9.0625 52.1914 9.06679Z" fill="white"/>
<path d="M41.3226 6.45605C41.5948 6.41848 41.8678 6.38815 42.1383 6.34474C42.405 6.28102 42.6774 6.24158 42.9383 6.15819C43.4644 6.01037 43.9724 5.8046 44.4528 5.54468C44.9264 5.2784 45.3622 4.95023 45.7486 4.56888C46.1325 4.1939 46.4481 3.75515 46.6811 3.27227L46.7691 3.08008L46.8671 3.26599C47.1213 3.7415 47.4292 4.18637 47.7851 4.59189C48.1324 4.99981 48.5432 5.34939 49.0018 5.62725C49.456 5.89281 49.9715 6.03652 50.498 6.04438C51.0235 6.0298 51.538 5.89096 51.9992 5.63928L52.2199 5.53968L52.2359 5.76933C52.3312 7.12975 52.3787 8.4883 52.3678 9.85175C52.3892 11.2232 52.2548 12.5926 51.9673 13.934C51.681 15.2912 51.1204 16.5761 50.3195 17.7101C49.9039 18.2817 49.3737 18.7608 48.7624 19.117C48.136 19.4615 47.4281 19.6314 46.7131 19.6091C46.0111 19.5803 45.3203 19.424 44.6746 19.1479C44.0207 18.887 43.4291 18.492 42.9382 17.9883C42.0087 16.9516 41.3864 15.6777 41.1407 14.3088C40.8673 12.9694 40.7651 11.6009 40.8365 10.2359C40.8885 8.8772 41.0511 7.52492 41.3226 6.19243C41.0953 7.52946 40.9773 8.88268 40.9695 10.2388C40.9468 11.5892 41.0806 12.9378 41.3682 14.2577C41.6272 15.5717 42.2465 16.7883 43.1574 17.7724C43.6266 18.2358 44.1847 18.5999 44.7984 18.843C45.4077 19.0999 46.0588 19.2439 46.7198 19.2679C47.3729 19.2851 48.0186 19.1264 48.5889 18.8086C49.154 18.4734 49.6432 18.0249 50.0253 17.4914C50.7838 16.3906 51.3205 15.1533 51.6055 13.8483C51.8948 12.5345 52.0341 11.1924 52.0206 9.84745C52.0396 8.49707 52.0004 7.14073 51.9142 5.79328L52.1508 5.92322C51.6404 6.1913 51.0728 6.33325 50.4959 6.33711C49.9202 6.31906 49.359 6.15237 48.8673 5.85333C48.3904 5.55324 47.9651 5.17853 47.6078 4.74359C47.2472 4.31752 46.9372 3.85137 46.6838 3.3544L46.8699 3.34822C46.62 3.85222 46.2776 4.30505 45.8603 4.68323C45.4528 5.06054 44.9964 5.3818 44.5034 5.63844C44.0092 5.88572 43.4888 6.07732 42.9521 6.20968C42.687 6.28491 42.4117 6.31588 42.1426 6.37101C41.8699 6.40582 41.5955 6.42739 41.3226 6.45605ZM53.9729 159.495C54.6415 161.888 55.0294 164.35 55.1288 166.833C55.1913 168.08 55.1582 169.331 55.0298 170.573C54.9012 171.824 54.6688 173.062 54.3352 174.274L54.3454 174.095C54.512 174.724 54.7871 175.32 55.1584 175.856C55.5236 176.396 55.9887 176.862 56.5288 177.228C56.66 177.323 56.7983 177.407 56.9425 177.481C57.0798 177.567 57.2249 177.639 57.3759 177.698L57.825 177.884L58.2965 178.014L58.5313 178.082L58.7749 178.121L59.2618 178.199C59.59 178.232 59.9245 178.232 60.2549 178.252L60.4027 178.261L60.5019 178.317C61.2218 178.72 61.9159 179.135 62.6039 179.604C62.9629 179.843 63.3033 180.109 63.6222 180.4L64.4892 181.247L64.4513 181.213L65.9052 182.384C66.1464 182.575 66.3961 182.772 66.6271 182.939C66.8607 183.076 67.1066 183.192 67.3618 183.284C68.5084 183.756 69.6771 184.213 70.8397 184.667L70.8984 184.69L70.969 184.738C71.6099 185.176 72.3094 185.522 73.047 185.765C73.7409 186.014 74.491 186.063 75.2114 185.906C75.8971 185.715 76.4845 185.272 76.8554 184.665C77.2676 184.011 77.5635 183.29 77.7303 182.535L77.9082 183.074L75.2481 180.789L75.3055 180.831L72.7087 179.164L72.6836 179.148L72.6693 179.136L69.2778 176.407L69.3039 176.426C68.5979 175.906 67.9441 175.32 67.3515 174.675C66.7619 174.037 66.2325 173.348 65.7701 172.613C65.3019 171.882 64.9213 171.098 64.636 170.278C64.356 169.458 64.1765 168.607 64.1015 167.744L64.1 167.731L64.1004 167.72L64.2324 164.415C64.2713 163.313 64.3351 162.212 64.3871 161.11C64.4132 162.213 64.4511 163.315 64.4641 164.418L64.5184 167.725L64.5173 167.701C64.6351 168.518 64.8514 169.318 65.1617 170.083C65.4634 170.85 65.851 171.58 66.3173 172.259C66.7805 172.941 67.3058 173.579 67.8864 174.165C68.4597 174.747 69.0872 175.274 69.7603 175.738L69.7721 175.746L69.7865 175.757L73.2669 178.372L73.2275 178.345L75.8534 179.966L75.8799 179.983L75.9109 180.008L78.6109 182.246L78.8647 182.456L78.7888 182.785C78.6031 183.67 78.2607 184.514 77.7776 185.278C77.2591 186.112 76.4465 186.722 75.4995 186.988C74.574 187.205 73.6059 187.156 72.707 186.848C71.846 186.575 71.0322 186.172 70.2944 185.652L70.4235 185.723C69.2561 185.26 68.095 184.799 66.9291 184.31L66.4881 184.12C66.4044 184.081 66.3494 184.06 66.2423 184.005C66.1496 183.957 66.0613 183.901 65.9785 183.838C65.7036 183.637 65.4641 183.444 65.2152 183.246L63.7552 182.052L63.7347 182.035L63.7172 182.017L62.8735 181.163C62.6003 180.908 62.3089 180.673 62.0014 180.461C61.367 180.012 60.6861 179.587 60.0081 179.192L60.2549 179.256C59.8833 179.23 59.5115 179.222 59.1412 179.177L58.5868 179.079L58.3102 179.029L58.0387 178.947L57.4976 178.779L56.9784 178.545C56.8043 178.468 56.6371 178.377 56.4787 178.273C56.3129 178.18 56.1541 178.075 56.0036 177.959C55.3912 177.512 54.8693 176.953 54.4657 176.311C54.0551 175.675 53.762 174.971 53.6004 174.232L53.582 174.148L53.6106 174.053C53.9726 172.892 54.2377 171.703 54.4033 170.498C54.5638 169.285 54.6523 168.063 54.6683 166.839C54.6818 165.61 54.6295 164.38 54.5116 163.156C54.3955 161.927 54.2157 160.705 53.9729 159.495Z" fill="black"/>
<path d="M53.9735 174.163C53.9735 174.163 51.9222 174.574 52.1031 175.26C52.284 175.945 51.8717 182.18 53.6584 182.866C55.4451 183.551 57.6442 183.071 58.8811 183.277C60.2013 183.487 61.4379 184.056 62.4546 184.921C63.7603 185.949 68.8455 189.169 73.381 188.827C77.9165 188.484 80.9402 187.799 81.2151 184.579C81.49 181.358 78.6037 178.823 74.4806 178.275C74.4806 178.275 74.3064 174.93 66.6625 173.313C66.6625 173.313 62.4546 172.587 60.2555 178.754L63.2792 180.81C63.2792 180.81 64.4474 174.78 69.5327 176.082L72.9687 178.754C70.3998 179.705 68.1417 181.34 66.4403 183.482L70.6322 185.195C70.6322 185.195 72.4793 181.015 75.5801 180.399L78.2602 182.66C78.2602 182.66 77.3212 187.988 72.6023 186.215L53.9735 174.163Z" fill="black"/>
<path d="M34.8944 164.842C34.9172 164.843 36.0864 152.415 36.0885 152.438C36.1858 153.477 35.1485 166.962 35.3181 167.988C35.4669 169.008 35.6987 170.015 36.0111 170.998C36.0917 171.235 36.1871 171.466 36.2969 171.691C36.3502 171.804 36.41 171.903 36.4723 172.012C36.5396 172.131 36.6138 172.248 36.6735 172.371C36.9252 172.856 37.1227 173.367 37.2623 173.894C37.5543 174.944 37.6609 176.037 37.5774 177.124C37.5369 177.679 37.4261 178.226 37.2476 178.752C37.0701 179.311 36.7607 179.82 36.3454 180.235C36.1254 180.451 35.8677 180.626 35.5848 180.749C35.4436 180.813 35.2967 180.863 35.1461 180.898L34.7455 180.977C34.2605 181.097 33.7887 181.265 33.3372 181.479C32.3234 181.852 31.2622 182.082 30.1846 182.161C29.1268 182.266 28.0715 182.297 27.0187 182.301C24.9131 182.304 22.816 182.233 20.7179 182.17C19.6691 182.137 18.6206 182.095 17.5726 182.042C16.5235 182.008 15.4755 181.956 14.4269 181.908C10.2319 181.724 6.0459 181.393 1.86807 180.999L1.85128 180.997C1.75544 180.988 1.66567 180.946 1.59705 180.879C1.52842 180.812 1.48511 180.723 1.47442 180.628C1.46073 180.517 1.46172 180.406 1.47738 180.296C1.4881 180.206 1.505 180.118 1.52795 180.031C1.57052 179.869 1.62942 179.712 1.70376 179.562C1.77008 179.416 1.8493 179.277 1.94048 179.146C2.02307 179.014 2.11545 178.889 2.21684 178.772C2.59934 178.314 3.04165 177.909 3.53198 177.567C4.47743 176.912 5.49042 176.36 6.55367 175.92C7.08011 175.708 7.60877 175.501 8.14236 175.315C8.6768 175.14 9.21738 174.949 9.74645 174.788C10.8084 174.455 11.8729 174.133 12.9269 173.784C15.0381 173.127 17.0914 172.297 19.066 171.303C20.0368 170.802 20.92 170.148 21.6814 169.366C23.6158 167.93 25.448 155.32 25.4919 154.211C25.6189 154.182 25.7488 154.166 25.8792 154.164C25.9022 154.165 23.0293 166.407 23.0308 166.43C23.0707 167.58 22.6845 168.704 21.9459 169.589C21.2077 170.459 20.3246 171.196 19.3353 171.767C17.3819 172.887 15.3241 173.815 13.191 174.539C12.1381 174.921 11.0833 175.293 10.0219 175.642C9.48614 175.813 8.97842 176.003 8.45554 176.182C7.94003 176.371 7.43235 176.579 6.92876 176.791C5.93058 177.205 4.97826 177.722 4.08717 178.332C3.6593 178.624 3.26968 178.968 2.92734 179.356C2.8444 179.448 2.76896 179.545 2.70175 179.649C2.63144 179.744 2.57047 179.846 2.51969 179.953C2.46781 180.051 2.42623 180.153 2.3956 180.26C2.38187 180.307 2.37137 180.355 2.36417 180.404C2.3552 180.441 2.3576 180.513 2.35272 180.488L1.95917 180.116C6.12422 180.577 10.2914 181.017 14.4607 181.436C15.504 181.529 16.5475 181.626 17.5921 181.706C18.6371 181.78 19.683 181.836 20.7291 181.887C22.8198 181.998 24.9148 181.997 27.0054 181.885C28.0479 181.826 29.0886 181.736 30.1116 181.581C31.1231 181.451 32.1126 181.186 33.0538 180.794C33.5436 180.547 34.0575 180.35 34.5874 180.207L34.7991 180.167L34.9579 180.133C35.0622 180.108 35.1637 180.073 35.2611 180.028C35.459 179.94 35.6388 179.816 35.7911 179.663C36.4166 178.933 36.7769 178.015 36.8139 177.055C36.9046 176.054 36.8304 175.044 36.5941 174.067C36.4766 173.58 36.3141 173.105 36.1087 172.648C36.0602 172.533 35.9988 172.425 35.9438 172.314C35.8819 172.193 35.8139 172.063 35.7618 171.937C35.6546 171.685 35.5633 171.428 35.4885 171.165C35.2094 170.14 35.0306 169.091 34.9544 168.033C34.8714 166.983 36.063 153.487 36.0885 152.438" fill="#020202"/>
<path d="M26.8941 182.492C25.049 182.492 23.1847 182.436 21.3799 182.382L20.7117 182.362C19.6616 182.329 18.6119 182.286 17.5627 182.233C16.6976 182.205 15.8297 182.165 14.9617 182.124L14.4178 182.099C10.6941 181.937 6.70014 181.647 1.84955 181.189C1.70731 181.178 1.57327 181.118 1.47026 181.02C1.36726 180.921 1.30166 180.79 1.28462 180.649C1.26985 180.536 1.26971 180.421 1.2842 180.308C1.29056 180.227 1.30375 180.147 1.32365 180.069L1.34044 179.995C1.38686 179.815 1.45214 179.64 1.53518 179.473C1.60441 179.321 1.68715 179.176 1.7824 179.039C1.86153 178.913 1.95005 178.792 2.04723 178.679C2.44629 178.197 2.90864 177.771 3.42178 177.413C4.3772 176.749 5.40196 176.19 6.47811 175.747C6.91839 175.569 7.49465 175.34 8.07931 175.136C8.26985 175.074 8.45791 175.01 8.6455 174.947C8.99554 174.83 9.34558 174.712 9.69058 174.607L10.6009 174.324C11.3585 174.088 12.1148 173.853 12.8661 173.604C14.9668 172.949 17.0102 172.123 18.9758 171.136C19.9295 170.647 20.7961 170.006 21.5411 169.237C21.9814 168.91 22.4254 167.944 22.8464 166.648C22.8464 166.579 22.8443 166.51 22.8401 166.442C22.8376 166.407 22.8376 166.407 23.6657 162.863C23.9855 161.494 24.3716 159.842 24.7204 158.345C25.0667 156.307 25.2824 154.67 25.3009 154.204C25.3101 154.022 25.4872 154.006 25.6585 153.989C25.7655 153.979 25.8755 153.975 25.8885 153.975L25.977 153.98L26.0303 154.05C26.0828 154.117 26.0937 154.132 25.0893 158.445C24.6537 161.245 24.0317 164.013 23.2275 166.731C23.1884 167.821 22.7901 168.868 22.0943 169.709C21.3426 170.596 20.4435 171.346 19.4363 171.929C17.4718 173.055 15.4027 173.989 13.2577 174.718C11.9856 175.179 11.0064 175.52 10.0813 175.824C9.73928 175.933 9.41022 176.049 9.08117 176.165C8.89398 176.232 8.70678 176.298 8.51749 176.363C7.96264 176.567 7.41617 176.794 7.00276 176.968C6.01661 177.374 5.0764 177.884 4.19785 178.488C3.78262 178.771 3.40446 179.104 3.07218 179.481L3.04364 179.515C2.97797 179.587 2.91844 179.665 2.86568 179.747C2.8049 179.829 2.75113 179.917 2.70494 180.008C6.3434 180.408 10.2043 180.814 14.4799 181.248L15.0281 181.297C15.8872 181.374 16.7464 181.451 17.6063 181.517C18.7488 181.598 19.8803 181.657 20.7382 181.698C22.822 181.808 24.9102 181.808 26.994 181.696C28.1918 181.628 29.1732 181.532 30.0826 181.394C31.0777 181.268 32.0509 181.009 32.9757 180.622C33.0894 180.573 33.2019 180.522 33.3178 180.469C33.7096 180.274 34.1223 180.124 34.5479 180.022L34.9173 179.948C35.0066 179.926 35.0936 179.896 35.1771 179.857C35.3565 179.779 35.5193 179.667 35.6568 179.528C36.2515 178.831 36.5922 177.953 36.6234 177.039C36.7113 176.058 36.6387 175.069 36.4085 174.112C36.2934 173.637 36.1347 173.173 35.9342 172.727C35.9019 172.65 35.8663 172.581 35.8306 172.513L35.7487 172.353C35.6917 172.241 35.6321 172.124 35.5851 172.009C35.4752 171.752 35.3816 171.487 35.3047 171.218C35.0221 170.182 34.841 169.12 34.7641 168.049C34.7414 167.762 34.8086 166.607 34.9207 165.033C34.9107 165.034 34.9008 165.034 34.8909 165.034L34.8942 164.843L34.7074 164.807C34.7423 164.592 35.3278 158.419 35.6426 155.103C35.7618 153.845 35.8285 153.142 35.8809 152.748C35.8902 152.602 35.8961 152.495 35.8973 152.434L35.933 152.435C35.9754 152.249 36.0174 152.248 36.0866 152.248H36.262L36.2784 152.421C36.3242 152.908 36.1403 155.845 35.928 159.244C35.6887 163.076 35.4172 167.42 35.5061 167.958C35.6533 168.968 35.8824 169.964 36.1911 170.937C36.2693 171.166 36.3618 171.39 36.4681 171.608C36.5101 171.697 36.555 171.774 36.6016 171.855L36.6994 172.025C36.7502 172.112 36.8009 172.199 36.845 172.289C37.1018 172.785 37.3035 173.307 37.4465 173.846C37.7443 174.918 37.8528 176.033 37.7671 177.141C37.7262 177.712 37.6123 178.274 37.428 178.815C37.2418 179.404 36.9153 179.939 36.4765 180.374C36.2401 180.606 35.9632 180.793 35.6593 180.926C35.5091 180.993 35.353 181.046 35.193 181.084L34.7817 181.164C34.435 181.241 34.0979 181.355 33.7765 181.505C33.6569 181.555 33.5343 181.607 33.4076 181.657C32.3776 182.037 31.2992 182.271 30.2039 182.352C29.2734 182.444 28.2913 182.487 27.0192 182.492H26.8941ZM26.3623 182.11C26.5814 182.111 26.8022 182.112 27.0179 182.111C28.2774 182.106 29.2482 182.064 30.1653 181.973C31.2251 181.895 32.2687 181.67 33.2657 181.303C33.3908 181.254 33.5112 181.203 33.6283 181.154C33.9748 180.992 34.3387 180.87 34.7129 180.79L35.1095 180.713C35.2448 180.68 35.3768 180.635 35.5036 180.578C35.7674 180.463 36.0077 180.301 36.2125 180.099C36.6071 179.705 36.9003 179.222 37.067 178.69C37.2408 178.179 37.3483 177.648 37.3869 177.11C37.4685 176.045 37.3639 174.974 37.0779 173.944C36.9415 173.43 36.7491 172.932 36.5042 172.46C36.4618 172.374 36.4157 172.296 36.3699 172.217L36.2704 172.045C36.2188 171.955 36.1693 171.868 36.124 171.773C36.0111 171.542 35.913 171.304 35.8301 171.061C35.5291 170.124 35.3048 169.166 35.1594 168.193C35.2391 169.181 35.4107 170.158 35.6719 171.114C35.7447 171.369 35.8332 171.619 35.9372 171.863C35.9817 171.97 36.0366 172.078 36.0887 172.18L36.1693 172.338C36.21 172.416 36.2503 172.494 36.2847 172.576C36.4939 173.042 36.6596 173.526 36.7795 174.023C37.0197 175.021 37.0954 176.052 37.0037 177.074C36.9609 178.077 36.5811 179.037 35.9254 179.798C35.756 179.969 35.556 180.107 35.3357 180.204C35.2299 180.252 35.1197 180.29 35.0067 180.318L34.6226 180.395C34.226 180.492 33.8415 180.633 33.4764 180.815C33.3572 180.87 33.2414 180.923 33.1285 180.971C32.1734 181.371 31.168 181.64 30.1401 181.77C29.2184 181.91 28.2258 182.007 27.0162 182.076C26.8005 182.089 26.5825 182.1 26.3623 182.11ZM1.70013 180.135L1.69552 180.157C1.68178 180.207 1.6725 180.258 1.66781 180.309C1.65309 180.408 1.65181 180.508 1.66404 180.607C1.6699 180.659 1.69343 180.707 1.7307 180.744C1.76797 180.781 1.81673 180.803 1.86885 180.809C6.72952 181.267 10.7172 181.556 14.435 181.719L14.9793 181.744C15.5099 181.769 16.0404 181.793 16.5709 181.815C16.045 181.77 15.5194 181.724 14.994 181.676L14.4434 181.626C10.1258 181.189 6.23216 180.779 2.56347 180.376C2.55949 180.387 2.55654 180.399 2.55466 180.412L2.53745 180.65L2.36704 180.684L2.19916 180.695L2.17734 180.585L1.70013 180.135ZM1.76687 179.905L1.98008 179.928C2.08669 179.94 2.19357 179.952 2.30074 179.964C2.31671 179.927 2.33465 179.892 2.35446 179.858C2.40796 179.745 2.47234 179.638 2.54669 179.538C2.60767 179.443 2.67646 179.353 2.75235 179.269L2.78088 179.235C3.13399 178.834 3.53581 178.479 3.97706 178.177C4.87766 177.558 5.84151 177.035 6.8525 176.618C7.27137 176.441 7.82328 176.213 8.38947 176.004C8.58128 175.939 8.76722 175.873 8.95357 175.807C9.28596 175.689 9.61879 175.571 9.9638 175.462C10.883 175.16 11.8588 174.82 13.1259 174.361C15.2467 173.641 17.2927 172.718 19.2356 171.605C20.0627 171.118 20.8202 170.522 21.4878 169.833C20.7872 170.479 20.0034 171.03 19.1571 171.471C17.1723 172.469 15.1088 173.303 12.9874 173.965C12.2332 174.215 11.4743 174.451 10.7143 174.687L9.80348 174.971C9.46016 175.075 9.11389 175.192 8.76763 175.308C8.57878 175.372 8.3899 175.435 8.20187 175.496C7.62854 175.697 7.05774 175.923 6.62501 176.098C5.57479 176.531 4.57478 177.076 3.64255 177.724C3.1658 178.055 2.73559 178.449 2.36328 178.894C2.26843 179.004 2.18187 179.121 2.10432 179.243C2.01705 179.369 1.9412 179.502 1.87767 179.641C1.83358 179.725 1.79652 179.814 1.76687 179.905Z" fill="black"/>
<path d="M31.8196 170.654C31.9937 170.994 32.084 171.37 32.0832 171.751C32.089 172.143 32.0023 172.532 31.8301 172.885C31.6573 173.241 31.392 173.545 31.0619 173.765C30.7466 173.982 30.3838 174.12 30.0039 174.169C30.3004 173.967 30.5805 173.743 30.8415 173.497C31.0857 173.266 31.2855 172.992 31.4311 172.689C31.7165 172.05 31.8495 171.353 31.8196 170.654Z" fill="#020202"/>
<path d="M29.2891 174.47L30.1004 173.861C30.3151 173.715 30.5167 173.549 30.7026 173.368C30.9329 173.15 31.1213 172.893 31.2583 172.608C31.5342 171.995 31.6609 171.326 31.6281 170.655L31.6323 169.906L31.9874 170.566C32.1763 170.932 32.2744 171.338 32.2736 171.749C32.2795 172.171 32.1864 172.589 32.0016 172.969C31.8135 173.358 31.524 173.689 31.1635 173.927C30.8262 174.159 30.438 174.307 30.0315 174.359L29.2891 174.47ZM31.8862 171.96C31.8263 172.243 31.7304 172.517 31.6008 172.776C31.4748 173.038 31.3108 173.28 31.114 173.494C31.3425 173.303 31.5283 173.067 31.6592 172.801C31.7869 172.537 31.8639 172.252 31.8862 171.96Z" fill="black"/>
<path d="M36.144 179.79C36.144 179.79 38.6732 180.665 37.2758 185.245C37.2758 185.245 37.4804 186.949 31.3925 186.629L0.739402 186.669C0.739402 186.669 -1.52957 181.668 3.18289 180.688L10.8781 181.398C10.8781 181.398 8.9634 176.831 9.49742 175.34C10.3175 174.007 11.5581 172.982 13.0249 172.426C14.4917 171.87 16.1019 171.815 17.6034 172.27C17.6034 172.27 17.287 179.597 22.9513 182.101C22.9513 182.101 31.283 181.683 36.144 179.79Z" fill="#020202"/>
<path d="M0.616182 186.859L0.565394 186.747C0.518806 186.645 -0.559851 184.222 0.389555 182.359C0.875161 181.406 1.80146 180.78 3.14328 180.501L3.17139 180.495L3.19994 180.498L10.5831 181.179C10.1654 180.132 8.83916 176.611 9.31764 175.276C10.1601 173.903 11.4339 172.846 12.9411 172.269C14.4483 171.692 16.1045 171.627 17.6522 172.085L17.8004 172.125L17.7937 172.277C17.7907 172.349 17.5528 179.469 22.9867 181.909C23.6566 181.871 31.4821 181.401 36.0742 179.612L36.1396 179.587L36.206 179.61C36.3163 179.648 38.882 180.595 37.4668 185.27C37.4519 185.496 37.353 185.708 37.1893 185.865C36.676 186.412 35.2536 187.023 31.3822 186.819L0.616182 186.859ZM3.19362 180.88C1.98611 181.137 1.15719 181.692 0.729926 182.531C-0.0289131 184.02 0.671586 185.991 0.866333 186.479L31.3919 186.438C35.2649 186.641 36.4955 186.019 36.8859 185.63C36.942 185.585 36.9886 185.529 37.0228 185.466C37.0571 185.402 37.0783 185.333 37.0852 185.261L37.0835 185.228L37.0928 185.189C38.3087 181.206 36.5119 180.163 36.1413 179.995C31.2974 181.854 23.0438 182.287 22.9607 182.291L22.9154 182.294L22.8738 182.275C17.6182 179.951 17.4071 173.501 17.41 172.416C15.9654 172.017 14.4298 172.095 13.0333 172.639C11.6368 173.182 10.4546 174.163 9.66387 175.433C9.17364 176.809 11.0351 181.279 11.0539 181.324L11.1761 181.617L3.19362 180.88Z" fill="black"/>
<path d="M20.1455 170.655C20.1455 170.655 19.4586 178.632 25.6892 182.302L30.185 182.163C30.185 182.163 24.2215 178.592 22.3898 168.943C22.3898 168.943 21.1301 170.777 20.1455 170.655Z" fill="#020202"/>
<path d="M25.6399 182.495L25.5924 182.467C19.3308 178.778 19.9482 170.72 19.9553 170.639L19.9721 170.442L20.1694 170.466C20.8841 170.549 21.9007 169.32 22.2327 168.836L22.492 168.458L22.5776 168.908C24.3702 178.352 30.2244 181.965 30.2831 182L30.838 182.333L25.6399 182.495ZM20.3259 170.848C20.2759 172.031 20.2428 178.834 25.7389 182.11L29.6053 181.991C28.1623 180.909 23.8796 177.128 22.2864 169.402C21.8805 169.915 21.0851 170.786 20.3259 170.848ZM53.6407 144.918C53.8857 149.842 54.1536 154.766 54.4444 159.69C53.4647 159.33 52.5436 158.827 51.7109 158.199L50.1036 101.837L50.2927 102.587C50.4216 103.187 50.5548 103.787 50.6537 104.396C50.86 105.608 51.0233 106.83 51.1608 108.051C51.4488 110.494 51.668 112.949 51.87 115.405C52.2525 120.316 52.5662 125.231 52.8413 130.151C53.1292 135.07 53.3785 139.994 53.6407 144.918ZM50.0864 87.3439C50.082 88.0897 50.052 88.8352 50.0434 89.581C50.0606 91.0765 49.9059 92.5636 49.8801 94.0635C49.8801 94.0635 49.8801 96.9046 49.7597 100.822C49.605 105.955 49.244 112.945 48.4145 117.817C46.9446 126.405 46.7641 158.014 46.7641 158.014C32.1042 162.767 20.5602 159.296 20.5602 159.296C21.1061 151.985 25.232 103.106 25.232 103.106C24.3638 89.9066 26.5428 76.3049 28.0471 68.8611C29.0653 68.6116 30.0537 68.2538 30.9954 67.794C31.9409 67.3403 32.8492 66.813 33.7116 66.217C34.5697 65.6076 35.3684 64.9189 36.0969 64.16C36.8236 63.3953 37.428 62.5238 37.8891 61.5759C37.1456 62.3173 36.415 63.0158 35.637 63.6715C34.8463 64.3099 34.0511 64.9356 33.2131 65.5142C31.5498 66.6841 29.8135 67.7468 28.0471 68.8611C28.7734 65.2786 29.3407 63.1229 29.3407 63.1229C32.8117 62.7092 36.2418 62.0069 39.5954 61.0231C42.1513 60.2726 44.6564 59.3594 47.0951 58.2891C47.2885 58.319 47.4819 58.3533 47.6753 58.379C47.8988 59.8618 48.1351 61.3359 48.32 62.8229C48.5219 64.3014 48.6982 65.7842 48.8787 67.2626C49.2182 70.2281 49.5019 73.198 49.7038 76.172C49.7769 77.1148 49.8328 78.0618 49.8801 79.0046C49.8684 79.001 49.8569 78.9967 49.8457 78.9918C49.5767 78.8902 49.297 78.8197 49.0119 78.7817C48.4746 78.6995 47.9306 78.6679 47.3873 78.6874C46.8566 78.7016 46.3271 78.7459 45.8014 78.8203C45.277 78.8894 44.7574 78.991 44.2456 79.1246C45.2986 79.1889 46.343 79.2274 47.3658 79.326C47.8684 79.3704 48.3678 79.4449 48.8615 79.5488C49.2425 79.6171 49.6054 79.763 49.9273 79.9774C50.0004 81.6872 50.0491 83.3971 50.0735 85.107L50.0864 87.3439ZM62.6231 61.6616C61.9933 60.9866 61.4372 60.2468 60.9642 59.4547C62.8989 59.4769 64.8314 59.3176 66.7362 58.979C67.9227 60.8726 68.803 62.9406 69.3449 65.1071C69.0312 65.0427 68.7217 64.9871 68.4166 64.91L67.7505 64.7257C67.6387 64.6914 67.527 64.6743 67.4195 64.6358L67.1015 64.52C66.8866 64.4385 66.6717 64.37 66.4611 64.2972L65.8508 64.0143C65.6441 63.9284 65.4444 63.8267 65.2534 63.71C65.0561 63.609 64.8652 63.4959 64.6818 63.3715C63.923 62.8944 63.2308 62.3195 62.6231 61.6616Z" fill="black"/>
<path d="M76.4498 158.563C65.125 162.527 57.9992 161.121 54.4449 159.694V159.69C54.4921 154.753 54.4463 149.821 54.3073 144.892C54.1827 139.96 53.9721 135.032 53.7014 130.103C53.5509 127.639 53.3919 125.18 53.2071 122.715C53.0051 120.256 52.8031 117.796 52.5366 115.34C52.2745 112.885 51.9693 110.434 51.5782 107.991C51.3762 106.774 51.1484 105.557 50.8777 104.353C50.6774 103.418 50.4161 102.498 50.0955 101.597L49.8806 94.0634C50.3706 91.1021 50.6592 88.1112 50.7444 85.1111C50.7874 84.3612 50.7831 83.6112 50.7831 82.8613C50.7788 82.1113 50.8003 81.3614 50.7702 80.6115L50.7487 80.0287C51.1691 79.7212 51.6068 79.4379 52.0596 79.1802C52.5693 78.8928 53.096 78.6367 53.6369 78.4131C54.735 77.9493 55.9057 77.6796 57.0966 77.616C56.4952 77.4601 55.8733 77.398 55.2529 77.4317C54.6263 77.466 54.006 77.5738 53.4048 77.7531C52.8055 77.9334 52.2242 78.1687 51.6685 78.456C51.3418 78.6317 51.0238 78.8116 50.7143 79.013L50.6929 78.3616C50.6585 77.6117 50.6069 76.8617 50.5596 76.1118C50.3447 73.1206 50.0181 70.1337 49.541 67.1725C49.083 64.2091 48.4603 61.2734 47.6758 58.3789C52.0676 59.1061 56.5127 59.4659 60.9647 59.4545C61.1392 60.4051 61.5287 61.3035 62.1036 62.0814C62.6707 62.8821 63.389 63.5648 64.2181 64.0914C65.0441 64.6178 65.963 64.9828 66.9257 65.1669C67.3986 65.2622 67.879 65.3153 68.3612 65.3255C68.7061 65.3277 69.0508 65.3062 69.3927 65.2613C72.8052 77.5517 72.4828 99.0601 72.7837 109.045C73.1533 121.104 76.4498 158.563 76.4498 158.563Z" fill="black"/>
<path d="M69.792 65.2185C69.6588 65.2356 69.5255 65.2528 69.3923 65.2614C69.3751 65.2099 69.3622 65.1584 69.345 65.1113C69.4911 65.1414 69.6416 65.1756 69.792 65.2185ZM50.1036 101.837L50.0649 101.691L49.7598 100.822C49.8847 101.074 49.9966 101.333 50.095 101.597L50.1036 101.837Z" fill="white"/>
<path d="M151.672 88.0331H87.2012V3.02539H151.672V88.0331ZM88.4863 86.7516H150.386V4.30682H88.4863V86.7516Z" fill="black"/>
<path d="M116.25 34.4308H94.1758V10.4531H116.25V34.4308ZM95.5088 33.1017H114.917V11.7823H95.5088V33.1017Z" fill="black"/>
<path d="M110.227 19.3125L110.958 21.5752C110.944 21.5716 110.93 21.5702 110.915 21.5709C110.613 21.5633 110.319 21.6671 110.09 21.8624C110.111 21.7252 110.124 21.5924 110.137 21.4724C110.206 20.791 110.227 20.0282 110.227 19.3125Z" fill="black"/>
<path d="M115.246 32.0584L111.373 31.2355C111.373 31.2355 109.242 29.937 108.902 25.356V25.2317C109.272 24.6427 109.559 24.0052 109.753 23.3376C109.833 23.5781 109.99 23.786 110.199 23.9298C110.409 24.0736 110.659 24.1455 110.913 24.1346C112.448 24.1346 112.559 21.932 111.249 21.6149C112.486 19.365 110.604 19.1336 110.226 19.1121C110.217 17.7709 110.135 16.6566 110.135 16.6566C107.694 17.9508 106.173 14.8053 106.173 14.8053C106.173 14.8053 105.318 16.9181 102.094 17.1623V16.9652C101.78 18.6273 101.705 20.3257 101.871 22.009C101.768 21.8808 101.639 21.7759 101.492 21.7013C101.345 21.6266 101.184 21.584 101.02 21.5762L101.819 19.1078C101.819 19.1078 99.378 19.125 100.715 21.5891C99.262 21.7776 99.3221 24.1346 100.908 24.1346C101.178 24.146 101.444 24.0639 101.66 23.9022C101.876 23.7405 102.03 23.5092 102.094 23.2476C102.223 23.7661 102.415 24.2669 102.666 24.7389V26.1016C102.68 26.9623 102.46 27.8108 102.03 28.5571C100.379 31.3084 96.5673 30.9613 96.5673 30.9613L94.543 30.7384C94.543 30.7384 99.507 17.2566 100.315 15.9581C101.123 14.6597 105.52 10.73 110.23 14.454C110.23 14.454 112.542 16.2066 115.246 32.0584Z" fill="black"/>
<path d="M96.9456 31.1146C96.7047 31.1146 96.5603 31.1025 96.5527 31.1021L96.5787 30.8183C96.6136 30.8213 100.323 31.1222 101.906 28.4819C102.323 27.7578 102.537 26.9348 102.524 26.0998V25.082H102.809V26.0998C102.822 26.9864 102.595 27.86 102.151 28.6283C100.792 30.8953 97.9802 31.1146 96.9456 31.1146Z" fill="black"/>
<path d="M100.91 31.0211C101.021 31.0173 101.126 30.9706 101.203 30.8909C101.281 30.8112 101.324 30.7047 101.324 30.5939C101.324 30.4831 101.281 30.3766 101.203 30.2969C101.126 30.2173 101.021 30.1706 100.91 30.1667C100.799 30.1706 100.694 30.2173 100.616 30.2969C100.539 30.3766 100.496 30.4831 100.496 30.5939C100.496 30.7047 100.539 30.8112 100.616 30.8909C100.694 30.9706 100.799 31.0173 100.91 31.0211ZM102.092 32.2514C102.203 32.2476 102.309 32.2009 102.386 32.1212C102.463 32.0415 102.506 31.935 102.506 31.8242C102.506 31.7134 102.463 31.6069 102.386 31.5272C102.309 31.4475 102.203 31.4009 102.092 31.397C101.981 31.4009 101.876 31.4475 101.799 31.5272C101.722 31.6069 101.679 31.7134 101.679 31.8242C101.679 31.935 101.722 32.0415 101.799 32.1212C101.876 32.2009 101.981 32.2476 102.092 32.2514ZM103.506 33.456C103.617 33.4522 103.722 33.4055 103.8 33.3258C103.877 33.2461 103.92 33.1397 103.92 33.0289C103.92 32.9181 103.877 32.8116 103.8 32.7319C103.722 32.6522 103.617 32.6055 103.506 32.6017C103.395 32.6055 103.29 32.6522 103.213 32.7319C103.135 32.8116 103.092 32.9181 103.092 33.0289C103.092 33.1397 103.135 33.2461 103.213 33.3258C103.29 33.4055 103.395 33.4522 103.506 33.456ZM109.573 33.0203C109.684 33.0165 109.789 32.9698 109.866 32.8901C109.943 32.8104 109.987 32.7039 109.987 32.5931C109.987 32.4823 109.943 32.3759 109.866 32.2962C109.789 32.2165 109.684 32.1698 109.573 32.166C109.462 32.1698 109.356 32.2165 109.279 32.2962C109.202 32.3759 109.159 32.4823 109.159 32.5931C109.159 32.7039 109.202 32.8104 109.279 32.8901C109.356 32.9698 109.462 33.0165 109.573 33.0203ZM110.627 31.0467C110.738 31.0429 110.843 30.9962 110.92 30.9165C110.997 30.8368 111.04 30.7304 111.04 30.6196C111.04 30.5087 110.997 30.4023 110.92 30.3226C110.843 30.2429 110.738 30.1962 110.627 30.1924C110.516 30.1962 110.41 30.2429 110.333 30.3226C110.256 30.4023 110.213 30.5087 110.213 30.6196C110.213 30.7304 110.256 30.8368 110.333 30.9165C110.41 30.9962 110.516 31.0429 110.627 31.0467ZM102.324 18.2655C102.699 18.1329 103.091 18.0539 103.489 18.0308C103.915 17.974 104.346 18.0779 104.699 18.3222C104.964 18.6489 105.129 19.0455 105.173 19.4637C105.244 19.8565 105.237 20.2593 105.151 20.6491C105.126 20.2636 105.06 19.8819 104.955 19.5099C104.907 19.3279 104.846 19.1495 104.773 18.9758C104.713 18.8116 104.622 18.6606 104.505 18.5309C104.202 18.3375 103.848 18.2403 103.489 18.2521C103.108 18.2362 102.718 18.2435 102.324 18.2655ZM104.997 21.2223C105.129 21.3146 105.249 21.4238 105.352 21.547C105.444 21.6639 105.549 21.77 105.665 21.8631C105.623 21.8895 105.575 21.906 105.525 21.9114C105.475 21.9168 105.424 21.9111 105.377 21.8945C105.285 21.8634 105.202 21.8085 105.138 21.7352C105.076 21.6669 105.031 21.5848 105.006 21.4957C104.981 21.4066 104.978 21.3129 104.997 21.2223ZM106.976 21.1618C107.049 21.2816 107.073 21.4244 107.043 21.5611C107.012 21.7112 106.922 21.8427 106.794 21.927C106.669 22.0016 106.524 22.037 106.379 22.0287C106.245 22.0187 106.115 21.9762 106.001 21.905C106.222 21.8598 106.436 21.7869 106.639 21.688C106.81 21.558 106.93 21.3715 106.976 21.1618ZM106.874 18.3424C107.231 18.1441 107.633 18.0372 108.042 18.0312C108.456 18.0062 108.866 18.1153 109.213 18.3424C108.826 18.3133 108.437 18.3045 108.049 18.3158C107.665 18.3237 107.283 18.3504 106.874 18.3424ZM106.492 19.265C106.593 19.4038 106.659 19.5646 106.685 19.734C106.711 19.9033 106.697 20.0765 106.642 20.2391C106.51 20.1184 106.425 19.9545 106.403 19.7769C106.372 19.6011 106.404 19.4202 106.492 19.265Z" fill="black"/>
<path d="M103.533 19.9994C103.644 19.9955 103.749 19.9489 103.827 19.8692C103.904 19.7895 103.947 19.683 103.947 19.5722C103.947 19.4614 103.904 19.3549 103.827 19.2752C103.749 19.1955 103.644 19.1488 103.533 19.145C103.422 19.1488 103.317 19.1955 103.24 19.2752C103.162 19.3549 103.119 19.4614 103.119 19.5722C103.119 19.683 103.162 19.7895 103.24 19.8692C103.317 19.9489 103.422 19.9955 103.533 19.9994ZM107.98 19.9481C108.091 19.9443 108.196 19.8976 108.274 19.8179C108.351 19.7382 108.394 19.6317 108.394 19.5209C108.394 19.4101 108.351 19.3036 108.274 19.224C108.196 19.1443 108.091 19.0976 107.98 19.0938C107.869 19.0976 107.764 19.1443 107.687 19.224C107.609 19.3036 107.566 19.4101 107.566 19.5209C107.566 19.6317 107.609 19.7382 107.687 19.8179C107.764 19.8976 107.869 19.9443 107.98 19.9481ZM104.433 23.6219C104.683 23.8024 104.951 23.9575 105.233 24.0847C105.5 24.2079 105.788 24.2787 106.082 24.2934C106.373 24.3077 106.663 24.2474 106.924 24.1184C107.2 23.9831 107.46 23.8165 107.697 23.6219C107.609 23.7552 107.513 23.8831 107.409 24.0049C107.296 24.1232 107.169 24.2269 107.03 24.3137C106.747 24.5009 106.411 24.5935 106.072 24.5779C105.744 24.5535 105.425 24.4546 105.141 24.289C104.857 24.1233 104.615 23.8951 104.433 23.6219Z" fill="black"/>
<path d="M110.16 19.1074C110.16 19.1074 110.182 19.1074 110.225 19.1117V19.3089L110.16 19.1074Z" fill="white"/>
<path d="M102.093 17.1605L102.703 17.0772C102.903 17.0295 103.107 17 103.302 16.9376C103.695 16.827 104.075 16.6731 104.435 16.4787C104.789 16.2794 105.115 16.0339 105.404 15.7486C105.691 15.4681 105.928 15.1398 106.102 14.7785L106.168 14.6348L106.241 14.7739C106.431 15.1297 106.662 15.4625 106.928 15.7659C107.188 16.071 107.495 16.3326 107.838 16.5404C108.178 16.739 108.563 16.8465 108.957 16.8524C109.35 16.8415 109.735 16.7377 110.08 16.5494L110.246 16.4749L110.258 16.6467C110.329 17.6643 110.364 18.6804 110.356 19.7002C110.372 20.726 110.271 21.7502 110.055 22.7532C109.84 23.7679 109.42 24.7285 108.822 25.5768C108.507 26.0007 108.112 26.3591 107.659 26.6319C107.423 26.755 107.173 26.8481 106.913 26.9091C106.783 26.9343 106.654 26.9718 106.522 26.9858L106.125 26.9911L105.926 26.9931L105.732 26.9599L105.344 26.8917C105.092 26.8249 104.844 26.7444 104.6 26.6506C104.109 26.4596 103.666 26.1648 103.3 25.7865C102.606 25.0108 102.14 24.0579 101.957 23.034C101.752 22.0322 101.676 21.0086 101.729 19.9876C101.768 18.9713 101.89 17.9598 102.093 16.9631C101.923 17.9632 101.835 18.9754 101.829 19.9897C101.812 20.9998 101.912 22.0084 102.127 22.9956C102.32 23.9785 102.783 24.8887 103.464 25.625C103.814 25.9731 104.232 26.2447 104.693 26.4224C104.924 26.51 105.161 26.5851 105.4 26.6475L105.764 26.7091L105.946 26.7398L106.129 26.7359L106.495 26.7296C106.616 26.716 106.733 26.6798 106.851 26.6567C107.087 26.5998 107.315 26.514 107.529 26.4013C107.948 26.1441 108.312 25.8085 108.602 25.413C108.894 25.0111 109.136 24.5746 109.321 24.1136C109.514 23.6521 109.669 23.1757 109.785 22.6892C110.002 21.7068 110.107 20.7029 110.096 19.697C110.111 18.6869 110.081 17.6724 110.017 16.6645L110.194 16.7618C109.812 16.9624 109.387 17.0686 108.956 17.0714C108.525 17.058 108.105 16.9333 107.737 16.7095C107.381 16.485 107.062 16.2047 106.795 15.8792C106.525 15.5605 106.293 15.2118 106.104 14.84L106.243 14.8354C106.056 15.2124 105.8 15.5512 105.488 15.8342C105.183 16.1164 104.841 16.3568 104.473 16.5488C104.103 16.7338 103.714 16.8771 103.312 16.9761C103.114 17.0324 102.908 17.0555 102.707 17.0969L102.093 17.1605Z" fill="black"/>
<path d="M102.095 23.2463C101.994 22.8386 101.919 22.425 101.871 22.0078L102.095 23.2463Z" fill="white"/>
<path d="M144.19 25.5703H122.406V26.8679H144.19V25.5703Z" fill="black"/>
<path d="M144.174 18.3945H122.391V19.6921H144.174V18.3945Z" fill="black"/>
<path d="M144.19 33.0938H122.406V34.3913H144.19V33.0938Z" fill="black"/>
<path d="M144.188 11.3145H122.377V12.612H144.188V11.3145Z" fill="black"/>
<path d="M144.188 80.0703H118.363V81.3679H144.188V80.0703Z" fill="black"/>
<path d="M144.175 72.8945H118.35V74.1921H144.175V72.8945Z" fill="black"/>
<path d="M144.188 65.8145H118.336V67.112H144.188V65.8145Z" fill="black"/>
<path d="M103.439 63.016C102.18 63.0169 100.935 63.2804 99.7832 63.7894C98.6439 64.2978 97.6164 65.0254 96.7597 65.9304C95.0595 67.7385 94.0948 70.1127 94.0533 72.5909C94.0256 73.8302 94.245 75.0627 94.6987 76.2169C95.1524 77.3711 95.8314 78.4239 96.6964 79.3144C97.577 80.1995 98.6288 80.8969 99.788 81.3643C100.947 81.8318 102.189 82.0595 103.44 82.0337C105.931 81.9748 108.302 80.9538 110.054 79.1861C111.782 77.4226 112.752 75.0563 112.756 72.5908C112.754 70.1185 111.809 67.7396 110.113 65.9366C109.259 65.0302 108.233 64.3018 107.094 63.7938C105.943 63.2845 104.699 63.0197 103.439 63.016ZM103.439 62.9571C106.016 62.9459 108.501 63.9132 110.388 65.6624C111.335 66.5472 112.088 67.6178 112.601 68.8069C113.116 70.0033 113.383 71.291 113.387 72.593C113.39 73.8949 113.13 75.1842 112.622 76.3835C112.114 77.58 111.375 78.6653 110.447 79.5779C109.524 80.484 108.429 81.1966 107.225 81.6738C106.022 82.151 104.734 82.383 103.44 82.3563C100.858 82.299 98.3972 81.259 96.5609 79.4495C95.6471 78.5543 94.9103 77.4957 94.3892 76.3289C93.8688 75.1495 93.5875 73.8791 93.5614 72.5909C93.5435 71.2973 93.7952 70.0141 94.3006 68.8225C94.806 67.631 95.554 66.5571 96.4974 65.6689C98.3821 63.9187 100.864 62.9492 103.439 62.9571Z" fill="black"/>
<path d="M103.438 77.7843C102.043 77.7938 100.693 77.2915 99.645 76.373C99.1149 75.8978 98.6945 75.3135 98.4128 74.6605C98.1311 74.0075 97.9948 73.3014 98.0134 72.5908C98.0387 71.8856 98.2047 71.1924 98.5019 70.552C98.7989 69.9238 99.2077 69.3545 99.7085 68.8718C100.709 67.8939 102.038 67.3215 103.438 67.2656C104.148 67.2382 104.857 67.355 105.52 67.6091C106.183 67.8631 106.788 68.2491 107.297 68.7434C107.815 69.2425 108.226 69.8404 108.507 70.5014C108.788 71.1624 108.933 71.873 108.932 72.591C108.931 73.3055 108.78 74.012 108.488 74.6646C108.196 75.3172 107.77 75.9014 107.238 76.3795C106.187 77.297 104.835 77.7971 103.438 77.7843ZM103.438 77.7254C104.107 77.7183 104.767 77.5702 105.374 77.291C105.982 77.0118 106.523 76.6078 106.963 76.1053C107.825 75.1365 108.301 73.8863 108.302 72.591C108.299 71.3028 107.798 70.0654 106.904 69.1354C105.988 68.1989 104.749 67.6457 103.438 67.5883C102.773 67.5618 102.11 67.6743 101.491 67.9187C100.872 68.163 100.311 68.5337 99.844 69.007C99.3919 69.4848 99.0404 70.0481 98.8105 70.6637C98.5805 71.2793 98.4767 71.9346 98.5052 72.5909C98.5454 73.8918 99.0415 75.1376 99.9073 76.1116C100.349 76.6135 100.891 77.0168 101.5 77.2949C102.108 77.5731 102.769 77.7198 103.438 77.7254Z" fill="black"/>
<path d="M103.197 77.7482C102.088 77.6983 101.024 77.2924 100.164 76.5909L97.349 80.0309C97.3694 80.0475 97.39 80.0639 97.4106 80.0804C97.5399 80.1839 97.6717 80.284 97.8059 80.3809L97.8063 80.3811C99.2058 81.3872 100.851 81.9998 102.569 82.1549C102.59 82.1567 102.61 82.1586 102.631 82.1603C102.673 82.1639 102.716 82.1671 102.758 82.1701C102.798 82.1728 102.837 82.1754 102.877 82.1776C102.907 82.1793 102.937 82.1812 102.967 82.1827L102.99 82.1836L103.197 77.7482ZM98.2598 72.5901C98.2584 71.6716 98.504 70.7696 98.9708 69.9778L95.1296 67.7321C94.3767 69.0128 93.9317 70.4501 93.8297 71.9311L93.8264 71.9819C93.8213 72.0623 93.8173 72.1429 93.8143 72.2236C93.8134 72.2479 93.8123 72.2721 93.8115 72.2965C93.8086 72.3928 93.8067 72.4893 93.8067 72.5859L93.8066 72.5901L93.8067 72.597C93.8068 72.6859 93.8081 72.7747 93.8108 72.8633C93.8114 72.8859 93.8126 72.9083 93.8133 72.9308C93.8159 73.0024 93.8189 73.0739 93.8231 73.1454C93.8242 73.1645 93.8255 73.1834 93.8267 73.2025C93.8318 73.2826 93.8377 73.3627 93.8448 73.4426L93.847 73.4665C93.9612 74.7102 94.3177 75.9199 94.8964 77.0276L98.8451 74.9764C98.4595 74.2398 98.2586 73.421 98.2598 72.5901ZM113.07 72.5326C113.07 72.4552 113.068 72.378 113.066 72.3009C113.065 72.2667 113.064 72.2326 113.062 72.1985C113.059 72.1252 113.055 72.0521 113.051 71.9791C113.049 71.9556 113.048 71.9321 113.046 71.9087C112.954 70.6284 112.606 69.3795 112.022 68.2354C111.438 67.0914 110.63 66.0755 109.647 65.2474L109.632 65.2353C109.133 64.8167 108.592 64.4499 108.018 64.1406L105.901 68.0463C106.535 68.3879 107.09 68.8574 107.531 69.4249C107.972 69.9923 108.29 70.6453 108.464 71.3421C108.638 72.0389 108.665 72.7641 108.542 73.4717C108.419 74.1792 108.149 74.8534 107.75 75.4512L111.458 77.9112C112.307 76.6381 112.84 75.181 113.011 73.6613L113.013 73.6435C113.018 73.5964 113.023 73.5493 113.027 73.5022C113.03 73.4711 113.033 73.44 113.036 73.4088C113.039 73.3746 113.042 73.3405 113.044 73.3062C113.049 73.2371 113.054 73.1678 113.057 73.0983C113.058 73.0839 113.059 73.0694 113.059 73.055C113.063 72.9891 113.065 72.9231 113.067 72.857L113.068 72.8251C113.07 72.747 113.071 72.6687 113.071 72.5902C113.071 72.5709 113.07 72.5518 113.07 72.5326Z" fill="black"/>
<path d="M144.189 39.4219H102.562V41.0571H144.189V39.4219Z" fill="black"/>
<path d="M127.677 44.0195H102.562V45.6548H127.677V44.0195Z" fill="black"/>
<path d="M138.055 48.6172H102.562V50.2524H138.055V48.6172Z" fill="black"/>
<path d="M122.995 53.2168H102.562V54.852H122.995V53.2168Z" fill="black"/>
<path d="M134.22 57.8145H102.562V59.4497H134.22V57.8145Z" fill="black"/>
<path d="M98.8116 41.0784C98.2466 41.1514 97.6107 41.2019 96.9609 41.2262C96.3028 41.2443 95.6442 41.2166 94.99 41.1432L94.906 41.1363L94.9107 41.0641C94.9406 40.5154 94.9301 39.9653 94.8793 39.4181L94.8711 39.3191L94.99 39.3077C95.6245 39.2467 96.2591 39.231 96.8936 39.2124C97.5281 39.1931 98.1627 39.204 98.7972 39.2452L98.9765 39.2569L98.9707 39.4181C98.9492 40.0099 98.8686 40.5848 98.8116 41.0784ZM98.783 41.0499C98.7259 40.4462 98.6454 39.9237 98.6239 39.4181L98.7972 39.591C98.1627 39.6324 97.5282 39.6433 96.8936 39.6238C96.2591 39.6052 95.6245 39.5894 94.99 39.5284L95.1006 39.4181C95.0497 39.9653 95.0393 40.5154 95.0692 41.0641L94.99 40.9852C95.5992 40.9122 96.213 40.8844 96.8263 40.9021C97.4457 40.9264 98.0788 40.9769 98.783 41.0499ZM98.8116 45.6765C98.2466 45.7494 97.6107 45.8 96.9609 45.8242C96.3028 45.8424 95.6442 45.8146 94.99 45.7412L94.906 45.7344L94.9107 45.6621C94.9406 45.1134 94.9301 44.5633 94.8793 44.0161L94.8711 43.9173L94.99 43.9057C95.6245 43.8449 96.2591 43.8291 96.8936 43.8104C97.5281 43.7911 98.1627 43.802 98.7972 43.8432L98.9765 43.8549L98.9707 44.0161C98.9492 44.6079 98.8686 45.1828 98.8116 45.6765ZM98.783 45.6479C98.7259 45.0442 98.6454 44.5217 98.6239 44.0161L98.7972 44.189C98.1627 44.2304 97.5282 44.2413 96.8936 44.2218C96.2591 44.2032 95.6245 44.1874 94.99 44.1264L95.1006 44.0161C95.0497 44.5633 95.0393 45.1134 95.0692 45.6621L94.99 45.5832C95.5992 45.5102 96.213 45.4824 96.8263 45.5002C97.4457 45.5244 98.0788 45.575 98.783 45.6479ZM98.8116 50.2746C98.2466 50.3475 97.6107 50.3982 96.9609 50.4223C96.3028 50.4405 95.6442 50.4128 94.99 50.3394L94.906 50.3326L94.9107 50.2603C94.9406 49.7116 94.9301 49.1614 94.8793 48.6142L94.8711 48.5154L94.99 48.504C95.6245 48.443 96.2591 48.4272 96.8936 48.4085C97.5281 48.3892 98.1627 48.4001 98.7972 48.4413L98.9765 48.453L98.9707 48.6142C98.9492 49.2061 98.8686 49.7809 98.8116 50.2746ZM98.783 50.246C98.7259 49.6424 98.6454 49.1199 98.6239 48.6142L98.7972 48.7872C98.1627 48.8286 97.5282 48.8395 96.8936 48.8199C96.2591 48.8013 95.6245 48.7855 94.99 48.7246L95.1006 48.6142C95.0497 49.1614 95.0393 49.7116 95.0692 50.2603L94.99 50.1813C95.5992 50.1083 96.213 50.0806 96.8263 50.0983C97.4457 50.1225 98.0788 50.1731 98.783 50.246ZM98.8116 54.8727C98.2466 54.9456 97.6107 54.9963 96.9609 55.0204C96.3028 55.0386 95.6442 55.0109 94.99 54.9375L94.906 54.9307L94.9107 54.8584C94.9406 54.3097 94.9301 53.7596 94.8793 53.2124L94.8711 53.1135L94.99 53.102C95.6245 53.0411 96.2591 53.0253 96.8936 53.0066C97.5281 52.9873 98.1627 52.9982 98.7972 53.0394L98.9765 53.0511L98.9707 53.2124C98.9492 53.8042 98.8686 54.379 98.8116 54.8727ZM98.783 54.8441C98.7259 54.2405 98.6454 53.718 98.6239 53.2124L98.7972 53.3853C98.1627 53.4267 97.5282 53.4376 96.8936 53.418C96.2591 53.3994 95.6245 53.3837 94.99 53.3227L95.1006 53.2124C95.0497 53.7596 95.0393 54.3097 95.0692 54.8584L94.99 54.7794C95.5992 54.7064 96.213 54.6787 96.8263 54.6964C97.4457 54.7206 98.0788 54.7712 98.783 54.8441ZM98.8116 59.4708C98.2466 59.5438 97.6107 59.5944 96.9609 59.6185C96.3028 59.6367 95.6442 59.609 94.99 59.5356L94.906 59.5288L94.9107 59.4565C94.9406 58.9078 94.9301 58.3577 94.8793 57.8105L94.8711 57.7115L94.99 57.7001C95.6245 57.6391 96.2591 57.6233 96.8936 57.6047C97.5281 57.5854 98.1627 57.5963 98.7972 57.6375L98.9765 57.6492L98.9707 57.8105C98.9492 58.4023 98.8686 58.9771 98.8116 59.4708ZM98.783 59.4424C98.7259 58.8386 98.6454 58.3161 98.6239 57.8105L98.7972 57.9834C98.1627 58.0248 97.5282 58.0357 96.8936 58.0161C96.2591 57.9975 95.6245 57.9818 94.99 57.9208L95.1006 57.8105C95.0497 58.3577 95.0393 58.9078 95.0692 59.4565L94.99 59.3775C95.5992 59.3046 96.213 59.2769 96.8263 59.2945C97.4457 59.3188 98.0788 59.3693 98.783 59.4424ZM144.203 45.6709L133.863 45.7745C130.402 45.8018 126.94 45.8472 123.455 45.8476L118.234 45.8617L113.006 45.8474L102.562 45.7805L102.437 45.7797L102.438 45.6567L102.452 44.0216L102.453 43.911L102.562 43.9113C106.031 43.9234 109.5 43.9689 112.969 43.9536C116.438 43.9498 119.907 43.8909 123.376 43.8609L128.579 43.8405L133.782 43.862L138.986 43.9014C140.72 43.9146 142.455 43.9386 144.189 43.9735L144.238 43.9744L144.237 44.0216L144.203 45.6709ZM144.175 45.6425L144.141 44.0216L144.189 44.0698C142.455 44.1022 140.72 44.1262 138.986 44.1418L133.782 44.1813L128.579 44.2028L123.376 44.1823C119.907 44.1524 116.438 44.0935 112.969 44.0897C109.5 44.0743 106.031 44.1198 102.562 44.1319L102.673 44.0217L102.686 45.6567L102.562 45.533L112.933 45.466L118.111 45.4518L123.296 45.4659C126.749 45.4663 130.225 45.5116 133.702 45.539L144.175 45.6425ZM144.203 50.269L133.863 50.3726C130.402 50.3999 126.94 50.4453 123.455 50.4458L118.234 50.4598L113.006 50.4455L102.562 50.3786L102.437 50.3779L102.438 50.2548L102.452 48.6198L102.453 48.509L102.562 48.5094C106.031 48.5215 109.5 48.567 112.969 48.5517C116.438 48.5478 119.907 48.489 123.376 48.4591L128.579 48.4386L133.782 48.4601L138.986 48.4995C140.72 48.5127 142.455 48.5367 144.189 48.5715L144.238 48.5725L144.237 48.6198L144.203 50.269ZM144.175 50.2406L144.141 48.6198L144.189 48.6679C142.455 48.7003 140.72 48.7243 138.986 48.7399L133.782 48.7794L128.579 48.8009L123.376 48.7804C119.907 48.7504 116.438 48.6916 112.969 48.6877C109.5 48.6724 106.031 48.7179 102.562 48.73L102.673 48.6198L102.686 50.2548L102.562 50.1311L112.933 50.0641L118.111 50.0499L123.296 50.064C126.749 50.0644 130.225 50.1097 133.702 50.1371L144.175 50.2406ZM144.203 54.8672L133.863 54.9706C130.402 54.998 126.94 55.0433 123.455 55.0438L118.234 55.0579L113.006 55.0437L102.562 54.9767L102.437 54.9759L102.438 54.8529L102.452 53.2179L102.453 53.1071L102.562 53.1075C106.031 53.1196 109.5 53.1651 112.969 53.1499C116.438 53.1459 119.907 53.0871 123.376 53.0572L128.579 53.0367L133.782 53.0581L138.986 53.0977C140.72 53.1109 142.455 53.1349 144.189 53.1697L144.238 53.1706L144.237 53.2179L144.203 54.8672ZM144.175 54.8387L144.141 53.2179L144.189 53.266C142.455 53.2984 140.72 53.3224 138.986 53.338L133.782 53.3774L128.579 53.3989L123.376 53.3785C119.907 53.3486 116.438 53.2898 112.969 53.2858C109.5 53.2705 106.031 53.316 102.562 53.3282L102.673 53.2179L102.686 54.8529L102.562 54.7292L112.933 54.6622L118.111 54.648L123.296 54.6621C126.749 54.6625 130.225 54.7078 133.702 54.7352L144.175 54.8387ZM144.203 59.4653L133.863 59.5687C130.402 59.5961 126.94 59.6415 123.455 59.6419L118.234 59.656L113.006 59.6418L102.562 59.5748L102.437 59.574L102.438 59.4509L102.452 57.816L102.453 57.7052L102.562 57.7056C106.031 57.7177 109.5 57.7632 112.969 57.7479C116.438 57.744 119.907 57.6851 123.376 57.6553L128.579 57.6348L133.782 57.6562L138.986 57.6958C140.72 57.709 142.455 57.733 144.189 57.7678L144.238 57.7687L144.237 57.816L144.203 59.4653ZM144.175 59.4368L144.141 57.816L144.189 57.864C142.455 57.8965 140.72 57.9206 138.986 57.9361L133.782 57.9755L128.579 57.997L123.376 57.9766C119.907 57.9467 116.438 57.8877 112.969 57.8839C109.5 57.8686 106.031 57.9141 102.562 57.9262L102.673 57.816L102.686 59.4509L102.562 59.3273L112.933 59.2603L118.111 59.2461L123.296 59.2602C126.749 59.2605 130.225 59.3059 133.702 59.3333L144.175 59.4368Z" fill="black"/>
</svg>
