<svg width="32" height="32" viewBox="0 0 32 32" fill="none" xmlns="http://www.w3.org/2000/svg">
<path fill-rule="evenodd" clip-rule="evenodd" d="M26.5791 2C28.4672 2 30 3.53289 30 5.42092V26.5791C30 28.4671 28.4671 30 26.5791 30H20.7566V19.45H24.3988L25.0918 14.9316H20.7566V11.9994C20.7566 10.7633 21.3622 9.55841 23.304 9.55841H25.275V5.7117C25.275 5.7117 23.4862 5.40643 21.776 5.40643C18.2055 5.40643 15.8719 7.57036 15.8719 11.4879V14.9316H11.9031V19.45H15.8719V30H5.42092C3.53289 30 2 28.4671 2 26.5791V5.42092C2 3.53289 3.53284 2 5.42092 2L26.5791 2Z" fill="#6C5B51"/>
</svg>
