<svg width="32" height="32" viewBox="0 0 32 32" fill="none" xmlns="http://www.w3.org/2000/svg">
<path d="M16.9735 15.2964V15.2529C16.9645 15.2676 16.9549 15.2823 16.9453 15.2964H16.9735Z" fill="#6C5B51"/>
<path d="M27.8078 2.63379H4.03344C2.89552 2.63379 1.97266 3.53464 1.97266 4.6449V28.6975C1.97266 29.8072 2.89552 30.7081 4.03344 30.7081H27.8078C28.9474 30.7081 29.8703 29.8067 29.8703 28.6975V4.6449C29.8703 3.53408 28.9468 2.63379 27.8078 2.63379ZM10.4286 26.1355H6.21501V13.4587H10.4286V26.1355ZM8.32208 11.727H8.29386C6.88049 11.727 5.96609 10.7533 5.96609 9.53693C5.96609 8.29346 6.90872 7.34689 8.34974 7.34689C9.79133 7.34689 10.6781 8.29346 10.7063 9.53693C10.7063 10.7533 9.79076 11.727 8.32208 11.727ZM25.6228 26.1355H21.4093V19.352C21.4093 17.6486 20.7997 16.4858 19.2751 16.4858C18.1112 16.4858 17.4181 17.2698 17.1127 18.0273C17.0015 18.2977 16.9744 18.6758 16.9744 19.0551V26.135H12.7609C12.7609 26.135 12.8162 14.6463 12.7609 13.4581H16.9744V15.2525C17.5344 14.3889 18.5357 13.159 20.7726 13.159C23.5446 13.159 25.6234 14.9714 25.6234 18.8655L25.6228 26.1355Z" fill="#6C5B51"/>
</svg>
