<svg width="32" height="32" viewBox="0 0 32 32" fill="none" xmlns="http://www.w3.org/2000/svg">
<g clip-path="url(#clip0_817_680)">
<path d="M29.93 5.2707C28.505 3.8902 26.74 3.2002 24.93 3.2002C23.12 3.2002 21.312 3.8902 19.932 5.2707L17.764 7.4387C18.5195 7.8393 19.2375 8.3177 19.8595 8.9397C20.0168 9.097 20.1544 9.2656 20.2966 9.4316L22.1946 7.5336C22.925 6.8027 23.855 6.4002 24.93 6.4002C25.9635 6.4002 26.935 6.80255 27.6655 7.5332C28.396 8.2637 28.7985 9.2352 28.7985 10.2687C28.7985 11.3022 28.396 12.2737 27.6655 13.0042L21.0005 19.6692C20.275 20.3552 19.3 20.8002 18.27 20.8002C17.24 20.8002 16.265 20.3978 15.5345 19.6672C14.8 18.9352 14.355 17.9652 14.355 16.9302C14.355 15.8952 14.7573 14.9252 15.488 14.1947L15.71 14.0202C15.605 13.8252 15.495 13.6252 15.335 13.4652C14.905 13.0352 14.34 12.8002 13.73 12.8002C13.1335 12.8002 12.575 13.0334 12.1495 13.4487C10.614 16.1467 10.968 19.6287 13.269 21.9287C14.65 23.3102 16.46 24.0002 18.27 24.0002C20.079 24.0002 21.888 23.3102 23.268 21.9297L29.93 15.2652C31.3525 13.8427 32.042 11.9647 31.9985 10.1002C31.955 8.3052 31.27 6.6082 29.93 5.2707ZM11.7 22.5702L9.805 24.4652C9.075 25.1552 8.1 25.6002 7.07 25.6002C6.0365 25.6002 5.065 25.1978 4.3345 24.4672C3.604 23.7367 3.2015 22.7652 3.2015 21.7317C3.2015 20.6982 3.60395 19.7267 4.3345 18.9962L10.9995 12.3312C11.725 11.6002 12.655 11.2002 13.73 11.2002C14.805 11.2002 15.735 11.6026 16.4655 12.3332C17.1965 13.0637 17.5985 14.0352 17.5985 15.0687C17.5985 16.1022 17.1961 17.0737 16.4655 17.8042L16.29 17.9802C16.3947 18.1771 16.5009 18.3749 16.6632 18.5377C17.095 18.9652 17.665 19.2002 18.27 19.2002C18.8665 19.2002 19.425 18.967 19.8505 18.5517C21.386 15.8537 21.032 12.3717 18.731 10.0717C17.305 8.6902 15.54 8.0002 13.73 8.0002C11.92 8.0002 10.115 8.6902 8.735 10.0702L2.0705 16.7352C0.6905 18.1152 0 19.9242 0 21.7332C-4.99997e-06 23.5422 0.69 25.3512 2.0705 26.7317C3.4505 28.1102 5.26 28.8002 7.07 28.8002C8.879 28.8002 10.688 28.1102 12.068 26.7297L14.236 24.5617C13.4805 24.1611 12.7625 23.6827 12.1405 23.0607C11.98 22.9052 11.845 22.7352 11.7 22.5702Z" fill="#6C5B51"/>
</g>
<defs>
<clipPath id="clip0_817_680">
<rect width="32" height="25.6" fill="white" transform="translate(0 3.2002)"/>
</clipPath>
</defs>
</svg>
