<svg width="139" height="133" viewBox="0 0 139 133" fill="none" xmlns="http://www.w3.org/2000/svg">
<path fill-rule="evenodd" clip-rule="evenodd" d="M26.8866 92.2829L29.5068 96.0726L32.7135 99.7446L36.0712 102.878L39.6195 105.577L43.485 107.909L47.6004 109.846L51.8603 111.336L56.4325 112.374L61.0661 112.853L65.7695 112.889L70.2801 112.557L74.3935 111.886L78.251 110.724L83.7518 108.375L89.793 105.318L93.5797 102.879L100.017 98.2168L103.658 95.0584L109.417 89.4928L109.623 88.7164L108.887 88.2847L108.439 88.4788L102.722 94.0047L99.788 96.578L97.6846 98.2452L92.7318 101.757L90.305 103.366L87.6168 104.935L83.0141 107.188L79.8027 108.626L76.1352 109.95L74.2274 110.463L72.2664 110.845L68.0142 111.325L63.4305 111.48L61.1123 111.412L57.8827 111.079L62.4889 110.499L67.3493 109.721L70.9078 108.95L76.5739 107.326L80.7052 105.982L84.8863 104.373L87.1414 103.354L89.1126 102.337L92.9652 100.054L96.7587 97.4567L98.597 96.0414L102.026 93.0212L103.596 91.4072L105.072 89.7132L107.803 86.0864L109.182 83.9677L111.419 80.0027L113.268 75.95L114.041 73.878L114.717 71.7451L115.784 67.3854L116.482 62.9957L116.824 58.7193L116.797 54.5325L116.63 52.2142L116.059 48.116L115.158 44.1936L113.943 40.5281L113.201 38.749L111.476 35.3552L109.45 32.1936L107.023 29.1634L104.486 26.5676L103.105 25.3509L100.155 23.1572L96.9281 21.3336L93.4309 19.943L89.4186 18.8706L85.3689 18.2413L81.1189 18.0697L76.7019 18.4062L72.0184 19.2318L67.1754 20.518L62.3141 22.2414L57.3067 24.4891L52.3882 27.1301L47.5107 30.1909L42.903 33.5834L38.7277 37.2571L34.7861 41.3215L31.1857 45.6774L29.563 47.93L27.9696 50.3959L26.6711 52.6743L25.527 54.9927L23.6351 59.7898L22.2954 64.6938L21.845 67.1477L21.5493 69.5665L21.411 71.9385L21.4446 74.294L21.661 76.8889L22.5323 81.5769L23.9394 86.0972L25.7841 90.296L26.8866 92.2829ZM36.9576 101.689L33.6484 98.6018L30.7689 95.3114L29.4187 93.4799L28.1958 91.5876L27.1203 89.652L25.3042 85.5176L23.9189 81.0675L23.4194 78.7784L23.0636 76.4627L22.8742 74.2691L22.8424 72.0621L22.977 69.7399L23.2674 67.3704L24.2991 62.5406L25.8953 57.7453L28.0171 53.1265L29.2643 50.9372L32.2182 46.6255L33.9394 44.4511L37.6945 40.2664L41.6994 36.4405L43.7976 34.6733L48.3571 31.315L53.1873 28.2839L58.0582 25.6684L62.5927 23.629L67.3952 21.925L72.1762 20.6559L76.7916 19.8423L81.1346 19.5114L83.2277 19.5357L87.3089 19.9364L90.9456 20.7097L94.514 21.8875L97.7928 23.4552L100.812 25.43L103.573 27.7338L106.047 30.2633L108.168 32.9302L110.158 36.0346L111.854 39.3729L113.218 42.8876L114.257 46.6196L114.986 50.5876L115.226 52.6176L115.427 56.5262L115.393 58.581L115.056 62.8021L114.366 67.1337L113.314 71.435L111.891 75.5639L110.069 79.5577L107.893 83.4169L105.441 86.99L102.613 90.3996L99.4297 93.5004L95.8867 96.3512L94.033 97.6678L90.2314 100.085L86.3938 102.172L82.535 103.825L78.3875 105.28L72.531 107.047L67.2122 108.294L59.6784 109.437L56.5119 109.748L52.2502 109.79L51.3867 109.658L50.391 109.339L48.3112 108.55L44.2548 106.64L40.4495 104.346L36.9576 101.689Z" fill="black"/>
<path fill-rule="evenodd" clip-rule="evenodd" d="M113.904 45.997L111.764 41.7799L109.027 37.5891L106.074 33.9154L102.877 30.6487L99.32 27.7004L95.4659 25.1103L91.4133 22.9457L86.9944 21.187L82.446 19.9795L77.7735 19.2067L73.2476 18.8329L69.0749 18.8625L65.0964 19.4255L59.3379 20.9236L52.9551 23.0472L48.89 24.9036L41.9162 28.5783L37.907 31.1802L31.4972 35.8685L31.1963 36.616L31.8757 37.1649L32.3445 37.0401L38.7087 32.3853L41.9423 30.2603L44.2387 28.9152L49.5951 26.164L52.2061 24.9274L55.072 23.7725L59.9255 22.2313L63.2955 21.2899L67.1051 20.5346L69.0651 20.3183L71.062 20.2415L75.3492 20.4263L79.9261 20.9881L82.2228 21.4198L85.3932 22.2609L80.7417 22.1217L75.8132 22.1408L72.1801 22.358L66.3463 23.1019L62.0732 23.8039L57.7179 24.7654L55.3504 25.4351L53.2653 26.1478L49.1538 27.8378L45.0625 29.8522L43.0607 30.9858L39.2797 33.4823L37.5205 34.8575L35.8443 36.3277L32.6831 39.5429L31.0513 41.455L28.3397 45.0871L26.0035 48.8683L24.9801 50.8284L24.0458 52.865L22.449 57.0769L21.2147 61.3767L20.3494 65.6187L19.8618 69.8284L19.7427 72.1833L19.8065 76.3892L20.2209 80.4704L20.9777 84.3425L21.4971 86.2458L22.7955 89.9251L24.4209 93.4182L26.4624 96.8423L28.666 99.8472L29.8891 101.286L32.5536 103.951L35.5377 106.289L38.8442 108.234L42.702 109.939L46.6515 111.206L50.8563 112.044L55.2898 112.398L60.0483 112.303L65.022 111.77L70.0678 110.8L75.3231 109.327L80.5384 107.445L85.7645 105.135L90.7633 102.449L95.3665 99.4133L99.7854 95.9483L103.901 92.1371L105.791 90.1287L107.679 87.9014L109.25 85.8163L110.673 83.6668L113.143 79.1447L115.078 74.4287L115.828 72.0345L116.419 69.6512L116.848 67.2903L117.104 64.919L117.208 62.2786L116.918 57.4331L116.074 52.6722L114.756 48.1656L113.904 45.997ZM105.046 34.9714L107.957 38.5905L110.416 42.3468L111.533 44.398L112.517 46.4904L113.348 48.6031L114.646 53.0405L115.476 57.7276L115.692 60.1051L115.761 62.4869L115.68 64.72L115.44 66.9418L115.021 69.2533L114.441 71.5879L112.821 76.2776L110.645 80.8442L107.967 85.1512L106.458 87.1549L102.991 91.023L101.012 92.9374L96.7637 96.5524L92.3112 99.7679L90.0076 101.214L85.0611 103.873L79.8857 106.161L74.7208 108.025L69.9612 109.363L64.9765 110.322L60.0665 110.848L55.3771 110.942L51.0179 110.594L48.9397 110.241L44.9307 109.199L41.4097 107.853L38.0062 106.111L34.9386 104.022L32.1788 101.565L29.7167 98.8188L27.5681 95.8904L25.7863 92.8792L24.189 89.4491L22.9129 85.8302L21.9885 82.0861L21.4141 78.1745L21.1771 74.0746L21.1883 71.9981L21.4684 68.0404L21.7552 65.9819L22.6094 61.7947L23.8274 57.5518L25.4028 53.3962L27.325 49.4719L29.6272 45.7457L32.2659 42.2102L35.1428 39.0054L38.3742 36.0237L41.9203 33.4077L45.7937 31.0993L47.7988 30.0673L51.876 28.2345L55.9484 26.74L59.9885 25.6843L64.2915 24.8723L70.3321 24.0154L75.7741 23.5962L83.4059 23.6282L86.5927 23.8122L90.8355 24.438L91.678 24.7051L92.6288 25.1817L94.5998 26.3007L98.3986 28.8541L101.9 31.7552L105.046 34.9714Z" fill="white"/>
<path d="M107.957 38.5905L105.046 34.9714L101.9 31.7552L98.3986 28.8541L94.5998 26.3007L92.6288 25.1817L91.678 24.7051L90.8355 24.438L86.5927 23.8122L83.4059 23.6282L75.7741 23.5962L70.3321 24.0154L64.2915 24.8723L59.9885 25.6843L55.9484 26.74L51.876 28.2345L47.7988 30.0673L45.7937 31.0993L41.9203 33.4077L38.3742 36.0237L35.1428 39.0054L32.2659 42.2102L29.6272 45.7457L27.325 49.4719L25.4028 53.3962L23.8274 57.5518L22.6094 61.7947L21.7552 65.9819L21.4684 68.0404L21.1883 71.9981L21.1771 74.0746L21.4141 78.1745L21.9885 82.0861L22.9129 85.8302L24.189 89.4491L25.7863 92.8792L27.5681 95.8904L29.7167 98.8188L32.1788 101.565L34.9386 104.022L38.0062 106.111L41.4097 107.853L44.9307 109.199L48.9397 110.241L51.0179 110.594L55.3771 110.942L60.0665 110.848L64.9765 110.322L69.9612 109.363L74.7208 108.025L79.8857 106.161L85.0611 103.873L90.0076 101.214L92.3112 99.7679L96.7637 96.5524L101.012 92.9374L102.991 91.023L106.458 87.1549L107.967 85.1512L110.645 80.8442L112.821 76.2776L114.441 71.5879L115.021 69.2533L115.44 66.9418L115.68 64.72L115.761 62.4869L115.692 60.1051L115.476 57.7276L114.646 53.0405L113.348 48.6031L112.517 46.4904L111.533 44.398L110.416 42.3468L107.957 38.5905Z" fill="white"/>
<path fill-rule="evenodd" clip-rule="evenodd" d="M113.904 45.997L111.764 41.7799L109.027 37.5891L106.074 33.9154L102.877 30.6487L99.32 27.7004L95.4659 25.1103L91.4133 22.9457L86.9944 21.187L82.446 19.9795L77.7735 19.2067L73.2476 18.8329L69.0749 18.8625L65.0964 19.4255L59.3379 20.9236L52.9551 23.0472L48.89 24.9036L41.9162 28.5783L37.907 31.1802L31.4972 35.8685L31.1963 36.616L31.8757 37.1649L32.3445 37.0401L38.7087 32.3853L41.9423 30.2603L44.2387 28.9152L49.5951 26.164L52.2061 24.9274L55.072 23.7725L59.9255 22.2313L63.2955 21.2899L67.1051 20.5346L69.0651 20.3183L71.062 20.2415L75.3492 20.4263L79.9261 20.9881L82.2228 21.4198L85.3932 22.2609L80.7417 22.1217L75.8132 22.1408L72.1801 22.358L66.3463 23.1019L62.0732 23.8039L57.7179 24.7654L55.3504 25.4351L53.2653 26.1478L49.1538 27.8378L45.0625 29.8522L43.0607 30.9858L39.2797 33.4823L37.5205 34.8575L35.8443 36.3277L32.6831 39.5429L31.0513 41.455L28.3397 45.0871L26.0035 48.8683L24.9801 50.8284L24.0458 52.865L22.449 57.0769L21.2147 61.3767L20.3494 65.6187L19.8618 69.8284L19.7427 72.1833L19.8065 76.3892L20.2209 80.4704L20.9777 84.3425L21.4971 86.2458L22.7955 89.9251L24.4209 93.4182L26.4624 96.8423L28.666 99.8472L29.8891 101.286L32.5536 103.951L35.5377 106.289L38.8442 108.234L42.702 109.939L46.6515 111.206L50.8563 112.044L55.2898 112.398L60.0483 112.303L65.022 111.77L70.0678 110.8L75.3231 109.327L80.5384 107.445L85.7645 105.135L90.7633 102.449L95.3665 99.4133L99.7854 95.9483L103.901 92.1371L105.791 90.1287L107.679 87.9014L109.25 85.8163L110.673 83.6668L113.143 79.1447L115.078 74.4287L115.828 72.0345L116.419 69.6512L116.848 67.2903L117.104 64.919L117.208 62.2786L116.918 57.4331L116.074 52.6722L114.756 48.1656L113.904 45.997ZM105.046 34.9714L107.957 38.5905L110.416 42.3468L111.533 44.398L112.517 46.4904L113.348 48.6031L114.646 53.0405L115.476 57.7276L115.692 60.1051L115.761 62.4869L115.68 64.72L115.44 66.9418L115.021 69.2533L114.441 71.5879L112.821 76.2776L110.645 80.8442L107.967 85.1512L106.458 87.1549L102.991 91.023L101.012 92.9374L96.7637 96.5524L92.3112 99.7679L90.0076 101.214L85.0611 103.873L79.8857 106.161L74.7208 108.025L69.9612 109.363L64.9765 110.322L60.0665 110.848L55.3771 110.942L51.0179 110.594L48.9397 110.241L44.9307 109.199L41.4097 107.853L38.0062 106.111L34.9386 104.022L32.1788 101.565L29.7167 98.8188L27.5681 95.8904L25.7863 92.8792L24.189 89.4491L22.9129 85.8302L21.9885 82.0861L21.4141 78.1745L21.1771 74.0746L21.1883 71.9981L21.4684 68.0404L21.7552 65.9819L22.6094 61.7947L23.8274 57.5518L25.4028 53.3962L27.325 49.4719L29.6272 45.7457L32.2659 42.2102L35.1428 39.0054L38.3742 36.0237L41.9203 33.4077L45.7937 31.0993L47.7988 30.0673L51.876 28.2345L55.9484 26.74L59.9885 25.6843L64.2915 24.8723L70.3321 24.0154L75.7741 23.5962L83.4059 23.6282L86.5927 23.8122L90.8355 24.438L91.678 24.7051L92.6288 25.1817L94.5998 26.3007L98.3986 28.8541L101.9 31.7552L105.046 34.9714Z" stroke="black" stroke-linecap="round"/>
<path d="M107.957 38.5905L105.046 34.9714L101.9 31.7552L98.3986 28.8541L94.5998 26.3007L92.6288 25.1817L91.678 24.7051L90.8355 24.438L86.5927 23.8122L83.4059 23.6282L75.7741 23.5962L70.3321 24.0154L64.2915 24.8723L59.9885 25.6843L55.9484 26.74L51.876 28.2345L47.7988 30.0673L45.7937 31.0993L41.9203 33.4077L38.3742 36.0237L35.1428 39.0054L32.2659 42.2102L29.6272 45.7457L27.325 49.4719L25.4028 53.3962L23.8274 57.5518L22.6094 61.7947L21.7552 65.9819L21.4684 68.0404L21.1883 71.9981L21.1771 74.0746L21.4141 78.1745L21.9885 82.0861L22.9129 85.8302L24.189 89.4491L25.7863 92.8792L27.5681 95.8904L29.7167 98.8188L32.1788 101.565L34.9386 104.022L38.0062 106.111L41.4097 107.853L44.9307 109.199L48.9397 110.241L51.0179 110.594L55.3771 110.942L60.0665 110.848L64.9765 110.322L69.9612 109.363L74.7208 108.025L79.8857 106.161L85.0611 103.873L90.0076 101.214L92.3112 99.7679L96.7637 96.5524L101.012 92.9374L102.991 91.023L106.458 87.1549L107.967 85.1512L110.645 80.8442L112.821 76.2776L114.441 71.5879L115.021 69.2533L115.44 66.9418L115.68 64.72L115.761 62.4869L115.692 60.1051L115.476 57.7276L114.646 53.0405L113.348 48.6031L112.517 46.4904L111.533 44.398L110.416 42.3468L107.957 38.5905Z" stroke="black" stroke-linecap="round"/>
<path d="M84.3556 62.1716C84.2168 62.0447 84.071 61.9262 83.9186 61.8166C83.4676 61.4908 83.0142 61.1491 82.5757 60.8192C81.5876 60.0477 80.5616 59.3276 79.5017 58.6617C74.9106 55.8873 69.7268 53.3433 63.6539 50.8848C62.7187 50.5061 61.7696 50.1437 60.7642 49.76C60.2786 49.5746 59.7768 49.3828 59.2516 49.1799C59.2112 49.1643 59.1667 49.164 59.1261 49.179C59.0856 49.194 59.0516 49.2233 59.0305 49.2616C58.978 49.3568 58.915 49.4531 58.854 49.5466C58.6952 49.7551 58.5807 49.9949 58.5179 50.2509C58.3401 51.2154 58.2238 52.1907 58.1696 53.1705C58.1426 53.83 58.1153 54.4894 58.0875 55.1488C57.9421 58.6275 57.7917 62.2245 57.7372 65.7643C57.6847 69.1535 57.698 72.5994 57.7107 75.9319C57.716 77.2911 57.7198 78.6503 57.7223 80.0094V80.0572C57.7121 80.4171 57.7332 80.7775 57.7853 81.1337C57.8171 81.3718 57.9024 81.5995 58.0346 81.7988C58.1667 81.9979 58.3423 82.1637 58.5475 82.2829C58.7512 82.3926 58.9784 82.449 59.2088 82.4476C59.4557 82.445 59.6993 82.3904 59.9244 82.2873C60.1558 82.1756 60.3763 82.0421 60.5829 81.8882C60.6749 81.8241 60.7668 81.7599 60.8605 81.7001C61.4252 81.3389 61.9892 80.9766 62.5527 80.6136C63.7881 79.8196 65.0653 78.9987 66.3298 78.2057C68.1272 77.0782 69.9267 75.9544 71.7281 74.8338C73.971 73.4358 76.2905 71.9901 78.5656 70.5579C80.6981 69.2155 82.6112 67.5387 84.388 65.9365C85.1139 65.282 85.4531 64.6955 85.4563 64.0902C85.4587 63.4725 85.109 62.8632 84.3556 62.1716ZM60.3745 51.9356L60.4192 51.9535C60.5785 52.0085 60.7302 52.084 60.8707 52.1781C62.7068 53.562 64.6587 54.6971 67.0244 55.9756C70.5095 57.8595 73.4239 59.4548 76.3201 61.1184C77.3474 61.7085 78.3437 62.4033 79.3073 63.0753C79.6576 63.3201 80.0096 63.565 80.3629 63.8056C80.596 63.9722 80.8198 64.1518 81.0333 64.3437C81.1273 64.4245 81.2277 64.5107 81.3375 64.6034C80.5541 65.5027 79.6699 66.3056 78.7028 66.9956C77.109 68.1249 75.5446 69.2221 73.9316 70.2239C70.4752 72.3718 66.9413 74.5239 63.5238 76.6054L60.8647 78.2262C60.7387 78.2948 60.6055 78.3485 60.4675 78.3865L60.45 78.3916C60.1784 75.5803 60.1188 55.7825 60.3745 51.9356Z" fill="black"/>
</svg>
