<svg width="32" height="32" viewBox="0 0 32 32" fill="none" xmlns="http://www.w3.org/2000/svg">
<path d="M29.8238 8.50302C28.8016 8.9574 27.7015 9.26389 26.5472 9.40105C27.7257 8.6955 28.6294 7.5779 29.0556 6.24468C27.9532 6.89887 26.7329 7.37357 25.433 7.62983C24.3927 6.52126 22.9099 5.82812 21.2691 5.82812C18.1189 5.82812 15.5648 8.38223 15.5648 11.533C15.5648 11.9794 15.615 12.4146 15.7127 12.8329C10.9713 12.5947 6.76737 10.3239 3.95362 6.87235C3.46255 7.71449 3.18146 8.69437 3.18146 9.74085C3.18146 11.7198 4.18843 13.4662 5.7192 14.4889C4.78448 14.459 3.90451 14.2022 3.13518 13.7749C3.13461 13.7986 3.13461 13.8229 3.13461 13.8472C3.13461 16.6107 5.10113 18.9159 7.71112 19.4408C7.23247 19.5706 6.72842 19.6406 6.20801 19.6406C5.83999 19.6406 5.4827 19.6051 5.13444 19.5379C5.86087 21.8041 7.96738 23.454 10.4633 23.4997C8.51094 25.0299 6.05166 25.9421 3.37845 25.9421C2.91843 25.9421 2.46405 25.915 2.01758 25.8619C4.5429 27.4813 7.54122 28.4251 10.7625 28.4251C21.2561 28.4251 26.9936 19.7326 26.9936 12.1939C26.9936 11.9467 26.9886 11.7 26.9778 11.4551C28.092 10.6524 29.0595 9.64715 29.8238 8.50302Z" fill="#6C5B51"/>
</svg>
