<svg width="102" height="14" viewBox="0 0 102 14" fill="none" xmlns="http://www.w3.org/2000/svg">
<path fill-rule="evenodd" clip-rule="evenodd" d="M27.1464 8.24455C22.7826 9.50971 17.7444 10.7688 12.8977 11.0832C8.7551 11.3515 4.75373 10.9347 1.47855 9.16145C1.01687 8.91177 0.438717 9.08341 0.189034 9.54548C-0.0610285 10.0072 0.111007 10.5853 0.572691 10.8354C4.14551 12.7693 8.50199 13.2751 13.0206 12.9821C17.9545 12.6623 23.0837 11.3949 27.535 10.1115C28.0515 11.1578 29.121 12.1333 31.005 12.853C33.8988 13.9587 37.85 13.945 42.0123 13.3219C48.0493 12.4187 54.5433 10.2648 58.7186 8.7344C58.8899 8.67198 59.1449 8.57264 59.457 8.44171C59.5522 8.65181 59.6587 8.85887 59.7767 9.06211C60.8006 10.8335 62.6123 12.2657 64.4583 12.7773C76.1659 16.0209 89.83 12.1344 100.955 8.97151C101.458 8.82802 101.751 8.30127 101.61 7.7962C101.465 7.29112 100.94 6.99767 100.434 7.14116C89.6206 10.2158 76.3448 14.0949 64.9645 10.9431C63.5638 10.5549 62.2012 9.45414 61.4248 8.10981C61.3372 7.95985 61.2611 7.80647 61.1888 7.6508C62.7227 6.89071 64.5268 5.83109 65.4973 4.69686C66.4946 3.53409 66.7419 2.29291 65.8741 1.12062C65.1281 0.118465 63.9977 0.0332062 62.8216 0.552743C61.5542 1.1092 60.2487 2.41012 59.8262 3.02062C59.0345 4.16094 58.7833 5.39795 58.928 6.60411C58.555 6.76168 58.252 6.8789 58.0651 6.94742C53.9811 8.44399 47.6336 10.5564 41.7307 11.4398C37.9326 12.0084 34.3247 12.0842 31.684 11.0756C30.5578 10.6451 29.8137 10.1427 29.4098 9.55958C30.2069 9.32131 30.9753 9.08685 31.7095 8.86305C33.1616 8.4204 36.1848 7.68772 38.3448 6.38184C40.0625 5.34352 41.2272 3.93107 41.1594 2.16045C41.1248 1.25079 40.5984 0.643699 39.7606 0.303431C38.5088 -0.204688 36.3439 0.0411827 35.5377 0.212459C33.0927 0.730854 29.8293 2.87676 28.2147 5.2948C27.5704 6.25965 27.1871 7.26904 27.1464 8.24455ZM29.1548 7.65003C29.8457 7.44222 30.5133 7.2382 31.1546 7.04257C32.51 6.62922 35.3432 5.97266 37.3601 4.75317C38.4281 4.10765 39.3001 3.33426 39.2579 2.23314C39.2544 2.14751 39.1695 2.12315 39.0946 2.08814C38.9785 2.03447 38.8456 1.99754 38.704 1.96861C37.746 1.77298 36.4592 1.96214 35.9324 2.07404C33.8809 2.50908 31.1519 4.3227 29.7973 6.35175C29.5111 6.78033 29.2831 7.21689 29.1548 7.65003ZM60.8082 5.72794C61.7026 5.26778 62.6389 4.71131 63.3773 4.10575C63.7694 3.78414 64.1005 3.4534 64.3098 3.11008C64.4849 2.82614 64.5534 2.53534 64.3441 2.25445C64.2603 2.14064 64.1348 2.13837 64.0053 2.15969C63.8683 2.18252 63.7275 2.23123 63.5867 2.29403C62.658 2.70281 61.6988 3.65777 61.3905 4.10575C61.0289 4.62529 60.85 5.17491 60.8082 5.72794Z" fill="black"/>
</svg>
