<svg width="78" height="97" viewBox="0 0 78 97" fill="none" xmlns="http://www.w3.org/2000/svg">
<g clip-path="url(#clip0_2_13)">
<path d="M46.7707 71.3556C51.1999 69.6605 55.0755 66.7883 57.9797 63.0493C63.7417 55.6078 64.1179 47.3018 59.0391 39.6614C57.4711 37.3024 55.4164 35.3346 53.4464 33.5217C48.4006 28.8784 42.514 26.8205 35.9499 27.4035C30.608 27.8783 26.6374 29.933 23.811 33.6854C21.6618 36.5461 20.0636 39.7812 19.0972 43.2272C17.1065 50.2513 17.0955 56.6689 19.0637 62.8459C19.1126 62.9999 19.1632 63.1542 19.2141 63.3084C19.4519 63.9637 19.6299 64.6388 19.7459 65.3256C19.8346 65.9845 19.9003 66.8069 19.6174 67.3193C18.5551 69.2417 17.3616 71.0519 16.231 72.7202C15.5308 73.7532 14.7739 74.7761 14.0418 75.7655C13.5943 76.3699 13.1469 76.9746 12.7081 77.5866C11.7333 78.9451 11.8108 79.9509 12.9755 81.0585C13.6635 81.7205 14.4276 82.2988 15.2515 82.7819L15.3275 82.8258C18.0813 84.3847 20.9012 85.9295 23.63 87.4243L25.4501 88.4218C27.2162 89.3908 28.2841 89.1644 29.3901 87.5863C31.3274 84.822 32.7412 82.657 33.9739 80.5656L34.1063 80.3423C34.8415 79.1037 35.6707 77.7065 35.2732 75.8732L38.7775 74.4962C41.4494 73.4456 44.1137 72.3989 46.7707 71.3556ZM33.5764 74.4204L30.6659 72.4347C30.6758 72.4077 30.6896 72.3824 30.7065 72.3592C32.1459 70.9015 33.5892 69.4478 35.0361 67.9983C38.2669 64.7524 41.6076 61.3958 44.8257 58.028C47.3087 55.4298 48.8794 52.7637 49.6264 49.8775C49.994 48.4573 49.8718 47.1811 49.2726 46.1865C48.9763 45.7205 48.589 45.3191 48.1337 45.0062C47.6783 44.6933 47.1643 44.4753 46.6231 44.3658C46.1925 44.2769 45.7541 44.2322 45.3148 44.2324L45.138 44.2262C44.8598 44.2161 44.5871 44.2321 44.2992 44.2476L44.1407 44.2562C44.1248 44.151 44.1101 44.0468 44.0954 43.9431C44.0472 43.5543 43.9791 43.1681 43.8912 42.786C43.3998 40.7971 41.7022 39.651 39.6655 39.934C38.272 40.1516 36.9669 40.7477 35.893 41.6571C32.3081 44.5208 29.9731 48.3166 28.9533 52.9388C28.4195 55.3578 27.9099 57.8237 27.4182 60.2087C27.2324 61.1085 27.0459 62.0081 26.8588 62.9073C26.4219 64.9155 25.7237 66.8568 24.7818 68.6824L22.4608 67.3423C23.2943 65.5999 22.8341 63.8264 22.3902 62.1099C22.3073 61.7924 22.225 61.474 22.1506 61.1554C20.4391 53.8555 20.9271 47.3775 23.6432 41.3513C24.5784 39.276 25.6382 37.1032 27.0478 35.2729C29.1747 32.5112 32.3369 30.995 36.715 30.6371C42.0474 30.2013 46.7765 31.7966 50.7688 35.3773C52.8738 37.2649 54.8882 39.1519 56.3997 41.48C60.3125 47.508 60.008 53.891 55.5183 59.9387C52.4226 64.1089 48.0817 66.8556 41.4428 68.8449C39.6993 69.368 37.6792 70.0782 35.9157 71.3814C34.9998 72.0584 34.0004 72.9041 33.5764 74.4204ZM30.5163 80.0404L29.2632 81.9177L17.7899 75.2936L19.1159 72.997L30.5163 80.0404ZM27.5948 84.2802L26.6631 85.7407C23.1431 83.9104 19.1118 81.7538 15.3764 79.2014C15.3993 79.1437 15.4203 79.089 15.4413 79.0378C15.494 78.8815 15.5617 78.7309 15.6437 78.5881C15.8511 78.2644 16.0764 77.949 16.3145 77.615C16.3696 77.5379 16.4253 77.4597 16.4815 77.3805L27.5948 84.2802ZM21.0797 69.1355L21.4015 69.3339C25.2826 71.7284 28.9516 73.9922 32.5393 76.5912L32.0528 77.562C28.0195 75.5207 24.1069 73.2494 20.3347 70.7588L21.0797 69.1355ZM29.8401 60.784C29.9588 60.2463 30.0767 59.7081 30.2031 59.173C30.8842 56.2717 31.567 53.4338 32.429 50.6107C33.2293 47.9882 34.9564 45.7208 37.861 43.4731C38.4672 43.0373 39.1542 42.7259 39.8827 42.5566C40.0306 42.5029 40.1883 42.4809 40.3456 42.4921C40.5028 42.5032 40.6561 42.5473 40.7953 42.6215C41.0471 42.7827 41.2175 43.107 41.3016 43.5849C41.5184 44.8175 41.4122 45.0361 40.2668 45.7089C37.9363 47.0782 36.3366 48.7625 35.3767 50.858C35.0597 51.5086 34.8521 52.2067 34.7619 52.9252C34.6917 53.2727 34.7185 53.6333 34.8393 53.9675C34.9602 54.3017 35.1705 54.5968 35.4473 54.8208C35.724 55.0448 36.0568 55.1889 36.4093 55.2375C36.7618 55.2861 37.1205 55.2374 37.4464 55.0967C38.1339 54.8561 38.7725 54.4949 39.332 54.0303C41.3685 52.4127 42.8544 50.2073 43.588 47.7131C43.8348 46.8998 44.6917 46.5917 45.9397 46.868C46.4465 46.9801 46.7834 47.1743 46.9409 47.444C47.0137 47.5992 47.0534 47.7677 47.0573 47.9387C47.0615 48.1098 47.0297 48.2796 46.9641 48.4373C46.5565 49.7581 46.0474 51.4008 45.1279 52.6095C43.5369 54.6993 41.733 56.6899 39.9879 58.6145C39.6604 58.9769 39.3332 59.3392 39.0059 59.7011C37.949 60.8738 36.8549 62.05 35.7968 63.1873C34.3761 64.7149 32.9079 66.2952 31.5056 67.8889C30.8423 68.6849 30.2409 69.5299 29.7061 70.4171C29.482 70.7674 29.2523 71.1268 29.0091 71.4905L26.4004 69.7635C28.4565 67.0522 29.1601 63.8671 29.8407 60.7844L29.8401 60.784ZM38.7038 50.7246L39.4144 49.8556C39.2256 50.1813 38.9859 50.4747 38.7045 50.725L38.7038 50.7246Z" fill="black"/>
</g>
<path fill-rule="evenodd" clip-rule="evenodd" d="M70.9568 32.3167C72.9458 31.2338 74.9228 30.1799 76.8792 29.0396C77.3009 28.7958 77.443 28.2599 77.1995 27.8417C76.9557 27.4199 76.4163 27.278 75.998 27.5215C74.0517 28.654 72.0916 29.6995 70.1161 30.7743C69.6901 31.0079 69.5336 31.5414 69.7634 31.9643C69.9969 32.3903 70.5307 32.5502 70.9568 32.3167Z" fill="black"/>
<path fill-rule="evenodd" clip-rule="evenodd" d="M54.9837 22.537C57.4785 15.83 59.6327 9.00101 61.9827 2.24516C62.1412 1.78546 61.8985 1.28606 61.4423 1.12726C60.9826 0.96872 60.483 1.20793 60.321 1.66789C57.9772 8.4127 55.8293 15.2306 53.337 21.9233C53.1677 22.3803 53.4 22.884 53.8535 23.0536C54.3105 23.2229 54.8142 22.9905 54.9837 22.537Z" fill="black"/>
<path fill-rule="evenodd" clip-rule="evenodd" d="M29.1879 22.8243C27.7745 16.9422 26.1943 11.0905 24.8467 5.1928C24.7366 4.722 24.2664 4.42689 23.7954 4.53351C23.3208 4.64041 23.026 5.11403 23.1326 5.58509C24.4842 11.4896 26.065 17.3483 27.4824 23.2371C27.596 23.7076 28.0694 23.999 28.5399 23.8854C29.0139 23.7715 29.3018 23.2983 29.1879 22.8243Z" fill="black"/>
<defs>
<clipPath id="clip0_2_13">
<rect width="45.0866" height="62.7292" fill="white" transform="translate(31.3672 19.918) rotate(30)"/>
</clipPath>
</defs>
</svg>
