<svg width="261" height="260" viewBox="0 0 261 260" fill="none" xmlns="http://www.w3.org/2000/svg">
<path d="M104.548 102.861C104.583 101.277 104.597 99.7004 104.52 98.1025C104.435 96.4556 104.207 94.8191 103.838 93.2115C103.656 92.3983 103.422 91.5977 103.136 90.8147C102.696 89.5735 101.976 88.4502 101.031 87.5321C100.087 86.614 98.9425 85.9257 97.688 85.5208C96.8558 85.2507 95.9885 85.1032 95.1136 85.0831C94.23 85.0831 93.465 85.1248 92.6367 85.1526C91.0159 85.2221 89.3876 85.2429 87.7665 85.2707C86.1457 85.2915 84.5174 85.2915 82.8962 85.236C81.2703 85.2419 79.6479 85.0837 78.0538 84.7635C78.8161 85.0733 79.6092 85.3015 80.4196 85.4444C81.2265 85.5972 82.0337 85.7362 82.8476 85.8404C84.4759 86.0419 86.1178 86.1739 87.7529 86.2433C89.3876 86.3267 91.0227 86.3267 92.6646 86.3267C93.4649 86.3336 94.3346 86.285 95.0789 86.3059C96.2141 86.3438 97.3276 86.626 98.3435 87.1332C99.3593 87.6404 100.254 88.3606 100.965 89.2446C101.445 89.8354 101.832 90.4961 102.113 91.2038C102.405 91.9402 102.67 92.6905 102.899 93.4547C103.698 96.5406 104.243 99.6867 104.527 102.861C99.7128 102.285 90.2366 101.562 75.598 102.16C75.2155 96.3795 74.9508 92.2042 74.8119 90.7661C74.2065 84.5829 79.5011 83.9924 79.5011 83.9924L106.107 81.6859C104.771 83.6658 104.931 84.9511 105.411 86.021C105.675 86.8064 105.655 87.6593 105.355 88.4317C103.804 90.516 104.659 92.1764 105.042 92.4473C105.425 92.7113 105.411 94.1008 105.411 94.1008C104.339 96.7825 105.842 97.637 106.962 98.436C107.087 98.5249 107.228 98.5885 107.377 98.6231C107.526 98.6577 107.681 98.6625 107.832 98.6374L108.319 103.424C108.319 103.424 107.088 103.167 104.548 102.861ZM158.108 23.0042C158.108 23.0042 158.536 18.8659 161.966 20.0075C165.396 21.1491 170.112 19.8945 172.113 19.8083C172.113 19.8083 173.399 24.5739 174.399 24.5739C175.399 24.5739 175.257 36.1325 170.112 37.1314C170.112 37.1314 167.821 36.8931 166.71 35.7541C166.37 35.4027 165.942 35.1485 165.471 35.0177C164.999 34.887 164.501 34.8845 164.028 35.0106C163.253 35.2088 162.549 35.6193 161.996 36.1958C161.442 36.7722 161.06 37.4917 160.894 38.273C160.894 38.273 163.395 50.1884 172.47 38.9152C172.47 38.9152 174.471 36.4893 175.828 31.2094C175.828 31.2094 175.328 24.5025 178.615 23.6463C178.615 23.6463 179.901 23.575 179.83 25.0733C179.83 25.0733 180.552 24.3011 180.093 17.567C180.031 16.644 179.709 15.7574 179.164 15.0092C178.62 14.261 177.874 13.6817 177.014 13.3382C175.334 12.6698 173.427 11.8899 172.899 11.5882C171.898 11.0174 162.752 10.9461 159.751 13.5147C156.75 16.0833 158.108 23.0042 158.108 23.0042Z" fill="black"/>
<path d="M158.108 23.0044L158.201 26.94C158.224 27.5931 158.237 28.2458 158.289 28.8913C158.303 29.5103 158.4 30.1246 158.579 30.7174C159.139 31.9178 159.596 33.1634 159.945 34.4408C160.32 35.7023 160.644 36.979 160.895 38.2732C160.422 37.0443 159.951 35.8181 159.504 34.5869C159.08 33.3558 158.591 32.1479 158.04 30.9684C157.831 30.3064 157.726 29.6161 157.728 28.9219C157.707 28.2569 157.706 27.5966 157.738 26.9374C157.788 25.6205 157.912 24.3075 158.108 23.0044Z" fill="black"/>
<path d="M158.734 28.4442C159.064 28.1727 159.446 27.9702 159.856 27.849C160.268 27.7194 160.699 27.6573 161.131 27.6652C161.57 27.6758 162.003 27.775 162.403 27.957C162.799 28.1345 163.142 28.4133 163.397 28.7653C163.024 28.6137 162.641 28.4901 162.25 28.3954C161.877 28.3125 161.496 28.2669 161.114 28.2592C160.317 28.2585 159.522 28.3203 158.734 28.4442ZM166.023 28.3616C166.395 28.0232 166.836 27.7701 167.317 27.62C167.797 27.4572 168.301 27.3755 168.808 27.3785C169.823 27.3725 170.809 27.7201 171.596 28.3616C171.103 28.2674 170.649 28.145 170.184 28.0828C169.729 28.0088 169.268 27.972 168.806 27.9727C167.865 27.9752 166.928 28.1061 166.023 28.3616ZM161.307 31.1555C161.538 31.1475 161.758 31.0501 161.919 30.8837C162.079 30.7173 162.169 30.495 162.169 30.2637C162.169 30.0323 162.079 29.81 161.919 29.6436C161.758 29.4772 161.538 29.3798 161.307 29.3718C161.075 29.3798 160.856 29.4772 160.695 29.6436C160.534 29.81 160.444 30.0323 160.444 30.2637C160.444 30.495 160.534 30.7173 160.695 30.8837C160.856 31.0501 161.075 31.1475 161.307 31.1555ZM167.523 31.0485C167.755 31.0405 167.974 30.9431 168.135 30.7767C168.296 30.6103 168.386 30.388 168.386 30.1566C168.386 29.9253 168.296 29.703 168.135 29.5366C167.974 29.3702 167.755 29.2727 167.523 29.2648C167.292 29.2727 167.072 29.3702 166.911 29.5366C166.75 29.703 166.66 29.9253 166.66 30.1566C166.66 30.388 166.75 30.6103 166.911 30.7767C167.072 30.9431 167.292 31.0405 167.523 31.0485ZM162.271 33.3139C162.758 33.8225 163.373 34.1901 164.052 34.3778C164.372 34.433 164.701 34.4036 165.006 34.2926C165.174 34.2537 165.329 34.1588 165.504 34.0988C165.67 34.0175 165.833 33.9236 166.023 33.8489C165.921 34.0198 165.806 34.182 165.678 34.3338C165.535 34.4795 165.375 34.607 165.201 34.7137C164.83 34.9479 164.385 35.0369 163.952 34.9634C163.528 34.8833 163.141 34.6696 162.848 34.3536C162.566 34.0652 162.366 33.706 162.271 33.3139ZM157.816 101.805C157.818 101.814 157.818 101.823 157.816 101.832C157.814 101.84 157.81 101.848 157.805 101.856C157.8 101.863 157.793 101.869 157.785 101.873C157.778 101.878 157.769 101.881 157.76 101.882L152.848 102.806H152.793C150.177 102.479 147.547 102.201 144.917 101.916C142.287 101.631 139.657 101.379 137.027 101.159C134.397 100.944 131.76 100.77 129.137 100.645C127.072 100.535 125.003 100.539 122.938 100.659C122.978 100.247 122.915 99.8321 122.757 99.45C124.902 99.3674 127.051 99.3998 129.193 99.5472C131.844 99.707 134.481 99.9641 137.117 100.263C142.371 100.86 147.602 101.576 152.82 102.451L157.739 101.75C157.748 101.747 157.757 101.747 157.766 101.749C157.775 101.751 157.783 101.754 157.791 101.76C157.798 101.765 157.804 101.772 157.808 101.78C157.813 101.787 157.815 101.796 157.816 101.805ZM188.721 67.9853C188.853 68.555 188.986 69.1316 189.111 69.7013C188.784 69.7291 188.436 69.743 188.081 69.75C187.823 68.7148 187.566 67.6866 187.316 66.6514L184.053 52.9026C183.016 48.5119 182.077 44.1003 181.11 39.6956L160.682 45.1771L150.198 48.0742L139.74 51.0685C139.718 51.0771 139.695 51.0818 139.671 51.0824C136.651 51.0824 133.625 51.138 130.598 51.1657L121.526 51.2839C115.772 51.3672 110.032 51.402 104.278 51.4506C107.18 59.3914 110.136 67.3114 112.996 75.2662L113.058 75.4468C112.599 75.5649 112.119 75.683 111.632 75.8011L111.618 75.7664C108.627 67.5407 105.732 59.2803 102.782 51.0477V51.0407C102.725 50.8841 102.733 50.7112 102.803 50.5601C102.873 50.409 103.001 50.292 103.158 50.2348C103.228 50.2132 103.3 50.2015 103.374 50.2001C109.427 50.2557 115.473 50.2835 121.526 50.3807L130.598 50.4919C133.611 50.5197 136.631 50.5753 139.636 50.5822L150.086 47.6643L160.536 44.6422L181.388 38.4313C181.533 38.3888 181.688 38.4051 181.821 38.4766C181.954 38.5482 182.053 38.6692 182.097 38.8134L182.105 38.8481V38.862L188.359 66.4014C188.485 66.9293 188.603 67.4573 188.721 67.9853ZM195.038 93.8295C195.045 93.8419 195.048 93.8563 195.045 93.8702C195.043 93.8842 195.035 93.8968 195.025 93.906C195.018 93.9125 195.011 93.9178 195.002 93.9214C194.994 93.9249 194.985 93.9268 194.976 93.9268C194.967 93.9268 194.958 93.9249 194.95 93.9214C194.941 93.9178 194.934 93.9125 194.927 93.906C194.92 93.899 194.913 93.8851 194.906 93.8782C194.127 91.8079 193.466 89.6959 192.854 87.57C193.014 87.57 193.167 87.563 193.32 87.5561C193.842 89.6542 194.406 91.7453 195.032 93.8087C195.032 93.8156 195.038 93.8226 195.038 93.8295Z" fill="black"/>
<path d="M114.65 104.431C110.818 103.903 106.98 103.424 103.126 103.119C99.2748 102.781 95.4132 102.584 91.5509 102.485C87.6886 102.38 83.8243 102.389 79.9642 102.487C76.1079 102.59 72.2385 102.787 68.4192 103.167L68.4813 103.157C66.1841 103.67 63.9925 104.574 62.0029 105.83C61.0353 106.472 60.1433 107.221 59.3437 108.062C58.5584 108.911 57.8748 109.849 57.3065 110.857C56.2017 112.91 55.5164 115.162 55.2905 117.482C55.0373 119.805 55.1437 122.154 55.6059 124.446L55.6066 124.449C55.6107 124.469 55.6153 124.494 55.6185 124.513C56.1602 127.831 57.5335 131.077 58.9771 134.221C60.4454 137.372 62.0949 140.45 63.8168 143.487C67.2679 149.561 71.0286 155.466 74.8642 161.32C78.7005 167.175 82.6466 172.96 86.7026 178.674L92.8169 187.219L94.3589 189.345L95.1309 190.399C95.3601 190.706 95.6263 190.983 95.9235 191.224C96.521 191.71 97.2321 192.038 97.9906 192.175C98.3915 192.239 98.797 192.27 99.203 192.268L100.515 192.304C104.013 192.387 107.516 192.409 111.004 192.276C111.875 192.243 112.746 192.195 113.614 192.134C114.051 192.103 114.489 192.07 114.856 192.007C115.237 191.928 115.605 191.797 115.949 191.618C116.646 191.254 117.225 190.7 117.618 190.02C118.011 189.339 118.202 188.562 118.168 187.777C118.15 187.384 118.079 186.994 117.957 186.62L117.54 185.373L116.707 182.88L115.038 177.895L111.687 167.929C107.165 154.658 102.695 141.368 98.0899 128.128C98.0738 128.082 98.0694 128.032 98.0773 127.983C98.0852 127.934 98.1051 127.888 98.1352 127.849C98.1653 127.81 98.2046 127.779 98.2497 127.759C98.2948 127.739 98.3442 127.73 98.3935 127.733L98.3991 127.734C103.413 128.121 108.449 128.343 113.48 128.449C118.513 128.535 123.549 128.482 128.572 128.235C133.589 128.02 138.589 127.501 143.544 126.681C146.008 126.274 148.442 125.699 150.827 124.96C153.191 124.269 155.434 123.22 157.479 121.849C157.565 121.788 157.667 121.751 157.772 121.742C157.878 121.734 157.984 121.754 158.079 121.8C158.174 121.847 158.255 121.918 158.313 122.007C158.371 122.095 158.404 122.198 158.408 122.304L159.375 143.137L159.615 148.318L159.906 153.52C160.105 156.988 160.273 160.455 160.527 163.918L161.227 174.311C161.353 176.041 161.442 177.778 161.597 179.504L162.124 184.669L162.388 187.251L162.454 187.896C162.481 188.103 162.515 188.27 162.551 188.457C162.764 189.365 163.219 190.199 163.867 190.871C164.515 191.543 165.333 192.028 166.234 192.276C166.6 192.373 166.976 192.434 167.354 192.458L168.655 192.559L171.257 192.76L176.46 193.162L181.663 193.564L184.264 193.765L184.59 193.791L184.853 193.795C185.376 193.805 185.894 193.699 186.371 193.485C187.01 193.204 187.558 192.752 187.954 192.178C188.351 191.604 188.58 190.932 188.615 190.236C188.626 189.925 188.597 189.455 188.576 189.026L188.51 187.725L188.379 185.122L187.332 164.299C186.644 150.417 185.909 136.537 185.284 122.652C185.279 122.542 185.296 122.432 185.333 122.328C185.371 122.225 185.428 122.129 185.503 122.048C185.577 121.967 185.667 121.901 185.767 121.854C185.867 121.808 185.975 121.781 186.085 121.776C186.113 121.775 186.142 121.775 186.17 121.777L186.19 121.778C188.307 121.884 190.428 121.66 192.475 121.112C194.523 120.586 196.445 119.66 198.132 118.388C199.787 117.09 201.121 115.429 202.029 113.534C202.923 111.599 203.487 109.529 203.699 107.409L203.719 107.664C201.938 101.907 198.199 96.5112 193.019 93.2728C192.347 92.9158 191.691 92.5072 191.008 92.189C190.321 91.869 189.611 91.6025 188.884 91.3918C187.409 90.9633 185.897 90.6731 184.368 90.5249C181.277 90.2317 178.163 90.2934 175.086 90.7087C171.998 91.0854 168.962 91.8078 166.036 92.8621C164.581 93.3829 163.182 94.049 161.86 94.8504C161.21 95.2507 160.602 95.7151 160.045 96.2366C159.487 96.7355 159.031 97.3382 158.704 98.011C158.547 98.3426 158.435 98.6936 158.371 99.0547L158.194 100.209C158.095 100.982 157.996 101.757 157.929 102.535C157.782 104.09 157.685 105.652 157.629 107.216C157.513 110.344 157.512 113.476 157.626 116.611C157.627 116.634 157.619 116.657 157.603 116.675C157.587 116.693 157.565 116.703 157.541 116.704C157.518 116.705 157.495 116.697 157.477 116.681C157.46 116.666 157.449 116.644 157.448 116.62C157.268 113.486 157.202 110.348 157.248 107.206C157.271 105.635 157.334 104.064 157.449 102.495C157.5 101.71 157.583 100.926 157.667 100.142L157.82 98.9681C157.884 98.5556 158.003 98.1534 158.173 97.7719C158.516 97.0229 159.002 96.3477 159.603 95.7838C160.18 95.2198 160.812 94.715 161.49 94.2771C162.836 93.4198 164.266 92.7006 165.757 92.1305C171.729 89.905 178.113 88.9945 184.471 89.4612C186.071 89.593 187.656 89.8736 189.204 90.2996C189.988 90.5148 190.755 90.7899 191.497 91.1226C192.24 91.4559 192.928 91.869 193.646 92.2403C196.401 93.9286 198.805 96.1312 200.726 98.7277C202.653 101.322 204.132 104.22 205.102 107.301C205.124 107.373 205.132 107.449 205.125 107.524L205.122 107.556C204.913 109.844 204.322 112.081 203.375 114.175C202.383 116.289 200.916 118.148 199.089 119.606C197.249 121.024 195.145 122.063 192.9 122.664C190.671 123.283 188.358 123.545 186.046 123.44L186.952 122.566C187.75 136.443 188.439 150.325 189.173 164.205L190.26 185.026L190.396 187.628L190.464 188.929C190.484 189.368 190.52 189.765 190.507 190.323C190.46 191.373 190.117 192.388 189.518 193.253C188.92 194.117 188.089 194.795 187.122 195.209C186.401 195.526 185.62 195.681 184.834 195.665L184.445 195.653L184.12 195.627L181.518 195.412L176.315 194.984L171.112 194.555L168.51 194.341L167.21 194.234C166.72 194.198 166.235 194.115 165.761 193.986C164.554 193.65 163.461 192.994 162.597 192.089C161.732 191.183 161.129 190.062 160.85 188.842C160.803 188.604 160.755 188.343 160.728 188.119L160.664 187.468L160.411 184.863L159.906 179.655C159.759 177.92 159.678 176.184 159.562 174.449L158.913 164.036C158.671 160.567 158.559 157.089 158.392 153.617L158.159 148.408L157.974 143.173L157.236 122.343L158.166 122.798C156.006 124.219 153.64 125.298 151.151 125.999C148.713 126.726 146.228 127.285 143.713 127.671C138.711 128.442 133.667 128.908 128.608 129.064C123.56 129.258 118.51 129.24 113.465 129.111C108.42 128.983 103.382 128.74 98.3472 128.329L98.656 127.935C103.147 141.217 107.756 154.456 112.344 167.703L115.812 177.63L117.554 182.59L118.424 185.071L118.859 186.312C119.015 186.769 119.109 187.244 119.139 187.726C119.194 188.702 118.969 189.673 118.491 190.526C118.014 191.379 117.303 192.078 116.441 192.542C116.011 192.774 115.55 192.946 115.072 193.051C114.574 193.143 114.137 193.177 113.7 193.215C112.818 193.291 111.937 193.351 111.056 193.397C107.532 193.581 104.011 193.608 100.492 193.573L99.1729 193.556C98.7013 193.563 98.2299 193.531 97.7634 193.462C96.7842 193.298 95.8625 192.889 95.0839 192.273C94.695 191.967 94.3455 191.614 94.0436 191.221L93.247 190.165L91.6717 188.056C89.5707 185.244 87.5185 182.397 85.4783 179.541C81.4016 173.826 77.4192 168.044 73.5311 162.195C69.6663 156.33 65.9576 150.357 62.5033 144.226C60.7848 141.155 59.1363 138.039 57.6607 134.827C56.212 131.607 54.8162 128.325 54.2399 124.7L54.2525 124.767C53.765 122.32 53.6622 119.811 53.9476 117.331C54.204 114.835 54.969 112.418 56.1955 110.229C56.8281 109.141 57.5858 108.131 58.4531 107.219C59.3296 106.32 60.3049 105.524 61.3605 104.844C63.4798 103.542 65.8083 102.615 68.2434 102.105L68.2551 102.102L68.3061 102.095C72.1949 101.76 76.0641 101.617 79.946 101.565C83.8247 101.509 87.7017 101.576 91.577 101.767C95.4498 101.948 99.3179 102.228 103.17 102.648C107.028 103.024 110.86 103.621 114.679 104.255C114.69 104.257 114.701 104.261 114.711 104.268C114.721 104.274 114.73 104.282 114.737 104.291C114.744 104.301 114.748 104.312 114.751 104.323C114.754 104.335 114.754 104.346 114.752 104.358C114.748 104.381 114.735 104.401 114.716 104.415C114.697 104.429 114.673 104.435 114.65 104.431Z" fill="black"/>
<path d="M80.6533 115.759L84.8817 119.189C86.298 120.318 87.7027 121.458 89.1407 122.553C90.5706 123.658 92.0311 124.719 93.5294 125.719C94.2771 126.22 95.0524 126.677 95.8518 127.09C96.6386 127.533 97.4894 127.85 98.3738 128.031C96.5236 127.957 94.8346 127.045 93.249 126.175C91.6733 125.25 90.1594 124.224 88.7171 123.104C87.2773 121.986 85.8745 120.824 84.5348 119.592C83.1905 118.367 81.878 117.106 80.6533 115.759ZM123.811 104.628C127.076 104.987 130.302 105.631 133.454 106.552C136.614 107.468 139.699 108.625 142.682 110.013C145.648 111.45 148.461 113.182 151.079 115.184C153.659 117.227 155.931 119.632 157.823 122.323C156.779 121.068 155.661 119.877 154.475 118.756L153.589 117.917C153.302 117.628 152.996 117.36 152.67 117.116L150.754 115.608C148.122 113.698 145.319 112.035 142.381 110.639C139.439 109.241 136.404 108.046 133.299 107.061C131.748 106.557 130.18 106.106 128.596 105.707C127.018 105.279 125.42 104.935 123.811 104.628ZM174.686 109.765C175.438 109.821 176.172 110.021 176.848 110.355C177.523 110.693 178.164 111.093 178.764 111.55C179.956 112.471 181.019 113.548 181.924 114.751C182.394 115.337 182.789 115.973 183.219 116.584C183.589 117.233 183.997 117.86 184.332 118.526C184.656 119.197 185.001 119.856 185.305 120.534C185.576 121.228 185.869 121.91 186.119 122.608C185.356 121.331 184.645 120.041 183.868 118.791L182.669 116.945C182.232 116.359 181.84 115.738 181.375 115.176C180.499 114.012 179.511 112.936 178.427 111.963C177.888 111.475 177.305 111.036 176.687 110.652C176.073 110.248 175.398 109.949 174.686 109.765ZM139.674 50.8306C141.03 55.0813 142.301 59.3537 143.485 63.6479C144.688 67.9373 145.813 72.2467 146.922 76.5599C148.006 80.8796 149.072 85.2035 150.061 89.5473C151.068 93.8863 151.989 98.2473 152.821 102.63C151.464 98.3801 150.193 94.1079 149.008 89.8137C147.805 85.5242 146.681 81.2148 145.574 76.9011C144.492 72.581 143.425 68.2571 142.437 63.9132C141.43 59.5741 140.509 55.2132 139.674 50.8306ZM122.968 100.662C122.901 101.187 122.687 101.682 122.349 102.09C122.011 102.498 121.564 102.802 121.06 102.965C120.717 103.056 120.364 103.103 120.009 103.107C118.624 103.081 117.252 102.831 115.947 102.366C114.634 101.946 113.376 101.371 112.199 100.653C111.609 100.286 111.059 99.8588 110.557 99.3786C110.301 99.1347 110.077 98.8595 109.89 98.5595C109.683 98.2534 109.572 97.8926 109.572 97.5234L109.79 97.6118C109.297 98.1314 108.674 98.5099 107.986 98.7081C107.805 98.7523 107.617 98.7583 107.434 98.7257C107.251 98.6931 107.077 98.6227 106.922 98.5189C106.639 98.3215 106.35 98.1304 106.076 97.9096C105.487 97.4831 105.082 96.8503 104.941 96.138C104.866 95.4223 104.97 94.6993 105.243 94.0335L105.23 94.099C105.237 93.6254 105.152 93.1549 104.98 92.7137C104.963 92.685 104.942 92.6593 104.917 92.6376C104.854 92.5886 104.797 92.5336 104.744 92.4734C104.65 92.3611 104.569 92.2385 104.503 92.1078C104.379 91.8574 104.294 91.5899 104.25 91.3142C104.161 90.7693 104.207 90.2111 104.383 89.688C104.555 89.1766 104.805 88.6949 105.125 88.2599L105.088 88.325C105.272 87.8139 105.34 87.2683 105.286 86.728C105.269 86.6001 105.241 86.4739 105.203 86.3508C105.164 86.2354 105.113 86.12 105.046 85.9648C104.671 85.0679 104.656 84.0611 105.005 83.1536C105.219 82.5746 105.506 82.0253 105.86 81.519C105.874 81.4983 105.89 81.4795 105.909 81.4629L105.914 81.4582C106.028 81.3515 106.13 81.2333 106.22 81.1055C106.311 80.976 106.387 80.8357 106.444 80.6877C106.557 80.3977 106.577 80.0797 106.5 79.7782L106.51 79.8095C106.237 79.172 106.117 78.4795 106.16 77.7875C106.185 77.5882 106.261 77.3989 106.383 77.2386C106.51 77.0816 106.683 76.9676 106.878 76.9123C107.199 76.8005 107.511 76.7191 107.827 76.6346C109.085 76.3012 110.356 76.0406 111.625 75.7727C111.629 75.7719 111.633 75.7719 111.636 75.7726C111.64 75.7733 111.644 75.7748 111.647 75.7769C111.651 75.779 111.653 75.7818 111.656 75.785C111.658 75.7882 111.659 75.7919 111.66 75.7957C111.662 75.803 111.66 75.8106 111.656 75.817C111.653 75.8234 111.647 75.8281 111.639 75.8303L107.927 76.9741C107.623 77.0749 107.313 77.1768 107.028 77.2954C106.91 77.3299 106.806 77.4033 106.734 77.5039C106.667 77.6077 106.626 77.7268 106.616 77.8503C106.611 78.4556 106.741 79.0544 106.999 79.6023L107.01 79.6338C107.131 80.0419 107.121 80.4774 106.982 80.8795C106.914 81.0755 106.823 81.2623 106.709 81.4357C106.594 81.6118 106.458 81.7724 106.302 81.9136L106.356 81.853C105.668 82.7328 105.331 83.8364 105.411 84.9499C105.454 85.2173 105.528 85.4788 105.631 85.7291C105.679 85.8455 105.745 86.0022 105.797 86.1672C105.844 86.3267 105.877 86.4902 105.895 86.6555C105.95 87.2955 105.857 87.9397 105.625 88.5385C105.617 88.5599 105.606 88.58 105.592 88.5983L105.588 88.6038C104.974 89.3392 104.671 90.2844 104.744 91.2391C104.772 91.4675 104.834 91.6904 104.928 91.9005C104.973 91.9986 105.029 92.0914 105.095 92.1772C105.124 92.2149 105.157 92.2493 105.194 92.2797C105.266 92.3404 105.326 92.4146 105.37 92.498C105.557 93.011 105.634 93.5579 105.594 94.1026C105.594 94.1252 105.59 94.1475 105.581 94.1683C105.294 94.7708 105.163 95.4356 105.2 96.1018C105.25 96.4298 105.364 96.7448 105.536 97.0284C105.708 97.312 105.935 97.5586 106.204 97.7539C106.744 98.1418 107.276 98.744 107.945 98.5173C108.587 98.3164 109.161 97.9439 109.606 97.4402C109.623 97.4224 109.645 97.4101 109.669 97.4046C109.693 97.3991 109.718 97.4008 109.741 97.4095C109.765 97.4181 109.785 97.4333 109.799 97.4531C109.814 97.473 109.822 97.4967 109.823 97.5213L109.824 97.5286C109.934 98.1637 110.288 98.7308 110.81 99.1096C111.316 99.5412 111.865 99.9195 112.448 100.239C113.617 100.897 114.842 101.449 116.109 101.889C117.363 102.352 118.676 102.637 120.01 102.736C120.66 102.802 121.311 102.63 121.843 102.25C122.123 102.075 122.363 101.842 122.546 101.567C122.73 101.293 122.853 100.982 122.908 100.657C122.909 100.649 122.914 100.642 122.92 100.637C122.926 100.632 122.934 100.63 122.942 100.631C122.949 100.632 122.956 100.636 122.961 100.642C122.965 100.647 122.968 100.654 122.968 100.662ZM122.729 99.4612L122.568 99.1633C122.564 99.1574 122.562 99.1509 122.562 99.1442C122.561 99.1375 122.561 99.1308 122.563 99.1243C122.565 99.1178 122.568 99.1118 122.573 99.1066C122.577 99.1013 122.582 99.097 122.588 99.0938L122.605 99.0881L122.612 99.0872C122.886 99.0487 123.162 99.0375 123.43 98.9905C123.695 98.9375 123.952 98.8539 124.197 98.7416C124.686 98.5478 125.084 98.1764 125.309 97.7018C125.521 97.2221 125.617 96.6994 125.588 96.176C125.575 95.6442 125.487 95.1168 125.327 94.6093C125.307 94.5465 125.313 94.4783 125.343 94.4198C125.374 94.3613 125.426 94.3171 125.489 94.2971C125.507 94.2915 125.525 94.2879 125.544 94.2862C126.204 94.2481 126.849 94.0681 127.433 93.7586C127.714 93.614 127.964 93.4151 128.168 93.1734C128.371 92.9317 128.525 92.652 128.62 92.3506C128.719 92.0529 128.747 91.7362 128.702 91.4258C128.636 91.1212 128.478 90.844 128.25 90.6311C127.77 90.1455 127.226 89.728 126.633 89.3903L126.625 89.3858C126.604 89.373 126.587 89.3535 126.577 89.3303C126.567 89.307 126.566 89.2813 126.572 89.257C126.578 89.2326 126.592 89.2109 126.611 89.195C126.631 89.1792 126.655 89.17 126.68 89.169C127.076 89.1631 127.466 89.0638 127.816 88.879C128.166 88.6942 128.468 88.4293 128.696 88.1059C129.119 87.4237 129.296 86.618 129.198 85.8216C129.178 85.6313 129.129 85.445 129.055 85.2686C129.013 85.1877 128.97 85.1321 128.94 85.1376C128.829 85.1054 128.722 85.0623 128.62 85.0089C128.245 84.8113 127.899 84.5892 127.551 84.3656C126.859 83.9158 126.187 83.4448 125.524 82.9553C125.485 82.9264 125.455 82.8864 125.439 82.8405C125.423 82.7946 125.422 82.745 125.435 82.6981C125.447 82.6512 125.474 82.6093 125.511 82.5779C125.548 82.5464 125.594 82.5269 125.642 82.5218L125.656 82.5204C125.925 82.5092 126.182 82.4084 126.386 82.2342C126.554 82.032 126.648 81.778 126.65 81.5151C126.662 81.2118 126.638 80.9083 126.578 80.6108C126.544 80.3236 126.472 80.0423 126.364 79.7739C126.247 79.5686 126.041 79.488 125.71 79.3384C125.414 79.2 125.115 79.0634 124.822 78.9137C124.228 78.6162 123.653 78.2837 123.098 77.918C122.018 77.1717 120.96 76.4501 119.839 75.8137C119.286 75.4934 118.708 75.2192 118.11 74.9938C117.819 74.8816 117.518 74.7962 117.212 74.7385C117.064 74.7137 116.915 74.7032 116.766 74.7072C116.646 74.7101 116.529 74.7376 116.42 74.7878L116.358 74.8293C116.35 74.8344 116.341 74.838 116.332 74.84C115.248 75.0695 114.155 75.2666 113.065 75.4761C113.062 75.4769 113.058 75.4769 113.054 75.4761C113.05 75.4753 113.046 75.4738 113.043 75.4717C113.04 75.4695 113.037 75.4667 113.035 75.4634C113.033 75.4602 113.031 75.4566 113.03 75.4527C113.029 75.4454 113.03 75.4378 113.034 75.4315C113.038 75.4251 113.044 75.4204 113.051 75.4183C114.118 75.1137 115.183 74.7967 116.255 74.5121L116.168 74.5642C116.327 74.431 116.526 74.3526 116.733 74.3407C116.909 74.3238 117.087 74.3245 117.263 74.3427C117.601 74.3807 117.934 74.4544 118.257 74.5625C118.888 74.7724 119.501 75.034 120.089 75.3446C121.251 75.9562 122.37 76.6452 123.439 77.407C123.976 77.7545 124.533 78.0698 125.107 78.3512L125.975 78.7844C126.341 78.9117 126.657 79.1532 126.875 79.4732C126.969 79.6454 127.03 79.8332 127.057 80.0274L127.143 80.5183C127.203 80.8612 127.222 81.2101 127.199 81.5575C127.182 81.9511 127.023 82.3252 126.75 82.6101C126.452 82.8596 126.078 82.9991 125.689 83.0052L125.821 82.5703C126.461 83.0743 127.105 83.5808 127.759 84.066C128.087 84.3061 128.419 84.5458 128.761 84.7471C128.839 84.7921 128.92 84.8308 129.003 84.8629C129.072 84.8855 129.135 84.9242 129.186 84.9757C129.237 85.0272 129.276 85.0901 129.298 85.1592C129.374 85.3641 129.42 85.5792 129.433 85.7974C129.512 86.6437 129.306 87.4921 128.847 88.2077C128.605 88.5597 128.285 88.8509 127.912 89.0585C127.539 89.266 127.123 89.3842 126.696 89.4037L126.743 89.1825C127.383 89.4995 127.977 89.9012 128.509 90.3769C128.807 90.6293 129.02 90.9662 129.121 91.3425C129.201 91.7202 129.191 92.1114 129.092 92.4845C128.985 92.8514 128.806 93.1936 128.566 93.4915C128.326 93.7893 128.03 94.0369 127.694 94.22C127.041 94.565 126.317 94.7556 125.578 94.777L125.795 94.4541C125.958 95.0123 126.041 95.5909 126.041 96.1725C126.05 96.7645 125.91 97.3492 125.633 97.8728C125.347 98.4008 124.868 98.7982 124.296 98.9822C124.025 99.0778 123.743 99.1416 123.457 99.1724C123.174 99.1936 122.891 99.1871 122.611 99.1882L122.655 99.1122L122.785 99.4395C122.788 99.4465 122.788 99.4543 122.785 99.4613C122.782 99.4684 122.777 99.4741 122.77 99.4773C122.763 99.4805 122.755 99.4809 122.748 99.4786C122.741 99.4762 122.735 99.4712 122.731 99.4646L122.729 99.4612Z" fill="black"/>
<path d="M111.253 78.9068L119.036 78.9616C120.372 78.9962 121.676 79.377 122.82 80.0665C123.38 80.4189 123.906 80.8225 124.392 81.2719L125.867 82.538C125.897 82.5635 125.921 82.5945 125.939 82.6294C125.956 82.6642 125.967 82.7022 125.97 82.7411C125.973 82.7801 125.968 82.8192 125.956 82.8563C125.943 82.8934 125.924 82.9278 125.899 82.9574C125.873 82.987 125.842 83.0113 125.807 83.0289C125.772 83.0465 125.734 83.0571 125.695 83.0601C125.656 83.063 125.617 83.0582 125.58 83.046C125.543 83.0338 125.508 83.0145 125.479 82.989L125.47 82.9814L124.044 81.6598C123.596 81.2102 123.106 80.8031 122.582 80.4439C121.519 79.7475 120.292 79.339 119.023 79.2586L111.253 78.9068ZM109.431 85.0073L114.113 84.5076L116.454 84.2578C117.241 84.1396 118.041 84.1253 118.832 84.2155C119.629 84.319 120.405 84.5466 121.132 84.8898C121.848 85.2448 122.52 85.6841 123.131 86.1982L126.871 89.055C126.903 89.0785 126.93 89.108 126.95 89.1419C126.97 89.1758 126.983 89.2133 126.989 89.2524C126.994 89.2914 126.992 89.3311 126.982 89.3692C126.972 89.4074 126.954 89.4431 126.93 89.4744C126.906 89.5057 126.876 89.5319 126.842 89.5516C126.808 89.5712 126.77 89.5839 126.731 89.5888C126.692 89.5937 126.652 89.5908 126.614 89.5802C126.576 89.5697 126.541 89.5517 126.51 89.5273L126.502 89.5215L122.854 86.5481C122.281 86.0326 121.648 85.5879 120.968 85.2233C120.284 84.8734 119.549 84.6326 118.79 84.5097C118.023 84.398 117.244 84.3879 116.474 84.4798L114.126 84.6556L109.431 85.0073ZM109.056 91.9103L117.778 90.6941C118.918 90.5055 120.087 90.7427 121.062 91.3603L121.995 91.9449L125.724 94.2834C125.79 94.3255 125.837 94.3922 125.855 94.4688C125.872 94.5455 125.858 94.6259 125.817 94.6925C125.775 94.7591 125.708 94.8064 125.631 94.8241C125.555 94.8418 125.474 94.8284 125.407 94.787L125.399 94.7815L121.751 92.3185C121.181 91.8815 120.561 91.5131 119.905 91.221C119.237 90.9746 118.52 90.895 117.814 90.9891L109.056 91.9103ZM109.699 97.5291L113.032 97.1344C114.149 97.0122 115.242 96.8502 116.379 96.7607C117.529 96.7135 118.675 96.924 119.733 97.3769C120.772 97.8628 121.744 98.3743 122.753 98.8717C122.824 98.9067 122.878 98.9682 122.903 99.0429C122.929 99.1177 122.923 99.1994 122.888 99.2701C122.853 99.3408 122.792 99.3947 122.717 99.4201C122.642 99.4454 122.56 99.44 122.489 99.405L122.479 99.3995L122.475 99.3972C121.5 98.8613 120.515 98.2888 119.549 97.783C118.561 97.3084 117.48 97.0607 116.384 97.058C115.288 97.0955 114.158 97.2101 113.046 97.2824L109.699 97.5291ZM188.268 68.41C189.383 67.1385 190.696 66.0543 192.156 65.1991C192.897 64.751 193.722 64.4615 194.581 64.3487C195.439 64.236 196.312 64.3025 197.143 64.5441C197.353 64.6149 197.556 64.7034 197.751 64.8087C197.94 64.9214 198.122 65.046 198.295 65.1818C199.351 65.9602 200.148 67.0374 200.583 68.2736C200.87 69.0949 201.006 69.9611 200.986 70.8306C200.982 71.0474 200.967 71.264 200.946 71.4798C200.927 71.6727 200.924 71.8669 200.937 72.0603C200.951 72.4145 201.077 72.7552 201.298 73.0331L201.327 73.0631C201.67 73.4761 201.921 73.9578 202.062 74.4758C202.203 74.9938 202.231 75.5359 202.144 76.0656C202.068 76.5819 201.925 77.0861 201.719 77.5655C201.527 78.0535 201.204 78.4713 201.28 78.8318C201.326 79.0515 201.402 79.2638 201.507 79.4623C201.627 79.6893 201.735 79.9223 201.831 80.1604C202.004 80.6644 202.067 81.1991 202.018 81.7294C202.003 82.2787 201.814 82.8091 201.477 83.244C201.423 83.2973 201.365 83.3468 201.303 83.392C201.26 83.4214 201.218 83.454 201.18 83.4893C201.102 83.5578 201.037 83.6397 200.988 83.7311C200.89 83.9164 200.85 84.1266 200.872 84.335L200.839 84.2594C201.162 84.6784 201.344 85.1895 201.358 85.7185C201.348 85.9833 201.284 86.2434 201.171 86.4832C201.058 86.723 200.898 86.9377 200.701 87.1143C200.32 87.474 199.83 87.6962 199.309 87.7457C199.056 87.74 198.804 87.7046 198.56 87.6403C198.326 87.6078 198.083 87.5959 197.841 87.5857C195.895 87.5526 193.937 87.628 191.982 87.6947C190.026 87.7616 188.068 87.8061 186.107 87.7477C185.117 87.7437 184.13 87.635 183.163 87.4233C182.654 87.3129 182.181 87.079 181.784 86.7423C181.677 86.6452 181.591 86.5278 181.53 86.397C181.47 86.2662 181.436 86.1246 181.431 85.9805C181.425 85.692 181.515 85.4097 181.686 85.177L181.796 85.474C181.111 85.3434 180.435 85.1755 179.769 84.9713C179.078 84.7752 178.429 84.4555 177.852 84.0276C177.53 83.7833 177.31 83.4289 177.233 83.0324C177.19 82.6267 177.303 82.2197 177.549 81.8939C177.993 81.3131 178.558 80.8346 179.203 80.4907L179.245 80.9816C178.713 80.8071 178.19 80.6054 177.679 80.3773C177.16 80.1439 176.667 79.8595 176.205 79.5284C175.725 79.1845 175.32 78.7457 175.017 78.2391C174.851 77.9677 174.742 77.6647 174.699 77.3493C174.656 77.0338 174.678 76.7128 174.766 76.4066L174.744 76.5171C174.756 76.3749 174.801 76.2376 174.878 76.117C174.954 75.9965 175.059 75.8964 175.183 75.8254C175.358 75.7066 175.547 75.6076 175.744 75.5302C176.111 75.3872 176.487 75.2711 176.87 75.1828C177.616 75.0069 178.371 74.8691 179.131 74.77C180.643 74.5682 182.153 74.4395 183.675 74.3555L183.69 74.9694C182.533 74.9712 181.382 74.7962 180.277 74.4504C179.713 74.2715 179.178 74.0097 178.69 73.6737C178.439 73.5024 178.212 73.2983 178.015 73.0667C177.782 72.8185 177.626 72.508 177.566 72.1729C177.553 71.9954 177.577 71.8171 177.635 71.649C177.693 71.4808 177.785 71.3263 177.906 71.1948C178.111 70.9579 178.358 70.7616 178.636 70.616C179.15 70.3363 179.7 70.1274 180.271 69.9951C181.38 69.7319 182.512 69.5783 183.651 69.5366C185.925 69.402 188.163 69.7632 190.368 69.4049C192.597 69.1615 194.722 68.3338 196.527 67.0056L196.53 67.003C196.537 66.9982 196.544 66.996 196.552 66.9967C196.56 66.9975 196.567 67.0013 196.572 67.0073C196.577 67.0132 196.579 67.0209 196.578 67.0286C196.578 67.0364 196.574 67.0435 196.568 67.0486C194.796 68.4738 192.667 69.3894 190.413 69.6969C189.293 69.8734 188.159 69.9486 187.026 69.9216C185.902 69.9105 184.789 69.8801 183.677 69.9697C182.571 70.0327 181.474 70.2039 180.402 70.4808C179.88 70.6124 179.378 70.8137 178.909 71.0793C178.461 71.335 178.089 71.7272 178.135 72.1066C178.306 72.5577 178.623 72.9384 179.037 73.1873C179.476 73.4869 179.958 73.7197 180.466 73.8781C181.51 74.1996 182.598 74.3605 183.69 74.3551C183.77 74.3556 183.847 74.3871 183.904 74.443C183.961 74.4989 183.994 74.5748 183.996 74.6546C183.998 74.7344 183.969 74.8118 183.915 74.8705C183.86 74.9292 183.785 74.9645 183.706 74.969C182.208 75.0569 180.702 75.1905 179.217 75.3942C178.475 75.4987 177.734 75.6122 177.014 75.7809C176.659 75.859 176.311 75.9628 175.971 76.0912C175.816 76.1501 175.667 76.2254 175.528 76.316C175.392 76.3985 175.332 76.5021 175.34 76.5171C175.343 76.5223 175.345 76.5279 175.345 76.5337C175.346 76.5395 175.345 76.5454 175.343 76.5509L175.319 76.6279C175.209 77.0815 175.283 77.5601 175.526 77.959C175.786 78.3971 176.133 78.7776 176.545 79.077C176.973 79.3888 177.431 79.6574 177.912 79.879C178.401 80.1022 178.901 80.3004 179.411 80.473C179.478 80.4963 179.534 80.5456 179.565 80.6098C179.597 80.6741 179.601 80.7482 179.578 80.8157C179.555 80.8785 179.511 80.9311 179.453 80.9639C178.874 81.2587 178.364 81.6716 177.955 82.1759C177.774 82.3982 177.684 82.6809 177.703 82.9669C177.758 83.2521 177.917 83.5072 178.148 83.6836C178.674 84.084 179.267 84.3874 179.9 84.5796C180.546 84.7917 181.204 84.9685 181.87 85.1093C181.919 85.1202 181.961 85.15 181.988 85.1921C182.015 85.2342 182.024 85.2852 182.013 85.334C182.007 85.3602 181.995 85.3849 181.979 85.4065C181.847 85.5621 181.779 85.7618 181.789 85.9653C181.799 86.1689 181.885 86.3612 182.031 86.5036C182.38 86.8035 182.797 87.0138 183.245 87.1164C184.188 87.335 185.15 87.4538 186.118 87.4707C188.067 87.5557 190.022 87.5385 191.976 87.4986C193.931 87.4736 195.882 87.3331 197.848 87.3599C198.095 87.368 198.341 87.3769 198.592 87.4091C198.82 87.469 199.055 87.4996 199.291 87.5001C199.749 87.4426 200.176 87.2346 200.504 86.9088C200.668 86.7558 200.8 86.5712 200.891 86.3661C200.982 86.1611 201.031 85.9397 201.035 85.7153C201.008 85.2616 200.838 84.8279 200.55 84.4762L200.546 84.4709C200.531 84.4501 200.521 84.4259 200.517 84.4003C200.472 84.1112 200.52 83.8154 200.652 83.5544C200.718 83.4238 200.806 83.3057 200.913 83.2058C200.965 83.1557 201.021 83.1094 201.08 83.0675C201.117 83.0373 201.153 83.005 201.187 82.9707C201.445 82.5969 201.583 82.1535 201.582 81.6995C201.614 81.2329 201.548 80.7648 201.387 80.3256C201.134 79.8762 200.933 79.3996 200.789 78.905C200.751 78.6091 200.803 78.3087 200.939 78.043C201.051 77.7943 201.16 77.5953 201.25 77.3691C201.435 76.9302 201.561 76.469 201.627 75.9974C201.698 75.5393 201.672 75.0715 201.551 74.624C201.43 74.1765 201.217 73.7593 200.925 73.3992L200.954 73.429C200.207 72.6161 200.456 71.5618 200.486 70.8185C200.514 70.0072 200.395 69.1976 200.135 68.4284C199.878 67.6593 199.465 66.9515 198.921 66.3495C198.652 66.0449 198.354 65.7661 198.032 65.5166C197.732 65.2544 197.384 65.0504 197.009 64.9153C196.227 64.6735 195.403 64.5949 194.589 64.6843C193.775 64.7738 192.989 65.0294 192.278 65.4352C190.802 66.2221 189.463 67.2403 188.311 68.4509C188.305 68.4566 188.298 68.4598 188.29 68.4599C188.282 68.46 188.274 68.457 188.269 68.4515C188.263 68.446 188.26 68.4386 188.26 68.4309C188.26 68.4232 188.263 68.4157 188.268 68.41Z" fill="black"/>
<path d="M183.719 74.3651C185.89 74.6143 188.078 74.6683 190.258 74.5265C191.349 74.4605 192.432 74.2919 193.491 74.0229C194.566 73.7923 195.568 73.3007 196.407 72.5917C195.593 73.3439 194.606 73.8844 193.533 74.1657C192.474 74.486 191.387 74.7059 190.287 74.8224C188.086 75.0657 185.867 75.1106 183.658 74.9566C183.619 74.9541 183.581 74.9439 183.546 74.9267C183.511 74.9095 183.479 74.8855 183.453 74.8561C183.428 74.8268 183.408 74.7927 183.395 74.7557C183.383 74.7187 183.377 74.6796 183.38 74.6406C183.382 74.6016 183.393 74.5635 183.41 74.5284C183.427 74.4934 183.451 74.462 183.481 74.4362C183.51 74.4105 183.544 74.3907 183.581 74.3781C183.618 74.3656 183.657 74.3604 183.696 74.3629L183.709 74.364L183.719 74.3651ZM179.362 80.43C182.307 80.7714 185.27 80.9346 188.235 80.9186C189.718 80.9114 191.199 80.8138 192.67 80.6265C194.152 80.4907 195.592 80.0637 196.908 79.3699C195.609 80.1103 194.176 80.5873 192.693 80.7734C191.22 81.0111 189.734 81.1588 188.243 81.2158C185.26 81.3313 182.273 81.2663 179.298 81.0211C179.22 81.0149 179.147 80.9776 179.095 80.9175C179.044 80.8575 179.019 80.7796 179.025 80.701C179.032 80.6224 179.069 80.5495 179.129 80.4983C179.189 80.4472 179.267 80.422 179.346 80.4283L179.354 80.4291L179.362 80.43ZM181.843 84.9949C184.09 85.118 186.351 85.1717 188.606 85.1369C189.733 85.1105 190.862 85.0728 191.984 84.9628C193.112 84.9033 194.221 84.6526 195.264 84.2217C194.235 84.7003 193.132 85.0009 192.002 85.1104C190.879 85.2703 189.748 85.3578 188.618 85.4339C186.354 85.568 184.091 85.6138 181.819 85.589C181.74 85.5882 181.665 85.556 181.61 85.4996C181.554 85.4433 181.524 85.3673 181.525 85.2884C181.526 85.2095 181.558 85.1342 181.614 85.0791C181.671 85.0239 181.747 84.9934 181.826 84.9943L181.838 84.9946L181.843 84.9949ZM179.899 25.0652C180.017 25.7078 180.094 26.357 180.13 27.0091C180.167 27.6721 180.142 28.337 180.056 28.9955C179.963 29.6835 179.736 30.3466 179.388 30.9473C179.202 31.2893 178.946 31.5876 178.635 31.8223C178.325 32.057 177.967 32.2226 177.587 32.3081L177.997 31.7771C178.143 32.4728 178.342 33.1562 178.592 33.8214C178.711 34.1358 178.857 34.4396 179.027 34.7296C179.136 34.9447 179.308 35.122 179.52 35.2385L179.453 35.2195C182.105 35.7615 184.757 36.3073 187.392 36.9303C190.025 37.5605 192.643 38.2603 195.27 38.9209C200.52 40.2412 205.835 41.2934 211.192 42.0734L212.188 42.2082L212.693 42.2757C212.931 42.3155 213.158 42.4036 213.36 42.5347C213.983 43.0001 214.474 43.6202 214.783 44.3335C215.382 45.5929 215.851 46.9103 216.182 48.265C216.849 50.915 217.352 53.6036 217.687 56.3153C218.365 61.7154 218.573 67.1641 218.308 72.6L218.306 72.6313C218.3 72.7485 218.249 72.8587 218.162 72.938C218.075 73.0174 217.961 73.0596 217.843 73.0555C215.092 72.9571 212.341 72.8439 209.591 72.6612C209.573 72.66 209.556 72.6521 209.544 72.6392C209.532 72.6263 209.526 72.6094 209.526 72.5917C209.526 72.574 209.532 72.5571 209.544 72.5442C209.556 72.5313 209.573 72.5234 209.591 72.5222C212.342 72.3395 215.092 72.2263 217.843 72.128L217.379 72.5833C217.256 67.203 216.85 61.8289 216.216 56.4969C215.929 53.8354 215.499 51.1912 214.927 48.576C214.647 47.2946 214.257 46.0399 213.759 44.8261C213.557 44.2813 213.225 43.7941 212.791 43.4069C212.714 43.3463 212.626 43.2998 212.533 43.2695C212.387 43.2334 212.201 43.2017 212.038 43.1676L211.032 42.9588L203.102 41.1383C200.458 40.5543 197.804 40.0152 195.135 39.5471C192.468 39.0705 189.794 38.624 187.136 38.1003C184.48 37.5699 181.842 36.9563 179.207 36.331L179.176 36.3236L179.14 36.312C178.68 36.1018 178.307 35.7393 178.084 35.2859C177.892 34.9301 177.731 34.5583 177.603 34.1747C177.37 33.4405 177.198 32.6879 177.09 31.9251C177.072 31.8029 177.103 31.6786 177.177 31.5794C177.25 31.4803 177.36 31.4143 177.483 31.3962L177.5 31.3939C177.737 31.3506 177.961 31.2521 178.153 31.1066C178.38 30.9441 178.578 30.7444 178.738 30.5161C179.074 30.0163 179.319 29.4607 179.461 28.8752C179.611 28.2621 179.703 27.6366 179.738 27.0066C179.776 26.3694 179.768 25.7274 179.761 25.0804C179.761 25.0713 179.762 25.0621 179.765 25.0535C179.768 25.0449 179.772 25.0369 179.779 25.0301C179.785 25.0232 179.792 25.0177 179.8 25.0137C179.808 25.0097 179.817 25.0074 179.827 25.0068C179.844 25.0065 179.86 25.0122 179.874 25.0229C179.887 25.0335 179.896 25.0485 179.899 25.0652ZM126.687 50.83C126.371 50.0576 126.3 49.2074 126.483 48.3935C126.59 47.9719 126.781 47.5761 127.045 47.2295C127.317 46.8846 127.649 46.5911 128.025 46.363C129.482 45.5398 130.942 44.9088 132.423 44.2459C135.374 42.9359 138.363 41.7368 141.328 40.5001C142.816 39.897 144.301 39.2816 145.745 38.6255C147.23 37.9217 148.778 37.3594 150.369 36.9461C153.485 36.1225 156.616 35.3462 159.787 34.7022C156.782 35.9004 153.738 36.9664 150.679 37.985C149.177 38.4791 147.716 39.0907 146.31 39.8142C144.837 40.5274 143.349 41.1551 141.859 41.7837C138.867 43.0017 135.854 44.1462 132.828 45.2472C131.334 45.8139 129.775 46.3304 128.356 46.9556C127.667 47.2537 127.125 47.8126 126.848 48.5096C126.578 49.2528 126.522 50.0567 126.687 50.83Z" fill="black"/>
<path d="M199.965 67.3794C201.613 67.4812 203.222 67.9268 204.688 68.6876C206.172 69.3977 207.592 70.2353 208.931 71.1911C210.265 72.1456 211.54 73.1796 212.75 74.2875C213.954 75.394 215.104 76.5489 216.236 77.7295C215.586 77.2322 214.963 76.7066 214.326 76.1962C213.698 75.6779 213.091 75.128 212.449 74.6321C211.187 73.6118 209.907 72.6132 208.587 71.6758C207.271 70.7368 205.9 69.8749 204.484 69.0946C203.776 68.7035 203.045 68.3576 202.294 68.0588C201.55 67.734 200.767 67.5057 199.965 67.3794Z" fill="black"/>
<path d="M199.987 87.4213C202.329 89.7227 204.922 91.7546 207.717 93.479C208.414 93.8941 209.154 94.2322 209.925 94.4873C210.689 94.7542 211.513 94.8031 212.303 94.6282C213.907 94.2526 215.305 93.2784 216.212 91.9055C217.062 90.5254 217.581 88.9675 217.728 87.3539C217.882 85.7338 217.852 84.1016 217.638 82.4884C217.438 80.8552 217.384 79.1954 217.271 77.5487C217.179 75.8985 217.109 74.2472 217.063 72.5947C217.063 72.5908 217.064 72.5869 217.065 72.5833C217.067 72.5796 217.069 72.5763 217.071 72.5735C217.074 72.5706 217.077 72.5683 217.081 72.5667C217.084 72.5651 217.088 72.5643 217.092 72.5642C217.1 72.564 217.107 72.5665 217.112 72.5712C217.118 72.576 217.122 72.5826 217.123 72.5898C217.593 75.8628 217.906 79.1374 218.248 82.4212C218.49 84.0798 218.502 85.7638 218.284 87.4256C218.09 89.1103 217.468 90.7175 216.478 92.0948C215.955 92.7551 215.336 93.3334 214.641 93.8103C213.929 94.2512 213.16 94.5933 212.356 94.8272C211.528 95.0258 210.663 95.0188 209.838 94.8068C209.021 94.6011 208.23 94.3008 207.482 93.9121C206.016 93.1117 204.647 92.1434 203.405 91.0267C202.156 89.9337 200.998 88.7413 199.942 87.4612C199.937 87.4551 199.935 87.4473 199.936 87.4394C199.937 87.4316 199.941 87.4243 199.947 87.4193C199.953 87.4149 199.96 87.4126 199.967 87.413C199.974 87.4134 199.981 87.4163 199.987 87.4213ZM201.925 63.3882C201.692 61.8979 201.558 60.394 201.524 58.8862C201.473 57.3747 201.521 55.8616 201.667 54.3565C201.797 52.8362 202.113 51.3376 202.609 49.8943C202.865 49.1641 203.229 48.4762 203.689 47.8537C203.917 47.541 204.207 47.2772 204.539 47.0777C204.872 46.8783 205.241 46.7473 205.625 46.6924C204.92 46.9202 204.327 47.4058 203.966 48.0517C203.586 48.6765 203.3 49.3535 203.117 50.0612C202.74 51.492 202.486 52.9526 202.359 54.4268C202.2 55.9052 202.13 57.3959 202.056 58.8894C202.02 59.6365 201.999 60.385 201.986 61.1343L201.925 63.3882ZM176.724 40.6475C176.653 40.6475 176.583 40.6215 176.529 40.5744C176.475 40.5272 176.439 40.4621 176.43 40.3911C176.42 40.32 176.436 40.2478 176.475 40.1877C176.514 40.1276 176.574 40.0837 176.643 40.0641C178.043 39.6682 178.845 36.7966 179.037 35.7237C179.05 35.646 179.095 35.5771 179.159 35.5319C179.224 35.4868 179.304 35.4693 179.382 35.4831C179.46 35.497 179.529 35.5411 179.574 35.6058C179.619 35.6705 179.637 35.7505 179.623 35.8281C179.592 36.0004 178.847 40.0586 176.806 40.636C176.779 40.6436 176.752 40.6475 176.724 40.6475Z" fill="black"/>
<path d="M215.409 93.064C215.513 94.7535 215.576 96.4431 215.616 98.1326C215.67 99.8221 215.694 101.512 215.7 103.201C215.7 103.243 215.691 103.283 215.674 103.321C215.657 103.359 215.632 103.392 215.6 103.419C213.952 104.864 212.17 106.149 210.278 107.256C209.322 107.812 208.3 108.246 207.236 108.547C206.692 108.702 206.117 108.718 205.565 108.594C205.293 108.524 205.043 108.385 204.841 108.19C204.639 107.995 204.49 107.751 204.41 107.482C204.516 107.725 204.68 107.939 204.888 108.103C205.096 108.267 205.342 108.377 205.603 108.424C206.127 108.486 206.658 108.424 207.153 108.244C208.165 107.893 209.13 107.417 210.023 106.827C211.843 105.67 213.579 104.385 215.217 102.983L215.118 103.201C215.124 101.512 215.148 99.8222 215.201 98.1326C215.242 96.4431 215.304 94.7535 215.409 93.064ZM98.8068 192.902C99.1722 193.56 99.4377 194.269 99.5946 195.005C99.7756 195.735 99.8455 196.489 99.8022 197.24C99.4355 196.583 99.17 195.874 99.0145 195.138C98.8347 194.407 98.7647 193.654 98.8068 192.902ZM116.636 192.347C117.021 192.837 117.315 193.392 117.504 193.985C117.716 194.571 117.819 195.191 117.808 195.813C117.422 195.324 117.128 194.769 116.94 194.175C116.73 193.589 116.627 192.97 116.636 192.347Z" fill="black"/>
<path d="M122.381 209.371C122.381 209.371 111.666 211.08 109.377 212.366C107.089 213.651 83.9408 216.221 78.2219 216.506C73.3018 216.605 68.3803 216.398 63.4858 215.888C62.7945 215.801 62.1463 215.506 61.6282 215.04C60.515 214.005 60.1392 212.046 69.0797 210.08C73.3404 209.079 77.5018 207.696 81.5128 205.946C82.5425 206.669 83.5583 207.155 84.5044 207.725C84.9768 207.988 85.4323 208.28 85.8684 208.6C86.3214 208.948 86.7303 209.349 87.0859 209.795C87.1396 209.14 86.946 208.488 86.5431 207.968C86.1624 207.444 85.6707 207.01 85.103 206.697C84.5661 206.381 83.9807 206.155 83.3704 206.03C82.7675 205.88 82.1408 205.852 81.5267 205.946C83.9201 204.932 86.2577 203.848 88.4285 202.778C88.7974 203.153 89.0896 203.487 89.3886 203.82L90.2168 204.821L91.0376 205.856C91.3362 206.242 91.6616 206.606 92.0115 206.947C92.0798 206.435 92.0298 205.915 91.8654 205.425C91.7115 204.934 91.466 204.477 91.1419 204.077C90.8194 203.667 90.4141 203.328 89.9521 203.084C89.4919 202.817 88.9562 202.71 88.4285 202.778C94.5374 199.763 99.4212 196.831 101.091 195.81C104.375 193.816 106.094 193.955 107.659 195.81C108.486 196.706 109.619 197.262 110.835 197.368C112.051 197.475 113.263 197.125 114.234 196.387C118.095 193.816 120.809 196.241 120.955 197.241C121.094 198.242 124.239 204.091 122.381 209.371ZM167.91 193.448C168.41 194.59 168.754 195.794 168.932 197.027C169.027 197.637 169.092 198.251 169.125 198.867C169.166 199.494 169.148 200.123 169.071 200.746C168.805 200.177 168.592 199.585 168.437 198.976C168.277 198.38 168.148 197.776 168.05 197.167C167.836 195.939 167.789 194.689 167.91 193.448ZM185.186 194.822C185.498 195.739 185.649 196.702 185.632 197.671C185.631 198.147 185.598 198.623 185.534 199.095C185.476 199.582 185.359 200.06 185.186 200.519C185.013 200.06 184.896 199.582 184.837 199.095C184.773 198.623 184.741 198.147 184.74 197.671C184.723 196.702 184.874 195.739 185.186 194.822Z" fill="black"/>
<path d="M188.339 219.592C188.339 219.592 178.118 222.079 173.004 224.955C167.891 227.838 157.274 231.958 145.091 228.429C145.091 228.429 142.531 228.227 159.048 213.506C159.048 213.506 159.479 212.901 160.182 211.936C162.206 211.915 164.182 211.797 166.137 211.88C167.105 211.907 168.068 212.03 169.011 212.248C169.965 212.43 170.823 212.945 171.432 213.7C171.283 213.193 170.991 212.739 170.59 212.394C170.184 212.051 169.723 211.779 169.226 211.588C168.25 211.223 167.221 211.021 166.179 210.991C165.157 210.955 164.134 211.018 163.125 211.178C162.119 211.322 161.132 211.576 160.182 211.936C161.211 210.525 162.84 208.351 164.565 206.218C166.729 205.915 168.914 205.789 171.098 205.843C172.168 205.899 173.231 206.044 174.278 206.274C175.333 206.55 176.356 206.934 177.332 207.42C176.522 206.621 175.549 206.005 174.479 205.614C173.403 205.238 172.278 205.016 171.14 204.954C170.009 204.915 168.878 204.999 167.765 205.204C166.661 205.398 165.587 205.736 164.572 206.211C167.306 202.835 170.298 199.569 171.627 199.569C174.09 199.569 176.866 201.299 180.094 203.766C180.64 204.208 181.15 204.693 181.618 205.218C182.16 205.801 181.764 206.399 184.206 200.743C184.206 200.743 187.358 195.449 188.339 219.592ZM160.729 179.35C157.246 179.433 153.762 179.476 150.279 179.48C145.248 179.504 140.222 179.463 135.196 179.403C130.171 179.32 125.145 179.225 120.12 179.058C118.685 179.017 117.256 178.969 115.821 178.91L115.564 178.166C117.089 178.149 118.607 178.137 120.132 178.137C125.157 178.113 130.189 178.155 135.214 178.214C140.24 178.291 145.265 178.386 150.291 178.553C153.756 178.654 157.224 178.795 160.693 178.975L160.729 179.35Z" fill="black"/>
<path d="M160.696 178.977L115.563 178.164L109.851 161.504C111.465 161.546 113.086 161.574 114.707 161.602C120.336 161.699 125.957 161.72 131.593 161.734C137.222 161.72 142.85 161.699 148.472 161.602C152.166 161.546 155.858 161.46 159.548 161.345C159.541 161.206 159.534 161.074 159.521 160.928C155.84 160.81 152.157 160.724 148.472 160.671C142.85 160.58 137.222 160.553 131.593 160.546C125.957 160.553 120.336 160.58 114.707 160.671C113.003 160.699 111.298 160.726 109.601 160.768L105.022 147.436C107.075 147.533 109.121 147.617 111.173 147.679C116.057 147.86 120.948 147.964 125.832 148.061C130.723 148.131 135.615 148.193 140.499 148.179C144.506 148.179 153.175 148.131 158.873 148.04C158.867 147.964 158.867 147.888 158.867 147.804C153.182 147.561 144.52 147.387 140.512 147.255C135.628 147.075 130.744 146.971 125.853 146.873C120.962 146.804 116.078 146.748 111.187 146.762C109.065 146.762 106.936 146.769 104.814 146.804L104.946 147.207L98.3711 128.032C98.3711 128.032 144.277 131.943 157.823 122.321L160.696 178.977Z" fill="black"/>
<path d="M197.682 162.028C199.856 162.055 202.011 162.061 204.139 161.921C205.191 161.857 206.239 161.727 207.275 161.531C208.264 161.378 209.216 161.038 210.078 160.529C210.453 160.304 210.765 159.989 210.985 159.612C211.083 159.426 211.154 159.228 211.196 159.022L211.342 158.242C211.541 157.199 211.668 156.14 211.812 155.079C212.07 152.953 212.26 150.809 212.463 148.646C212.767 150.802 212.875 152.981 212.783 155.156C212.754 156.247 212.645 157.336 212.51 158.427L212.381 159.242C212.321 159.567 212.215 159.882 212.066 160.177C211.757 160.746 211.308 161.226 210.761 161.572C210.257 161.889 209.712 162.135 209.141 162.304C208.599 162.477 208.043 162.606 207.48 162.69C206.382 162.851 205.273 162.918 204.163 162.89C201.977 162.853 199.802 162.564 197.682 162.028Z" fill="white"/>
<path d="M251.025 109.219C251.47 111.761 234.243 155.294 232.441 162.415C230.646 169.543 218.811 178.81 218.811 178.81C211.917 184.222 189.145 181.61 189.145 181.61L186.146 123.197C189.346 123.252 192.554 123.273 195.754 123.301C197.368 123.294 198.934 123.329 200.583 123.28C202.254 123.216 203.899 122.848 205.439 122.196C208.566 120.866 211.109 118.456 212.605 115.409C212.962 114.663 213.276 113.898 213.544 113.116L214.386 110.879C214.95 109.385 215.514 107.899 216.105 106.419C217.288 103.466 218.505 100.521 219.924 97.7207C220.286 97.026 220.662 96.3451 221.066 95.699C221.426 95.0815 221.863 94.512 222.367 94.0039C222.455 93.9184 222.553 93.8438 222.659 93.7816C222.694 93.7746 222.729 93.7399 222.735 93.7538C222.749 93.7538 222.749 93.7468 222.763 93.7399L222.93 93.726L224.113 93.6357L226.492 93.4828C229.672 93.323 232.858 93.2466 236.017 93.3925C237.584 93.4488 239.146 93.6043 240.693 93.858C241.439 93.9829 242.172 94.1735 242.884 94.4277C243.495 94.6024 244.027 94.9798 244.394 95.4976L244.408 95.5184C244.454 95.6127 244.521 95.6957 244.603 95.7616C245.282 96.3416 245.852 97.0379 246.286 97.818C246.745 98.6235 247.076 99.4954 247.267 100.402C247.661 102.26 247.639 104.181 247.205 106.03C247.087 106.495 246.996 106.968 246.857 107.433C246.711 107.892 246.579 108.357 246.419 108.816C246.106 109.74 245.779 110.657 245.431 111.574C244.749 113.401 244.025 115.221 243.288 117.034C241.813 120.654 240.254 124.246 238.654 127.817L233.763 138.495C232.107 142.045 230.493 145.611 228.921 149.194C227.348 152.772 225.783 156.377 224.342 160.025C222.875 163.658 221.546 167.368 220.231 171.036C219.562 172.858 218.774 174.633 217.872 176.351C217.414 177.201 216.883 178.01 216.286 178.769C215.708 179.537 214.976 180.176 214.136 180.645C214.126 180.648 214.117 180.654 214.109 180.661C214.102 180.669 214.096 180.678 214.092 180.687C214.088 180.697 214.086 180.708 214.087 180.718C214.087 180.729 214.09 180.739 214.094 180.749C214.102 180.769 214.117 180.785 214.136 180.794C214.156 180.803 214.178 180.804 214.198 180.797C215.12 180.394 215.94 179.791 216.599 179.033C217.262 178.293 217.86 177.498 218.387 176.657C219.435 174.976 220.338 173.21 221.086 171.377C222.561 167.729 224.057 164.138 225.581 160.539C227.118 156.94 228.691 153.369 230.284 149.791C231.864 146.206 233.392 142.601 234.869 138.974L239.28 128.088L243.761 117.229L245.987 111.789C246.768 109.974 247.433 108.11 247.977 106.21C248.508 104.252 248.61 102.202 248.276 100.201C248.098 99.1823 247.767 98.1963 247.295 97.2761C246.842 96.3724 246.23 95.558 245.486 94.8723C245.27 94.4611 244.957 94.1083 244.575 93.8441C244.206 93.581 243.807 93.364 243.385 93.198C242.667 92.9146 241.927 92.6915 241.173 92.531C241.521 89.7955 241.709 87.0419 241.736 84.2845C241.799 82.8464 241.701 81.4083 241.646 79.9702C241.604 78.5251 241.402 77.094 241.242 75.6559C241.173 74.9333 241.027 74.2247 240.887 73.5091C240.734 72.8005 240.637 72.0849 240.442 71.3832L239.844 69.2782C239.614 68.5904 239.329 67.9095 239.065 67.2357C238.779 66.5618 238.418 65.9157 238.091 65.2626L237.478 64.3455L237.172 63.887L236.81 63.4702C236.344 62.8986 235.801 62.3937 235.196 61.9695C234.61 61.5281 233.92 61.2435 233.193 61.1428C233.534 61.2419 233.859 61.3943 234.153 61.5944L234.591 61.8931L234.987 62.2405C235.499 62.7142 235.948 63.2512 236.323 63.8384L236.622 64.2622L236.873 64.7277L237.374 65.6447C237.624 66.3047 237.938 66.93 238.167 67.59C239.059 70.2644 239.675 73.023 240.004 75.8226C240.185 77.2329 240.393 78.6293 240.463 80.0535C240.588 81.4639 240.707 82.8811 240.762 84.3053C240.936 87.0356 240.957 89.7729 241.117 92.5241C241.064 92.5092 241.011 92.4976 240.957 92.4893C239.354 92.1764 237.731 91.9721 236.101 91.878C232.865 91.6834 229.637 91.7043 226.416 91.8224L224.001 91.9336L222.791 92.01L222.659 92.0169C222.575 92.0308 222.478 92.0447 222.387 92.0586C222.218 92.0921 222.054 92.1481 221.9 92.2254C221.654 92.35 221.424 92.5066 221.218 92.6909C220.57 93.2984 220.013 93.9956 219.563 94.7612C219.117 95.4698 218.728 96.1854 218.352 96.9079C216.904 99.7965 215.617 102.763 214.498 105.794C213.927 107.301 213.371 108.802 212.842 110.316L212.056 112.588C211.828 113.326 211.556 114.05 211.242 114.756C210.608 116.137 209.734 117.396 208.66 118.473C207.578 119.548 206.316 120.427 204.931 121.071C203.543 121.735 202.047 122.142 200.513 122.273C198.962 122.391 197.327 122.426 195.74 122.509C192.54 122.669 189.339 122.829 186.139 123.03L186.118 122.606C186.118 122.606 203.714 122.877 204.409 107.482C204.409 107.482 203.971 112.331 215.409 103.202V93.066C215.409 93.066 219.389 91.0027 217.858 81.7974L217.093 72.5921H217.844C217.844 72.5921 217.858 59.1629 217.135 57.7734C239.489 59.4616 241.583 62.5532 241.583 62.5532C250.273 72.5713 248.923 95.2614 248.923 95.2614C255.213 96.1089 251.025 109.219 251.025 109.219Z" fill="black"/>
<path d="M186.146 123.196C186.123 123.194 186.102 123.184 186.086 123.167C186.071 123.15 186.062 123.129 186.063 123.106C186.063 123.086 186.071 123.066 186.085 123.052C186.099 123.038 186.119 123.03 186.139 123.03L186.146 123.196Z" fill="white"/>
<path d="M208.712 181.602C209.172 184.686 209.541 187.774 209.918 190.861L210.438 195.493L210.887 200.126C211.032 201.671 211.263 203.214 211.467 204.757C211.664 206.296 211.716 207.85 211.621 209.399C211.528 210.963 211.341 212.52 211.061 214.061C210.784 215.661 210.349 217.23 209.761 218.744C209.742 218.791 209.71 218.831 209.669 218.859C209.628 218.888 209.579 218.904 209.529 218.905C209.479 218.907 209.43 218.893 209.387 218.867C209.345 218.841 209.31 218.803 209.289 218.758C208.617 217.279 208.094 215.737 207.727 214.155C207.361 212.632 207.086 211.088 206.905 209.532C206.722 207.991 206.686 206.436 206.797 204.888C206.913 203.336 207.057 201.783 207.114 200.233L207.301 195.581L207.559 190.927C207.761 187.824 207.955 184.721 208.241 181.615C208.246 181.557 208.272 181.503 208.315 181.464C208.357 181.424 208.412 181.401 208.471 181.399C208.529 181.398 208.585 181.417 208.63 181.455C208.674 181.492 208.704 181.544 208.712 181.602ZM229.42 168.082C229.765 170.967 230.019 173.85 230.28 176.732L230.628 181.054L230.904 185.375C230.991 186.815 231.165 188.256 231.311 189.696C231.451 191.132 231.445 192.579 231.293 194.014C231.141 195.467 230.896 196.909 230.559 198.331C230.221 199.818 229.727 201.266 229.086 202.65L229.084 202.654C229.063 202.698 229.029 202.735 228.988 202.762C228.946 202.788 228.897 202.801 228.848 202.801C228.799 202.8 228.751 202.786 228.709 202.759C228.668 202.733 228.635 202.695 228.614 202.65C227.999 201.262 227.533 199.812 227.225 198.326C226.915 196.9 226.698 195.455 226.574 194C226.45 192.56 226.472 191.111 226.64 189.676C226.813 188.235 227.015 186.794 227.13 185.354L227.49 181.032L227.921 176.712C228.238 173.832 228.547 170.953 228.948 168.076C228.956 168.019 228.985 167.967 229.028 167.929C229.072 167.891 229.128 167.871 229.186 167.872C229.244 167.872 229.3 167.894 229.343 167.933C229.386 167.971 229.413 168.024 229.42 168.082Z" fill="black"/>
<path d="M104.549 102.861V103.013C104.542 102.965 104.535 102.91 104.528 102.861H104.549Z" fill="white"/>
<path d="M164.116 52.8836C165.107 52.5126 166.113 52.1343 167.145 51.7664C168.178 51.4016 169.201 51.0134 170.262 50.659L173.432 49.5762C174.502 49.2373 175.569 48.89 176.642 48.5757L176.657 48.5712C176.724 48.5516 176.796 48.5593 176.858 48.5927C176.919 48.6261 176.964 48.6824 176.984 48.7493L176.99 48.777L177.544 51.8757C177.719 52.9107 177.936 53.9366 178.137 54.9661C178.559 57.0208 179.039 59.063 179.539 61.1012C179.552 61.1518 179.544 61.2051 179.519 61.2505C179.493 61.2959 179.452 61.33 179.402 61.3458L179.388 61.3502C177.439 61.9665 175.479 62.5466 173.517 63.118C171.556 63.6935 169.595 64.2677 167.622 64.8005L167.617 64.8017C167.525 64.8266 167.426 64.8142 167.343 64.7673C167.259 64.7203 167.198 64.6425 167.171 64.5505C166.604 62.5812 166.09 60.602 165.569 58.6469L164.116 52.8836ZM164.178 52.9161L166.101 58.7009C166.706 60.5952 167.316 62.4654 167.875 64.3454L167.424 64.0956C169.387 63.5274 171.362 63.0007 173.337 62.4753C175.31 61.9458 177.287 61.425 179.273 60.9404L179.122 61.1892C178.754 59.1233 178.366 57.0614 177.919 55.012C177.686 53.9895 177.469 52.9634 177.21 51.9463L176.461 48.8888L176.809 49.0901C175.786 49.4536 174.756 49.7841 173.73 50.123L170.611 51.0737C169.574 51.3971 168.502 51.6868 167.438 51.9998L164.178 52.9161Z" fill="black"/>
<path d="M131.841 84.2218L143.144 83.7251L145.176 93.887H133.171L131.841 84.2218Z" fill="black"/>
<path d="M111.28 56.6623L112.5 60.5982C112.873 61.8664 113.231 63.1069 113.533 64.3734L113.236 64.1429C114.799 64.1741 116.362 64.2856 117.925 64.328C119.488 64.3661 121.051 64.3215 122.614 64.2599L122.43 64.4925C122.057 63.2058 121.702 61.9148 121.364 60.6195C121.037 59.3218 120.683 58.0305 120.377 56.7276L120.738 57.012C119.208 57.017 117.682 56.9608 116.12 56.8946L111.28 56.6623ZM111.226 56.6197C112.713 56.5421 114.27 56.4519 115.872 56.3873C117.471 56.3212 119.107 56.2649 120.738 56.2699C120.822 56.2704 120.903 56.2987 120.968 56.3502C121.034 56.4018 121.08 56.4736 121.1 56.5545C121.419 57.8541 121.691 59.1652 121.988 60.47C122.278 61.7769 122.547 63.0884 122.798 64.4045L122.801 64.4204C122.805 64.444 122.805 64.4682 122.8 64.4917C122.796 64.5152 122.786 64.5375 122.773 64.5573C122.759 64.5771 122.742 64.5941 122.722 64.6073C122.702 64.6205 122.679 64.6296 122.656 64.6341C122.642 64.6366 122.628 64.6377 122.614 64.6372C121.051 64.5756 119.488 64.531 117.925 64.5691C116.362 64.6115 114.799 64.7231 113.236 64.7542C113.169 64.7555 113.104 64.7346 113.051 64.6946C112.998 64.6547 112.959 64.5982 112.942 64.534L112.939 64.5236C112.579 63.1877 112.277 61.8256 111.989 60.4913C111.719 59.1601 111.456 57.8511 111.226 56.6197ZM125.562 57.7759C127.139 57.5299 128.734 57.4138 130.331 57.4287C131.928 57.4123 133.523 57.5284 135.101 57.7759C133.523 58.0234 131.928 58.1395 130.331 58.1231C128.734 58.138 127.139 58.0219 125.562 57.7759ZM126.5 63.3887C127.92 63.143 129.359 63.0268 130.8 63.0416C132.241 63.0253 133.681 63.1415 135.101 63.3887C133.681 63.636 132.241 63.7522 130.8 63.7359C129.359 63.7507 127.92 63.6345 126.5 63.3887ZM114.665 68.8113C116.487 68.6681 118.309 68.6009 120.131 68.5454C121.953 68.4818 123.775 68.4729 125.597 68.4642C127.419 68.472 129.241 68.4812 131.064 68.5441L133.797 68.6411C134.708 68.6988 135.619 68.7326 136.53 68.8113C135.619 68.8901 134.708 68.9239 133.797 68.9816L131.064 69.0785C129.241 69.1415 127.419 69.1507 125.597 69.1585C123.775 69.1498 121.953 69.1408 120.131 69.0773C118.309 69.0217 116.487 68.9546 114.665 68.8113ZM116.157 72.5929C117.854 72.4496 119.552 72.3825 121.25 72.3269C122.948 72.2634 124.645 72.2544 126.343 72.2457C128.041 72.2535 129.739 72.2627 131.436 72.3257L133.983 72.4226C134.832 72.4803 135.681 72.5141 136.53 72.5929C135.681 72.6716 134.832 72.7054 133.983 72.7631L131.436 72.8601C129.739 72.923 128.041 72.9322 126.343 72.94C124.645 72.9313 122.948 72.9223 121.25 72.8588C119.552 72.8033 117.854 72.7361 116.157 72.5929ZM125.562 76.7311C128.001 76.4848 130.452 76.3689 132.904 76.384C135.355 76.3674 137.806 76.4833 140.245 76.7311C137.806 76.979 135.355 77.0949 132.904 77.0783C130.452 77.0933 128.001 76.9775 125.562 76.7311ZM130.331 80.8338C132.457 80.5876 134.597 80.4716 136.737 80.4866C138.878 80.4701 141.018 80.586 143.144 80.8338C141.018 81.0815 138.878 81.1975 136.737 81.1809C134.597 81.1959 132.457 81.08 130.331 80.8338ZM145.176 56.641C149.836 55.3447 154.61 54.4982 159.432 54.1133C157.109 54.7771 154.751 55.3128 152.369 55.7181C149.99 56.1554 147.588 56.4634 145.176 56.641ZM146.247 61.8191C148.634 61.1031 151.056 60.513 153.505 60.0513C155.947 59.5585 158.414 59.1959 160.896 58.9651C158.509 59.6825 156.087 60.2726 153.638 60.7328C151.195 61.2241 148.728 61.5867 146.247 61.8191ZM149.177 67.3799C151.367 66.6525 153.597 66.0499 155.856 65.575C158.107 65.0692 160.387 64.6931 162.682 64.4486C160.492 65.1775 158.262 65.7801 156.003 66.2535C153.751 66.7577 151.472 67.1338 149.177 67.3799ZM150.678 72.555C153.196 71.8616 155.73 71.2426 158.267 70.6349C160.802 70.0194 163.348 69.4573 165.895 68.8954C168.445 68.3496 170.995 67.8052 173.557 67.3133L177.401 66.5779C178.687 66.3576 179.969 66.114 181.26 65.9143C180.002 66.2679 178.735 66.5777 177.473 66.9107L173.671 67.8355C171.136 68.4504 168.589 69.0128 166.043 69.5739C163.492 70.1187 160.942 70.6634 158.38 71.1547C155.819 71.6538 153.257 72.1416 150.678 72.555ZM152.304 77.73C154.309 77.1617 156.331 76.6679 158.354 76.1855C160.376 75.6952 162.409 75.2584 164.443 74.8217C166.48 74.4013 168.517 73.9822 170.565 73.6157L173.637 73.0684C174.667 72.9108 175.691 72.7298 176.725 72.5928C175.724 72.8839 174.713 73.1311 173.708 73.4016L170.675 74.1386C168.653 74.6283 166.62 75.0654 164.586 75.5011C162.549 75.9207 160.512 76.34 158.464 76.706C156.417 77.0797 154.368 77.4421 152.304 77.73ZM153.571 82.7602C155.305 82.2982 157.053 81.9111 158.802 81.5353C160.55 81.1518 162.308 80.8219 164.066 80.4922C165.827 80.1788 167.588 79.8668 169.359 79.6077L172.016 79.2214C172.906 79.1176 173.792 78.9904 174.686 78.9073C173.82 79.1453 172.947 79.3391 172.077 79.5564L169.455 80.1334C167.707 80.5164 165.949 80.8465 164.191 81.1752C162.43 81.4877 160.669 81.8 158.898 82.0586C157.129 82.325 155.357 82.5801 153.571 82.7602ZM154.536 86.7868C156.432 86.352 158.339 85.9924 160.248 85.6443C162.156 85.2883 164.072 84.9862 165.987 84.6844C167.906 84.3988 169.825 84.1148 171.752 83.8838L174.642 83.5398C175.61 83.4502 176.573 83.337 177.544 83.2683C176.597 83.4927 175.644 83.6728 174.694 83.8764L171.833 84.412C169.925 84.7675 168.009 85.0698 166.093 85.3707C164.174 85.6553 162.255 85.9397 160.329 86.1701C158.403 86.4084 156.475 86.6352 154.536 86.7868ZM155.929 91.9256C158.016 91.4282 160.116 91.0059 162.218 90.5949C164.318 90.1761 166.427 89.8111 168.537 89.4464C170.649 89.0979 172.761 88.7508 174.883 88.4568L178.065 88.0181C179.13 87.8969 180.191 87.7521 181.26 87.6517C180.218 87.9075 179.168 88.1189 178.122 88.3539L174.972 88.9837C172.871 89.4019 170.762 89.7672 168.653 90.131C166.54 90.4786 164.428 90.8259 162.306 91.1194C160.186 91.4208 158.064 91.7108 155.929 91.9256Z" fill="black"/>
</svg>
