<svg width="393" height="362" viewBox="0 0 393 362" fill="none" xmlns="http://www.w3.org/2000/svg">
<path d="M169.563 283.901L167.368 241.741C166.686 238.01 166.075 234.279 165.428 230.548L163.603 219.342C162.388 211.866 161.266 204.383 160.136 196.893C159.035 189.403 157.941 181.913 156.925 174.416L155.405 163.159C154.965 159.578 154.489 156.003 154.077 152.421C153.715 152.314 153.359 152.208 153.004 152.087L152.99 152.201L152.898 153.251C152.834 153.946 152.812 154.648 152.784 155.35C152.706 156.747 152.685 158.152 152.642 159.556C152.592 162.358 152.571 165.167 152.564 167.975C152.528 173.586 152.535 179.201 152.585 184.821C152.649 196.049 152.706 207.277 152.834 218.505L153.068 252.203L153.153 269.048V285.894C166.565 284.695 169.563 283.901 169.563 283.901ZM192.827 165.741C191.927 164.504 191.207 163.145 190.689 161.705C190.135 160.287 189.659 158.84 189.225 157.379C188.359 154.463 187.67 151.506 187.045 148.541C186.434 145.562 185.887 142.583 185.446 139.583C184.985 136.582 184.627 133.57 184.374 130.546C184.374 130.546 179.103 127.447 177.64 125.986C176.609 124.957 174.727 124.844 173.697 124.872C173.39 124.889 173.084 124.839 172.798 124.726C172.512 124.614 172.254 124.441 172.042 124.22C171.916 124.115 171.819 123.98 171.76 123.827C171.7 123.675 171.679 123.51 171.7 123.348C171.72 123.186 171.781 123.031 171.877 122.898C171.973 122.766 172.1 122.659 172.248 122.588C172.643 122.31 173.122 122.177 173.605 122.212C174.862 122.283 177.647 122.524 178.961 123.383C178.514 123.023 178.041 122.696 177.547 122.404C162.416 118.666 137.547 121.454 137.547 121.454C137.547 121.454 137.099 124.723 136.424 130.702C137.107 129.446 137.863 128.231 138.691 127.064C139.095 126.489 139.5 125.915 139.919 125.347C140.344 124.759 140.8 124.193 141.283 123.652C141.186 124.388 140.98 125.105 140.672 125.78C140.382 126.452 140.025 127.094 139.607 127.695C139.191 128.297 138.717 128.858 138.193 129.369C137.672 129.897 137.076 130.346 136.424 130.702C133.874 153.088 128.007 213.448 129.747 281.901C137.069 285.241 145.136 286.617 153.153 285.894C152.933 280.283 152.791 274.666 152.614 269.055L152.223 252.21C151.981 240.982 151.861 229.747 151.726 218.519C151.676 207.284 151.619 196.049 151.726 184.814C151.79 179.196 151.875 173.586 152.024 167.968C152.109 165.16 152.218 162.351 152.351 159.542C152.436 158.145 152.493 156.74 152.614 155.336C152.67 154.634 152.72 153.939 152.82 153.236L152.947 152.194L152.969 152.073C152.649 151.967 152.329 151.86 152.01 151.747C151.058 151.385 150.113 151.009 149.19 150.569C148.253 150.144 147.349 149.65 146.483 149.094C147.501 149.249 148.507 149.472 149.495 149.761C150.475 150.038 151.434 150.371 152.393 150.704C153.338 151.066 154.283 151.435 155.214 151.853C156.144 152.265 157.053 152.719 157.963 153.222C156.933 153.143 155.914 152.958 154.922 152.669C154.645 152.598 154.375 152.513 154.105 152.435C154.745 155.974 155.327 159.528 155.945 163.074L157.771 174.281C158.985 181.757 160.108 189.24 161.237 196.73C162.331 204.22 163.432 211.71 164.448 219.214L165.961 230.47C166.43 234.222 166.934 237.974 167.368 241.741L174.372 283.496C174.372 283.496 196.983 288.497 211.992 283.695C211.992 283.695 199.107 212.228 192.827 165.741ZM152.308 134.334C152.223 135.958 152.123 137.576 151.953 139.193C151.797 140.81 151.598 142.427 151.292 144.03C151.136 142.399 151.093 140.774 151.086 139.15C151.079 137.526 151.136 135.902 151.2 134.284C151.292 132.66 151.392 131.043 151.555 129.426C151.718 127.809 151.917 126.199 152.223 124.588C152.372 126.22 152.415 127.844 152.422 129.468C152.429 131.093 152.379 132.717 152.308 134.334ZM152.223 123.688C152.007 123.68 151.802 123.588 151.652 123.433C151.502 123.278 151.418 123.07 151.418 122.854C151.418 122.638 151.502 122.431 151.652 122.276C151.802 122.12 152.007 122.029 152.223 122.021C152.439 122.029 152.643 122.12 152.794 122.276C152.944 122.431 153.027 122.638 153.027 122.854C153.027 123.07 152.944 123.278 152.794 123.433C152.643 123.588 152.439 123.68 152.223 123.688ZM181.625 136.916C180.847 136.767 180.078 136.573 179.323 136.334C177.795 135.826 176.367 135.056 175.104 134.058C173.859 133.015 172.85 131.722 172.141 130.263C171.422 128.836 171.086 127.248 171.168 125.652C171.511 127.14 172.097 128.561 172.901 129.858C173.69 131.121 174.673 132.25 175.814 133.206C176.392 133.674 177.005 134.099 177.647 134.476C178.285 134.87 178.95 135.221 179.636 135.526C179.977 135.693 180.328 135.84 180.687 135.966L181.76 136.384C182.491 136.618 183.23 136.831 183.976 137.107C183.194 137.072 182.413 137.008 181.625 136.916ZM189.474 132.22C189.46 131.135 189.481 130.199 189.545 129.419L188.437 130.135C187.166 130.719 185.736 130.864 184.374 130.546C185.049 133.504 185.688 136.464 186.292 139.427L188.132 148.314C188.735 151.272 189.379 154.22 190.064 157.159C190.419 158.62 190.781 160.088 191.2 161.535C191.575 162.996 192.121 164.408 192.827 165.741C190.845 151.066 189.524 138.881 189.474 132.22ZM187.421 120.212C187.338 117.962 186.389 115.831 184.772 114.261C182.115 112.772 183.933 117.013 184.033 117.254C183.997 117.219 183.848 117.063 183.599 116.843C183.443 116.07 183.301 115.254 183.166 114.417L183.145 114.29C182.761 111.878 182.434 109.24 182.172 106.481C182.173 106.454 182.17 106.428 182.164 106.402C181.927 101.166 182.539 95.9251 183.976 90.8834C185.027 86.8263 187.379 86.6914 187.379 86.6914L201.586 102.473L187.975 118.46C187.616 118.974 187.423 119.586 187.421 120.212Z" fill="#251302"/>
<path d="M353.667 203.767C353.667 203.767 342.465 233.145 321.651 229.152C319.536 228.755 317.379 228.619 315.23 228.748C311.003 226.407 306.826 224.003 302.642 221.612C298.465 219.201 294.324 216.754 290.246 214.193C286.148 211.668 282.134 209.016 278.256 206.192C277.282 205.483 276.295 204.795 275.371 204.029C274.441 203.277 273.468 202.568 272.566 201.781L269.852 199.398C269.028 198.532 268.185 197.672 267.323 196.816C270.136 200.774 273.809 204.043 277.581 207.072C278.525 207.831 279.47 208.597 280.465 209.292L283.413 211.42C285.423 212.775 287.433 214.122 289.493 215.399C293.614 217.945 297.812 220.357 302.109 222.577C306.4 224.818 310.762 226.897 315.23 228.748C296.036 229.819 275.784 249.622 273.624 253.927C271.223 258.722 223.593 207.576 212.682 175.332C209.45 165.785 200.99 149.173 189.617 132.463C189.563 132.386 189.515 132.306 189.475 132.221C189.233 131.796 188.857 131.022 188.438 130.136L189.546 129.42C190.226 128.867 190.777 128.172 191.158 127.384C191.528 127.802 191.776 128.051 191.776 128.051C191.776 128.051 211.389 113.667 215.794 108.467C220.198 103.275 215.794 98.0763 215.794 98.0763C215.794 98.0763 202.787 77.8972 196.181 71.308C194.057 69.3171 191.441 67.9266 188.601 67.2793C203.718 70.2157 239.292 82.536 276.828 134.314C326.453 202.781 353.667 203.767 353.667 203.767ZM124.534 326.295C125.045 326.274 125.557 326.26 126.061 326.217C119.511 326.884 111.499 325.998 109.098 318.501C109.654 317.536 110.389 316.686 111.264 315.997C111.434 315.839 111.635 315.718 111.855 315.643C112.075 315.568 112.307 315.54 112.539 315.561C112.77 315.582 112.994 315.651 113.197 315.764C113.399 315.877 113.576 316.031 113.715 316.217C114.384 317.06 114.938 317.987 115.363 318.976C115.867 319.983 116.379 321.011 116.968 322.033C117.58 323.098 118.388 324.039 119.348 324.806C120.354 325.536 121.53 325.997 122.765 326.147C123.351 326.234 123.942 326.284 124.534 326.295Z" fill="#251302"/>
<path d="M161.216 306.236C160.576 305.399 160.001 303.895 159.866 301.186C159.525 294.426 154.595 298.214 154.595 298.214C146.206 302.647 143.904 295.781 143.279 294.696C142.654 293.618 137.419 293.008 135.337 296.242C134.581 297.279 133.645 298.173 132.574 298.88C133.518 298.995 134.439 299.248 135.309 299.632C136.184 299.997 137.016 300.458 137.788 301.008C138.585 301.559 139.286 302.237 139.862 303.016C140.51 303.779 140.841 304.761 140.786 305.76C140.334 304.99 139.744 304.31 139.045 303.753C138.385 303.193 137.681 302.668 136.957 302.157L134.769 300.597C134.03 300.065 133.299 299.519 132.574 298.888C130.962 300.009 129.269 301.01 127.509 301.881C128.439 301.876 129.36 302.062 130.216 302.427C131.079 302.778 131.881 303.261 132.595 303.86C133.322 304.456 133.932 305.182 134.392 306.002C134.868 306.808 135.148 307.714 135.209 308.647C134.584 307.945 134.101 307.257 133.49 306.654C132.923 306.047 132.318 305.476 131.679 304.945C130.407 303.86 129.015 302.938 127.509 301.881C126.174 302.555 125.215 302.973 125.215 302.973C124.128 303.314 123.112 303.668 122.167 304.023C123.102 304.243 123.996 304.609 124.817 305.108C125.65 305.59 126.419 306.177 127.104 306.853C127.814 307.534 128.4 308.333 128.837 309.215C129.301 310.096 129.477 311.101 129.342 312.087C128.947 311.274 128.461 310.508 127.893 309.803C127.338 309.119 126.74 308.47 126.103 307.86C124.859 306.59 123.481 305.434 122.16 304.023C106.951 309.732 108.663 316.804 108.663 316.804C108.77 317.377 108.912 317.944 109.089 318.499C109.41 317.363 110.003 316.321 110.816 315.463C111.285 314.973 111.921 314.677 112.599 314.634C113.299 314.651 113.968 314.929 114.474 315.414C114.939 315.83 115.339 316.313 115.66 316.847C115.987 317.357 116.257 317.847 116.548 318.35C117.102 319.358 117.614 320.365 118.189 321.301C118.694 322.229 119.366 323.056 120.171 323.741C120.377 323.883 120.569 324.053 120.789 324.188L121.471 324.556C121.962 324.762 122.468 324.931 122.984 325.06C125.185 325.488 127.427 325.666 129.669 325.592C132.984 324.719 136.111 323.248 138.896 321.251C146.12 316.194 154.19 316.464 159.603 313.577C159.717 313.513 159.83 313.449 159.944 313.392C160.541 313.042 161.054 312.567 161.449 312C161.844 311.433 162.111 310.787 162.232 310.107C162.353 309.427 162.324 308.728 162.149 308.06C161.974 307.392 161.655 306.769 161.216 306.236ZM151.072 307.122C150.198 307.789 149.296 308.42 148.365 309.002C147.435 309.583 146.476 310.123 145.495 310.612C144.506 311.124 143.474 311.551 142.412 311.889C143.181 311.084 144.015 310.344 144.906 309.676C145.78 309.009 146.682 308.378 147.612 307.796C148.536 307.214 149.495 306.683 150.482 306.186C151.471 305.673 152.503 305.246 153.565 304.909C152.798 305.716 151.964 306.456 151.072 307.122Z" fill="#251302"/>
<path d="M126.059 326.216C126.229 326.202 126.4 326.181 126.57 326.167C126.471 326.174 126.378 326.188 126.279 326.202C126.208 326.209 126.13 326.216 126.059 326.216ZM128.268 325.904C128.183 325.925 128.09 325.94 127.998 325.961C127.813 325.996 127.628 326.025 127.444 326.046C127.721 326.003 127.998 325.961 128.268 325.904Z" fill="white"/>
<path d="M143.281 294.699C143.341 293.236 143.451 291.805 143.487 290.372C143.547 288.936 143.478 287.499 143.281 286.075C143.869 287.433 144.13 288.91 144.042 290.387C144.009 291.854 143.752 293.308 143.281 294.699ZM158.276 297.374C158.016 296.369 157.83 295.351 157.661 294.331C157.487 293.312 157.362 292.285 157.254 291.257C157.16 290.227 157.073 289.196 157.055 288.16C157.019 287.124 157.047 286.086 157.141 285.054L157.482 288.131L157.807 291.202C157.901 292.227 158.01 293.251 158.083 294.28C158.164 295.308 158.243 296.337 158.276 297.374ZM150.881 41.2109C150.84 42.8548 150.643 44.4911 150.293 46.0978C150.093 46.874 149.965 47.6669 149.91 48.4666C149.861 49.277 149.865 50.0898 149.924 50.8997C149.65 50.1142 149.5 49.2914 149.477 48.4601C149.452 47.6247 149.544 46.79 149.75 45.9799C150.1 44.393 150.422 42.7944 150.881 41.2109Z" fill="#251302"/>
<path d="M149.391 46.3774C149.391 46.3774 153.497 45.1658 155.11 47.7337C155.11 47.7337 156.917 47.3735 157.765 48.244C158.653 47.6177 159.717 47.2907 160.804 47.3107C161.89 47.3307 162.942 47.6966 163.805 48.3551C163.805 48.3551 164.064 52.6547 160.654 52.806C160.654 52.806 157.181 52.1183 157.697 48.9262C157.697 48.9262 157.078 47.7334 155.042 48.4146C155.042 48.4146 153.571 52.2962 151.092 51.0173C148.612 49.7385 149.391 46.3774 149.391 46.3774ZM154.751 69.2511C156.064 69.3803 157.369 69.585 158.659 69.864C159.994 70.1202 161.311 70.4652 162.6 70.8966L163.305 71.1481L162.797 71.5983C161.912 72.3816 160.983 73.1216 160.151 73.9564C159.319 74.7929 158.529 75.6708 157.786 76.587L157.645 76.756L157.4 76.6404C156.714 76.3161 156.025 75.9958 155.353 75.6459L153.347 74.5795C152.678 74.2252 152.012 73.8651 151.359 73.4836C150.703 73.1058 150.06 72.7068 149.417 72.3064L148.539 71.7593L149.445 71.3529C151.177 70.5619 152.948 69.8603 154.751 69.2511ZM154.763 69.3615C153.111 70.4819 151.529 71.4326 149.93 72.3214L149.959 71.3682C150.628 71.7225 151.296 72.0783 151.952 72.4553C152.611 72.8286 153.256 73.2234 153.899 73.6239L155.829 74.8219C156.469 75.2269 157.092 75.6614 157.717 76.0919L157.332 76.1453C158.229 75.3787 159.087 74.5673 159.902 73.7141C160.716 72.8618 161.432 71.9145 162.193 71.0106L162.389 71.7122C161.103 71.4785 159.835 71.1559 158.593 70.7467C157.334 70.3513 156.072 69.9183 154.763 69.3615Z" fill="#251302"/>
<path d="M162.495 71.3047L157.559 76.3661L161.258 80.4957L169.275 74.4508L162.495 71.3047Z" fill="#251302"/>
<path d="M152.543 57.4277C153.068 58.3254 153.505 59.2717 153.848 60.2534C154.204 61.2325 154.483 62.2374 154.685 63.2592C154.894 64.2807 155.016 65.3181 155.048 66.3603C155.091 67.3999 155.027 68.4412 154.856 69.4675C154.805 68.9479 154.827 68.435 154.762 67.9222C154.733 67.4098 154.691 66.8997 154.622 66.3921C154.497 65.3774 154.351 64.367 154.14 63.3676C153.947 62.365 153.704 61.3719 153.442 60.3812C153.175 59.3914 152.871 58.411 152.543 57.4277ZM166.221 57.622C166.277 58.4797 166.378 59.3238 166.492 60.159C166.604 60.9895 166.779 61.8101 167.017 62.6136C167.235 63.4117 167.567 64.174 168.004 64.8767C168.46 65.58 169.063 66.1763 169.771 66.6246C168.931 66.349 168.192 65.8278 167.651 65.1283C167.115 64.424 166.719 63.624 166.484 62.7712C166.239 61.9347 166.097 61.0714 166.062 60.2006C166.013 59.3378 166.067 58.4723 166.221 57.622ZM149.706 71.8911C148.398 72.3876 147.1 72.8937 145.843 73.4918C144.576 74.0596 143.34 74.692 142.139 75.3866C139.726 76.7317 137.474 78.3451 135.425 80.1961C131.269 83.9028 127.602 88.1209 124.51 92.7493C123.747 93.9102 123.054 95.116 122.436 96.36C122.29 96.6601 122.169 96.972 122.076 97.2925C121.995 97.6204 121.937 97.9533 121.901 98.289C121.828 98.9572 121.847 99.6323 121.956 100.296C122.011 100.625 122.087 100.95 122.184 101.269C122.233 101.432 122.285 101.58 122.342 101.731L122.562 102.207L123.418 104.121C123.995 105.394 124.533 106.682 125.09 107.963C127.329 113.081 129.332 118.287 131.181 123.565L130.965 123.421C131.498 123.46 132.027 123.537 132.55 123.65L134.085 123.973L135.615 124.297C136.121 124.409 136.634 124.488 137.15 124.531V124.642C136.624 124.633 136.099 124.588 135.579 124.508L134.029 124.268L132.486 124.028C131.982 123.947 131.474 123.901 130.965 123.888L130.818 123.889L130.748 123.743C128.339 118.692 126.084 113.57 124.065 108.358C123.557 107.056 123.031 105.762 122.543 104.453L121.802 102.493L121.623 102.001C121.568 101.822 121.514 101.636 121.473 101.462C121.216 100.398 121.173 99.2944 121.347 98.2144C121.404 97.8578 121.484 97.5054 121.588 97.1596C121.706 96.8143 121.854 96.48 122.031 96.1604C122.7 94.9126 123.44 93.7252 124.216 92.5581C125.775 90.2309 127.378 87.9348 129.089 85.7077C130.783 83.4552 132.681 81.3624 134.758 79.4554C135.813 78.5067 136.931 77.6299 138.104 76.8309C139.282 76.0488 140.506 75.3383 141.77 74.7032C143.03 74.0708 144.322 73.5034 145.64 73.0035C146.96 72.5197 148.307 72.1128 149.674 71.7847L149.706 71.8911Z" fill="#251302"/>
<path d="M145.202 78.3094C144.689 81.9337 144.078 85.5373 143.435 89.1341C142.78 92.7286 142.115 96.3201 141.29 99.8816C140.495 103.449 139.688 107.016 139.139 110.628C138.838 112.43 138.587 114.239 138.373 116.051C138.266 116.957 138.168 117.863 138.091 118.768C137.997 119.647 137.962 120.531 137.986 121.414L137.532 121.013C140.877 120.859 144.221 120.78 147.566 120.7C150.912 120.614 154.259 120.598 157.607 120.634C160.954 120.67 164.302 120.773 167.649 120.943C169.322 121.045 170.995 121.163 172.665 121.333C173.5 121.421 174.333 121.53 175.163 121.669C176.009 121.763 176.832 122.002 177.597 122.374L177.535 122.466C177.161 122.298 176.763 122.19 176.357 122.145C175.948 122.08 175.536 122.03 175.121 121.996C174.293 121.919 173.459 121.885 172.627 121.85C170.962 121.777 169.293 121.755 167.623 121.748C164.286 121.705 160.945 121.746 157.605 121.77L137.556 121.9L137.111 121.903L137.101 121.499C137.099 120.554 137.181 119.611 137.346 118.681C137.479 117.771 137.638 116.869 137.794 115.966L138.775 110.566C139.457 106.975 139.975 103.354 140.532 99.7391C141.061 96.1188 141.787 92.5353 142.546 88.9593C143.319 85.386 144.142 81.8231 145.093 78.2871L145.202 78.3094ZM134.584 149.068C133.69 148.383 132.954 147.515 132.424 146.522C132.151 146.03 131.906 145.524 131.688 145.006L131.368 144.224L131.112 143.423C130.467 141.279 130.096 139.062 130.008 136.825C129.961 135.713 129.985 134.602 130.002 133.493C130.101 132.389 130.132 131.28 130.293 130.185C130.453 129.091 130.606 127.998 130.829 126.917C131.079 125.841 131.325 124.766 131.633 123.707C131.636 124.816 131.576 125.91 131.521 127.002L131.399 130.27L131.347 133.522C131.371 134.602 131.358 135.683 131.427 136.757L131.514 138.369C131.543 138.906 131.636 139.434 131.679 139.969C131.716 140.507 131.802 141.034 131.891 141.562C131.971 142.092 132.057 142.62 132.179 143.14C132.533 145.269 133.354 147.293 134.584 149.068Z" fill="#251302"/>
<path d="M135.06 142.075C134.373 142.058 133.718 141.782 133.226 141.303C132.766 140.848 132.443 140.272 132.294 139.643C132.066 138.458 132.029 137.244 132.184 136.047L132.625 128.988L132.562 136.058C132.474 137.208 132.561 138.364 132.821 139.487C132.966 140.007 133.254 140.476 133.652 140.84C134.031 141.175 134.518 141.363 135.024 141.367L135.06 142.075ZM175.977 328.857C175.386 328.912 174.793 328.924 174.201 328.893C172.957 328.87 171.739 328.531 170.663 327.907C169.631 327.241 168.735 326.387 168.021 325.389C167.324 324.431 166.713 323.46 166.103 322.509C165.583 321.566 164.938 320.697 164.185 319.927C163.863 319.61 163.436 319.421 162.984 319.395C162.51 319.419 162.061 319.619 161.727 319.956C160.929 320.735 160.283 321.657 159.823 322.672C162.977 329.857 170.983 329.949 177.412 328.644C176.943 328.722 176.46 328.786 175.977 328.857ZM210.429 305.195C209.712 304.422 208.987 302.982 208.575 300.309C207.545 293.62 203.027 297.876 203.027 297.876C195.135 303.139 192.144 296.542 191.413 295.528C190.688 294.514 185.41 294.443 183.67 297.869C183.023 298.973 182.186 299.955 181.198 300.77C182.144 300.79 183.083 300.95 183.982 301.245C184.889 301.52 185.764 301.893 186.589 302.358C187.439 302.828 188.206 303.431 188.862 304.146C189.582 304.843 190.01 305.785 190.063 306.784C189.531 306.068 188.874 305.453 188.124 304.969C187.406 304.479 186.66 304.025 185.886 303.593L183.549 302.259C182.761 301.805 181.979 301.337 181.191 300.777C179.703 302.054 178.125 303.22 176.467 304.266C177.387 304.171 178.318 304.262 179.202 304.536C180.096 304.802 180.944 305.204 181.716 305.727C182.498 306.249 183.179 306.908 183.727 307.671C184.279 308.427 184.647 309.301 184.799 310.224C184.11 309.586 183.556 308.948 182.888 308.416C182.263 307.868 181.604 307.361 180.914 306.898C179.535 305.947 178.065 305.167 176.46 304.274C175.195 305.082 174.286 305.593 174.286 305.593C173.242 306.047 172.261 306.494 171.352 306.948C172.308 307.071 173.238 307.344 174.108 307.756C174.985 308.153 175.808 308.658 176.559 309.26C177.336 309.864 178 310.601 178.52 311.437C179.072 312.265 179.351 313.245 179.315 314.239C178.84 313.468 178.277 312.754 177.639 312.111C177.018 311.489 176.358 310.906 175.664 310.366C174.293 309.231 172.808 308.217 171.352 306.948C156.804 314.161 159.226 321.027 159.226 321.027C159.387 321.588 159.587 322.138 159.823 322.672C160.027 321.508 160.509 320.411 161.23 319.473C161.644 318.938 162.245 318.579 162.913 318.466C163.615 318.415 164.311 318.625 164.867 319.055C165.368 319.424 165.813 319.863 166.188 320.36C166.564 320.835 166.877 321.296 167.218 321.764C167.878 322.708 168.489 323.665 169.157 324.538C169.753 325.41 170.504 326.165 171.373 326.765C171.594 326.885 171.807 327.034 172.034 327.148L172.752 327.446C173.262 327.596 173.782 327.712 174.307 327.793C176.546 327.992 178.8 327.939 181.027 327.637C184.23 326.431 187.186 324.652 189.75 322.389C196.428 316.629 204.483 316.076 209.57 312.657C209.683 312.586 209.79 312.508 209.889 312.437C210.448 312.03 210.911 311.507 211.247 310.903C211.584 310.299 211.784 309.63 211.836 308.941C211.887 308.252 211.788 307.561 211.545 306.914C211.302 306.267 210.921 305.681 210.429 305.195ZM200.427 307.103C199.625 307.855 198.791 308.569 197.927 309.245C197.06 309.919 196.165 310.544 195.234 311.139C194.302 311.747 193.321 312.276 192.301 312.721C192.984 311.844 193.737 311.023 194.552 310.267C195.355 309.515 196.189 308.801 197.053 308.125C197.92 307.451 198.817 306.82 199.745 306.231C200.677 305.617 201.661 305.085 202.686 304.642C202.002 305.524 201.247 306.347 200.427 307.103Z" fill="#251302"/>
<path d="M178.03 328.515C177.924 328.536 177.81 328.565 177.703 328.593C177.625 328.607 177.554 328.621 177.476 328.628C177.661 328.593 177.846 328.557 178.03 328.515ZM176.467 304.264L176.46 304.272L176.46 304.269L176.458 304.266L176.456 304.265L176.453 304.264H176.467ZM181.198 300.768L181.191 300.775L181.191 300.772L181.189 300.77L181.187 300.768L181.184 300.768H181.198Z" fill="white"/>
<path d="M190.058 297.376L190.393 294.489C190.497 293.529 190.609 292.573 190.689 291.616C190.786 290.66 190.827 289.703 190.844 288.748C190.881 287.788 190.778 286.827 190.538 285.897C190.985 286.777 191.235 287.744 191.271 288.731C191.347 289.708 191.337 290.689 191.242 291.665C191.155 292.636 191.012 293.601 190.813 294.556C190.625 295.512 190.372 296.453 190.058 297.376ZM206.604 298.879C206.266 297.776 205.997 296.659 205.742 295.539C205.48 294.421 205.267 293.292 205.064 292.162C204.873 291.03 204.689 289.895 204.565 288.752C204.421 287.61 204.337 286.461 204.313 285.31C204.553 286.437 204.77 287.561 204.987 288.687C205.21 289.811 205.409 290.939 205.611 292.067C205.8 293.197 205.999 294.325 206.16 295.461C206.328 296.596 206.491 297.732 206.604 298.879ZM149.345 41.4114C149.345 41.4114 150.767 42.9287 151.955 38.9207C151.955 38.9207 152.649 37.1477 154.793 38.5896C154.793 38.5896 156.322 39.5281 157.063 38.0299C157.233 37.8373 157.44 37.6818 157.673 37.5731C157.906 37.4644 158.159 37.4049 158.416 37.3982C158.673 37.3915 158.929 37.4379 159.167 37.5344C159.405 37.6309 159.621 37.7755 159.8 37.959C159.8 37.959 160.292 38.4502 161.427 37.9247C162.562 37.3993 164.411 36.1344 165.178 37.0706C165.945 38.0068 164.884 38.5396 165.785 39.6119C166.686 40.6843 167.748 40.3972 167.454 41.6205C167.159 42.8437 168.114 43.6267 167.97 44.816C167.827 46.0052 167.384 52.8877 166.435 53.5298C165.473 54.3498 164.618 55.288 163.892 56.322C163.498 56.8231 160.707 57.1834 159.922 56.1718C159.356 55.5011 158.657 54.9547 157.869 54.567C157.869 54.567 156.271 53.3269 155.087 54.0931C155.087 54.0931 152.661 52.7705 151.166 54.6846C151.166 54.6846 150.009 54.6921 149.882 53.746C149.821 52.798 149.834 51.8467 149.921 50.9007C149.921 50.9007 149.331 50.6454 149.312 54.2787C149.293 57.912 151.17 63.9941 151.508 64.298C151.847 64.602 154.714 66.4353 160.708 64.5521C166.701 62.669 167.644 59.1523 167.931 58.2476C168.239 56.3972 168.426 54.5287 168.49 52.654C168.51 51.9682 168.285 48.8019 170.282 47.036C170.282 47.036 171.592 45.7421 172.26 46.4472C172.26 46.4472 173.658 43.9301 173.263 39.4352C173.225 39.0056 173.097 38.5888 172.887 38.212C172.677 37.8353 172.389 37.5069 172.044 37.2485C171.98 37.2013 171.917 37.1543 171.853 37.108C171.265 36.6652 170.87 36.013 170.75 35.287C170.718 35.0463 170.638 34.8144 170.515 34.6047C170.392 34.395 170.229 34.2115 170.035 34.0649C169.841 33.9183 169.62 33.8114 169.385 33.7504C169.149 33.6893 168.904 33.6753 168.663 33.7092C166.003 33.7387 164.366 32.8941 163.55 33.178C162.735 33.4619 159.091 31.5266 155.798 33.9492C154.31 35.1544 152.617 36.0837 150.801 36.6931C150.177 37.024 147.225 38.9894 149.345 41.4114Z" fill="#251302"/>
<path d="M172.262 46.4495C172.618 46.7002 172.862 47.0805 172.94 47.5087C173.009 47.9495 172.947 48.4007 172.763 48.8073C172.47 49.5649 172.219 50.3381 172.01 51.1233C171.751 51.937 171.333 52.6915 170.781 53.3438C170.486 53.679 170.1 53.9218 169.67 54.0427C169.244 54.1336 168.799 54.057 168.428 53.8287C168.808 53.9472 169.217 53.9313 169.587 53.7837C169.931 53.6209 170.228 53.3733 170.449 53.0642C170.898 52.4112 171.247 51.6958 171.486 50.941C171.629 50.56 171.725 50.1886 171.858 49.7766C171.995 49.3771 172.167 48.9907 172.373 48.622C172.585 48.2938 172.688 47.9076 172.668 47.5178C172.648 47.128 172.506 46.7543 172.262 46.4495ZM152.894 48.3715C153.053 48.366 153.203 48.2992 153.313 48.1852C153.423 48.0712 153.485 47.9189 153.485 47.7604C153.485 47.6019 153.423 47.4497 153.313 47.3357C153.203 47.2217 153.053 47.1549 152.894 47.1494C152.735 47.1549 152.585 47.2217 152.475 47.3357C152.364 47.4497 152.303 47.6019 152.303 47.7604C152.303 47.9189 152.364 48.0712 152.475 48.1852C152.585 48.2992 152.735 48.366 152.894 48.3715ZM160.469 49.3724C160.627 49.3669 160.778 49.3001 160.888 49.1862C160.998 49.0722 161.06 48.9199 161.06 48.7614C161.06 48.6029 160.998 48.4506 160.888 48.3366C160.778 48.2226 160.627 48.1559 160.469 48.1504C160.31 48.1559 160.16 48.2226 160.05 48.3366C159.939 48.4506 159.878 48.6029 159.878 48.7614C159.878 48.9199 159.939 49.0722 160.05 49.1862C160.16 49.3001 160.31 49.3669 160.469 49.3724ZM150.281 44.7634C151.156 44.549 152.068 44.5401 152.947 44.7372C153.39 44.8346 153.819 44.986 154.225 45.188C154.632 45.3937 154.991 45.6816 155.281 46.0335C154.49 45.702 153.669 45.4493 152.829 45.2792C151.998 45.0962 151.156 44.9653 150.281 44.7634ZM157.96 46.3005C158.904 45.9848 159.903 45.8648 160.896 45.9476C161.901 45.9914 162.874 46.3119 163.708 46.8737C162.765 46.6917 161.812 46.5672 160.854 46.5007C159.903 46.4264 158.95 46.3965 157.96 46.3005ZM153.973 51.7324C154.104 51.9185 154.259 52.0875 154.432 52.2356C154.588 52.3682 154.756 52.4859 154.934 52.5871C155.288 52.8032 155.69 52.9602 156.136 53.2254C155.894 53.3072 155.637 53.335 155.383 53.3066C155.125 53.2768 154.875 53.1942 154.65 53.064C154.418 52.9277 154.225 52.7333 154.09 52.5C153.951 52.2697 153.909 51.9938 153.973 51.7324ZM171.059 46.4597C169.91 46.9634 168.72 47.3704 167.503 47.6767C166.292 48.007 165.055 48.2346 163.806 48.3572C164.955 47.8524 166.144 47.4453 167.362 47.1402C168.573 46.8111 169.81 46.5834 171.059 46.4597ZM161.258 80.4977C161.258 80.4977 150.4 102.476 150.277 107.871L153.938 113.029L160.914 108.67C160.914 108.67 162.755 85.0932 161.258 80.4977ZM184.007 117.268C183.545 116.607 183.238 115.85 183.11 115.054C183.078 114.838 183.085 114.617 183.131 114.404C183.153 114.275 183.209 114.154 183.293 114.053C183.377 113.953 183.487 113.877 183.61 113.833C183.834 113.79 184.067 113.823 184.27 113.926C184.462 114.003 184.636 114.099 184.813 114.19L184.82 114.193L184.825 114.198C185.261 114.565 185.664 114.97 186.029 115.408C186.38 115.861 186.678 116.353 186.918 116.873C187.371 117.925 187.556 119.072 187.457 120.212L187.453 120.199L187.456 120.257H187.4L187.388 120.231L187.385 120.218C187.301 119.947 187.238 119.677 187.167 119.412C187.079 119.149 187.021 118.883 186.933 118.625C186.776 118.105 186.568 117.608 186.375 117.106C186.176 116.604 185.94 116.118 185.671 115.65C185.427 115.161 185.104 114.716 184.717 114.33L184.729 114.339C184.417 114.157 183.978 113.995 183.723 114.133C183.514 114.248 183.572 114.647 183.604 114.993C183.697 115.721 183.917 116.467 184.058 117.247L184.007 117.268Z" fill="#251302"/>
<path d="M180.077 120.734C179.186 119.933 178.312 119.113 177.395 118.376C177.174 118.194 176.939 118.03 176.692 117.885C176.585 117.82 176.467 117.774 176.344 117.749L175.913 117.666C175.337 117.56 174.756 117.489 174.171 117.454C173.584 117.418 172.98 117.439 172.372 117.377C172.206 117.379 172.043 117.341 171.895 117.267C171.747 117.193 171.618 117.086 171.52 116.953C171.427 116.816 171.371 116.657 171.358 116.492C171.346 116.328 171.377 116.162 171.449 116.013C171.735 115.449 172.233 115.021 172.834 114.82C173.407 114.6 174.007 114.454 174.617 114.385L174.434 114.656C174.35 114.384 174.332 114.097 174.381 113.818C174.406 113.667 174.461 113.522 174.542 113.392C174.624 113.262 174.731 113.15 174.856 113.062C175.343 112.786 175.909 112.688 176.46 112.784C177.461 112.929 178.434 113.229 179.344 113.671C180.244 114.101 181.098 114.62 181.894 115.22C182.685 115.817 183.411 116.494 184.06 117.242L184.02 117.281C183.272 116.655 182.483 116.08 181.658 115.559C180.846 115.035 179.993 114.578 179.107 114.193C178.237 113.806 177.326 113.518 176.391 113.335C175.972 113.244 175.534 113.293 175.145 113.476C174.991 113.599 174.879 113.767 174.824 113.956C174.768 114.145 174.773 114.346 174.836 114.533L174.896 114.792L174.652 114.804C174.067 114.816 173.487 114.905 172.925 115.068C172.646 115.134 172.385 115.258 172.158 115.433C171.932 115.608 171.745 115.83 171.611 116.082C171.552 116.204 171.528 116.339 171.54 116.473C171.552 116.608 171.601 116.736 171.68 116.845C171.759 116.954 171.866 117.04 171.99 117.094C172.114 117.147 172.251 117.166 172.384 117.148C172.973 117.151 173.565 117.071 174.175 117.05C174.787 117.021 175.4 117.063 176.003 117.177C176.154 117.199 176.302 117.239 176.451 117.272C176.62 117.314 176.781 117.383 176.928 117.476C177.192 117.643 177.442 117.831 177.675 118.038C178.572 118.845 179.391 119.735 180.118 120.697L180.077 120.734Z" fill="#251302"/>
<path d="M180.08 120.744L180.072 120.738L180.077 120.742C178.615 120.088 177.098 119.565 175.544 119.178C174.775 118.95 173.984 118.808 173.184 118.757C172.784 118.733 172.383 118.753 171.988 118.817C171.805 118.827 171.625 118.873 171.46 118.953C171.295 119.033 171.147 119.144 171.025 119.281C170.882 119.534 171.113 119.897 171.357 120.127C171.623 120.359 171.956 120.499 172.308 120.526C173.135 120.54 173.956 120.661 174.752 120.887C176.34 121.357 177.789 122.207 178.973 123.362L178.938 123.406C177.596 122.539 176.13 121.882 174.59 121.456C173.826 121.243 173.043 121.105 172.251 121.045C171.79 120.99 171.363 120.775 171.044 120.438C170.885 120.269 170.764 120.068 170.691 119.848C170.645 119.729 170.628 119.6 170.641 119.473C170.655 119.346 170.698 119.224 170.768 119.117C171.087 118.805 171.514 118.628 171.961 118.623C172.368 118.583 172.778 118.567 173.187 118.577C174.008 118.556 174.829 118.605 175.641 118.726C177.262 119.028 178.791 119.701 180.108 120.693L180.112 120.696L180.119 120.705L180.08 120.744Z" fill="#251302"/>
<path d="M191.187 127.395C190.664 128.691 189.685 129.751 188.434 130.377C187.798 130.678 187.113 130.865 186.412 130.928C185.715 130.983 185.014 130.928 184.335 130.765L184.289 130.754L184.265 130.738L179.453 127.536C179.055 127.265 178.652 126.998 178.261 126.711C177.866 126.435 177.499 126.063 177.14 125.828C176.33 125.383 175.42 125.149 174.495 125.149C174.261 125.138 174.028 125.138 173.793 125.146C173.53 125.161 173.265 125.141 173.007 125.085C172.458 124.975 171.973 124.658 171.653 124.199C171.465 123.944 171.378 123.629 171.408 123.315C171.465 123.01 171.626 122.734 171.865 122.535C172.273 122.163 172.804 121.953 173.357 121.947C174.335 121.995 175.309 122.12 176.268 122.321C177.232 122.483 178.155 122.836 178.981 123.36L178.994 123.384C178.995 123.375 178.98 123.36 178.972 123.363V123.419C178.957 123.422 178.934 123.401 178.936 123.384L178.949 123.408C178.082 123.013 177.155 122.766 176.207 122.677C175.269 122.555 174.326 122.489 173.381 122.478C172.572 122.512 171.611 123.258 172.143 123.865C172.381 124.202 172.735 124.439 173.138 124.532C173.349 124.584 173.567 124.606 173.784 124.599C174.031 124.598 174.278 124.604 174.525 124.623C175.534 124.652 176.516 124.957 177.363 125.504C177.784 125.834 178.061 126.187 178.438 126.488C178.806 126.79 179.177 127.095 179.568 127.371C181.137 128.48 182.782 129.478 184.49 130.357L184.421 130.331C185.705 130.588 187.037 130.468 188.254 129.986C188.852 129.721 189.403 129.359 189.884 128.916C190.376 128.467 190.798 127.947 191.136 127.374L191.187 127.395ZM174.681 114.322C175.366 114.465 176.04 114.654 176.7 114.888C177.357 115.115 177.996 115.39 178.612 115.713C179.87 116.312 180.924 117.267 181.643 118.46C180.861 117.336 179.764 116.468 178.49 115.963C177.87 115.689 177.229 115.462 176.574 115.285C175.926 115.103 175.265 114.965 174.598 114.871L174.681 114.322Z" fill="#251302"/>
<path d="M183.148 114.61L183.108 114.434L183.107 114.429C182.82 113.114 182.563 111.785 182.37 110.449C182.27 109.78 182.183 109.11 182.108 108.438L182.006 107.428L181.928 106.463L181.921 106.416C181.685 102.83 181.873 99.2281 182.479 95.6855C182.782 93.9085 183.187 92.1764 183.657 90.4263C183.902 89.5122 184.306 88.6482 184.85 87.8735C185.138 87.4485 185.508 87.0844 185.937 86.8021C186.367 86.5197 186.848 86.3248 187.353 86.2283L187.557 86.1964L187.726 86.3819C190.111 88.9965 192.494 91.613 194.84 94.263L198.374 98.2245L201.871 102.219L202.094 102.475L201.878 102.722L194.958 110.618L188.104 118.57L188.113 118.558C187.877 118.927 187.716 119.338 187.641 119.769C187.567 120.201 187.578 120.642 187.676 121.069C187.861 121.949 188.184 122.795 188.635 123.574C189.537 125.154 190.648 126.606 191.936 127.892L191.643 127.87C197.262 123.606 202.839 119.275 208.233 114.745C209.576 113.607 210.909 112.458 212.208 111.281C212.863 110.697 213.496 110.095 214.113 109.481C214.434 109.183 214.711 108.859 215.004 108.544C215.145 108.384 215.301 108.231 215.431 108.066L215.801 107.563C216.288 106.899 216.664 106.16 216.915 105.376C217.134 104.592 217.22 103.776 217.169 102.963C216.996 101.32 216.364 99.758 215.344 98.4568L215.311 98.4142L215.298 98.3951C213.405 95.4731 211.475 92.5696 209.51 89.6846C207.551 86.7995 205.532 83.9575 203.503 81.1263C201.457 78.3101 199.373 75.5107 197.089 72.9072C196.497 72.2853 195.933 71.6126 195.306 71.0578C194.675 70.4893 193.991 69.9832 193.262 69.5466C191.782 68.6727 190.189 68.0062 188.527 67.5659L188.601 67.5752L188.587 67.5751L188.545 67.5745L188.513 67.5655C186.56 67.051 184.562 66.7271 182.546 66.5983C180.522 66.4575 178.489 66.488 176.469 66.6894L176.453 66.5796C178.476 66.2905 180.52 66.1729 182.563 66.2281C184.618 66.2631 186.662 66.5199 188.661 66.994L188.587 66.9846L188.601 66.9844L188.635 66.9839L188.676 66.9939C190.41 67.4003 192.08 68.0431 193.639 68.9043C194.424 69.3438 195.163 69.858 195.848 70.4399C196.546 71.0269 197.114 71.6924 197.738 72.3222C200.109 74.9296 202.251 77.7033 204.359 80.4977C206.469 83.2913 208.465 86.1648 210.452 89.0411C212.431 91.925 214.377 94.8308 216.289 97.7586L216.244 97.6971C217.409 99.1933 218.12 100.993 218.291 102.881C218.343 103.831 218.233 104.783 217.965 105.696C217.671 106.591 217.234 107.433 216.67 108.189L216.249 108.746C216.104 108.926 215.943 109.082 215.79 109.25C215.48 109.579 215.178 109.922 214.849 110.221C214.209 110.846 213.556 111.451 212.889 112.036C211.567 113.223 210.194 114.34 208.822 115.456C203.305 119.885 197.638 124.098 191.91 128.233L191.749 128.35L191.617 128.21C190.98 127.535 190.38 126.826 189.819 126.087C189.254 125.349 188.746 124.57 188.299 123.756C187.836 122.938 187.507 122.052 187.323 121.13C187.221 120.658 187.214 120.171 187.303 119.696C187.392 119.221 187.574 118.769 187.839 118.365L187.844 118.359L187.849 118.353L194.604 110.318L201.295 102.227L201.302 102.73L197.695 98.8337L194.125 94.9046C191.736 92.2939 189.383 89.6499 187.033 87.0041L187.406 87.1577C187.051 87.2238 186.715 87.3688 186.424 87.5821C186.101 87.8166 185.814 88.0973 185.572 88.4152C185.085 89.0993 184.72 89.8631 184.495 90.6723C184.015 92.3578 183.613 94.1018 183.258 95.8282C182.573 99.3056 182.288 102.85 182.41 106.392L182.403 106.345C182.414 106.445 182.421 106.546 182.422 106.647L182.43 106.894L182.452 107.397L182.511 108.401C182.557 109.071 182.616 109.74 182.687 110.408C182.83 111.745 183.017 113.075 183.227 114.409L183.226 114.404L183.256 114.583L183.148 114.61Z" fill="#251302"/>
<path d="M169.782 66.6771C168.631 67.6542 167.48 68.5348 166.311 69.3607C165.161 70.1968 163.967 70.9703 162.733 71.6779L162.68 70.9014C163.776 71.4989 164.85 72.1441 165.96 72.711C167.075 73.2697 168.218 73.7696 169.385 74.2085L169.075 74.2702L170.74 72.1957C171.301 71.5093 171.887 70.8467 172.473 70.1833C173.635 68.8486 174.826 67.5395 176.045 66.2561L176.454 67.1862L169.782 66.6771ZM169.751 66.5706L176.455 66.0761L177.779 65.9785L176.864 67.0063C175.687 68.3283 174.484 69.6257 173.254 70.8985C172.643 71.5385 172.032 72.179 171.396 72.7959L169.47 74.6311L169.314 74.7792L169.16 74.6928C168.071 74.085 166.951 73.5347 165.805 73.0441C164.655 72.5622 163.469 72.1587 162.305 71.7074L161.581 71.4268L162.251 70.9308C163.441 70.0789 164.675 69.2901 165.948 68.5674C167.204 67.8331 168.477 67.1536 169.751 66.5706ZM141.299 97.8952C140.692 98.4252 140.056 98.9219 139.395 99.3832C138.758 99.8115 138.182 100.324 137.682 100.907C137.144 101.473 136.732 102.147 136.475 102.884C136.237 103.636 136.194 104.436 136.35 105.209C136.734 106.71 137.228 108.278 137.571 109.831C137.918 111.4 138.173 112.989 138.334 114.588L138.265 114.604C137.698 113.1 137.22 111.564 136.833 110.004C136.641 109.226 136.487 108.44 136.328 107.655C136.145 106.863 136.023 106.059 135.963 105.25C135.944 104.43 136.042 103.612 136.254 102.82C136.434 102.009 136.76 101.238 137.216 100.544C137.708 99.8622 138.354 99.3057 139.101 98.9188C139.801 98.5187 140.522 98.157 141.261 97.8353L141.299 97.8952Z" fill="#251302"/>
</svg>
