<svg width="21" height="19" viewBox="0 0 21 19" fill="none" xmlns="http://www.w3.org/2000/svg">
<path fill-rule="evenodd" clip-rule="evenodd" d="M2.80255 10.0873C3.36867 7.67184 3.28424 5.35705 3.3109 2.91683C3.31604 2.44027 2.92114 2.0512 2.4293 2.04564C1.93717 2.04008 1.53388 2.42331 1.52844 2.89987C1.50322 5.21377 1.6015 7.41351 1.06427 9.70785C0.955496 10.1719 1.25702 10.6344 1.73677 10.7378C2.21627 10.844 2.69407 10.5513 2.80255 10.0873Z" fill="black"/>
<path fill-rule="evenodd" clip-rule="evenodd" d="M8.09475 14.6532C12.1774 10.912 16 6.12495 18.6438 1.31303C18.8743 0.892723 18.7089 0.370393 18.2744 0.148535C17.84 -0.0733242 17.2999 0.0855938 17.0693 0.505905C14.5129 5.15839 10.8159 9.78822 6.86809 13.4036C6.51129 13.7314 6.49648 14.277 6.83495 14.6212C7.17342 14.9653 7.73795 14.981 8.09475 14.6532Z" fill="black"/>
<path fill-rule="evenodd" clip-rule="evenodd" d="M9.22148 18.6402C13.0313 19.1777 16.9265 18.0748 20.3523 16.5526C20.7992 16.3523 20.995 15.8408 20.7898 15.4111C20.5842 14.9785 20.0544 14.7899 19.6075 14.9873C16.4875 16.3749 12.9491 17.4255 9.47914 16.9364C8.99233 16.8676 8.53954 17.1943 8.4686 17.6634C8.39736 18.1325 8.73497 18.5714 9.22148 18.6402Z" fill="black"/>
</svg>
