<svg width="47" height="49" viewBox="0 0 47 49" fill="none" xmlns="http://www.w3.org/2000/svg">
<path fill-rule="evenodd" clip-rule="evenodd" d="M31.2647 3.27427C35.7525 4.47269 40.4511 5.07724 45.009 5.63107C45.9908 5.74718 46.9022 5.09926 46.9723 4.18643C47.1126 3.27294 46.4109 2.43752 45.4994 2.32141C41.0817 1.78826 36.5241 1.21775 32.2467 0.0640405C31.3351 -0.186186 30.353 0.32894 30.0725 1.21508C29.792 2.10054 30.3531 3.02338 31.2647 3.27427Z" fill="black"/>
<path fill-rule="evenodd" clip-rule="evenodd" d="M17.6734 20.2617C24.896 27.2754 33.0301 33.3863 40.1125 40.5881C40.7436 41.2608 41.8655 41.2968 42.5668 40.6689C43.268 40.0403 43.3378 38.9834 42.6366 38.3108C35.5543 31.0882 27.4201 24.9573 20.1975 17.923C19.4963 17.2664 18.3746 17.257 17.6734 17.9029C17.0423 18.5482 16.9722 19.6051 17.6734 20.2617Z" fill="black"/>
<path fill-rule="evenodd" clip-rule="evenodd" d="M4.13619 47.2412C3.92582 43.2269 3.71587 39.2126 3.5055 35.1977C3.5055 34.2782 2.66362 33.5682 1.68191 33.6129C0.700201 33.6583 -0.000609717 34.441 -0.000609637 35.3611C0.209757 39.3821 0.419713 43.4024 0.63008 47.4227C0.700203 48.3422 1.54181 49.0475 2.52352 48.9975C3.4351 48.9474 4.20631 48.1601 4.13619 47.2412Z" fill="black"/>
</svg>
