<svg width="279" height="16" viewBox="0 0 279 16" fill="none" xmlns="http://www.w3.org/2000/svg">
<path fill-rule="evenodd" clip-rule="evenodd" d="M146.489 5.09729C113.914 5.29551 81.3232 6.08183 48.8901 7.48737C33.4704 8.15574 15.5635 8.07219 0.608265 10.3509C-0.136914 10.4655 0.00500263 10.8095 0.0211321 10.8439C0.0533909 10.9144 0.188913 11.1486 0.782476 11.1601C0.846994 11.1617 1.30181 11.129 1.47601 11.1175C5.89225 10.8226 10.2924 10.4786 14.7118 10.2002C29.9703 9.23529 45.2739 8.50631 60.6001 7.86743C80.9425 7.01887 101.459 6.56672 121.856 6.21288C133.021 6.01958 144.454 6.27676 155.654 5.87705C159.767 5.86559 163.88 5.86398 167.993 5.87053C185.187 5.90166 202.362 6.23256 219.527 6.68633C225.046 6.83213 229.256 6.98939 234.659 7.09587C236.711 7.13682 239.966 7.16468 242.23 7.1827C242.563 7.18597 243.411 7.18922 243.763 7.19085C243.798 7.19413 243.834 7.19413 243.872 7.19413C244.008 7.19413 244.072 7.18921 244.085 7.18921C244.853 7.13188 244.782 6.7633 244.763 6.70761C244.759 6.69614 244.643 6.38488 243.982 6.37342C243.824 6.37014 242.692 6.3669 242.256 6.36362C240.004 6.3456 236.762 6.31775 234.721 6.27843C229.327 6.17195 225.12 6.01469 219.61 5.86889C202.42 5.41513 185.219 5.08258 167.999 5.05146C165.896 5.04818 163.79 5.04654 161.686 5.04818C161.615 4.9548 161.457 4.84996 161.109 4.80409C160.783 4.7615 158.451 4.72383 157.551 4.68615C150.889 4.40767 151.086 4.42077 143.757 4.19307C132.657 3.84742 130.966 3.76875 119.421 3.62295C98.4494 3.35757 77.4682 3.37889 56.4935 3.40511C46.1384 3.41985 35.051 3.77532 24.5379 3.11187C28.0025 2.90546 31.48 2.75476 34.951 2.58275C46.8029 1.99629 58.6645 1.6326 70.5648 1.37705C99.1107 0.764381 127.702 0.520316 156.238 1.35577C150.164 1.38526 144.092 1.45404 138.018 1.49827C113.292 1.68175 88.3265 1.54416 63.6517 2.49592C63.2098 2.51394 62.8775 2.71051 62.9098 2.93494C62.9421 3.161 63.3324 3.32974 63.7743 3.31336C88.4169 2.36159 113.347 2.50082 138.041 2.31735C147.215 2.25018 156.386 2.12897 165.561 2.16501C168.709 2.17812 171.858 2.2371 175.006 2.25676C175.629 2.26167 177.232 2.32392 177.461 2.29771C177.968 2.24038 178.077 2.05034 178.109 1.95696C178.125 1.90127 178.177 1.58019 177.403 1.46552C172.119 0.68248 162.367 0.71852 157.231 0.564533C128.344 -0.303688 99.3978 -0.0612478 70.4971 0.557974C58.5678 0.815164 46.6771 1.18049 34.793 1.76859C30.6413 1.97336 26.4799 2.15028 22.3443 2.42221C21.6765 2.46644 20.1765 2.53034 19.4507 2.59751C19.1474 2.62536 18.9281 2.66464 18.8313 2.69249C18.4539 2.80061 18.3861 2.95788 18.3861 3.06436C18.3829 3.14626 18.4506 3.43458 19.241 3.51321C31.2832 4.7107 44.3868 4.24056 56.4967 4.22418C77.4585 4.19797 98.4236 4.17665 119.382 4.44203C130.899 4.58782 132.582 4.66485 143.66 5.0105C144.754 5.04327 145.68 5.07272 146.489 5.09729Z" fill="black"/>
</svg>
