<svg width="200" height="254" viewBox="0 0 200 254" fill="none" xmlns="http://www.w3.org/2000/svg">
<path d="M148.829 152.314C148.758 152.314 148.688 152.31 148.617 152.305C148.825 151.085 149.04 149.86 149.327 148.631C149.6 149.814 149.812 150.989 150.011 152.168C149.624 152.26 149.227 152.309 148.829 152.314ZM150.165 153.069C150.156 153.775 150.156 154.481 150.156 155.187C150.156 155.959 150.16 156.735 150.156 157.507V179.69C149.903 181.172 149.659 182.65 149.327 184.128C148.995 182.65 148.75 181.172 148.497 179.69V155.29C148.497 154.551 148.497 153.808 148.489 153.069C148.518 152.903 148.543 152.741 148.572 152.575C149.071 152.634 149.576 152.624 150.073 152.546C150.106 152.72 150.136 152.895 150.165 153.069ZM122.009 115.554C122.009 115.554 122.096 115.708 122.266 115.949L122.258 115.957L121.039 117.265C120.541 117.618 120.043 117.971 119.508 118.286C119.79 117.734 120.109 117.215 120.425 116.692L121.35 115.708C121.752 115.625 122.009 115.554 122.009 115.554ZM129.298 107.832C129.012 108.38 128.692 108.903 128.377 109.422L127.153 110.73L126.929 110.967C126.631 110.867 126.326 110.788 126.017 110.73L126.548 110.161L127.771 108.853C128.269 108.505 128.767 108.156 129.298 107.832Z" fill="black"/>
<path d="M142.857 117.89C142.921 117.746 143.02 117.62 143.145 117.524C143.238 117.454 143.348 117.408 143.464 117.391C143.58 117.375 143.697 117.39 143.806 117.433C143.951 117.491 144.08 117.586 144.179 117.707H144.18L144.185 117.715L144.18 117.722L144.181 117.722C144.117 117.866 144.017 117.99 143.892 118.084C143.799 118.154 143.689 118.199 143.573 118.214C143.456 118.227 143.339 118.212 143.23 118.168C143.085 118.108 142.956 118.012 142.857 117.89ZM125.958 120.137L116.881 121.259C113.855 121.631 110.828 121.993 107.8 122.345C101.743 123.041 95.6905 123.779 89.6291 124.435L71.4503 126.453L53.2611 128.375L53.2589 128.375C53.2086 128.38 53.1579 128.375 53.1098 128.36C50.5165 127.519 47.9204 126.686 45.3344 125.823L37.5692 123.254C34.979 122.403 32.3932 121.538 29.8116 120.661L22.0664 118.029L29.8989 120.388C32.5095 121.175 35.1162 121.974 37.7188 122.786L45.5312 125.207C48.1377 126.007 50.7342 126.838 53.3334 127.661L53.1822 127.645L71.3615 125.631L89.551 123.712C95.6123 123.056 101.683 122.481 107.748 121.865C110.781 121.556 113.815 121.262 116.851 120.982L125.958 120.137Z" fill="#020202"/>
<path d="M22.0664 121.898C24.6367 122.794 27.1907 123.732 29.7525 124.65L37.4119 127.471L41.2399 128.886L45.0556 130.333L52.6871 133.226L52.4923 133.203C56.1291 132.711 59.7734 132.276 63.4147 131.82L74.3414 130.47L85.2777 129.195C88.9263 128.794 92.5727 128.378 96.2254 128.01C92.5977 128.573 88.9638 129.089 85.3321 129.621L74.4272 131.141L63.5129 132.588C59.8739 133.063 56.2377 133.561 52.5943 134.001L52.5897 134.002C52.5252 134.009 52.4598 134.001 52.3992 133.977L44.7923 131.019L40.9889 129.54L37.1977 128.03L29.6186 124.999C27.1009 123.966 24.5755 122.954 22.0664 121.898Z" fill="#020202"/>
<path d="M52.2346 170.783C52.1567 167.215 52.1316 163.648 52.1593 160.082C52.1756 156.516 52.2403 152.951 52.3144 149.387C52.4039 145.822 52.504 142.258 52.6524 138.696C52.7889 135.132 52.9791 131.57 53.2231 128.01C53.302 131.578 53.3275 135.145 53.2997 138.711C53.2831 142.276 53.2184 145.841 53.1433 149.406C53.0526 152.97 52.9527 156.534 52.8041 160.097C52.6672 163.66 52.4773 167.222 52.2346 170.783Z" fill="#020202"/>
<path d="M163.506 89.5793C162.996 89.351 162.527 89.0384 162.12 88.6545C161.717 88.2592 161.369 87.812 161.083 87.3246C160.803 86.8345 160.572 86.3184 160.392 85.7835C160.21 85.2429 160.079 84.6866 160.001 84.1218C159.997 84.0959 159.998 84.0697 160.003 84.044L160.012 83.9974C160.14 83.4171 160.205 82.8247 160.208 82.2304C160.212 81.6386 160.15 81.0483 160.022 80.4705C159.768 79.3189 159.289 78.2287 158.614 77.2618L158.66 77.3098C157.942 76.623 157.143 76.0272 156.28 75.5356C155.404 75.0545 154.453 74.7255 153.467 74.5626C151.444 74.3069 149.393 74.7102 147.617 75.7125C147.171 75.9516 146.741 76.2193 146.329 76.5141C146.124 76.6608 145.922 76.8128 145.728 76.971C145.637 77.0462 145.523 77.1397 145.462 77.203C145.385 77.2862 145.306 77.3833 145.23 77.4775C144.636 78.2691 144.189 79.1609 143.91 80.1105C143.629 81.0554 143.481 82.0349 143.471 83.0206C143.482 84.0096 143.6 84.9945 143.825 85.9576C143.84 86.0264 143.841 86.0974 143.829 86.1667C143.735 86.6859 143.633 87.1937 143.519 87.7068C143.409 88.2294 143.27 88.7455 143.103 89.2526C143.025 89.49 142.838 89.9045 142.88 89.8182C142.863 89.7885 142.89 89.8664 143.036 89.9685C143.368 90.1711 143.748 90.2832 144.137 90.2938L144.177 90.2923C144.264 90.2893 144.35 90.3076 144.429 90.3457C144.507 90.3838 144.575 90.4405 144.626 90.5109C145.208 91.3163 145.822 92.1106 146.432 92.8973C147.027 93.6784 147.672 94.4196 148.363 95.1162C148.449 95.194 148.534 95.2673 148.617 95.331C148.657 95.3589 148.699 95.3888 148.733 95.4094L148.779 95.4351C148.793 95.4425 148.79 95.4373 148.795 95.4433C148.811 95.4525 148.759 95.4345 148.745 95.4491C148.732 95.4568 148.786 95.4406 148.803 95.4376C148.857 95.4262 148.911 95.412 148.964 95.3951C149.073 95.3647 149.186 95.3246 149.298 95.2868C149.752 95.1194 150.192 94.9157 150.614 94.6778C151.477 94.2332 152.22 93.5863 152.779 92.792L152.793 92.7712C152.804 92.7536 152.819 92.7385 152.836 92.7266C152.853 92.7147 152.872 92.7063 152.892 92.7019C152.913 92.6975 152.934 92.6971 152.954 92.7008C152.975 92.7045 152.994 92.7122 153.012 92.7235L153.029 92.7363C153.277 92.9465 153.508 93.1763 153.72 93.4236C153.827 93.5473 153.923 93.6803 154.006 93.8211C154.097 93.9623 154.159 94.1198 154.189 94.2848C154.191 94.2976 154.188 94.3106 154.181 94.3213C154.173 94.3319 154.162 94.3395 154.15 94.3424C154.137 94.3453 154.124 94.3434 154.113 94.337C154.102 94.3306 154.093 94.3203 154.089 94.308L154.088 94.305C153.97 94.0245 153.786 93.7766 153.552 93.5825C153.326 93.3724 153.084 93.1806 152.828 93.0091L153.077 92.9533C152.577 93.8815 151.843 94.6627 150.948 95.2198C150.513 95.5109 150.055 95.7663 149.579 95.9836C149.456 96.0355 149.336 96.0906 149.205 96.1351C149.142 96.1591 149.076 96.1814 149.004 96.2013C148.964 96.2151 148.922 96.2257 148.88 96.2329C148.801 96.2453 148.721 96.2443 148.643 96.2298C148.465 96.1886 148.298 96.1134 148.149 96.0084C148.027 95.9267 147.916 95.8421 147.81 95.7564C147.038 95.0715 146.32 94.3267 145.664 93.529C144.998 92.7582 144.377 91.9628 143.756 91.1535L144.245 91.3704C143.92 91.3908 143.593 91.3554 143.28 91.2657C142.971 91.1863 142.679 91.0553 142.414 90.8782C142.251 90.7705 142.11 90.6342 141.996 90.4759C141.848 90.2747 141.773 90.0294 141.782 89.7799C141.785 89.658 141.809 89.5376 141.855 89.4244L141.913 89.2779L141.944 89.2074C141.987 89.1172 142.028 89.0023 142.067 88.8926C142.372 87.9346 142.625 86.9606 142.824 85.9752L142.827 86.1841C142.613 85.1361 142.516 84.0676 142.537 82.9982C142.58 81.9239 142.79 80.8629 143.16 79.8537C143.251 79.6018 143.366 79.3586 143.473 79.114C143.602 78.8784 143.71 78.6336 143.855 78.4083C144.125 77.9453 144.441 77.5111 144.799 77.1123C144.891 77.0126 144.981 76.9155 145.085 76.8169C145.191 76.7262 145.302 76.6412 145.416 76.562C145.631 76.4088 145.851 76.265 146.073 76.1272C146.518 75.8504 146.982 75.61 147.449 75.3801C149.326 74.4352 151.42 74.0067 153.517 74.1386C154.575 74.2276 155.611 74.4933 156.582 74.9248C157.555 75.3637 158.456 75.946 159.256 76.6525C159.271 76.6658 159.285 76.6803 159.298 76.696L159.301 76.7006C159.711 77.2254 160.052 77.8007 160.316 78.4122C160.582 79.0131 160.778 79.6428 160.9 80.2887C161.034 80.9333 161.084 81.5924 161.051 82.2499C161.022 82.9048 160.92 83.5545 160.746 84.1867L160.757 84.0626C160.797 84.5814 160.883 85.0956 161.016 85.5987C161.144 86.1092 161.319 86.6071 161.536 87.0863C161.757 87.5648 162.036 88.0144 162.367 88.425C162.708 88.836 163.108 89.1942 163.554 89.4879L163.557 89.4901C163.568 89.4975 163.575 89.5085 163.578 89.5211C163.581 89.5337 163.579 89.5469 163.573 89.5581C163.566 89.5693 163.556 89.5777 163.544 89.5817C163.531 89.5856 163.518 89.5847 163.506 89.5793Z" fill="black"/>
<path d="M144.746 88.998C144.656 88.9981 144.568 88.9748 144.49 88.9304C144.412 88.8859 144.347 88.8219 144.302 88.7446L142.881 86.333C142.846 86.2747 142.823 86.2102 142.814 86.1431C142.804 86.076 142.808 86.0077 142.825 85.942C142.842 85.8764 142.871 85.8147 142.912 85.7605C142.952 85.7063 143.003 85.6607 143.062 85.6262C143.12 85.5918 143.185 85.5692 143.252 85.5597C143.319 85.5503 143.387 85.5542 143.453 85.5712C143.518 85.5882 143.58 85.6179 143.634 85.6588C143.688 85.6996 143.733 85.7507 143.768 85.8092L145.189 88.2208C145.235 88.299 145.26 88.388 145.26 88.4789C145.261 88.5697 145.238 88.6591 145.193 88.7381C145.148 88.817 145.083 88.8826 145.004 88.9282C144.926 88.9739 144.836 88.9979 144.746 88.998Z" fill="black"/>
<path d="M143.636 86.8584C143.581 86.8584 143.528 86.8408 143.484 86.8084C143.44 86.7759 143.407 86.7302 143.391 86.6779C143.374 86.6257 143.375 86.5695 143.393 86.5176C143.41 86.4657 143.444 86.4208 143.489 86.3893C144.236 85.8679 150.83 81.3055 152.233 81.3618C152.267 81.3634 152.3 81.3716 152.33 81.3859C152.361 81.4003 152.389 81.4206 152.411 81.4456C152.434 81.4706 152.452 81.4998 152.463 81.5316C152.475 81.5635 152.48 81.5972 152.478 81.6311C152.474 81.699 152.444 81.7627 152.394 81.8086C152.343 81.8544 152.277 81.8789 152.209 81.8768C152.203 81.8763 152.196 81.8763 152.19 81.8763C151.218 81.8763 146.53 84.8944 143.783 86.8118C143.74 86.842 143.689 86.8583 143.636 86.8584Z" fill="black"/>
<path d="M151.479 82.856C151.47 82.4712 151.594 82.0951 151.829 81.7909C151.9 81.7082 151.987 81.6406 152.085 81.5921C152.183 81.5436 152.289 81.5152 152.398 81.5085L152.563 81.5059C152.616 81.5119 152.666 81.5272 152.718 81.5383C152.819 81.5578 152.917 81.5921 153.008 81.64C153.187 81.7219 153.356 81.8237 153.512 81.9436C153.654 82.0694 153.804 82.1839 153.941 82.3214C154.213 82.5998 154.438 82.921 154.607 83.2723C154.929 83.9792 155.021 84.77 154.868 85.5319C154.799 85.9109 154.652 86.2715 154.437 86.5909C154.326 86.7568 154.175 86.8908 153.997 86.9797C153.908 87.0247 153.806 87.0389 153.709 87.02C153.611 87.001 153.522 86.9501 153.456 86.8752C153.527 86.9213 153.611 86.9441 153.695 86.9404C153.779 86.9368 153.861 86.9069 153.927 86.855C154.055 86.7493 154.156 86.6139 154.22 86.4605C154.36 86.1478 154.444 85.8135 154.471 85.4721C154.537 84.7939 154.423 84.1103 154.141 83.4903C154.001 83.1855 153.814 82.9041 153.588 82.6562C153.478 82.5289 153.346 82.4145 153.226 82.2915C153.101 82.1836 152.968 82.0853 152.828 81.9977C152.712 81.903 152.569 81.8492 152.42 81.8447C152.271 81.8402 152.124 81.8852 152.003 81.9726C151.75 82.2128 151.569 82.5186 151.479 82.856ZM145.225 92.3749C145.619 92.3312 146.01 92.2575 146.393 92.1546C146.569 92.1056 146.739 92.039 146.901 91.9556C147.076 91.8761 147.239 91.7643 147.453 91.6561C147.418 91.8892 147.311 92.1055 147.146 92.2743C146.982 92.4517 146.773 92.5809 146.54 92.648C146.312 92.7149 146.072 92.7263 145.838 92.6813C145.608 92.6422 145.395 92.5356 145.225 92.3749ZM143.636 85.0673C143.617 84.7141 143.732 84.3671 143.958 84.0953C144.183 83.8154 144.479 83.6014 144.816 83.4762C145.141 83.3562 145.487 83.3009 145.834 83.3131C146.002 83.3257 146.17 83.3472 146.335 83.3777C146.498 83.4196 146.658 83.4725 146.814 83.5361C146.654 83.5772 146.492 83.6088 146.329 83.6307C146.171 83.6596 146.017 83.6939 145.864 83.7141C145.57 83.7718 145.281 83.853 145 83.9568C144.431 84.1582 143.949 84.5505 143.636 85.0673ZM145.795 87.2694C145.945 87.2642 146.087 87.2008 146.192 87.0927C146.296 86.9846 146.355 86.8401 146.355 86.6897C146.355 86.5393 146.296 86.3948 146.192 86.2867C146.087 86.1785 145.945 86.1152 145.795 86.11C145.645 86.1152 145.503 86.1785 145.398 86.2867C145.294 86.3948 145.235 86.5393 145.235 86.6897C145.235 86.8401 145.294 86.9846 145.398 87.0927C145.503 87.2008 145.645 87.2642 145.795 87.2694ZM157.472 101.963C156.883 101.472 156.215 101.085 155.496 100.818C154.787 100.552 154.051 100.364 153.301 100.256C152.547 100.143 151.786 100.08 151.023 100.069L149.867 100.074C149.481 100.092 149.093 100.111 148.699 100.108C149.074 99.9983 149.457 99.9112 149.841 99.8226C150.228 99.7638 150.618 99.7044 151.01 99.6669C151.801 99.6035 152.596 99.6306 153.381 99.7476C154.172 99.8635 154.94 100.101 155.659 100.452C156.383 100.791 157.008 101.312 157.472 101.963ZM128.579 123.102C128.799 122.372 129.091 121.666 129.452 120.994C129.803 120.314 130.214 119.666 130.681 119.06C131.145 118.443 131.687 117.888 132.293 117.411C132.894 116.92 133.605 116.584 134.365 116.432C133.699 116.765 133.088 117.198 132.554 117.717C132.021 118.228 131.531 118.783 131.088 119.375C130.174 120.545 129.393 121.819 128.579 123.102ZM146.814 131.025C147.046 131.084 147.287 131.096 147.524 131.061C147.758 131.035 147.99 130.982 148.213 130.905L148.542 130.775C148.65 130.728 148.751 130.664 148.855 130.611C149.062 130.499 149.261 130.371 149.448 130.228C150.202 129.656 150.873 128.981 151.442 128.225C151.717 127.838 151.997 127.455 152.261 127.06C152.508 126.654 152.774 126.259 153.006 125.843L153.696 124.591L154.325 123.305C155.156 121.576 155.969 119.828 156.828 118.108L158.115 115.526C158.56 114.674 158.99 113.814 159.449 112.969C159.095 113.866 158.71 114.748 158.341 115.637L157.185 118.28C156.41 120.041 155.614 121.785 154.789 123.526C153.986 125.296 152.964 126.957 151.748 128.473C151.124 129.226 150.397 129.887 149.588 130.437C149.382 130.569 149.165 130.685 148.941 130.784C148.828 130.831 148.719 130.888 148.603 130.927L148.252 131.035C147.783 131.177 147.281 131.174 146.814 131.025ZM146.339 119.411C146.308 119.411 146.277 119.405 146.248 119.394L143.944 118.528C143.88 118.504 143.828 118.456 143.8 118.393C143.772 118.331 143.77 118.261 143.794 118.197C143.818 118.133 143.866 118.081 143.928 118.053C143.99 118.025 144.061 118.022 144.125 118.046L146.429 118.912C146.486 118.933 146.533 118.974 146.563 119.026C146.592 119.079 146.603 119.14 146.592 119.199C146.581 119.259 146.55 119.312 146.504 119.351C146.457 119.39 146.399 119.411 146.339 119.411ZM127.412 118.769C126.858 118.942 126.271 118.981 125.698 118.882C125.118 118.777 124.562 118.565 124.059 118.256C123.56 117.952 123.1 117.586 122.691 117.168C122.281 116.746 121.917 116.282 121.605 115.783L122.128 116C121.065 116.273 119.968 116.392 118.871 116.352C118.31 116.344 117.754 116.249 117.221 116.072C116.937 115.976 116.685 115.802 116.493 115.57C116.394 115.451 116.318 115.314 116.27 115.167C116.235 115.011 116.235 114.85 116.27 114.694C116.347 114.409 116.498 114.15 116.706 113.942C116.891 113.735 117.095 113.546 117.314 113.377C117.738 113.035 118.184 112.722 118.65 112.44C119.566 111.872 120.522 111.37 121.508 110.936C122.005 110.732 122.471 110.494 123.042 110.319C123.598 110.149 124.175 110.059 124.756 110.051C125.331 110.048 125.903 110.125 126.457 110.279C127.004 110.416 127.536 110.608 128.044 110.852C129.035 111.337 129.953 111.958 130.772 112.696C131.587 113.41 132.311 114.222 132.927 115.114C132.934 115.125 132.937 115.137 132.936 115.15C132.934 115.162 132.928 115.174 132.919 115.182C132.909 115.191 132.897 115.195 132.885 115.196C132.872 115.196 132.86 115.191 132.851 115.183L132.848 115.181C131.301 113.779 129.54 112.635 127.63 111.792C127.17 111.596 126.692 111.446 126.202 111.345C125.728 111.218 125.241 111.151 124.751 111.146C124.267 111.131 123.784 111.182 123.314 111.297C122.859 111.407 122.357 111.624 121.861 111.799C120.877 112.175 119.885 112.532 118.923 112.954C118.447 113.166 117.986 113.412 117.544 113.688C117.331 113.829 117.133 113.99 116.95 114.168C116.774 114.33 116.645 114.535 116.575 114.764C116.546 114.869 116.548 114.981 116.578 115.086C116.609 115.192 116.667 115.287 116.748 115.361C116.903 115.537 117.112 115.658 117.342 115.706C117.838 115.807 118.348 115.82 118.849 115.745C119.871 115.586 120.884 115.373 121.884 115.109C121.983 115.086 122.087 115.095 122.181 115.134C122.275 115.173 122.354 115.24 122.408 115.327C122.678 115.769 122.987 116.186 123.331 116.574C123.671 116.971 124.051 117.332 124.465 117.651C124.876 117.971 125.333 118.225 125.821 118.406C126.325 118.588 126.858 118.676 127.395 118.667C127.408 118.667 127.422 118.672 127.432 118.682C127.442 118.691 127.447 118.704 127.448 118.718C127.448 118.729 127.444 118.74 127.438 118.749C127.432 118.758 127.422 118.765 127.412 118.769ZM136.119 155.008L137.275 157.835C137.28 157.848 137.282 157.862 137.279 157.876C137.276 157.89 137.27 157.902 137.26 157.912C137.251 157.923 137.238 157.93 137.224 157.933C137.211 157.936 137.196 157.935 137.183 157.931L137.179 157.929C136.598 157.702 135.991 157.554 135.371 157.488C134.755 157.436 134.135 157.482 133.533 157.625C132.337 157.962 131.251 158.608 130.383 159.498C129.504 160.384 128.746 161.381 128.126 162.464C127.491 163.539 126.957 164.67 126.53 165.844L126.529 165.846C126.515 165.886 126.488 165.921 126.454 165.946C126.419 165.971 126.378 165.984 126.335 165.985C126.292 165.985 126.251 165.973 126.215 165.949C126.18 165.925 126.153 165.891 126.138 165.851L123.893 160.046L121.686 154.228L122.095 154.129L122.885 162.175C123.141 164.858 123.419 167.539 123.698 170.219C123.7 170.237 123.696 170.255 123.687 170.27C123.08 171.226 122.163 171.942 121.089 172.298C120.037 172.66 118.938 172.866 117.826 172.908C116.72 172.961 115.612 172.935 114.51 172.831C113.406 172.731 112.31 172.567 111.226 172.338C111.2 172.333 111.176 172.32 111.158 172.3C111.14 172.281 111.128 172.257 111.124 172.231L111.124 172.227C110.493 168.158 109.963 164.075 109.535 159.979C109.119 155.882 108.801 151.772 108.695 147.648C108.686 146.617 108.676 145.585 108.691 144.553L108.743 143.004L108.772 142.23L108.835 141.456L108.966 139.908L109.2 138.367C109.281 137.852 109.394 137.342 109.538 136.841C109.603 136.589 109.661 136.334 109.734 136.083L110.009 135.347L110.288 134.613C110.403 134.378 110.53 134.147 110.651 133.914C110.776 133.684 110.889 133.446 111.025 133.222L111.478 132.575C111.783 132.146 112.123 131.743 112.495 131.371C112.682 131.185 112.879 131.011 113.086 130.847C113.28 130.67 113.489 130.509 113.711 130.367L114.373 129.938L115.08 129.586C115.317 129.474 115.56 129.376 115.809 129.292C116.054 129.197 116.305 129.119 116.56 129.059C117.575 128.781 118.63 128.68 119.679 128.761L119.511 128.857C119.73 128.383 120.002 127.936 120.321 127.523C120.648 127.118 121.018 126.75 121.424 126.425C122.248 125.799 123.175 125.322 124.163 125.016C125.142 124.714 126.151 124.521 127.173 124.441C128.189 124.352 129.212 124.355 130.228 124.45C130.235 124.451 130.241 124.454 130.245 124.459C130.249 124.465 130.252 124.472 130.251 124.478C130.25 124.485 130.247 124.491 130.241 124.496C130.236 124.5 130.229 124.502 130.222 124.501C129.21 124.436 128.194 124.463 127.187 124.58C126.182 124.689 125.192 124.908 124.235 125.234C123.281 125.547 122.389 126.024 121.598 126.643C121.215 126.96 120.867 127.317 120.56 127.709C120.263 128.106 120.011 128.535 119.809 128.989C119.795 129.019 119.772 129.044 119.744 129.062C119.716 129.079 119.683 129.087 119.649 129.085L119.64 129.085C117.615 128.971 115.612 129.544 113.953 130.713C112.336 131.927 111.128 133.608 110.491 135.529L110.228 136.238C110.158 136.481 110.103 136.729 110.04 136.974C109.901 137.462 109.793 137.958 109.715 138.459L109.49 139.968L109.365 141.496L109.305 142.259L109.278 143.027L109.231 144.562C109.217 145.587 109.235 146.612 109.239 147.638C109.314 151.741 109.609 155.843 109.988 159.935C110.359 164.028 110.826 168.112 111.39 172.187L111.288 172.076C112.358 172.319 113.44 172.499 114.531 172.614C115.622 172.738 116.72 172.775 117.817 172.726C118.911 172.691 119.995 172.495 121.033 172.144C122.074 171.811 122.964 171.117 123.541 170.187L123.53 170.237C123.233 167.559 122.935 164.88 122.615 162.204L121.673 154.174C121.667 154.123 121.68 154.071 121.709 154.029C121.738 153.986 121.782 153.956 121.832 153.943C121.883 153.931 121.936 153.937 121.981 153.961C122.027 153.985 122.063 154.024 122.082 154.073L122.082 154.075L124.325 159.881L126.527 165.702L126.135 165.709C126.579 164.512 127.134 163.358 127.792 162.264C128.442 161.161 129.238 160.152 130.158 159.263C131.079 158.354 132.222 157.703 133.474 157.376C134.104 157.238 134.753 157.207 135.393 157.284C136.027 157.371 136.646 157.543 137.235 157.794L137.139 157.888L136.071 155.026C136.068 155.02 136.069 155.013 136.071 155.007C136.074 155.001 136.079 154.996 136.085 154.993C136.092 154.991 136.099 154.991 136.105 154.994C136.111 154.996 136.116 155.001 136.119 155.008Z" fill="black"/>
<path d="M121.887 154.152L122.345 158.398L119.508 142.295L122.607 156.033L121.887 154.152Z" fill="black"/>
<path d="M142.9 131.474C137.176 131.474 120.425 129.284 119.627 129.179C119.593 129.175 119.561 129.164 119.532 129.147C119.502 129.13 119.477 129.108 119.456 129.081C119.435 129.054 119.42 129.023 119.411 128.991C119.402 128.958 119.4 128.924 119.405 128.89C119.409 128.857 119.42 128.824 119.437 128.795C119.454 128.765 119.476 128.74 119.503 128.719C119.53 128.699 119.561 128.683 119.593 128.675C119.626 128.666 119.66 128.664 119.694 128.668C119.913 128.697 141.661 131.538 144.369 130.859C144.401 130.851 144.436 130.849 144.469 130.854C144.503 130.859 144.535 130.87 144.564 130.888C144.593 130.905 144.618 130.928 144.639 130.955C144.659 130.982 144.674 131.013 144.682 131.046C144.69 131.079 144.692 131.113 144.687 131.147C144.682 131.18 144.67 131.212 144.653 131.241C144.635 131.27 144.612 131.296 144.585 131.316C144.558 131.336 144.527 131.351 144.494 131.359C143.969 131.454 143.434 131.492 142.9 131.474Z" fill="black"/>
<path d="M181.941 103.199C181.941 103.199 163.406 98.8729 158.834 121.01C154.262 143.143 153.097 141.536 153.097 141.536C144.754 153.638 128.484 146.215 124.792 144.309C124.373 144.082 123.894 143.988 123.42 144.039C122.946 144.09 122.498 144.284 122.137 144.596C121.146 145.505 121.299 146.975 121.299 146.975L121.37 148.64C121.382 148.908 121.453 149.17 121.576 149.409C121.699 149.647 121.872 149.857 122.083 150.022C128.098 154.805 138.805 155.797 148.496 155.291C149.052 155.262 149.608 155.228 150.156 155.187C158.531 154.602 165.878 152.957 168.35 151.803C173.909 149.204 175.515 150.317 184.164 127.437C192.818 104.561 181.941 103.199 181.941 103.199ZM185.629 109.298L185.624 109.294C183.194 107.968 180.396 107.478 177.66 107.899C174.971 108.351 172.619 109.925 170.819 111.947C169.911 112.969 169.103 114.076 168.404 115.251C167.69 116.431 167.055 117.657 166.504 118.922C165.417 121.475 164.509 124.101 163.787 126.781C163.435 128.126 163.065 129.475 162.75 130.837C162.584 131.518 162.389 132.19 162.215 132.867C162.041 133.544 161.854 134.217 161.663 134.889C160.959 137.605 160.084 140.275 159.046 142.881C158.784 143.533 158.469 144.164 158.166 144.799C157.826 145.422 157.515 146.053 157.129 146.647C156.401 147.872 155.531 149.006 154.536 150.026C153.539 151.07 152.309 151.862 150.948 152.339C150.662 152.431 150.369 152.501 150.073 152.546C149.576 152.625 149.07 152.634 148.571 152.576C147.942 152.498 147.337 152.289 146.795 151.961C146.791 151.958 146.786 151.954 146.783 151.95C146.78 151.945 146.778 151.94 146.777 151.935C146.775 151.929 146.775 151.924 146.776 151.918C146.778 151.913 146.78 151.908 146.783 151.903C146.788 151.895 146.796 151.888 146.805 151.885C146.814 151.882 146.824 151.883 146.833 151.886L146.837 151.89C147.396 152.148 148.001 152.289 148.616 152.306C148.687 152.31 148.758 152.314 148.828 152.314C149.226 152.309 149.623 152.261 150.01 152.169C150.281 152.105 150.547 152.024 150.807 151.928C152.059 151.4 153.176 150.597 154.076 149.578C154.998 148.563 155.81 147.454 156.498 146.269C156.864 145.684 157.175 145.065 157.507 144.463C157.801 143.836 158.141 143.234 158.415 142.599C159.599 140.08 160.597 137.479 161.402 134.814C161.817 133.482 162.136 132.124 162.464 130.771C162.779 129.409 163.041 128.043 163.348 126.673C163.918 123.919 164.735 121.222 165.787 118.614C166.825 115.964 168.305 113.509 170.163 111.353C171.126 110.281 172.252 109.368 173.499 108.646C174.753 107.928 176.133 107.456 177.564 107.255C180.414 106.932 183.285 107.629 185.67 109.223C185.675 109.226 185.679 109.23 185.682 109.234C185.685 109.239 185.687 109.244 185.689 109.25C185.69 109.255 185.69 109.261 185.689 109.266C185.688 109.272 185.686 109.277 185.683 109.281C185.677 109.29 185.668 109.296 185.658 109.299C185.649 109.302 185.638 109.302 185.629 109.298ZM167.412 183.853C167.403 184.28 167.269 184.694 167.025 185.044C166.785 185.388 166.496 185.695 166.166 185.954C165.51 186.47 164.795 186.904 164.036 187.249C162.52 187.941 160.939 188.48 159.316 188.858C156.075 189.628 152.748 189.974 149.417 189.888C146.099 189.801 142.795 189.405 139.55 188.705C137.922 188.375 136.326 187.9 134.783 187.286C134 186.973 133.259 186.565 132.574 186.073C132.22 185.816 131.908 185.505 131.65 185.151C131.372 184.774 131.213 184.322 131.192 183.853C131.193 183.379 131.333 182.915 131.596 182.52C131.843 182.146 132.145 181.813 132.494 181.533C133.162 180.992 133.901 180.546 134.69 180.207C136.231 179.533 137.838 179.025 139.486 178.691C142.752 178.01 146.081 177.677 149.417 177.699C152.751 177.683 156.075 178.064 159.319 178.834C160.942 179.217 162.522 179.758 164.039 180.45C164.799 180.796 165.514 181.231 166.17 181.748C166.499 182.008 166.788 182.316 167.027 182.661C167.27 183.012 167.404 183.427 167.412 183.853ZM167.309 183.853C167.294 183.031 166.711 182.348 166.074 181.867C165.415 181.384 164.692 180.996 163.925 180.713C162.391 180.146 160.802 179.738 159.183 179.498C155.951 179.011 152.686 178.777 149.417 178.798C146.153 178.783 142.894 179.065 139.681 179.641C138.088 179.931 136.525 180.372 135.015 180.957C134.278 181.246 133.578 181.624 132.932 182.083C132.314 182.536 131.782 183.149 131.756 183.853C131.735 184.56 132.245 185.231 132.851 185.726C133.481 186.233 134.178 186.65 134.922 186.965C136.43 187.609 138.004 188.083 139.617 188.378C141.231 188.681 142.863 188.874 144.503 188.956C146.14 189.057 147.781 189.066 149.417 189.03C152.688 188.981 155.952 188.712 159.186 188.224C160.804 187.979 162.393 187.569 163.929 187.002C164.695 186.718 165.419 186.329 166.078 185.844C166.714 185.362 167.297 184.676 167.309 183.853ZM122.681 171.323C122.952 171.818 123.152 172.349 123.276 172.9C123.419 173.444 123.529 173.995 123.623 174.548C123.807 175.655 123.956 176.766 124.06 177.882C124.109 178.445 124.164 178.986 124.19 179.568C124.204 180.157 124.104 180.743 123.896 181.293C123.791 181.571 123.653 181.835 123.486 182.08C123.316 182.316 123.131 182.541 122.931 182.753C122.533 183.175 122.073 183.534 121.567 183.819C120.561 184.369 119.448 184.698 118.305 184.781C117.739 184.831 117.169 184.817 116.607 184.741C116.324 184.707 116.044 184.649 115.771 184.568C115.5 184.484 115.239 184.389 114.975 184.293C112.861 183.524 110.938 182.355 108.859 181.556C106.794 180.733 104.662 180.038 102.616 179.105C101.571 178.657 100.578 178.095 99.6556 177.43C99.19 177.082 98.77 176.676 98.4055 176.223C98.1966 175.967 98.0616 175.66 98.0153 175.333C97.9915 175.165 97.9955 174.994 98.027 174.828C98.0636 174.666 98.1207 174.511 98.1969 174.364C98.5145 173.834 98.9836 173.412 99.5434 173.152C100.069 172.89 100.635 172.717 101.218 172.641C101.506 172.603 101.797 172.584 102.088 172.585C102.377 172.597 102.675 172.619 102.939 172.64C103.483 172.686 104.038 172.686 104.592 172.678C106.811 172.633 109.036 172.418 111.256 172.182C111.262 172.181 111.269 172.183 111.275 172.187C111.28 172.191 111.283 172.197 111.284 172.204C111.285 172.21 111.283 172.217 111.279 172.222C111.275 172.228 111.27 172.231 111.263 172.233C109.064 172.654 106.84 172.938 104.605 173.081C104.043 173.104 103.48 173.121 102.909 173.089C102.617 173.073 102.357 173.063 102.089 173.058C101.821 173.065 101.555 173.09 101.291 173.132C100.767 173.216 100.259 173.381 99.7858 173.621C99.329 173.838 98.9459 174.184 98.6843 174.617C98.5775 174.819 98.5349 175.048 98.5624 175.275C98.5899 175.501 98.686 175.714 98.838 175.884C99.1759 176.301 99.5605 176.677 99.9843 177.006C100.866 177.661 101.816 178.217 102.819 178.665C104.826 179.614 106.925 180.375 108.97 181.297C109.995 181.75 110.99 182.266 111.985 182.772C112.965 183.301 113.985 183.754 115.035 184.125C115.548 184.328 116.084 184.465 116.631 184.531C117.179 184.58 117.73 184.568 118.275 184.496C119.362 184.367 120.41 184.01 121.349 183.449C121.81 183.172 122.23 182.832 122.597 182.438C122.97 182.06 123.268 181.615 123.476 181.126C123.672 180.632 123.771 180.104 123.767 179.573C123.752 179.039 123.705 178.465 123.667 177.915C123.58 176.804 123.499 175.692 123.356 174.588C123.266 173.481 123.024 172.391 122.637 171.349L122.636 171.347C122.633 171.341 122.633 171.334 122.635 171.328C122.637 171.322 122.641 171.317 122.647 171.314C122.653 171.311 122.66 171.31 122.666 171.312C122.672 171.313 122.678 171.317 122.681 171.323Z" fill="black"/>
<path d="M113.288 172.573C113.339 173.169 113.426 173.761 113.549 174.345C113.661 174.922 113.83 175.486 114.054 176.029C114.252 176.55 114.594 177.004 115.039 177.339C115.255 177.483 115.503 177.573 115.762 177.6C116.03 177.621 116.299 177.593 116.557 177.517C117.104 177.355 117.62 177.103 118.085 176.772C118.567 176.456 118.998 176.068 119.362 175.62C120.107 174.701 120.533 173.565 120.577 172.383C120.731 173.615 120.411 174.859 119.682 175.864C118.937 176.88 117.889 177.633 116.689 178.015C116.369 178.103 116.037 178.131 115.707 178.1C115.368 178.062 115.044 177.938 114.765 177.74C114.254 177.341 113.877 176.795 113.682 176.176C113.307 175.015 113.173 173.789 113.288 172.573ZM104.403 175.825C104.263 175.499 104.215 175.14 104.266 174.788C104.308 174.426 104.438 174.08 104.644 173.779C104.848 173.479 105.122 173.231 105.441 173.058C105.595 172.972 105.759 172.903 105.928 172.853C106.097 172.81 106.269 172.783 106.443 172.771C106.309 172.891 106.169 172.977 106.04 173.079C105.917 173.189 105.782 173.273 105.672 173.387C105.616 173.442 105.559 173.493 105.5 173.543L105.347 173.713C105.244 173.823 105.151 173.942 105.07 174.069C104.726 174.6 104.499 175.199 104.403 175.825ZM107.184 175.825C107.041 175.505 106.996 175.149 107.055 174.803C107.107 174.455 107.225 174.121 107.402 173.817C107.58 173.52 107.806 173.254 108.071 173.029C108.203 172.921 108.341 172.821 108.486 172.731C108.636 172.649 108.791 172.577 108.951 172.518C108.859 172.657 108.759 172.792 108.653 172.921L108.363 173.306C108.177 173.554 108.004 173.812 107.846 174.078C107.522 174.616 107.298 175.208 107.184 175.825Z" fill="black"/>
<path d="M112.027 185.522C111.063 185.208 110.133 184.797 109.251 184.295C107.748 183.435 105.122 181.956 104.381 181.667C102.043 180.75 99.2686 179.802 98.2691 178.266C96.5655 175.649 98.2683 174.297 98.2683 174.297C98.8074 177.177 102.177 178.792 106.996 180.647C111.816 182.502 112.413 183.378 115.708 184.45C117.459 185.022 121.428 184.682 123.297 181.945C123.43 181.751 123.544 181.544 123.637 181.327L123.979 178.638C126.509 188.677 115.734 186.722 112.027 185.522ZM127.188 177.812C126.673 177.644 126.225 177.318 125.905 176.881C125.585 176.443 125.411 175.916 125.407 175.374C125.361 174.597 125.564 173.826 125.987 173.173C126.409 172.52 127.029 172.019 127.756 171.743C130.366 170.643 131.601 167.449 132.066 165.869C132.456 164.525 133.058 163.252 133.85 162.099C135.149 160.225 137.188 158.351 139.675 159.69C140.537 160.181 141.192 160.97 141.517 161.908C142.139 163.581 143.138 165.232 140.435 168.911C139.997 169.499 139.523 170.06 139.017 170.591C138.234 171.438 137.62 172.427 137.209 173.505C136.834 174.556 133.158 179.713 127.188 177.812Z" fill="black"/>
<path d="M127.681 162.848C127.941 164.182 127.939 165.554 127.675 166.887C127.426 168.229 126.963 169.522 126.304 170.718C125.975 171.306 125.614 171.875 125.221 172.423C125.047 172.69 124.91 172.978 124.812 173.281C124.726 173.589 124.691 173.909 124.707 174.229C124.706 174.886 124.823 175.539 125.054 176.155C125.155 176.47 125.336 176.752 125.58 176.975C125.824 177.198 126.121 177.354 126.443 177.426C126.102 177.398 125.779 177.263 125.519 177.04C125.263 176.811 125.056 176.531 124.911 176.219C124.624 175.597 124.459 174.924 124.425 174.239C124.394 173.889 124.414 173.537 124.484 173.193C124.564 172.849 124.693 172.519 124.865 172.211C125.218 171.61 125.568 171.081 125.865 170.484C126.476 169.316 126.939 168.077 127.245 166.795C127.566 165.505 127.713 164.177 127.681 162.848ZM136.107 157.505C136.352 157.521 136.592 157.581 136.816 157.681C137.037 157.774 137.247 157.894 137.439 158.038C137.635 158.184 137.808 158.358 137.954 158.555C138.111 158.754 138.208 158.994 138.233 159.247C138.03 159.092 137.849 158.97 137.669 158.839L137.129 158.449C136.751 158.178 136.408 157.86 136.107 157.505ZM129.459 123.799C129.459 123.807 129.459 123.815 129.456 123.822C129.454 123.83 129.45 123.837 129.445 123.843C129.44 123.849 129.434 123.854 129.427 123.858C129.42 123.862 129.413 123.864 129.405 123.865L112.848 126.19L96.6697 128.391L96.7775 146.201L96.8273 155.298L96.8522 164.394C96.8529 164.545 96.7991 164.691 96.7008 164.806C96.6025 164.92 96.4662 164.995 96.3171 165.017H96.3129L74.3222 168.239L52.3191 171.382H52.3149C52.1955 171.399 52.0738 171.378 51.9664 171.323L36.8372 163.771L21.7287 156.178H21.7245C21.654 156.142 21.5948 156.088 21.5537 156.02C21.5126 155.953 21.4913 155.875 21.4922 155.796L21.7245 136.914C21.8117 130.616 21.82 124.322 21.8738 118.028C21.8742 117.98 21.8923 117.934 21.9244 117.899C21.9566 117.864 22.0007 117.842 22.0481 117.837L34.3564 116.533L34.8667 116.479L34.9787 116.467C34.9124 116.625 34.8459 116.782 34.7837 116.944L34.4228 116.982L22.2597 118.202C22.2638 124.442 22.2223 130.678 22.2597 136.914L22.3427 155.535L37.3143 162.808L52.3274 170.157L74.1356 166.939L95.5953 163.85L95.6201 155.298L95.6741 146.201L95.7861 128.009V128.004C95.7862 127.898 95.8251 127.796 95.8953 127.716C95.9656 127.637 96.0625 127.586 96.1677 127.573L112.774 125.626L129.392 123.745C129.4 123.744 129.408 123.745 129.416 123.747C129.423 123.749 129.43 123.753 129.437 123.758C129.443 123.763 129.448 123.769 129.452 123.776C129.455 123.783 129.458 123.791 129.459 123.799Z" fill="black"/>
<path d="M35.4389 116.418C35.497 116.567 35.5593 116.717 35.6173 116.862C35.3933 116.883 35.1693 116.908 34.9453 116.928C35.0324 116.766 35.1195 116.605 35.2025 116.443L35.4389 116.418ZM35.7542 116.384C36.1234 116.347 36.4926 116.31 36.8618 116.268C36.7955 116.43 36.729 116.596 36.6627 116.758C36.4304 116.779 36.1981 116.804 35.9658 116.829C35.8953 116.679 35.8247 116.534 35.7542 116.384ZM37.2435 116.426L37.3513 116.688C37.2767 116.696 37.202 116.704 37.1315 116.712C37.1688 116.617 37.2061 116.521 37.2435 116.426ZM38.6664 116.073H38.7078L38.5212 116.575C38.264 116.6 38.0068 116.625 37.7538 116.65L37.5836 116.189C37.9446 116.152 38.3054 116.11 38.6664 116.073ZM38.9319 116.281L39.019 116.526C38.961 116.534 38.8987 116.538 38.8406 116.542L38.9319 116.281ZM40.5 116.002L40.3299 116.401L39.2845 116.501L39.1393 116.065C39.5915 116.052 40.0478 116.032 40.5 116.002ZM40.6245 116.044L40.7531 116.36C40.666 116.368 40.5788 116.376 40.4917 116.384L40.6245 116.044ZM145.654 112.212C145.65 112.227 145.641 112.24 145.628 112.249C145.615 112.257 145.599 112.261 145.583 112.258L135.071 110.037C131.587 109.298 128.106 108.549 124.63 107.79L111.865 109.223L99.0506 110.597L86.232 111.967L73.4093 113.267C69.1323 113.702 64.8553 114.101 60.5783 114.504L47.7431 115.704C45.7684 115.886 43.7952 116.072 41.8233 116.26C41.5039 116.289 41.1845 116.318 40.8651 116.351L40.7323 115.986C41.1139 115.957 41.4957 115.924 41.8814 115.874C41.6533 115.845 41.4209 115.82 41.1927 115.795C41.4334 115.77 41.6698 115.741 41.9062 115.716C43.8312 115.5 45.7547 115.283 47.6767 115.064L60.487 113.624C64.7557 113.138 69.0244 112.656 73.2973 112.216L86.12 110.867L98.9469 109.592L111.774 108.322L124.605 107.114H124.613C124.646 107.112 124.68 107.115 124.713 107.122C128.201 107.936 131.686 108.765 135.167 109.609L145.608 112.137C145.616 112.139 145.624 112.142 145.631 112.147C145.637 112.152 145.643 112.158 145.647 112.165C145.651 112.172 145.654 112.18 145.655 112.188C145.657 112.196 145.656 112.204 145.654 112.212ZM58.4751 152.168V166.724L91.0981 162.518V148.419L58.4751 152.168ZM77.0101 158.388C74.604 158.388 74.6082 154.651 77.0101 154.651C79.4162 154.651 79.4121 158.388 77.0101 158.388ZM58.4751 135.001V149.557L91.0981 145.351V131.252L58.4751 135.001ZM77.0101 141.22C74.604 141.22 74.6082 137.484 77.0101 137.484C79.4162 137.484 79.4121 141.22 77.0101 141.22Z" fill="black"/>
<path d="M130.672 113.067L130.677 113.067C131.362 112.892 132.052 112.748 132.739 112.588C133.428 112.439 134.118 112.292 134.809 112.156C134.846 112.149 134.884 112.153 134.918 112.168L134.927 112.172C136.377 112.811 137.812 113.479 139.241 114.16C140.669 114.845 142.09 115.543 143.497 116.27L143.509 116.276C143.551 116.297 143.582 116.335 143.596 116.379C143.611 116.424 143.607 116.473 143.585 116.515C143.571 116.541 143.551 116.564 143.526 116.581C143.502 116.597 143.473 116.607 143.443 116.61C142.853 116.664 142.263 116.725 141.67 116.766C141.078 116.809 140.487 116.861 139.893 116.891C140.475 116.767 141.06 116.666 141.643 116.556C142.227 116.445 142.812 116.353 143.397 116.254L143.343 116.594C141.892 115.961 140.454 115.298 139.022 114.623C137.592 113.943 136.168 113.251 134.758 112.53L134.876 112.546C134.179 112.649 133.48 112.741 132.781 112.831C132.08 112.909 131.381 113.004 130.677 113.068L130.672 113.067ZM127.665 118.488L124.207 119.043C123.055 119.231 121.898 119.388 120.744 119.562C119.589 119.728 118.436 119.91 117.279 120.064L113.81 120.535C113.773 120.54 113.735 120.536 113.7 120.524C112.306 120.043 110.906 119.58 109.518 119.08L105.348 117.604C105.32 117.595 105.294 117.58 105.272 117.56C105.25 117.54 105.232 117.516 105.219 117.489C105.206 117.462 105.198 117.433 105.197 117.404C105.195 117.374 105.199 117.344 105.209 117.316C105.222 117.278 105.246 117.244 105.276 117.218C105.307 117.192 105.345 117.174 105.384 117.167C107.252 116.848 109.127 116.577 110.999 116.284C112.871 115.992 114.748 115.728 116.626 115.474C114.77 115.858 112.912 116.233 111.05 116.581C109.187 116.926 107.328 117.294 105.461 117.614L105.497 117.177L109.683 118.607C111.081 119.076 112.466 119.581 113.858 120.07L113.748 120.058L117.222 119.625C118.379 119.477 119.541 119.357 120.7 119.221C121.86 119.093 123.018 118.949 124.18 118.835C125.341 118.717 126.502 118.591 127.665 118.488ZM114.196 111.121C112.948 111.484 111.692 111.815 110.44 112.159C110.126 112.242 109.815 112.337 109.498 112.407L108.546 112.607L106.645 113.018L105.695 113.224C105.349 113.318 104.988 113.339 104.634 113.287C104.259 113.23 103.91 113.06 103.633 112.8C103.492 112.658 103.385 112.488 103.317 112.301C103.249 112.113 103.222 111.913 103.239 111.715C103.318 111.001 103.643 110.337 104.159 109.837C104.406 109.591 104.685 109.38 104.99 109.211C105.139 109.127 105.293 109.052 105.452 108.986C105.596 108.925 105.739 108.859 105.88 108.788C107.019 108.26 107.978 107.41 108.638 106.341C108.948 105.806 109.154 105.216 109.244 104.604C109.325 104.002 109.326 103.334 109.358 102.69L109.676 94.9093L109.681 94.9748C109.65 94.889 109.606 94.8083 109.552 94.7352C109.488 94.6482 109.416 94.5679 109.336 94.4958C109.16 94.3515 108.972 94.2241 108.772 94.1153C108.346 93.8902 107.89 93.7271 107.417 93.6309C106.93 93.5361 106.436 93.4764 105.94 93.4521C105.44 93.4242 104.938 93.4274 104.434 93.4358C104.932 93.3673 105.433 93.2919 105.94 93.2691C106.45 93.2402 106.961 93.2478 107.47 93.2921C107.994 93.3426 108.507 93.4681 108.995 93.6648C109.25 93.7722 109.484 93.9243 109.686 94.1139C109.916 94.3148 110.088 94.5741 110.184 94.8646C110.189 94.8807 110.191 94.8974 110.191 94.9141L110.19 94.9303L109.873 102.711C109.839 103.363 109.843 103.996 109.753 104.682C109.653 105.358 109.426 106.008 109.084 106.599C108.373 107.756 107.338 108.677 106.108 109.25C105.959 109.325 105.808 109.395 105.654 109.46C105.513 109.519 105.375 109.586 105.241 109.66C104.978 109.807 104.737 109.989 104.523 110.201C104.098 110.613 103.827 111.157 103.753 111.745C103.74 111.87 103.755 111.997 103.796 112.116C103.838 112.235 103.906 112.344 103.995 112.433C104.196 112.618 104.448 112.738 104.718 112.779C105.008 112.82 105.304 112.8 105.586 112.72L106.536 112.514L108.438 112.103L109.387 111.891C109.704 111.824 110.027 111.781 110.347 111.727C111.629 111.524 112.909 111.306 114.196 111.121Z" fill="black"/>
<path d="M106.318 87.8745C106.87 88.5014 107.38 89.1658 108.057 89.8093L100.826 98.7728C100.701 90.2411 94.7734 89.8093 94.7734 89.8093L104.518 86.0977C104.856 86.3668 105.179 86.6551 105.485 86.9611C105.775 87.2559 106.045 87.5631 106.318 87.8745Z" fill="black"/>
<path d="M111.15 89.8088H108.059C108.016 89.3488 107.891 88.9003 107.69 88.4844C107.497 88.0668 107.247 87.6783 106.947 87.3301C106.644 86.9741 106.282 86.6723 105.877 86.4375C105.467 86.1965 104.996 86.0783 104.52 86.0971L105.898 83.498L111.15 89.8088ZM100.83 98.7733C99.9062 98.4884 99.045 98.0316 98.2913 97.4267C97.5198 96.8296 96.8472 96.1146 96.2983 95.3079C96.1557 95.1094 96.0268 94.9014 95.9124 94.6854C95.7977 94.4697 95.6644 94.2639 95.5659 94.0403C95.3614 93.5976 95.1939 93.1387 95.0651 92.6682C94.7977 91.7397 94.6992 90.7706 94.7745 89.8072C95.0197 90.7073 95.3208 91.5912 95.676 92.4537C96.0246 93.2934 96.4625 94.0929 96.9822 94.8387C97.4919 95.5942 98.0732 96.2988 98.7179 96.9427C99.3765 97.6034 100.082 98.2152 100.83 98.7733Z" fill="black"/>
<path d="M98.2962 95.8974C101.278 95.8974 101.283 91.2598 98.2962 91.2598C95.3145 91.2598 95.3096 95.8974 98.2962 95.8974ZM76.6562 114.823L84.2796 113.501C86.8762 113.059 89.5057 112.605 92.1288 112.265L92.1372 112.264C92.1761 112.259 92.2155 112.266 92.2499 112.285L95.3 113.93C96.3139 114.485 97.338 115.019 98.3613 115.554C99.3807 116.097 100.416 116.609 101.445 117.134C102.474 117.66 103.515 118.16 104.549 118.675C104.575 118.688 104.597 118.709 104.61 118.735C104.624 118.761 104.629 118.79 104.625 118.819C104.621 118.848 104.608 118.875 104.588 118.896C104.568 118.918 104.541 118.932 104.512 118.937L104.507 118.938C101.905 119.409 99.301 119.869 96.6927 120.301C94.0855 120.741 91.4787 121.182 88.8651 121.582L88.8626 121.582C88.8053 121.591 88.7468 121.581 88.6958 121.554C86.6361 120.447 84.5961 119.291 82.577 118.157C80.5723 117.013 78.5993 115.894 76.6562 114.823ZM76.7071 114.831C78.811 115.923 80.8849 116.967 82.9271 117.986C84.955 119.015 86.9618 120.022 88.949 121.079L88.7799 121.051C91.3872 120.612 94.0012 120.215 96.6149 119.815C99.2273 119.409 101.844 119.029 104.463 118.661L104.421 118.924C103.401 118.383 102.388 117.827 101.362 117.297C100.336 116.765 99.3175 116.221 98.2828 115.707C97.2516 115.187 96.2214 114.665 95.1809 114.162L92.068 112.639L92.1889 112.659C89.653 113.108 87.1235 113.442 84.561 113.788L80.6763 114.296L76.7071 114.831Z" fill="black"/>
<path d="M85.7635 116.451C86.3229 116.327 86.8883 116.231 87.4575 116.163C87.9967 116.249 88.5383 116.318 89.0787 116.396L92.3225 116.851L95.5661 117.306L97.188 117.533C97.7069 117.764 98.2264 117.991 98.7384 118.271C98.1691 118.4 97.6074 118.475 97.0451 118.554L95.4232 118.327L92.1795 117.872L88.9358 117.416C88.3948 117.343 87.8552 117.26 87.3132 117.194C86.7844 116.973 86.2672 116.725 85.7635 116.451ZM43.6211 117.705L51.2444 116.383C53.841 115.941 56.4705 115.487 59.0937 115.147L59.1021 115.146C59.1409 115.141 59.1804 115.148 59.2148 115.167L62.2648 116.813C63.2787 117.367 64.3029 117.901 65.326 118.437C66.3456 118.98 67.3812 119.492 68.4102 120.016C69.4385 120.542 70.4797 121.043 71.5139 121.557C71.5401 121.57 71.5615 121.591 71.5751 121.617C71.5888 121.643 71.5939 121.673 71.5899 121.702C71.5859 121.731 71.5728 121.758 71.5526 121.779C71.5324 121.8 71.5061 121.814 71.4773 121.819L71.472 121.82C68.8699 122.291 66.2659 122.751 63.6575 123.183C61.0504 123.623 58.4434 124.064 55.8299 124.464L55.8274 124.465C55.7702 124.473 55.7117 124.463 55.6607 124.436C53.601 123.33 51.5609 122.174 49.5419 121.04C47.5372 119.896 45.5641 118.777 43.6211 117.705ZM43.6719 117.714C45.7758 118.805 47.8497 119.849 49.8919 120.868C51.9197 121.897 53.9267 122.905 55.9139 123.962L55.7448 123.933C58.3521 123.494 60.966 123.097 63.5796 122.698C66.1921 122.291 68.809 121.912 71.4277 121.544L71.3859 121.807C70.3657 121.265 69.3525 120.71 68.3265 120.179C67.3011 119.647 66.2824 119.103 65.2476 118.59C64.2165 118.069 63.1863 117.547 62.1457 117.045L59.0328 115.522L59.1537 115.541C56.6178 115.99 54.0883 116.324 51.5259 116.67L47.6412 117.178L43.6719 117.714Z" fill="black"/>
<path d="M62.4737 117.045C63.4083 116.854 64.3446 116.674 65.2825 116.504C66.2213 116.341 67.1576 116.161 68.0985 116.011C69.9795 115.707 71.8575 115.382 73.7472 115.135L73.7572 115.134C73.7981 115.128 73.8397 115.136 73.8759 115.156L76.9161 116.821C77.929 117.377 78.9534 117.911 79.9789 118.442C81.0096 118.963 82.0403 119.485 83.0817 119.985L86.1985 121.501C86.237 121.519 86.2685 121.55 86.2886 121.588C86.3087 121.625 86.3164 121.668 86.3106 121.711C86.3047 121.753 86.2856 121.793 86.256 121.823C86.2264 121.854 86.1878 121.875 86.1458 121.882L86.1377 121.884L82.2297 122.561C80.9267 122.784 79.6234 123.005 78.3177 123.212C77.0115 123.415 75.7055 123.619 74.3961 123.803C73.0871 123.989 71.7798 124.185 70.4679 124.353L70.4589 124.354C70.4276 124.358 70.3958 124.352 70.3683 124.337C69.2541 123.706 68.1456 123.064 67.0428 122.411C67.0371 122.408 67.033 122.402 67.0312 122.396C67.0294 122.389 67.0301 122.383 67.0332 122.377C67.0364 122.371 67.0416 122.366 67.0479 122.364C67.0542 122.362 67.061 122.363 67.067 122.366C68.2239 122.917 69.3739 123.481 70.5172 124.057L70.4178 124.041C71.7163 123.79 73.0194 123.567 74.3208 123.334C75.6219 123.098 76.9262 122.883 78.2305 122.667C79.5353 122.455 80.8423 122.257 82.1497 122.061L86.073 121.481L86.0121 121.864L82.966 120.211C81.953 119.655 80.9292 119.12 79.9056 118.585C78.8768 118.06 77.8468 117.537 76.8055 117.037L73.6826 115.533L73.811 115.553C71.9337 115.882 70.0444 116.133 68.1583 116.404C67.2156 116.541 66.2683 116.649 65.3235 116.774C64.3781 116.893 63.4307 117 62.4815 117.096C62.4749 117.097 62.4683 117.095 62.4631 117.091C62.4579 117.087 62.4544 117.081 62.4534 117.074C62.4524 117.068 62.454 117.061 62.4577 117.056C62.4615 117.05 62.4672 117.046 62.4737 117.045ZM126.105 92.1133C125.889 92.7237 125.644 93.3215 125.4 93.9193L124.425 95.5634L122.554 98.7271H121.832L121.944 98.5402L123.89 95.2479L124.864 93.5997C125.271 93.1015 125.674 92.5991 126.105 92.1133ZM121.55 94.1809L121.318 96.2153L121.031 98.7271H120.405L120.7 96.1446L120.928 94.1103C121.098 93.4419 121.264 92.7734 121.471 92.1133C121.521 92.8067 121.537 93.4917 121.55 94.1809ZM118.982 98.7271H119.376L119.156 97.1868L118.978 95.9495L118.704 94.0065C118.517 93.3755 118.335 92.7403 118.115 92.1134C118.086 92.6572 118.078 93.197 118.082 93.7367V94.0979L118.161 94.6335L118.364 96.0367L118.75 98.7271H118.982ZM117.667 98.7271H117.041L116.651 96.0368L116.373 94.0978C116.369 93.4378 116.369 92.7776 116.406 92.1133C116.626 92.7403 116.808 93.3754 116.995 94.0065L117.269 95.9496L117.534 97.8013L117.667 98.7271Z" fill="black"/>
<path d="M118.164 94.2672V94.6325L118.16 96.177V98.7262H117.537V94.2673C117.629 93.632 117.72 92.9968 117.849 92.3574C117.94 92.8183 118.019 93.2791 118.085 93.7358C118.114 93.9143 118.139 94.0887 118.164 94.2672ZM120.081 94.5868L119.865 96.4842L119.612 98.7262H118.985L119.16 97.1859L119.247 96.4136L119.458 94.5163C119.62 93.8935 119.782 93.2708 119.981 92.6563C120.039 93.2999 120.06 93.9434 120.081 94.5868ZM115.75 101.267V103.509C115.857 103.497 115.965 103.488 116.073 103.476L117.006 101.379C116.588 101.35 116.169 101.317 115.75 101.267ZM117.123 101.416L116.123 103.472C116.724 103.409 117.33 103.368 117.932 103.343L117.123 101.416ZM117.255 101.396L118.11 103.239L118.79 101.458C118.28 101.45 117.766 101.425 117.255 101.396ZM119.006 101.637L118.305 103.33C118.749 103.314 119.189 103.305 119.632 103.301L119.006 101.637ZM119.89 101.475C119.674 101.47 119.454 101.466 119.238 101.466L119.873 103.032L120.412 101.466C120.238 101.47 120.064 101.47 119.89 101.475ZM120.69 101.869L120.147 103.301C120.495 103.305 120.844 103.31 121.192 103.322C121.018 102.836 120.852 102.355 120.69 101.869ZM120.981 101.458C121.159 101.952 121.329 102.446 121.495 102.94C121.719 102.43 121.939 101.923 122.167 101.417C121.773 101.437 121.379 101.45 120.981 101.458ZM122.399 101.649C122.192 102.214 121.976 102.774 121.761 103.339C122.238 103.355 122.715 103.384 123.188 103.426C122.914 102.836 122.657 102.247 122.399 101.649ZM115.75 98.7263L115.75 101.267C117.124 101.117 118.507 101.048 119.89 101.059C120.143 101.059 120.396 101.064 120.649 101.068C120.685 101.057 120.724 101.057 120.761 101.068C121.292 101.076 121.819 101.097 122.346 101.126C122.359 101.121 122.373 101.118 122.387 101.118C122.408 101.118 122.43 101.122 122.449 101.13C122.976 101.163 123.503 101.205 124.03 101.267V98.7262L115.75 98.7263ZM116.716 100.582C116.555 100.577 116.402 100.509 116.289 100.393C116.177 100.276 116.114 100.121 116.114 99.9593C116.114 99.7976 116.177 99.6423 116.289 99.5261C116.402 99.4099 116.555 99.3419 116.716 99.3366C116.877 99.3422 117.03 99.4103 117.142 99.5265C117.254 99.6426 117.317 99.7978 117.317 99.9593C117.317 100.121 117.254 100.276 117.142 100.392C117.03 100.508 116.877 100.576 116.716 100.582ZM118.956 100.582C118.795 100.577 118.642 100.509 118.529 100.393C118.417 100.276 118.354 100.121 118.354 99.9593C118.354 99.7976 118.417 99.6423 118.529 99.5261C118.642 99.4099 118.795 99.3419 118.956 99.3366C119.118 99.3422 119.27 99.4103 119.382 99.5265C119.494 99.6426 119.557 99.7978 119.557 99.9593C119.557 100.121 119.494 100.276 119.382 100.392C119.27 100.508 119.118 100.576 118.956 100.582ZM121.122 100.507C120.96 100.502 120.807 100.434 120.695 100.318C120.583 100.202 120.52 100.046 120.52 99.8846C120.52 99.7229 120.583 99.5676 120.695 99.4514C120.807 99.3352 120.96 99.2672 121.122 99.2619C121.283 99.2675 121.436 99.3356 121.548 99.4518C121.66 99.5679 121.723 99.7231 121.723 99.8846C121.723 100.046 121.66 100.201 121.548 100.317C121.436 100.434 121.283 100.502 121.122 100.507ZM123.25 100.582C123.088 100.577 122.935 100.509 122.823 100.393C122.711 100.276 122.648 100.121 122.648 99.9593C122.648 99.7976 122.711 99.6423 122.823 99.5261C122.935 99.4099 123.088 99.3419 123.25 99.3366C123.411 99.3422 123.564 99.4103 123.676 99.5265C123.788 99.6426 123.851 99.7978 123.851 99.9593C123.851 100.121 123.788 100.276 123.676 100.392C123.564 100.508 123.411 100.576 123.25 100.582ZM122.582 101.392C122.814 102.068 123.038 102.745 123.246 103.43C123.507 103.455 123.768 103.476 124.03 103.509V101.267C123.549 101.321 123.067 101.363 122.582 101.392ZM117.123 101.416L116.123 103.472C116.724 103.409 117.33 103.368 117.932 103.343L117.123 101.416ZM117.255 101.396L118.11 103.239L118.79 101.458C118.28 101.45 117.766 101.425 117.255 101.396ZM119.006 101.637L118.305 103.33C118.749 103.314 119.189 103.305 119.632 103.301L119.006 101.637ZM119.89 101.475C119.674 101.47 119.454 101.466 119.238 101.466L119.873 103.032L120.412 101.466C120.238 101.47 120.064 101.47 119.89 101.475ZM120.69 101.869L120.147 103.301C120.495 103.305 120.844 103.31 121.192 103.322C121.018 102.836 120.852 102.355 120.69 101.869ZM120.981 101.458C121.159 101.952 121.329 102.446 121.495 102.94C121.719 102.43 121.939 101.923 122.167 101.417C121.773 101.437 121.379 101.45 120.981 101.458ZM122.399 101.649C122.192 102.214 121.976 102.774 121.761 103.339C122.238 103.355 122.715 103.384 123.188 103.426C122.914 102.836 122.657 102.247 122.399 101.649ZM117.123 101.416L116.123 103.472C116.724 103.409 117.33 103.368 117.932 103.343L117.123 101.416ZM117.255 101.396L118.11 103.239L118.79 101.458C118.28 101.45 117.766 101.425 117.255 101.396ZM119.006 101.637L118.305 103.33C118.749 103.314 119.189 103.305 119.632 103.301L119.006 101.637ZM119.89 101.475C119.674 101.47 119.454 101.466 119.238 101.466L119.873 103.032L120.412 101.466C120.238 101.47 120.064 101.47 119.89 101.475ZM120.69 101.869L120.147 103.301C120.495 103.305 120.844 103.31 121.192 103.322C121.018 102.836 120.852 102.355 120.69 101.869ZM120.981 101.458C121.159 101.952 121.329 102.446 121.495 102.94C121.719 102.43 121.939 101.923 122.167 101.417C121.773 101.437 121.379 101.45 120.981 101.458ZM122.399 101.649C122.192 102.214 121.976 102.774 121.761 103.339C122.238 103.355 122.715 103.384 123.188 103.426C122.914 102.836 122.657 102.247 122.399 101.649ZM115.75 105.938V106.453C115.75 107.552 116.186 108.606 116.962 109.383C117.739 110.16 118.792 110.596 119.89 110.596C120.988 110.596 122.041 110.16 122.817 109.383C123.594 108.606 124.03 107.552 124.03 106.453V105.938C121.277 106.215 118.503 106.215 115.75 105.938ZM121.582 103.684C121.556 103.701 121.525 103.713 121.494 103.716C121.462 103.72 121.43 103.716 121.4 103.704C121.391 103.699 121.383 103.694 121.375 103.688C120.881 103.704 120.383 103.713 119.89 103.717C118.507 103.724 117.125 103.655 115.75 103.509L115.75 105.938C118.503 105.661 121.277 105.661 124.03 105.938L124.03 103.509C123.213 103.605 122.4 103.654 121.582 103.684ZM116.903 105.365C116.741 105.36 116.588 105.292 116.476 105.175C116.364 105.059 116.301 104.904 116.301 104.742C116.301 104.581 116.364 104.425 116.476 104.309C116.588 104.193 116.741 104.125 116.903 104.119C117.064 104.126 117.216 104.194 117.328 104.31C117.44 104.426 117.502 104.581 117.502 104.742C117.502 104.903 117.44 105.058 117.328 105.174C117.216 105.291 117.064 105.359 116.903 105.365ZM118.807 105.328C118.646 105.322 118.492 105.254 118.38 105.138C118.268 105.022 118.205 104.867 118.205 104.705C118.205 104.543 118.268 104.388 118.38 104.272C118.492 104.155 118.646 104.087 118.807 104.082C118.968 104.088 119.12 104.156 119.232 104.272C119.344 104.389 119.406 104.544 119.406 104.705C119.406 104.866 119.344 105.021 119.232 105.137C119.12 105.253 118.968 105.322 118.807 105.328ZM120.898 105.328C120.736 105.322 120.583 105.254 120.471 105.138C120.359 105.022 120.296 104.867 120.296 104.705C120.296 104.543 120.359 104.388 120.471 104.272C120.583 104.155 120.736 104.087 120.898 104.082C121.059 104.088 121.211 104.156 121.323 104.272C121.435 104.389 121.497 104.544 121.497 104.705C121.497 104.866 121.435 105.021 121.323 105.137C121.211 105.253 121.059 105.322 120.898 105.328ZM122.989 105.253C122.827 105.248 122.674 105.18 122.562 105.063C122.449 104.947 122.387 104.792 122.387 104.63C122.387 104.468 122.449 104.313 122.562 104.197C122.674 104.081 122.827 104.013 122.989 104.007C123.15 104.013 123.302 104.082 123.414 104.198C123.525 104.314 123.588 104.469 123.588 104.63C123.588 104.791 123.525 104.946 123.414 105.062C123.302 105.178 123.15 105.247 122.989 105.253ZM123.188 103.426C122.914 102.836 122.657 102.247 122.399 101.649C122.192 102.214 121.976 102.774 121.761 103.339C122.238 103.355 122.715 103.384 123.188 103.426ZM122.167 101.417C121.773 101.437 121.379 101.45 120.981 101.458C121.159 101.952 121.329 102.446 121.495 102.94C121.719 102.43 121.939 101.923 122.167 101.417ZM121.192 103.322C121.018 102.836 120.852 102.355 120.69 101.869L120.147 103.301C120.495 103.305 120.844 103.31 121.192 103.322ZM120.412 101.466C120.238 101.47 120.064 101.47 119.89 101.475C119.674 101.47 119.454 101.466 119.238 101.466L119.873 103.032L120.412 101.466ZM119.632 103.301L119.006 101.637L118.305 103.33C118.749 103.314 119.189 103.305 119.632 103.301ZM118.79 101.458C118.28 101.45 117.766 101.425 117.255 101.396L118.11 103.239L118.79 101.458ZM117.123 101.416L116.123 103.472C116.724 103.409 117.33 103.368 117.932 103.343L117.123 101.416ZM122.399 101.649C122.192 102.214 121.976 102.774 121.761 103.339C122.238 103.355 122.715 103.384 123.188 103.426C122.914 102.836 122.657 102.247 122.399 101.649ZM120.981 101.458C121.159 101.952 121.329 102.446 121.495 102.94C121.719 102.43 121.939 101.923 122.167 101.417C121.773 101.437 121.379 101.45 120.981 101.458ZM120.69 101.869L120.147 103.301C120.495 103.305 120.844 103.31 121.192 103.322C121.018 102.836 120.852 102.355 120.69 101.869ZM119.89 101.475C119.674 101.47 119.454 101.466 119.238 101.466L119.873 103.032L120.412 101.466C120.238 101.47 120.064 101.47 119.89 101.475ZM119.006 101.637L118.305 103.33C118.749 103.314 119.189 103.305 119.632 103.301L119.006 101.637ZM117.255 101.396L118.11 103.239L118.79 101.458C118.28 101.45 117.766 101.425 117.255 101.396ZM117.123 101.416L116.123 103.472C116.724 103.409 117.33 103.368 117.932 103.343L117.123 101.416ZM122.399 101.649C122.192 102.214 121.976 102.774 121.761 103.339C122.238 103.355 122.715 103.384 123.188 103.426C122.914 102.836 122.657 102.247 122.399 101.649ZM120.981 101.458C121.159 101.952 121.329 102.446 121.495 102.94C121.719 102.43 121.939 101.923 122.167 101.417C121.773 101.437 121.379 101.45 120.981 101.458ZM120.69 101.869L120.147 103.301C120.495 103.305 120.844 103.31 121.192 103.322C121.018 102.836 120.852 102.355 120.69 101.869ZM119.89 101.475C119.674 101.47 119.454 101.466 119.238 101.466L119.873 103.032L120.412 101.466C120.238 101.47 120.064 101.47 119.89 101.475ZM119.006 101.637L118.305 103.33C118.749 103.314 119.189 103.305 119.632 103.301L119.006 101.637ZM117.255 101.396L118.11 103.239L118.79 101.458C118.28 101.45 117.766 101.425 117.255 101.396ZM117.123 101.416L116.123 103.472C116.724 103.409 117.33 103.368 117.932 103.343L117.123 101.416ZM48.3623 169.529C48.4393 170.554 48.4787 171.579 48.5329 172.604C48.5894 173.63 48.6149 174.655 48.6519 175.68C48.6752 176.705 48.7129 177.73 48.7242 178.756C48.7373 179.781 48.7636 180.806 48.7638 181.831L48.4684 181.444L51.3552 182.223L51.1489 182.22L54.0256 181.538L53.7221 181.924C53.7471 180.021 53.7819 178.118 53.842 176.216C53.8783 175.264 53.905 174.313 53.9589 173.362C54.0085 172.41 54.0476 171.459 54.1192 170.508C54.1908 171.459 54.2299 172.41 54.2796 173.362C54.3334 174.313 54.3602 175.264 54.3964 176.216C54.4566 178.118 54.4913 180.021 54.5164 181.924C54.5175 182.012 54.4889 182.098 54.4351 182.168C54.3814 182.238 54.3057 182.287 54.2202 182.308L54.2128 182.31L51.3436 183.023C51.2756 183.04 51.2046 183.039 51.1372 183.02L48.2564 182.219C48.1717 182.195 48.0971 182.144 48.0437 182.074C47.9904 182.005 47.9614 181.919 47.9609 181.831C47.9611 180.806 47.9874 179.781 48.0005 178.756C48.0118 177.73 48.0496 176.705 48.0729 175.68C48.1098 174.655 48.1353 173.63 48.1919 172.604C48.246 171.579 48.2854 170.554 48.3623 169.529Z" fill="black"/>
<path d="M51.2414 170.461C51.4448 172.488 51.4922 174.515 51.5014 176.542C51.4951 178.569 51.4496 180.596 51.2469 182.623C51.0423 180.596 50.995 178.569 50.9869 176.542C50.9943 174.515 51.0399 172.488 51.2414 170.461ZM22.0025 155.838C22.0838 156.863 22.1234 157.888 22.1815 158.913C22.2338 159.939 22.2697 160.964 22.3009 161.989C22.3603 164.04 22.4011 166.09 22.4074 168.14L22.1095 167.75C23.0724 168.007 24.0356 168.264 24.9942 168.537L24.7901 168.534C25.7496 168.308 26.7066 168.074 27.6694 167.862L27.3779 168.233C27.3944 167.41 27.399 166.588 27.4254 165.765C27.4508 164.943 27.4646 164.12 27.5005 163.298C27.5293 162.475 27.5636 161.653 27.6118 160.83C27.6558 160.008 27.6944 159.185 27.7595 158.363C27.8244 159.185 27.8631 160.008 27.9071 160.83C27.9553 161.653 27.9895 162.475 28.0184 163.298C28.0542 164.12 28.068 164.943 28.0934 165.765C28.1198 166.588 28.1244 167.41 28.141 168.233C28.1427 168.316 28.1164 168.398 28.0664 168.464C28.0164 168.531 27.9455 168.579 27.8651 168.6L27.8493 168.604C26.8968 168.858 25.9387 169.088 24.9827 169.328C24.9185 169.344 24.8513 169.344 24.7871 169.327L24.7785 169.325C23.8147 169.071 22.8553 168.801 21.8956 168.531L21.8921 168.53C21.8072 168.506 21.7325 168.455 21.6793 168.385C21.6261 168.314 21.5975 168.228 21.5977 168.14C21.604 166.09 21.6447 164.039 21.7042 161.989C21.7354 160.964 21.7712 159.939 21.8236 158.913C21.8816 157.888 21.9212 156.863 22.0025 155.838Z" fill="black"/>
<path d="M24.8796 156.77C25.083 158.796 25.1304 160.823 25.1396 162.85C25.1332 164.877 25.0877 166.904 24.885 168.931C24.6804 166.905 24.6332 164.878 24.625 162.851C24.6324 160.824 24.6781 158.797 24.8796 156.77ZM90.5821 165.14C90.6515 166.052 90.6905 166.963 90.7382 167.875C90.7903 168.786 90.8195 169.697 90.8533 170.609C90.914 172.432 90.9502 174.254 90.9743 176.077L90.7581 175.726L93.3615 177.014L93.0686 176.984C94.0853 176.695 95.1092 176.432 96.1292 176.155L95.8336 176.543C95.834 175.537 95.8586 174.531 95.8726 173.525C95.8836 172.52 95.9211 171.514 95.9448 170.508C95.9811 169.502 96.0079 168.497 96.0639 167.491C96.1186 166.485 96.158 165.479 96.2355 164.474C96.313 165.479 96.3523 166.485 96.407 167.491C96.463 168.497 96.4899 169.502 96.5261 170.508C96.5498 171.514 96.5873 172.52 96.5984 173.525C96.6123 174.531 96.637 175.537 96.6374 176.543C96.6371 176.631 96.608 176.716 96.5546 176.786C96.5013 176.856 96.4264 176.907 96.3416 176.931C95.3227 177.212 94.3078 177.508 93.2857 177.778L93.2792 177.779C93.1832 177.805 93.0812 177.794 92.9927 177.749L90.4062 176.428L90.3994 176.424C90.3356 176.392 90.2822 176.342 90.2453 176.281C90.2083 176.219 90.1891 176.149 90.19 176.077C90.2141 174.254 90.2503 172.432 90.3109 170.609C90.3448 169.697 90.374 168.786 90.426 167.875C90.4738 166.963 90.5128 166.052 90.5821 165.14Z" fill="black"/>
<path d="M93.4069 164.805C93.5707 166.905 93.5786 169.002 93.5482 171.098C93.5025 173.194 93.4175 175.289 93.1752 177.381C93.0101 175.282 93.0025 173.185 93.0339 171.088C93.0807 168.993 93.1659 166.897 93.4069 164.805ZM124.032 143.904C123.621 143.88 123.217 143.784 122.839 143.62C121.708 143.162 120.697 142.45 119.886 141.538C120.263 141.683 120.63 141.854 120.983 142.05C121.336 142.235 121.675 142.439 122.016 142.638C122.351 142.847 122.689 143.047 123.02 143.263C123.355 143.472 123.681 143.693 124.032 143.904ZM39.2254 95.1456C39.5611 95.6971 39.9623 96.206 40.4202 96.661C39.9563 96.677 39.4958 96.5771 39.0802 96.3703C38.7801 96.2155 38.5266 95.9834 38.346 95.6978C38.1699 95.4082 38.0726 95.0776 38.0639 94.7387C38.0554 94.275 38.1638 93.8167 38.3791 93.406C38.5884 94.0186 38.8727 94.6029 39.2254 95.1456ZM40.7396 95.3283C40.7479 95.7925 40.6379 96.2511 40.4202 96.661C40.2109 96.0485 39.9266 95.4642 39.5739 94.9215C39.2372 94.3707 38.836 93.8619 38.3791 93.406C38.8421 93.3895 39.3018 93.4909 39.715 93.7008C40.0152 93.8553 40.2698 94.0857 40.4533 94.3693C40.6332 94.6574 40.7321 94.9887 40.7396 95.3283ZM38.1178 99.1064C38.4536 99.6589 38.8563 100.168 39.3167 100.622C38.8528 100.638 38.3922 100.538 37.9767 100.331C37.6754 100.176 37.4206 99.9442 37.2383 99.6586C37.0623 99.369 36.965 99.0383 36.9562 98.6995C36.9478 98.2358 37.0562 97.7775 37.2715 97.3668C37.4826 97.9786 37.7667 98.5627 38.1178 99.1064ZM39.6319 99.289C39.64 99.7527 39.5316 100.211 39.3167 100.622C39.1039 100.011 38.8198 99.4268 38.4705 98.8821C38.1322 98.3313 37.7297 97.8226 37.2715 97.3668C37.7346 97.3497 38.1943 97.4512 38.6073 97.6616C38.9105 97.8132 39.1663 98.045 39.3469 98.332C39.5276 98.6189 39.6261 98.9499 39.6319 99.289ZM36.8691 103.466C37.206 104.017 37.6086 104.526 38.068 104.981C37.6035 104.999 37.1423 104.897 36.728 104.686C36.4261 104.534 36.171 104.303 35.9897 104.018C35.8136 103.728 35.7163 103.398 35.7075 103.059C35.6986 102.595 35.8071 102.137 36.0228 101.726C36.2339 102.338 36.5181 102.922 36.8691 103.466Z" fill="black"/>
<path d="M38.3836 103.645C38.3921 104.11 38.2836 104.569 38.0682 104.981C37.8558 104.369 37.5703 103.785 37.2179 103.242C36.8811 102.691 36.48 102.182 36.0231 101.726C36.4861 101.709 36.9459 101.811 37.3589 102.021C37.6592 102.176 37.9138 102.406 38.0973 102.69C38.2766 102.977 38.3754 103.306 38.3836 103.645ZM36.2596 108.108C36.5967 108.661 36.9992 109.171 37.4584 109.627C36.994 109.645 36.5328 109.543 36.1185 109.332C35.8174 109.179 35.5636 108.946 35.384 108.659C35.2043 108.373 35.1055 108.043 35.098 107.705C35.0911 107.241 35.1995 106.783 35.4132 106.372C35.6261 106.982 35.9101 107.565 36.2596 108.108Z" fill="black"/>
<path d="M37.7743 108.289C37.7849 108.754 37.6764 109.215 37.459 109.626C37.0212 108.405 36.3233 107.295 35.4139 106.371C35.8769 106.354 36.3367 106.455 36.7497 106.666C37.0516 106.818 37.3068 107.049 37.4881 107.334C37.6697 107.62 37.7688 107.95 37.7743 108.289ZM36.0781 110.943C36.5412 110.928 37.0009 111.029 37.4148 111.237C37.7159 111.392 37.9709 111.623 38.1535 111.908C38.3329 112.195 38.4316 112.525 38.4394 112.863C38.4482 113.328 38.3389 113.787 38.1218 114.198C37.6577 114.215 37.1968 114.115 36.7823 113.905C36.481 113.751 36.2268 113.519 36.0464 113.233C35.8691 112.945 35.7714 112.615 35.7634 112.276C35.7548 111.812 35.8631 111.354 36.0781 110.943ZM42.0015 96.3654C41.4464 96.6276 40.9113 96.9301 40.4003 97.2704C40.4714 96.8293 40.6339 96.4078 40.8773 96.0332C41.045 95.7798 41.275 95.5739 41.5453 95.4353C41.8078 95.3067 42.1004 95.2521 42.3915 95.2776C42.8198 95.3204 43.2409 95.4181 43.6444 95.5682L42.0015 96.3654Z" fill="black"/>
<path d="M43.4135 96.9468C43.2392 97.2546 42.9773 97.5035 42.661 97.6618C42.3448 97.82 41.9887 97.8804 41.638 97.8352C41.1799 97.7712 40.7503 97.575 40.4018 97.2706C40.7147 97.2424 41.0236 97.1798 41.3227 97.0838C41.6193 96.989 41.909 96.8739 42.1898 96.7392C42.4709 96.6004 42.7389 96.4365 42.9904 96.2492C43.2482 96.0638 43.4703 95.8331 43.6459 95.5684C43.7451 96.0407 43.6621 96.5331 43.4135 96.9468ZM41.3559 100.102C40.6714 100.351 39.9745 100.571 39.2734 100.866C39.4745 100.42 39.759 100.017 40.1114 99.6787C40.3694 99.4354 40.6743 99.2475 41.0074 99.1264C41.3233 99.012 41.6599 98.9667 41.9947 98.9936C42.4567 99.04 42.9144 99.1219 43.3638 99.2385C42.7218 99.5861 42.0498 99.8752 41.3559 100.102Z" fill="black"/>
<path d="M42.8937 100.733C42.6222 101.064 42.2669 101.316 41.8648 101.463C41.4627 101.61 41.0287 101.646 40.6079 101.567C40.1026 101.472 39.6374 101.228 39.2721 100.866C39.6504 100.881 40.029 100.851 40.4005 100.779C40.7716 100.714 41.1365 100.618 41.4915 100.492C41.8512 100.369 42.1963 100.206 42.5203 100.006C42.8513 99.8117 43.1382 99.5501 43.3625 99.2383C43.3916 99.5063 43.3649 99.7774 43.2842 100.035C43.2036 100.292 43.0706 100.53 42.8937 100.733ZM40.5747 103.332C39.8902 103.581 39.1932 103.801 38.4922 104.096C38.6931 103.649 38.9792 103.246 39.3343 102.908C39.5902 102.664 39.894 102.476 40.2263 102.356C40.5421 102.242 40.8788 102.197 41.2136 102.223C41.6755 102.27 42.1332 102.352 42.5825 102.468C41.9405 102.816 41.2685 103.105 40.5747 103.332Z" fill="black"/>
<path d="M42.1166 103.963C41.8451 104.294 41.4898 104.547 41.0878 104.693C40.6857 104.84 40.2516 104.876 39.8309 104.798C39.3256 104.703 38.8603 104.458 38.495 104.096C38.8733 104.111 39.252 104.082 39.6235 104.009C39.9945 103.944 40.3595 103.849 40.7145 103.722C41.0742 103.599 41.4192 103.436 41.7433 103.237C42.0743 103.042 42.3611 102.781 42.5854 102.469C42.6145 102.737 42.5878 103.008 42.5072 103.265C42.4265 103.522 42.2935 103.76 42.1166 103.963ZM39.922 107.289C39.2293 107.604 38.5033 107.862 37.7773 108.186C37.9804 107.728 38.2658 107.311 38.6195 106.957C38.8744 106.699 39.1738 106.489 39.5031 106.338C39.8058 106.204 40.1308 106.128 40.4614 106.114C40.8181 106.081 41.1832 106.151 41.8262 106.064C41.5704 106.35 41.269 106.591 40.9343 106.778C40.6086 106.971 40.2704 107.141 39.922 107.289Z" fill="black"/>
<path d="M41.9436 106.517C41.9484 106.664 41.9386 106.812 41.9145 106.957C41.8561 107.225 41.7478 107.48 41.5951 107.709C41.3274 108.11 40.9502 108.425 40.5083 108.618C40.0981 108.799 39.6473 108.87 39.2014 108.821C38.6722 108.76 38.1742 108.538 37.7744 108.186C38.173 108.186 38.57 108.137 38.9568 108.041C39.3453 107.953 39.7246 107.828 40.0893 107.667C40.4615 107.508 40.8093 107.297 41.1222 107.04C41.4486 106.793 41.693 106.453 41.8233 106.065C41.8545 106.137 41.8809 106.212 41.9022 106.289C41.9203 106.364 41.9341 106.44 41.9436 106.517ZM37.7578 112.915C37.7804 112.458 37.8804 112.008 38.0534 111.585C38.1669 111.306 38.3373 111.053 38.5537 110.843C38.7482 110.666 38.9825 110.537 39.2369 110.469C39.6385 110.394 40.0267 110.26 40.3892 110.071C40.4494 110.116 40.5067 110.164 40.5608 110.216C40.6094 110.271 40.6547 110.329 40.6965 110.39C40.7669 110.51 40.8217 110.639 40.8598 110.774C40.9212 111.026 40.9262 111.288 40.8746 111.542C40.7914 111.979 40.5684 112.377 40.2391 112.676C39.9422 112.951 39.569 113.128 39.1688 113.186C38.6815 113.253 38.1857 113.158 37.7578 112.915ZM41.7694 92.5922C41.528 93.2562 41.3638 93.9458 41.2799 94.6473C40.9788 94.266 40.779 93.8147 40.6991 93.3354C40.6406 92.9724 40.6705 92.6007 40.7862 92.2518C40.9065 91.9036 41.1119 91.591 41.3836 91.3426C41.7427 91.0163 42.1777 90.7851 42.6488 90.6699C42.2839 91.2753 41.9888 91.9202 41.7694 92.5922Z" fill="black"/>
<path d="M43.1438 93.0655C43.0212 93.4124 42.8145 93.7234 42.5423 93.9706C42.1856 94.2989 41.7518 94.5317 41.2812 94.6473C41.6429 94.0403 41.9378 93.3958 42.1607 92.7251C42.4016 92.061 42.5658 91.3714 42.6501 90.6699C42.9522 91.0511 43.1534 91.5024 43.2351 91.9819C43.2942 92.3451 43.2628 92.7173 43.1438 93.0655Z" fill="black"/>
<path d="M36.0781 110.943C36.5368 111.399 36.9389 111.908 37.2755 112.46C37.6273 113.003 37.9115 113.586 38.1217 114.198C37.6623 113.743 37.2602 113.234 36.9244 112.681C36.5733 112.138 36.2892 111.555 36.0781 110.943ZM37.7577 112.914C38.2628 112.449 38.7822 112.049 39.2559 111.606C39.4957 111.395 39.7179 111.164 39.9202 110.916C40.1305 110.668 40.2898 110.38 40.389 110.07C40.447 110.424 40.3768 110.787 40.1911 111.093C40.0207 111.401 39.7994 111.678 39.5367 111.912C39.282 112.144 39.0025 112.347 38.7032 112.517C38.4075 112.692 38.0894 112.825 37.7577 112.914Z" fill="white"/>
<path d="M35.5678 115.995C35.6342 116.124 35.6964 116.257 35.7587 116.385C35.8292 116.535 35.8998 116.68 35.9703 116.83C36.0946 117.091 36.2191 117.349 36.3394 117.61C36.4473 117.324 36.5593 117.041 36.6672 116.759C36.7335 116.597 36.7999 116.431 36.8663 116.269C36.8912 116.199 36.9203 116.132 36.9492 116.062C36.4888 116.049 36.0283 116.028 35.5678 115.995ZM37.3557 116.689L37.248 116.427C37.2106 116.523 37.1733 116.618 37.136 116.713C36.9741 117.125 36.8123 117.536 36.6422 117.942C37.0488 117.926 37.4554 117.913 37.862 117.909L37.3557 116.689ZM38.6709 116.074C38.4717 116.074 38.2725 116.078 38.0693 116.082C37.895 116.078 37.7208 116.078 37.5425 116.074L37.5881 116.19L37.7582 116.651L38.1274 117.635L38.5256 116.577L38.7123 116.074L38.6709 116.074ZM39.0234 116.527L38.9363 116.282L38.845 116.543L38.3762 117.913C38.7621 117.918 39.1479 117.926 39.5378 117.942L39.0234 116.527ZM39.1437 116.066L39.289 116.502L39.7245 117.818L40.3344 116.402L40.5044 116.004C40.0522 116.033 39.5959 116.053 39.1437 116.066ZM40.7575 116.361L40.6289 116.045L40.4961 116.385L39.8863 117.959C40.409 117.988 40.9358 118.034 41.4627 118.109L40.7575 116.361ZM35.5678 115.995C35.6342 116.124 35.6964 116.257 35.7587 116.385C35.8292 116.535 35.8998 116.68 35.9703 116.83C36.0946 117.091 36.2191 117.349 36.3394 117.61C36.4473 117.324 36.5593 117.041 36.6672 116.759C36.7335 116.597 36.7999 116.431 36.8663 116.269C36.8912 116.199 36.9203 116.132 36.9492 116.062C36.4888 116.049 36.0283 116.028 35.5678 115.995ZM37.3557 116.689L37.248 116.427C37.2106 116.523 37.1733 116.618 37.136 116.713C36.9741 117.125 36.8123 117.536 36.6422 117.942C37.0488 117.926 37.4554 117.913 37.862 117.909L37.3557 116.689ZM38.6709 116.074C38.4717 116.074 38.2725 116.078 38.0693 116.082C37.895 116.078 37.7208 116.078 37.5425 116.074L37.5881 116.19L37.7582 116.651L38.1274 117.635L38.5256 116.577L38.7123 116.074L38.6709 116.074ZM39.0234 116.527L38.9363 116.282L38.845 116.543L38.3762 117.913C38.7621 117.918 39.1479 117.926 39.5378 117.942L39.0234 116.527ZM39.1437 116.066L39.289 116.502L39.7245 117.818L40.3344 116.402L40.5044 116.004C40.0522 116.033 39.5959 116.053 39.1437 116.066ZM40.7575 116.361L40.6289 116.045L40.4961 116.385L39.8863 117.959C40.409 117.988 40.9358 118.034 41.4627 118.109L40.7575 116.361ZM35.3479 116.178C35.3023 116.265 35.2525 116.357 35.2069 116.444L35.4434 116.419C35.4102 116.34 35.3812 116.257 35.3479 116.178ZM35.5678 115.995C35.6342 116.124 35.6964 116.257 35.7587 116.385C35.8292 116.535 35.8998 116.68 35.9703 116.83C36.2026 116.805 36.4348 116.78 36.6672 116.759C36.7335 116.597 36.7999 116.431 36.8663 116.269C36.8912 116.199 36.9203 116.132 36.9492 116.062C36.4888 116.049 36.0283 116.028 35.5678 115.995ZM37.248 116.427C37.2106 116.523 37.1733 116.618 37.136 116.713C37.2065 116.705 37.2811 116.697 37.3557 116.689L37.248 116.427ZM38.0693 116.082C37.895 116.078 37.7208 116.078 37.5425 116.074L37.5881 116.19C37.949 116.153 38.3099 116.111 38.6709 116.074C38.4717 116.074 38.2725 116.078 38.0693 116.082ZM33.3359 109.963L34.2569 115.875C34.6054 115.829 34.9538 115.796 35.2981 115.767C35.3141 115.755 35.3326 115.748 35.3521 115.745C35.3716 115.742 35.3915 115.744 35.4101 115.75L35.4184 115.759C36.0075 115.717 36.5925 115.688 37.1774 115.676C37.2208 115.663 37.2667 115.663 37.3101 115.676C37.5631 115.672 37.8162 115.667 38.0693 115.667C39.1147 115.672 40.1559 115.696 41.1971 115.796C41.4253 115.821 41.6577 115.846 41.8858 115.875L41.9107 115.717L42.8026 109.963L33.3359 109.963ZM34.8003 115.53C34.6392 115.524 34.4867 115.456 34.3748 115.34C34.2629 115.224 34.2004 115.069 34.2004 114.908C34.2004 114.746 34.2629 114.591 34.3748 114.475C34.4867 114.359 34.6392 114.291 34.8003 114.285C34.9614 114.291 35.1139 114.359 35.2257 114.475C35.3376 114.591 35.4001 114.746 35.4001 114.908C35.4001 115.069 35.3376 115.224 35.2258 115.34C35.1139 115.456 34.9614 115.524 34.8003 115.53ZM37.0405 115.53C36.8794 115.524 36.7269 115.456 36.615 115.34C36.5031 115.224 36.4406 115.069 36.4406 114.908C36.4406 114.746 36.5031 114.591 36.615 114.475C36.7269 114.359 36.8794 114.291 37.0405 114.285C37.2017 114.291 37.3543 114.359 37.4663 114.475C37.5782 114.591 37.6408 114.746 37.6408 114.908C37.6408 115.069 37.5783 115.224 37.4663 115.34C37.3544 115.456 37.2017 115.525 37.0405 115.53ZM39.2059 115.456C39.0448 115.45 38.8922 115.382 38.7803 115.265C38.6685 115.149 38.6059 114.994 38.6059 114.833C38.6059 114.672 38.6685 114.516 38.7803 114.4C38.8922 114.284 39.0448 114.216 39.2059 114.21C39.3669 114.216 39.5194 114.284 39.6313 114.4C39.7431 114.517 39.8056 114.672 39.8056 114.833C39.8057 114.994 39.7432 115.149 39.6313 115.265C39.5195 115.381 39.3669 115.45 39.2059 115.456ZM41.3341 115.53C41.173 115.524 41.0204 115.456 40.9085 115.34C40.7966 115.224 40.7341 115.069 40.7341 114.908C40.7341 114.746 40.7966 114.591 40.9085 114.475C41.0204 114.359 41.173 114.291 41.3341 114.285C41.4951 114.291 41.6476 114.359 41.7595 114.475C41.8713 114.591 41.9338 114.746 41.9338 114.908C41.9338 115.069 41.8713 115.224 41.7595 115.34C41.6477 115.456 41.4951 115.524 41.3341 115.53ZM40.7575 116.361L40.6289 116.045L40.4961 116.385L39.8863 117.959C40.409 117.988 40.9358 118.034 41.4627 118.109L40.7575 116.361ZM39.1437 116.066L39.289 116.502L39.7245 117.818L40.3344 116.402L40.5044 116.004C40.0522 116.033 39.5959 116.053 39.1437 116.066ZM39.0234 116.527L38.9363 116.282L38.845 116.543L38.3762 117.913C38.7621 117.918 39.1479 117.926 39.5378 117.942L39.0234 116.527ZM38.6709 116.074C38.4717 116.074 38.2725 116.078 38.0693 116.082C37.895 116.078 37.7208 116.078 37.5425 116.074L37.5881 116.19L37.7582 116.651L38.1274 117.635L38.5256 116.577L38.7123 116.074L38.6709 116.074ZM37.3557 116.689L37.248 116.427C37.2106 116.523 37.1733 116.618 37.136 116.713C36.9741 117.125 36.8123 117.536 36.6422 117.942C37.0488 117.926 37.4554 117.913 37.862 117.909L37.3557 116.689ZM35.5678 115.995C35.6342 116.124 35.6964 116.257 35.7587 116.385C35.8292 116.535 35.8998 116.68 35.9703 116.83C36.0946 117.091 36.2191 117.349 36.3394 117.61C36.4473 117.324 36.5593 117.041 36.6672 116.759C36.7335 116.597 36.7999 116.431 36.8663 116.269C36.8912 116.199 36.9203 116.132 36.9492 116.062C36.4888 116.049 36.0283 116.028 35.5678 115.995ZM40.7575 116.361L40.6289 116.045L40.4961 116.385L39.8863 117.959C40.409 117.988 40.9358 118.034 41.4627 118.109L40.7575 116.361ZM39.1437 116.066L39.289 116.502L39.7245 117.818L40.3344 116.402L40.5044 116.004C40.0522 116.033 39.5959 116.053 39.1437 116.066ZM39.0234 116.527L38.9363 116.282L38.845 116.543L38.3762 117.913C38.7621 117.918 39.1479 117.926 39.5378 117.942L39.0234 116.527ZM38.6709 116.074C38.4717 116.074 38.2725 116.078 38.0693 116.082C37.895 116.078 37.7208 116.078 37.5425 116.074L37.5881 116.19L37.7582 116.651L38.1274 117.635L38.5256 116.577L38.7123 116.074L38.6709 116.074ZM37.3557 116.689L37.248 116.427C37.2106 116.523 37.1733 116.618 37.136 116.713C36.9741 117.125 36.8123 117.536 36.6422 117.942C37.0488 117.926 37.4554 117.913 37.862 117.909L37.3557 116.689ZM35.5678 115.995C35.6342 116.124 35.6964 116.257 35.7587 116.385C35.8292 116.535 35.8998 116.68 35.9703 116.83C36.0946 117.091 36.2191 117.349 36.3394 117.61C36.4473 117.324 36.5593 117.041 36.6672 116.759C36.7335 116.597 36.7999 116.431 36.8663 116.269C36.8912 116.199 36.9203 116.132 36.9492 116.062C36.4888 116.049 36.0283 116.028 35.5678 115.995ZM38.6709 116.074C38.3099 116.111 37.949 116.153 37.5881 116.19L37.7582 116.651C38.0112 116.626 38.2685 116.601 38.5256 116.577L38.7123 116.074L38.6709 116.074ZM38.9363 116.282L38.845 116.543C38.9031 116.539 38.9654 116.535 39.0234 116.527L38.9363 116.282ZM39.1437 116.066L39.289 116.502L40.3344 116.402L40.5044 116.004C40.0522 116.033 39.5959 116.053 39.1437 116.066ZM40.6289 116.045L40.4961 116.385C40.5832 116.377 40.6703 116.369 40.7575 116.361L40.6289 116.045ZM40.7368 115.987L40.8696 116.352L41.5042 118.109V118.113C41.5154 118.112 41.5267 118.113 41.5374 118.117L41.8278 116.261L41.8858 115.875C41.5 115.925 41.1184 115.958 40.7368 115.987ZM41.5001 118.121C41.5001 118.125 41.5001 118.133 41.4918 118.133C41.4874 118.135 41.4824 118.135 41.4778 118.134C41.4732 118.132 41.4694 118.129 41.4669 118.125C40.3398 118.264 39.205 118.33 38.0694 118.324C37.5343 118.32 36.9991 118.308 36.4639 118.283C36.4374 118.302 36.4062 118.315 36.3734 118.318C36.3406 118.322 36.3074 118.317 36.2772 118.304C36.2597 118.294 36.243 118.283 36.2274 118.27C35.6881 118.237 35.1447 118.192 34.6054 118.117L34.8833 119.902H41.2595L41.5374 118.117C41.5248 118.116 41.5122 118.118 41.5001 118.121ZM36.215 119.744C36.0535 119.739 35.9004 119.671 35.7881 119.555C35.6757 119.439 35.6129 119.283 35.6129 119.121C35.6129 118.96 35.6757 118.804 35.7881 118.688C35.9004 118.572 36.0535 118.504 36.215 118.499C36.3764 118.504 36.5295 118.572 36.6418 118.688C36.7542 118.804 36.817 118.96 36.817 119.121C36.817 119.283 36.7542 119.439 36.6418 119.555C36.5295 119.671 36.3764 119.739 36.215 119.744ZM38.3058 119.744C38.1443 119.739 37.9912 119.671 37.8789 119.555C37.7665 119.439 37.7037 119.283 37.7037 119.121C37.7037 118.96 37.7665 118.804 37.8789 118.688C37.9912 118.572 38.1443 118.504 38.3058 118.499C38.4672 118.504 38.6203 118.572 38.7326 118.688C38.845 118.804 38.9078 118.96 38.9078 119.121C38.9078 119.283 38.845 119.439 38.7326 119.555C38.6203 119.671 38.4672 119.739 38.3058 119.744ZM40.3966 119.67C40.2351 119.664 40.082 119.596 39.9697 119.48C39.8573 119.364 39.7945 119.208 39.7945 119.047C39.7945 118.885 39.8573 118.73 39.9697 118.614C40.082 118.497 40.2351 118.429 40.3966 118.424C40.558 118.429 40.7111 118.497 40.8234 118.614C40.9358 118.73 40.9986 118.885 40.9986 119.047C40.9986 119.208 40.9358 119.364 40.8235 119.48C40.7111 119.596 40.558 119.664 40.3966 119.67ZM40.7575 116.361L40.6289 116.045L40.4961 116.385L39.8863 117.959C40.409 117.988 40.9358 118.034 41.4627 118.109L40.7575 116.361ZM39.1437 116.066L39.289 116.502L39.7245 117.818L40.3344 116.402L40.5044 116.004C40.0522 116.033 39.5959 116.053 39.1437 116.066ZM39.0234 116.527L38.9363 116.282L38.845 116.543L38.3762 117.913C38.7621 117.918 39.1479 117.926 39.5378 117.942L39.0234 116.527ZM38.6709 116.074C38.4717 116.074 38.2725 116.078 38.0693 116.082C37.895 116.078 37.7208 116.078 37.5425 116.074L37.5881 116.19L37.7582 116.651L38.1274 117.635L38.5256 116.577L38.7123 116.074L38.6709 116.074ZM37.3557 116.689L37.248 116.427C37.2106 116.523 37.1733 116.618 37.136 116.713C36.9741 117.125 36.8123 117.536 36.6422 117.942C37.0488 117.926 37.4554 117.913 37.862 117.909L37.3557 116.689ZM35.5678 115.995C35.6342 116.124 35.6964 116.257 35.7587 116.385C35.8292 116.535 35.8998 116.68 35.9703 116.83C36.0946 117.091 36.2191 117.349 36.3394 117.61C36.4473 117.324 36.5593 117.041 36.6672 116.759C36.7335 116.597 36.7999 116.431 36.8663 116.269C36.8912 116.199 36.9203 116.132 36.9492 116.062C36.4888 116.049 36.0283 116.028 35.5678 115.995ZM35.6218 116.863C35.5637 116.718 35.5014 116.568 35.4434 116.419C35.4102 116.34 35.3812 116.257 35.3479 116.178C35.3023 116.265 35.2525 116.357 35.2069 116.444C35.1239 116.606 35.0369 116.767 34.9498 116.929C34.8211 117.174 34.6884 117.419 34.5515 117.664C34.5499 117.666 34.5479 117.667 34.5457 117.668C34.5435 117.668 34.5412 117.669 34.539 117.668L34.6054 118.117C35.0949 118.046 35.5886 118.005 36.0781 117.971C35.9287 117.602 35.7752 117.232 35.6218 116.863ZM35.9703 116.83C36.0946 117.091 36.2191 117.349 36.3394 117.61C36.4473 117.324 36.5593 117.041 36.6672 116.759C36.4348 116.78 36.2026 116.805 35.9703 116.83ZM37.3557 116.689C37.2811 116.697 37.2065 116.705 37.136 116.713C36.9741 117.125 36.8123 117.536 36.6422 117.942C37.0488 117.926 37.4554 117.913 37.862 117.909L37.3557 116.689ZM37.7582 116.651L38.1274 117.635L38.5256 116.577C38.2685 116.601 38.0112 116.626 37.7582 116.651ZM39.0234 116.527C38.9654 116.535 38.9031 116.539 38.845 116.543L38.3762 117.913C38.7621 117.918 39.1479 117.926 39.5378 117.942L39.0234 116.527ZM39.289 116.502L39.7245 117.818L40.3344 116.402L39.289 116.502ZM40.7575 116.361C40.6703 116.369 40.5832 116.377 40.4961 116.385L39.8863 117.959C40.409 117.988 40.9358 118.034 41.4627 118.109L40.7575 116.361ZM34.2569 115.875L34.3606 116.535L34.427 116.983L34.5266 117.61C34.6137 117.386 34.7008 117.166 34.7879 116.946C34.8501 116.784 34.9165 116.626 34.9829 116.469C35.0492 116.303 35.1157 116.136 35.1862 115.97C34.875 115.945 34.568 115.912 34.2569 115.875Z" fill="black"/>
<path d="M38.6395 114.931C38.2932 114.62 38.0368 114.221 37.897 113.776C37.8318 113.555 37.7472 113.335 37.6975 113.108L37.5571 112.425C37.4426 111.505 37.4076 110.577 37.4526 109.651C37.4689 108.724 37.6074 107.81 37.7148 106.892C37.8828 105.986 38.0122 105.07 38.232 104.176C38.4382 103.278 38.6444 102.38 38.905 101.498C39.1561 100.612 39.3972 99.7248 39.7067 98.8583C40.0058 97.9891 40.2743 97.1103 40.607 96.2537C40.9437 95.3983 41.2632 94.5378 41.614 93.6895C41.126 95.4618 40.5609 97.2043 40.0858 98.973L39.7163 100.295L39.3761 101.623C39.2662 102.067 39.1335 102.505 39.0348 102.951L38.7346 104.287C38.5065 105.172 38.3781 106.075 38.1949 106.969C38.0604 107.869 37.9189 108.769 37.8462 109.676C37.7567 110.579 37.7433 111.489 37.8063 112.396L37.8869 113.07C37.9167 113.295 37.9807 113.511 38.0261 113.734C38.1297 114.178 38.3403 114.589 38.6395 114.931Z" fill="black"/>
<path d="M34.5301 117.655L34.5219 117.609L34.5094 117.647C34.5053 117.655 34.5094 117.663 34.5177 117.672C34.5259 117.676 34.5301 117.672 34.5342 117.667L34.5301 117.655Z" fill="#FCFCFC"/>
<path d="M49.2109 118.455C50.5714 118.08 51.9516 117.781 53.3451 117.559C54.7355 117.318 56.1384 117.156 57.547 117.072C56.1868 117.448 54.8066 117.747 53.4129 117.968C52.0223 118.208 50.6195 118.37 49.2109 118.455ZM65.6768 118.273C67.0372 117.898 68.4174 117.599 69.8109 117.377C71.2013 117.136 72.6042 116.974 74.0128 116.89C72.6525 117.266 71.2723 117.565 69.8786 117.786C68.4881 118.026 67.0853 118.188 65.6768 118.273ZM82.5609 115.344C83.9213 114.97 85.3015 114.671 86.695 114.449C88.0854 114.208 89.4883 114.045 90.8969 113.962C89.5366 114.338 88.1564 114.637 86.7627 114.858C85.3722 115.098 83.9694 115.26 82.5609 115.344ZM153.069 141.579C152.202 140.991 151.439 140.263 150.81 139.426C150.165 138.605 149.584 137.735 149.072 136.825C148.556 135.918 148.09 134.985 147.66 134.036C147.23 133.085 146.829 132.13 146.471 131.138L146.866 131.385C144.786 131.654 142.673 131.471 140.671 130.848C139.676 130.557 138.704 130.194 137.761 129.763C136.818 129.343 135.9 128.87 135.011 128.345C133.24 127.303 131.556 126.119 129.975 124.804C128.395 123.497 126.901 122.09 125.501 120.591L125.494 120.583C125.445 120.53 125.418 120.459 125.418 120.386C125.419 120.313 125.448 120.243 125.498 120.19C126.103 119.565 126.728 118.984 127.376 118.419C128.021 117.852 128.702 117.326 129.397 116.82C130.092 116.309 130.832 115.861 131.608 115.484C132.384 115.07 133.241 114.833 134.119 114.79C134.137 114.79 134.154 114.793 134.17 114.799C134.994 115.084 135.825 115.349 136.652 115.625L139.136 116.445C140.789 116.999 142.454 117.52 144.115 118.051L143.796 118.225L145.974 109.096C146.709 106.055 147.458 103.018 148.22 99.9837L148.21 100.032C148.263 99.771 148.345 99.5171 148.454 99.2745C148.548 99.0479 148.661 98.8366 148.773 98.6246C149.006 98.2156 149.267 97.8232 149.555 97.4503C150.12 96.7182 150.749 96.0384 151.435 95.4191C152.79 94.199 154.263 93.1176 155.833 92.1909C156.618 91.7189 157.432 91.296 158.269 90.9248C159.11 90.5611 159.972 90.2492 160.851 89.9908C162.61 89.4694 164.433 89.1981 166.267 89.1846C168.099 89.1655 169.924 89.4101 171.685 89.9109C172.568 90.1631 173.427 90.492 174.252 90.8939C174.456 91.0006 174.655 91.1189 174.856 91.2309L175.156 91.4013L175.442 91.5971C175.631 91.7294 175.825 91.855 176.009 91.9928L176.541 92.4381C177.931 93.664 178.918 95.282 179.373 97.0796C179.768 98.8478 179.818 100.676 179.521 102.463C179.52 102.47 179.518 102.476 179.514 102.482C179.511 102.488 179.506 102.493 179.501 102.497C179.495 102.501 179.489 102.504 179.483 102.505C179.476 102.507 179.469 102.507 179.463 102.506C179.45 102.504 179.438 102.498 179.43 102.487C179.422 102.477 179.418 102.464 179.419 102.451C179.592 100.686 179.438 98.9035 178.964 97.194C178.459 95.5241 177.468 94.0426 176.118 92.9384L175.606 92.5436C175.428 92.4221 175.241 92.3122 175.06 92.196L174.786 92.0237L174.497 91.8759C174.304 91.7787 174.114 91.6753 173.919 91.5829C173.127 91.2256 172.306 90.9359 171.465 90.7171C169.775 90.2822 168.031 90.0929 166.287 90.155C165.417 90.1816 164.55 90.2698 163.693 90.4189C162.834 90.559 161.986 90.7569 161.154 91.0113C160.322 91.2665 159.507 91.5721 158.712 91.9266C157.921 92.2875 157.149 92.6907 156.4 93.1344C154.894 94.0281 153.473 95.0581 152.154 96.2114C151.505 96.7798 150.909 97.4055 150.372 98.0809C150.109 98.4118 149.869 98.7603 149.654 99.124C149.555 99.306 149.455 99.4875 149.375 99.6725C149.299 99.8369 149.238 100.008 149.192 100.183L149.182 100.231C148.388 103.257 147.582 106.279 146.763 109.298L144.277 118.348L144.274 118.356C144.266 118.387 144.251 118.416 144.232 118.442C144.212 118.467 144.187 118.488 144.159 118.504C144.132 118.52 144.101 118.53 144.069 118.534C144.037 118.538 144.005 118.536 143.974 118.527L143.957 118.522C142.313 117.94 140.672 117.349 139.02 116.79L136.546 115.94C135.72 115.66 134.898 115.368 134.07 115.097L134.119 115.105C133.291 115.155 132.484 115.388 131.755 115.785C131.006 116.169 130.295 116.623 129.631 117.139C128.958 117.65 128.315 118.198 127.703 118.781C127.09 119.36 126.49 119.965 125.935 120.588L125.933 120.188C127.367 121.606 128.89 122.931 130.492 124.156C132.079 125.393 133.743 126.525 135.476 127.547C136.343 128.051 137.226 128.524 138.134 128.939C139.036 129.362 139.968 129.721 140.921 130.011C142.803 130.632 144.794 130.855 146.767 130.665L146.781 130.663C146.863 130.654 146.946 130.674 147.015 130.719C147.084 130.765 147.136 130.832 147.161 130.911C147.469 131.877 147.833 132.846 148.22 133.794C148.608 134.745 149.032 135.681 149.505 136.59C149.957 137.51 150.478 138.396 151.062 139.238C151.633 140.089 152.329 140.85 153.127 141.494C153.138 141.502 153.145 141.514 153.147 141.528C153.149 141.541 153.146 141.555 153.138 141.566C153.13 141.576 153.119 141.583 153.106 141.586C153.093 141.588 153.08 141.586 153.069 141.579Z" fill="black"/>
</svg>
