<svg width="200" height="254" viewBox="0 0 200 254" fill="none" xmlns="http://www.w3.org/2000/svg">
<path d="M95.4641 75.668C95.4641 75.668 95.0365 76.4019 93.4797 77.2926C93.63 78.4935 93.7102 79.6944 93.7669 80.8954C93.8004 81.4925 93.8138 82.093 93.8305 82.6934C93.8404 82.9903 93.8438 83.2872 93.8471 83.5808C94.0977 83.3306 94.355 83.0837 94.6089 82.8369C95.0933 82.3899 95.581 81.9462 96.0955 81.5292C96.6072 81.1045 97.145 80.7123 97.7059 80.3549C97.9902 80.1757 98.2885 80.0195 98.5978 79.8879C98.7572 79.8231 98.923 79.775 99.0924 79.7445C99.2315 79.7166 99.3759 79.7354 99.5033 79.7979C98.3273 78.717 96.9876 77.366 95.4641 75.668ZM116.679 85.172C116.311 84.8685 115.95 84.5749 115.596 84.2913C115.893 85.3922 116.125 86.5094 116.291 87.6373C116.486 88.9282 116.608 90.229 116.655 91.5337C116.669 92.1875 116.675 92.8413 116.655 93.4985C116.649 93.8254 116.625 94.1524 116.598 94.4793C116.575 94.8062 116.558 95.1331 116.508 95.4601C116.377 96.7568 116.069 98.0295 115.593 99.243C116.996 98.6392 119.298 97.8619 121.51 98.0754C125.044 98.4124 127.52 104.04 127.52 104.04C128.532 98.8694 123.831 90.9899 116.679 85.172ZM119.943 96.4508C119.301 96.5645 118.679 96.7654 118.092 97.0479C117.939 97.1169 117.79 97.1961 117.647 97.2848L117.197 97.525C116.909 97.7085 116.622 97.902 116.304 98.0754C116.51 97.7846 116.73 97.505 116.966 97.2381C117.224 96.9854 117.501 96.7523 117.795 96.5409C118.094 96.3277 118.418 96.1508 118.76 96.0138C119.104 95.8683 119.464 95.7641 119.832 95.7036C120.578 95.5956 121.339 95.6865 122.037 95.9671C122.72 96.2276 123.315 96.6751 123.755 97.2581C122.609 96.5749 121.268 96.2909 119.943 96.4508ZM118.038 109.481C118.038 109.481 114.437 110.495 107.705 102.926C107.705 102.926 103.502 104.864 101.808 106.205C99.7538 107.833 93.4797 108.043 85.2043 106.836C85.2043 106.836 82.9593 101.415 91.5587 97.3615C92.0454 97.1455 92.5882 97.0895 93.1088 97.2014C94.9664 97.5617 99.6369 98.4424 101.311 98.5491C103.419 98.6859 108.18 97.5317 109.539 97.6651C110.899 97.8019 114.233 99.9068 114.233 99.9068C114.233 99.9068 114.718 99.6266 115.506 99.2797L115.509 99.253L115.513 99.233L115.516 99.2296C115.736 97.9673 115.866 96.6908 115.904 95.41C115.917 95.0897 115.924 94.7695 115.93 94.4493C115.937 94.129 115.94 93.8088 115.934 93.4852C115.944 92.8447 115.92 92.2008 115.9 91.5603C115.87 90.2726 115.787 88.9883 115.71 87.6973L115.483 84.2013C112.924 82.1363 110.866 80.5284 109.309 79.3341C109.499 79.6877 109.676 80.0447 109.84 80.405C110.01 80.7619 110.164 81.1289 110.321 81.4892C110.468 81.8561 110.628 82.2197 110.765 82.59C110.902 82.9603 111.053 83.3239 111.18 83.6976L111.647 85.0786L110.578 84.0779C109.753 83.3039 108.958 82.5066 108.183 81.6826C107.401 80.8604 106.666 79.995 105.981 79.0906C106.901 79.754 107.786 80.4656 108.63 81.2223C109.118 81.6593 109.599 82.1063 110.07 82.5567C109.984 82.2598 109.907 81.9595 109.823 81.6593C109.726 81.2757 109.626 80.892 109.542 80.5051C109.452 80.1181 109.375 79.7278 109.309 79.3341C106.88 77.4727 105.664 76.6187 105.664 76.6187L106.596 83.9511C106.596 83.9511 104.645 84.4849 99.5633 79.8512C99.4934 79.819 99.417 79.8032 99.34 79.805C99.263 79.8067 99.1874 79.8259 99.119 79.8612C98.9702 79.9172 98.8288 79.9911 98.698 80.0814C98.4301 80.2586 98.1745 80.4536 97.933 80.6652C97.4385 81.0788 96.9675 81.5292 96.4997 81.9796C96.0354 82.4332 95.571 82.8869 95.1166 83.354C94.6523 83.811 94.2046 84.288 93.7535 84.7517L93.0921 85.4323L93.1054 84.4949C93.1155 83.8944 93.1088 83.2939 93.1322 82.6935C93.1489 82.093 93.1623 81.4925 93.1957 80.8954C93.2524 79.6945 93.3326 78.4935 93.4797 77.2926C92.4693 77.8567 91.4021 78.313 90.2958 78.6536C86.0796 80.0114 79.007 83.2706 78.5994 89.6555C78.3188 94.0256 79.007 99.9335 80.8745 103.773C81.2697 102.45 81.8191 101.178 82.5116 99.9836C83.2385 98.6738 84.1739 97.4908 85.2812 96.4809C85.8588 95.9792 86.5043 95.5615 87.1988 95.2399C87.9081 94.9187 88.6784 94.7537 89.4572 94.7562C89.6925 94.7599 89.9271 94.7822 90.1588 94.8229C90.1454 94.1324 90.1288 93.4485 90.072 92.768C90.0185 92.0441 89.9483 91.3235 89.8548 90.6063C89.7579 89.8891 89.6576 89.1752 89.5341 88.4646C89.4038 87.7607 89.2835 87.0502 89.1198 86.3663C88.8733 85.6385 88.5233 84.9498 88.0808 84.3214C87.6557 83.6968 87.0693 83.1988 86.3837 82.8803C85.6741 82.583 84.8975 82.4816 84.1353 82.5867C83.3382 82.6872 82.5629 82.917 81.84 83.2672C82.5006 82.7651 83.2582 82.405 84.065 82.2097C84.4797 82.1116 84.9052 82.0668 85.3312 82.0763C85.7669 82.0891 86.1978 82.1713 86.6075 82.3198C87.4294 82.6337 88.1429 83.1782 88.6621 83.8877C89.1677 84.5717 89.5634 85.3303 89.8347 86.1361L89.8414 86.1595L89.8448 86.1728C89.9984 86.9067 90.1355 87.6239 90.2257 88.3578C90.3191 89.0884 90.3894 89.8223 90.4227 90.5562C90.4623 91.2918 90.4634 92.0289 90.4261 92.7646C90.3904 93.4564 90.3089 94.1451 90.1822 94.8262C90.6966 94.9193 91.1965 95.0797 91.6689 95.3033C92.3345 95.6339 92.9453 96.0648 93.4797 96.5809C92.866 96.1983 92.2116 95.8851 91.5286 95.6469C90.8678 95.4177 90.1695 95.3158 89.4706 95.3466C88.0851 95.4949 86.7868 96.0939 85.7756 97.0513C85.2413 97.516 84.7483 98.0261 84.3023 98.5758C83.8379 99.1196 83.4203 99.7034 83.0094 100.294C82.2446 101.435 81.5419 102.617 80.9046 103.833C81.7632 105.571 82.8657 106.876 84.2354 107.406C84.2354 107.406 86.8948 114.778 88.3915 114.778C89.8882 114.778 113.144 116.406 115.726 114.778C118.312 113.147 118.038 109.481 118.038 109.481ZM108.861 95.5401C109.008 95.5451 109.147 95.6068 109.249 95.7123C109.351 95.8178 109.408 95.9588 109.408 96.1056C109.408 96.2523 109.351 96.3933 109.249 96.4988C109.147 96.6043 109.008 96.666 108.861 96.671C108.714 96.666 108.575 96.6043 108.473 96.4988C108.371 96.3933 108.314 96.2523 108.314 96.1056C108.314 95.9588 108.371 95.8178 108.473 95.7123C108.575 95.6068 108.714 95.5451 108.861 95.5401ZM107.568 90.2427C107.715 90.2473 107.855 90.309 107.957 90.4145C108.059 90.52 108.117 90.6612 108.117 90.8081C108.117 90.955 108.059 91.0962 107.957 91.2017C107.855 91.3073 107.715 91.3689 107.568 91.3736C107.421 91.3689 107.282 91.3073 107.179 91.2017C107.077 91.0962 107.02 90.955 107.02 90.8081C107.02 90.6612 107.077 90.52 107.179 90.4145C107.282 90.309 107.421 90.2473 107.568 90.2427ZM106.549 85.152C106.696 85.157 106.835 85.2188 106.937 85.3243C107.039 85.4298 107.096 85.5708 107.096 85.7175C107.096 85.8642 107.039 86.0052 106.937 86.1107C106.835 86.2162 106.696 86.2779 106.549 86.2829C106.402 86.2779 106.263 86.2162 106.161 86.1107C106.059 86.0052 106.002 85.8642 106.002 85.7175C106.002 85.5707 106.059 85.4298 106.161 85.3243C106.263 85.2188 106.402 85.157 106.549 85.152ZM108.861 109.164C108.714 109.159 108.575 109.097 108.473 108.992C108.37 108.886 108.313 108.745 108.313 108.599C108.313 108.452 108.37 108.311 108.473 108.205C108.575 108.1 108.714 108.038 108.861 108.033C109.008 108.038 109.147 108.1 109.249 108.205C109.351 108.311 109.409 108.452 109.409 108.599C109.409 108.745 109.351 108.886 109.249 108.992C109.147 109.097 109.008 109.159 108.861 109.164Z" fill="#020202"/>
<path d="M118.039 109.481C117.517 109.566 116.983 109.542 116.469 109.413C115.953 109.297 115.45 109.131 114.965 108.918C114 108.484 113.084 107.947 112.234 107.318C111.38 106.696 110.565 106.02 109.795 105.297C109.022 104.577 108.284 103.821 107.57 103.043L107.791 103.08L102.652 106.005C101.801 106.531 100.896 106.965 99.9527 107.301C98.9965 107.616 98.0075 107.821 97.0047 107.913C95.0209 108.064 93.0275 108.04 91.0479 107.841C89.0756 107.673 87.1148 107.43 85.1584 107.168L84.9619 107.142L84.8974 106.974C84.6263 106.219 84.5123 105.418 84.5622 104.618C84.6121 103.818 84.825 103.037 85.1877 102.322C85.9092 100.935 86.9585 99.7439 88.2446 98.853C88.8625 98.3991 89.5128 97.9907 90.1901 97.6311C90.5238 97.4442 90.8672 97.2789 91.2103 97.1128C91.3946 97.015 91.5885 96.9361 91.789 96.8776C91.9972 96.8189 92.2115 96.7849 92.4277 96.7762C92.6405 96.7674 92.8537 96.7799 93.064 96.8137L93.6285 96.9217L94.7317 97.1335L96.9402 97.541C98.409 97.7948 99.8995 98.0718 101.349 98.1973C102.078 98.2134 102.807 98.1711 103.529 98.0709C104.266 97.9823 105.004 97.8703 105.745 97.7564C106.485 97.643 107.227 97.523 107.98 97.4282C108.36 97.3851 108.734 97.3364 109.134 97.3277C109.345 97.3183 109.555 97.331 109.763 97.3657C109.963 97.4052 110.16 97.4595 110.352 97.5282C111.071 97.797 111.769 98.1199 112.44 98.4941C113.107 98.8555 113.757 99.2342 114.401 99.6396L114.073 99.6331C114.3 99.507 114.517 99.3987 114.742 99.2901C114.966 99.1831 115.192 99.0806 115.419 98.9828L115.481 98.9565L115.543 98.957L115.546 98.9571L115.424 98.9824C116.591 98.4768 117.815 98.1156 119.069 97.9068C119.702 97.8057 120.342 97.7641 120.983 97.7828C121.309 97.79 121.635 97.8256 121.956 97.889C122.278 97.9615 122.592 98.0685 122.892 98.2083C124.03 98.8125 125.011 99.6727 125.759 100.721C126.521 101.728 127.168 102.817 127.688 103.967L127.704 104.002L127.704 104.039C127.735 105.165 127.499 106.282 127.015 107.3C126.757 107.803 126.408 108.255 125.985 108.631C125.561 109 125.077 109.294 124.554 109.501C123.511 109.887 122.4 110.056 121.29 109.998C120.189 109.957 119.098 109.783 118.039 109.481ZM118.039 109.481C119.103 109.745 120.195 109.88 121.291 109.884C122.38 109.912 123.464 109.718 124.476 109.315C124.97 109.106 125.425 108.813 125.821 108.451C126.211 108.086 126.529 107.652 126.759 107.172C127.194 106.189 127.39 105.117 127.332 104.044L127.348 104.116C126.82 103.006 126.173 101.956 125.417 100.987C124.698 100.01 123.763 99.2116 122.685 98.6551C122.418 98.5357 122.138 98.4452 121.852 98.3852C121.56 98.333 121.264 98.3059 120.968 98.3043C120.361 98.2965 119.756 98.3456 119.159 98.451C117.955 98.6714 116.783 99.0379 115.668 99.5423L115.612 99.5672L115.546 99.5677L115.542 99.5677L115.665 99.542C115.447 99.64 115.231 99.7423 115.016 99.8489C114.804 99.9552 114.588 100.068 114.391 100.182L114.226 100.276L114.062 100.175C113.433 99.7884 112.786 99.4126 112.133 99.0646C111.492 98.7109 110.825 98.4058 110.138 98.152C109.976 98.0948 109.811 98.0497 109.643 98.0169C109.48 97.9918 109.315 97.9836 109.151 97.9926C108.801 98.0013 108.43 98.0502 108.065 98.0938C107.331 98.1901 106.592 98.3135 105.851 98.431C105.109 98.549 104.365 98.6659 103.613 98.7604C102.849 98.8703 102.078 98.9178 101.306 98.9024C99.7659 98.7766 98.3008 98.5078 96.8135 98.26L94.5949 97.8626L93.4875 97.6561L92.9467 97.5551C92.7864 97.5303 92.6239 97.5215 92.4619 97.529C92.3029 97.5359 92.1453 97.5605 91.9918 97.6022C91.832 97.6487 91.6774 97.7118 91.5307 97.7904C91.198 97.949 90.8647 98.1068 90.5429 98.2846C89.8931 98.6242 89.269 99.0106 88.6756 99.441C87.4788 100.256 86.4987 101.349 85.8197 102.627C85.5062 103.262 85.3131 103.949 85.2501 104.654C85.2206 105.004 85.2277 105.356 85.2715 105.705C85.3101 106.044 85.3909 106.377 85.5119 106.696L85.2511 106.501C87.1992 106.772 89.15 107.023 91.1037 107.2C93.046 107.412 95.0024 107.462 96.953 107.351C97.9158 107.278 98.8671 107.096 99.7885 106.809C100.708 106.496 101.592 106.089 102.426 105.592L107.616 102.77L107.744 102.701L107.837 102.807C108.524 103.597 109.237 104.366 109.985 105.098C110.729 105.835 111.519 106.525 112.349 107.163C113.175 107.807 114.067 108.362 115.01 108.818C115.482 109.046 115.975 109.227 116.482 109.36C116.987 109.506 117.517 109.547 118.039 109.481Z" fill="black"/>
<path d="M107.703 102.924C108.26 102.647 108.833 102.406 109.421 102.202C109.996 101.989 110.578 101.805 111.151 101.619C111.439 101.528 111.724 101.434 111.998 101.336C112.262 101.248 112.514 101.126 112.748 100.974C113.243 100.655 113.724 100.284 114.231 99.9062C113.962 100.485 113.581 101.005 113.111 101.438C112.868 101.673 112.584 101.862 112.273 101.997C111.983 102.127 111.687 102.241 111.384 102.336C110.791 102.526 110.184 102.671 109.569 102.77C108.954 102.881 108.329 102.932 107.703 102.924Z" fill="#020202"/>
<path d="M99.5753 79.8569C99.5716 79.8534 99.567 79.8511 99.5619 79.8502C99.5452 79.8336 99.5252 79.8135 99.5051 79.7969C99.5314 79.8132 99.5551 79.8334 99.5753 79.8569ZM80.9031 103.832C80.8664 103.902 80.8297 103.972 80.793 104.042C80.8163 103.952 80.843 103.862 80.8731 103.772C80.8832 103.792 80.8931 103.812 80.9031 103.832ZM115.545 99.262C115.558 99.2554 115.571 99.2487 115.588 99.242L115.578 99.272L115.568 99.2987H115.561L115.455 99.5456L115.505 99.2787C115.515 99.272 115.528 99.2687 115.541 99.262L115.545 99.262ZM115.481 84.2003L115.454 83.8133C115.501 83.9735 115.548 84.1302 115.591 84.2904C115.571 84.2703 115.551 84.257 115.531 84.2403L115.481 84.2003Z" fill="white"/>
<path d="M88.4312 114.781L86.5381 133.593L84.6107 152.401L82.7063 171.21L81.7736 180.615L81.3482 185.319L81.1574 187.67L81.0808 188.843C81.0716 189.037 81.0613 189.233 81.0574 189.425C81.057 189.518 81.0509 189.62 81.0552 189.707L81.0587 189.842C81.0627 189.866 81.0644 189.89 81.0636 189.914L80.8278 189.725C82.3846 189.907 83.9616 190.025 85.5319 190.065C86.3173 190.081 87.1039 190.087 87.8857 190.045C88.6642 190.013 89.4396 189.926 90.206 189.785L90.0297 189.96L97.0206 159.743C98.184 154.706 99.3764 149.676 100.598 144.653C101.212 142.141 101.833 139.632 102.517 137.135C102.689 136.511 102.865 135.888 103.055 135.267C103.151 134.956 103.249 134.646 103.357 134.337C103.412 134.182 103.468 134.028 103.533 133.873C103.565 133.795 103.598 133.717 103.639 133.637C103.683 133.537 103.746 133.445 103.825 133.368C103.848 133.346 103.875 133.329 103.905 133.317C103.952 133.294 104.004 133.288 104.054 133.298C104.103 133.305 104.149 133.327 104.185 133.361C104.205 133.377 104.222 133.396 104.238 133.417C104.27 133.462 104.299 133.511 104.322 133.561C104.36 133.645 104.392 133.726 104.421 133.805C104.478 133.964 104.527 134.121 104.573 134.279C104.667 134.593 104.751 134.907 104.832 135.221C104.993 135.85 105.144 136.48 105.29 137.11C106.441 142.157 107.451 147.226 108.478 152.293C109.501 157.36 110.489 162.434 111.482 167.506C112.479 172.577 113.468 177.651 114.523 182.706C114.789 183.968 115.059 185.232 115.354 186.481C115.428 186.792 115.504 187.104 115.586 187.408C115.628 187.558 115.671 187.712 115.717 187.844C115.729 187.876 115.74 187.908 115.75 187.931L115.759 187.951C115.761 187.956 115.761 187.955 115.747 187.933C115.706 187.895 115.789 187.955 115.64 187.843C115.452 187.77 115.434 187.81 115.473 187.799L115.502 187.799L115.56 187.798L115.679 187.797C116.317 187.784 116.961 187.756 117.601 187.718C118.88 187.648 120.155 187.514 121.42 187.317C122.043 187.22 122.659 187.085 123.265 186.911C123.557 186.827 123.842 186.721 124.118 186.595C124.36 186.492 124.579 186.339 124.759 186.148L124.677 186.406C124.384 180.358 124.012 174.309 123.613 168.264C123.219 162.219 122.761 156.178 122.24 150.142C121.698 144.109 121.12 138.078 120.313 132.075C119.904 129.076 119.459 126.079 118.869 123.111C118.571 121.628 118.237 120.151 117.805 118.703C117.593 117.978 117.336 117.267 117.035 116.575C116.885 116.23 116.706 115.898 116.5 115.583C116.307 115.264 116.037 114.998 115.714 114.811L115.746 114.742C116.086 114.93 116.373 115.2 116.58 115.529C116.795 115.845 116.983 116.178 117.142 116.526C117.458 117.218 117.73 117.929 117.957 118.655C118.418 120.104 118.781 121.58 119.107 123.061C119.755 126.027 120.257 129.021 120.699 132.021C121.574 138.024 122.259 144.051 122.837 150.087C123.417 156.123 123.922 162.165 124.353 168.213C124.784 174.261 125.153 180.313 125.459 186.369L125.467 186.519L125.377 186.628C125.124 186.918 124.809 187.148 124.456 187.302C124.144 187.446 123.821 187.567 123.491 187.663C122.854 187.847 122.205 187.992 121.549 188.095C120.257 188.298 118.956 188.437 117.65 188.511C116.999 188.551 116.349 188.58 115.694 188.595L115.57 188.597L115.507 188.597L115.475 188.598C115.493 188.589 115.456 188.627 115.251 188.541C115.082 188.422 115.159 188.459 115.104 188.408C115.087 188.386 115.072 188.363 115.06 188.338C115.044 188.309 115.03 188.279 115.017 188.249C114.994 188.197 114.978 188.153 114.963 188.11C114.902 187.937 114.858 187.779 114.814 187.618C114.726 187.298 114.649 186.982 114.573 186.665C114.277 185.399 114.015 184.133 113.753 182.865C112.718 177.796 111.751 172.719 110.776 167.642L107.87 152.412C106.893 147.338 105.93 142.258 104.83 137.215C104.69 136.585 104.546 135.956 104.392 135.332C104.314 135.02 104.234 134.709 104.146 134.403C104.103 134.25 104.057 134.098 104.006 133.953C103.981 133.88 103.954 133.81 103.926 133.746C103.912 133.718 103.897 133.69 103.89 133.68C103.887 133.674 103.897 133.691 103.902 133.693C103.926 133.709 103.953 133.721 103.981 133.728C104.012 133.731 104.044 133.728 104.074 133.719C104.098 133.708 104.109 133.695 104.104 133.701C104.074 133.742 104.047 133.787 104.025 133.833C103.992 133.897 103.96 133.968 103.93 134.039C103.869 134.182 103.813 134.33 103.759 134.48C103.651 134.779 103.551 135.084 103.453 135.391C103.259 136.004 103.077 136.622 102.9 137.242C102.194 139.724 101.547 142.226 100.909 144.73C99.63 149.737 98.4455 154.768 97.2534 159.797C94.8974 169.862 92.6385 179.949 90.4768 190.058L90.4458 190.202L90.3004 190.233C89.5125 190.388 88.7145 190.487 87.9125 190.53C87.1148 190.583 86.3181 190.586 85.5223 190.58C83.9296 190.557 82.347 190.458 80.7594 190.293L80.5618 190.272L80.5236 190.104C80.5061 190.031 80.4936 189.958 80.4861 189.884L80.4794 189.723C80.4736 189.614 80.4787 189.518 80.478 189.415C80.4796 189.213 80.4878 189.015 80.4948 188.816L80.5578 187.63C80.6067 186.841 80.6628 186.054 80.7261 185.268L81.134 180.556L82.031 171.142C82.6732 164.872 83.3369 158.604 84.0221 152.339C84.6906 146.072 85.417 139.811 86.1292 133.549C86.8357 127.286 87.6086 121.03 88.3562 114.772L88.4312 114.781Z" fill="#020202"/>
<path d="M88.043 117.941C89.2905 118.054 90.5324 118.189 91.7793 118.283C93.0232 118.397 94.2678 118.498 95.5117 118.596C96.7559 118.691 97.9994 118.791 99.2441 118.863L101.11 118.981L102.978 119.072C103.6 119.106 104.222 119.121 104.845 119.147L105.779 119.181L106.712 119.195C107.335 119.205 107.958 119.233 108.58 119.227C109.203 119.221 109.825 119.221 110.448 119.224C112.938 119.177 115.427 119.078 117.918 118.803C115.468 119.349 112.975 119.687 110.468 119.813C107.96 119.955 105.449 119.923 102.943 119.825C100.438 119.703 97.9409 119.488 95.4524 119.18C92.9659 118.875 90.4902 118.476 88.043 117.941ZM102.31 131.847C102.81 132.425 103.437 132.88 104.143 133.175C104.831 133.47 105.555 133.677 106.296 133.789C107.049 133.91 107.809 133.982 108.571 134.005L110.924 134.06C110.172 134.336 109.388 134.515 108.591 134.593C107.785 134.68 106.971 134.66 106.17 134.532C105.766 134.461 105.368 134.359 104.979 134.227C104.589 134.089 104.216 133.909 103.864 133.691C103.142 133.281 102.591 132.627 102.31 131.847Z" fill="#020202"/>
<path d="M103.577 115.444C103.872 117.72 104.075 120.004 104.233 122.291C104.393 124.578 104.495 126.869 104.526 129.167C104.524 130.319 104.53 131.464 104.421 132.637C104.403 132.786 104.39 132.931 104.359 133.086C104.347 133.166 104.331 133.244 104.31 133.322L104.275 133.447L104.257 133.51C104.258 133.509 104.259 133.508 104.259 133.507C104.26 133.506 104.26 133.504 104.259 133.503C104.268 133.56 104.291 133.613 104.328 133.657C104.396 133.757 104.474 133.849 104.56 133.933C104.965 134.307 105.403 134.644 105.866 134.942C107.766 136.174 109.808 137.234 111.831 138.316C110.748 137.928 109.688 137.483 108.637 137.015C107.581 136.546 106.551 136.02 105.552 135.44C105.033 135.147 104.546 134.801 104.099 134.407C103.977 134.295 103.866 134.171 103.769 134.036C103.625 133.854 103.557 133.623 103.579 133.393L103.635 133.158C103.649 133.097 103.659 133.035 103.666 132.972C103.688 132.846 103.696 132.705 103.709 132.569C103.792 131.46 103.782 130.311 103.771 129.174C103.755 126.892 103.686 124.605 103.646 122.317C103.6 120.029 103.56 117.739 103.577 115.444ZM95.4279 75.6632C95.4907 74.6844 95.492 73.7027 95.4318 72.7237C95.4213 72.6131 95.4011 72.5037 95.3715 72.3966C95.3587 72.3574 95.3335 72.3036 95.335 72.3167C95.3327 72.3114 95.346 72.3346 95.3566 72.3363C95.3759 72.3441 95.3347 72.3246 95.3267 72.32L95.2327 72.2708C94.5585 71.8736 93.971 71.3452 93.5053 70.7169C93.1813 70.2787 92.9666 69.7696 92.879 69.232C92.8006 68.6767 92.891 68.1106 93.1385 67.6072C93.2458 67.363 93.3775 67.1302 93.5314 66.9123C93.6147 66.7946 93.7079 66.6843 93.8102 66.5826C93.9323 66.4545 94.0834 66.3574 94.2507 66.2993C94.3596 66.2656 94.4749 66.2579 94.5874 66.2765C94.6998 66.2952 94.8064 66.3398 94.8986 66.4068C95.0347 66.5123 95.1463 66.646 95.2256 66.7987C95.3557 67.0491 95.4483 67.3171 95.5007 67.5942L94.8834 67.7006C94.6678 65.641 94.8386 63.5593 95.3871 61.5622C95.6526 60.5446 96.2275 59.6341 97.0327 58.9561C97.1385 58.8765 97.2539 58.8094 97.3646 58.7357L97.7199 58.5524C97.9638 58.4618 98.2062 58.3632 98.454 58.2793C98.7084 58.2194 98.9594 58.1358 99.2195 58.0959C99.4793 58.0496 99.7419 58.0202 100.006 58.008C101.082 57.9604 102.153 58.1963 103.109 58.692C104.066 59.1878 104.875 59.926 105.456 60.8325C105.751 61.2887 105.98 61.7846 106.135 62.3052C106.618 63.8375 106.696 65.4685 106.362 67.0399L106.052 66.5582C106.335 66.6232 106.603 66.7403 106.843 66.9035C107.088 67.0651 107.294 67.2794 107.446 67.5308C107.716 68.0322 107.788 68.6169 107.646 69.1686C107.524 69.6529 107.352 70.1231 107.132 70.5718C107.026 70.8018 106.904 71.0239 106.766 71.2361C106.686 71.3581 106.59 71.4692 106.481 71.5665C106.403 71.6363 106.31 71.6872 106.209 71.7154C106.124 71.7373 106.035 71.7327 105.952 71.7024C105.87 71.672 105.799 71.6173 105.749 71.5455L106.251 71.4519C106.146 71.8612 106.057 72.2913 105.982 72.7166C105.906 73.1437 105.845 73.5733 105.798 74.0054C105.748 74.4371 105.712 74.8704 105.693 75.3054C105.675 75.7406 105.684 76.176 105.703 76.6136C105.703 76.6186 105.703 76.6235 105.701 76.6282C105.699 76.6329 105.697 76.6373 105.694 76.6411C105.69 76.6448 105.686 76.6479 105.682 76.6501C105.678 76.6523 105.673 76.6536 105.668 76.654C105.659 76.6544 105.649 76.6516 105.642 76.6459C105.635 76.6402 105.63 76.6322 105.628 76.6231C105.547 76.1886 105.493 75.7496 105.466 75.3084C105.442 74.8671 105.424 74.4232 105.441 73.9806C105.456 73.538 105.485 73.0959 105.528 72.6542C105.573 72.2114 105.629 71.7761 105.708 71.3283L106.211 71.2348C106.198 71.2098 106.177 71.1895 106.152 71.1768C106.127 71.1641 106.098 71.1596 106.07 71.1639C106.057 71.1623 106.076 71.1597 106.1 71.131C106.163 71.0645 106.217 70.9909 106.263 70.9117C106.372 70.7199 106.468 70.5204 106.549 70.3149C106.722 69.9017 106.859 69.4737 106.957 69.0362C107.045 68.6591 106.989 68.2628 106.8 67.9247C106.702 67.7712 106.571 67.6418 106.416 67.5461C106.26 67.4459 106.088 67.3732 105.908 67.3311C105.805 67.3101 105.714 67.2495 105.655 67.1622C105.597 67.075 105.575 66.9682 105.595 66.865L105.598 66.8493C105.774 65.8952 105.803 64.9199 105.685 63.9569C105.627 63.4729 105.532 62.9941 105.399 62.525C105.277 62.065 105.088 61.6252 104.839 61.219C104.587 60.8115 104.286 60.4364 103.943 60.1022C103.593 59.7702 103.205 59.4806 102.787 59.2392C101.946 58.7416 100.991 58.4706 100.014 58.4528C99.7678 58.4463 99.5218 58.4577 99.2776 58.4867C99.0321 58.5089 98.7923 58.5744 98.5478 58.6158C98.3092 58.6813 98.0734 58.7614 97.8346 58.8335L97.5016 58.9816C97.3986 59.0461 97.2904 59.1035 97.1906 59.1734C96.4025 59.7911 95.848 60.6578 95.6179 61.6315C95.3568 62.6042 95.236 63.6092 95.259 64.616C95.2628 65.619 95.3445 66.6202 95.5034 67.6106C95.5163 67.6901 95.4979 67.7716 95.4521 67.8379C95.4063 67.9042 95.3366 67.9503 95.2575 67.9666C95.1785 67.9828 95.0962 67.9679 95.0279 67.925C94.9596 67.8821 94.9105 67.8145 94.8909 67.7364L94.8862 67.717C94.8375 67.5093 94.76 67.3094 94.656 67.1231C94.6192 67.0566 94.5694 66.9981 94.5097 66.9509C94.4679 66.9273 94.4875 66.9371 94.4536 66.9394C94.3024 67.0281 94.1759 67.1532 94.0854 67.3032C93.9549 67.4902 93.8405 67.688 93.7435 67.8944C93.5536 68.2929 93.4761 68.7357 93.5196 69.1749C93.563 69.6142 93.7257 70.0333 93.9901 70.387C94.2515 70.777 94.5625 71.1315 94.9153 71.4415C95.0912 71.5986 95.2775 71.7436 95.4729 71.8755L95.5403 71.9182L95.5896 71.9498C95.6239 71.9717 95.6544 71.9991 95.6797 72.0309C95.7353 72.1074 95.7732 72.1954 95.7907 72.2883C95.8174 72.4222 95.8318 72.5582 95.834 72.6946C95.8377 73.1982 95.804 73.7014 95.7331 74.2C95.6727 74.694 95.5992 75.1847 95.5029 75.6724C95.501 75.6822 95.4952 75.6909 95.4868 75.6965C95.4785 75.7021 95.4682 75.7041 95.4584 75.7022C95.4495 75.7003 95.4416 75.6954 95.436 75.6882C95.4304 75.6811 95.4276 75.6722 95.4279 75.6632Z" fill="#020202"/>
<path d="M97.0287 65.3468C97.1549 65.0624 97.3583 64.8189 97.6161 64.6441C97.8733 64.4625 98.164 64.3336 98.4714 64.2649C98.7773 64.2041 99.0913 64.1963 99.3997 64.2421C99.5508 64.2663 99.7001 64.3012 99.8462 64.3465C99.989 64.3992 100.128 64.4612 100.263 64.532C100.108 64.5413 99.9611 64.5313 99.815 64.5291C99.6683 64.5357 99.5248 64.5266 99.3827 64.536C99.1033 64.546 98.8252 64.5786 98.551 64.6334C97.9962 64.7535 97.4758 64.9974 97.0287 65.3468ZM103.489 64.3798C103.628 64.1855 103.822 64.0375 104.047 63.9548C104.26 63.8646 104.485 63.8016 104.714 63.7674C105.17 63.6944 105.636 63.7269 106.076 63.8622C105.862 63.9367 105.641 63.9933 105.417 64.0315C105.2 64.0757 104.984 64.105 104.771 64.1401C104.556 64.1685 104.344 64.2041 104.131 64.2355C103.913 64.2652 103.698 64.3134 103.489 64.3798ZM98.7287 67.2028C98.8756 67.1977 99.0148 67.1358 99.1169 67.0303C99.219 66.9247 99.2761 66.7837 99.2761 66.6369C99.2761 66.4902 99.219 66.3491 99.1169 66.2436C99.0148 66.138 98.8756 66.0762 98.7287 66.0711C98.5818 66.0762 98.4427 66.138 98.3406 66.2436C98.2384 66.3491 98.1814 66.4902 98.1814 66.6369C98.1814 66.7837 98.2384 66.9247 98.3406 67.0303C98.4427 67.1358 98.5818 67.1977 98.7287 67.2028ZM104.713 66.7275C104.86 66.7224 104.999 66.6606 105.101 66.555C105.203 66.4494 105.26 66.3084 105.26 66.1616C105.26 66.0149 105.203 65.8738 105.101 65.7683C104.999 65.6627 104.86 65.6009 104.713 65.5958C104.566 65.6009 104.427 65.6627 104.325 65.7683C104.222 65.8738 104.165 66.0149 104.165 66.1616C104.165 66.3084 104.222 66.4494 104.325 66.555C104.427 66.6606 104.566 66.7224 104.713 66.7275ZM95.4647 72.1368C95.8854 72.6037 96.3238 73.0454 96.7689 73.474C97.2115 73.9002 97.6834 74.2949 98.1812 74.6554C98.6693 75.0158 99.207 75.3039 99.7776 75.5109C100.356 75.7178 100.979 75.7718 101.585 75.6676C100.987 75.9194 100.321 75.9638 99.6952 75.7936C99.0705 75.627 98.4826 75.3451 97.9619 74.9623C96.9374 74.2089 96.086 73.2456 95.4647 72.1368ZM98.7288 70.7109C99.2023 70.8567 99.6775 70.966 100.15 71.0633C100.62 71.1565 101.096 71.2153 101.574 71.2394C102.049 71.2609 102.524 71.2306 102.992 71.1491C103.468 71.056 103.931 70.909 104.373 70.7109C103.992 71.0423 103.546 71.2891 103.063 71.435C102.574 71.577 102.066 71.6382 101.558 71.616C100.552 71.5695 99.5752 71.2571 98.7288 70.7109ZM103.489 67.4197C103.778 67.8043 103.941 68.2683 103.958 68.7488C103.962 69.0185 103.866 69.2804 103.689 69.4834C103.502 69.6753 103.261 69.8044 102.997 69.8529C102.52 69.9292 102.032 69.9021 101.566 69.7733C101.114 69.6605 100.677 69.4967 100.263 69.285C100.722 69.3518 101.173 69.4268 101.619 69.4837C102.049 69.5503 102.487 69.5505 102.918 69.4844C103.111 69.4644 103.291 69.3781 103.427 69.2403C103.563 69.1024 103.647 68.9214 103.665 68.7285C103.693 68.2849 103.634 67.84 103.489 67.4197ZM81.4967 190.159C81.4967 190.159 78.975 197.411 81.0709 198.388C83.1669 199.364 98.0481 201.038 97.9083 199.713C97.7686 198.388 90.6424 195.739 89.8739 194.83C89.1054 193.92 89.0738 190.301 89.0738 190.301M116.615 188.205C116.615 188.205 115.142 195.739 117.354 196.412C119.567 197.084 134.536 196.648 134.211 195.355C133.886 194.063 126.457 192.443 125.568 191.651C124.678 190.858 124.137 187.28 124.137 187.28M103.816 75.396C104.295 74.8008 104.719 74.1642 105.085 73.4938C105.267 73.163 105.429 72.822 105.572 72.4725C105.724 72.1234 105.838 71.7605 105.979 71.3899C105.996 71.7858 105.953 72.182 105.851 72.565C105.754 72.9512 105.608 73.3236 105.417 73.6732C105.228 74.0237 104.998 74.3499 104.73 74.6446C104.469 74.9437 104.16 75.1977 103.816 75.396ZM103.217 61.9476H99.8849C99.86 61.9477 99.8354 61.9429 99.8123 61.9334C99.7893 61.924 99.7684 61.9101 99.7508 61.8926C99.7332 61.8751 99.7192 61.8542 99.7096 61.8313C99.7001 61.8084 99.6952 61.7838 99.6952 61.7589C99.6952 61.7341 99.7001 61.7095 99.7096 61.6866C99.7192 61.6636 99.7332 61.6428 99.7508 61.6253C99.7684 61.6077 99.7893 61.5939 99.8123 61.5844C99.8354 61.575 99.86 61.5702 99.8849 61.5703H103.217C103.241 61.5702 103.266 61.575 103.289 61.5844C103.312 61.5939 103.333 61.6077 103.351 61.6253C103.368 61.6428 103.382 61.6636 103.392 61.6866C103.401 61.7095 103.406 61.7341 103.406 61.7589C103.406 61.7838 103.401 61.8084 103.392 61.8313C103.382 61.8542 103.368 61.8751 103.351 61.8926C103.333 61.9101 103.312 61.924 103.289 61.9334C103.266 61.9429 103.241 61.9477 103.217 61.9476ZM103.217 62.9213H99.8849C99.8348 62.9213 99.7867 62.9014 99.7513 62.8661C99.7159 62.8307 99.696 62.7827 99.696 62.7327C99.696 62.6827 99.7159 62.6347 99.7513 62.5993C99.7867 62.5639 99.8348 62.5441 99.8849 62.5441H103.217C103.267 62.5441 103.315 62.5639 103.35 62.5993C103.386 62.6347 103.406 62.6827 103.406 62.7327C103.406 62.7827 103.386 62.8307 103.35 62.8661C103.315 62.9014 103.267 62.9213 103.217 62.9213Z" fill="#020202"/>
<path d="M173.81 63.8347H138.347C138.347 63.9715 138.35 64.1049 138.356 64.2417C138.379 64.7335 138.451 65.2219 138.57 65.6995C138.732 66.4197 139.097 67.0785 139.623 67.5976C140.163 68.0801 140.859 68.3545 141.584 68.3716C142.312 68.3816 143.087 68.3516 143.839 68.3415C146.862 68.2882 149.886 68.2815 152.913 68.2748C155.936 68.2815 158.96 68.2882 161.986 68.3415L164.255 68.3816L164.819 68.3916C164.997 68.3947 165.174 68.3779 165.347 68.3416C165.704 68.2772 166.048 68.1531 166.363 67.9746C167.013 67.6233 167.534 67.074 167.85 66.4067C168.164 65.7249 168.361 64.9954 168.434 64.2484C168.425 65.0107 168.275 65.7649 167.993 66.4734C167.769 66.9992 167.436 67.4712 167.014 67.8578C167.011 67.8612 167.011 67.8612 167.008 67.8612C166.854 67.9996 166.688 68.1225 166.51 68.2281C166.172 68.4323 165.803 68.581 165.418 68.6685C165.221 68.7127 165.021 68.7384 164.819 68.7452L164.255 68.7552L161.986 68.7952C158.96 68.8486 155.936 68.8553 152.913 68.8619C149.886 68.8553 146.862 68.8486 143.839 68.7952C143.077 68.7752 142.339 68.7819 141.557 68.7419C140.755 68.6947 139.997 68.3608 139.422 67.8011C138.894 67.2235 138.546 66.5048 138.42 65.7328C138.298 65.1079 138.265 64.469 138.32 63.8347H132.978C132.508 63.8349 132.058 64.0213 131.726 64.3528C131.394 64.6843 131.207 65.1339 131.207 65.6028V125.109C131.207 125.578 131.394 126.028 131.726 126.36C132.058 126.692 132.508 126.88 132.978 126.88H173.81C174.043 126.88 174.273 126.834 174.488 126.745C174.703 126.656 174.898 126.525 175.063 126.361C175.227 126.196 175.357 126.001 175.446 125.786C175.535 125.572 175.581 125.342 175.58 125.109V65.6027C175.581 65.3705 175.535 65.1405 175.446 64.9259C175.357 64.7114 175.227 64.5164 175.062 64.3522C174.898 64.188 174.702 64.0577 174.488 63.9689C174.273 63.8801 174.042 63.8345 173.81 63.8347ZM135.734 72.0411H147.11V84.4941H135.734V72.0411ZM138.179 120.465C135.326 120.465 135.33 116.042 138.179 116.042C141.036 116.042 141.029 120.465 138.179 120.465ZM138.179 113.367C135.326 113.367 135.33 108.947 138.179 108.947C141.036 108.947 141.029 113.367 138.179 113.367ZM138.179 106.271C135.326 106.271 135.33 101.848 138.179 101.848C141.036 101.848 141.029 106.271 138.179 106.271ZM138.179 99.1722C135.326 99.1722 135.33 94.7488 138.179 94.7488C141.036 94.7488 141.029 99.1722 138.179 99.1722ZM138.179 92.0733C135.326 92.0733 135.33 87.6499 138.179 87.6499C141.036 87.6499 141.029 92.0733 138.179 92.0733ZM169.076 118.754H143.411V117.753H169.076V118.754ZM169.076 111.659H143.411V110.658H169.076V111.659ZM169.076 104.56H143.411V103.559H169.076V104.56ZM169.076 97.4609H143.411V96.4601H169.076V97.4609ZM169.076 90.362H143.411V89.3612H169.076V90.362ZM169.076 83.2632H152.328V82.2624H169.076V83.2632ZM169.076 76.1676H152.328V75.1668H169.076V76.1676ZM159.878 60.2719C158.822 60.1043 157.759 59.9897 156.691 59.9283C156.674 59.9283 156.661 59.925 156.644 59.925C155.562 59.8516 154.476 59.8282 153.394 59.8249C152.331 59.8349 151.266 59.8583 150.203 59.9283C150.183 59.9283 150.166 59.9317 150.146 59.9317C149.064 59.9984 147.985 60.0985 146.909 60.2719C146.909 60.1552 146.912 60.0417 146.919 59.9283C147.007 58.2729 147.727 56.7143 148.932 55.5735C150.137 54.4328 151.734 53.7969 153.394 53.7969C155.054 53.7969 156.651 54.4328 157.855 55.5735C159.06 56.7143 159.78 58.2729 159.868 59.9283C159.875 60.0417 159.878 60.1552 159.878 60.2719Z" fill="black"/>
<path d="M159.879 60.2715C159.878 61.988 159.194 63.6337 157.978 64.847C156.762 66.0603 155.114 66.7418 153.395 66.7418C151.676 66.7418 150.027 66.0603 148.811 64.847C147.595 63.6337 146.911 61.988 146.91 60.2715C147.996 60.3415 149.078 60.3716 150.157 60.3883C151.24 60.4116 152.316 60.4116 153.395 60.4149C154.474 60.4049 155.553 60.4049 156.632 60.3816C157.714 60.3616 158.794 60.3415 159.879 60.2715Z" fill="black"/>
<path d="M168.437 63.4638V64.2478C168.364 64.9948 168.167 65.7243 167.853 66.4061C167.537 67.0734 167.016 67.6227 166.366 67.974C166.05 68.1525 165.707 68.2766 165.35 68.3409C165.177 68.3773 165 68.3941 164.822 68.391L164.258 68.381L161.989 68.3409C158.963 68.2876 155.939 68.2809 152.916 68.2742C149.889 68.2809 146.865 68.2876 143.842 68.3409C143.09 68.351 142.315 68.381 141.587 68.371C140.862 68.3539 140.166 68.0795 139.626 67.597C139.1 67.0779 138.735 66.4191 138.573 65.6989C138.454 65.2213 138.382 64.7329 138.359 64.2411V63.4638C138.362 62.5268 138.736 61.629 139.4 60.9664C140.063 60.3039 140.962 59.9305 141.901 59.9277H150.206C150.186 59.9277 150.169 59.9311 150.149 59.9311C149.067 59.9978 147.988 60.0979 146.912 60.2713C147.998 60.3414 149.08 60.3714 150.159 60.3881C151.242 60.4115 152.318 60.4114 153.397 60.4148C154.476 60.4048 155.555 60.4048 156.634 60.3814C157.716 60.3614 158.796 60.3414 159.881 60.2713C158.825 60.1038 157.762 59.9891 156.694 59.9277H164.893C165.832 59.9298 166.731 60.3029 167.396 60.9655C168.06 61.6281 168.434 62.5263 168.437 63.4638Z" fill="black"/>
<path d="M167.994 66.4731C168.277 65.7646 168.426 65.0104 168.435 64.248V65.0287C168.435 65.5779 168.307 66.1196 168.06 66.6106C167.814 67.1016 167.456 67.5286 167.016 67.8575C167.437 67.4709 167.771 66.9989 167.994 66.4731Z" fill="black"/>
<path d="M138.357 63.4648C138.35 63.5883 138.347 63.715 138.347 63.8351H138.32C138.327 63.7117 138.34 63.5883 138.357 63.4648Z" fill="white"/>
<path d="M136.021 104.359C136.29 104.447 136.552 104.554 136.807 104.677C137.061 104.795 137.306 104.926 137.547 105.063L137.224 105.091C137.424 104.87 137.636 104.663 137.848 104.456C138.067 104.256 138.28 104.05 138.512 103.864C138.968 103.472 139.463 103.128 139.989 102.838C139.67 103.347 139.298 103.821 138.88 104.253C138.681 104.474 138.464 104.675 138.251 104.882C138.032 105.082 137.814 105.282 137.582 105.468L137.406 105.608L137.259 105.495C137.039 105.326 136.824 105.15 136.617 104.961C136.405 104.774 136.206 104.573 136.021 104.359ZM136.021 97.2614C136.29 97.3494 136.552 97.4556 136.807 97.5793C137.061 97.6969 137.306 97.8274 137.547 97.9653L137.224 97.9926C137.424 97.7718 137.636 97.565 137.848 97.3577C138.067 97.1577 138.28 96.952 138.512 96.766C138.968 96.3741 139.463 96.0303 139.989 95.74C139.67 96.2486 139.298 96.7229 138.88 97.1552C138.681 97.3761 138.464 97.5773 138.251 97.7841C138.032 97.9836 137.814 98.1837 137.582 98.3698L137.406 98.5104L137.259 98.3971C137.039 98.2283 136.824 98.0522 136.617 97.8633C136.405 97.6764 136.206 97.4753 136.021 97.2614ZM136.021 118.556C136.29 118.644 136.552 118.75 136.807 118.874C137.061 118.991 137.306 119.122 137.547 119.26L137.224 119.287C137.424 119.066 137.636 118.859 137.848 118.652C138.067 118.452 138.28 118.246 138.512 118.06C138.968 117.668 139.463 117.325 139.989 117.034C139.67 117.543 139.298 118.017 138.88 118.449C138.681 118.67 138.464 118.872 138.251 119.078C138.032 119.278 137.814 119.478 137.582 119.664L137.406 119.805L137.259 119.691C137.039 119.523 136.824 119.346 136.617 119.158C136.405 118.971 136.206 118.77 136.021 118.556ZM136.021 111.458C136.29 111.546 136.552 111.652 136.807 111.775C137.061 111.893 137.306 112.024 137.547 112.161L137.224 112.189C137.424 111.968 137.636 111.761 137.848 111.554C138.067 111.354 138.28 111.148 138.512 110.962C138.968 110.57 139.463 110.226 139.989 109.936C139.67 110.445 139.298 110.919 138.88 111.351C138.681 111.572 138.464 111.773 138.251 111.98C138.032 112.18 137.814 112.38 137.582 112.566L137.406 112.707L137.259 112.593C137.039 112.424 136.824 112.248 136.617 112.059C136.405 111.873 136.206 111.671 136.021 111.458ZM136.021 90.1229C136.29 90.2109 136.552 90.3171 136.807 90.4408C137.061 90.5585 137.306 90.689 137.547 90.8268L137.224 90.8541C137.424 90.6333 137.636 90.4265 137.848 90.2192C138.067 90.0192 138.28 89.8135 138.512 89.6275C138.968 89.2357 139.463 88.8919 139.989 88.6016C139.67 89.1102 139.298 89.5844 138.88 90.0168C138.681 90.2376 138.464 90.4388 138.251 90.6457C138.032 90.8452 137.814 91.0452 137.582 91.2313L137.406 91.3719L137.259 91.2587C137.039 91.0899 136.824 90.9138 136.617 90.7248C136.405 90.5379 136.206 90.3368 136.021 90.1229ZM28.1911 104.782C28.4966 107.959 28.6564 111.135 28.7649 114.311C28.8729 117.487 28.9276 120.663 28.929 123.839C28.933 127.015 28.879 130.191 28.7671 133.367C28.659 136.543 28.4984 139.719 28.1911 142.895C27.8838 139.719 27.7232 136.543 27.615 133.367C27.508 130.191 27.4541 127.015 27.4531 123.839C27.452 120.663 27.5067 117.487 27.6172 114.311C27.7258 111.135 27.8857 107.959 28.1911 104.782Z" fill="black"/>
<path d="M81.98 137.956C77.0998 138.261 72.2196 138.42 67.3395 138.529C64.8994 138.597 62.4593 138.612 60.0192 138.652L52.6989 138.693L45.3787 138.654C42.9386 138.613 40.4986 138.6 38.0585 138.531C33.1783 138.423 28.2981 138.263 23.418 137.956C28.2981 137.649 33.1783 137.489 38.0585 137.381C40.4986 137.312 42.9386 137.299 45.3787 137.258L52.6989 137.219L60.0192 137.26C62.4593 137.3 64.8994 137.315 67.3395 137.383C72.2196 137.491 77.0998 137.651 81.98 137.956ZM28.1314 136.769C28.8041 135.638 29.5064 134.528 30.2118 133.421C30.9235 132.318 31.6349 131.215 32.3667 130.126C33.0899 129.031 33.8286 127.947 34.5705 126.866C35.3045 125.779 36.0665 124.712 36.8161 123.636L37.2786 122.972L37.8371 123.583C38.4552 124.259 39.058 124.949 39.6615 125.638C40.2713 126.321 40.8521 127.03 41.448 127.726C42.0316 128.433 42.6183 129.137 43.1939 129.851L44.9287 131.985L44.3084 132.024L45.7714 130.048C46.2462 129.381 46.7301 128.72 47.1974 128.047C48.1348 126.704 49.0532 125.349 49.9526 123.98C50.8563 122.614 51.7212 121.222 52.5991 119.839L55.2114 115.674L55.6182 115.026L56.1268 115.65C56.8698 116.562 57.6054 117.479 58.3334 118.402L60.5125 121.175L62.6886 123.951C63.4162 124.874 64.1397 125.801 64.849 126.738L63.5816 126.758C64.7157 125.144 65.8841 123.554 67.0495 121.962C68.2183 120.373 69.3988 118.792 70.5909 117.22C71.7815 115.646 72.9849 114.081 74.2012 112.526C74.809 111.748 75.4227 110.974 76.0425 110.205C76.6612 109.435 77.2762 108.662 77.9101 107.902L78.0304 107.988C77.5186 108.834 76.988 109.667 76.4611 110.503C75.9372 111.34 75.4053 112.172 74.8654 112.998C73.7911 114.655 72.7033 116.302 71.6019 117.939C70.5029 119.578 69.3921 121.208 68.2694 122.83C67.1435 124.45 66.0207 126.072 64.8635 127.669L64.2401 128.53L63.596 127.689C62.8812 126.756 62.1806 125.812 61.4842 124.865L59.388 122.029L57.2948 119.19C56.5991 118.243 55.9106 117.29 55.2292 116.331L56.1445 116.307L53.2348 120.269C52.272 121.595 51.2962 122.912 50.3593 124.255C49.4181 125.596 48.4958 126.949 47.5924 128.315C47.1394 128.997 46.703 129.69 46.2575 130.378L44.9595 132.465L44.7012 132.881L44.3391 132.505L42.4308 130.524C41.792 129.866 41.1642 129.199 40.5336 128.533C39.9151 127.858 39.2815 127.195 38.677 126.507C38.0661 125.824 37.4545 125.142 36.8583 124.447L37.8792 124.394C37.1028 125.451 36.3387 126.517 35.5468 127.562C34.7626 128.614 33.9753 129.663 33.1724 130.701C32.3782 131.745 31.5637 132.775 30.7492 133.804C29.9287 134.83 29.1048 135.853 28.2516 136.855L28.1314 136.769Z" fill="black"/>
</svg>
