<svg width="143" height="143" viewBox="0 0 143 143" fill="none" xmlns="http://www.w3.org/2000/svg">
<path d="M114.362 72.1736C103.432 85.1407 89.2994 95.2726 71.5191 96.1135C55.4704 96.8725 42.7777 88.2104 48.9005 71.1092C51.7989 63.0139 60.6786 55.3415 69.7811 56.8043C79.9221 58.4339 75.9128 71.2152 71.0662 75.9817C59.7466 87.1146 39.9852 89.2667 26.7613 77.9526C11.1012 64.5542 27.291 50.8626 27.3418 50.9937" stroke="black" stroke-width="1.37712" stroke-miterlimit="1.5" stroke-linecap="round" stroke-linejoin="round"/>
<path d="M116.519 90.8982C115.537 89.3019 115.326 87.4777 115.022 85.6681C114.023 79.7263 114.857 73.0093 118.322 67.9057C113.017 71.9892 104.745 75.5132 98.1639 72.9989" stroke="black" stroke-width="1.37712" stroke-miterlimit="1.5" stroke-linecap="round" stroke-linejoin="round"/>
</svg>
