<svg width="319" height="225" viewBox="0 0 319 225" fill="none" xmlns="http://www.w3.org/2000/svg">
<rect width="319" height="225" rx="8" fill="#F9F3E5"/>
<path d="M155.473 73.5693C155.473 73.5693 155.099 74.21 153.739 74.9876C153.87 76.0359 153.94 77.0843 153.99 78.1327C154.019 78.654 154.031 79.1782 154.045 79.7023C154.054 79.9615 154.057 80.2207 154.06 80.477C154.279 80.2586 154.504 80.0431 154.725 79.8276C155.149 79.4373 155.575 79.05 156.025 78.686C156.472 78.3153 156.942 77.9729 157.432 77.6609C157.68 77.5045 157.941 77.3681 158.211 77.2532C158.35 77.1966 158.495 77.1546 158.643 77.128C158.765 77.1037 158.891 77.1201 159.002 77.1746C157.975 76.2311 156.804 75.0516 155.473 73.5693ZM174.01 81.8661C173.689 81.6011 173.374 81.3448 173.064 81.0973C173.324 82.0582 173.527 83.0335 173.672 84.0182C173.842 85.1451 173.948 86.2807 173.99 87.4196C174.001 87.9904 174.007 88.5611 173.99 89.1348C173.984 89.4202 173.964 89.7056 173.94 89.991C173.92 90.2764 173.905 90.5618 173.861 90.8472C173.747 91.9792 173.478 93.0902 173.061 94.1496C174.288 93.6225 176.299 92.9439 178.232 93.1303C181.32 93.4245 183.483 98.3373 183.483 98.3373C184.368 93.8234 180.26 86.9449 174.01 81.8661ZM176.862 91.7121C176.302 91.8113 175.758 91.9867 175.245 92.2334C175.111 92.2936 174.981 92.3627 174.857 92.4401L174.463 92.6498C174.212 92.81 173.961 92.9789 173.683 93.1303C173.863 92.8764 174.056 92.6324 174.261 92.3994C174.487 92.1788 174.729 91.9753 174.985 91.7907C175.247 91.6046 175.531 91.4502 175.829 91.3306C176.129 91.2036 176.444 91.1126 176.766 91.0598C177.417 90.9655 178.082 91.0449 178.693 91.2898C179.289 91.5173 179.809 91.9079 180.193 92.4168C179.192 91.8204 178.02 91.5725 176.862 91.7121ZM175.198 103.087C175.198 103.087 172.051 103.972 166.169 97.3646C166.169 97.3646 162.497 99.0566 161.017 100.227C159.221 101.648 153.739 101.832 146.508 100.778C146.508 100.778 144.546 96.0454 152.06 92.5071C152.485 92.3186 152.96 92.2696 153.415 92.3673C155.038 92.6819 159.119 93.4507 160.582 93.5438C162.424 93.6632 166.584 92.6556 167.772 92.7721C168.96 92.8915 171.873 94.7291 171.873 94.7291C171.873 94.7291 172.297 94.4845 172.986 94.1816L172.989 94.1583L172.991 94.1408L172.994 94.1379C173.187 93.0359 173.3 91.9216 173.333 90.8035C173.345 90.5239 173.35 90.2444 173.356 89.9648C173.362 89.6852 173.365 89.4057 173.359 89.1232C173.368 88.564 173.348 88.002 173.33 87.4429C173.304 86.3187 173.231 85.1976 173.164 84.0706L172.965 81.0186C170.729 79.216 168.931 77.8123 167.57 76.7698C167.737 77.0785 167.891 77.3901 168.034 77.7046C168.183 78.0162 168.318 78.3365 168.455 78.651C168.583 78.9714 168.723 79.2888 168.843 79.6121C168.963 79.9353 169.094 80.2527 169.205 80.5789L169.614 81.7846L168.68 80.9109C167.959 80.2353 167.264 79.5393 166.587 78.82C165.903 78.1021 165.261 77.3467 164.663 76.5572C165.467 77.1363 166.239 77.7575 166.978 78.4181C167.404 78.7996 167.824 79.1898 168.236 79.583C168.16 79.3238 168.093 79.0617 168.02 78.7996C167.935 78.4647 167.848 78.1298 167.775 77.792C167.696 77.4542 167.629 77.1134 167.57 76.7698C165.448 75.1448 164.385 74.3993 164.385 74.3993L165.2 80.8002C165.2 80.8002 163.495 81.2662 159.055 77.2212C158.994 77.1931 158.927 77.1793 158.86 77.1808C158.792 77.1823 158.726 77.1991 158.666 77.2299C158.536 77.2788 158.413 77.3433 158.299 77.4221C158.065 77.5768 157.841 77.747 157.63 77.9318C157.198 78.2929 156.786 78.686 156.378 79.0792C155.972 79.4752 155.566 79.8713 155.169 80.279C154.763 80.6779 154.372 81.0944 153.978 81.4992L153.4 82.0933L153.412 81.2749C153.421 80.7507 153.415 80.2265 153.435 79.7024C153.45 79.1782 153.461 78.654 153.491 78.1327C153.54 77.0843 153.61 76.0359 153.739 74.9876C152.856 75.4801 151.923 75.8783 150.957 76.1757C147.273 77.361 141.092 80.2062 140.736 85.78C140.491 89.595 141.092 94.7524 142.724 98.1043C143.07 96.9495 143.55 95.8391 144.155 94.7961C144.79 93.6527 145.607 92.62 146.575 91.7383C147.08 91.3004 147.644 90.9357 148.251 90.655C148.87 90.3746 149.543 90.2306 150.224 90.2327C150.43 90.236 150.635 90.2554 150.837 90.291C150.825 89.6882 150.811 89.0912 150.761 88.4971C150.714 87.8651 150.653 87.2361 150.571 86.61C150.487 85.9839 150.399 85.3607 150.291 84.7404C150.177 84.1259 150.072 83.5056 149.929 82.9086C149.714 82.2733 149.408 81.6721 149.021 81.1235C148.65 80.5783 148.137 80.1435 147.538 79.8654C146.918 79.6059 146.24 79.5174 145.574 79.6092C144.877 79.6969 144.2 79.8975 143.568 80.2032C144.145 79.7649 144.807 79.4506 145.512 79.2801C145.875 79.1944 146.246 79.1553 146.619 79.1636C146.999 79.1748 147.376 79.2466 147.734 79.3762C148.452 79.6502 149.076 80.1255 149.529 80.7449C149.971 81.342 150.317 82.0042 150.554 82.7077L150.56 82.7281L150.563 82.7397C150.697 83.3804 150.817 84.0065 150.895 84.6472C150.977 85.285 151.038 85.9256 151.068 86.5663C151.102 87.2084 151.103 87.8519 151.071 88.4942C151.039 89.0981 150.968 89.6993 150.857 90.2939C151.307 90.3751 151.744 90.5152 152.157 90.7103C152.738 90.9989 153.272 91.3751 153.739 91.8257C153.203 91.4917 152.631 91.2182 152.034 91.0103C151.457 90.8102 150.846 90.7213 150.236 90.7482C149.025 90.8776 147.891 91.4005 147.007 92.2363C146.54 92.6419 146.109 93.0872 145.72 93.5672C145.314 94.0418 144.949 94.5515 144.59 95.0669C143.921 96.0631 143.308 97.0945 142.751 98.1567C143.501 99.674 144.464 100.813 145.661 101.276C145.661 101.276 147.985 107.712 149.293 107.712C150.601 107.712 170.922 109.133 173.178 107.712C175.438 106.287 175.198 103.087 175.198 103.087ZM167.179 90.9171C167.307 90.9214 167.429 90.9753 167.518 91.0674C167.608 91.1595 167.657 91.2826 167.657 91.4107C167.657 91.5388 167.608 91.6619 167.518 91.754C167.429 91.8461 167.307 91.9 167.179 91.9043C167.051 91.9 166.929 91.8461 166.84 91.754C166.751 91.6619 166.701 91.5388 166.701 91.4107C166.701 91.2826 166.751 91.1595 166.84 91.0674C166.929 90.9753 167.051 90.9214 167.179 90.9171ZM166.049 86.2926C166.178 86.2967 166.3 86.3504 166.389 86.4426C166.479 86.5347 166.529 86.6579 166.529 86.7862C166.529 86.9145 166.479 87.0377 166.389 87.1298C166.3 87.2219 166.178 87.2757 166.049 87.2798C165.921 87.2757 165.799 87.2219 165.71 87.1298C165.62 87.0377 165.57 86.9145 165.57 86.7862C165.57 86.6579 165.62 86.5347 165.71 86.4426C165.799 86.3504 165.921 86.2967 166.049 86.2926ZM165.159 81.8486C165.287 81.853 165.409 81.9069 165.498 81.999C165.587 82.0911 165.637 82.2142 165.637 82.3422C165.637 82.4703 165.587 82.5934 165.498 82.6855C165.409 82.7776 165.287 82.8315 165.159 82.8358C165.031 82.8315 164.909 82.7776 164.82 82.6855C164.731 82.5934 164.681 82.4703 164.681 82.3422C164.681 82.2141 164.731 82.0911 164.82 81.999C164.909 81.9069 165.031 81.853 165.159 81.8486ZM167.179 102.81C167.051 102.806 166.929 102.752 166.84 102.66C166.75 102.568 166.701 102.445 166.701 102.317C166.701 102.189 166.75 102.066 166.84 101.973C166.929 101.881 167.051 101.827 167.179 101.823C167.307 101.827 167.429 101.881 167.518 101.973C167.608 102.066 167.658 102.189 167.658 102.317C167.658 102.445 167.608 102.568 167.518 102.66C167.429 102.752 167.307 102.806 167.179 102.81Z" fill="#020202"/>
<path d="M175.2 103.087C174.744 103.16 174.277 103.14 173.828 103.027C173.377 102.926 172.937 102.781 172.514 102.595C171.671 102.216 170.87 101.748 170.127 101.198C169.381 100.655 168.669 100.066 167.996 99.4337C167.321 98.8058 166.675 98.1458 166.052 97.4665L166.245 97.4987L161.755 100.052C161.011 100.511 160.22 100.89 159.396 101.183C158.56 101.458 157.696 101.638 156.82 101.718C155.086 101.85 153.345 101.829 151.615 101.655C149.891 101.508 148.178 101.296 146.468 101.068L146.297 101.045L146.24 100.898C146.004 100.239 145.904 99.5393 145.947 98.841C145.991 98.1427 146.177 97.4607 146.494 96.8365C147.125 95.6256 148.041 94.5863 149.165 93.8085C149.705 93.4123 150.273 93.0558 150.865 92.7419C151.157 92.5788 151.457 92.4344 151.757 92.2895C151.918 92.204 152.087 92.1352 152.262 92.0841C152.444 92.0329 152.632 92.0031 152.82 91.9955C153.006 91.9879 153.193 91.9988 153.376 92.0283L153.87 92.1226L154.834 92.3075L156.763 92.6632C158.047 92.8848 159.349 93.1266 160.616 93.2362C161.253 93.2502 161.89 93.2133 162.521 93.1258C163.164 93.0484 163.81 92.9507 164.457 92.8513C165.104 92.7522 165.752 92.6475 166.41 92.5647C166.742 92.5271 167.069 92.4846 167.419 92.477C167.602 92.4688 167.787 92.4799 167.968 92.5102C168.143 92.5447 168.315 92.5921 168.483 92.6521C169.111 92.8867 169.721 93.1686 170.307 93.4952C170.89 93.8107 171.458 94.1413 172.021 94.4952L171.734 94.4896C171.932 94.3795 172.122 94.285 172.319 94.1901C172.515 94.0967 172.712 94.0073 172.911 93.9219L172.964 93.8989L173.018 93.8994L173.022 93.8994L172.915 93.9215C173.934 93.4802 175.004 93.1648 176.1 92.9826C176.653 92.8943 177.212 92.858 177.772 92.8743C178.057 92.8806 178.342 92.9116 178.622 92.967C178.904 93.0303 179.178 93.1238 179.44 93.2457C180.434 93.7732 181.292 94.5242 181.945 95.4393C182.611 96.3184 183.177 97.2688 183.631 98.273L183.645 98.3034L183.645 98.3362C183.672 99.319 183.466 100.294 183.043 101.182C182.818 101.622 182.513 102.016 182.143 102.345C181.772 102.666 181.349 102.923 180.892 103.104C179.981 103.441 179.011 103.588 178.04 103.538C177.079 103.502 176.125 103.35 175.2 103.087ZM175.2 103.087C176.13 103.317 177.084 103.435 178.042 103.438C178.993 103.463 179.94 103.294 180.825 102.942C181.256 102.759 181.654 102.503 182 102.187C182.34 101.869 182.618 101.49 182.819 101.07C183.2 100.212 183.371 99.2769 183.32 98.3402L183.334 98.4033C182.873 97.4339 182.307 96.5177 181.646 95.6713C181.019 94.8182 180.202 94.1216 179.259 93.6358C179.026 93.5315 178.782 93.4526 178.531 93.4002C178.276 93.3546 178.018 93.331 177.759 93.3296C177.229 93.3228 176.7 93.3656 176.178 93.4576C175.126 93.65 174.102 93.97 173.128 94.4103L173.079 94.432L173.021 94.4325L173.018 94.4325L173.126 94.41C172.935 94.4956 172.746 94.5849 172.559 94.678C172.373 94.7707 172.184 94.8694 172.012 94.9685L171.868 95.0511L171.724 94.9628C171.175 94.6251 170.61 94.2971 170.039 93.9932C169.479 93.6845 168.896 93.4182 168.296 93.1966C168.155 93.1467 168.01 93.1073 167.863 93.0786C167.721 93.0567 167.577 93.0496 167.434 93.0575C167.127 93.0651 166.803 93.1077 166.485 93.1458C165.843 93.2298 165.197 93.3376 164.55 93.4401C163.902 93.5432 163.252 93.6452 162.594 93.7277C161.927 93.8237 161.253 93.8651 160.579 93.8517C159.233 93.7419 157.952 93.5072 156.653 93.2909L154.714 92.944L153.747 92.7637L153.274 92.6756C153.134 92.6538 152.992 92.6462 152.85 92.6527C152.711 92.6588 152.574 92.6802 152.44 92.7167C152.3 92.7573 152.165 92.8123 152.037 92.8809C151.746 93.0194 151.455 93.1571 151.173 93.3124C150.606 93.6088 150.06 93.9462 149.542 94.3218C148.496 95.0333 147.64 95.9879 147.046 97.1033C146.772 97.6573 146.604 98.2571 146.549 98.8723C146.523 99.1781 146.529 99.4856 146.567 99.7901C146.601 100.086 146.672 100.377 146.777 100.655L146.549 100.485C148.252 100.722 149.956 100.941 151.664 101.095C153.361 101.28 155.07 101.324 156.775 101.227C157.616 101.164 158.447 101.005 159.252 100.754C160.056 100.481 160.828 100.125 161.557 99.6915L166.092 97.2283L166.204 97.1676L166.285 97.2605C166.886 97.9502 167.508 98.6211 168.162 99.2607C168.812 99.9038 169.502 100.506 170.228 101.063C170.95 101.625 171.729 102.109 172.553 102.508C172.966 102.706 173.396 102.865 173.839 102.981C174.281 103.108 174.744 103.144 175.2 103.087Z" fill="black"/>
<path d="M166.168 97.3629C166.654 97.1213 167.155 96.9109 167.669 96.733C168.172 96.5469 168.68 96.3858 169.181 96.2235C169.432 96.1442 169.681 96.0623 169.921 95.9767C170.152 95.8996 170.372 95.7934 170.576 95.6606C171.009 95.3825 171.429 95.0583 171.872 94.7285C171.637 95.2337 171.304 95.6879 170.893 96.0655C170.681 96.2708 170.433 96.4361 170.161 96.5537C169.908 96.6675 169.649 96.7664 169.384 96.85C168.866 97.0152 168.336 97.1417 167.799 97.2283C167.261 97.3251 166.715 97.3701 166.168 97.3629Z" fill="#020202"/>
<path d="M159.065 77.2262C159.062 77.2232 159.058 77.2211 159.054 77.2204C159.039 77.2059 159.022 77.1884 159.004 77.1738C159.027 77.1881 159.048 77.2058 159.065 77.2262ZM142.75 98.1559C142.718 98.2171 142.685 98.2783 142.653 98.3394C142.674 98.2608 142.697 98.1821 142.723 98.1035C142.732 98.121 142.741 98.1385 142.75 98.1559ZM173.02 94.1663C173.031 94.1605 173.043 94.1546 173.058 94.1488L173.049 94.175L173.04 94.1983H173.034L172.941 94.4138L172.985 94.1808C172.993 94.175 173.005 94.1721 173.017 94.1663L173.02 94.1663ZM172.964 81.0179L172.941 80.6801C172.982 80.8199 173.022 80.9567 173.06 81.0965C173.043 81.079 173.025 81.0674 173.008 81.0528L172.964 81.0179Z" fill="white"/>
<path d="M149.328 107.713L147.674 124.136L145.989 140.554L144.325 156.974L143.51 165.184L143.139 169.291L142.972 171.343L142.905 172.367C142.897 172.537 142.888 172.708 142.885 172.875C142.884 172.957 142.879 173.045 142.883 173.122L142.886 173.239C142.889 173.26 142.891 173.281 142.89 173.303L142.684 173.138C144.044 173.296 145.422 173.399 146.794 173.434C147.481 173.448 148.168 173.454 148.851 173.417C149.531 173.389 150.209 173.313 150.879 173.19L150.725 173.342L156.833 146.964C157.85 142.567 158.892 138.176 159.959 133.791C160.496 131.598 161.039 129.408 161.636 127.228C161.786 126.683 161.94 126.139 162.106 125.597C162.19 125.326 162.276 125.055 162.37 124.785C162.418 124.65 162.467 124.516 162.523 124.38C162.551 124.312 162.581 124.244 162.616 124.175C162.655 124.087 162.71 124.007 162.779 123.939C162.799 123.92 162.823 123.905 162.849 123.895C162.89 123.875 162.935 123.869 162.979 123.879C163.022 123.885 163.062 123.904 163.094 123.933C163.111 123.948 163.126 123.964 163.14 123.982C163.168 124.022 163.193 124.064 163.214 124.108C163.247 124.181 163.275 124.252 163.299 124.321C163.349 124.46 163.392 124.597 163.433 124.734C163.514 125.009 163.588 125.283 163.659 125.557C163.8 126.106 163.931 126.656 164.059 127.206C165.065 131.612 165.948 136.037 166.844 140.46C167.739 144.884 168.602 149.313 169.47 153.741C170.341 158.168 171.205 162.597 172.127 167.01C172.36 168.112 172.595 169.215 172.853 170.305C172.918 170.577 172.984 170.849 173.056 171.114C173.092 171.246 173.13 171.38 173.17 171.495C173.18 171.523 173.191 171.551 173.199 171.571L173.207 171.588C173.209 171.593 173.209 171.592 173.196 171.573C173.161 171.54 173.233 171.592 173.103 171.495C172.939 171.431 172.923 171.466 172.957 171.456L172.983 171.456L173.033 171.455L173.137 171.454C173.695 171.443 174.257 171.418 174.817 171.385C175.934 171.324 177.048 171.207 178.154 171.035C178.698 170.951 179.236 170.832 179.766 170.681C180.021 170.607 180.27 170.515 180.511 170.405C180.723 170.315 180.914 170.182 181.072 170.015L181 170.24C180.743 164.96 180.418 159.679 180.07 154.403C179.725 149.125 179.326 143.852 178.87 138.583C178.396 133.316 177.891 128.051 177.187 122.811C176.829 120.192 176.44 117.577 175.925 114.986C175.664 113.691 175.372 112.401 174.995 111.137C174.81 110.504 174.585 109.884 174.322 109.28C174.191 108.979 174.034 108.689 173.854 108.414C173.686 108.135 173.45 107.903 173.168 107.739L173.195 107.68C173.493 107.843 173.743 108.08 173.924 108.367C174.112 108.642 174.276 108.933 174.415 109.237C174.691 109.841 174.929 110.462 175.128 111.096C175.531 112.36 175.848 113.648 176.133 114.942C176.699 117.531 177.138 120.144 177.524 122.764C178.288 128.004 178.887 133.266 179.392 138.535C179.898 143.804 180.34 149.078 180.716 154.358C181.093 159.638 181.416 164.921 181.683 170.208L181.69 170.339L181.612 170.434C181.39 170.687 181.115 170.888 180.806 171.022C180.534 171.148 180.252 171.253 179.964 171.337C179.406 171.498 178.839 171.624 178.266 171.714C177.138 171.892 176 172.013 174.859 172.077C174.29 172.112 173.723 172.138 173.15 172.15L173.042 172.152L172.987 172.153L172.959 172.153C172.975 172.145 172.942 172.179 172.763 172.103C172.615 172 172.682 172.032 172.635 171.987C172.62 171.968 172.607 171.948 172.596 171.927C172.582 171.901 172.57 171.875 172.558 171.849C172.539 171.804 172.525 171.765 172.511 171.727C172.458 171.576 172.42 171.439 172.381 171.298C172.305 171.019 172.237 170.743 172.171 170.466C171.912 169.361 171.683 168.255 171.454 167.149C170.55 162.724 169.705 158.291 168.853 153.86L166.314 140.564C165.46 136.135 164.618 131.7 163.657 127.297C163.535 126.748 163.409 126.199 163.274 125.654C163.207 125.382 163.137 125.11 163.06 124.843C163.022 124.71 162.981 124.577 162.937 124.45C162.915 124.386 162.891 124.325 162.867 124.27C162.855 124.245 162.842 124.22 162.836 124.212C162.833 124.207 162.842 124.221 162.847 124.223C162.867 124.237 162.891 124.248 162.915 124.253C162.943 124.257 162.97 124.254 162.996 124.245C163.017 124.236 163.027 124.225 163.023 124.23C162.996 124.266 162.973 124.305 162.954 124.346C162.925 124.401 162.897 124.463 162.871 124.525C162.818 124.65 162.769 124.779 162.721 124.91C162.627 125.172 162.539 125.438 162.454 125.705C162.285 126.24 162.126 126.78 161.971 127.321C161.354 129.488 160.789 131.673 160.231 133.858C159.113 138.229 158.078 142.621 157.037 147.011C154.978 155.797 153.004 164.603 151.115 173.428L151.088 173.554L150.961 173.581C150.273 173.716 149.575 173.803 148.874 173.84C148.178 173.886 147.481 173.889 146.786 173.883C145.394 173.864 144.011 173.777 142.624 173.633L142.451 173.615L142.418 173.468C142.403 173.405 142.392 173.341 142.385 173.276L142.379 173.136C142.374 173.04 142.379 172.957 142.378 172.867C142.38 172.69 142.387 172.518 142.393 172.344L142.448 171.308C142.491 170.62 142.54 169.932 142.595 169.246L142.951 165.133L143.735 156.915C144.296 151.441 144.876 145.97 145.475 140.5C146.059 135.029 146.694 129.564 147.316 124.097C147.934 118.63 148.609 113.169 149.262 107.706L149.328 107.713Z" fill="#020202"/>
<path d="M148.988 110.473C150.078 110.571 151.164 110.689 152.253 110.77C153.34 110.87 154.428 110.958 155.514 111.044C156.602 111.127 157.688 111.214 158.776 111.277L160.407 111.38L162.038 111.46C162.582 111.49 163.126 111.503 163.67 111.525L164.486 111.555L165.302 111.567C165.846 111.576 166.39 111.6 166.934 111.595C167.478 111.59 168.022 111.59 168.566 111.593C170.742 111.552 172.917 111.465 175.093 111.225C172.952 111.701 170.774 111.996 168.583 112.106C166.392 112.231 164.198 112.202 162.008 112.117C159.819 112.011 157.637 111.823 155.463 111.554C153.29 111.288 151.127 110.939 148.988 110.473ZM161.455 122.612C161.891 123.117 162.44 123.514 163.056 123.771C163.658 124.029 164.29 124.209 164.938 124.307C165.596 124.412 166.26 124.475 166.926 124.495L168.982 124.544C168.325 124.785 167.64 124.941 166.943 125.009C166.239 125.085 165.528 125.067 164.828 124.956C164.475 124.894 164.127 124.805 163.787 124.69C163.447 124.569 163.12 124.412 162.813 124.221C162.182 123.864 161.7 123.293 161.455 122.612Z" fill="#020202"/>
<path d="M162.562 108.292C162.82 110.28 162.998 112.273 163.136 114.27C163.275 116.267 163.364 118.266 163.392 120.273C163.39 121.278 163.395 122.277 163.3 123.302C163.284 123.431 163.272 123.558 163.246 123.694C163.235 123.763 163.221 123.832 163.203 123.899L163.173 124.009L163.157 124.063C163.158 124.063 163.158 124.062 163.159 124.061C163.159 124.06 163.159 124.059 163.158 124.058C163.166 124.107 163.187 124.154 163.218 124.192C163.278 124.279 163.346 124.36 163.421 124.433C163.776 124.759 164.158 125.054 164.563 125.314C166.223 126.389 168.007 127.314 169.775 128.259C168.829 127.921 167.903 127.532 166.984 127.123C166.061 126.714 165.161 126.255 164.288 125.748C163.835 125.493 163.409 125.191 163.019 124.847C162.912 124.749 162.815 124.64 162.73 124.523C162.604 124.364 162.545 124.163 162.564 123.961L162.613 123.756C162.625 123.703 162.634 123.649 162.64 123.594C162.659 123.484 162.667 123.361 162.678 123.242C162.75 122.274 162.742 121.271 162.732 120.278C162.718 118.286 162.657 116.29 162.623 114.293C162.582 112.295 162.548 110.296 162.562 108.292ZM155.442 73.5652C155.497 72.7107 155.498 71.8537 155.445 70.9991C155.436 70.9025 155.418 70.807 155.392 70.7136C155.381 70.6793 155.359 70.6323 155.36 70.6438C155.358 70.6391 155.37 70.6594 155.379 70.6609C155.396 70.6677 155.36 70.6507 155.353 70.6467L155.271 70.6037C154.682 70.257 154.169 69.7957 153.762 69.2472C153.479 68.8646 153.291 68.4203 153.214 67.9509C153.146 67.4661 153.225 66.972 153.441 66.5325C153.535 66.3194 153.65 66.1161 153.784 65.9259C153.857 65.8231 153.939 65.7268 154.028 65.6381C154.135 65.5262 154.267 65.4415 154.413 65.3908C154.508 65.3614 154.609 65.3546 154.707 65.3709C154.805 65.3872 154.899 65.4261 154.979 65.4846C155.098 65.5767 155.196 65.6934 155.265 65.8267C155.379 66.0453 155.46 66.2793 155.505 66.5212L154.966 66.6141C154.777 64.8161 154.927 62.9989 155.406 61.2555C155.638 60.3671 156.14 59.5723 156.844 58.9804C156.936 58.9109 157.037 58.8524 157.134 58.788L157.444 58.628C157.658 58.5489 157.869 58.4628 158.086 58.3896C158.308 58.3373 158.528 58.2643 158.755 58.2295C158.982 58.189 159.211 58.1634 159.442 58.1527C160.382 58.1112 161.318 58.3171 162.154 58.7499C162.989 59.1827 163.697 59.8271 164.204 60.6185C164.462 61.0167 164.662 61.4496 164.797 61.9041C165.22 63.2417 165.288 64.6655 164.996 66.0373L164.725 65.6168C164.972 65.6736 165.206 65.7758 165.416 65.9182C165.63 66.0593 165.81 66.2464 165.943 66.4658C166.179 66.9035 166.242 67.414 166.118 67.8956C166.011 68.3183 165.861 68.7288 165.669 69.1205C165.576 69.3213 165.469 69.5152 165.349 69.7004C165.279 69.807 165.195 69.9039 165.1 69.9889C165.032 70.0498 164.951 70.0943 164.863 70.1188C164.788 70.1379 164.71 70.134 164.638 70.1075C164.566 70.081 164.504 70.0332 164.46 69.9705L164.899 69.8889C164.807 70.2462 164.73 70.6216 164.664 70.9929C164.598 71.3657 164.544 71.7408 164.503 72.118C164.459 72.4948 164.428 72.8731 164.412 73.2528C164.396 73.6327 164.403 74.0129 164.42 74.3948C164.42 74.3992 164.42 74.4035 164.418 74.4076C164.417 74.4117 164.415 74.4155 164.412 74.4188C164.409 74.4221 164.406 74.4247 164.402 74.4267C164.398 74.4286 164.394 74.4298 164.389 74.4301C164.381 74.4305 164.373 74.428 164.367 74.423C164.361 74.4181 164.356 74.411 164.354 74.4031C164.284 74.0238 164.236 73.6405 164.213 73.2554C164.192 72.8702 164.176 72.4827 164.191 72.0963C164.204 71.7099 164.229 71.324 164.267 70.9384C164.307 70.5518 164.355 70.1718 164.425 69.7809L164.864 69.6993C164.852 69.6775 164.834 69.6598 164.812 69.6487C164.79 69.6376 164.766 69.6336 164.741 69.6374C164.729 69.636 164.746 69.6337 164.767 69.6087C164.822 69.5506 164.869 69.4864 164.909 69.4173C165.005 69.2498 165.088 69.0757 165.159 68.8963C165.311 68.5355 165.43 68.162 165.516 67.78C165.592 67.4508 165.543 67.1048 165.378 66.8097C165.293 66.6757 165.178 66.5627 165.043 66.4792C164.907 66.3917 164.757 66.3283 164.599 66.2915C164.509 66.2732 164.43 66.2202 164.378 66.1441C164.327 66.0679 164.308 65.9747 164.326 65.8846L164.328 65.8709C164.482 65.038 164.508 64.1866 164.404 63.346C164.354 62.9234 164.271 62.5054 164.155 62.0959C164.048 61.6944 163.883 61.3104 163.665 60.9559C163.445 60.6001 163.182 60.2726 162.882 59.9809C162.576 59.6911 162.237 59.4382 161.872 59.2275C161.138 58.7932 160.302 58.5566 159.449 58.541C159.234 58.5354 159.019 58.5453 158.806 58.5706C158.591 58.59 158.382 58.6472 158.168 58.6833C157.959 58.7405 157.753 58.8105 157.545 58.8734L157.254 59.0027C157.164 59.059 157.069 59.109 156.982 59.1701C156.293 59.7093 155.809 60.4659 155.608 61.3159C155.38 62.1651 155.274 63.0424 155.294 63.9213C155.297 64.7969 155.369 65.6709 155.508 66.5355C155.519 66.6049 155.503 66.676 155.463 66.7339C155.423 66.7918 155.362 66.8321 155.293 66.8462C155.224 66.8604 155.152 66.8474 155.092 66.81C155.032 66.7725 154.99 66.7135 154.972 66.6453L154.968 66.6284C154.926 66.4471 154.858 66.2726 154.767 66.11C154.735 66.0519 154.692 66.0008 154.639 65.9596C154.603 65.939 154.62 65.9476 154.59 65.9496C154.458 66.027 154.348 66.1362 154.269 66.2671C154.155 66.4304 154.055 66.6031 153.97 66.7832C153.804 67.1311 153.736 67.5177 153.774 67.9011C153.812 68.2846 153.954 68.6504 154.185 68.9592C154.414 69.2997 154.685 69.6091 154.994 69.8798C155.147 70.0169 155.31 70.1435 155.481 70.2586L155.54 70.2959L155.583 70.3235C155.613 70.3426 155.64 70.3665 155.662 70.3943C155.71 70.4611 155.743 70.5378 155.759 70.619C155.782 70.7358 155.795 70.8546 155.796 70.9737C155.8 71.4133 155.77 71.8526 155.708 72.2878C155.656 72.7191 155.591 73.1474 155.507 73.5732C155.505 73.5818 155.5 73.5893 155.493 73.5942C155.486 73.5991 155.477 73.6009 155.468 73.5992C155.461 73.5976 155.454 73.5932 155.449 73.587C155.444 73.5808 155.441 73.5731 155.442 73.5652Z" fill="#020202"/>
<path d="M156.841 64.5595C156.951 64.3111 157.129 64.0986 157.354 63.946C157.579 63.7875 157.833 63.6749 158.101 63.615C158.368 63.5619 158.643 63.5551 158.912 63.5951C159.044 63.6162 159.175 63.6466 159.302 63.6862C159.427 63.7322 159.549 63.7863 159.666 63.8482C159.531 63.8563 159.403 63.8475 159.275 63.8456C159.147 63.8514 159.022 63.8435 158.897 63.8516C158.653 63.8604 158.41 63.8889 158.171 63.9367C157.686 64.0415 157.231 64.2544 156.841 64.5595ZM162.485 63.7153C162.607 63.5457 162.777 63.4164 162.973 63.3443C163.16 63.2655 163.356 63.2105 163.556 63.1807C163.954 63.117 164.361 63.1453 164.746 63.2634C164.559 63.3285 164.366 63.3779 164.17 63.4112C163.981 63.4499 163.792 63.4754 163.605 63.5061C163.418 63.5308 163.233 63.5619 163.047 63.5894C162.856 63.6152 162.669 63.6574 162.485 63.7153ZM158.326 66.1796C158.454 66.1752 158.576 66.1212 158.665 66.0291C158.754 65.9369 158.804 65.8138 158.804 65.6857C158.804 65.5576 158.754 65.4345 158.665 65.3423C158.576 65.2502 158.454 65.1962 158.326 65.1917C158.198 65.1962 158.076 65.2502 157.987 65.3423C157.898 65.4345 157.848 65.5576 157.848 65.6857C157.848 65.8138 157.898 65.9369 157.987 66.0291C158.076 66.1212 158.198 66.1752 158.326 66.1796ZM163.555 65.7647C163.683 65.7603 163.805 65.7063 163.894 65.6142C163.983 65.522 164.033 65.3989 164.033 65.2708C164.033 65.1426 163.983 65.0195 163.894 64.9274C163.805 64.8352 163.683 64.7812 163.555 64.7768C163.427 64.7812 163.305 64.8352 163.216 64.9274C163.126 65.0195 163.077 65.1426 163.077 65.2708C163.077 65.3989 163.126 65.522 163.216 65.6142C163.305 65.7063 163.427 65.7603 163.555 65.7647ZM155.474 70.4869C155.841 70.8945 156.225 71.2801 156.613 71.6542C157 72.0262 157.413 72.3709 157.848 72.6856C158.274 73.0002 158.744 73.2517 159.243 73.4324C159.748 73.613 160.292 73.6601 160.822 73.5691C160.299 73.789 159.718 73.8278 159.171 73.6791C158.625 73.5338 158.111 73.2876 157.656 72.9535C156.761 72.2958 156.017 71.4548 155.474 70.4869ZM158.326 69.2421C158.74 69.3694 159.155 69.4648 159.568 69.5498C159.978 69.6311 160.394 69.6825 160.813 69.7035C161.227 69.7223 161.643 69.6958 162.052 69.6246C162.467 69.5434 162.872 69.4151 163.258 69.2421C162.925 69.5315 162.535 69.7469 162.113 69.8742C161.686 69.9982 161.242 70.0516 160.799 70.0323C159.919 69.9916 159.066 69.719 158.326 69.2421ZM162.485 66.369C162.738 66.7048 162.881 67.1098 162.895 67.5293C162.899 67.7648 162.815 67.9933 162.66 68.1705C162.497 68.3381 162.286 68.4508 162.056 68.4931C161.639 68.5597 161.212 68.5361 160.805 68.4236C160.411 68.3252 160.029 68.1822 159.666 67.9974C160.068 68.0557 160.462 68.1212 160.851 68.1708C161.227 68.2289 161.61 68.2291 161.986 68.1714C162.155 68.154 162.312 68.0787 162.431 67.9583C162.55 67.8379 162.624 67.68 162.639 67.5116C162.664 67.1243 162.612 66.736 162.485 66.369ZM143.269 173.517C143.269 173.517 141.065 179.847 142.897 180.7C144.728 181.552 157.731 183.014 157.609 181.857C157.487 180.7 151.26 178.388 150.589 177.594C149.917 176.8 149.889 173.641 149.889 173.641M173.955 171.811C173.955 171.811 172.668 178.388 174.601 178.975C176.535 179.561 189.615 179.181 189.331 178.053C189.046 176.924 182.555 175.511 181.778 174.819C181.001 174.127 180.528 171.003 180.528 171.003M162.771 73.3321C163.189 72.8125 163.561 72.2568 163.88 71.6715C164.039 71.3827 164.181 71.085 164.305 70.7799C164.438 70.4752 164.538 70.1584 164.661 69.8349C164.677 70.1805 164.639 70.5264 164.55 70.8607C164.465 71.1979 164.337 71.5229 164.17 71.8282C164.005 72.1341 163.804 72.4189 163.57 72.6761C163.342 72.9373 163.072 73.1589 162.771 73.3321ZM162.248 61.592H159.336C159.315 61.5921 159.293 61.5879 159.273 61.5797C159.253 61.5715 159.235 61.5593 159.219 61.544C159.204 61.5287 159.191 61.5106 159.183 61.4905C159.175 61.4705 159.17 61.449 159.17 61.4274C159.17 61.4057 159.175 61.3842 159.183 61.3642C159.191 61.3442 159.204 61.326 159.219 61.3107C159.235 61.2954 159.253 61.2833 159.273 61.275C159.293 61.2668 159.315 61.2626 159.336 61.2627H162.248C162.269 61.2626 162.291 61.2668 162.311 61.275C162.331 61.2833 162.349 61.2954 162.365 61.3107C162.38 61.326 162.392 61.3442 162.401 61.3642C162.409 61.3842 162.413 61.4057 162.413 61.4274C162.413 61.449 162.409 61.4705 162.401 61.4905C162.392 61.5106 162.38 61.5287 162.365 61.544C162.349 61.5593 162.331 61.5715 162.311 61.5797C162.291 61.5879 162.269 61.5921 162.248 61.592ZM162.248 62.4421H159.336C159.293 62.4421 159.251 62.4247 159.22 62.3938C159.189 62.363 159.171 62.3211 159.171 62.2774C159.171 62.2337 159.189 62.1918 159.22 62.161C159.251 62.1301 159.293 62.1127 159.336 62.1127H162.248C162.291 62.1127 162.333 62.1301 162.364 62.161C162.395 62.1918 162.413 62.2337 162.413 62.2774C162.413 62.3211 162.395 62.363 162.364 62.3938C162.333 62.4247 162.291 62.4421 162.248 62.4421Z" fill="#020202"/>
<path d="M223.932 63.2392H192.944C192.944 63.3586 192.946 63.4751 192.952 63.5945C192.972 64.0239 193.035 64.4502 193.139 64.8672C193.28 65.4959 193.6 66.071 194.059 66.5242C194.531 66.9454 195.139 67.1849 195.772 67.1998C196.409 67.2085 197.086 67.1823 197.743 67.1736C200.385 67.127 203.027 67.1212 205.672 67.1153C208.314 67.1212 210.956 67.127 213.6 67.1736L215.583 67.2085L216.076 67.2173C216.231 67.22 216.386 67.2053 216.537 67.1736C216.849 67.1174 217.149 67.0091 217.425 66.8533C217.993 66.5466 218.448 66.0671 218.724 65.4845C218.998 64.8893 219.171 64.2525 219.235 63.6004C219.226 64.2659 219.096 64.9243 218.849 65.5428C218.654 66.0018 218.362 66.4138 217.994 66.7513C217.991 66.7542 217.991 66.7542 217.988 66.7542C217.854 66.8751 217.708 66.9824 217.553 67.0746C217.257 67.2528 216.935 67.3826 216.598 67.459C216.427 67.4976 216.252 67.52 216.076 67.526L215.583 67.5347L213.6 67.5697C210.956 67.6162 208.314 67.6221 205.672 67.6279C203.027 67.6221 200.385 67.6162 197.743 67.5697C197.077 67.5522 196.432 67.558 195.749 67.5231C195.048 67.4819 194.386 67.1904 193.884 66.7018C193.422 66.1976 193.118 65.5702 193.008 64.8963C192.901 64.3507 192.872 63.793 192.92 63.2393H188.252C187.842 63.2395 187.449 63.4021 187.158 63.6915C186.868 63.981 186.705 64.3734 186.705 64.7827V116.73C186.705 117.139 186.868 117.532 187.158 117.822C187.448 118.112 187.842 118.275 188.252 118.276H223.932C224.135 118.276 224.336 118.236 224.524 118.158C224.712 118.08 224.883 117.966 225.026 117.823C225.17 117.679 225.284 117.509 225.362 117.321C225.439 117.134 225.479 116.933 225.479 116.73V64.7827C225.479 64.58 225.439 64.3792 225.361 64.1919C225.284 64.0046 225.17 63.8344 225.026 63.691C224.882 63.5477 224.712 63.434 224.524 63.3565C224.336 63.2789 224.135 63.2391 223.932 63.2392ZM190.661 70.4032H200.601V81.2743H190.661V70.4032ZM192.798 112.676C190.305 112.676 190.307 108.815 192.798 108.815C195.294 108.815 195.288 112.676 192.798 112.676ZM192.798 106.479C190.305 106.479 190.307 102.62 192.798 102.62C195.294 102.62 195.288 106.479 192.798 106.479ZM192.798 100.285C190.305 100.285 190.307 96.4233 192.798 96.4233C195.294 96.4233 195.288 100.285 192.798 100.285ZM192.798 94.0878C190.305 94.0878 190.307 90.2262 192.798 90.2262C195.294 90.2263 195.288 94.0878 192.798 94.0878ZM192.798 87.8907C190.305 87.8907 190.307 84.0292 192.798 84.0292C195.294 84.0292 195.288 87.8907 192.798 87.8907ZM219.795 111.182H197.369V110.308H219.795V111.182ZM219.795 104.988H197.369V104.114H219.795V104.988ZM219.795 98.7909H197.369V97.9173H219.795V98.7909ZM219.795 92.5938H197.369V91.7202H219.795V92.5938ZM219.795 86.3967H197.369V85.5231H219.795V86.3967ZM219.795 80.1997H205.161V79.326H219.795V80.1997ZM219.795 74.0055H205.161V73.1319H219.795V74.0055ZM211.758 60.1291C210.836 59.9828 209.906 59.8827 208.973 59.8291C208.959 59.8291 208.947 59.8262 208.932 59.8262C207.987 59.7621 207.038 59.7418 206.092 59.7388C205.164 59.7476 204.232 59.768 203.304 59.8291C203.287 59.8291 203.272 59.832 203.254 59.832C202.309 59.8903 201.366 59.9776 200.426 60.1291C200.426 60.0271 200.429 59.9281 200.434 59.8291C200.511 58.384 201.141 57.0233 202.193 56.0275C203.246 55.0317 204.641 54.4766 206.092 54.4766C207.543 54.4766 208.938 55.0317 209.991 56.0275C211.043 57.0233 211.673 58.384 211.75 59.8291C211.755 59.9281 211.758 60.0271 211.758 60.1291Z" fill="black"/>
<path d="M211.76 60.1279C211.759 61.6264 211.162 63.063 210.099 64.1222C209.037 65.1813 207.596 65.7763 206.094 65.7763C204.592 65.7763 203.151 65.1813 202.089 64.1222C201.026 63.063 200.429 61.6264 200.428 60.1279C201.376 60.1891 202.322 60.2153 203.265 60.2299C204.211 60.2503 205.151 60.2503 206.094 60.2532C207.037 60.2444 207.98 60.2444 208.923 60.224C209.869 60.2066 210.812 60.1891 211.76 60.1279Z" fill="black"/>
<path d="M219.237 62.915V63.5994C219.174 64.2515 219.001 64.8883 218.726 65.4835C218.451 66.0661 217.995 66.5456 217.427 66.8523C217.152 67.0081 216.852 67.1164 216.54 67.1726C216.388 67.2043 216.234 67.219 216.079 67.2163L215.585 67.2075L213.603 67.1726C210.958 67.126 208.316 67.1202 205.674 67.1143C203.03 67.1202 200.388 67.126 197.746 67.1726C197.089 67.1813 196.412 67.2075 195.775 67.1988C195.142 67.1839 194.534 66.9444 194.062 66.5232C193.602 66.07 193.283 65.4949 193.142 64.8662C193.037 64.4492 192.975 64.0229 192.955 63.5935V62.915C192.957 62.097 193.284 61.3133 193.864 60.7349C194.444 60.1565 195.23 59.8305 196.05 59.8281H203.307C203.289 59.8281 203.275 59.831 203.257 59.831C202.311 59.8893 201.368 59.9766 200.428 60.1281C201.377 60.1892 202.323 60.2154 203.266 60.23C204.212 60.2504 205.152 60.2504 206.095 60.2533C207.038 60.2446 207.981 60.2446 208.924 60.2242C209.869 60.2067 210.812 60.1892 211.761 60.1281C210.838 59.9818 209.909 59.8817 208.976 59.8281H216.14C216.96 59.8299 217.747 60.1556 218.327 60.7341C218.908 61.3125 219.235 62.0966 219.237 62.915Z" fill="black"/>
<path d="M218.85 65.542C219.097 64.9235 219.228 64.2651 219.236 63.5996V64.2811C219.236 64.7605 219.123 65.2334 218.908 65.662C218.693 66.0907 218.38 66.4634 217.995 66.7506C218.363 66.4131 218.655 66.001 218.85 65.542Z" fill="black"/>
<path d="M192.953 62.916C192.947 63.0238 192.944 63.1344 192.944 63.2393H192.921C192.927 63.1315 192.938 63.0238 192.953 62.916Z" fill="white"/>
<path d="M190.912 98.6155C191.147 98.6923 191.377 98.7851 191.599 98.893C191.821 98.9958 192.036 99.1097 192.246 99.23L191.964 99.2538C192.138 99.0611 192.323 98.8806 192.509 98.6996C192.7 98.525 192.886 98.3454 193.089 98.1831C193.487 97.841 193.92 97.5409 194.38 97.2874C194.1 97.7314 193.776 98.1454 193.411 98.5228C193.237 98.7156 193.047 98.8913 192.861 99.0719C192.67 99.246 192.479 99.4207 192.276 99.5831L192.123 99.7058L191.994 99.607C191.802 99.4596 191.614 99.3059 191.433 99.141C191.248 98.9778 191.074 98.8022 190.912 98.6155ZM190.912 92.4191C191.147 92.4959 191.377 92.5887 191.599 92.6966C191.821 92.7993 192.036 92.9133 192.246 93.0336L191.964 93.0574C192.138 92.8647 192.323 92.6842 192.509 92.5032C192.7 92.3286 192.886 92.149 193.089 91.9867C193.487 91.6446 193.92 91.3445 194.38 91.091C194.1 91.535 193.776 91.949 193.411 92.3265C193.237 92.5193 193.047 92.6949 192.861 92.8755C192.67 93.0496 192.479 93.2243 192.276 93.3867L192.123 93.5094L191.994 93.4106C191.802 93.2632 191.614 93.1095 191.433 92.9446C191.248 92.7814 191.074 92.6058 190.912 92.4191ZM190.912 111.008C191.147 111.085 191.377 111.178 191.599 111.286C191.821 111.389 192.036 111.502 192.246 111.623L191.964 111.647C192.138 111.454 192.323 111.273 192.509 111.092C192.7 110.918 192.886 110.738 193.089 110.576C193.487 110.234 193.92 109.934 194.38 109.68C194.1 110.124 193.776 110.538 193.411 110.916C193.237 111.108 193.047 111.284 192.861 111.465C192.67 111.639 192.479 111.813 192.276 111.976L192.123 112.099L191.994 112C191.802 111.852 191.614 111.699 191.433 111.534C191.248 111.371 191.074 111.195 190.912 111.008ZM190.912 104.812C191.147 104.889 191.377 104.981 191.599 105.089C191.821 105.192 192.036 105.306 192.246 105.426L191.964 105.45C192.138 105.257 192.323 105.077 192.509 104.896C192.7 104.721 192.886 104.542 193.089 104.379C193.487 104.037 193.92 103.737 194.38 103.484C194.1 103.928 193.776 104.342 193.411 104.719C193.237 104.912 193.047 105.088 192.861 105.268C192.67 105.442 192.479 105.617 192.276 105.78L192.123 105.902L191.994 105.803C191.802 105.656 191.614 105.502 191.433 105.337C191.248 105.174 191.074 104.999 190.912 104.812ZM190.912 86.1874C191.147 86.2643 191.377 86.357 191.599 86.465C191.821 86.5677 192.036 86.6816 192.246 86.8019L191.964 86.8258C192.138 86.633 192.323 86.4525 192.509 86.2715C192.7 86.0969 192.886 85.9174 193.089 85.755C193.487 85.4129 193.92 85.1128 194.38 84.8594C194.1 85.3034 193.776 85.7174 193.411 86.0948C193.237 86.2876 193.047 86.4632 192.861 86.6438C192.67 86.818 192.479 86.9926 192.276 87.1551L192.123 87.2778L191.994 87.1789C191.802 87.0316 191.614 86.8778 191.433 86.7129C191.248 86.5497 191.074 86.3742 190.912 86.1874ZM96.6898 98.9848C96.9567 101.757 97.0963 104.53 97.1912 107.303C97.2856 110.075 97.3334 112.848 97.3346 115.62C97.338 118.393 97.2909 121.165 97.1931 123.938C97.0986 126.711 96.9583 129.483 96.6898 132.256C96.4213 129.483 96.2809 126.711 96.1864 123.938C96.0929 121.165 96.0457 118.393 96.0449 115.62C96.0439 112.848 96.0917 110.075 96.1883 107.303C96.2832 104.53 96.4229 101.757 96.6898 98.9848Z" fill="black"/>
<path d="M143.69 127.945C139.426 128.211 135.162 128.35 130.897 128.445C128.765 128.504 126.633 128.517 124.501 128.552L118.104 128.588L111.708 128.554C109.576 128.518 107.444 128.507 105.312 128.447C101.047 128.353 96.7829 128.213 92.5186 127.945C96.7829 127.677 101.047 127.537 105.312 127.443C107.444 127.383 109.576 127.371 111.708 127.335L118.104 127.302L124.501 127.337C126.633 127.372 128.765 127.385 130.897 127.445C135.162 127.539 139.426 127.679 143.69 127.945ZM96.6372 126.909C97.225 125.922 97.8387 124.953 98.4551 123.986C99.0769 123.023 99.6986 122.06 100.338 121.11C100.97 120.154 101.615 119.208 102.264 118.264C102.905 117.315 103.571 116.383 104.226 115.444L104.63 114.864L105.118 115.398C105.658 115.988 106.185 116.59 106.712 117.192C107.245 117.788 107.753 118.407 108.273 119.015C108.783 119.631 109.296 120.246 109.799 120.869L111.315 122.732L110.773 122.767L112.051 121.042C112.466 120.459 112.889 119.882 113.297 119.295C114.116 118.123 114.919 116.939 115.705 115.744C116.494 114.552 117.25 113.337 118.017 112.129L120.3 108.494L120.655 107.928L121.1 108.472C121.749 109.268 122.392 110.069 123.028 110.875L124.932 113.296L126.834 115.719C127.469 116.525 128.102 117.334 128.721 118.152L127.614 118.169C128.605 116.76 129.626 115.373 130.644 113.983C131.665 112.596 132.697 111.216 133.739 109.843C134.779 108.469 135.831 107.103 136.893 105.745C137.424 105.066 137.961 104.391 138.502 103.719C139.043 103.047 139.58 102.372 140.134 101.709L140.239 101.784C139.792 102.522 139.328 103.249 138.868 103.979C138.41 104.71 137.945 105.436 137.474 106.158C136.535 107.604 135.584 109.041 134.622 110.471C133.662 111.901 132.691 113.325 131.71 114.741C130.726 116.155 129.745 117.57 128.734 118.965L128.189 119.716L127.626 118.982C127.002 118.168 126.39 117.344 125.781 116.517L123.949 114.041L122.12 111.563C121.512 110.736 120.911 109.904 120.315 109.067L121.115 109.046L118.573 112.505C117.731 113.662 116.879 114.812 116.06 115.985C115.238 117.155 114.432 118.336 113.642 119.529C113.247 120.124 112.865 120.729 112.476 121.329L111.342 123.152L111.116 123.514L110.8 123.186L109.132 121.457C108.574 120.883 108.025 120.3 107.474 119.719C106.934 119.129 106.38 118.551 105.852 117.95C105.318 117.354 104.784 116.759 104.263 116.152L105.155 116.106C104.476 117.028 103.809 117.959 103.117 118.872C102.432 119.789 101.744 120.705 101.042 121.611C100.348 122.523 99.6363 123.422 98.9247 124.321C98.2077 125.216 97.4878 126.109 96.7422 126.984L96.6372 126.909Z" fill="black"/>
</svg>
