<svg width="319" height="225" viewBox="0 0 319 225" fill="none" xmlns="http://www.w3.org/2000/svg">
<rect width="319" height="225" rx="8" fill="#F9F1EB"/>
<path d="M203.829 133.314C203.758 133.314 203.688 133.31 203.617 133.305C203.825 132.085 204.04 130.86 204.327 129.631C204.6 130.814 204.812 131.989 205.011 133.168C204.624 133.26 204.227 133.309 203.829 133.314ZM205.165 134.069C205.156 134.775 205.156 135.481 205.156 136.187C205.156 136.959 205.16 137.735 205.156 138.507V160.69C204.903 162.172 204.659 163.65 204.327 165.128C203.995 163.65 203.75 162.172 203.497 160.69V136.29C203.497 135.551 203.497 134.808 203.489 134.069C203.518 133.903 203.543 133.741 203.572 133.575C204.071 133.634 204.576 133.624 205.073 133.546C205.106 133.72 205.136 133.895 205.165 134.069ZM177.009 96.5542C177.009 96.5542 177.096 96.7078 177.266 96.9487L177.258 96.957L176.039 98.2647C175.541 98.6177 175.043 98.9705 174.508 99.2861C174.79 98.7338 175.109 98.2149 175.425 97.6919L176.35 96.7079C176.752 96.6248 177.009 96.5542 177.009 96.5542ZM184.298 88.832C184.012 89.3801 183.692 89.9032 183.377 90.4222L182.153 91.7299L181.929 91.9666C181.631 91.8668 181.326 91.7878 181.017 91.7299L181.548 91.1612L182.771 89.8533C183.269 89.5046 183.767 89.1559 184.298 88.832Z" fill="black"/>
<path d="M197.857 98.8899C197.921 98.7461 198.02 98.6205 198.145 98.5243C198.238 98.4539 198.348 98.4081 198.464 98.391C198.58 98.3751 198.697 98.3896 198.806 98.4329C198.951 98.4912 199.08 98.5856 199.179 98.7071H199.18L199.185 98.7148L199.18 98.7224L199.181 98.7225C199.117 98.8656 199.017 98.9901 198.892 99.0842C198.799 99.1543 198.689 99.1989 198.573 99.2137C198.456 99.2275 198.339 99.2118 198.23 99.1681C198.085 99.1077 197.956 99.0121 197.857 98.8899ZM180.958 101.137L171.881 102.259C168.855 102.631 165.828 102.993 162.8 103.345C156.743 104.041 150.691 104.779 144.629 105.435L126.45 107.453L108.261 109.375L108.259 109.375C108.209 109.38 108.158 109.375 108.11 109.36C105.517 108.519 102.92 107.686 100.334 106.823L92.5692 104.254C89.979 103.403 87.3932 102.538 84.8116 101.661L77.0664 99.0291L84.8989 101.388C87.5095 102.175 90.1162 102.974 92.7188 103.786L100.531 106.207C103.138 107.007 105.734 107.838 108.333 108.661L108.182 108.645L126.361 106.631L144.551 104.712C150.612 104.056 156.683 103.481 162.748 102.865C165.781 102.556 168.815 102.262 171.851 101.982L180.958 101.137Z" fill="#020202"/>
<path d="M77.0664 102.898C79.6367 103.794 82.1907 104.732 84.7525 105.65L92.4119 108.471L96.2399 109.886L100.056 111.333L107.687 114.226L107.492 114.203C111.129 113.711 114.773 113.276 118.415 112.82L129.341 111.47L140.278 110.195C143.926 109.794 147.573 109.378 151.225 109.01C147.598 109.573 143.964 110.089 140.332 110.621L129.427 112.141L118.513 113.588C114.874 114.063 111.238 114.561 107.594 115.001L107.59 115.002C107.525 115.009 107.46 115.001 107.399 114.977L99.7923 112.019L95.9889 110.54L92.1977 109.03L84.6186 105.999C82.1009 104.966 79.5755 103.954 77.0664 102.898Z" fill="#020202"/>
<path d="M107.235 151.783C107.157 148.215 107.132 144.648 107.159 141.082C107.176 137.516 107.24 133.951 107.314 130.387C107.404 126.822 107.504 123.258 107.652 119.696C107.789 116.132 107.979 112.57 108.223 109.01C108.302 112.578 108.328 116.145 108.3 119.711C108.283 123.276 108.218 126.841 108.143 130.406C108.053 133.97 107.953 137.534 107.804 141.097C107.667 144.66 107.477 148.222 107.235 151.783Z" fill="#020202"/>
<path d="M218.506 70.5793C217.996 70.351 217.527 70.0384 217.12 69.6545C216.717 69.2592 216.369 68.812 216.083 68.3246C215.803 67.8345 215.572 67.3184 215.392 66.7835C215.21 66.2429 215.079 65.6866 215.001 65.1218C214.997 65.0959 214.998 65.0697 215.003 65.044L215.012 64.9974C215.14 64.4171 215.205 63.8247 215.208 63.2304C215.212 62.6386 215.15 62.0483 215.022 61.4705C214.768 60.3189 214.289 59.2287 213.615 58.2618L213.66 58.3098C212.942 57.623 212.143 57.0272 211.28 56.5356C210.404 56.0545 209.453 55.7255 208.467 55.5626C206.444 55.3069 204.393 55.7102 202.617 56.7125C202.171 56.9516 201.741 57.2193 201.329 57.5141C201.124 57.6608 200.922 57.8128 200.728 57.971C200.637 58.0462 200.523 58.1397 200.462 58.203C200.385 58.2862 200.306 58.3833 200.23 58.4775C199.636 59.2691 199.189 60.1609 198.91 61.1105C198.629 62.0554 198.481 63.0349 198.471 64.0206C198.482 65.0096 198.6 65.9945 198.825 66.9576C198.84 67.0264 198.841 67.0974 198.829 67.1667C198.735 67.6859 198.633 68.1937 198.519 68.7068C198.409 69.2294 198.27 69.7455 198.103 70.2526C198.025 70.49 197.838 70.9045 197.88 70.8182C197.863 70.7885 197.89 70.8664 198.036 70.9685C198.369 71.1711 198.748 71.2832 199.137 71.2938L199.177 71.2923C199.264 71.2893 199.35 71.3076 199.429 71.3457C199.507 71.3838 199.575 71.4405 199.626 71.5109C200.208 72.3163 200.822 73.1106 201.432 73.8973C202.027 74.6784 202.672 75.4196 203.363 76.1162C203.449 76.194 203.534 76.2673 203.617 76.331C203.657 76.3589 203.699 76.3888 203.733 76.4094L203.779 76.4351C203.793 76.4425 203.79 76.4373 203.795 76.4433C203.811 76.4525 203.759 76.4345 203.745 76.4491C203.732 76.4568 203.786 76.4406 203.803 76.4376C203.857 76.4262 203.911 76.412 203.964 76.3951C204.073 76.3647 204.186 76.3246 204.298 76.2868C204.752 76.1194 205.192 75.9157 205.614 75.6778C206.477 75.2332 207.22 74.5863 207.779 73.792L207.793 73.7712C207.804 73.7536 207.819 73.7385 207.836 73.7266C207.853 73.7147 207.872 73.7063 207.892 73.7019C207.913 73.6975 207.934 73.6971 207.954 73.7008C207.975 73.7045 207.994 73.7122 208.012 73.7235L208.029 73.7363C208.277 73.9465 208.508 74.1763 208.72 74.4236C208.827 74.5473 208.923 74.6803 209.007 74.8211C209.097 74.9623 209.159 75.1198 209.189 75.2848C209.191 75.2976 209.188 75.3106 209.181 75.3213C209.173 75.3319 209.162 75.3395 209.15 75.3424C209.137 75.3453 209.124 75.3434 209.113 75.337C209.102 75.3306 209.093 75.3203 209.089 75.308L209.088 75.305C208.97 75.0245 208.786 74.7766 208.552 74.5825C208.326 74.3724 208.084 74.1806 207.828 74.0091L208.077 73.9533C207.577 74.8815 206.843 75.6627 205.948 76.2198C205.513 76.5109 205.055 76.7663 204.579 76.9836C204.456 77.0355 204.336 77.0906 204.205 77.1351C204.142 77.1591 204.076 77.1814 204.004 77.2013C203.964 77.2151 203.922 77.2257 203.88 77.2329C203.801 77.2453 203.721 77.2443 203.643 77.2298C203.465 77.1886 203.298 77.1134 203.149 77.0084C203.027 76.9267 202.916 76.8421 202.81 76.7564C202.038 76.0715 201.32 75.3267 200.664 74.529C199.998 73.7582 199.377 72.9628 198.756 72.1535L199.245 72.3704C198.92 72.3908 198.593 72.3554 198.28 72.2657C197.971 72.1863 197.679 72.0553 197.414 71.8782C197.251 71.7705 197.11 71.6342 196.996 71.4759C196.848 71.2747 196.773 71.0294 196.782 70.7799C196.785 70.658 196.809 70.5376 196.855 70.4244L196.913 70.2779L196.944 70.2074C196.987 70.1172 197.028 70.0023 197.067 69.8926C197.372 68.9346 197.625 67.9606 197.824 66.9752L197.827 67.1841C197.613 66.1361 197.516 65.0676 197.537 63.9982C197.58 62.9239 197.79 61.8629 198.16 60.8537C198.251 60.6018 198.366 60.3586 198.473 60.114C198.602 59.8784 198.71 59.6336 198.855 59.4083C199.125 58.9453 199.441 58.5111 199.799 58.1123C199.891 58.0126 199.981 57.9155 200.085 57.8169C200.191 57.7262 200.302 57.6412 200.416 57.562C200.631 57.4088 200.851 57.265 201.073 57.1272C201.518 56.8504 201.982 56.61 202.449 56.3801C204.326 55.4352 206.42 55.0067 208.517 55.1386C209.575 55.2276 210.611 55.4933 211.582 55.9248C212.555 56.3637 213.456 56.946 214.256 57.6525C214.271 57.6658 214.285 57.6803 214.298 57.696L214.302 57.7006C214.711 58.2254 215.052 58.8007 215.316 59.4122C215.582 60.0131 215.778 60.6428 215.9 61.2887C216.034 61.9333 216.084 62.5924 216.051 63.2499C216.022 63.9048 215.92 64.5545 215.746 65.1867L215.757 65.0626C215.797 65.5814 215.883 66.0956 216.016 66.5987C216.144 67.1092 216.319 67.6071 216.536 68.0863C216.757 68.5648 217.036 69.0144 217.367 69.425C217.708 69.836 218.108 70.1942 218.554 70.4879L218.557 70.4901C218.568 70.4975 218.575 70.5085 218.578 70.5211C218.581 70.5337 218.579 70.5469 218.573 70.5581C218.566 70.5693 218.556 70.5777 218.544 70.5817C218.531 70.5856 218.518 70.5847 218.506 70.5793Z" fill="black"/>
<path d="M199.746 69.998C199.656 69.9981 199.568 69.9748 199.49 69.9304C199.412 69.8859 199.347 69.8219 199.302 69.7446L197.881 67.333C197.846 67.2747 197.823 67.2102 197.814 67.1431C197.804 67.076 197.808 67.0077 197.825 66.942C197.842 66.8764 197.871 66.8147 197.912 66.7605C197.952 66.7063 198.003 66.6607 198.062 66.6262C198.12 66.5918 198.185 66.5692 198.252 66.5597C198.319 66.5503 198.387 66.5542 198.453 66.5712C198.518 66.5882 198.58 66.6179 198.634 66.6588C198.688 66.6996 198.733 66.7507 198.768 66.8092L200.189 69.2208C200.235 69.299 200.26 69.388 200.26 69.4789C200.261 69.5697 200.238 69.6591 200.193 69.7381C200.148 69.817 200.083 69.8826 200.004 69.9282C199.926 69.9739 199.836 69.9979 199.746 69.998Z" fill="black"/>
<path d="M198.636 67.8584C198.581 67.8584 198.528 67.8408 198.484 67.8084C198.44 67.7759 198.407 67.7302 198.391 67.6779C198.374 67.6257 198.375 67.5695 198.393 67.5176C198.41 67.4657 198.444 67.4208 198.489 67.3893C199.236 66.8679 205.83 62.3055 207.233 62.3618C207.267 62.3634 207.3 62.3716 207.33 62.3859C207.361 62.4003 207.389 62.4206 207.411 62.4456C207.434 62.4706 207.452 62.4998 207.463 62.5316C207.475 62.5635 207.48 62.5972 207.478 62.6311C207.474 62.699 207.444 62.7627 207.394 62.8086C207.343 62.8544 207.277 62.8789 207.209 62.8768C207.203 62.8763 207.196 62.8763 207.19 62.8763C206.218 62.8763 201.53 65.8944 198.783 67.8118C198.74 67.842 198.689 67.8583 198.636 67.8584Z" fill="black"/>
<path d="M206.479 63.856C206.47 63.4712 206.594 63.0951 206.829 62.7909C206.9 62.7082 206.987 62.6406 207.085 62.5921C207.183 62.5436 207.289 62.5152 207.398 62.5085L207.563 62.5059C207.616 62.5119 207.666 62.5272 207.718 62.5383C207.819 62.5578 207.917 62.5921 208.008 62.64C208.187 62.7219 208.356 62.8237 208.512 62.9436C208.654 63.0694 208.804 63.1839 208.941 63.3214C209.213 63.5998 209.438 63.921 209.607 64.2723C209.929 64.9792 210.021 65.77 209.868 66.5319C209.799 66.9109 209.652 67.2715 209.437 67.5909C209.326 67.7568 209.175 67.8908 208.997 67.9797C208.908 68.0247 208.806 68.0389 208.709 68.02C208.611 68.001 208.522 67.9501 208.456 67.8752C208.527 67.9213 208.611 67.9441 208.695 67.9404C208.779 67.9368 208.861 67.9069 208.927 67.855C209.055 67.7493 209.156 67.6139 209.22 67.4605C209.36 67.1478 209.444 66.8135 209.471 66.4721C209.537 65.7939 209.423 65.1103 209.141 64.4903C209.001 64.1855 208.814 63.9041 208.588 63.6562C208.478 63.5289 208.346 63.4145 208.226 63.2915C208.101 63.1836 207.968 63.0853 207.828 62.9977C207.712 62.903 207.569 62.8492 207.42 62.8447C207.271 62.8402 207.124 62.8852 207.003 62.9726C206.75 63.2128 206.569 63.5186 206.479 63.856ZM200.225 73.3749C200.619 73.3312 201.01 73.2575 201.393 73.1546C201.569 73.1056 201.739 73.039 201.901 72.9556C202.076 72.8761 202.239 72.7643 202.453 72.6561C202.418 72.8892 202.311 73.1055 202.146 73.2743C201.982 73.4517 201.773 73.5809 201.54 73.648C201.312 73.7149 201.072 73.7263 200.838 73.6813C200.608 73.6422 200.395 73.5356 200.225 73.3749ZM198.636 66.0673C198.617 65.7141 198.732 65.3671 198.958 65.0953C199.183 64.8154 199.479 64.6014 199.816 64.4762C200.141 64.3562 200.487 64.3009 200.834 64.3131C201.002 64.3257 201.17 64.3472 201.335 64.3777C201.498 64.4196 201.658 64.4725 201.814 64.5361C201.654 64.5772 201.492 64.6088 201.329 64.6307C201.171 64.6596 201.017 64.6939 200.864 64.7141C200.57 64.7718 200.281 64.853 200 64.9568C199.431 65.1582 198.949 65.5505 198.636 66.0673ZM200.795 68.2694C200.945 68.2642 201.087 68.2008 201.192 68.0927C201.296 67.9846 201.355 67.8401 201.355 67.6897C201.355 67.5393 201.296 67.3948 201.192 67.2867C201.087 67.1785 200.945 67.1152 200.795 67.11C200.645 67.1152 200.503 67.1785 200.398 67.2867C200.294 67.3948 200.235 67.5393 200.235 67.6897C200.235 67.8401 200.294 67.9846 200.398 68.0927C200.503 68.2008 200.645 68.2642 200.795 68.2694ZM212.472 82.9628C211.883 82.4717 211.215 82.0847 210.496 81.8183C209.787 81.5522 209.051 81.3638 208.301 81.2564C207.547 81.143 206.786 81.0803 206.023 81.0688L204.867 81.0742C204.481 81.0918 204.093 81.1111 203.699 81.1078C204.074 80.9983 204.457 80.9112 204.841 80.8226C205.228 80.7638 205.618 80.7044 206.01 80.6669C206.801 80.6035 207.596 80.6306 208.381 80.7476C209.172 80.8635 209.94 81.1013 210.659 81.4524C211.383 81.7913 212.008 82.3116 212.472 82.9628ZM183.579 104.102C183.799 103.372 184.091 102.666 184.452 101.994C184.803 101.314 185.214 100.666 185.681 100.06C186.145 99.4425 186.687 98.8882 187.293 98.4108C187.894 97.9204 188.605 97.5845 189.365 97.4321C188.699 97.765 188.088 98.1983 187.554 98.7168C187.021 99.2284 186.531 99.7829 186.088 100.375C185.174 101.545 184.393 102.819 183.579 104.102ZM201.814 112.025C202.046 112.084 202.287 112.096 202.524 112.061C202.758 112.035 202.99 111.982 203.213 111.905L203.542 111.775C203.65 111.728 203.751 111.664 203.855 111.611C204.062 111.499 204.261 111.371 204.448 111.228C205.202 110.656 205.873 109.981 206.442 109.225C206.717 108.838 206.997 108.455 207.261 108.06C207.508 107.654 207.774 107.259 208.006 106.843L208.696 105.591L209.325 104.305C210.156 102.576 210.969 100.828 211.828 99.108L213.115 96.5261C213.56 95.6739 213.99 94.8141 214.449 93.9694C214.095 94.8663 213.71 95.748 213.341 96.6374L212.185 99.2801C211.41 101.041 210.614 102.785 209.789 104.526C208.986 106.296 207.964 107.957 206.748 109.473C206.124 110.226 205.397 110.887 204.588 111.437C204.382 111.569 204.165 111.685 203.941 111.784C203.828 111.831 203.719 111.888 203.603 111.927L203.252 112.035C202.783 112.177 202.281 112.174 201.814 112.025ZM201.339 100.411C201.308 100.411 201.277 100.405 201.248 100.394L198.944 99.5283C198.88 99.5041 198.828 99.4556 198.8 99.3935C198.772 99.3313 198.77 99.2606 198.794 99.1968C198.818 99.133 198.866 99.0813 198.928 99.053C198.99 99.0247 199.061 99.0221 199.125 99.0458L201.429 99.9118C201.486 99.9331 201.533 99.9735 201.563 100.026C201.592 100.079 201.603 100.14 201.592 100.199C201.581 100.259 201.55 100.312 201.504 100.351C201.457 100.39 201.399 100.411 201.339 100.411ZM182.412 99.769C181.858 99.9422 181.271 99.981 180.698 99.8822C180.118 99.7768 179.562 99.5646 179.059 99.2564C178.56 98.9518 178.1 98.5864 177.691 98.1684C177.281 97.7464 176.917 97.2819 176.605 96.7828L177.128 97.0003C176.065 97.2734 174.968 97.3919 173.871 97.3525C173.31 97.3436 172.754 97.2491 172.221 97.0722C171.937 96.9757 171.685 96.8019 171.493 96.5702C171.394 96.4512 171.318 96.3143 171.27 96.1668C171.235 96.0112 171.235 95.8497 171.27 95.694C171.347 95.4094 171.498 95.15 171.706 94.9416C171.891 94.7354 172.095 94.5463 172.314 94.3765C172.738 94.0352 173.184 93.7224 173.65 93.4402C174.566 92.8724 175.522 92.3697 176.508 91.9357C177.005 91.7318 177.471 91.4939 178.042 91.3186C178.598 91.149 179.175 91.0588 179.756 91.0506C180.331 91.0481 180.903 91.125 181.457 91.2791C182.004 91.4158 182.536 91.6079 183.044 91.8524C184.035 92.3369 184.953 92.9576 185.772 93.6964C186.587 94.4101 187.311 95.2223 187.927 96.1145C187.934 96.1248 187.937 96.1374 187.936 96.1498C187.934 96.1623 187.928 96.1738 187.919 96.1822C187.909 96.1906 187.897 96.1954 187.885 96.1955C187.872 96.1957 187.86 96.1913 187.851 96.1832L187.848 96.1811C186.301 94.7789 184.54 93.6345 182.63 92.7917C182.17 92.5955 181.692 92.446 181.202 92.3454C180.728 92.2176 180.241 92.1506 179.751 92.146C179.267 92.1309 178.784 92.1818 178.314 92.2973C177.859 92.4073 177.357 92.6236 176.861 92.799C175.877 93.175 174.885 93.5323 173.923 93.9535C173.447 94.1663 172.986 94.4118 172.544 94.6883C172.331 94.8295 172.133 94.99 171.95 95.1678C171.774 95.3299 171.645 95.5354 171.575 95.7635C171.546 95.8695 171.548 95.9811 171.578 96.0863C171.609 96.1916 171.667 96.2866 171.748 96.361C171.903 96.537 172.112 96.6578 172.342 96.7057C172.838 96.8067 173.348 96.8201 173.849 96.7454C174.871 96.5859 175.884 96.3735 176.884 96.1089C176.983 96.086 177.087 96.0946 177.181 96.1336C177.275 96.1727 177.354 96.2401 177.408 96.3266C177.678 96.7686 177.987 97.1861 178.331 97.5742C178.671 97.9711 179.051 98.3321 179.465 98.6515C179.876 98.9708 180.333 99.2252 180.821 99.4058C181.325 99.5876 181.858 99.6762 182.395 99.6674C182.408 99.6671 182.422 99.6723 182.432 99.6818C182.442 99.6914 182.447 99.7045 182.448 99.7183C182.448 99.7294 182.444 99.7403 182.438 99.7494C182.432 99.7585 182.422 99.7653 182.412 99.769ZM191.119 136.008L192.275 138.835C192.28 138.848 192.282 138.862 192.279 138.876C192.276 138.89 192.27 138.902 192.26 138.912C192.251 138.923 192.238 138.93 192.224 138.933C192.211 138.936 192.196 138.935 192.183 138.931L192.179 138.929C191.598 138.702 190.991 138.554 190.371 138.488C189.755 138.436 189.135 138.482 188.533 138.625C187.337 138.962 186.251 139.608 185.383 140.498C184.504 141.384 183.746 142.381 183.126 143.464C182.491 144.539 181.957 145.67 181.53 146.844L181.529 146.846C181.515 146.886 181.488 146.921 181.454 146.946C181.419 146.971 181.378 146.984 181.335 146.985C181.292 146.985 181.251 146.973 181.215 146.949C181.18 146.925 181.153 146.891 181.138 146.851L178.893 141.046L176.686 135.228L177.095 135.129L177.885 143.175C178.141 145.858 178.419 148.539 178.698 151.219C178.7 151.237 178.696 151.255 178.687 151.27C178.08 152.226 177.163 152.942 176.089 153.298C175.037 153.66 173.938 153.866 172.826 153.908C171.72 153.961 170.612 153.935 169.51 153.831C168.406 153.731 167.31 153.567 166.226 153.338C166.2 153.333 166.176 153.32 166.158 153.3C166.14 153.281 166.128 153.257 166.124 153.231L166.124 153.227C165.493 149.158 164.963 145.075 164.535 140.979C164.119 136.882 163.801 132.772 163.695 128.648C163.686 127.617 163.676 126.585 163.691 125.553L163.743 124.004L163.772 123.23L163.835 122.456L163.966 120.908L164.2 119.367C164.281 118.852 164.394 118.342 164.538 117.841C164.603 117.589 164.661 117.334 164.734 117.083L165.009 116.347L165.288 115.613C165.403 115.378 165.53 115.147 165.651 114.914C165.776 114.684 165.889 114.446 166.025 114.222L166.478 113.575C166.783 113.146 167.123 112.743 167.495 112.371C167.682 112.185 167.879 112.011 168.086 111.847C168.28 111.67 168.489 111.509 168.711 111.367L169.373 110.938L170.08 110.586C170.317 110.474 170.56 110.376 170.809 110.292C171.054 110.197 171.305 110.119 171.56 110.059C172.575 109.781 173.63 109.68 174.679 109.761L174.511 109.857C174.73 109.383 175.002 108.936 175.321 108.523C175.648 108.118 176.018 107.75 176.424 107.425C177.248 106.799 178.175 106.322 179.163 106.016C180.142 105.714 181.151 105.521 182.173 105.441C183.189 105.352 184.212 105.355 185.228 105.45C185.235 105.451 185.241 105.454 185.245 105.459C185.249 105.465 185.252 105.472 185.251 105.478C185.25 105.485 185.247 105.491 185.241 105.496C185.236 105.5 185.229 105.502 185.222 105.501C184.21 105.436 183.194 105.463 182.187 105.58C181.182 105.689 180.192 105.908 179.235 106.234C178.281 106.547 177.389 107.024 176.598 107.643C176.215 107.96 175.867 108.317 175.56 108.709C175.263 109.106 175.011 109.535 174.809 109.989C174.795 110.019 174.772 110.044 174.744 110.062C174.716 110.079 174.683 110.087 174.649 110.085L174.64 110.085C172.615 109.971 170.612 110.544 168.953 111.713C167.336 112.927 166.128 114.608 165.491 116.529L165.228 117.238C165.158 117.481 165.103 117.729 165.04 117.974C164.901 118.462 164.793 118.958 164.715 119.459L164.49 120.968L164.365 122.496L164.305 123.259L164.278 124.027L164.231 125.562C164.217 126.587 164.235 127.612 164.239 128.638C164.314 132.741 164.609 136.843 164.988 140.935C165.359 145.028 165.826 149.112 166.39 153.187L166.288 153.076C167.358 153.319 168.44 153.499 169.531 153.614C170.622 153.738 171.72 153.775 172.817 153.726C173.911 153.691 174.995 153.495 176.033 153.144C177.074 152.811 177.964 152.117 178.541 151.187L178.53 151.237C178.233 148.559 177.935 145.88 177.615 143.204L176.673 135.174C176.667 135.123 176.68 135.071 176.709 135.029C176.738 134.986 176.782 134.956 176.832 134.943C176.883 134.931 176.936 134.937 176.981 134.961C177.027 134.985 177.063 135.024 177.082 135.073L177.082 135.075L179.325 140.881L181.527 146.702L181.135 146.709C181.579 145.512 182.134 144.358 182.792 143.264C183.442 142.161 184.238 141.152 185.158 140.263C186.079 139.354 187.222 138.703 188.474 138.376C189.104 138.238 189.753 138.207 190.393 138.284C191.027 138.371 191.646 138.543 192.235 138.794L192.139 138.888L191.071 136.026C191.068 136.02 191.069 136.013 191.071 136.007C191.074 136.001 191.079 135.996 191.085 135.993C191.092 135.991 191.099 135.991 191.105 135.994C191.111 135.996 191.116 136.001 191.119 136.008Z" fill="black"/>
<path d="M176.887 135.152L177.345 139.398L174.508 123.295L177.607 137.033L176.887 135.152Z" fill="black"/>
<path d="M197.9 112.474C192.176 112.474 175.425 110.284 174.627 110.179C174.593 110.175 174.561 110.164 174.532 110.147C174.502 110.13 174.477 110.108 174.456 110.081C174.435 110.054 174.42 110.023 174.411 109.991C174.402 109.958 174.4 109.924 174.405 109.89C174.409 109.857 174.42 109.824 174.437 109.795C174.454 109.765 174.476 109.74 174.503 109.719C174.53 109.699 174.561 109.683 174.593 109.675C174.626 109.666 174.66 109.664 174.694 109.668C174.913 109.697 196.661 112.538 199.369 111.859C199.401 111.851 199.436 111.849 199.469 111.854C199.503 111.859 199.535 111.87 199.564 111.888C199.593 111.905 199.618 111.928 199.639 111.955C199.659 111.982 199.674 112.013 199.682 112.046C199.69 112.079 199.692 112.113 199.687 112.147C199.682 112.18 199.67 112.212 199.653 112.241C199.635 112.27 199.612 112.296 199.585 112.316C199.558 112.336 199.527 112.351 199.494 112.359C198.969 112.454 198.434 112.492 197.9 112.474Z" fill="black"/>
<path d="M236.941 84.1991C236.941 84.1991 218.406 79.8729 213.834 102.01C209.262 124.143 208.097 122.536 208.097 122.536C199.754 134.638 183.484 127.215 179.792 125.309C179.373 125.082 178.894 124.988 178.42 125.039C177.946 125.09 177.498 125.284 177.137 125.596C176.146 126.505 176.299 127.975 176.299 127.975L176.37 129.64C176.382 129.908 176.453 130.17 176.576 130.409C176.699 130.647 176.872 130.857 177.083 131.022C183.098 135.805 193.805 136.797 203.496 136.291C204.052 136.262 204.608 136.228 205.156 136.187C213.531 135.602 220.878 133.957 223.35 132.803C228.909 130.204 230.515 131.317 239.164 108.437C247.818 85.5607 236.941 84.1991 236.941 84.1991ZM240.629 90.2979L240.624 90.2938C238.194 88.9683 235.396 88.4782 232.66 88.8987C229.971 89.3513 227.619 90.9248 225.819 92.9467C224.911 93.9691 224.103 95.0757 223.404 96.2514C222.69 97.4312 222.055 98.6573 221.504 99.9216C220.417 102.475 219.509 105.101 218.787 107.781C218.435 109.126 218.065 110.475 217.75 111.837C217.584 112.518 217.389 113.19 217.215 113.867C217.041 114.544 216.854 115.217 216.663 115.889C215.959 118.605 215.084 121.275 214.046 123.881C213.784 124.533 213.469 125.164 213.166 125.799C212.826 126.422 212.515 127.053 212.129 127.647C211.401 128.872 210.531 130.006 209.536 131.026C208.539 132.07 207.309 132.862 205.948 133.339C205.662 133.431 205.369 133.501 205.073 133.546C204.576 133.625 204.07 133.634 203.571 133.576C202.942 133.498 202.337 133.289 201.795 132.961C201.791 132.958 201.786 132.954 201.783 132.95C201.78 132.945 201.778 132.94 201.777 132.935C201.775 132.929 201.775 132.924 201.776 132.918C201.778 132.913 201.78 132.908 201.783 132.903C201.788 132.895 201.796 132.888 201.805 132.885C201.814 132.882 201.824 132.883 201.833 132.886L201.837 132.89C202.396 133.148 203.001 133.289 203.616 133.306C203.687 133.31 203.758 133.314 203.828 133.314C204.226 133.309 204.623 133.261 205.01 133.169C205.281 133.105 205.547 133.024 205.807 132.928C207.059 132.4 208.176 131.597 209.076 130.578C209.998 129.563 210.81 128.454 211.498 127.269C211.864 126.684 212.175 126.065 212.507 125.463C212.801 124.836 213.141 124.234 213.415 123.599C214.599 121.08 215.597 118.479 216.402 115.814C216.817 114.482 217.136 113.124 217.464 111.771C217.779 110.409 218.041 109.043 218.348 107.673C218.918 104.919 219.735 102.222 220.787 99.6144C221.825 96.9638 223.305 94.5086 225.163 92.353C226.126 91.2813 227.252 90.3678 228.499 89.6461C229.753 88.9277 231.133 88.4556 232.564 88.2553C235.414 87.9324 238.285 88.6295 240.67 90.2231C240.675 90.2261 240.679 90.23 240.682 90.2345C240.685 90.239 240.687 90.2442 240.689 90.2496C240.69 90.255 240.69 90.2606 240.689 90.2661C240.688 90.2715 240.686 90.2767 240.683 90.2813C240.677 90.2898 240.668 90.296 240.658 90.299C240.649 90.302 240.638 90.3017 240.629 90.2979ZM222.412 164.853C222.403 165.28 222.269 165.694 222.025 166.044C221.785 166.388 221.496 166.695 221.166 166.954C220.51 167.47 219.795 167.904 219.036 168.249C217.52 168.941 215.939 169.48 214.316 169.858C211.075 170.628 207.748 170.974 204.417 170.888C201.099 170.801 197.795 170.405 194.55 169.705C192.922 169.375 191.326 168.9 189.783 168.286C189 167.973 188.259 167.565 187.574 167.073C187.22 166.816 186.908 166.505 186.65 166.151C186.372 165.774 186.213 165.322 186.192 164.853C186.193 164.379 186.333 163.915 186.596 163.52C186.843 163.146 187.145 162.813 187.494 162.533C188.162 161.992 188.901 161.546 189.69 161.207C191.231 160.533 192.838 160.025 194.486 159.691C197.752 159.01 201.081 158.677 204.417 158.699C207.751 158.683 211.075 159.064 214.319 159.834C215.942 160.217 217.522 160.758 219.039 161.45C219.799 161.796 220.514 162.231 221.17 162.748C221.499 163.008 221.788 163.316 222.027 163.661C222.27 164.012 222.404 164.427 222.412 164.853ZM222.309 164.853C222.294 164.031 221.711 163.348 221.074 162.867C220.415 162.384 219.692 161.996 218.925 161.713C217.391 161.146 215.802 160.738 214.183 160.498C210.951 160.011 207.686 159.777 204.417 159.798C201.153 159.783 197.894 160.065 194.681 160.641C193.088 160.931 191.525 161.372 190.015 161.957C189.278 162.246 188.578 162.624 187.932 163.083C187.314 163.536 186.782 164.149 186.756 164.853C186.735 165.56 187.245 166.231 187.851 166.726C188.481 167.233 189.178 167.65 189.922 167.965C191.43 168.609 193.004 169.083 194.617 169.378C196.231 169.681 197.863 169.874 199.503 169.956C201.14 170.057 202.781 170.066 204.417 170.03C207.688 169.981 210.952 169.712 214.186 169.224C215.804 168.979 217.393 168.569 218.929 168.002C219.695 167.718 220.419 167.329 221.078 166.844C221.714 166.362 222.297 165.676 222.309 164.853ZM177.681 152.323C177.952 152.818 178.152 153.349 178.276 153.9C178.419 154.444 178.529 154.995 178.623 155.548C178.807 156.655 178.956 157.766 179.06 158.882C179.109 159.445 179.164 159.986 179.19 160.568C179.204 161.157 179.104 161.743 178.896 162.293C178.791 162.571 178.653 162.835 178.486 163.08C178.316 163.316 178.131 163.541 177.931 163.753C177.533 164.175 177.073 164.534 176.567 164.819C175.561 165.369 174.448 165.698 173.305 165.781C172.739 165.831 172.169 165.817 171.607 165.741C171.324 165.707 171.044 165.649 170.771 165.568C170.5 165.484 170.239 165.389 169.975 165.293C167.861 164.524 165.938 163.355 163.859 162.556C161.794 161.733 159.662 161.038 157.616 160.105C156.571 159.657 155.578 159.095 154.656 158.43C154.19 158.082 153.77 157.676 153.405 157.223C153.197 156.967 153.062 156.66 153.015 156.333C152.992 156.165 152.995 155.994 153.027 155.828C153.064 155.666 153.121 155.511 153.197 155.364C153.515 154.834 153.984 154.412 154.543 154.152C155.069 153.89 155.635 153.717 156.218 153.641C156.506 153.603 156.797 153.584 157.088 153.585C157.377 153.597 157.675 153.619 157.939 153.64C158.483 153.686 159.038 153.686 159.592 153.678C161.811 153.633 164.036 153.418 166.256 153.182C166.262 153.181 166.269 153.183 166.275 153.187C166.28 153.191 166.283 153.197 166.284 153.204C166.285 153.21 166.283 153.217 166.279 153.222C166.275 153.228 166.27 153.231 166.263 153.233C164.064 153.654 161.84 153.938 159.605 154.081C159.043 154.104 158.48 154.121 157.909 154.089C157.617 154.073 157.357 154.063 157.089 154.058C156.821 154.065 156.555 154.09 156.291 154.132C155.767 154.216 155.259 154.381 154.786 154.621C154.329 154.838 153.946 155.184 153.684 155.617C153.577 155.819 153.535 156.048 153.562 156.275C153.59 156.501 153.686 156.714 153.838 156.884C154.176 157.301 154.561 157.677 154.984 158.006C155.866 158.661 156.816 159.217 157.819 159.665C159.826 160.614 161.925 161.375 163.97 162.297C164.995 162.75 165.99 163.266 166.985 163.772C167.965 164.301 168.985 164.754 170.035 165.125C170.548 165.328 171.084 165.465 171.631 165.531C172.179 165.58 172.73 165.568 173.275 165.496C174.362 165.367 175.41 165.01 176.349 164.449C176.81 164.172 177.23 163.832 177.597 163.438C177.97 163.06 178.268 162.615 178.476 162.126C178.672 161.632 178.771 161.104 178.767 160.573C178.752 160.039 178.705 159.465 178.667 158.915C178.58 157.804 178.499 156.692 178.356 155.588C178.266 154.481 178.024 153.391 177.637 152.349L177.636 152.347C177.633 152.341 177.633 152.334 177.635 152.328C177.637 152.322 177.641 152.317 177.647 152.314C177.653 152.311 177.66 152.31 177.666 152.312C177.672 152.313 177.678 152.317 177.681 152.323Z" fill="black"/>
<path d="M168.288 153.573C168.339 154.169 168.426 154.761 168.549 155.345C168.661 155.922 168.83 156.486 169.054 157.029C169.252 157.55 169.594 158.004 170.039 158.339C170.255 158.483 170.503 158.573 170.762 158.6C171.03 158.621 171.299 158.593 171.557 158.517C172.104 158.355 172.62 158.103 173.085 157.772C173.567 157.456 173.998 157.068 174.362 156.62C175.107 155.701 175.533 154.565 175.577 153.383C175.731 154.615 175.411 155.859 174.682 156.864C173.937 157.88 172.889 158.633 171.689 159.015C171.369 159.103 171.037 159.131 170.707 159.1C170.368 159.062 170.044 158.938 169.765 158.74C169.254 158.341 168.877 157.795 168.682 157.176C168.307 156.015 168.173 154.789 168.288 153.573ZM159.403 156.825C159.263 156.499 159.215 156.14 159.266 155.788C159.308 155.426 159.438 155.08 159.644 154.779C159.848 154.479 160.122 154.231 160.441 154.058C160.595 153.972 160.759 153.903 160.928 153.853C161.097 153.81 161.269 153.783 161.443 153.771C161.309 153.891 161.169 153.977 161.04 154.079C160.917 154.189 160.782 154.273 160.672 154.387C160.616 154.442 160.559 154.493 160.5 154.543L160.347 154.713C160.244 154.823 160.151 154.942 160.07 155.069C159.726 155.6 159.499 156.199 159.403 156.825ZM162.184 156.825C162.041 156.505 161.996 156.149 162.055 155.803C162.107 155.455 162.225 155.121 162.402 154.817C162.58 154.52 162.806 154.254 163.071 154.029C163.203 153.921 163.341 153.821 163.486 153.731C163.636 153.649 163.791 153.577 163.951 153.518C163.859 153.657 163.759 153.792 163.653 153.921L163.363 154.306C163.177 154.554 163.004 154.812 162.846 155.078C162.522 155.616 162.298 156.208 162.184 156.825Z" fill="black"/>
<path d="M167.027 166.522C166.063 166.208 165.133 165.797 164.251 165.295C162.748 164.435 160.122 162.956 159.381 162.667C157.043 161.75 154.269 160.802 153.269 159.266C151.565 156.649 153.268 155.297 153.268 155.297C153.807 158.177 157.177 159.792 161.996 161.647C166.816 163.502 167.413 164.378 170.708 165.45C172.459 166.022 176.428 165.682 178.297 162.945C178.43 162.751 178.544 162.544 178.637 162.327L178.979 159.638C181.509 169.677 170.734 167.722 167.027 166.522ZM182.188 158.812C181.673 158.644 181.225 158.318 180.905 157.881C180.585 157.443 180.411 156.916 180.407 156.374C180.361 155.597 180.564 154.826 180.987 154.173C181.409 153.52 182.029 153.019 182.756 152.743C185.366 151.643 186.601 148.449 187.066 146.869C187.456 145.525 188.058 144.252 188.85 143.099C190.149 141.225 192.188 139.351 194.675 140.69C195.537 141.181 196.192 141.97 196.517 142.908C197.139 144.581 198.138 146.232 195.435 149.911C194.997 150.499 194.523 151.06 194.017 151.591C193.234 152.438 192.62 153.427 192.209 154.505C191.834 155.556 188.158 160.713 182.188 158.812Z" fill="black"/>
<path d="M182.681 143.848C182.941 145.182 182.939 146.554 182.675 147.887C182.426 149.229 181.963 150.522 181.304 151.718C180.975 152.306 180.614 152.875 180.221 153.423C180.047 153.69 179.91 153.978 179.812 154.281C179.726 154.589 179.691 154.909 179.707 155.229C179.706 155.886 179.823 156.539 180.054 157.155C180.155 157.47 180.336 157.752 180.58 157.975C180.824 158.198 181.121 158.354 181.443 158.426C181.102 158.398 180.779 158.263 180.519 158.04C180.263 157.811 180.056 157.531 179.911 157.219C179.624 156.597 179.459 155.924 179.425 155.239C179.394 154.889 179.414 154.537 179.484 154.193C179.564 153.849 179.693 153.519 179.865 153.211C180.218 152.61 180.568 152.081 180.865 151.484C181.476 150.316 181.939 149.077 182.245 147.795C182.566 146.505 182.713 145.177 182.681 143.848ZM191.107 138.505C191.352 138.521 191.592 138.581 191.816 138.681C192.037 138.774 192.247 138.894 192.439 139.038C192.635 139.184 192.808 139.358 192.954 139.555C193.111 139.754 193.208 139.994 193.233 140.247C193.03 140.092 192.849 139.97 192.669 139.839L192.129 139.449C191.751 139.178 191.408 138.86 191.107 138.505ZM184.459 104.799C184.459 104.807 184.459 104.815 184.456 104.822C184.454 104.83 184.45 104.837 184.445 104.843C184.44 104.849 184.434 104.854 184.427 104.858C184.42 104.862 184.413 104.864 184.405 104.865L167.848 107.19L151.67 109.391L151.777 127.201L151.827 136.298L151.852 145.394C151.853 145.545 151.799 145.691 151.701 145.806C151.602 145.92 151.466 145.995 151.317 146.017H151.313L129.322 149.239L107.319 152.382H107.315C107.196 152.399 107.074 152.378 106.966 152.323L91.8372 144.771L76.7287 137.178H76.7245C76.654 137.142 76.5948 137.088 76.5537 137.02C76.5126 136.953 76.4913 136.875 76.4922 136.796L76.7245 117.914C76.8117 111.616 76.82 105.322 76.8738 99.0278C76.8742 98.9801 76.8923 98.9342 76.9244 98.8989C76.9566 98.8636 77.0007 98.8415 77.0481 98.8368L89.3564 97.5332L89.8667 97.4793L89.9787 97.4668C89.9124 97.6245 89.8459 97.7823 89.7837 97.9442L89.4228 97.9816L77.2597 99.2022C77.2638 105.442 77.2223 111.678 77.2597 117.914L77.3427 136.535L92.3143 143.808L107.327 151.157L129.136 147.939L150.595 144.85L150.62 136.298L150.674 127.201L150.786 109.009V109.004C150.786 108.898 150.825 108.796 150.895 108.716C150.966 108.637 151.062 108.586 151.168 108.573L167.774 106.626L184.392 104.745C184.4 104.744 184.408 104.745 184.416 104.747C184.423 104.749 184.43 104.753 184.437 104.758C184.443 104.763 184.448 104.769 184.452 104.776C184.455 104.783 184.458 104.791 184.459 104.799Z" fill="black"/>
<path d="M90.4389 97.4177C90.497 97.5672 90.5593 97.7167 90.6173 97.8619C90.3933 97.8827 90.1693 97.9076 89.9453 97.9283C90.0324 97.7665 90.1195 97.6046 90.2025 97.4426L90.4389 97.4177ZM90.7542 97.3844C91.1234 97.3471 91.4926 97.3097 91.8618 97.2683C91.7955 97.4301 91.729 97.5963 91.6627 97.7581C91.4304 97.7789 91.1981 97.8039 90.9658 97.8287C90.8953 97.6793 90.8247 97.5339 90.7542 97.3844ZM92.2435 97.426L92.3513 97.6876C92.2767 97.6958 92.202 97.7041 92.1315 97.7124C92.1688 97.6169 92.2061 97.5215 92.2435 97.426ZM93.6664 97.073H93.7078L93.5212 97.5755C93.264 97.6003 93.0068 97.6253 92.7538 97.6502L92.5836 97.1894C92.9446 97.152 93.3054 97.1104 93.6664 97.073ZM93.9319 97.2806L94.019 97.5256C93.961 97.5339 93.8987 97.5381 93.8406 97.5422L93.9319 97.2806ZM95.5 97.0025L95.3299 97.4011L94.2845 97.5008L94.1393 97.0649C94.5915 97.0524 95.0478 97.0316 95.5 97.0025ZM95.6245 97.0441L95.7531 97.3596C95.666 97.3679 95.5788 97.3762 95.4917 97.3844L95.6245 97.0441ZM200.654 93.212C200.65 93.2272 200.641 93.2405 200.628 93.249C200.615 93.2575 200.599 93.2606 200.583 93.2576L190.071 91.0365C186.587 90.2975 183.106 89.5488 179.63 88.7905L166.865 90.2227L154.051 91.5969L141.232 92.967L128.409 94.2666C124.132 94.7024 119.855 95.101 115.578 95.5038L102.743 96.7036C100.768 96.8863 98.7952 97.0718 96.8233 97.26C96.5039 97.2889 96.1845 97.318 95.8651 97.3513L95.7323 96.9859C96.1139 96.9569 96.4957 96.9237 96.8814 96.8738C96.6533 96.8448 96.4209 96.8199 96.1927 96.7949C96.4334 96.77 96.6698 96.741 96.9062 96.7161C98.8312 96.5002 100.755 96.2829 102.677 96.0642L115.487 94.6236C119.756 94.1379 124.024 93.6562 128.297 93.2162L141.12 91.8669L153.947 90.5923L166.774 89.3218L179.605 88.1137H179.613C179.646 88.1121 179.68 88.1149 179.713 88.122C183.201 88.9357 186.686 89.7647 190.167 90.6089L200.608 93.1372C200.616 93.1389 200.624 93.1422 200.631 93.1469C200.637 93.1517 200.643 93.1577 200.647 93.1647C200.651 93.1717 200.654 93.1796 200.655 93.1877C200.657 93.1958 200.656 93.2041 200.654 93.212ZM113.475 133.168V147.724L146.098 143.518V129.419L113.475 133.168ZM132.01 139.388C129.604 139.388 129.608 135.651 132.01 135.651C134.416 135.651 134.412 139.388 132.01 139.388ZM113.475 116.001V130.557L146.098 126.351V112.252L113.475 116.001ZM132.01 122.22C129.604 122.22 129.608 118.484 132.01 118.484C134.416 118.484 134.412 122.22 132.01 122.22Z" fill="black"/>
<path d="M185.672 94.0673L185.677 94.0668C186.362 93.8916 187.052 93.7478 187.739 93.5876C188.428 93.4385 189.118 93.2922 189.809 93.156C189.846 93.1487 189.884 93.153 189.918 93.1681L189.927 93.1723C191.377 93.8112 192.812 94.4795 194.241 95.1604C195.669 95.8454 197.09 96.5432 198.497 97.2697L198.509 97.2756C198.551 97.2972 198.582 97.3345 198.596 97.3794C198.611 97.4242 198.607 97.473 198.585 97.5148C198.571 97.5413 198.551 97.5639 198.526 97.5805C198.502 97.5972 198.473 97.6074 198.443 97.6103C197.853 97.6638 197.263 97.7247 196.67 97.7662C196.078 97.8094 195.487 97.8615 194.893 97.8907C195.475 97.7669 196.06 97.6663 196.643 97.5565C197.227 97.4452 197.812 97.3532 198.397 97.2538L198.343 97.5943C196.892 96.9606 195.454 96.298 194.022 95.6226C192.592 94.9432 191.168 94.251 189.758 93.5296L189.876 93.546C189.179 93.6485 188.48 93.7409 187.781 93.8306C187.08 93.9091 186.381 94.0041 185.677 94.0676L185.672 94.0673ZM182.665 99.4882L179.207 100.043C178.055 100.231 176.898 100.388 175.744 100.562C174.589 100.728 173.436 100.91 172.279 101.064L168.81 101.535C168.773 101.54 168.735 101.536 168.7 101.524C167.306 101.043 165.906 100.58 164.518 100.08L160.348 98.6045C160.32 98.5947 160.294 98.5795 160.272 98.5597C160.25 98.54 160.232 98.516 160.219 98.4893C160.206 98.4625 160.198 98.4334 160.197 98.4037C160.195 98.374 160.199 98.3443 160.209 98.3162C160.222 98.278 160.246 98.2442 160.276 98.218C160.307 98.1918 160.345 98.1743 160.384 98.1673C162.252 97.8483 164.127 97.5769 165.999 97.2836C167.871 96.992 169.748 96.7284 171.626 96.4737C169.77 96.8579 167.912 97.2331 166.05 97.5805C164.187 97.9262 162.328 98.2938 160.461 98.6137L160.497 98.1766L164.683 99.6068C166.081 100.076 167.466 100.581 168.858 101.07L168.748 101.058L172.222 100.625C173.379 100.477 174.541 100.357 175.7 100.221C176.86 100.093 178.018 99.9487 179.18 99.8351C180.341 99.7167 181.502 99.5908 182.665 99.4882ZM169.196 92.1205C167.948 92.4835 166.692 92.8145 165.44 93.1593C165.126 93.2424 164.815 93.3365 164.498 93.4074L163.546 93.6066L161.645 94.018L160.695 94.2238C160.349 94.3176 159.988 94.3393 159.634 94.2874C159.259 94.2298 158.91 94.0599 158.633 93.7999C158.492 93.6584 158.385 93.488 158.317 93.3006C158.249 93.1132 158.222 92.9133 158.239 92.7147C158.318 92.0009 158.643 91.337 159.159 90.8373C159.406 90.5913 159.685 90.3804 159.99 90.2107C160.139 90.1273 160.293 90.0524 160.452 89.9864C160.596 89.9247 160.739 89.8586 160.88 89.7883C162.019 89.2604 162.978 88.4097 163.638 87.3415C163.948 86.8059 164.154 86.2161 164.244 85.6037C164.325 85.0021 164.326 84.3339 164.358 83.6899L164.676 75.9093L164.681 75.9748C164.65 75.889 164.606 75.8083 164.552 75.7352C164.488 75.6482 164.416 75.5679 164.336 75.4958C164.16 75.3515 163.972 75.2241 163.772 75.1153C163.346 74.8902 162.89 74.7271 162.417 74.6309C161.93 74.5361 161.436 74.4764 160.94 74.4521C160.44 74.4242 159.938 74.4274 159.434 74.4358C159.932 74.3673 160.433 74.2919 160.94 74.2691C161.45 74.2402 161.961 74.2478 162.47 74.2921C162.994 74.3426 163.507 74.4681 163.995 74.6648C164.25 74.7722 164.484 74.9243 164.686 75.1139C164.916 75.3148 165.088 75.5741 165.184 75.8646C165.189 75.8807 165.191 75.8974 165.191 75.9141L165.19 75.9303L164.873 83.7113C164.839 84.3627 164.843 84.9963 164.753 85.6819C164.653 86.3576 164.426 87.0082 164.084 87.5992C163.373 88.7556 162.338 89.6774 161.108 90.2501C160.959 90.3247 160.808 90.3947 160.654 90.4601C160.513 90.5189 160.375 90.5857 160.241 90.6601C159.978 90.8067 159.737 90.9887 159.523 91.2011C159.098 91.6126 158.827 92.1572 158.753 92.7445C158.74 92.8701 158.755 92.997 158.796 93.1162C158.838 93.2354 158.906 93.3437 158.995 93.4335C159.196 93.6179 159.448 93.7382 159.718 93.7791C160.008 93.8205 160.304 93.8004 160.586 93.7201L161.536 93.5143L163.438 93.1029L164.387 92.8908C164.704 92.8245 165.027 92.7815 165.347 92.7274C166.629 92.5235 167.909 92.3061 169.196 92.1205Z" fill="black"/>
<path d="M161.318 68.8745C161.87 69.5014 162.38 70.1658 163.057 70.8093L155.826 79.7728C155.701 71.2411 149.773 70.8093 149.773 70.8093L159.518 67.0977C159.856 67.3668 160.179 67.6551 160.485 67.9611C160.775 68.2559 161.045 68.5631 161.318 68.8745Z" fill="black"/>
<path d="M166.15 70.8088H163.059C163.016 70.3488 162.891 69.9003 162.69 69.4844C162.497 69.0668 162.247 68.6783 161.947 68.3301C161.644 67.9741 161.282 67.6723 160.877 67.4375C160.467 67.1965 159.996 67.0783 159.52 67.0971L160.898 64.498L166.15 70.8088ZM155.83 79.7733C154.906 79.4884 154.045 79.0316 153.291 78.4267C152.52 77.8296 151.847 77.1146 151.298 76.3079C151.156 76.1094 151.027 75.9014 150.912 75.6854C150.798 75.4697 150.664 75.2639 150.566 75.0403C150.361 74.5976 150.194 74.1387 150.065 73.6682C149.798 72.7397 149.699 71.7706 149.775 70.8072C150.02 71.7073 150.321 72.5912 150.676 73.4537C151.025 74.2934 151.463 75.0929 151.982 75.8387C152.492 76.5942 153.073 77.2988 153.718 77.9427C154.376 78.6034 155.082 79.2152 155.83 79.7733Z" fill="black"/>
<path d="M153.296 76.8974C156.278 76.8974 156.283 72.2598 153.296 72.2598C150.315 72.2598 150.31 76.8974 153.296 76.8974ZM131.656 95.8225L139.28 94.501C141.876 94.0587 144.506 93.6047 147.129 93.2649L147.137 93.2638C147.176 93.2587 147.216 93.266 147.25 93.2847L150.3 94.9304C151.314 95.4845 152.338 96.0186 153.361 96.5544C154.381 97.0975 155.416 97.6092 156.445 98.1337C157.474 98.6595 158.515 99.1605 159.549 99.6751C159.575 99.6881 159.597 99.709 159.61 99.7349C159.624 99.7608 159.629 99.7903 159.625 99.8193C159.621 99.8482 159.608 99.8752 159.588 99.8964C159.568 99.9175 159.541 99.9318 159.512 99.9371L159.507 99.9381C156.905 100.409 154.301 100.869 151.693 101.301C149.086 101.741 146.479 102.182 143.865 102.582L143.863 102.582C143.805 102.591 143.747 102.581 143.696 102.554C141.636 101.447 139.596 100.291 137.577 99.1574C135.572 98.0134 133.599 96.8943 131.656 95.8225ZM131.707 95.8313C133.811 96.9226 135.885 97.9668 137.927 98.9859C139.955 100.015 141.962 101.022 143.949 102.079L143.78 102.051C146.387 101.612 149.001 101.215 151.615 100.815C154.227 100.409 156.844 100.029 159.463 99.6614L159.421 99.9243C158.401 99.3826 157.388 98.8273 156.362 98.2968C155.336 97.765 154.318 97.2205 153.283 96.7072C152.252 96.1868 151.221 95.6646 150.181 95.1624L147.068 93.6392L147.189 93.659C144.653 94.1075 142.123 94.4418 139.561 94.7879L135.676 95.296L131.707 95.8313Z" fill="black"/>
<path d="M140.763 97.4512C141.323 97.3266 141.888 97.2306 142.457 97.1634C142.997 97.2493 143.538 97.3179 144.079 97.3959L147.322 97.8509L150.566 98.306L152.188 98.5335C152.707 98.7644 153.226 98.9908 153.738 99.2713C153.169 99.4001 152.607 99.4748 152.045 99.5541L150.423 99.3266L147.179 98.8716L143.936 98.4165C143.395 98.343 142.855 98.2598 142.313 98.1941C141.784 97.9729 141.267 97.725 140.763 97.4512ZM98.6211 98.7049L106.244 97.3833C108.841 96.941 111.471 96.487 114.094 96.1472L114.102 96.1461C114.141 96.141 114.18 96.1483 114.215 96.167L117.265 97.8127C118.279 98.3668 119.303 98.9009 120.326 99.4367C121.346 99.9798 122.381 100.492 123.41 101.016C124.439 101.542 125.48 102.043 126.514 102.557C126.54 102.57 126.561 102.591 126.575 102.617C126.589 102.643 126.594 102.673 126.59 102.702C126.586 102.731 126.573 102.758 126.553 102.779C126.532 102.8 126.506 102.814 126.477 102.819L126.472 102.82C123.87 103.291 121.266 103.751 118.658 104.183C116.05 104.623 113.443 105.064 110.83 105.464L110.827 105.465C110.77 105.473 110.712 105.463 110.661 105.436C108.601 104.33 106.561 103.174 104.542 102.04C102.537 100.896 100.564 99.7767 98.6211 98.7049ZM98.6719 98.7136C100.776 99.8049 102.85 100.849 104.892 101.868C106.92 102.897 108.927 103.905 110.914 104.962L110.745 104.933C113.352 104.494 115.966 104.097 118.58 103.698C121.192 103.291 123.809 102.912 126.428 102.544L126.386 102.807C125.366 102.265 124.352 101.71 123.327 101.179C122.301 100.647 121.282 100.103 120.248 99.5895C119.216 99.0692 118.186 98.5469 117.146 98.0447L114.033 96.5216L114.154 96.5413C111.618 96.9898 109.088 97.3241 106.526 97.6702L102.641 98.1783L98.6719 98.7136Z" fill="black"/>
<path d="M117.474 98.045C118.408 97.8539 119.345 97.6736 120.282 97.5043C121.221 97.3408 122.158 97.1612 123.098 97.011C124.98 96.7067 126.857 96.3819 128.747 96.135L128.757 96.1338C128.798 96.1283 128.84 96.1361 128.876 96.156L131.916 97.8211C132.929 98.377 133.953 98.9105 134.979 99.4419C136.01 99.9632 137.04 100.485 138.082 100.985L141.199 102.501C141.237 102.519 141.268 102.55 141.289 102.588C141.309 102.625 141.316 102.668 141.311 102.711C141.305 102.753 141.286 102.793 141.256 102.823C141.226 102.854 141.188 102.875 141.146 102.882L141.138 102.884L137.23 103.561C135.927 103.784 134.623 104.005 133.318 104.212C132.011 104.415 130.705 104.619 129.396 104.803C128.087 104.989 126.78 105.185 125.468 105.353L125.459 105.354C125.428 105.358 125.396 105.352 125.368 105.337C124.254 104.706 123.146 104.064 122.043 103.411C122.037 103.408 122.033 103.402 122.031 103.396C122.029 103.389 122.03 103.383 122.033 103.377C122.036 103.371 122.042 103.366 122.048 103.364C122.054 103.362 122.061 103.363 122.067 103.366C123.224 103.917 124.374 104.481 125.517 105.057L125.418 105.041C126.716 104.79 128.019 104.567 129.321 104.334C130.622 104.098 131.926 103.883 133.23 103.667C134.535 103.455 135.842 103.257 137.15 103.061L141.073 102.481L141.012 102.864L137.966 101.211C136.953 100.655 135.929 100.12 134.906 99.5846C133.877 99.0597 132.847 98.5369 131.805 98.0365L128.683 96.5325L128.811 96.5535C126.934 96.8821 125.044 97.1327 123.158 97.4037C122.216 97.5414 121.268 97.6494 120.323 97.7737C119.378 97.893 118.431 98.0004 117.481 98.096C117.475 98.0967 117.468 98.0948 117.463 98.0907C117.458 98.0867 117.454 98.0808 117.453 98.0742C117.452 98.0677 117.454 98.061 117.458 98.0556C117.462 98.0501 117.467 98.0464 117.474 98.045ZM181.105 73.1133C180.889 73.7237 180.644 74.3215 180.4 74.9193L179.425 76.5634L177.554 79.7271H176.832L176.944 79.5402L178.89 76.2479L179.864 74.5997C180.271 74.1015 180.674 73.5991 181.105 73.1133ZM176.55 75.1809L176.318 77.2153L176.031 79.7271H175.405L175.7 77.1446L175.928 75.1103C176.098 74.4419 176.264 73.7734 176.471 73.1133C176.521 73.8067 176.537 74.4917 176.55 75.1809ZM173.982 79.7271H174.376L174.156 78.1868L173.978 76.9495L173.704 75.0065C173.517 74.3755 173.335 73.7403 173.115 73.1134C173.086 73.6572 173.078 74.197 173.082 74.7367V75.0979L173.161 75.6335L173.364 77.0367L173.75 79.7271H173.982ZM172.667 79.7271H172.041L171.651 77.0368L171.373 75.0978C171.369 74.4378 171.369 73.7776 171.406 73.1133C171.626 73.7403 171.808 74.3754 171.995 75.0065L172.269 76.9496L172.534 78.8013L172.667 79.7271Z" fill="black"/>
<path d="M173.164 75.2672V75.6325L173.16 77.177V79.7262H172.537V75.2673C172.629 74.632 172.72 73.9968 172.849 73.3574C172.94 73.8183 173.019 74.2791 173.085 74.7358C173.114 74.9143 173.139 75.0887 173.164 75.2672ZM175.081 75.5868L174.865 77.4842L174.612 79.7262H173.985L174.16 78.1859L174.247 77.4136L174.458 75.5163C174.62 74.8935 174.782 74.2708 174.981 73.6563C175.039 74.2999 175.06 74.9434 175.081 75.5868ZM170.75 82.267V84.509C170.857 84.4965 170.965 84.4882 171.073 84.4757L172.006 82.3791C171.588 82.35 171.169 82.3169 170.75 82.267ZM172.123 82.4165L171.123 84.4716C171.724 84.4093 172.33 84.3678 172.932 84.3429L172.123 82.4165ZM172.255 82.3957L173.11 84.2391L173.79 82.4581C173.28 82.4497 172.766 82.4248 172.255 82.3957ZM174.006 82.6366L173.305 84.3304C173.749 84.3138 174.189 84.3055 174.632 84.3014L174.006 82.6366ZM174.89 82.4746C174.674 82.4705 174.454 82.4663 174.238 82.4663L174.873 84.0315L175.412 82.4663C175.238 82.4704 175.064 82.4704 174.89 82.4746ZM175.69 82.869L175.147 84.3014C175.495 84.3055 175.844 84.3097 176.192 84.3221C176.018 83.8364 175.852 83.3548 175.69 82.869ZM175.981 82.4581C176.159 82.9522 176.329 83.4462 176.495 83.9402C176.719 83.4295 176.939 82.923 177.167 82.4165C176.773 82.4372 176.379 82.4498 175.981 82.4581ZM177.399 82.6491C177.192 83.2137 176.976 83.7742 176.761 84.3388C177.238 84.3554 177.715 84.3845 178.188 84.4259C177.914 83.8364 177.657 83.2469 177.399 82.6491ZM170.75 79.7263L170.75 82.267C172.124 82.117 173.507 82.0478 174.89 82.0595C175.143 82.0595 175.396 82.0636 175.649 82.0678C175.685 82.0574 175.724 82.0574 175.761 82.0678C176.292 82.0761 176.819 82.0969 177.346 82.1259C177.359 82.1212 177.373 82.1184 177.387 82.1177C177.408 82.1178 177.43 82.122 177.449 82.1301C177.976 82.1632 178.503 82.2048 179.03 82.267V79.7262L170.75 79.7263ZM171.716 81.5821C171.555 81.5767 171.402 81.5088 171.289 81.3926C171.177 81.2764 171.114 81.121 171.114 80.9593C171.114 80.7976 171.177 80.6423 171.289 80.5261C171.402 80.4099 171.555 80.3419 171.716 80.3366C171.877 80.3422 172.03 80.4103 172.142 80.5265C172.254 80.6426 172.317 80.7978 172.317 80.9593C172.317 81.1208 172.254 81.276 172.142 81.3921C172.03 81.5083 171.877 81.5764 171.716 81.5821ZM173.956 81.5821C173.795 81.5767 173.642 81.5088 173.529 81.3926C173.417 81.2764 173.354 81.121 173.354 80.9593C173.354 80.7976 173.417 80.6423 173.529 80.5261C173.642 80.4099 173.795 80.3419 173.956 80.3366C174.118 80.3422 174.27 80.4103 174.382 80.5265C174.494 80.6426 174.557 80.7978 174.557 80.9593C174.557 81.1208 174.494 81.2759 174.382 81.3921C174.27 81.5083 174.118 81.5764 173.956 81.5821ZM176.122 81.5074C175.96 81.502 175.807 81.4341 175.695 81.3179C175.583 81.2017 175.52 81.0463 175.52 80.8846C175.52 80.7229 175.583 80.5676 175.695 80.4514C175.807 80.3352 175.96 80.2672 176.122 80.2619C176.283 80.2675 176.436 80.3356 176.548 80.4518C176.66 80.5679 176.723 80.7231 176.723 80.8846C176.723 81.0461 176.66 81.2012 176.548 81.3174C176.436 81.4336 176.283 81.5017 176.122 81.5074ZM178.25 81.5821C178.088 81.5767 177.935 81.5088 177.823 81.3926C177.711 81.2764 177.648 81.121 177.648 80.9593C177.648 80.7976 177.711 80.6423 177.823 80.5261C177.935 80.4099 178.088 80.3419 178.25 80.3366C178.411 80.3422 178.564 80.4103 178.676 80.5265C178.788 80.6426 178.851 80.7978 178.851 80.9593C178.851 81.1208 178.788 81.276 178.676 81.3921C178.564 81.5083 178.411 81.5764 178.25 81.5821ZM177.582 82.3917C177.814 83.0684 178.038 83.7451 178.246 84.4302C178.507 84.4551 178.768 84.4758 179.03 84.5091V82.267C178.549 82.3209 178.067 82.3626 177.582 82.3917ZM172.123 82.4165L171.123 84.4716C171.724 84.4093 172.33 84.3678 172.932 84.3429L172.123 82.4165ZM172.255 82.3957L173.11 84.2391L173.79 82.4581C173.28 82.4497 172.766 82.4248 172.255 82.3957ZM174.006 82.6366L173.305 84.3304C173.749 84.3138 174.189 84.3055 174.632 84.3014L174.006 82.6366ZM174.89 82.4746C174.674 82.4705 174.454 82.4663 174.238 82.4663L174.873 84.0315L175.412 82.4663C175.238 82.4704 175.064 82.4704 174.89 82.4746ZM175.69 82.869L175.147 84.3014C175.495 84.3055 175.844 84.3097 176.192 84.3221C176.018 83.8364 175.852 83.3548 175.69 82.869ZM175.981 82.4581C176.159 82.9522 176.329 83.4462 176.495 83.9402C176.719 83.4295 176.939 82.923 177.167 82.4165C176.773 82.4372 176.379 82.4498 175.981 82.4581ZM177.399 82.6491C177.192 83.2137 176.976 83.7742 176.761 84.3388C177.238 84.3554 177.715 84.3845 178.188 84.4259C177.914 83.8364 177.657 83.2469 177.399 82.6491ZM172.123 82.4165L171.123 84.4716C171.724 84.4093 172.33 84.3678 172.932 84.3429L172.123 82.4165ZM172.255 82.3957L173.11 84.2391L173.79 82.4581C173.28 82.4497 172.766 82.4248 172.255 82.3957ZM174.006 82.6366L173.305 84.3304C173.749 84.3138 174.189 84.3055 174.632 84.3014L174.006 82.6366ZM174.89 82.4746C174.674 82.4705 174.454 82.4663 174.238 82.4663L174.873 84.0315L175.412 82.4663C175.238 82.4704 175.064 82.4704 174.89 82.4746ZM175.69 82.869L175.147 84.3014C175.495 84.3055 175.844 84.3097 176.192 84.3221C176.018 83.8364 175.852 83.3548 175.69 82.869ZM175.981 82.4581C176.159 82.9522 176.329 83.4462 176.495 83.9402C176.719 83.4295 176.939 82.923 177.167 82.4165C176.773 82.4372 176.379 82.4498 175.981 82.4581ZM177.399 82.6491C177.192 83.2137 176.976 83.7742 176.761 84.3388C177.238 84.3554 177.715 84.3845 178.188 84.4259C177.914 83.8364 177.657 83.2469 177.399 82.6491ZM170.75 86.9379V87.4527C170.75 88.5516 171.186 89.6055 171.962 90.3825C172.739 91.1596 173.792 91.5961 174.89 91.5961C175.988 91.5961 177.041 91.1596 177.817 90.3825C178.594 89.6055 179.03 88.5516 179.03 87.4527V86.9379C176.277 87.2147 173.503 87.2147 170.75 86.9379ZM176.582 84.6835C176.556 84.7014 176.525 84.7125 176.494 84.7162C176.462 84.7198 176.43 84.7157 176.4 84.7043C176.391 84.6993 176.383 84.6937 176.375 84.6877C175.881 84.7043 175.383 84.7126 174.89 84.7168C173.507 84.7243 172.125 84.6548 170.75 84.509L170.75 86.9379C173.503 86.6611 176.277 86.6611 179.03 86.9379L179.03 84.5091C178.213 84.6046 177.4 84.6544 176.582 84.6835ZM171.903 86.365C171.741 86.3596 171.588 86.2917 171.476 86.1755C171.364 86.0593 171.301 85.9039 171.301 85.7422C171.301 85.5805 171.364 85.4252 171.476 85.309C171.588 85.1928 171.741 85.1248 171.903 85.1195C172.064 85.1255 172.216 85.1938 172.328 85.3099C172.44 85.426 172.502 85.581 172.502 85.7422C172.502 85.9034 172.44 86.0583 172.328 86.1744C172.216 86.2905 172.064 86.359 171.903 86.365ZM173.807 86.3276C173.646 86.3222 173.492 86.2543 173.38 86.1381C173.268 86.0219 173.205 85.8665 173.205 85.7048C173.205 85.5431 173.268 85.3878 173.38 85.2716C173.492 85.1554 173.646 85.0874 173.807 85.0821C173.968 85.0881 174.12 85.1564 174.232 85.2725C174.344 85.3886 174.406 85.5436 174.406 85.7048C174.406 85.866 174.344 86.0209 174.232 86.137C174.12 86.2531 173.968 86.3216 173.807 86.3276ZM175.898 86.3276C175.736 86.3222 175.583 86.2543 175.471 86.1381C175.359 86.0219 175.296 85.8665 175.296 85.7048C175.296 85.5431 175.359 85.3878 175.471 85.2716C175.583 85.1554 175.736 85.0874 175.898 85.0821C176.059 85.0881 176.211 85.1564 176.323 85.2725C176.435 85.3886 176.497 85.5435 176.497 85.7048C176.497 85.866 176.435 86.0209 176.323 86.137C176.211 86.2531 176.059 86.3216 175.898 86.3276ZM177.989 86.2529C177.827 86.2475 177.674 86.1796 177.562 86.0634C177.449 85.9472 177.387 85.7918 177.387 85.6301C177.387 85.4684 177.449 85.3131 177.562 85.1969C177.674 85.0807 177.827 85.0127 177.989 85.0074C178.15 85.0134 178.302 85.0816 178.414 85.1978C178.525 85.3139 178.588 85.4688 178.588 85.63C178.588 85.7913 178.525 85.9462 178.414 86.0623C178.302 86.1784 178.15 86.2469 177.989 86.2529ZM178.188 84.4259C177.914 83.8364 177.657 83.2469 177.399 82.6491C177.192 83.2137 176.976 83.7742 176.761 84.3388C177.238 84.3554 177.715 84.3845 178.188 84.4259ZM177.167 82.4165C176.773 82.4372 176.379 82.4498 175.981 82.4581C176.159 82.9522 176.329 83.4462 176.495 83.9402C176.719 83.4295 176.939 82.923 177.167 82.4165ZM176.192 84.3221C176.018 83.8364 175.852 83.3548 175.69 82.869L175.147 84.3014C175.495 84.3055 175.844 84.3097 176.192 84.3221ZM175.412 82.4663C175.238 82.4704 175.064 82.4704 174.89 82.4746C174.674 82.4705 174.454 82.4663 174.238 82.4663L174.873 84.0315L175.412 82.4663ZM174.632 84.3014L174.006 82.6366L173.305 84.3304C173.749 84.3138 174.189 84.3055 174.632 84.3014ZM173.79 82.4581C173.28 82.4497 172.766 82.4248 172.255 82.3957L173.11 84.2391L173.79 82.4581ZM172.123 82.4165L171.123 84.4716C171.724 84.4093 172.33 84.3678 172.932 84.3429L172.123 82.4165ZM177.399 82.6491C177.192 83.2137 176.976 83.7742 176.761 84.3388C177.238 84.3554 177.715 84.3845 178.188 84.4259C177.914 83.8364 177.657 83.2469 177.399 82.6491ZM175.981 82.4581C176.159 82.9522 176.329 83.4462 176.495 83.9402C176.719 83.4295 176.939 82.923 177.167 82.4165C176.773 82.4372 176.379 82.4498 175.981 82.4581ZM175.69 82.869L175.147 84.3014C175.495 84.3055 175.844 84.3097 176.192 84.3221C176.018 83.8364 175.852 83.3548 175.69 82.869ZM174.89 82.4746C174.674 82.4705 174.454 82.4663 174.238 82.4663L174.873 84.0315L175.412 82.4663C175.238 82.4704 175.064 82.4704 174.89 82.4746ZM174.006 82.6366L173.305 84.3304C173.749 84.3138 174.189 84.3055 174.632 84.3014L174.006 82.6366ZM172.255 82.3957L173.11 84.2391L173.79 82.4581C173.28 82.4497 172.766 82.4248 172.255 82.3957ZM172.123 82.4165L171.123 84.4716C171.724 84.4093 172.33 84.3678 172.932 84.3429L172.123 82.4165ZM177.399 82.6491C177.192 83.2137 176.976 83.7742 176.761 84.3388C177.238 84.3554 177.715 84.3845 178.188 84.4259C177.914 83.8364 177.657 83.2469 177.399 82.6491ZM175.981 82.4581C176.159 82.9522 176.329 83.4462 176.495 83.9402C176.719 83.4295 176.939 82.923 177.167 82.4165C176.773 82.4372 176.379 82.4498 175.981 82.4581ZM175.69 82.869L175.147 84.3014C175.495 84.3055 175.844 84.3097 176.192 84.3221C176.018 83.8364 175.852 83.3548 175.69 82.869ZM174.89 82.4746C174.674 82.4705 174.454 82.4663 174.238 82.4663L174.873 84.0315L175.412 82.4663C175.238 82.4704 175.064 82.4704 174.89 82.4746ZM174.006 82.6366L173.305 84.3304C173.749 84.3138 174.189 84.3055 174.632 84.3014L174.006 82.6366ZM172.255 82.3957L173.11 84.2391L173.79 82.4581C173.28 82.4497 172.766 82.4248 172.255 82.3957ZM172.123 82.4165L171.123 84.4716C171.724 84.4093 172.33 84.3678 172.932 84.3429L172.123 82.4165ZM103.362 150.529C103.439 151.554 103.479 152.579 103.533 153.604C103.589 154.63 103.615 155.655 103.652 156.68C103.675 157.705 103.713 158.73 103.724 159.756C103.737 160.781 103.764 161.806 103.764 162.831L103.468 162.444L106.355 163.223L106.149 163.22L109.026 162.538L108.722 162.924C108.747 161.021 108.782 159.118 108.842 157.216C108.878 156.264 108.905 155.313 108.959 154.362C109.009 153.41 109.048 152.459 109.119 151.508C109.191 152.459 109.23 153.41 109.28 154.362C109.333 155.313 109.36 156.264 109.396 157.216C109.457 159.118 109.491 161.021 109.516 162.924C109.518 163.012 109.489 163.098 109.435 163.168C109.381 163.238 109.306 163.287 109.22 163.308L109.213 163.31L106.344 164.023C106.276 164.04 106.205 164.039 106.137 164.02L103.256 163.219C103.172 163.195 103.097 163.144 103.044 163.074C102.99 163.005 102.961 162.919 102.961 162.831C102.961 161.806 102.987 160.781 103.001 159.756C103.012 158.73 103.05 157.705 103.073 156.68C103.11 155.655 103.135 154.63 103.192 153.604C103.246 152.579 103.285 151.554 103.362 150.529Z" fill="black"/>
<path d="M106.241 151.461C106.445 153.488 106.492 155.515 106.501 157.542C106.495 159.569 106.45 161.596 106.247 163.623C106.042 161.596 105.995 159.569 105.987 157.542C105.994 155.515 106.04 153.488 106.241 151.461ZM77.0025 136.838C77.0838 137.863 77.1234 138.888 77.1815 139.913C77.2338 140.939 77.2697 141.964 77.3009 142.989C77.3603 145.04 77.4011 147.09 77.4074 149.14L77.1095 148.75C78.0724 149.007 79.0356 149.264 79.9942 149.537L79.7901 149.534C80.7496 149.308 81.7066 149.074 82.6694 148.862L82.3779 149.233C82.3944 148.41 82.399 147.588 82.4254 146.765C82.4508 145.943 82.4646 145.12 82.5005 144.298C82.5293 143.475 82.5636 142.653 82.6118 141.83C82.6558 141.008 82.6944 140.185 82.7595 139.363C82.8244 140.185 82.8631 141.008 82.9071 141.83C82.9553 142.653 82.9895 143.475 83.0184 144.298C83.0542 145.12 83.068 145.943 83.0934 146.765C83.1198 147.588 83.1244 148.41 83.141 149.233C83.1427 149.316 83.1164 149.398 83.0664 149.464C83.0164 149.531 82.9455 149.579 82.8651 149.6L82.8493 149.604C81.8968 149.858 80.9387 150.088 79.9827 150.328C79.9185 150.344 79.8513 150.344 79.7871 150.327L79.7785 150.325C78.8147 150.071 77.8553 149.801 76.8956 149.531L76.8921 149.53C76.8072 149.506 76.7325 149.455 76.6793 149.385C76.6261 149.314 76.5975 149.228 76.5977 149.14C76.604 147.09 76.6447 145.039 76.7042 142.989C76.7354 141.964 76.7712 140.939 76.8236 139.913C76.8816 138.888 76.9212 137.863 77.0025 136.838Z" fill="black"/>
<path d="M79.8796 137.77C80.083 139.796 80.1304 141.823 80.1396 143.85C80.1332 145.877 80.0877 147.904 79.885 149.931C79.6804 147.905 79.6332 145.878 79.625 143.851C79.6324 141.824 79.6781 139.797 79.8796 137.77ZM145.582 146.14C145.652 147.052 145.691 147.963 145.738 148.875C145.79 149.786 145.819 150.697 145.853 151.609C145.914 153.432 145.95 155.254 145.974 157.077L145.758 156.726L148.361 158.014L148.069 157.984C149.085 157.695 150.109 157.432 151.129 157.155L150.834 157.543C150.834 156.537 150.859 155.531 150.873 154.525C150.884 153.52 150.921 152.514 150.945 151.508C150.981 150.502 151.008 149.497 151.064 148.491C151.119 147.485 151.158 146.479 151.235 145.474C151.313 146.479 151.352 147.485 151.407 148.491C151.463 149.497 151.49 150.502 151.526 151.508C151.55 152.514 151.587 153.52 151.598 154.525C151.612 155.531 151.637 156.537 151.637 157.543C151.637 157.631 151.608 157.716 151.555 157.786C151.501 157.856 151.426 157.907 151.342 157.931C150.323 158.212 149.308 158.508 148.286 158.778L148.279 158.779C148.183 158.805 148.081 158.794 147.993 158.749L145.406 157.428L145.399 157.424C145.336 157.392 145.282 157.342 145.245 157.281C145.208 157.219 145.189 157.149 145.19 157.077C145.214 155.254 145.25 153.432 145.311 151.609C145.345 150.697 145.374 149.786 145.426 148.875C145.474 147.963 145.513 147.052 145.582 146.14Z" fill="black"/>
<path d="M148.407 145.805C148.571 147.905 148.579 150.002 148.548 152.098C148.502 154.194 148.417 156.289 148.175 158.381C148.01 156.282 148.002 154.185 148.034 152.088C148.081 149.993 148.166 147.897 148.407 145.805ZM179.032 124.904C178.621 124.88 178.217 124.784 177.839 124.62C176.708 124.162 175.697 123.45 174.886 122.538C175.263 122.683 175.63 122.854 175.983 123.05C176.336 123.235 176.675 123.439 177.016 123.638C177.351 123.847 177.689 124.047 178.02 124.263C178.355 124.472 178.681 124.693 179.032 124.904ZM94.2254 76.1456C94.5611 76.6971 94.9623 77.206 95.4202 77.661C94.9563 77.677 94.4958 77.5771 94.0802 77.3703C93.7801 77.2155 93.5266 76.9834 93.346 76.6978C93.1699 76.4082 93.0726 76.0776 93.0639 75.7387C93.0554 75.275 93.1638 74.8167 93.3791 74.406C93.5884 75.0186 93.8727 75.6029 94.2254 76.1456ZM95.7396 76.3283C95.7479 76.7925 95.6379 77.2511 95.4202 77.661C95.2109 77.0485 94.9266 76.4642 94.5739 75.9215C94.2372 75.3707 93.836 74.8619 93.3791 74.406C93.8421 74.3895 94.3018 74.4909 94.715 74.7008C95.0152 74.8553 95.2698 75.0857 95.4533 75.3693C95.6332 75.6574 95.7321 75.9887 95.7396 76.3283ZM93.1178 80.1064C93.4536 80.6589 93.8563 81.1679 94.3167 81.6218C93.8528 81.6383 93.3922 81.5384 92.9767 81.3311C92.6754 81.1763 92.4206 80.9442 92.2383 80.6586C92.0623 80.369 91.965 80.0383 91.9562 79.6995C91.9478 79.2358 92.0562 78.7775 92.2715 78.3668C92.4826 78.9786 92.7667 79.5627 93.1178 80.1064ZM94.6319 80.289C94.64 80.7527 94.5316 81.2109 94.3167 81.6218C94.1039 81.0107 93.8198 80.4268 93.4705 79.8821C93.1322 79.3313 92.7297 78.8226 92.2715 78.3668C92.7346 78.3497 93.1943 78.4512 93.6073 78.6616C93.9105 78.8132 94.1663 79.045 94.3469 79.332C94.5276 79.6189 94.6261 79.9499 94.6319 80.289ZM91.8691 84.4657C92.206 85.0175 92.6086 85.5263 93.068 85.9811C92.6035 85.9986 92.1423 85.8971 91.728 85.6862C91.4261 85.5343 91.171 85.3033 90.9897 85.0179C90.8136 84.7283 90.7163 84.3977 90.7075 84.0588C90.6986 83.5951 90.8071 83.1366 91.0228 82.7261C91.2339 83.3379 91.5181 83.922 91.8691 84.4657Z" fill="black"/>
<path d="M93.3836 84.6445C93.3921 85.1096 93.2836 85.5693 93.0682 85.9814C92.8558 85.3694 92.5703 84.7853 92.2179 84.2418C91.8811 83.691 91.48 83.1823 91.0231 82.7265C91.4861 82.7094 91.9459 82.8108 92.3589 83.0212C92.6592 83.1756 92.9138 83.4061 93.0973 83.6897C93.2766 83.9765 93.3754 84.3063 93.3836 84.6445ZM91.2596 89.1076C91.5967 89.6605 91.9992 90.1708 92.4584 90.6272C91.994 90.6447 91.5328 90.5432 91.1185 90.3324C90.8174 90.1786 90.5636 89.946 90.384 89.6595C90.2043 89.3729 90.1055 89.0431 90.098 88.7049C90.0911 88.2414 90.1995 87.7834 90.4132 87.3722C90.6261 87.982 90.9101 88.5645 91.2596 89.1076Z" fill="black"/>
<path d="M92.7745 89.289C92.7851 89.7543 92.6766 90.2146 92.4592 90.626C92.0214 89.4054 91.3235 88.2947 90.4141 87.371C90.8771 87.3539 91.3369 87.4554 91.7499 87.6658C92.0518 87.8177 92.307 88.0487 92.4883 88.3342C92.6699 88.62 92.769 88.9504 92.7745 89.289ZM91.0783 91.9432C91.5414 91.9275 92.0011 92.0287 92.4149 92.2375C92.7161 92.3916 92.971 92.6229 93.1537 92.9078C93.3331 93.1946 93.4318 93.5246 93.4396 93.8629C93.4484 94.3276 93.3391 94.7868 93.122 95.1976C92.6579 95.2153 92.197 95.1146 91.7824 94.9052C91.4812 94.7515 91.227 94.5193 91.0466 94.2331C90.8692 93.9448 90.7716 93.6146 90.7636 93.2761C90.755 92.8125 90.8632 92.3541 91.0783 91.9432ZM97.0017 77.3654C96.4466 77.6276 95.9114 77.9301 95.4005 78.2704C95.4716 77.8293 95.634 77.4078 95.8775 77.0332C96.0452 76.7798 96.2752 76.5739 96.5454 76.4353C96.8079 76.3067 97.1005 76.2521 97.3917 76.2776C97.82 76.3204 98.2411 76.4181 98.6445 76.5682L97.0017 77.3654Z" fill="black"/>
<path d="M98.4135 77.9468C98.2392 78.2546 97.9773 78.5035 97.661 78.6618C97.3448 78.82 96.9887 78.8804 96.638 78.8352C96.1799 78.7712 95.7503 78.575 95.4018 78.2706C95.7147 78.2424 96.0236 78.1798 96.3227 78.0838C96.6193 77.989 96.909 77.8739 97.1898 77.7392C97.4709 77.6004 97.7389 77.4365 97.9904 77.2492C98.2482 77.0638 98.4703 76.8331 98.6459 76.5684C98.7451 77.0407 98.6621 77.5331 98.4135 77.9468ZM96.3559 81.1021C95.6714 81.3512 94.9745 81.5712 94.2734 81.866C94.4745 81.4203 94.759 81.0173 95.1114 80.6787C95.3694 80.4354 95.6743 80.2475 96.0074 80.1264C96.3233 80.012 96.6599 79.9667 96.9947 79.9936C97.4567 80.04 97.9144 80.1219 98.3638 80.2385C97.7218 80.5861 97.0498 80.8752 96.3559 81.1021Z" fill="black"/>
<path d="M97.8937 81.733C97.6222 82.0641 97.2669 82.3162 96.8648 82.463C96.4627 82.6097 96.0287 82.6458 95.6079 82.5674C95.1026 82.4723 94.6374 82.2279 94.2721 81.8657C94.6504 81.8806 95.029 81.8513 95.4005 81.7786C95.7716 81.7139 96.1365 81.6181 96.4915 81.4921C96.8512 81.3686 97.1963 81.2057 97.5203 81.0064C97.8513 80.8117 98.1382 80.5501 98.3625 80.2383C98.3916 80.5063 98.3649 80.7774 98.2842 81.0347C98.2036 81.2919 98.0706 81.5296 97.8937 81.733ZM95.5747 84.3318C94.8902 84.581 94.1932 84.801 93.4922 85.0958C93.6931 84.649 93.9792 84.2457 94.3343 83.9084C94.5902 83.6645 94.894 83.4765 95.2263 83.3562C95.5421 83.2418 95.8788 83.1965 96.2136 83.2234C96.6755 83.2698 97.1332 83.3517 97.5825 83.4683C96.9405 83.816 96.2685 84.105 95.5747 84.3318Z" fill="black"/>
<path d="M97.1166 84.9633C96.8451 85.2945 96.4898 85.5466 96.0878 85.6934C95.6857 85.8402 95.2516 85.8763 94.8309 85.7978C94.3256 85.7027 93.8603 85.4584 93.495 85.0962C93.8733 85.1111 94.252 85.0818 94.6235 85.009C94.9945 84.9444 95.3595 84.8485 95.7145 84.7225C96.0742 84.599 96.4192 84.4361 96.7433 84.2368C97.0743 84.0421 97.3611 83.7806 97.5854 83.4688C97.6145 83.7368 97.5878 84.0079 97.5072 84.2651C97.4265 84.5223 97.2935 84.76 97.1166 84.9633ZM94.922 88.2889C94.2293 88.6044 93.5033 88.8619 92.7773 89.1856C92.9804 88.7277 93.2658 88.3112 93.6195 87.9567C93.8744 87.6989 94.1738 87.4894 94.5031 87.3382C94.8058 87.2043 95.1308 87.1283 95.4614 87.114C95.8181 87.0807 96.1832 87.1513 96.8262 87.0641C96.5704 87.3499 96.269 87.5912 95.9343 87.7782C95.6086 87.9707 95.2704 88.1413 94.922 88.2889Z" fill="black"/>
<path d="M96.9436 87.5171C96.9484 87.6644 96.9386 87.8118 96.9145 87.9571C96.8561 88.2255 96.7478 88.4804 96.5951 88.7086C96.3274 89.1097 95.9502 89.4253 95.5083 89.6178C95.0981 89.7994 94.6473 89.8696 94.2014 89.8213C93.6722 89.7601 93.1742 89.5384 92.7744 89.186C93.173 89.1859 93.57 89.1371 93.9568 89.0408C94.3453 88.9527 94.7246 88.8275 95.0893 88.667C95.4615 88.5081 95.8093 88.2971 96.1222 88.0402C96.4486 87.793 96.693 87.4529 96.8233 87.0645C96.8545 87.1374 96.8809 87.2123 96.9022 87.2887C96.9203 87.364 96.9341 87.4402 96.9436 87.5171ZM92.7578 93.915C92.7804 93.458 92.8804 93.0083 93.0534 92.5848C93.1669 92.3056 93.3373 92.0531 93.5537 91.8435C93.7482 91.6658 93.9825 91.5374 94.2369 91.469C94.6385 91.3938 95.0267 91.2597 95.3892 91.071C95.4494 91.1158 95.5067 91.1643 95.5608 91.2164C95.6094 91.2714 95.6547 91.3293 95.6965 91.3897C95.7669 91.5104 95.8217 91.6394 95.8598 91.7738C95.9212 92.0255 95.9262 92.2877 95.8746 92.5415C95.7914 92.9787 95.5684 93.377 95.2391 93.6761C94.9422 93.9506 94.569 94.1285 94.1688 94.1861C93.6815 94.2531 93.1857 94.1578 92.7578 93.915ZM96.7694 73.5922C96.528 74.2562 96.3638 74.9458 96.2799 75.6473C95.9788 75.266 95.779 74.8147 95.6991 74.3354C95.6406 73.9724 95.6705 73.6007 95.7862 73.2518C95.9065 72.9036 96.1119 72.591 96.3836 72.3426C96.7427 72.0163 97.1777 71.7851 97.6488 71.6699C97.2839 72.2753 96.9888 72.9202 96.7694 73.5922Z" fill="black"/>
<path d="M98.1438 74.0655C98.0212 74.4124 97.8145 74.7234 97.5423 74.9706C97.1856 75.2989 96.7518 75.5317 96.2812 75.6473C96.6429 75.0403 96.9378 74.3958 97.1607 73.7251C97.4016 73.061 97.5658 72.3714 97.6501 71.6699C97.9522 72.0511 98.1534 72.5024 98.2351 72.9819C98.2942 73.3451 98.2628 73.7173 98.1438 74.0655Z" fill="black"/>
<path d="M91.0781 91.9433C91.5368 92.3988 91.9389 92.9081 92.2755 93.4602C92.6273 94.0027 92.9115 94.5862 93.1217 95.1978C92.6623 94.7429 92.2602 94.2335 91.9244 93.681C91.5733 93.138 91.2892 92.5546 91.0781 91.9433ZM92.7577 93.9143C93.2628 93.4485 93.7822 93.0489 94.2559 92.6064C94.4957 92.3948 94.7179 92.1639 94.9202 91.916C95.1305 91.6677 95.2898 91.3803 95.389 91.0703C95.447 91.424 95.3768 91.7869 95.1911 92.0933C95.0207 92.4012 94.7994 92.6779 94.5367 92.9117C94.282 93.1437 94.0025 93.3467 93.7032 93.5172C93.4075 93.6919 93.0894 93.8255 92.7577 93.9143Z" fill="white"/>
<path d="M90.5678 96.9952C90.6342 97.124 90.6964 97.2569 90.7587 97.3855C90.8292 97.535 90.8998 97.6803 90.9703 97.8297C91.0946 98.0914 91.2191 98.3487 91.3394 98.6103C91.4473 98.3239 91.5593 98.0415 91.6672 97.7592C91.7335 97.5973 91.7999 97.4312 91.8663 97.2693C91.8912 97.1988 91.9203 97.1323 91.9492 97.0618C91.4888 97.0493 91.0283 97.0285 90.5678 96.9952ZM92.3557 97.6886L92.248 97.427C92.2106 97.5225 92.1733 97.618 92.136 97.7135C91.9741 98.1246 91.8123 98.5355 91.6422 98.9424C92.0488 98.9259 92.4554 98.9134 92.862 98.9092L92.3557 97.6886ZM93.6709 97.0741C93.4717 97.0741 93.2725 97.0784 93.0693 97.0824C92.895 97.0783 92.7208 97.0783 92.5425 97.0741L92.5881 97.1905L92.7582 97.6512L93.1274 98.6353L93.5256 97.5766L93.7123 97.0741L93.6709 97.0741ZM94.0234 97.5267L93.9363 97.2817L93.845 97.5433L93.3762 98.9134C93.7621 98.9175 94.1479 98.9258 94.5378 98.9424L94.0234 97.5267ZM94.1437 97.0659L94.289 97.5018L94.7245 98.8179L95.3344 97.4021L95.5044 97.0035C95.0522 97.0326 94.5959 97.0534 94.1437 97.0659ZM95.7575 97.3607L95.6289 97.0451L95.4961 97.3855L94.8863 98.959C95.409 98.9881 95.9358 99.0338 96.4627 99.1085L95.7575 97.3607ZM90.5678 96.9952C90.6342 97.124 90.6964 97.2569 90.7587 97.3855C90.8292 97.535 90.8998 97.6803 90.9703 97.8297C91.0946 98.0914 91.2191 98.3487 91.3394 98.6103C91.4473 98.3239 91.5593 98.0415 91.6672 97.7592C91.7335 97.5973 91.7999 97.4312 91.8663 97.2693C91.8912 97.1988 91.9203 97.1323 91.9492 97.0618C91.4888 97.0493 91.0283 97.0285 90.5678 96.9952ZM92.3557 97.6886L92.248 97.427C92.2106 97.5225 92.1733 97.618 92.136 97.7135C91.9741 98.1246 91.8123 98.5355 91.6422 98.9424C92.0488 98.9259 92.4554 98.9134 92.862 98.9092L92.3557 97.6886ZM93.6709 97.0741C93.4717 97.0741 93.2725 97.0784 93.0693 97.0824C92.895 97.0783 92.7208 97.0783 92.5425 97.0741L92.5881 97.1905L92.7582 97.6512L93.1274 98.6353L93.5256 97.5766L93.7123 97.0741L93.6709 97.0741ZM94.0234 97.5267L93.9363 97.2817L93.845 97.5433L93.3762 98.9134C93.7621 98.9175 94.1479 98.9258 94.5378 98.9424L94.0234 97.5267ZM94.1437 97.0659L94.289 97.5018L94.7245 98.8179L95.3344 97.4021L95.5044 97.0035C95.0522 97.0326 94.5959 97.0534 94.1437 97.0659ZM95.7575 97.3607L95.6289 97.0451L95.4961 97.3855L94.8863 98.959C95.409 98.9881 95.9358 99.0338 96.4627 99.1085L95.7575 97.3607ZM90.3479 97.1779C90.3023 97.2652 90.2525 97.3565 90.2069 97.4437L90.4434 97.4188C90.4102 97.3399 90.3812 97.2569 90.3479 97.1779ZM90.5678 96.9952C90.6342 97.124 90.6964 97.2569 90.7587 97.3855C90.8292 97.535 90.8998 97.6803 90.9703 97.8297C91.2026 97.8049 91.4348 97.78 91.6672 97.7592C91.7335 97.5973 91.7999 97.4312 91.8663 97.2693C91.8912 97.1988 91.9203 97.1323 91.9492 97.0618C91.4888 97.0493 91.0283 97.0285 90.5678 96.9952ZM92.248 97.427C92.2106 97.5225 92.1733 97.618 92.136 97.7135C92.2065 97.7052 92.2811 97.6969 92.3557 97.6886L92.248 97.427ZM93.0693 97.0824C92.895 97.0783 92.7208 97.0783 92.5425 97.0741L92.5881 97.1905C92.949 97.1531 93.3099 97.1115 93.6709 97.0741C93.4717 97.0741 93.2725 97.0784 93.0693 97.0824ZM88.3359 90.9629L89.2569 96.8748C89.6054 96.8292 89.9538 96.796 90.2981 96.767C90.3141 96.7554 90.3326 96.7479 90.3521 96.745C90.3716 96.7421 90.3915 96.7439 90.4101 96.7504L90.4184 96.7587C91.0075 96.7171 91.5925 96.688 92.1774 96.6756C92.2208 96.6632 92.2667 96.6632 92.3101 96.6756C92.5631 96.6715 92.8162 96.6673 93.0693 96.6673C94.1147 96.6715 95.1559 96.6964 96.1971 96.796C96.4253 96.8209 96.6577 96.8459 96.8858 96.8749L96.9107 96.7171L97.8026 90.9629L88.3359 90.9629ZM89.8003 96.5303C89.6392 96.5244 89.4867 96.4562 89.3748 96.3401C89.2629 96.2239 89.2004 96.0689 89.2004 95.9076C89.2004 95.7462 89.2629 95.5912 89.3748 95.475C89.4867 95.3589 89.6392 95.2907 89.8003 95.2848C89.9614 95.2907 90.1139 95.3589 90.2257 95.4751C90.3376 95.5912 90.4001 95.7462 90.4001 95.9075C90.4001 96.0688 90.3376 96.2238 90.2258 96.34C90.1139 96.4561 89.9614 96.5244 89.8003 96.5303ZM92.0405 96.5303C91.8794 96.5244 91.7269 96.4562 91.615 96.3401C91.5031 96.2239 91.4406 96.0689 91.4406 95.9076C91.4406 95.7462 91.5031 95.5912 91.615 95.475C91.7269 95.3589 91.8794 95.2907 92.0405 95.2848C92.2017 95.2906 92.3543 95.3587 92.4663 95.4749C92.5782 95.591 92.6408 95.7461 92.6408 95.9075C92.6408 96.0689 92.5783 96.224 92.4663 96.3402C92.3544 96.4563 92.2017 96.5245 92.0405 96.5303ZM94.2059 96.4556C94.0448 96.4497 93.8922 96.3815 93.7803 96.2654C93.6685 96.1492 93.6059 95.9942 93.6059 95.8329C93.6059 95.6715 93.6685 95.5165 93.7803 95.4003C93.8922 95.2842 94.0448 95.216 94.2059 95.2101C94.3669 95.216 94.5194 95.2842 94.6313 95.4004C94.7431 95.5165 94.8056 95.6715 94.8056 95.8328C94.8057 95.9941 94.7432 96.1491 94.6313 96.2653C94.5195 96.3814 94.3669 96.4497 94.2059 96.4556ZM96.3341 96.5303C96.173 96.5244 96.0204 96.4562 95.9085 96.3401C95.7966 96.2239 95.7341 96.0689 95.7341 95.9076C95.7341 95.7462 95.7966 95.5912 95.9085 95.475C96.0204 95.3589 96.173 95.2907 96.3341 95.2848C96.4951 95.2907 96.6476 95.3589 96.7595 95.4751C96.8713 95.5912 96.9338 95.7462 96.9338 95.9075C96.9338 96.0688 96.8713 96.2238 96.7595 96.34C96.6477 96.4561 96.4951 96.5244 96.3341 96.5303ZM95.7575 97.3607L95.6289 97.0451L95.4961 97.3855L94.8863 98.959C95.409 98.9881 95.9358 99.0338 96.4627 99.1085L95.7575 97.3607ZM94.1437 97.0659L94.289 97.5018L94.7245 98.8179L95.3344 97.4021L95.5044 97.0035C95.0522 97.0326 94.5959 97.0534 94.1437 97.0659ZM94.0234 97.5267L93.9363 97.2817L93.845 97.5433L93.3762 98.9134C93.7621 98.9175 94.1479 98.9258 94.5378 98.9424L94.0234 97.5267ZM93.6709 97.0741C93.4717 97.0741 93.2725 97.0784 93.0693 97.0824C92.895 97.0783 92.7208 97.0783 92.5425 97.0741L92.5881 97.1905L92.7582 97.6512L93.1274 98.6353L93.5256 97.5766L93.7123 97.0741L93.6709 97.0741ZM92.3557 97.6886L92.248 97.427C92.2106 97.5225 92.1733 97.618 92.136 97.7135C91.9741 98.1246 91.8123 98.5355 91.6422 98.9424C92.0488 98.9259 92.4554 98.9134 92.862 98.9092L92.3557 97.6886ZM90.5678 96.9952C90.6342 97.124 90.6964 97.2569 90.7587 97.3855C90.8292 97.535 90.8998 97.6803 90.9703 97.8297C91.0946 98.0914 91.2191 98.3487 91.3394 98.6103C91.4473 98.3239 91.5593 98.0415 91.6672 97.7592C91.7335 97.5973 91.7999 97.4312 91.8663 97.2693C91.8912 97.1988 91.9203 97.1323 91.9492 97.0618C91.4888 97.0493 91.0283 97.0285 90.5678 96.9952ZM95.7575 97.3607L95.6289 97.0451L95.4961 97.3855L94.8863 98.959C95.409 98.9881 95.9358 99.0338 96.4627 99.1085L95.7575 97.3607ZM94.1437 97.0659L94.289 97.5018L94.7245 98.8179L95.3344 97.4021L95.5044 97.0035C95.0522 97.0326 94.5959 97.0534 94.1437 97.0659ZM94.0234 97.5267L93.9363 97.2817L93.845 97.5433L93.3762 98.9134C93.7621 98.9175 94.1479 98.9258 94.5378 98.9424L94.0234 97.5267ZM93.6709 97.0741C93.4717 97.0741 93.2725 97.0784 93.0693 97.0824C92.895 97.0783 92.7208 97.0783 92.5425 97.0741L92.5881 97.1905L92.7582 97.6512L93.1274 98.6353L93.5256 97.5766L93.7123 97.0741L93.6709 97.0741ZM92.3557 97.6886L92.248 97.427C92.2106 97.5225 92.1733 97.618 92.136 97.7135C91.9741 98.1246 91.8123 98.5355 91.6422 98.9424C92.0488 98.9259 92.4554 98.9134 92.862 98.9092L92.3557 97.6886ZM90.5678 96.9952C90.6342 97.124 90.6964 97.2569 90.7587 97.3855C90.8292 97.535 90.8998 97.6803 90.9703 97.8297C91.0946 98.0914 91.2191 98.3487 91.3394 98.6103C91.4473 98.3239 91.5593 98.0415 91.6672 97.7592C91.7335 97.5973 91.7999 97.4312 91.8663 97.2693C91.8912 97.1988 91.9203 97.1323 91.9492 97.0618C91.4888 97.0493 91.0283 97.0285 90.5678 96.9952ZM93.6709 97.0741C93.3099 97.1115 92.949 97.1531 92.5881 97.1905L92.7582 97.6512C93.0112 97.6263 93.2685 97.6014 93.5256 97.5766L93.7123 97.0741L93.6709 97.0741ZM93.9363 97.2817L93.845 97.5433C93.9031 97.5391 93.9654 97.535 94.0234 97.5267L93.9363 97.2817ZM94.1437 97.0659L94.289 97.5018L95.3344 97.4021L95.5044 97.0035C95.0522 97.0326 94.5959 97.0534 94.1437 97.0659ZM95.6289 97.0451L95.4961 97.3855C95.5832 97.3773 95.6703 97.369 95.7575 97.3607L95.6289 97.0451ZM95.7368 96.9869L95.8696 97.3523L96.5042 99.1085V99.1127C96.5154 99.112 96.5267 99.1134 96.5374 99.1168L96.8278 97.261L96.8858 96.8749C96.5 96.9247 96.1184 96.9579 95.7368 96.9869ZM96.5001 99.121C96.5001 99.1251 96.5001 99.1334 96.4918 99.1334C96.4874 99.1353 96.4824 99.1355 96.4778 99.134C96.4732 99.1324 96.4694 99.1293 96.4669 99.1251C95.3398 99.2639 94.205 99.3304 93.0694 99.3244C92.5343 99.3203 91.9991 99.3078 91.4639 99.2829C91.4374 99.3025 91.4062 99.3147 91.3734 99.3184C91.3406 99.322 91.3074 99.3169 91.2772 99.3036C91.2597 99.294 91.243 99.2829 91.2274 99.2704C90.6881 99.2372 90.1447 99.1915 89.6054 99.1168L89.8833 100.902H96.2595L96.5374 99.1168C96.5248 99.1161 96.5122 99.1175 96.5001 99.121ZM91.215 100.744C91.0535 100.739 90.9004 100.671 90.7881 100.555C90.6757 100.439 90.6129 100.283 90.6129 100.121C90.6129 99.9598 90.6757 99.8045 90.7881 99.6882C90.9004 99.572 91.0535 99.5041 91.215 99.4987C91.3764 99.5041 91.5295 99.572 91.6418 99.6882C91.7542 99.8045 91.817 99.9598 91.817 100.121C91.817 100.283 91.7542 100.439 91.6418 100.555C91.5295 100.671 91.3764 100.739 91.215 100.744ZM93.3058 100.744C93.1443 100.739 92.9912 100.671 92.8789 100.555C92.7665 100.439 92.7037 100.283 92.7037 100.121C92.7037 99.9598 92.7665 99.8045 92.8789 99.6882C92.9912 99.572 93.1443 99.5041 93.3058 99.4987C93.4672 99.5041 93.6203 99.572 93.7326 99.6882C93.845 99.8045 93.9078 99.9598 93.9078 100.121C93.9078 100.283 93.845 100.439 93.7326 100.555C93.6203 100.671 93.4672 100.739 93.3058 100.744ZM95.3966 100.67C95.2351 100.664 95.082 100.596 94.9697 100.48C94.8573 100.364 94.7945 100.208 94.7945 100.047C94.7945 99.8851 94.8573 99.7297 94.9697 99.6135C95.082 99.4973 95.2351 99.4294 95.3966 99.424C95.558 99.4294 95.7111 99.4973 95.8234 99.6135C95.9358 99.7297 95.9986 99.8851 95.9986 100.047C95.9986 100.208 95.9358 100.364 95.8235 100.48C95.7111 100.596 95.558 100.664 95.3966 100.67ZM95.7575 97.3607L95.6289 97.0451L95.4961 97.3855L94.8863 98.959C95.409 98.9881 95.9358 99.0338 96.4627 99.1085L95.7575 97.3607ZM94.1437 97.0659L94.289 97.5018L94.7245 98.8179L95.3344 97.4021L95.5044 97.0035C95.0522 97.0326 94.5959 97.0534 94.1437 97.0659ZM94.0234 97.5267L93.9363 97.2817L93.845 97.5433L93.3762 98.9134C93.7621 98.9175 94.1479 98.9258 94.5378 98.9424L94.0234 97.5267ZM93.6709 97.0741C93.4717 97.0741 93.2725 97.0784 93.0693 97.0824C92.895 97.0783 92.7208 97.0783 92.5425 97.0741L92.5881 97.1905L92.7582 97.6512L93.1274 98.6353L93.5256 97.5766L93.7123 97.0741L93.6709 97.0741ZM92.3557 97.6886L92.248 97.427C92.2106 97.5225 92.1733 97.618 92.136 97.7135C91.9741 98.1246 91.8123 98.5355 91.6422 98.9424C92.0488 98.9259 92.4554 98.9134 92.862 98.9092L92.3557 97.6886ZM90.5678 96.9952C90.6342 97.124 90.6964 97.2569 90.7587 97.3855C90.8292 97.535 90.8998 97.6803 90.9703 97.8297C91.0946 98.0914 91.2191 98.3487 91.3394 98.6103C91.4473 98.3239 91.5593 98.0415 91.6672 97.7592C91.7335 97.5973 91.7999 97.4312 91.8663 97.2693C91.8912 97.1988 91.9203 97.1323 91.9492 97.0618C91.4888 97.0493 91.0283 97.0285 90.5678 96.9952ZM90.6218 97.863C90.5637 97.7177 90.5014 97.5682 90.4434 97.4188C90.4102 97.3399 90.3812 97.2569 90.3479 97.1779C90.3023 97.2652 90.2525 97.3565 90.2069 97.4437C90.1239 97.6057 90.0369 97.7675 89.9498 97.9294C89.8211 98.1743 89.6884 98.4193 89.5515 98.6642C89.5499 98.6658 89.5479 98.667 89.5457 98.6677C89.5435 98.6684 89.5412 98.6686 89.539 98.6684L89.6054 99.1168C90.0949 99.0462 90.5886 99.0047 91.0781 98.9714C90.9287 98.602 90.7752 98.2324 90.6218 97.863ZM90.9703 97.8297C91.0946 98.0914 91.2191 98.3487 91.3394 98.6103C91.4473 98.3239 91.5593 98.0415 91.6672 97.7592C91.4348 97.78 91.2026 97.8049 90.9703 97.8297ZM92.3557 97.6886C92.2811 97.6969 92.2065 97.7052 92.136 97.7135C91.9741 98.1246 91.8123 98.5355 91.6422 98.9424C92.0488 98.9259 92.4554 98.9134 92.862 98.9092L92.3557 97.6886ZM92.7582 97.6512L93.1274 98.6353L93.5256 97.5766C93.2685 97.6014 93.0112 97.6263 92.7582 97.6512ZM94.0234 97.5267C93.9654 97.535 93.9031 97.5391 93.845 97.5433L93.3762 98.9134C93.7621 98.9175 94.1479 98.9258 94.5378 98.9424L94.0234 97.5267ZM94.289 97.5018L94.7245 98.8179L95.3344 97.4021L94.289 97.5018ZM95.7575 97.3607C95.6703 97.369 95.5832 97.3773 95.4961 97.3855L94.8863 98.959C95.409 98.9881 95.9358 99.0338 96.4627 99.1085L95.7575 97.3607ZM89.2569 96.8748L89.3606 97.535L89.427 97.9834L89.5266 98.6103C89.6137 98.3861 89.7008 98.1661 89.7879 97.946C89.8501 97.7841 89.9165 97.6263 89.9829 97.4686C90.0492 97.3026 90.1157 97.1364 90.1862 96.9703C89.875 96.9455 89.568 96.9122 89.2569 96.8748Z" fill="black"/>
<path d="M93.6395 95.9313C93.2932 95.6197 93.0368 95.2208 92.897 94.7763C92.8318 94.5546 92.7472 94.335 92.6975 94.1085L92.5571 93.4253C92.4426 92.5054 92.4076 91.5773 92.4526 90.6514C92.4689 89.7238 92.6074 88.81 92.7148 87.8924C92.8828 86.9864 93.0122 86.0701 93.232 85.1758C93.4382 84.2778 93.6444 83.3801 93.905 82.4977C94.1561 81.6124 94.3972 80.7248 94.7067 79.8583C95.0058 78.9891 95.2743 78.1103 95.607 77.2537C95.9437 76.3983 96.2632 75.5378 96.614 74.6895C96.126 76.4618 95.5609 78.2043 95.0858 79.973L94.7163 81.2946L94.3761 82.6232C94.2662 83.0667 94.1335 83.5048 94.0348 83.9505L93.7346 85.2867C93.5065 86.1722 93.3781 87.075 93.1949 87.9688C93.0604 88.8688 92.9189 89.7695 92.8462 90.6755C92.7567 91.5795 92.7433 92.4893 92.8063 93.3955L92.8869 94.07C92.9167 94.2947 92.9807 94.5115 93.0261 94.7344C93.1297 95.1776 93.3403 95.5885 93.6395 95.9313Z" fill="black"/>
<path d="M89.5301 98.655L89.5219 98.6094L89.5094 98.6467C89.5053 98.655 89.5094 98.6632 89.5177 98.6716C89.5259 98.6757 89.5301 98.6716 89.5342 98.6674L89.5301 98.655Z" fill="#FCFCFC"/>
<path d="M104.211 99.4548C105.571 99.08 106.952 98.7809 108.345 98.5589C109.736 98.3182 111.138 98.1558 112.547 98.0722C111.187 98.4479 109.807 98.7471 108.413 98.9683C107.022 99.208 105.62 99.3704 104.211 99.4548ZM120.677 99.2729C122.037 98.898 123.417 98.5989 124.811 98.3769C126.201 98.1363 127.604 97.9738 129.013 97.8903C127.653 98.266 126.272 98.5652 124.879 98.7862C123.488 99.0259 122.085 99.1884 120.677 99.2729ZM137.561 96.3445C138.921 95.9696 140.301 95.6705 141.695 95.4485C143.085 95.2078 144.488 95.0454 145.897 94.9619C144.537 95.3376 143.156 95.6367 141.763 95.8578C140.372 96.0975 138.969 96.26 137.561 96.3445ZM208.069 122.579C207.202 121.991 206.439 121.263 205.81 120.426C205.165 119.605 204.584 118.735 204.072 117.825C203.556 116.918 203.09 115.985 202.66 115.036C202.23 114.085 201.829 113.13 201.471 112.138L201.866 112.385C199.786 112.654 197.673 112.471 195.671 111.848C194.676 111.557 193.704 111.194 192.761 110.763C191.818 110.343 190.9 109.87 190.011 109.345C188.24 108.303 186.556 107.119 184.975 105.804C183.395 104.497 181.901 103.09 180.501 101.591L180.494 101.583C180.445 101.53 180.418 101.459 180.418 101.386C180.419 101.313 180.448 101.243 180.498 101.19C181.103 100.565 181.728 99.984 182.376 99.4185C183.021 98.8515 183.702 98.3258 184.397 97.8204C185.092 97.3088 185.832 96.8615 186.608 96.4837C187.384 96.0701 188.241 95.8333 189.119 95.7904C189.137 95.7904 189.154 95.7932 189.17 95.7986C189.994 96.0841 190.825 96.3487 191.652 96.6247L194.136 97.4446C195.789 97.9988 197.454 98.5201 199.115 99.0512L198.796 99.2249L200.974 90.0958C201.709 87.0549 202.458 84.0175 203.22 80.9837L203.21 81.0316C203.263 80.771 203.345 80.5171 203.454 80.2745C203.548 80.0479 203.661 79.8366 203.773 79.6246C204.006 79.2156 204.267 78.8232 204.555 78.4503C205.12 77.7182 205.749 77.0384 206.435 76.4191C207.79 75.199 209.263 74.1176 210.833 73.1909C211.618 72.7189 212.432 72.296 213.269 71.9248C214.11 71.5611 214.972 71.2492 215.851 70.9908C217.61 70.4694 219.433 70.1981 221.267 70.1846C223.099 70.1655 224.924 70.4101 226.685 70.9109C227.568 71.1631 228.427 71.492 229.252 71.8939C229.456 72.0006 229.655 72.1189 229.856 72.2309L230.156 72.4013L230.442 72.5971C230.631 72.7294 230.825 72.855 231.009 72.9928L231.541 73.4381C232.931 74.664 233.918 76.282 234.373 78.0796C234.768 79.8478 234.818 81.6758 234.521 83.4631C234.52 83.4698 234.518 83.4762 234.514 83.482C234.511 83.4878 234.506 83.4929 234.501 83.4969C234.495 83.5009 234.489 83.5038 234.483 83.5055C234.476 83.5071 234.469 83.5074 234.463 83.5064C234.45 83.5043 234.438 83.4975 234.43 83.4873C234.422 83.477 234.418 83.4641 234.419 83.4511C234.592 81.6857 234.438 79.9035 233.964 78.194C233.459 76.5241 232.468 75.0426 231.118 73.9384L230.606 73.5436C230.428 73.4221 230.241 73.3122 230.06 73.196L229.786 73.0237L229.497 72.8759C229.304 72.7787 229.114 72.6753 228.919 72.5829C228.127 72.2256 227.306 71.9359 226.465 71.7171C224.775 71.2822 223.031 71.0929 221.287 71.155C220.417 71.1816 219.55 71.2698 218.693 71.4189C217.834 71.559 216.986 71.7569 216.154 72.0113C215.322 72.2665 214.507 72.5721 213.712 72.9266C212.921 73.2875 212.149 73.6907 211.4 74.1344C209.894 75.0281 208.473 76.0581 207.154 77.2114C206.505 77.7798 205.909 78.4055 205.372 79.0809C205.109 79.4118 204.869 79.7603 204.654 80.124C204.555 80.306 204.455 80.4875 204.375 80.6725C204.299 80.8369 204.238 81.0077 204.192 81.183L204.182 81.2311C203.388 84.2568 202.582 87.2792 201.763 90.2983L199.277 99.3485L199.274 99.3563C199.266 99.3873 199.251 99.4163 199.232 99.4417C199.212 99.4671 199.187 99.4884 199.159 99.5043C199.132 99.5202 199.101 99.5304 199.069 99.5344C199.037 99.5384 199.005 99.536 198.974 99.5275L198.957 99.5223C197.313 98.9404 195.672 98.3487 194.02 97.7898L191.546 96.9402C190.72 96.6597 189.898 96.3678 189.07 96.0967L189.119 96.1049C188.291 96.1555 187.484 96.3878 186.755 96.7854C186.006 97.1694 185.295 97.6225 184.631 98.1391C183.958 98.6499 183.315 99.198 182.703 99.7806C182.09 100.36 181.49 100.965 180.935 101.588L180.933 101.188C182.367 102.606 183.89 103.931 185.492 105.156C187.079 106.393 188.743 107.525 190.476 108.547C191.343 109.051 192.226 109.524 193.134 109.939C194.036 110.362 194.968 110.721 195.921 111.011C197.803 111.632 199.794 111.855 201.767 111.665L201.781 111.663C201.863 111.654 201.946 111.674 202.015 111.719C202.084 111.765 202.136 111.832 202.161 111.911C202.469 112.877 202.833 113.846 203.22 114.794C203.608 115.745 204.032 116.681 204.505 117.59C204.957 118.51 205.478 119.396 206.062 120.238C206.633 121.089 207.329 121.85 208.127 122.494C208.138 122.502 208.145 122.514 208.147 122.528C208.149 122.541 208.146 122.555 208.138 122.566C208.13 122.576 208.119 122.583 208.106 122.586C208.093 122.588 208.08 122.586 208.069 122.579Z" fill="black"/>
</svg>
