<svg width="382" height="208" viewBox="0 0 382 208" fill="none" xmlns="http://www.w3.org/2000/svg">
<g clip-path="url(#clip0_5_822)">
<ellipse cx="125.119" cy="137.629" rx="54" ry="40.5" transform="rotate(8.0096 125.119 137.629)" fill="#F0C999"/>
<path d="M128.901 88.2003C129.271 87.9344 129.615 87.6327 129.926 87.2997C130.233 86.9659 130.511 86.6071 130.757 86.227C131.003 85.8478 131.22 85.4509 131.407 85.0396C131.592 84.6314 131.749 84.2111 131.877 83.7817L131.918 83.6381L132.069 83.659C132.184 83.6744 132.3 83.6658 132.41 83.6338C132.521 83.6018 132.623 83.5471 132.711 83.4733C132.904 83.31 133.062 83.1098 133.176 82.8845C133.415 82.4089 133.588 81.9032 133.69 81.3813L133.688 81.43C133.662 81.0478 133.604 80.6685 133.515 80.2959C133.449 79.9426 133.282 79.6156 133.035 79.3535C132.898 79.2535 132.733 79.1977 132.563 79.1938C132.393 79.1898 132.226 79.2379 132.085 79.3315C131.747 79.508 131.442 79.7407 131.184 80.0196L131.17 80.0344L131.16 80.0402C130.321 80.5176 129.332 80.6667 128.388 80.4584C127.464 80.2585 126.579 79.9101 125.768 79.4269C124.951 78.9605 124.173 78.4291 123.442 77.8379C122.707 77.2496 122.012 76.6119 121.364 75.9295L121.685 75.8758C121.191 77.1777 120.82 78.5225 120.577 79.8929C120.306 81.2515 120.234 82.6421 120.364 84.0213C120.467 85.3946 121.008 86.6994 121.908 87.7463C122.897 88.7355 124.17 89.3956 125.552 89.6358L125.545 89.6784C124.838 89.5877 124.145 89.4063 123.484 89.1387C122.817 88.8581 122.209 88.4558 121.691 87.9527C120.696 86.8838 120.078 85.522 119.931 84.0731C119.785 82.6507 119.851 81.2145 120.126 79.8111C120.396 78.4156 120.799 77.0489 121.33 75.7295L121.445 75.4453L121.651 75.6759C122.271 76.3612 122.931 77.0098 123.628 77.6183C124.322 78.2339 125.067 78.7894 125.855 79.279C126.639 79.7748 127.505 80.129 128.413 80.3253C129.318 80.518 130.262 80.3509 131.044 79.8597L131.02 79.8802C131.285 79.5648 131.603 79.2977 131.959 79.0907C132.15 78.982 132.362 78.9152 132.581 78.8948C132.819 78.8794 133.053 78.9521 133.24 79.0988C133.563 79.3903 133.783 79.7771 133.869 80.2023C133.969 80.5949 134.036 80.9951 134.07 81.3988L134.073 81.4227L134.068 81.4476C133.966 82.0124 133.774 82.5575 133.499 83.0624C133.358 83.3284 133.163 83.563 132.927 83.7521C132.8 83.8529 132.653 83.9261 132.495 83.9673C132.338 84.0084 132.173 84.0165 132.012 83.991L132.205 83.8685C132.068 84.3162 131.89 84.7508 131.675 85.1669C131.464 85.5813 131.222 85.9795 130.951 86.3582C130.683 86.7383 130.376 87.0897 130.035 87.4068C129.698 87.7249 129.325 88.0034 128.924 88.2368L128.901 88.2003Z" fill="black"/>
<path d="M121.482 81.7372C121.566 81.7343 121.646 81.6989 121.705 81.6385C121.764 81.578 121.797 81.4972 121.797 81.4132C121.797 81.3292 121.764 81.2484 121.705 81.188C121.646 81.1275 121.566 81.0921 121.482 81.0892C121.397 81.0921 121.317 81.1275 121.258 81.188C121.2 81.2484 121.167 81.3292 121.167 81.4132C121.167 81.4972 121.2 81.578 121.258 81.6385C121.317 81.6989 121.397 81.7343 121.482 81.7372ZM125.627 81.3484C125.712 81.3455 125.792 81.3101 125.85 81.2497C125.909 81.1892 125.942 81.1085 125.942 81.0244C125.942 80.9404 125.909 80.8596 125.85 80.7992C125.792 80.7387 125.712 80.7033 125.627 80.7004C125.543 80.7033 125.463 80.7387 125.404 80.7992C125.345 80.8596 125.312 80.9404 125.312 81.0244C125.312 81.1085 125.345 81.1892 125.404 81.2497C125.463 81.3101 125.543 81.3455 125.627 81.3484ZM122.186 84.4848C122.584 84.9142 123.106 85.2108 123.68 85.3339C123.965 85.3883 124.255 85.4106 124.545 85.4003C124.842 85.3839 125.138 85.3508 125.432 85.3013C125.294 85.363 125.152 85.4151 125.008 85.4686C124.86 85.5007 124.713 85.5466 124.56 85.5658C124.253 85.6114 123.94 85.6044 123.635 85.5449C123.329 85.4778 123.04 85.3498 122.785 85.1688C122.531 84.9942 122.325 84.7591 122.186 84.4848ZM120.422 79.4844C120.554 79.4067 120.699 79.3505 120.849 79.3181C120.998 79.282 121.15 79.2636 121.303 79.263C121.612 79.2548 121.918 79.3313 122.186 79.4844C122.03 79.4903 121.885 79.4777 121.738 79.4793L121.305 79.4789L120.87 79.4822C120.723 79.4835 120.577 79.4885 120.422 79.4844ZM124.298 79.4844C124.426 79.3998 124.566 79.3359 124.715 79.295C124.862 79.2507 125.015 79.2248 125.168 79.2179C125.324 79.2121 125.48 79.2292 125.631 79.2684C125.782 79.3081 125.923 79.382 126.041 79.4844C125.896 79.4597 125.75 79.4424 125.604 79.4323C125.46 79.4308 125.319 79.4267 125.177 79.4336C125.034 79.4372 124.891 79.4513 124.745 79.4577C124.599 79.4672 124.452 79.4803 124.298 79.4844ZM122.655 82.2686C122.619 82.4054 122.612 82.5479 122.633 82.6876C122.654 82.8273 122.704 82.9613 122.778 83.0816C122.872 83.1788 122.987 83.2539 123.113 83.3017C123.251 83.3533 123.399 83.3862 123.554 83.435C123.477 83.4554 123.397 83.4618 123.316 83.4754C123.235 83.4752 123.153 83.4693 123.07 83.4621C122.894 83.4358 122.732 83.3505 122.612 83.2203C122.555 83.1508 122.513 83.0702 122.489 82.9838C122.465 82.8973 122.459 82.8069 122.471 82.718C122.489 82.5541 122.553 82.3983 122.655 82.2686Z" fill="black"/>
<path d="M133.88 81.4134C136.5 74.8814 132.198 72.4708 132.198 72.4708C122.695 69.5548 121.508 75.8016 121.508 75.8016C121.508 75.8016 127.192 82.2558 131.103 79.9489C131.103 79.9489 132.879 77.6651 133.653 80.103L133.88 81.4134ZM115.282 126.395C115.599 124.518 115.898 122.638 116.178 120.755C116.451 118.872 116.721 116.986 116.897 115.096C116.943 114.627 116.966 114.156 116.964 113.684C116.963 113.571 116.954 113.458 116.938 113.347C116.931 113.298 116.918 113.252 116.897 113.208C116.874 113.158 116.847 113.11 116.818 113.064C116.69 112.868 116.553 112.679 116.405 112.498C115.777 111.754 115.298 110.897 114.997 109.973C114.722 109.038 114.627 108.061 114.717 107.091C114.806 106.13 115.001 105.182 115.299 104.264L115.419 104.477C111.532 103.721 107.603 103.194 103.654 102.896C99.7045 102.548 95.7435 102.334 91.7801 102.188C87.8147 102.045 83.8454 101.893 79.883 101.649C75.9208 101.396 71.958 101.144 68.0208 100.56L68.0834 100.543C67.5643 100.882 66.9846 101.119 66.3757 101.242C65.781 101.383 65.1769 101.481 64.568 101.537C63.3539 101.648 62.1331 101.67 60.9157 101.603C60.3138 101.585 59.706 101.596 59.1034 101.628C58.5039 101.648 57.9079 101.727 57.3239 101.863C57.1814 101.904 57.0424 101.955 56.9081 102.017C56.8236 102.054 56.7321 102.071 56.64 102.068C56.548 102.065 56.4577 102.042 56.3756 102.001C56.231 101.909 56.1115 101.783 56.0279 101.633C55.9443 101.484 55.8991 101.317 55.8963 101.146C55.8697 100.817 55.9523 100.488 56.1313 100.21C56.3138 99.9369 56.5745 99.7239 56.8798 99.5989L56.9121 99.8334L51.3553 99.1601L51.2597 99.1485L51.2325 99.0616C51.1663 98.8587 51.1478 98.6434 51.1785 98.4322C51.2105 98.2123 51.314 98.0088 51.473 97.8526C51.7964 97.5875 52.2042 97.4454 52.6234 97.4519C53.3646 97.4017 54.1188 97.3166 54.8669 97.239L59.3642 96.7427L63.865 96.2599C65.3688 96.1095 66.8629 95.9442 68.3854 95.8554C69.8895 95.8123 71.3905 95.6877 72.8955 95.5835L77.4076 95.2478L86.4317 94.5559C92.4424 94.0309 98.4784 93.7365 104.498 93.3695C110.523 93.026 116.544 92.6383 122.575 92.3615L122.571 92.3618C122.893 92.3145 123.199 92.1894 123.462 91.9975C123.725 91.8056 123.937 91.5526 124.079 91.2607C124.32 90.6454 124.359 89.9702 124.191 89.3315L124.234 89.3223C124.416 89.9714 124.386 90.661 124.15 91.2924C124.011 91.6032 123.793 91.8727 123.518 92.0743C123.241 92.2764 122.922 92.4123 122.584 92.4713L122.583 92.4715L122.58 92.4717L104.518 93.6817L95.4878 94.2969C93.9796 94.3995 92.4816 94.4969 90.9782 94.632L86.4668 94.995L77.4423 95.7024L72.9274 96.0296C71.4225 96.1271 69.9146 96.2456 68.4021 96.2823C66.9121 96.3626 65.4049 96.5216 63.9065 96.6651L59.4056 97.126L54.9018 97.5793C54.1489 97.65 53.4028 97.7275 52.6382 97.7719C52.2962 97.7602 51.9608 97.8674 51.6897 98.0749C51.5821 98.193 51.509 98.3381 51.4784 98.4945C51.4478 98.6509 51.4607 98.8127 51.5158 98.9623L51.3931 98.8638L56.9431 99.5903L57.3909 99.6489L56.9754 99.8248C56.7138 99.9283 56.4894 100.107 56.3309 100.339C56.1781 100.573 56.1066 100.85 56.1272 101.129C56.1271 101.261 56.159 101.391 56.2203 101.508C56.2815 101.625 56.3703 101.726 56.479 101.802C56.5326 101.829 56.5916 101.845 56.6519 101.846C56.7121 101.848 56.7719 101.836 56.8269 101.812C56.9686 101.748 57.1151 101.695 57.265 101.653C57.865 101.517 58.4773 101.439 59.0926 101.423C59.7031 101.395 60.3111 101.387 60.9231 101.409C62.132 101.485 63.3448 101.471 64.5516 101.369C65.1532 101.318 65.7503 101.225 66.3385 101.089C66.9235 100.975 67.482 100.754 67.9855 100.436L68.0174 100.413L68.0483 100.419C69.9976 100.747 71.9803 100.914 73.955 101.08C75.9322 101.236 77.9117 101.364 79.8934 101.462C83.857 101.656 87.8222 101.756 91.7908 101.854C95.7609 101.958 99.7267 102.177 103.688 102.511C107.654 102.827 111.598 103.374 115.499 104.151L115.675 104.189L115.62 104.365C115.327 105.259 115.132 106.182 115.04 107.118C114.943 108.048 115.024 108.988 115.278 109.888C115.56 110.783 116.014 111.616 116.615 112.339C116.766 112.53 116.907 112.728 117.038 112.933C117.071 112.988 117.101 113.045 117.128 113.104C117.157 113.168 117.177 113.236 117.186 113.306C117.204 113.43 117.212 113.555 117.212 113.68C117.209 114.16 117.181 114.64 117.128 115.118C116.937 117.018 116.633 118.898 116.323 120.777C116.01 122.656 115.677 124.531 115.324 126.402L115.282 126.395ZM85.7669 181.972C84.7487 185.188 84.6299 188.619 85.4233 191.897L85.7708 193.11C85.8716 193.525 85.9402 193.948 85.9757 194.374C86.074 195.234 85.9711 196.106 85.6751 196.92C85.5132 197.333 85.2655 197.707 84.948 198.018C84.6247 198.324 84.2381 198.558 83.8151 198.701C82.9789 198.959 82.095 199.025 81.2294 198.896L81.2527 198.897L68.6859 198.958C64.4969 198.987 60.3079 198.969 56.1189 198.977L55.9774 198.977L55.9364 198.855C55.7747 198.375 55.8069 197.851 56.0262 197.394C56.2431 196.961 56.5738 196.594 56.9833 196.332C57.1772 196.2 57.3813 196.083 57.5936 195.982C57.8063 195.892 58.0223 195.794 58.2303 195.719L59.4841 195.228C61.1514 194.562 62.8017 193.852 64.4155 193.068C66.0347 192.297 67.5989 191.417 69.0969 190.433C69.8419 189.939 70.5493 189.391 71.2134 188.794C71.8876 188.211 72.4453 187.507 72.8572 186.718L72.8523 186.738C72.9031 185.944 72.9375 185.15 72.9556 184.353C72.9631 183.956 72.9651 183.558 72.9568 183.16C72.9547 182.762 72.9205 182.365 72.8545 181.972C72.9299 182.364 72.9736 182.76 72.9852 183.159C73.003 183.557 73.0105 183.955 73.0125 184.354C73.014 185.151 72.9984 185.948 72.9659 186.744L72.9655 186.754L72.9609 186.764C72.5604 187.579 72.009 188.311 71.3357 188.923C70.6804 189.545 69.9754 190.113 69.2277 190.622C67.7329 191.633 66.1701 192.54 64.5503 193.338C62.9378 194.145 61.2953 194.889 59.623 195.568L58.3658 196.067C57.955 196.211 57.5635 196.405 57.2 196.643C56.8486 196.868 56.5646 197.183 56.378 197.555C56.2072 197.916 56.1794 198.327 56.3003 198.708L56.1179 198.586C60.3069 198.572 64.4957 198.533 68.6847 198.54L81.2517 198.536H81.2633L81.2752 198.537C82.0862 198.67 82.917 198.621 83.7062 198.392C84.0888 198.269 84.4392 198.063 84.7322 197.789C85.0252 197.516 85.2536 197.181 85.4007 196.809C85.69 196.038 85.797 195.212 85.7136 194.394C85.6846 193.981 85.6237 193.571 85.5315 193.168L85.2003 191.951C84.8279 190.299 84.6918 188.604 84.7962 186.915C84.8924 185.231 85.219 183.568 85.7669 181.972ZM197.275 180.831L200.839 184.703C201.43 185.35 202.033 185.99 202.599 186.664C203.167 187.335 203.717 188.021 204.249 188.721C205.313 190.12 206.322 191.557 207.277 193.032C207.754 193.775 208.223 194.5 208.676 195.275C208.846 195.591 208.943 195.941 208.96 196.299C208.977 196.657 208.914 197.015 208.775 197.345C208.636 197.676 208.425 197.972 208.157 198.212C207.889 198.452 207.57 198.63 207.225 198.732C207.108 198.759 206.99 198.785 206.872 198.805L206.515 198.828L205.856 198.834L203.217 198.852L197.94 198.864L195.301 198.87L194.642 198.872C194.391 198.888 194.139 198.84 193.912 198.732C193.682 198.614 193.493 198.43 193.37 198.204C193.247 197.978 193.194 197.72 193.22 197.464C193.236 197.339 193.268 197.217 193.317 197.101C193.36 196.998 193.402 196.894 193.45 196.793C193.541 196.589 193.644 196.39 193.75 196.194C193.968 195.803 194.218 195.431 194.497 195.081C195.056 194.381 195.734 193.784 196.5 193.316L196.508 193.312L196.519 193.306C196.847 193.18 197.112 192.932 197.258 192.614C197.3 192.455 197.288 192.287 197.224 192.135C197.181 192.06 197.142 191.982 197.092 191.909L196.919 191.7C196.644 191.443 196.346 191.211 196.03 191.007C195.712 190.788 195.402 190.56 195.094 190.329C193.867 189.399 192.692 188.406 191.565 187.363C192.738 188.354 193.937 189.315 195.187 190.202C195.501 190.423 195.816 190.64 196.138 190.848C196.474 191.049 196.789 191.283 197.08 191.545L197.278 191.775C197.337 191.859 197.388 191.952 197.439 192.042C197.529 192.244 197.548 192.471 197.493 192.685C197.413 192.88 197.295 193.056 197.146 193.205C196.996 193.354 196.819 193.471 196.623 193.551L196.642 193.541C195.913 194.005 195.272 194.591 194.746 195.274C194.484 195.615 194.252 195.976 194.05 196.355C193.951 196.545 193.856 196.737 193.772 196.934C193.729 197.032 193.69 197.132 193.65 197.232C193.616 197.318 193.593 197.409 193.583 197.502C193.567 197.684 193.606 197.867 193.694 198.027C193.783 198.187 193.918 198.317 194.082 198.4C194.255 198.48 194.445 198.513 194.635 198.496L195.295 198.49L197.935 198.468L203.216 198.424L205.856 198.414L206.516 198.413L206.818 198.395L207.111 198.336C207.399 198.252 207.665 198.105 207.89 197.905C208.114 197.706 208.291 197.46 208.408 197.184C208.525 196.909 208.578 196.611 208.565 196.312C208.552 196.014 208.473 195.722 208.332 195.457C207.906 194.718 207.428 193.967 206.962 193.233C206.017 191.762 205.054 190.301 204.016 188.893C203.498 188.188 202.964 187.496 202.413 186.817C201.861 186.14 201.277 185.488 200.707 184.82L197.275 180.831ZM132.063 83.8262C131.968 85.0185 131.969 86.2165 132.066 87.4087C132.114 88.0028 132.202 88.593 132.33 89.1754C132.449 89.7554 132.648 90.3162 132.923 90.8417C133.057 91.1002 133.229 91.3377 133.432 91.5468C133.628 91.7566 133.868 91.9211 134.134 92.0288C134.266 92.0829 134.403 92.1231 134.543 92.1487C134.688 92.1683 134.836 92.1793 134.983 92.1953C135.13 92.2102 135.278 92.2158 135.426 92.2121C135.574 92.2108 135.722 92.2203 135.871 92.2064C137.062 92.1444 138.25 91.932 139.445 91.77C141.839 91.3971 144.268 91.2958 146.685 91.4682C147.893 91.5606 149.095 91.7192 150.285 91.943C151.464 92.1687 152.65 92.3507 153.843 92.4743C155.035 92.599 156.233 92.6634 157.432 92.6674L161.046 92.7214L168.273 92.8382L182.727 93.1113L182.721 93.1114C184.868 93.005 187.015 92.9723 189.162 93.0003C191.309 93.029 193.457 93.1007 195.597 93.3C197.745 93.4608 199.87 93.8456 201.937 94.448C202.459 94.5981 202.965 94.797 203.449 95.0423C203.697 95.1648 203.931 95.3161 204.144 95.4929C204.263 95.5895 204.357 95.7135 204.417 95.8542C204.451 95.9406 204.453 96.0361 204.423 96.1239C204.392 96.2056 204.339 96.2776 204.271 96.3328C204.031 96.4922 203.76 96.5971 203.475 96.64C203.207 96.6928 202.937 96.7306 202.665 96.7532C202.125 96.8018 201.586 96.8169 201.047 96.8212L201.06 96.8206L197.659 97.1864L197.722 96.9225C197.928 97.0565 198.121 97.2083 198.3 97.3759C198.493 97.546 198.649 97.753 198.76 97.9846C198.82 98.1201 198.839 98.2705 198.813 98.4165C198.781 98.5646 198.698 98.6973 198.58 98.7924C198.375 98.9527 198.138 99.0664 197.884 99.1252C197.414 99.2427 196.934 99.3113 196.449 99.3298C195.967 99.3593 195.499 99.3453 195.024 99.352L195.125 99.3195C194.893 99.447 194.639 99.5271 194.376 99.5548C194.132 99.5878 193.887 99.6003 193.642 99.5923C193.16 99.5751 192.68 99.5172 192.208 99.4194C191.739 99.3213 191.277 99.1996 190.822 99.0579C190.367 98.917 189.921 98.754 189.476 98.586L189.568 98.5987L167.544 100.805L156.529 101.88L145.511 102.915L145.529 102.912C144.716 103.11 143.939 103.434 143.226 103.872C142.507 104.283 141.942 104.916 141.618 105.676C141.496 106.069 141.436 106.478 141.439 106.89C141.426 107.32 141.376 107.745 141.324 108.167C141.219 109.012 141.093 109.85 141 110.691C140.789 112.37 140.791 114.068 141.006 115.747C141.238 117.427 141.74 119.059 142.49 120.582L142.451 120.602C141.669 119.084 141.135 117.452 140.87 115.767C140.617 114.079 140.589 112.365 140.786 110.669C140.871 109.822 140.989 108.98 141.086 108.139C141.133 107.719 141.178 107.299 141.187 106.881C141.18 106.443 141.241 106.006 141.368 105.587C141.705 104.767 142.303 104.079 143.07 103.628C143.807 103.165 144.614 102.82 145.46 102.606L145.467 102.604L145.479 102.603L156.487 101.46L167.499 100.358L189.529 98.2098L189.576 98.2053L189.621 98.2226C190.058 98.3886 190.494 98.554 190.938 98.6957C191.381 98.8385 191.83 98.961 192.283 99.0603C192.733 99.158 193.191 99.2178 193.651 99.2389C193.877 99.2485 194.103 99.2393 194.327 99.2112C194.534 99.1901 194.736 99.1336 194.923 99.0442L194.979 99.0119L195.024 99.0117C195.494 99.0094 195.971 99.0274 196.432 99.003C196.893 98.99 197.351 98.9295 197.8 98.8227C198.008 98.7775 198.205 98.6885 198.376 98.5617C198.446 98.5099 198.495 98.4346 198.515 98.3496C198.534 98.2645 198.521 98.1755 198.48 98.0988C198.26 97.7154 197.945 97.3939 197.566 97.1644L197.24 96.9386L197.629 96.9005L201.033 96.5664L201.04 96.5657H201.047C201.581 96.5664 202.115 96.5563 202.644 96.5137C202.907 96.4946 203.169 96.4602 203.428 96.4107C203.675 96.3754 203.912 96.2891 204.123 96.1573C204.161 96.1343 204.19 96.0988 204.205 96.0569C204.219 96.015 204.218 95.9694 204.202 95.9281C204.154 95.8239 204.083 95.732 203.994 95.6596C203.796 95.4937 203.578 95.3514 203.347 95.2355C202.875 94.9929 202.382 94.7955 201.873 94.6458C199.823 94.0342 197.714 93.6383 195.581 93.4647C193.449 93.257 191.305 93.1553 189.161 93.1347C187.017 93.1172 184.871 93.1605 182.731 93.277L182.728 93.2772L182.725 93.2772L168.269 93.1701L161.041 93.0968C158.637 93.0467 156.217 93.1248 153.803 92.8437C152.6 92.7132 151.403 92.5237 150.217 92.291C149.041 92.0642 147.853 91.9018 146.659 91.8047C144.265 91.6261 141.859 91.706 139.482 92.0432C138.289 92.1907 137.098 92.3907 135.88 92.4403C135.728 92.4526 135.575 92.4415 135.422 92.441C135.269 92.4429 135.116 92.4353 134.964 92.4182C134.811 92.3999 134.659 92.3867 134.505 92.3639C134.35 92.3338 134.198 92.2875 134.052 92.2256C133.759 92.1044 133.498 91.92 133.286 91.6858C133.075 91.4599 132.897 91.2046 132.76 90.9279C132.488 90.3834 132.295 89.8041 132.184 89.2066C132.066 88.616 131.989 88.0182 131.952 87.4173C131.878 86.2189 131.901 85.0166 132.02 83.8218L132.063 83.8262Z" fill="black"/>
<path d="M122.575 92.4176C122.642 93.2563 122.774 94.0886 122.968 94.9074C123.145 95.7212 123.425 96.5096 123.8 97.2538C124.15 97.9858 124.708 98.6002 125.404 99.0217C126.122 99.3848 126.952 99.4666 127.728 99.2508C128.527 99.0643 129.285 98.7314 129.963 98.2691C130.628 97.7767 131.22 97.1951 131.725 96.5408C132.225 95.8717 132.653 95.1511 132.999 94.3914C133.362 93.6316 133.656 92.8411 133.877 92.0293C133.596 93.714 132.954 95.3189 131.995 96.7358C131.497 97.4451 130.893 98.0742 130.203 98.6013C129.485 99.1051 128.677 99.4685 127.822 99.6721C126.944 99.9056 126.009 99.8006 125.205 99.3782C124.447 98.9082 123.852 98.2179 123.502 97.4009C122.83 95.8273 122.513 94.1261 122.575 92.4176ZM137.831 92.1324C137.679 92.7638 137.547 93.397 137.452 94.0359C137.345 94.672 137.263 95.3115 137.215 95.9524C137.099 97.2272 137.132 98.5109 137.314 99.7781C137.485 101.038 137.917 102.248 138.584 103.333C139.298 104.405 140.27 105.282 141.412 105.885C140.798 105.647 140.22 105.328 139.69 104.939C139.167 104.53 138.702 104.052 138.308 103.519C137.551 102.422 137.063 101.163 136.884 99.8437C136.697 98.5416 136.697 97.2197 136.884 95.9176C137.049 94.6233 137.367 93.3528 137.831 92.1324ZM115.457 104.315C115.981 102.239 116.634 100.198 117.413 98.2023C117.808 97.2069 118.212 96.2137 118.689 95.2504C119.125 94.2645 119.708 93.3499 120.42 92.538C120.114 92.9743 119.853 93.4403 119.641 93.9289C119.407 94.4055 119.208 94.9004 118.999 95.3887C118.589 96.3704 118.204 97.3647 117.818 98.3577L116.659 101.341C116.273 102.336 115.873 103.328 115.457 104.315ZM161.757 159.324C161.764 159.327 161.772 159.335 161.779 159.338C161.786 159.349 161.797 159.36 161.804 159.371L161.757 159.324Z" fill="black"/>
<path d="M185.856 166.21C181.163 161.548 166.614 154.081 166.614 154.081C166.978 154.493 167.29 154.948 167.541 155.436C167.806 155.916 168.007 156.428 168.142 156.959C167.423 156.125 166.9 155.142 166.614 154.081L144.243 126.243L142.47 120.594C139.278 121.674 135.987 122.443 132.644 122.888C135.168 125.85 137.63 128.855 140.081 131.874C142.525 134.901 144.969 137.935 147.325 141.038C149.691 144.131 152.021 147.248 154.443 150.301C156.861 153.335 159.307 156.347 161.782 159.337C164.54 161.337 167.287 163.352 170.021 165.384C172.769 167.409 175.513 169.441 178.235 171.506C180.961 173.561 183.658 175.659 186.369 177.735C189.062 179.833 191.758 181.927 194.422 184.069C194.425 184.072 194.428 184.076 194.431 184.08C194.433 184.084 194.434 184.089 194.434 184.094C194.435 184.098 194.434 184.103 194.433 184.108C194.431 184.112 194.428 184.116 194.425 184.12C194.42 184.127 194.412 184.132 194.403 184.133C194.394 184.134 194.385 184.132 194.378 184.127C191.575 182.171 188.805 180.172 186.035 178.176C183.28 176.154 180.51 174.154 177.774 172.115C175.026 170.086 172.307 168.021 169.589 165.952C166.867 163.89 164.156 161.815 161.455 159.727L161.448 159.72C161.433 159.708 161.419 159.695 161.408 159.68C159.052 156.58 156.673 153.499 154.271 150.435C151.857 147.38 149.351 144.393 146.881 141.381C144.405 138.379 142.012 135.305 139.623 132.231C137.242 129.15 134.875 126.057 132.571 122.918C132.568 122.915 132.566 122.913 132.565 122.909C132.563 122.906 132.563 122.903 132.563 122.899C121.715 124.269 116.245 120.812 116.245 120.812L115.304 126.4L86.0491 135.262C77.6043 138.529 77.9559 140.368 75.2558 144.36C72.4567 148.505 72.8378 181.971 72.8378 181.971H72.8561C72.8561 181.971 81.8322 184.877 85.7633 181.971C85.745 182.04 85.723 182.109 85.6974 182.178L85.767 181.971C90.6214 166.994 89.5919 158.715 89.2841 155.12C89.0423 152.326 90.0975 151.251 90.5994 150.905C90.3565 151.014 90.1021 151.096 89.841 151.149C89.486 151.229 89.119 151.238 88.7602 151.179C89.0679 150.986 89.41 150.855 89.7677 150.792C90.1229 150.715 90.4896 150.705 90.8485 150.763C90.8485 150.763 105.291 147.627 117.26 146.229C129.226 144.826 136.264 151.128 136.264 151.128L191.564 187.361C191.564 187.361 197.276 183.319 197.276 180.831C197.276 180.831 190.549 170.876 185.856 166.21ZM83.0449 144.2C82.9868 144.381 82.9145 144.558 82.8287 144.728L82.5576 145.238C82.4604 145.403 82.3527 145.563 82.2352 145.715C82.0101 146.029 81.7589 146.324 81.4841 146.596C81.1976 146.859 80.8927 147.101 80.5719 147.321C79.9279 147.752 79.2194 148.079 78.4726 148.29C77.7335 148.506 76.9632 148.597 76.1937 148.56C76.941 148.457 77.6753 148.276 78.3846 148.021C79.0857 147.772 79.7518 147.436 80.3667 147.019C80.6762 146.816 80.9701 146.591 81.246 146.345C81.5177 146.094 81.7722 145.825 82.008 145.54C82.4861 144.961 82.8978 144.331 83.2354 143.661C83.1768 143.839 83.1108 144.021 83.0449 144.2Z" fill="#33322E"/>
<path d="M186.58 184.098H85.1642" stroke="black" stroke-width="0.574" stroke-miterlimit="10"/>
<path d="M202.323 184.098L223.652 203.382H41.3477L72.8728 184.098" stroke="black" stroke-width="0.574" stroke-miterlimit="10"/>
<path d="M131.074 72.1588C131.074 72.1588 133.216 67.2216 137.439 71.1097C141.663 74.9977 134.992 77.8948 134.666 76.554" fill="black"/>
<path d="M56.9258 99.6035L59.82 99.7115L56.9258 99.8196V99.6035Z" fill="black"/>
<path d="M197.644 97.2602L194.398 97.0442L197.644 96.8281V97.2602Z" fill="black"/>
<path d="M117.023 113.18C117.118 113.299 117.236 113.398 117.37 113.471C117.496 113.549 117.634 113.605 117.779 113.638C118.068 113.703 118.367 113.714 118.66 113.67C118.96 113.63 119.256 113.564 119.544 113.475C119.838 113.388 120.123 113.276 120.422 113.18C120.294 113.268 120.158 113.345 120.025 113.428C119.888 113.504 119.743 113.563 119.601 113.631C119.455 113.692 119.307 113.745 119.155 113.791C119.001 113.831 118.844 113.862 118.687 113.885C118.365 113.932 118.036 113.902 117.729 113.795C117.575 113.746 117.433 113.666 117.312 113.56C117.191 113.454 117.093 113.325 117.023 113.18ZM129.199 113.18C129.295 113.299 129.412 113.398 129.546 113.471C129.672 113.549 129.81 113.605 129.955 113.638C130.244 113.703 130.543 113.714 130.836 113.67C131.136 113.63 131.432 113.564 131.72 113.475C132.014 113.388 132.299 113.276 132.598 113.18C132.47 113.268 132.334 113.345 132.201 113.428C132.064 113.504 131.919 113.563 131.777 113.631C131.631 113.692 131.483 113.745 131.331 113.791C131.177 113.831 131.02 113.862 130.863 113.885C130.541 113.932 130.212 113.902 129.905 113.795C129.751 113.746 129.609 113.666 129.488 113.56C129.367 113.454 129.269 113.325 129.199 113.18Z" fill="black"/>
<path d="M90.8402 150.768C90.7665 150.817 90.6894 150.861 90.6094 150.899C90.6815 150.847 90.7589 150.803 90.8402 150.768ZM132.625 122.871C132.628 122.878 132.636 122.882 132.643 122.889C132.617 122.895 132.59 122.898 132.562 122.9C132.561 122.894 132.562 122.887 132.564 122.881C132.567 122.875 132.571 122.87 132.577 122.867C132.584 122.862 132.593 122.859 132.602 122.859C132.611 122.86 132.619 122.864 132.625 122.871ZM161.806 159.371L161.759 159.323C161.766 159.327 161.773 159.334 161.781 159.338C161.788 159.349 161.799 159.36 161.806 159.371Z" fill="white"/>
</g>
<defs>
<clipPath id="clip0_5_822">
<rect width="382" height="208" fill="white"/>
</clipPath>
</defs>
</svg>
