<svg width="382" height="208" viewBox="0 0 382 208" fill="none" xmlns="http://www.w3.org/2000/svg">
<ellipse cx="125.119" cy="104.629" rx="54" ry="40.5" transform="rotate(8.0096 125.119 104.629)" fill="#F0C999"/>
<path d="M128.901 55.2003C129.271 54.9344 129.615 54.6327 129.926 54.2997C130.233 53.9659 130.511 53.6071 130.757 53.227C131.003 52.8478 131.22 52.4509 131.407 52.0396C131.592 51.6314 131.749 51.2111 131.877 50.7817L131.918 50.6381L132.069 50.659C132.184 50.6744 132.3 50.6658 132.41 50.6338C132.521 50.6018 132.623 50.5471 132.711 50.4733C132.904 50.31 133.062 50.1098 133.176 49.8845C133.415 49.4089 133.588 48.9032 133.69 48.3813L133.688 48.43C133.662 48.0478 133.604 47.6685 133.515 47.2959C133.449 46.9426 133.282 46.6156 133.035 46.3535C132.898 46.2535 132.733 46.1977 132.563 46.1938C132.393 46.1898 132.226 46.2379 132.085 46.3315C131.747 46.508 131.442 46.7407 131.184 47.0196L131.17 47.0344L131.16 47.0402C130.321 47.5176 129.332 47.6667 128.388 47.4584C127.464 47.2585 126.579 46.9101 125.768 46.4269C124.951 45.9605 124.173 45.4291 123.442 44.8379C122.707 44.2496 122.012 43.6119 121.364 42.9295L121.685 42.8758C121.191 44.1777 120.82 45.5225 120.577 46.8929C120.306 48.2515 120.234 49.6421 120.364 51.0213C120.467 52.3946 121.008 53.6994 121.908 54.7463C122.897 55.7355 124.17 56.3956 125.552 56.6358L125.545 56.6784C124.838 56.5877 124.145 56.4063 123.484 56.1387C122.817 55.8581 122.209 55.4558 121.691 54.9527C120.696 53.8838 120.078 52.522 119.931 51.0731C119.785 49.6507 119.851 48.2145 120.126 46.8111C120.396 45.4156 120.799 44.0489 121.33 42.7295L121.445 42.4453L121.651 42.6759C122.271 43.3612 122.931 44.0098 123.628 44.6183C124.322 45.2339 125.067 45.7894 125.855 46.279C126.639 46.7748 127.505 47.129 128.413 47.3253C129.318 47.518 130.262 47.3509 131.044 46.8597L131.02 46.8802C131.285 46.5648 131.603 46.2977 131.959 46.0907C132.15 45.982 132.362 45.9152 132.581 45.8948C132.819 45.8794 133.053 45.9521 133.24 46.0988C133.563 46.3903 133.783 46.7771 133.869 47.2023C133.969 47.5949 134.036 47.9951 134.07 48.3988L134.073 48.4227L134.068 48.4476C133.966 49.0124 133.774 49.5575 133.499 50.0624C133.358 50.3284 133.163 50.563 132.927 50.7521C132.8 50.8529 132.653 50.9261 132.495 50.9673C132.338 51.0084 132.173 51.0165 132.012 50.9911L132.205 50.8685C132.068 51.3162 131.89 51.7508 131.675 52.1669C131.464 52.5813 131.222 52.9795 130.951 53.3582C130.683 53.7383 130.376 54.0897 130.035 54.4068C129.698 54.7249 129.325 55.0034 128.924 55.2368L128.901 55.2003Z" fill="black"/>
<path d="M121.482 48.7372C121.566 48.7343 121.646 48.6989 121.705 48.6385C121.764 48.578 121.797 48.4972 121.797 48.4132C121.797 48.3292 121.764 48.2484 121.705 48.188C121.646 48.1275 121.566 48.0921 121.482 48.0892C121.397 48.0921 121.317 48.1275 121.258 48.188C121.2 48.2484 121.167 48.3292 121.167 48.4132C121.167 48.4972 121.2 48.578 121.258 48.6385C121.317 48.6989 121.397 48.7343 121.482 48.7372ZM125.627 48.3484C125.712 48.3455 125.792 48.3101 125.85 48.2497C125.909 48.1892 125.942 48.1085 125.942 48.0244C125.942 47.9404 125.909 47.8596 125.85 47.7992C125.792 47.7387 125.712 47.7033 125.627 47.7004C125.543 47.7033 125.463 47.7387 125.404 47.7992C125.345 47.8596 125.312 47.9404 125.312 48.0244C125.312 48.1085 125.345 48.1892 125.404 48.2497C125.463 48.3101 125.543 48.3455 125.627 48.3484ZM122.186 51.4848C122.584 51.9142 123.106 52.2108 123.68 52.3339C123.965 52.3883 124.255 52.4106 124.545 52.4003C124.842 52.3839 125.138 52.3508 125.432 52.3013C125.294 52.363 125.152 52.4151 125.008 52.4686C124.86 52.5007 124.713 52.5466 124.56 52.5658C124.253 52.6114 123.94 52.6044 123.635 52.5449C123.329 52.4778 123.04 52.3498 122.785 52.1688C122.531 51.9942 122.325 51.7591 122.186 51.4848ZM120.422 46.4844C120.554 46.4067 120.699 46.3505 120.849 46.3181C120.998 46.282 121.15 46.2636 121.303 46.263C121.612 46.2548 121.918 46.3313 122.186 46.4844C122.03 46.4903 121.885 46.4777 121.738 46.4793L121.305 46.4789L120.87 46.4822C120.723 46.4835 120.577 46.4885 120.422 46.4844ZM124.298 46.4844C124.426 46.3998 124.566 46.3359 124.715 46.295C124.862 46.2507 125.015 46.2248 125.168 46.2179C125.324 46.2121 125.48 46.2292 125.631 46.2684C125.782 46.3081 125.923 46.382 126.041 46.4844C125.896 46.4597 125.75 46.4424 125.604 46.4323C125.46 46.4308 125.319 46.4267 125.177 46.4336C125.034 46.4372 124.891 46.4513 124.745 46.4577C124.599 46.4672 124.452 46.4803 124.298 46.4844ZM122.655 49.2686C122.619 49.4054 122.612 49.5479 122.633 49.6876C122.654 49.8273 122.704 49.9613 122.778 50.0816C122.872 50.1788 122.987 50.2539 123.113 50.3017C123.251 50.3533 123.399 50.3862 123.554 50.435C123.477 50.4554 123.397 50.4618 123.316 50.4754C123.235 50.4752 123.153 50.4693 123.07 50.4621C122.894 50.4358 122.732 50.3505 122.612 50.2203C122.555 50.1508 122.513 50.0702 122.489 49.9838C122.465 49.8973 122.459 49.8069 122.471 49.718C122.489 49.5541 122.553 49.3983 122.655 49.2686Z" fill="black"/>
<path d="M133.88 48.4134C136.5 41.8814 132.198 39.4708 132.198 39.4708C122.695 36.5548 121.508 42.8016 121.508 42.8016C121.508 42.8016 127.192 49.2558 131.103 46.9489C131.103 46.9489 132.879 44.6651 133.653 47.103L133.88 48.4134ZM115.282 93.3945C115.599 91.5175 115.898 89.6377 116.178 87.7549C116.451 85.8721 116.721 83.9862 116.897 82.0965C116.943 81.6272 116.966 81.1559 116.964 80.6844C116.963 80.5713 116.955 80.4585 116.938 80.3467C116.931 80.2985 116.918 80.2516 116.897 80.2076C116.874 80.158 116.847 80.1099 116.818 80.0636C116.69 79.8681 116.553 79.6792 116.405 79.4978C115.777 78.7541 115.298 77.8967 114.997 76.9727C114.722 76.0382 114.627 75.0605 114.717 74.091C114.806 73.1302 115.001 72.1822 115.299 71.2637L115.419 71.4769C111.532 70.7215 107.603 70.1936 103.654 69.8961C99.7045 69.5485 95.7435 69.3336 91.7801 69.1879C87.8147 69.0446 83.8454 68.8934 79.883 68.6492C75.9208 68.3959 71.958 68.1439 68.0208 67.5604L68.0834 67.5428C67.5643 67.882 66.9846 68.1192 66.3757 68.2416C65.781 68.3828 65.1769 68.4814 64.568 68.5367C63.3539 68.6484 62.1331 68.6704 60.9157 68.6025C60.3138 68.5849 59.706 68.5965 59.1034 68.6282C58.5039 68.6483 57.9079 68.727 57.3239 68.8634C57.1814 68.9036 57.0424 68.9551 56.9081 69.0174C56.8236 69.0536 56.7321 69.071 56.64 69.0682C56.548 69.0654 56.4577 69.0425 56.3756 69.0012C56.231 68.909 56.1115 68.7826 56.0279 68.6334C55.9443 68.4842 55.8991 68.3168 55.8963 68.146C55.8697 67.817 55.9523 67.4884 56.1313 67.2104C56.3138 66.9369 56.5745 66.7239 56.8798 66.5989L56.9121 66.8334L51.3553 66.1601L51.2597 66.1485L51.2325 66.0616C51.1663 65.8587 51.1478 65.6434 51.1785 65.4322C51.2105 65.2123 51.314 65.0088 51.473 64.8526C51.7964 64.5875 52.2042 64.4454 52.6234 64.4519C53.3646 64.4017 54.1188 64.3166 54.8669 64.239L59.3642 63.7427L63.865 63.2599C65.3688 63.1095 66.8629 62.9442 68.3854 62.8554C69.8895 62.8123 71.3905 62.6877 72.8956 62.5835L77.4076 62.2478L86.4317 61.5559C92.4424 61.0309 98.4784 60.7365 104.498 60.3695C110.523 60.026 116.544 59.6383 122.575 59.3615L122.571 59.3618C122.893 59.3145 123.199 59.1894 123.462 58.9975C123.725 58.8056 123.937 58.5526 124.079 58.2607C124.32 57.6454 124.359 56.9702 124.191 56.3315L124.234 56.3223C124.416 56.9714 124.386 57.661 124.15 58.2924C124.011 58.6032 123.793 58.8727 123.518 59.0743C123.241 59.2764 122.922 59.4123 122.584 59.4713L122.583 59.4715L122.58 59.4717L104.518 60.6817L95.4878 61.2969C93.9796 61.3995 92.4816 61.4969 90.9782 61.632L86.4668 61.995L77.4423 62.7024L72.9274 63.0296C71.4225 63.1271 69.9146 63.2456 68.4021 63.2823C66.9121 63.3626 65.4049 63.5216 63.9065 63.6651L59.4056 64.126L54.9018 64.5793C54.1489 64.65 53.4028 64.7275 52.6382 64.7719C52.2962 64.7602 51.9608 64.8674 51.6897 65.0749C51.5821 65.193 51.509 65.3381 51.4784 65.4945C51.4478 65.6509 51.4607 65.8127 51.5158 65.9623L51.3931 65.8638L56.9431 66.5903L57.3909 66.6489L56.9754 66.8248C56.7138 66.9283 56.4894 67.1074 56.3309 67.3388C56.1781 67.5729 56.1066 67.8503 56.1272 68.1286C56.1271 68.2607 56.159 68.3909 56.2203 68.5081C56.2815 68.6253 56.3703 68.7262 56.479 68.8021C56.5326 68.8295 56.5916 68.8446 56.6519 68.8462C56.7121 68.8479 56.7719 68.836 56.8269 68.8116C56.9686 68.7477 57.1151 68.6948 57.265 68.6534C57.865 68.5166 58.4773 68.4393 59.0926 68.4228C59.7031 68.3948 60.3111 68.3872 60.9231 68.4092C62.132 68.4849 63.3448 68.4713 64.5516 68.3685C65.1532 68.318 65.7503 68.2247 66.3385 68.0894C66.9235 67.9751 67.482 67.7536 67.9855 67.4362L68.0174 67.4134L68.0483 67.4186C69.9976 67.7466 71.9803 67.9139 73.955 68.0796C75.9322 68.236 77.9117 68.3635 79.8934 68.4623C83.857 68.6564 87.8222 68.7557 91.7908 68.854C95.7609 68.9583 99.7266 69.1772 103.688 69.5107C107.654 69.8267 111.598 70.3745 115.499 71.1513L115.675 71.1889L115.62 71.3646C115.327 72.2586 115.132 73.1817 115.04 74.1177C114.943 75.0479 115.024 75.9879 115.278 76.8883C115.56 77.7833 116.014 78.6156 116.615 79.339C116.766 79.5296 116.907 79.7279 117.038 79.9331C117.071 79.988 117.101 80.045 117.128 80.1037C117.157 80.1679 117.177 80.2361 117.186 80.3061C117.204 80.4298 117.212 80.5546 117.212 80.6796C117.209 81.16 117.181 81.6399 117.128 82.1175C116.937 84.0177 116.633 85.8982 116.323 87.7775C116.01 89.656 115.677 91.5309 115.324 93.4022L115.282 93.3945ZM85.7669 148.972C84.7487 152.188 84.6299 155.619 85.4233 158.897L85.7708 160.11C85.8716 160.525 85.9402 160.948 85.9757 161.374C86.074 162.234 85.9711 163.106 85.6751 163.92C85.5132 164.333 85.2655 164.707 84.948 165.018C84.6247 165.324 84.2381 165.558 83.8151 165.702C82.9789 165.959 82.095 166.025 81.2294 165.896L81.2527 165.897L68.6859 165.958C64.4969 165.987 60.3079 165.969 56.1189 165.977L55.9774 165.977L55.9364 165.855C55.7747 165.375 55.8069 164.851 56.0262 164.394C56.2431 163.961 56.5738 163.594 56.9833 163.332C57.1772 163.2 57.3813 163.083 57.5936 162.982C57.8063 162.892 58.0223 162.794 58.2303 162.719L59.4841 162.228C61.1514 161.562 62.8017 160.852 64.4155 160.068C66.0347 159.297 67.5989 158.417 69.0969 157.433C69.8419 156.939 70.5493 156.391 71.2135 155.794C71.8876 155.211 72.4453 154.507 72.8572 153.718L72.8523 153.738C72.9031 152.944 72.9375 152.15 72.9556 151.353C72.9631 150.956 72.9651 150.558 72.9568 150.16C72.9547 149.762 72.9205 149.365 72.8545 148.972C72.9299 149.364 72.9736 149.76 72.9852 150.159C73.003 150.557 73.0105 150.955 73.0125 151.354C73.014 152.151 72.9984 152.948 72.9659 153.744L72.9655 153.754L72.9609 153.764C72.5604 154.579 72.009 155.311 71.3357 155.923C70.6804 156.545 69.9754 157.113 69.2277 157.622C67.7329 158.633 66.1701 159.54 64.5503 160.338C62.9378 161.145 61.2953 161.889 59.623 162.568L58.3658 163.067C57.955 163.211 57.5635 163.405 57.2 163.643C56.8486 163.868 56.5646 164.183 56.378 164.555C56.2072 164.916 56.1794 165.327 56.3003 165.708L56.1179 165.586C60.3069 165.572 64.4957 165.533 68.6847 165.54L81.2517 165.536H81.2633L81.2752 165.537C82.0862 165.67 82.917 165.621 83.7062 165.392C84.0888 165.269 84.4392 165.063 84.7322 164.789C85.0252 164.516 85.2536 164.181 85.4007 163.809C85.69 163.038 85.797 162.212 85.7136 161.394C85.6846 160.981 85.6237 160.571 85.5315 160.168L85.2003 158.951C84.8279 157.299 84.6918 155.604 84.7962 153.915C84.8924 152.231 85.219 150.568 85.7669 148.972ZM197.275 147.831L200.839 151.703C201.43 152.35 202.033 152.99 202.599 153.664C203.167 154.335 203.717 155.021 204.249 155.721C205.313 157.12 206.322 158.557 207.277 160.032C207.754 160.775 208.223 161.5 208.676 162.275C208.846 162.591 208.943 162.941 208.96 163.299C208.977 163.657 208.914 164.015 208.775 164.345C208.636 164.676 208.425 164.972 208.157 165.212C207.889 165.452 207.57 165.63 207.225 165.732C207.108 165.759 206.99 165.785 206.872 165.805L206.515 165.828L205.856 165.834L203.217 165.852L197.94 165.864L195.301 165.87L194.642 165.872C194.391 165.888 194.139 165.84 193.912 165.732C193.682 165.614 193.493 165.43 193.37 165.204C193.247 164.978 193.194 164.72 193.22 164.464C193.236 164.339 193.268 164.217 193.317 164.101C193.36 163.998 193.402 163.894 193.45 163.793C193.541 163.589 193.644 163.39 193.75 163.194C193.968 162.803 194.218 162.431 194.497 162.081C195.056 161.381 195.734 160.784 196.5 160.316L196.508 160.312L196.519 160.306C196.847 160.18 197.112 159.932 197.258 159.614C197.3 159.455 197.288 159.287 197.224 159.135C197.181 159.06 197.142 158.982 197.092 158.909L196.919 158.7C196.644 158.443 196.346 158.211 196.03 158.007C195.712 157.788 195.402 157.56 195.094 157.329C193.866 156.399 192.692 155.406 191.565 154.363C192.738 155.354 193.937 156.315 195.187 157.202C195.501 157.423 195.816 157.64 196.138 157.848C196.474 158.049 196.789 158.283 197.08 158.545L197.278 158.775C197.337 158.859 197.388 158.952 197.439 159.042C197.529 159.244 197.548 159.471 197.493 159.685C197.413 159.88 197.295 160.056 197.146 160.205C196.996 160.354 196.819 160.471 196.623 160.551L196.642 160.541C195.913 161.005 195.272 161.591 194.746 162.274C194.484 162.615 194.252 162.976 194.05 163.355C193.951 163.545 193.856 163.737 193.772 163.934C193.729 164.032 193.69 164.132 193.65 164.232C193.616 164.318 193.593 164.409 193.583 164.502C193.567 164.684 193.606 164.867 193.694 165.027C193.783 165.187 193.918 165.317 194.082 165.4C194.255 165.48 194.445 165.513 194.635 165.496L195.295 165.49L197.935 165.468L203.216 165.424L205.856 165.414L206.516 165.413L206.818 165.395L207.111 165.336C207.399 165.252 207.665 165.105 207.89 164.905C208.114 164.706 208.291 164.46 208.408 164.184C208.525 163.909 208.578 163.611 208.565 163.312C208.552 163.014 208.473 162.722 208.332 162.457C207.906 161.718 207.428 160.967 206.962 160.233C206.017 158.762 205.054 157.301 204.016 155.893C203.498 155.188 202.964 154.496 202.413 153.817C201.861 153.14 201.277 152.488 200.707 151.82L197.275 147.831ZM132.063 50.8262C131.968 52.0185 131.969 53.2165 132.066 54.4087C132.114 55.0028 132.202 55.593 132.33 56.1754C132.449 56.7554 132.648 57.3162 132.923 57.8417C133.057 58.1002 133.229 58.3377 133.432 58.5468C133.628 58.7566 133.868 58.9211 134.134 59.0288C134.266 59.0829 134.403 59.1231 134.543 59.1487C134.688 59.1683 134.836 59.1793 134.983 59.1953C135.13 59.2102 135.278 59.2158 135.426 59.2121C135.574 59.2108 135.722 59.2203 135.871 59.2064C137.062 59.1444 138.25 58.932 139.445 58.77C141.839 58.3971 144.268 58.2958 146.685 58.4682C147.893 58.5606 149.095 58.7192 150.285 58.943C151.464 59.1687 152.65 59.3507 153.843 59.4743C155.035 59.599 156.233 59.6634 157.432 59.6674L161.046 59.7214L168.273 59.8382L182.727 60.1113L182.721 60.1114C184.868 60.005 187.015 59.9723 189.162 60.0003C191.309 60.029 193.457 60.1007 195.597 60.3C197.745 60.4608 199.87 60.8456 201.937 61.448C202.459 61.5981 202.965 61.797 203.449 62.0423C203.697 62.1648 203.931 62.3161 204.144 62.4929C204.263 62.5895 204.357 62.7135 204.417 62.8542C204.451 62.9406 204.453 63.0361 204.423 63.1239C204.392 63.2056 204.339 63.2776 204.271 63.3328C204.031 63.4922 203.76 63.5971 203.475 63.64C203.207 63.6928 202.937 63.7306 202.665 63.7532C202.125 63.8018 201.586 63.8169 201.047 63.8212L201.06 63.8206L197.659 64.1864L197.722 63.9225C197.928 64.0565 198.121 64.2083 198.3 64.3759C198.493 64.546 198.649 64.753 198.76 64.9846C198.82 65.1201 198.839 65.2705 198.813 65.4165C198.781 65.5646 198.698 65.6973 198.58 65.7924C198.375 65.9527 198.138 66.0664 197.884 66.1252C197.414 66.2427 196.934 66.3113 196.449 66.3298C195.967 66.3593 195.499 66.3453 195.024 66.352L195.125 66.3195C194.893 66.447 194.639 66.5271 194.376 66.5548C194.132 66.5878 193.887 66.6003 193.642 66.5923C193.16 66.5751 192.68 66.5172 192.208 66.4194C191.739 66.3213 191.277 66.1996 190.822 66.0579C190.367 65.917 189.921 65.754 189.476 65.586L189.568 65.5987L167.544 67.8047L156.529 68.88L145.511 69.915L145.529 69.9119C144.716 70.1103 143.939 70.434 143.226 70.8715C142.507 71.283 141.942 71.9165 141.618 72.6759C141.496 73.0689 141.436 73.4783 141.439 73.8896C141.426 74.3202 141.376 74.7446 141.324 75.1671C141.219 76.012 141.093 76.8499 141 77.6911C140.789 79.37 140.791 81.0685 141.006 82.7469C141.238 84.427 141.74 86.0594 142.49 87.5825L142.451 87.6018C141.669 86.0841 141.135 84.4519 140.87 82.7668C140.617 81.0785 140.589 79.3645 140.786 77.6689C140.871 76.8221 140.989 75.9798 141.086 75.1394C141.133 74.7194 141.178 74.2989 141.187 73.8812C141.18 73.443 141.241 73.0064 141.368 72.5867C141.705 71.767 142.303 71.0794 143.07 70.6284C143.807 70.1647 144.614 69.8196 145.46 69.6059L145.467 69.604L145.479 69.6028L156.487 68.4604L167.499 67.3584L189.529 65.2098L189.576 65.2053L189.621 65.2226C190.058 65.3886 190.494 65.554 190.938 65.6957C191.381 65.8385 191.83 65.961 192.283 66.0603C192.733 66.158 193.191 66.2178 193.651 66.2389C193.877 66.2485 194.103 66.2393 194.327 66.2112C194.534 66.1901 194.736 66.1336 194.923 66.0442L194.979 66.0119L195.024 66.0117C195.494 66.0094 195.971 66.0274 196.432 66.003C196.893 65.99 197.351 65.9295 197.8 65.8227C198.008 65.7775 198.205 65.6885 198.376 65.5617C198.446 65.5099 198.495 65.4346 198.515 65.3496C198.534 65.2645 198.521 65.1755 198.48 65.0988C198.26 64.7154 197.945 64.3939 197.566 64.1644L197.24 63.9386L197.629 63.9005L201.033 63.5664L201.04 63.5657H201.047C201.581 63.5664 202.115 63.5563 202.644 63.5137C202.907 63.4946 203.169 63.4602 203.428 63.4107C203.675 63.3754 203.912 63.2891 204.123 63.1573C204.161 63.1343 204.19 63.0988 204.205 63.0569C204.219 63.015 204.218 62.9694 204.202 62.9281C204.154 62.8239 204.083 62.732 203.994 62.6596C203.796 62.4937 203.578 62.3514 203.347 62.2355C202.875 61.9929 202.382 61.7955 201.873 61.6458C199.823 61.0342 197.714 60.6383 195.581 60.4647C193.449 60.257 191.305 60.1553 189.161 60.1347C187.017 60.1172 184.871 60.1605 182.731 60.277L182.728 60.2772L182.725 60.2772L168.269 60.1701L161.041 60.0968C158.637 60.0467 156.217 60.1248 153.803 59.8437C152.6 59.7132 151.403 59.5237 150.217 59.291C149.041 59.0642 147.853 58.9018 146.659 58.8047C144.265 58.6261 141.859 58.706 139.482 59.0432C138.289 59.1907 137.098 59.3907 135.88 59.4403C135.728 59.4526 135.575 59.4415 135.422 59.441C135.269 59.4429 135.116 59.4353 134.964 59.4182C134.811 59.3999 134.659 59.3867 134.505 59.3639C134.35 59.3338 134.198 59.2875 134.052 59.2256C133.759 59.1044 133.498 58.92 133.286 58.6858C133.075 58.4599 132.897 58.2046 132.76 57.9279C132.488 57.3834 132.295 56.8041 132.184 56.2066C132.067 55.616 131.989 55.0182 131.952 54.4173C131.878 53.2189 131.901 52.0166 132.02 50.8218L132.063 50.8262Z" fill="black"/>
<path d="M122.575 59.4176C122.642 60.2563 122.774 61.0886 122.968 61.9074C123.145 62.7212 123.425 63.5096 123.8 64.2538C124.15 64.9858 124.708 65.6002 125.404 66.0217C126.122 66.3848 126.952 66.4666 127.728 66.2508C128.527 66.0643 129.285 65.7314 129.963 65.2691C130.628 64.7767 131.22 64.1951 131.725 63.5408C132.225 62.8717 132.653 62.1511 132.999 61.3914C133.362 60.6316 133.656 59.8411 133.877 59.0293C133.596 60.714 132.954 62.3189 131.995 63.7358C131.497 64.4451 130.893 65.0742 130.203 65.6013C129.485 66.1051 128.677 66.4685 127.822 66.6721C126.944 66.9056 126.009 66.8006 125.205 66.3782C124.447 65.9082 123.852 65.2179 123.502 64.4009C122.83 62.8273 122.513 61.1261 122.575 59.4176ZM137.831 59.1324C137.679 59.7638 137.547 60.397 137.452 61.0359C137.345 61.672 137.263 62.3115 137.215 62.9524C137.099 64.2272 137.132 65.5109 137.314 66.7781C137.485 68.0377 137.917 69.2481 138.584 70.3326C139.298 71.4046 140.27 72.2821 141.412 72.885C140.798 72.6465 140.22 72.3285 139.69 71.9392C139.167 71.5301 138.702 71.0525 138.308 70.5193C137.551 69.4215 137.063 68.1626 136.884 66.8437C136.697 65.5416 136.697 64.2197 136.884 62.9176C137.049 61.6233 137.367 60.3528 137.831 59.1324ZM115.457 71.3151C115.981 69.2391 116.634 67.1976 117.413 65.2023C117.808 64.2069 118.212 63.2137 118.689 62.2504C119.125 61.2645 119.708 60.3499 120.42 59.538C120.114 59.9743 119.853 60.4403 119.641 60.9289C119.407 61.4055 119.208 61.9004 118.999 62.3887C118.589 63.3704 118.204 64.3647 117.818 65.3577L116.659 68.3408C116.273 69.3363 115.873 70.3277 115.457 71.3151ZM161.757 126.324C161.764 126.327 161.772 126.335 161.779 126.338C161.786 126.349 161.797 126.36 161.804 126.371L161.757 126.324Z" fill="black"/>
<path d="M185.856 133.21C181.163 128.548 166.614 121.081 166.614 121.081C166.978 121.493 167.29 121.948 167.541 122.436C167.806 122.916 168.007 123.428 168.142 123.959C167.423 123.125 166.9 122.142 166.614 121.081L144.243 93.243L142.47 87.5938C139.278 88.6744 135.987 89.443 132.644 89.8884C135.168 92.8497 137.63 95.8546 140.081 98.8741C142.525 101.901 144.969 104.935 147.325 108.038C149.691 111.131 152.021 114.248 154.443 117.301C156.861 120.335 159.307 123.347 161.782 126.337C164.54 128.337 167.287 130.352 170.021 132.384C172.769 134.409 175.513 136.441 178.235 138.506C180.961 140.561 183.658 142.659 186.369 144.735C189.062 146.833 191.758 148.927 194.422 151.069C194.425 151.072 194.428 151.076 194.431 151.08C194.433 151.084 194.434 151.089 194.434 151.094C194.435 151.098 194.434 151.103 194.433 151.108C194.431 151.112 194.428 151.116 194.425 151.12C194.42 151.127 194.412 151.132 194.403 151.133C194.394 151.134 194.385 151.132 194.378 151.127C191.575 149.171 188.805 147.172 186.035 145.176C183.28 143.154 180.51 141.154 177.774 139.115C175.026 137.086 172.307 135.021 169.589 132.952C166.867 130.89 164.156 128.815 161.455 126.727L161.448 126.72C161.433 126.708 161.419 126.695 161.408 126.68C159.052 123.58 156.673 120.499 154.271 117.435C151.857 114.38 149.351 111.393 146.881 108.381C144.405 105.379 142.012 102.305 139.623 99.2311C137.242 96.1496 134.875 93.0573 132.571 89.9176C132.568 89.9155 132.566 89.9126 132.565 89.9095C132.563 89.9063 132.563 89.9028 132.563 89.8994C121.715 91.2689 116.245 87.8123 116.245 87.8123L115.304 93.3997L86.0491 102.262C77.6043 105.529 77.9559 107.368 75.2558 111.36C72.4567 115.505 72.8378 148.971 72.8378 148.971H72.8561C72.8561 148.971 81.8322 151.877 85.7633 148.971C85.745 149.04 85.723 149.109 85.6974 149.178L85.767 148.971C90.6214 133.994 89.5919 125.715 89.2841 122.12C89.0423 119.326 90.0975 118.251 90.5994 117.905C90.3565 118.014 90.1021 118.096 89.841 118.149C89.486 118.229 89.119 118.238 88.7602 118.179C89.0679 117.986 89.41 117.855 89.7677 117.792C90.1229 117.715 90.4896 117.705 90.8485 117.763C90.8485 117.763 105.291 114.627 117.26 113.229C129.226 111.826 136.264 118.128 136.264 118.128L191.564 154.361C191.564 154.361 197.276 150.319 197.276 147.831C197.276 147.831 190.549 137.876 185.856 133.21ZM83.0449 111.2C82.9868 111.381 82.9145 111.558 82.8287 111.728L82.5576 112.238C82.4604 112.403 82.3527 112.563 82.2352 112.715C82.0101 113.029 81.7589 113.324 81.4841 113.596C81.1976 113.859 80.8927 114.101 80.5719 114.321C79.9279 114.752 79.2194 115.079 78.4726 115.29C77.7335 115.506 76.9632 115.597 76.1937 115.56C76.941 115.457 77.6753 115.276 78.3846 115.021C79.0857 114.772 79.7518 114.436 80.3667 114.019C80.6762 113.816 80.9701 113.591 81.246 113.345C81.5177 113.094 81.7722 112.825 82.008 112.54C82.4861 111.961 82.8978 111.331 83.2354 110.661C83.1768 110.839 83.1108 111.021 83.0449 111.2Z" fill="#33322E"/>
<path d="M186.58 151.098H85.1642" stroke="black" stroke-width="0.574" stroke-miterlimit="10"/>
<path d="M202.323 151.098L223.652 170.382H41.3477L72.8728 151.098" stroke="black" stroke-width="0.574" stroke-miterlimit="10"/>
<path d="M131.074 39.1588C131.074 39.1588 133.216 34.2216 137.439 38.1097C141.663 41.9977 134.992 44.8948 134.666 43.554" fill="black"/>
<path d="M56.9258 66.6035L59.82 66.7115L56.9258 66.8196V66.6035Z" fill="black"/>
<path d="M197.644 64.2602L194.398 64.0442L197.644 63.8281V64.2602Z" fill="black"/>
<path d="M117.023 80.1797C117.118 80.2986 117.236 80.3976 117.37 80.4712C117.496 80.5487 117.634 80.6049 117.779 80.6377C118.068 80.703 118.367 80.7141 118.66 80.6703C118.96 80.6298 119.256 80.5644 119.544 80.4751C119.838 80.3884 120.123 80.2757 120.422 80.1797C120.294 80.2681 120.158 80.3445 120.025 80.4279C119.888 80.5039 119.743 80.5628 119.601 80.6314C119.455 80.6922 119.307 80.7455 119.155 80.7911C119.001 80.8311 118.844 80.8624 118.687 80.8847C118.365 80.9322 118.036 80.9016 117.729 80.7955C117.575 80.7461 117.433 80.666 117.312 80.5601C117.191 80.4542 117.093 80.3247 117.023 80.1797ZM129.199 80.1797C129.295 80.2986 129.412 80.3976 129.546 80.4712C129.672 80.5487 129.81 80.6049 129.955 80.6377C130.244 80.703 130.543 80.7141 130.836 80.6703C131.136 80.6298 131.432 80.5644 131.72 80.4751C132.014 80.3884 132.299 80.2757 132.598 80.1797C132.47 80.2681 132.334 80.3445 132.201 80.4279C132.064 80.5039 131.919 80.5628 131.777 80.6314C131.631 80.6922 131.483 80.7455 131.331 80.7911C131.177 80.8311 131.02 80.8624 130.863 80.8847C130.541 80.9322 130.212 80.9016 129.905 80.7955C129.751 80.7461 129.609 80.666 129.488 80.5601C129.367 80.4542 129.269 80.3248 129.199 80.1797Z" fill="black"/>
<path d="M90.8402 117.768C90.7665 117.817 90.6894 117.861 90.6094 117.899C90.6815 117.847 90.7589 117.803 90.8402 117.768ZM132.625 89.8709C132.628 89.8782 132.636 89.8818 132.643 89.8891C132.616 89.8945 132.59 89.8982 132.562 89.9C132.561 89.8937 132.562 89.8871 132.564 89.8812C132.567 89.8752 132.571 89.8704 132.577 89.8673C132.584 89.8616 132.593 89.8588 132.602 89.8595C132.611 89.8602 132.619 89.8643 132.625 89.8709ZM161.806 126.371L161.759 126.323C161.766 126.327 161.773 126.334 161.781 126.338C161.788 126.349 161.799 126.36 161.806 126.371Z" fill="white"/>
</svg>
