<svg width="382" height="208" viewBox="0 0 382 208" fill="none" xmlns="http://www.w3.org/2000/svg">
<g clip-path="url(#clip0_5_841)">
<path d="M95.2936 99.9972C95.148 100.362 94.9724 100.714 94.7684 101.05C94.5607 101.387 94.32 101.702 94.05 101.992C93.777 102.282 93.4737 102.542 93.1453 102.769C92.8134 103.004 92.4488 103.189 92.0631 103.319L92.0469 103.322C91.7575 103.346 91.4691 103.397 91.1767 103.396C90.8821 103.399 90.588 103.372 90.299 103.314C90.0063 103.261 89.7203 103.175 89.4463 103.059C89.1754 102.933 88.9189 102.778 88.6812 102.597C88.2105 102.231 87.8154 101.778 87.5178 101.261C87.2208 100.747 87.0041 100.19 86.8751 99.6098L87.2534 99.7944C86.9725 99.9201 86.6641 99.9721 86.3574 99.9454C86.0791 99.9321 85.8027 99.8922 85.532 99.8262C85.4981 99.8183 85.4662 99.8037 85.438 99.7834C85.4098 99.7632 85.3859 99.7375 85.3677 99.708C85.3494 99.6785 85.3371 99.6456 85.3315 99.6114C85.326 99.5771 85.3272 99.5421 85.3352 99.5083L85.3437 99.4795L85.3469 99.4707L85.9653 97.7579L85.9624 97.9454C85.6596 96.9535 85.5563 95.9115 85.6585 94.8796C85.7029 94.3726 85.7748 93.8684 85.874 93.3693C85.9729 92.8686 86.1025 92.3744 86.2621 91.8896C86.2756 91.8487 86.2984 91.8114 86.3285 91.7806C86.3587 91.7498 86.3956 91.7263 86.4362 91.7119C86.4769 91.6975 86.5203 91.6926 86.5632 91.6976C86.606 91.7026 86.6472 91.7173 86.6835 91.7406L86.6879 91.7436C87.2112 92.0845 87.7676 92.4052 88.325 92.7057C88.884 93.0052 89.4597 93.2724 90.0493 93.5061C90.6315 93.7449 91.2377 93.9201 91.8576 94.0287C92.4604 94.1564 93.0863 94.1239 93.6726 93.9345L93.6052 93.9882C93.8878 93.5885 94.278 93.277 94.7306 93.0897C94.8568 93.0438 94.9922 93.029 95.1253 93.0465C95.2585 93.064 95.3854 93.1132 95.4955 93.19C95.6 93.2651 95.6922 93.3559 95.7688 93.4592C95.8298 93.565 95.8987 93.6672 95.9511 93.7767C96.1395 94.2192 96.2038 94.7046 96.1372 95.1808C96.1208 95.4294 96.0409 95.6695 95.9051 95.8783C95.8224 95.993 95.7002 96.0731 95.562 96.1032C95.4303 96.1224 95.2959 96.1094 95.1704 96.0653L95.3057 95.9575C95.4504 96.9501 95.8819 97.8789 96.5473 98.6301C96.8754 99.0046 97.2642 99.3214 97.6975 99.5672C98.1296 99.8147 98.5944 100 99.0783 100.119H99.0089C99.4393 100.008 99.8791 99.9385 100.323 99.9104C100.785 99.8618 101.253 99.9292 101.683 100.107C101.922 100.218 102.111 100.414 102.213 100.658C102.299 100.896 102.318 101.153 102.269 101.401C102.22 101.784 102.312 102.172 102.529 102.491C102.744 102.817 103.048 103.074 103.406 103.232C103.568 103.311 103.746 103.352 103.926 103.353C104.107 103.355 104.285 103.315 104.448 103.238C104.766 103.045 105.001 102.742 105.109 102.387C105.238 102.002 105.312 101.6 105.328 101.194L105.363 101.35C104.903 100.481 104.551 99.5583 104.314 98.6036C104.056 97.6395 103.976 96.6366 104.077 95.6437C104.184 94.6096 104.627 93.6391 105.339 92.8812C105.702 92.5248 106.049 92.2184 106.421 91.8973C106.605 91.7395 106.791 91.5836 106.987 91.4313C107.084 91.3546 107.184 91.2798 107.292 91.2052C107.347 91.168 107.398 91.1311 107.465 91.0936C107.499 91.0746 107.523 91.0577 107.566 91.0373C107.613 91.0165 107.66 90.9973 107.707 90.98L107.599 91.6111C106.792 91.1173 105.88 90.8187 104.936 90.7391C103.982 90.652 103.02 90.7813 102.123 91.1173L101.392 91.3673C101.136 91.4415 100.876 91.5013 100.613 91.5464C100.078 91.6253 99.5341 91.6158 99.0023 91.5184C97.9305 91.3058 96.9864 90.6782 96.3761 89.7726C95.825 88.9937 95.0329 88.4173 94.1218 88.1319C93.183 87.9082 92.195 88.0262 91.3354 88.4647C90.896 88.6923 90.4699 88.9446 90.0592 89.2205C89.6382 89.4931 89.2202 89.7698 88.8079 90.0548C88.3976 90.342 87.9888 90.6325 87.5987 90.9453C87.4037 91.1017 87.2118 91.2618 87.0282 91.4302C86.8415 91.5841 86.6845 91.7707 86.5648 91.9809L86.555 92.003C86.5518 92.0102 86.546 92.0159 86.5387 92.0189C86.5314 92.0219 86.5233 92.022 86.516 92.0191C86.5087 92.0162 86.5027 92.0107 86.4994 92.0035C86.4961 91.9964 86.4956 91.9883 86.4982 91.9809C86.6016 91.7408 86.7551 91.5256 86.9485 91.3496C87.1236 91.166 87.3089 90.9935 87.4984 90.8263C87.8766 90.4905 88.2728 90.178 88.6712 89.8682C89.4652 89.2359 90.3019 88.6589 91.1752 88.1414C92.1085 87.6263 93.1952 87.461 94.2397 87.6755C95.2759 87.9581 96.1858 88.583 96.8209 89.4484C97.0886 89.8314 97.4293 90.1578 97.8235 90.4089C98.2178 90.6599 98.6578 90.8308 99.1183 90.9115C99.5792 90.984 100.049 90.9812 100.509 90.9031C100.738 90.8507 100.97 90.8051 101.195 90.7296L101.888 90.4843C102.881 90.0953 103.952 89.9422 105.014 90.0372C106.077 90.1322 107.103 90.4727 108.011 91.0317C108.054 91.0595 108.091 91.0972 108.117 91.1419C108.143 91.1866 108.158 91.2368 108.16 91.2884C108.163 91.34 108.153 91.3914 108.131 91.4384C108.11 91.4855 108.078 91.5267 108.037 91.5586L107.903 91.663C107.896 91.6687 107.887 91.6729 107.878 91.6754C107.867 91.6796 107.841 91.697 107.823 91.7069C107.785 91.727 107.739 91.7603 107.695 91.7899C107.606 91.8513 107.514 91.9195 107.423 91.9908C107.241 92.132 107.06 92.2826 106.881 92.4357C106.529 92.7399 106.151 93.0605 105.83 93.3713C105.215 94.0161 104.828 94.8443 104.729 95.7294C104.627 96.6427 104.691 97.567 104.918 98.4575C105.134 99.3632 105.452 100.241 105.867 101.075L105.874 101.091C105.896 101.134 105.905 101.183 105.901 101.232C105.872 101.693 105.777 102.147 105.62 102.581C105.457 103.057 105.122 103.456 104.68 103.7C104.449 103.807 104.196 103.861 103.941 103.856C103.686 103.851 103.436 103.789 103.208 103.673C102.773 103.465 102.407 103.136 102.156 102.724C101.896 102.309 101.797 101.814 101.878 101.331C101.937 101.162 101.933 100.977 101.868 100.81C101.802 100.643 101.679 100.506 101.52 100.422C101.147 100.262 100.741 100.195 100.336 100.227C99.9127 100.242 99.4916 100.296 99.0783 100.389L99.0674 100.391C99.048 100.396 99.0278 100.395 99.0088 100.389C98.506 100.248 98.0235 100.042 97.5733 99.7772C97.1213 99.5141 96.7166 99.1771 96.3762 98.7804C96.0327 98.3885 95.7502 97.9471 95.5384 97.4712C95.3252 96.9954 95.1778 96.4929 95.1002 95.9775C95.0977 95.9607 95.0994 95.9435 95.1054 95.9276C95.1114 95.9117 95.1213 95.8976 95.1342 95.8866C95.1472 95.8756 95.1627 95.8681 95.1794 95.8648C95.1961 95.8614 95.2133 95.8624 95.2295 95.8676L95.2356 95.8696C95.3195 95.9101 95.4149 95.9201 95.5055 95.8981C95.596 95.876 95.6761 95.8232 95.732 95.7487C95.8405 95.5694 95.9025 95.366 95.9124 95.1567C95.9679 94.7226 95.9043 94.2815 95.7285 93.8807C95.5548 93.4814 95.2004 93.1835 94.814 93.3413C94.4254 93.5239 94.0953 93.8108 93.8603 94.1699C93.8428 94.1934 93.8195 94.2119 93.7927 94.2237C93.1571 94.4586 92.4707 94.522 91.8028 94.4073C91.1503 94.3175 90.5096 94.1569 89.892 93.9285C89.277 93.7092 88.6752 93.455 88.0894 93.1669C87.5013 92.8818 86.929 92.5651 86.3751 92.2183L86.8008 92.0722C86.6609 92.5363 86.5454 93.0074 86.4548 93.4836C86.3619 93.9607 86.295 94.4425 86.2543 94.9268C86.2191 95.4074 86.2149 95.8897 86.2417 96.3707C86.2777 96.8438 86.3644 97.3116 86.5004 97.7662L86.5033 97.7757C86.5211 97.8341 86.5191 97.8967 86.4975 97.9538L85.8557 99.658L85.6707 99.3025C85.904 99.3621 86.1425 99.3998 86.3829 99.4149C86.5952 99.438 86.81 99.4104 87.0096 99.3344C87.0726 99.303 87.1455 99.298 87.2123 99.3204C87.279 99.3427 87.3342 99.3906 87.3655 99.4536C87.3756 99.4744 87.3832 99.4963 87.388 99.5189C87.5004 100.043 87.6897 100.548 87.9498 101.017C88.2013 101.49 88.5421 101.909 88.9535 102.252C89.1595 102.42 89.3827 102.566 89.6194 102.687C89.8621 102.798 90.1164 102.883 90.3776 102.94C90.6407 103.001 90.9095 103.035 91.1796 103.042C91.4507 103.052 91.7243 103.012 91.9978 103L91.9818 103.004C92.3397 102.896 92.6817 102.741 92.9986 102.543C93.3237 102.343 93.6265 102.109 93.902 101.846C94.1783 101.579 94.4275 101.285 94.6459 100.97C94.8681 100.653 95.0642 100.319 95.2322 99.9708C95.2359 99.9627 95.2425 99.9564 95.2508 99.9532C95.259 99.95 95.2682 99.9503 95.2763 99.9539C95.2841 99.9577 95.2901 99.9642 95.2933 99.9722C95.2965 99.9802 95.2966 99.9891 95.2936 99.9972Z" fill="black"/>
<path d="M95.7696 97.6991C95.8646 97.8916 95.8945 98.1096 95.8548 98.3205C95.8368 98.4239 95.8037 98.5241 95.7566 98.618C95.7308 98.6685 95.6991 98.7158 95.6621 98.7589C95.6411 98.7818 95.6179 98.8026 95.5929 98.8211C95.5799 98.8329 95.5636 98.8406 95.5462 98.8433C95.5288 98.8459 95.511 98.8434 95.495 98.8361C95.533 98.7972 95.5083 98.7468 95.5099 98.6986C95.5082 98.6509 95.5031 98.6012 95.5046 98.5539C95.5034 98.457 95.5107 98.3603 95.5263 98.2647C95.5568 98.0582 95.6407 97.8633 95.7696 97.6991ZM85.9582 96.4758C86.0541 96.3987 86.1743 96.3583 86.2973 96.3617C86.3459 96.3656 86.3936 96.3768 86.4388 96.395C86.4875 96.4123 86.5312 96.443 86.6135 96.4758C86.6056 96.5145 86.5885 96.5509 86.5636 96.5817C86.5388 96.6125 86.5069 96.637 86.4707 96.653C86.4114 96.6833 86.3451 96.6975 86.2786 96.694C86.2103 96.6903 86.1443 96.6681 86.0879 96.6296C86.0314 96.5911 85.9865 96.5379 85.9582 96.4758ZM87.7737 96.0385C88.0605 95.8218 88.3702 95.6373 88.6972 95.488L89.1655 95.2669C89.3261 95.1977 89.4769 95.1078 89.614 94.9994C89.5753 95.192 89.4674 95.3639 89.3106 95.4825C89.168 95.6032 89.0109 95.7057 88.8429 95.7874C88.5109 95.9532 88.1448 96.0392 87.7737 96.0385ZM88.7739 97.0976C88.9036 97.0931 89.0264 97.0386 89.1166 96.9454C89.2068 96.8522 89.2572 96.7276 89.2572 96.598C89.2572 96.4684 89.2068 96.3438 89.1166 96.2506C89.0264 96.1574 88.9036 96.1028 88.7739 96.0984C88.6442 96.1028 88.5213 96.1574 88.4311 96.2506C88.341 96.3438 88.2906 96.4684 88.2906 96.598C88.2906 96.7276 88.341 96.8522 88.4311 96.9454C88.5213 97.0386 88.6442 97.0931 88.7739 97.0976ZM88.9039 101.364C88.8221 101.143 88.7914 100.906 88.8139 100.671C88.8327 100.432 88.8969 100.199 89.0031 99.9838C89.1102 99.7654 89.2665 99.5748 89.4596 99.4267C89.6464 99.2788 89.8685 99.1819 90.1041 99.1458C89.9387 99.2915 89.7834 99.4482 89.6391 99.6149C89.5048 99.7726 89.3911 99.9468 89.3008 100.133C89.1174 100.525 88.984 100.939 88.9039 101.364ZM83.293 82.5301C83.6926 82.9105 84.0476 83.3351 84.3511 83.7957C84.6667 84.2481 84.9292 84.7354 85.1332 85.2478C84.7331 84.8679 84.3781 84.4432 84.0752 83.9822C83.7601 83.5294 83.4977 83.0422 83.293 82.5301ZM88.8962 80.8516C89.0137 81.3491 89.0696 81.8591 89.0628 82.3703C89.0704 82.8814 89.0144 83.3916 88.8962 83.889C88.778 83.3916 88.722 82.8814 88.7296 82.3703C88.7227 81.8591 88.7787 81.3491 88.8962 80.8516ZM93.2146 84.3685C93.2743 83.8447 93.3961 83.3297 93.5775 82.8346C93.7453 82.3347 93.9727 81.8567 94.2548 81.4111C94.1958 81.9351 94.074 82.4501 93.8918 82.945C93.7234 83.4446 93.4961 83.9225 93.2146 84.3685ZM94.2134 101.667C94.7866 101.69 95.3535 101.795 95.8962 101.981C96.1885 102.074 96.4555 102.232 96.6763 102.445C96.7393 102.507 96.7888 102.581 96.8217 102.663C96.8399 102.707 96.8529 102.753 96.8604 102.801L96.8716 102.896C96.8736 102.91 96.8799 102.902 96.8548 102.885C96.8474 102.878 96.8376 102.874 96.8273 102.874C96.829 102.87 96.8249 102.873 96.831 102.872C96.8777 102.855 96.9219 102.832 96.9622 102.804C97.179 102.645 97.3785 102.464 97.5571 102.263C97.7501 102.065 97.9278 101.851 98.1083 101.638C98.2855 101.423 98.4581 101.203 98.6211 100.976C98.7939 100.756 98.9366 100.513 99.0456 100.255C98.9127 100.813 98.6642 101.338 98.316 101.795C97.9978 102.283 97.6028 102.718 97.1461 103.081C97.0705 103.133 96.9863 103.171 96.8973 103.194C96.8638 103.2 96.8298 103.202 96.7958 103.2C96.7511 103.194 96.7081 103.179 96.6699 103.155C96.608 103.108 96.5663 103.04 96.5532 102.963L96.5436 102.885L96.5406 102.849C96.5374 102.826 96.5316 102.804 96.5234 102.783C96.5039 102.734 96.475 102.688 96.4382 102.65C96.2556 102.466 96.0377 102.319 95.7974 102.221C95.2831 101.999 94.7538 101.814 94.2134 101.667ZM91.1337 103.223C91.914 103.99 92.6226 104.826 93.2506 105.721C93.5688 106.167 93.8601 106.632 94.1231 107.113C94.4116 107.587 94.5931 108.117 94.6549 108.668C94.5805 108.408 94.4696 108.16 94.3254 107.932C94.1973 107.697 94.0443 107.473 93.8996 107.246C93.6033 106.796 93.29 106.355 92.9783 105.913C92.3564 105.026 91.7195 104.148 91.1337 103.223ZM104.924 94.2441C104.649 94.7562 104.466 95.3123 104.382 95.8874C104.422 95.3935 104.537 94.9086 104.723 94.449L104.924 94.2441ZM116.74 97.6991C116.74 97.6991 117.619 96.118 120.019 94.998C120.019 94.998 121.301 85.409 118.418 83.8901C118.418 83.8901 116.48 84.2891 107.808 91.3235L107.13 92.0115C108.13 92.7289 113.966 96.9195 121.777 102.384C119.517 100.268 117.436 98.3249 116.74 97.6991ZM119.231 94.1123C119.088 94.1076 118.953 94.0477 118.854 93.9453C118.755 93.8428 118.699 93.7059 118.699 93.5633C118.699 93.4208 118.755 93.2838 118.854 93.1814C118.953 93.079 119.088 93.0191 119.231 93.0143C119.374 93.0191 119.509 93.079 119.608 93.1814C119.707 93.2838 119.763 93.4208 119.763 93.5633C119.763 93.7059 119.707 93.8428 119.608 93.9453C119.509 94.0477 119.374 94.1076 119.231 94.1123ZM119.187 91.0819C119.044 91.0772 118.909 91.0173 118.81 90.9148C118.711 90.8124 118.655 90.6754 118.655 90.5329C118.655 90.3904 118.711 90.2534 118.81 90.151C118.909 90.0485 119.044 89.9886 119.187 89.9839C119.33 89.9886 119.465 90.0485 119.564 90.151C119.663 90.2534 119.719 90.3904 119.719 90.5329C119.719 90.6754 119.663 90.8124 119.564 90.9148C119.465 91.0173 119.33 91.0772 119.187 91.0819ZM118.879 88.3589C118.737 88.3542 118.601 88.2943 118.502 88.1919C118.403 88.0894 118.348 87.9525 118.348 87.8099C118.348 87.6674 118.403 87.5304 118.502 87.428C118.601 87.3255 118.737 87.2656 118.879 87.2609C119.022 87.2656 119.157 87.3255 119.256 87.428C119.356 87.5304 119.411 87.6674 119.411 87.8099C119.411 87.9525 119.356 88.0894 119.256 88.1919C119.157 88.2943 119.022 88.3542 118.879 88.3589ZM118.176 84.6697C118.318 84.6748 118.453 84.7348 118.552 84.8372C118.651 84.9396 118.706 85.0764 118.706 85.2187C118.706 85.361 118.651 85.4977 118.552 85.6001C118.453 85.7025 118.318 85.7626 118.176 85.7677C118.034 85.7626 117.899 85.7026 117.8 85.6002C117.701 85.4978 117.646 85.361 117.646 85.2187C117.646 85.0764 117.701 84.9396 117.8 84.8372C117.899 84.7348 118.034 84.6748 118.176 84.6697Z" fill="black"/>
<path d="M104.352 96.4758C104.344 98.8877 105.616 101.212 105.616 101.212C105.344 105.289 101.714 103.342 102.076 101.362C102.406 99.5465 99.5778 100.128 99.1088 100.238C98.8817 100.893 97.702 102.332 97.2184 102.818C96.6981 103.338 96.7055 102.873 96.7055 102.873C96.7055 102.873 96.2035 104.012 95.632 105.593C96.1195 105.211 96.67 104.918 97.2587 104.725C97.8481 104.522 98.4639 104.405 99.0869 104.378C100.021 104.341 100.952 104.495 101.824 104.831C102.109 104.949 102.384 105.091 102.655 105.23C102.077 105.051 101.487 104.912 100.889 104.813C99.7051 104.622 98.4941 104.677 97.3319 104.974C96.7449 105.12 96.1751 105.327 95.632 105.593C95.0149 107.24 94.5394 108.937 94.2105 110.665C94.2105 110.665 93.6939 113.941 93.6133 122.736L103.934 123.614L104.575 118.498C104.62 116.897 104.889 115.31 105.374 113.784C105.36 114.584 105.282 115.382 105.139 116.17C105.012 116.959 104.824 117.738 104.575 118.498C104.575 118.498 107.935 119.376 108.975 119.219C109.354 119.085 109.75 119.01 110.151 118.995C110.349 118.984 110.543 118.981 110.741 118.988C110.935 118.988 111.129 119.014 111.338 119.017C111.172 119.145 110.977 119.232 110.77 119.27C110.574 119.317 110.375 119.347 110.173 119.358C109.896 119.374 109.619 119.359 109.345 119.314C110.283 119.874 111.217 122.736 111.217 122.736C111.217 122.736 117.46 119.072 122.56 115.427C112.917 106.01 104.857 97.8665 104.352 96.4758ZM94.8296 122.176C94.687 122.171 94.5518 122.111 94.4526 122.009C94.3534 121.906 94.298 121.769 94.298 121.627C94.298 121.484 94.3534 121.347 94.4526 121.245C94.5518 121.142 94.687 121.083 94.8296 121.078C94.9722 121.083 95.1074 121.142 95.2066 121.245C95.3058 121.347 95.3613 121.484 95.3613 121.627C95.3613 121.769 95.3058 121.906 95.2066 122.009C95.1074 122.111 94.9722 122.171 94.8296 122.176ZM97.3356 122.264C97.193 122.259 97.0578 122.199 96.9586 122.097C96.8593 121.994 96.8039 121.857 96.8039 121.715C96.8039 121.572 96.8593 121.435 96.9586 121.333C97.0578 121.23 97.193 121.17 97.3356 121.166C97.4782 121.17 97.6134 121.23 97.7126 121.333C97.8119 121.435 97.8673 121.572 97.8673 121.715C97.8673 121.857 97.8119 121.994 97.7126 122.097C97.6134 122.199 97.4782 122.259 97.3356 122.264ZM100.149 122.527C100.007 122.522 99.8716 122.463 99.7724 122.36C99.6731 122.258 99.6177 122.121 99.6177 121.978C99.6177 121.836 99.6731 121.699 99.7724 121.596C99.8716 121.494 100.007 121.434 100.149 121.429C100.292 121.434 100.427 121.494 100.526 121.596C100.626 121.699 100.681 121.836 100.681 121.978C100.681 122.121 100.626 122.258 100.526 122.36C100.427 122.463 100.292 122.522 100.149 122.527ZM102.567 122.703C102.425 122.698 102.29 122.638 102.19 122.536C102.091 122.433 102.036 122.296 102.036 122.154C102.036 122.011 102.091 121.874 102.19 121.772C102.29 121.67 102.425 121.61 102.567 121.605C102.71 121.61 102.845 121.67 102.944 121.772C103.044 121.874 103.099 122.011 103.099 122.154C103.099 122.296 103.044 122.433 102.944 122.536C102.845 122.638 102.71 122.698 102.567 122.703ZM105.506 109.633C105.471 109.82 105.427 110.004 105.374 110.186C105.355 109.996 105.352 109.809 105.344 109.626C105.319 109.443 105.311 109.26 105.29 109.081C105.246 108.724 105.167 108.372 105.055 108.03C104.833 107.341 104.417 106.73 103.857 106.27C104.223 106.396 104.547 106.62 104.795 106.918C105.051 107.212 105.247 107.554 105.37 107.924C105.491 108.291 105.552 108.676 105.55 109.062C105.55 109.256 105.524 109.447 105.506 109.633ZM111.844 121.341C111.701 121.337 111.566 121.277 111.467 121.174C111.368 121.072 111.312 120.935 111.312 120.792C111.312 120.65 111.368 120.513 111.467 120.41C111.566 120.308 111.701 120.248 111.844 120.243C111.986 120.248 112.122 120.308 112.221 120.41C112.32 120.513 112.375 120.65 112.375 120.792C112.375 120.935 112.32 121.072 112.221 121.174C112.122 121.277 111.986 121.337 111.844 121.341ZM114.394 119.672C114.251 119.668 114.116 119.608 114.017 119.505C113.918 119.403 113.862 119.266 113.862 119.123C113.862 118.981 113.918 118.844 114.017 118.742C114.116 118.639 114.251 118.579 114.394 118.574C114.536 118.579 114.672 118.639 114.771 118.742C114.87 118.844 114.925 118.981 114.925 119.123C114.925 119.266 114.87 119.403 114.771 119.505C114.672 119.608 114.536 119.668 114.394 119.672ZM117.603 117.74C117.461 117.735 117.325 117.675 117.226 117.573C117.127 117.471 117.072 117.334 117.072 117.191C117.072 117.048 117.127 116.912 117.226 116.809C117.325 116.707 117.461 116.647 117.603 116.642C117.746 116.647 117.881 116.707 117.98 116.809C118.079 116.912 118.135 117.049 118.135 117.191C118.135 117.334 118.079 117.47 117.98 117.573C117.881 117.675 117.746 117.735 117.603 117.74ZM120.857 115.632C120.714 115.627 120.579 115.567 120.48 115.465C120.38 115.362 120.325 115.225 120.325 115.083C120.325 114.94 120.38 114.803 120.48 114.701C120.579 114.598 120.714 114.539 120.857 114.534C120.999 114.539 121.134 114.599 121.234 114.701C121.333 114.803 121.388 114.94 121.388 115.083C121.388 115.225 121.333 115.362 121.234 115.465C121.134 115.567 120.999 115.627 120.857 115.632ZM118.988 84.3392C119.82 83.758 120.762 83.3538 121.757 83.1515C122.783 82.9586 123.844 83.0808 124.799 83.502C125.726 83.9654 126.538 84.6297 127.176 85.4464C127.836 86.2194 128.412 87.0418 128.983 87.8616C130.117 89.5078 131.145 91.224 132.13 92.9613C133.105 94.704 134.059 96.4568 134.991 98.2195L134.984 98.2084L136.318 100.061C136.759 100.681 137.22 101.288 137.671 101.901L137.484 101.844C137.569 101.818 137.66 101.813 137.747 101.831C137.834 101.848 137.916 101.887 137.985 101.944C138.099 102.036 138.193 102.151 138.259 102.281C138.377 102.515 138.46 102.765 138.505 103.023C138.597 103.515 138.642 104.015 138.642 104.516C138.665 105.036 138.59 105.555 138.42 106.047C138.395 106.115 138.362 106.181 138.324 106.243C138.287 106.313 138.24 106.377 138.184 106.434C138.123 106.506 138.048 106.565 137.964 106.608C137.879 106.651 137.787 106.676 137.693 106.683C137.513 106.69 137.335 106.64 137.185 106.541C137.063 106.459 136.951 106.363 136.851 106.256L137.332 106.144C137.269 106.365 137.171 106.574 137.042 106.763C136.974 106.88 136.881 106.982 136.771 107.062C136.661 107.142 136.535 107.197 136.402 107.226C136.269 107.254 136.131 107.254 135.998 107.226C135.865 107.198 135.739 107.142 135.628 107.062C135.532 106.997 135.439 106.927 135.352 106.855L135.119 106.626L135.589 106.618C135.465 106.761 135.319 106.883 135.157 106.98C134.983 107.088 134.786 107.152 134.582 107.167C134.365 107.181 134.148 107.127 133.963 107.013C133.798 106.912 133.652 106.782 133.532 106.63L133.871 106.746C133.016 106.968 132.143 107.118 131.262 107.194C130.793 107.241 130.318 107.21 129.859 107.103C129.725 107.067 129.596 107.014 129.475 106.947C129.352 106.868 129.242 106.77 129.15 106.658C128.985 106.464 128.854 106.244 128.762 106.008C128.473 105.128 128.442 104.183 128.675 103.286C128.722 102.911 128.677 102.53 128.543 102.176C128.409 101.822 128.19 101.507 127.906 101.257C126.596 100.152 125.261 99.0507 123.959 97.9239C122.648 96.8052 121.346 95.6743 120.055 94.5311C120.048 94.5254 120.044 94.5174 120.044 94.5089C120.043 94.5003 120.046 94.4918 120.051 94.4852C120.057 94.4785 120.064 94.4742 120.073 94.4731C120.081 94.472 120.09 94.4743 120.097 94.4794C121.484 95.5047 122.859 96.5454 124.221 97.6014C125.595 98.6469 126.938 99.7154 128.303 100.785C128.68 101.091 128.975 101.488 129.16 101.937C129.34 102.391 129.406 102.882 129.353 103.367L129.258 104.006C129.236 104.206 129.225 104.408 129.225 104.609C129.219 104.994 129.286 105.378 129.423 105.738C129.486 105.904 129.576 106.058 129.69 106.195C129.734 106.249 129.785 106.297 129.842 106.338C129.91 106.374 129.981 106.402 130.056 106.421C130.438 106.503 130.83 106.527 131.22 106.493C132.059 106.436 132.892 106.308 133.709 106.112C133.77 106.098 133.834 106.101 133.893 106.12C133.952 106.14 134.005 106.176 134.045 106.223L134.048 106.227C134.116 106.317 134.199 106.395 134.293 106.458C134.368 106.51 134.457 106.535 134.548 106.53C134.651 106.523 134.75 106.491 134.838 106.438C134.939 106.379 135.032 106.305 135.112 106.22C135.169 106.157 135.249 106.119 135.335 106.114C135.42 106.11 135.503 106.14 135.567 106.197C135.571 106.201 135.577 106.207 135.582 106.212L135.763 106.397C135.826 106.449 135.889 106.498 135.952 106.545C136.047 106.615 136.165 106.648 136.283 106.638C136.402 106.605 136.504 106.528 136.57 106.424C136.665 106.292 136.739 106.147 136.79 105.994L136.798 105.971C136.813 105.924 136.841 105.882 136.877 105.85C136.914 105.818 136.959 105.796 137.008 105.787C137.056 105.778 137.106 105.782 137.152 105.799C137.198 105.815 137.239 105.844 137.271 105.882C137.403 106.042 137.577 106.157 137.662 106.145C137.737 106.164 137.865 106.031 137.947 105.842C138.103 105.414 138.185 104.963 138.189 104.507C138.212 104.035 138.192 103.561 138.129 103.092C138.102 102.867 138.041 102.648 137.949 102.442C137.868 102.247 137.692 102.113 137.598 102.141L137.582 102.145C137.551 102.155 137.518 102.154 137.487 102.143C137.456 102.132 137.429 102.111 137.411 102.084C136.982 101.456 136.562 100.82 136.123 100.199L134.817 98.3261L134.81 98.3149C133.869 96.5608 132.865 94.8398 131.786 93.1674C130.716 91.4893 129.594 89.848 128.487 88.1983C127.931 87.3761 127.381 86.5498 126.76 85.7946C126.176 85.0273 125.44 84.3883 124.599 83.9172C123.734 83.4876 122.76 83.3288 121.804 83.4615C120.826 83.5935 119.882 83.9107 119.022 84.3961C119.015 84.4002 119.006 84.4011 118.998 84.3989C118.99 84.3967 118.983 84.3913 118.978 84.3841C118.974 84.3768 118.972 84.3681 118.974 84.3597C118.976 84.3514 118.981 84.344 118.988 84.3392Z" fill="black"/>
<path d="M123.617 91.2012C122.984 91.8347 122.318 92.413 121.675 93.0124C121.354 93.3112 121.032 93.6098 120.734 93.9272C120.414 94.2231 120.169 94.5899 120.016 94.9979C120.009 94.7681 120.063 94.5403 120.173 94.3384C120.274 94.1343 120.396 93.9406 120.535 93.7601C120.81 93.4036 121.116 93.0717 121.448 92.7683C122.104 92.1587 122.832 91.6324 123.617 91.2012Z" fill="black"/>
<path d="M109.343 119.31C109.218 119.29 109.096 119.259 108.977 119.218C109.106 119.203 109.236 119.236 109.343 119.31Z" fill="white"/>
<path d="M94.247 122.785C94.2931 123.994 94.3176 125.203 94.3508 126.411L94.351 126.418C94.3517 126.445 94.3438 126.47 94.3286 126.492C94.3133 126.514 94.2914 126.53 94.2663 126.538C93.6215 126.718 92.9525 126.798 92.2834 126.773C91.6262 126.777 90.9738 126.725 90.3228 126.664C89.0256 126.521 87.7373 126.308 86.4636 126.024C85.194 125.733 83.9317 125.414 82.6813 125.055C82.0582 124.869 81.4305 124.697 80.811 124.5L78.9577 123.894C78.8911 123.873 78.8347 123.828 78.799 123.767L78.7977 123.765C77.864 122.191 76.9527 120.604 76.0455 119.015L76.0758 119.055C75.8549 118.836 75.6043 118.65 75.3315 118.501C75.0555 118.348 74.7581 118.238 74.4493 118.173C74.1408 118.104 73.823 118.088 73.5091 118.124C73.1916 118.159 72.8802 118.236 72.583 118.353L72.6104 118.338C72.5211 118.419 72.4522 118.52 72.4095 118.633C72.3582 118.76 72.3262 118.895 72.3144 119.031C72.2886 119.319 72.3101 119.608 72.3781 119.888C72.3853 119.921 72.3796 119.955 72.3621 119.984C72.3447 120.013 72.3168 120.034 72.2843 120.042L72.2795 120.044C72.0897 120.098 71.9146 120.194 71.7673 120.325C71.6172 120.458 71.4976 120.622 71.4165 120.806C71.3391 120.995 71.2928 121.196 71.2796 121.4C71.2724 121.504 71.2786 121.609 71.2771 121.713L71.3111 122.027L71.3125 122.039C71.3148 122.061 71.3095 122.083 71.2976 122.101C71.1466 122.376 70.9017 122.588 70.6076 122.697C70.5664 122.709 70.524 122.716 70.4813 122.717C70.4298 122.719 70.429 122.725 70.3995 122.726C70.3477 122.745 70.3003 122.774 70.26 122.811C70.1672 122.9 70.0936 123.006 70.0439 123.124C69.8421 123.631 69.8217 124.192 69.9861 124.712C69.9905 124.727 69.9916 124.743 69.9892 124.759C69.9557 124.973 69.903 125.184 69.8317 125.389C69.7648 125.611 69.6409 125.811 69.4725 125.97C69.4208 126.012 69.362 126.045 69.2988 126.067C69.2376 126.082 69.1368 126.092 69.1446 126.092C69.0844 126.132 69.0393 126.19 69.0167 126.259C68.9461 126.443 68.9016 126.636 68.8843 126.833C68.8416 127.238 68.8553 127.647 68.9252 128.048C68.9561 128.242 69.0129 128.43 69.0941 128.609C69.1289 128.685 69.1788 128.753 69.2408 128.808C69.313 128.858 69.392 128.898 69.4753 128.926C69.8624 129.035 70.2631 129.088 70.6653 129.085C71.0764 129.093 71.4905 129.074 71.9036 129.042C72.7305 128.977 73.5547 128.855 74.373 128.708C74.4269 128.698 74.4825 128.708 74.5295 128.736L74.5383 128.741C77.404 130.456 80.3751 131.989 83.4339 133.331C84.966 133.988 86.518 134.601 88.1008 135.109C89.6727 135.636 91.2826 136.043 92.9163 136.326L94.1425 136.485C94.3456 136.517 94.5509 136.532 94.7565 136.532L95.3713 136.552L95.9864 136.574C96.1902 136.577 96.3852 136.558 96.5848 136.545C97.5845 136.437 98.5422 136.085 99.3726 135.518C100.203 134.952 100.88 134.189 101.344 133.298C101.699 132.559 101.966 131.781 102.14 130.98C102.338 130.173 102.496 129.355 102.611 128.532C102.843 126.876 102.972 125.208 102.996 123.537C102.996 123.528 103 123.52 103.006 123.514C103.012 123.508 103.02 123.504 103.029 123.504C103.038 123.504 103.046 123.507 103.052 123.513C103.059 123.519 103.062 123.527 103.063 123.536C103.14 125.216 103.096 126.898 102.932 128.572C102.845 129.411 102.716 130.246 102.544 131.072C102.458 131.487 102.359 131.898 102.245 132.307C102.132 132.726 101.981 133.133 101.794 133.524C101.406 134.311 100.866 135.013 100.205 135.59C99.5439 136.168 98.7751 136.608 97.9428 136.888C97.5256 137.028 97.0955 137.127 96.6589 137.184C96.4413 137.204 96.2177 137.23 96.0028 137.232L95.3608 137.22L94.7183 137.206C94.5045 137.208 94.2909 137.194 94.0792 137.164L92.8095 137.012C91.1342 136.742 89.4849 136.33 87.8791 135.782C86.2777 135.247 84.7054 134.629 83.1685 133.931C80.095 132.55 77.1261 130.948 74.2851 129.137L74.4503 129.171C73.6142 129.298 72.7722 129.384 71.9275 129.427C71.5042 129.445 71.0795 129.452 70.6528 129.432C70.2158 129.423 69.7824 129.35 69.3662 129.217C69.2519 129.175 69.1447 129.115 69.0483 129.041C68.9545 128.956 68.88 128.852 68.8295 128.735C68.7419 128.53 68.6828 128.314 68.6536 128.093C68.5942 127.665 68.5898 127.232 68.6404 126.804C68.6624 126.583 68.7157 126.367 68.7987 126.161C68.8224 126.096 68.8589 126.036 68.9063 125.986C68.9536 125.936 69.0107 125.895 69.0741 125.868L69.2295 125.844C69.2653 125.831 69.2987 125.812 69.3282 125.788C69.5789 125.486 69.7337 125.117 69.7726 124.727L69.7757 124.773C69.6025 124.203 69.6328 123.591 69.8613 123.04C69.9227 122.898 70.0114 122.769 70.1224 122.66C70.1852 122.6 70.2602 122.555 70.3422 122.527C70.4531 122.503 70.4991 122.514 70.5531 122.494C70.7896 122.394 70.9843 122.216 71.1047 121.989L71.0912 122.063L71.0501 121.727C71.0494 121.614 71.0416 121.5 71.048 121.386C71.0597 121.155 71.1092 120.926 71.1946 120.711C71.2871 120.493 71.4257 120.297 71.6007 120.138C71.7781 119.975 71.9912 119.856 72.223 119.79L72.1246 119.946C72.0481 119.639 72.0172 119.322 72.0327 119.007C72.0414 118.842 72.0745 118.679 72.1308 118.524C72.189 118.351 72.2932 118.197 72.4323 118.078C72.4383 118.073 72.4451 118.069 72.4524 118.066L72.4598 118.063C72.7811 117.923 73.1197 117.826 73.4666 117.776C73.8173 117.723 74.1743 117.729 74.5231 117.793C74.873 117.854 75.2118 117.966 75.5281 118.127C75.8498 118.288 76.1463 118.495 76.4082 118.741C76.4167 118.749 76.4242 118.758 76.4305 118.768L76.4385 118.781C77.405 120.335 78.3673 121.892 79.3072 123.462L79.1474 123.333C80.3776 123.73 81.6043 124.136 82.8416 124.507C84.0783 124.88 85.3255 125.213 86.5791 125.518C87.8375 125.797 89.0978 126.072 90.3723 126.248C91.0095 126.329 91.6491 126.402 92.2886 126.419C92.6085 126.434 92.9279 126.428 93.2448 126.412C93.5539 126.402 93.8609 126.359 94.161 126.285L94.0764 126.411C94.1096 125.203 94.1341 123.994 94.1803 122.785C94.1806 122.777 94.1843 122.769 94.1905 122.763C94.1967 122.757 94.205 122.753 94.2136 122.753C94.2223 122.753 94.2306 122.757 94.2368 122.763C94.243 122.769 94.2467 122.777 94.247 122.785Z" fill="black"/>
<path d="M72.2789 119.737L74.2318 120.217L72.224 120.099C72.1999 120.097 72.1763 120.091 72.1545 120.08C72.1328 120.07 72.1134 120.055 72.0973 120.037C72.0813 120.019 72.0689 119.998 72.061 119.975C72.0531 119.952 72.0498 119.928 72.0512 119.904C72.0527 119.88 72.0588 119.857 72.0694 119.835C72.0799 119.813 72.0947 119.794 72.1127 119.778C72.1308 119.762 72.1518 119.749 72.1747 119.742C72.1975 119.734 72.2217 119.73 72.2458 119.732C72.2569 119.732 72.268 119.734 72.2789 119.737ZM152.71 156.294C151.523 156.865 150.165 156.968 148.906 156.582C147.647 156.196 146.58 155.349 145.918 154.212C143.324 149.732 139.971 142.01 140.99 133.193L125.716 118.498C124.214 120.416 114.098 125.533 114.098 125.533C114.098 125.533 78.4175 168.855 68.7344 183.722C68.7344 183.722 79.0513 201.626 93.6146 197.311C108.178 192.996 124.02 188.52 131.541 189.479C139.063 190.438 164.189 188.839 169.149 180.684C174.11 172.534 175.227 151.269 175.227 150.79V150.31C175.227 150.31 170.494 147.807 152.71 156.294ZM71.5297 184.322C71.3871 184.318 71.2519 184.258 71.1527 184.155C71.0535 184.053 70.998 183.916 70.998 183.773C70.998 183.631 71.0535 183.494 71.1527 183.391C71.2519 183.289 71.3871 183.229 71.5297 183.224C71.6723 183.229 71.8075 183.289 71.9067 183.391C72.0058 183.494 72.0613 183.631 72.0613 183.773C72.0613 183.916 72.0058 184.053 71.9067 184.155C71.8075 184.258 71.6723 184.317 71.5297 184.322ZM73.5081 186.957C73.3655 186.953 73.2303 186.893 73.1311 186.79C73.0319 186.688 72.9764 186.551 72.9764 186.408C72.9764 186.266 73.0319 186.129 73.1311 186.026C73.2303 185.924 73.3655 185.864 73.5081 185.859C73.6507 185.864 73.7859 185.924 73.8851 186.026C73.9843 186.129 74.0397 186.266 74.0397 186.408C74.0397 186.551 73.9843 186.688 73.8851 186.79C73.7859 186.893 73.6507 186.953 73.5081 186.957ZM75.6184 189.593C75.4758 189.588 75.3407 189.528 75.2415 189.425C75.1422 189.323 75.0868 189.186 75.0868 189.044C75.0868 188.901 75.1422 188.764 75.2415 188.662C75.3407 188.559 75.4758 188.499 75.6184 188.495C75.7609 188.499 75.896 188.559 75.995 188.662C76.0941 188.764 76.1495 188.901 76.1495 189.044C76.1495 189.186 76.0941 189.323 75.995 189.425C75.896 189.528 75.7609 189.588 75.6184 189.593ZM77.9926 191.964C77.85 191.959 77.7148 191.9 77.6155 191.797C77.5163 191.695 77.4608 191.558 77.4608 191.415C77.4608 191.273 77.5163 191.136 77.6155 191.033C77.7148 190.931 77.85 190.871 77.9926 190.866C78.1351 190.871 78.2702 190.931 78.3693 191.033C78.4685 191.136 78.5239 191.273 78.5239 191.415C78.5239 191.558 78.4685 191.695 78.3693 191.797C78.2702 191.899 78.1351 191.959 77.9926 191.964ZM80.7623 194.072C80.6197 194.068 80.4845 194.008 80.3853 193.905C80.2861 193.803 80.2306 193.666 80.2306 193.523C80.2306 193.381 80.2861 193.244 80.3853 193.141C80.4845 193.039 80.6197 192.979 80.7623 192.974C80.9049 192.979 81.0399 193.039 81.1391 193.141C81.2382 193.244 81.2936 193.381 81.2936 193.523C81.2936 193.666 81.2382 193.803 81.1391 193.905C81.0399 194.008 80.9049 194.067 80.7623 194.072ZM84.1915 195.522C84.0489 195.517 83.9137 195.457 83.8145 195.355C83.7153 195.252 83.6598 195.115 83.6598 194.973C83.6598 194.83 83.7153 194.693 83.8145 194.591C83.9137 194.488 84.0489 194.428 84.1915 194.424C84.3341 194.428 84.4693 194.488 84.5685 194.591C84.6676 194.693 84.7231 194.83 84.7231 194.973C84.7231 195.115 84.6676 195.252 84.5685 195.355C84.4693 195.457 84.3341 195.517 84.1915 195.522ZM87.8846 196.18C87.742 196.176 87.6068 196.116 87.5076 196.013C87.4084 195.911 87.3529 195.774 87.3529 195.631C87.3529 195.489 87.4084 195.352 87.5076 195.249C87.6068 195.147 87.742 195.087 87.8846 195.082C88.0271 195.087 88.1621 195.147 88.2612 195.25C88.3603 195.352 88.4157 195.489 88.4157 195.631C88.4157 195.774 88.3603 195.911 88.2612 196.013C88.1621 196.116 88.0271 196.176 87.8846 196.18ZM91.7095 195.785C91.5669 195.78 91.4317 195.721 91.3325 195.618C91.2333 195.516 91.1778 195.379 91.1778 195.236C91.1778 195.094 91.2333 194.957 91.3325 194.854C91.4317 194.752 91.5669 194.692 91.7095 194.687C91.852 194.692 91.987 194.752 92.0861 194.854C92.1852 194.957 92.2406 195.094 92.2406 195.236C92.2406 195.379 92.1852 195.515 92.0861 195.618C91.987 195.72 91.852 195.78 91.7095 195.785ZM95.6663 194.468C95.5237 194.463 95.3885 194.403 95.2893 194.301C95.19 194.198 95.1346 194.061 95.1346 193.919C95.1346 193.776 95.19 193.639 95.2893 193.537C95.3885 193.434 95.5237 193.374 95.6663 193.37C95.8088 193.374 95.9439 193.434 96.043 193.537C96.1421 193.639 96.1975 193.776 96.1975 193.919C96.1974 194.061 96.1421 194.198 96.043 194.3C95.9439 194.403 95.8088 194.463 95.6663 194.468ZM99.755 193.018C99.6124 193.014 99.4772 192.954 99.378 192.851C99.2788 192.749 99.2233 192.612 99.2233 192.469C99.2233 192.327 99.2788 192.19 99.378 192.087C99.4772 191.985 99.6124 191.925 99.755 191.92C99.8975 191.925 100.032 191.985 100.132 192.087C100.231 192.19 100.286 192.327 100.286 192.469C100.286 192.612 100.231 192.749 100.132 192.851C100.032 192.953 99.8975 193.013 99.755 193.018ZM103.976 191.569C103.833 191.564 103.698 191.504 103.599 191.402C103.499 191.299 103.444 191.162 103.444 191.02C103.444 190.877 103.499 190.74 103.599 190.638C103.698 190.536 103.833 190.476 103.976 190.471C104.118 190.476 104.253 190.536 104.352 190.638C104.451 190.741 104.506 190.877 104.506 191.02C104.506 191.162 104.451 191.299 104.352 191.402C104.253 191.504 104.118 191.564 103.976 191.569ZM108.196 190.383C108.054 190.378 107.918 190.318 107.819 190.216C107.72 190.114 107.664 189.977 107.664 189.834C107.664 189.692 107.72 189.555 107.819 189.452C107.918 189.35 108.054 189.29 108.196 189.285C108.339 189.29 108.474 189.35 108.573 189.452C108.672 189.555 108.727 189.692 108.727 189.834C108.727 189.977 108.672 190.113 108.573 190.216C108.474 190.318 108.339 190.378 108.196 190.383ZM112.153 189.593C112.01 189.588 111.875 189.528 111.776 189.425C111.677 189.323 111.621 189.186 111.621 189.044C111.621 188.901 111.677 188.764 111.776 188.662C111.875 188.559 112.01 188.499 112.153 188.495C112.295 188.499 112.43 188.559 112.529 188.662C112.628 188.764 112.684 188.901 112.684 189.044C112.684 189.186 112.628 189.323 112.529 189.425C112.43 189.528 112.295 189.588 112.153 189.593ZM116.505 188.802C116.363 188.797 116.228 188.737 116.128 188.635C116.029 188.532 115.974 188.396 115.974 188.253C115.974 188.11 116.029 187.974 116.128 187.871C116.228 187.769 116.363 187.709 116.505 187.704C116.648 187.709 116.783 187.769 116.882 187.871C116.981 187.974 117.037 188.111 117.037 188.253C117.037 188.395 116.981 188.532 116.882 188.635C116.783 188.737 116.648 188.797 116.505 188.802ZM111.625 164.339C109.314 167.41 106.987 170.469 104.602 173.481C102.217 176.497 99.8099 179.491 97.3369 182.434L100.865 177.877L104.382 173.309C106.716 170.261 109.046 167.208 111.332 164.119C113.64 161.052 115.898 157.946 118.106 154.801C119.22 153.238 120.294 151.646 121.36 150.051L122.928 147.635L124.419 145.168C122.57 148.54 120.54 151.809 118.337 154.962C116.172 158.139 113.915 161.25 111.625 164.339ZM120.33 188.407C120.188 188.402 120.053 188.342 119.953 188.24C119.854 188.137 119.799 188 119.799 187.858C119.799 187.715 119.854 187.578 119.953 187.476C120.053 187.373 120.188 187.313 120.33 187.309C120.473 187.313 120.608 187.373 120.707 187.476C120.807 187.578 120.862 187.715 120.862 187.858C120.862 188 120.807 188.137 120.707 188.24C120.608 188.342 120.473 188.402 120.33 188.407ZM122.14 164.182C121.986 165.02 121.807 165.854 121.624 166.685C121.433 167.516 121.243 168.343 121.026 169.166L120.697 170.403C120.572 170.813 120.462 171.223 120.33 171.63C120.382 171.205 120.459 170.784 120.521 170.363L120.752 169.108C120.906 168.27 121.085 167.435 121.268 166.604C121.459 165.774 121.649 164.946 121.865 164.123C122.082 163.296 122.301 162.472 122.562 161.66C122.448 162.509 122.298 163.347 122.14 164.182ZM124.419 187.88C124.276 187.875 124.141 187.815 124.042 187.713C123.943 187.61 123.887 187.473 123.887 187.331C123.887 187.188 123.943 187.051 124.042 186.949C124.141 186.846 124.276 186.786 124.419 186.782C124.562 186.786 124.697 186.846 124.796 186.949C124.895 187.051 124.951 187.188 124.951 187.331C124.951 187.473 124.895 187.61 124.796 187.713C124.697 187.815 124.562 187.875 124.419 187.88ZM128.508 187.88C128.365 187.875 128.23 187.815 128.131 187.713C128.032 187.61 127.976 187.473 127.976 187.331C127.976 187.188 128.032 187.051 128.131 186.949C128.23 186.846 128.365 186.786 128.508 186.782C128.65 186.786 128.786 186.846 128.885 186.949C128.984 187.051 129.039 187.188 129.039 187.331C129.039 187.473 128.984 187.61 128.885 187.713C128.786 187.815 128.65 187.875 128.508 187.88ZM132.728 187.88C132.586 187.875 132.451 187.815 132.351 187.713C132.252 187.61 132.197 187.473 132.197 187.331C132.197 187.188 132.252 187.051 132.351 186.949C132.451 186.846 132.586 186.786 132.728 186.782C132.871 186.786 133.006 186.846 133.105 186.949C133.205 187.051 133.26 187.188 133.26 187.331C133.26 187.473 133.205 187.61 133.105 187.713C133.006 187.815 132.871 187.875 132.728 187.88ZM136.289 188.011C136.147 188.007 136.012 187.947 135.912 187.844C135.813 187.742 135.758 187.605 135.758 187.462C135.758 187.32 135.813 187.183 135.912 187.08C136.012 186.978 136.147 186.918 136.289 186.913C136.432 186.918 136.567 186.978 136.666 187.08C136.766 187.183 136.821 187.32 136.821 187.462C136.821 187.605 136.766 187.742 136.666 187.844C136.567 187.947 136.432 188.007 136.289 188.011ZM139.851 188.011C139.708 188.007 139.573 187.947 139.474 187.844C139.374 187.742 139.319 187.605 139.319 187.462C139.319 187.32 139.374 187.183 139.474 187.08C139.573 186.978 139.708 186.918 139.851 186.913C139.993 186.918 140.128 186.978 140.228 187.08C140.327 187.183 140.382 187.32 140.382 187.462C140.382 187.605 140.327 187.742 140.228 187.844C140.128 187.947 139.993 188.007 139.851 188.011ZM143.148 187.748C143.005 187.743 142.87 187.683 142.771 187.581C142.672 187.478 142.616 187.341 142.616 187.199C142.616 187.056 142.672 186.919 142.771 186.817C142.87 186.715 143.005 186.655 143.148 186.65C143.29 186.655 143.426 186.715 143.525 186.817C143.624 186.919 143.68 187.056 143.68 187.199C143.68 187.341 143.624 187.478 143.525 187.581C143.426 187.683 143.29 187.743 143.148 187.748ZM146.841 187.484C146.698 187.48 146.563 187.42 146.464 187.317C146.365 187.215 146.309 187.078 146.309 186.935C146.309 186.793 146.365 186.656 146.464 186.553C146.563 186.451 146.698 186.391 146.841 186.386C146.984 186.391 147.119 186.451 147.218 186.553C147.317 186.656 147.373 186.793 147.373 186.935C147.373 187.078 147.317 187.215 147.218 187.317C147.119 187.42 146.984 187.48 146.841 187.484ZM150.27 187.089C150.128 187.084 149.992 187.025 149.893 186.922C149.794 186.82 149.738 186.683 149.738 186.54C149.738 186.398 149.794 186.261 149.893 186.158C149.992 186.056 150.128 185.996 150.27 185.991C150.413 185.996 150.548 186.056 150.647 186.158C150.746 186.261 150.802 186.398 150.802 186.54C150.802 186.683 150.746 186.82 150.647 186.922C150.548 187.025 150.413 187.084 150.27 187.089ZM153.436 186.43C153.293 186.426 153.158 186.366 153.059 186.263C152.959 186.161 152.904 186.024 152.904 185.881C152.904 185.739 152.959 185.602 153.059 185.499C153.158 185.397 153.293 185.337 153.436 185.332C153.578 185.337 153.713 185.397 153.812 185.499C153.912 185.602 153.967 185.739 153.967 185.881C153.967 186.024 153.912 186.161 153.812 186.263C153.713 186.366 153.578 186.426 153.436 186.43ZM144.775 172.987C142.907 173.027 141.048 172.713 139.297 172.061C137.548 171.398 135.936 170.419 134.542 169.174C133.166 167.919 131.961 166.491 130.955 164.925C129.944 163.371 129.076 161.73 128.361 160.02C126.93 156.61 125.945 153.029 125.43 149.366C125.751 151.181 126.183 152.974 126.723 154.735C127.245 156.498 127.879 158.225 128.621 159.907C130.109 163.248 132.043 166.465 134.784 168.899C137.51 171.386 141.079 172.747 144.771 172.706C145.229 172.702 145.683 172.651 146.141 172.629C146.368 172.61 146.599 172.607 146.826 172.574L147.504 172.457C147.955 172.373 148.413 172.318 148.856 172.211L150.19 171.853C150.409 171.791 150.633 171.743 150.853 171.673L151.501 171.439L152.802 170.974C153.234 170.813 153.644 170.605 154.069 170.422L155.333 169.862C152.091 171.597 148.508 172.852 144.775 172.987ZM156.733 185.64C156.59 185.635 156.455 185.575 156.356 185.473C156.257 185.37 156.201 185.233 156.201 185.091C156.201 184.948 156.257 184.811 156.356 184.709C156.455 184.606 156.59 184.547 156.733 184.542C156.875 184.547 157.011 184.606 157.11 184.709C157.209 184.811 157.264 184.948 157.264 185.091C157.264 185.233 157.209 185.37 157.11 185.473C157.011 185.575 156.875 185.635 156.733 185.64ZM159.766 184.586C159.624 184.581 159.489 184.521 159.389 184.419C159.29 184.316 159.235 184.179 159.235 184.037C159.235 183.894 159.29 183.757 159.389 183.655C159.489 183.552 159.624 183.492 159.766 183.488C159.909 183.493 160.044 183.552 160.143 183.655C160.243 183.757 160.298 183.894 160.298 184.037C160.298 184.179 160.243 184.316 160.143 184.419C160.044 184.521 159.909 184.581 159.766 184.586ZM162.8 183.532C162.657 183.527 162.522 183.467 162.423 183.365C162.324 183.262 162.268 183.125 162.268 182.983C162.268 182.84 162.324 182.703 162.423 182.601C162.522 182.498 162.657 182.438 162.8 182.434C162.943 182.438 163.078 182.498 163.177 182.601C163.276 182.703 163.332 182.84 163.332 182.983C163.332 183.125 163.276 183.262 163.177 183.365C163.078 183.467 162.943 183.527 162.8 183.532ZM165.702 182.082C165.559 182.078 165.424 182.018 165.325 181.915C165.225 181.813 165.17 181.676 165.17 181.533C165.17 181.391 165.225 181.254 165.325 181.151C165.424 181.049 165.559 180.989 165.702 180.984C165.844 180.989 165.979 181.049 166.079 181.151C166.178 181.254 166.233 181.391 166.233 181.533C166.233 181.676 166.178 181.813 166.079 181.915C165.979 182.018 165.844 182.078 165.702 182.082ZM168.076 179.315C167.933 179.311 167.798 179.251 167.699 179.148C167.6 179.046 167.544 178.909 167.544 178.766C167.544 178.624 167.6 178.487 167.699 178.384C167.798 178.282 167.933 178.222 168.076 178.217C168.218 178.222 168.353 178.282 168.453 178.385C168.552 178.487 168.607 178.624 168.607 178.766C168.607 178.909 168.552 179.046 168.453 179.148C168.353 179.251 168.218 179.311 168.076 179.315ZM169.658 176.153C169.516 176.149 169.381 176.089 169.281 175.986C169.182 175.884 169.127 175.747 169.127 175.604C169.127 175.462 169.182 175.325 169.281 175.222C169.381 175.12 169.516 175.06 169.658 175.055C169.801 175.06 169.936 175.12 170.035 175.222C170.135 175.325 170.19 175.462 170.19 175.604C170.19 175.747 170.135 175.884 170.035 175.986C169.936 176.089 169.801 176.148 169.658 176.153ZM170.45 172.728C170.307 172.723 170.172 172.663 170.073 172.56C169.974 172.458 169.918 172.321 169.918 172.179C169.918 172.036 169.974 171.899 170.073 171.797C170.172 171.694 170.307 171.634 170.45 171.63C170.592 171.634 170.728 171.694 170.827 171.797C170.926 171.899 170.981 172.036 170.981 172.179C170.981 172.321 170.926 172.458 170.827 172.56C170.728 172.663 170.592 172.723 170.45 172.728ZM171.373 169.17C171.23 169.165 171.095 169.105 170.996 169.003C170.897 168.901 170.841 168.764 170.841 168.621C170.841 168.479 170.897 168.342 170.996 168.239C171.095 168.137 171.23 168.077 171.373 168.072C171.516 168.077 171.651 168.137 171.75 168.239C171.849 168.342 171.905 168.479 171.905 168.621C171.905 168.764 171.849 168.9 171.75 169.003C171.651 169.105 171.516 169.165 171.373 169.17ZM171.901 165.349C171.758 165.344 171.623 165.284 171.524 165.182C171.424 165.08 171.369 164.943 171.369 164.8C171.369 164.658 171.424 164.521 171.524 164.418C171.623 164.316 171.758 164.256 171.901 164.251C172.043 164.256 172.178 164.316 172.278 164.418C172.377 164.521 172.432 164.658 172.432 164.8C172.432 164.943 172.377 165.08 172.278 165.182C172.178 165.284 172.043 165.344 171.901 165.349ZM172.428 161.66C172.286 161.655 172.15 161.595 172.051 161.493C171.952 161.39 171.897 161.253 171.897 161.111C171.897 160.968 171.952 160.831 172.051 160.729C172.15 160.626 172.286 160.567 172.428 160.562C172.571 160.567 172.706 160.627 172.805 160.729C172.904 160.831 172.96 160.968 172.96 161.111C172.96 161.253 172.904 161.39 172.805 161.493C172.706 161.595 172.571 161.655 172.428 161.66ZM172.956 157.707C172.813 157.702 172.678 157.643 172.579 157.54C172.48 157.438 172.424 157.301 172.424 157.158C172.424 157.016 172.48 156.879 172.579 156.776C172.678 156.674 172.813 156.614 172.956 156.609C173.098 156.614 173.234 156.674 173.333 156.776C173.432 156.879 173.487 157.016 173.487 157.158C173.487 157.301 173.432 157.438 173.333 157.54C173.234 157.642 173.098 157.702 172.956 157.707ZM173.22 153.886C173.077 153.881 172.942 153.822 172.843 153.719C172.743 153.617 172.688 153.48 172.688 153.337C172.688 153.195 172.743 153.058 172.843 152.955C172.942 152.853 173.077 152.793 173.22 152.788C173.362 152.793 173.497 152.853 173.596 152.955C173.696 153.058 173.751 153.195 173.751 153.337C173.751 153.48 173.696 153.617 173.596 153.719C173.497 153.821 173.362 153.881 173.22 153.886ZM129.861 101.753C130.025 101.722 130.193 101.723 130.356 101.757C130.52 101.791 130.675 101.857 130.812 101.952C130.953 102.058 131.058 102.203 131.115 102.37C131.169 102.534 131.195 102.706 131.192 102.878L131.19 102.856C131.213 102.929 131.253 102.995 131.306 103.05C131.359 103.105 131.424 103.147 131.496 103.173C131.659 103.22 131.83 103.226 131.996 103.191C132.364 103.144 132.742 103.085 133.125 103.052C133.524 103.001 133.93 103.031 134.318 103.14C134.434 103.183 134.537 103.255 134.617 103.348C134.659 103.402 134.691 103.462 134.712 103.527C134.729 103.589 134.736 103.653 134.734 103.717C134.717 103.946 134.622 104.161 134.465 104.328C134.176 104.606 133.833 104.821 133.456 104.959C133.099 105.101 132.732 105.215 132.358 105.3C132.174 105.348 131.982 105.379 131.817 105.437C131.646 105.498 131.476 105.575 131.307 105.654C130.968 105.815 130.64 106.003 130.311 106.189C130.608 105.953 130.918 105.734 131.241 105.534C131.403 105.43 131.574 105.34 131.751 105.263C131.938 105.184 132.12 105.144 132.297 105.085C132.652 104.974 133.001 104.843 133.34 104.693C133.67 104.557 133.97 104.36 134.225 104.112C134.328 104.002 134.391 103.861 134.405 103.711C134.412 103.581 134.341 103.512 134.196 103.448C133.854 103.355 133.498 103.328 133.146 103.369C132.776 103.386 132.405 103.435 132.023 103.466C131.814 103.493 131.602 103.469 131.405 103.394C131.301 103.349 131.21 103.28 131.138 103.193C131.066 103.106 131.016 103.002 130.992 102.892C130.991 102.885 130.99 102.879 130.991 102.873L130.991 102.869C131.004 102.719 130.991 102.568 130.954 102.422C130.92 102.276 130.844 102.144 130.735 102.042C130.49 101.841 130.178 101.738 129.861 101.753ZM137.542 101.993C137.461 102.019 137.387 102.065 137.329 102.127C137.271 102.19 137.229 102.266 137.209 102.349C137.151 102.511 137.113 102.68 137.096 102.851C137.057 103.201 137.042 103.553 137.051 103.906C137.044 104.083 137.054 104.262 137.058 104.441C137.054 104.62 137.067 104.799 137.069 104.979C137.071 105.339 137.088 105.701 137.062 106.07C136.839 105.37 136.723 104.64 136.717 103.906C136.71 103.533 136.752 103.161 136.842 102.799C136.887 102.612 136.962 102.434 137.065 102.272C137.168 102.118 137.346 101.951 137.542 101.993Z" fill="black"/>
<path d="M132.086 103.321C132.075 103.04 132.104 102.76 132.173 102.488C132.207 102.344 132.268 102.208 132.351 102.087C132.397 102.017 132.46 101.96 132.533 101.921C132.607 101.881 132.689 101.86 132.772 101.859C132.931 101.865 133.085 101.913 133.219 101.999C133.356 102.078 133.472 102.19 133.555 102.325C133.712 102.599 133.763 102.92 133.7 103.229C133.694 103.267 133.674 103.3 133.644 103.324C133.614 103.347 133.577 103.358 133.539 103.355C133.501 103.353 133.466 103.336 133.44 103.308C133.414 103.28 133.4 103.244 133.4 103.206V103.199C133.387 102.891 133.443 102.584 133.564 102.301C133.633 102.143 133.744 102.007 133.885 101.908C134.037 101.812 134.218 101.772 134.396 101.796C134.562 101.809 134.722 101.862 134.864 101.949C135.006 102.037 135.125 102.157 135.211 102.3C135.365 102.571 135.443 102.88 135.436 103.192H135.149C135.158 102.938 135.207 102.687 135.295 102.449C135.34 102.323 135.409 102.207 135.499 102.107C135.545 102.053 135.603 102.008 135.667 101.976C135.731 101.943 135.801 101.924 135.873 101.919C136.003 101.921 136.132 101.95 136.25 102.004C136.369 102.058 136.475 102.136 136.561 102.234C136.655 102.314 136.732 102.411 136.787 102.521C136.842 102.631 136.874 102.751 136.881 102.874C136.827 102.644 136.689 102.443 136.493 102.311C136.327 102.168 136.113 102.092 135.893 102.1C135.7 102.122 135.58 102.319 135.52 102.527C135.461 102.744 135.433 102.968 135.436 103.192C135.436 103.229 135.421 103.265 135.394 103.292C135.368 103.318 135.332 103.334 135.295 103.334C135.257 103.335 135.221 103.321 135.194 103.295C135.167 103.269 135.151 103.234 135.149 103.196L135.149 103.192C135.144 102.937 135.072 102.688 134.94 102.469C134.88 102.37 134.796 102.286 134.696 102.226C134.595 102.166 134.482 102.131 134.365 102.125C134.258 102.111 134.148 102.135 134.056 102.192C133.964 102.249 133.894 102.337 133.858 102.44C133.758 102.678 133.706 102.933 133.704 103.192L133.404 103.161C133.456 102.924 133.43 102.676 133.328 102.456C133.273 102.35 133.193 102.259 133.094 102.192C132.999 102.121 132.887 102.075 132.77 102.058C132.549 102.028 132.382 102.287 132.284 102.525C132.188 102.782 132.121 103.049 132.086 103.321ZM132.218 105.223L132.385 106.739C132.388 106.761 132.386 106.783 132.38 106.805C132.374 106.826 132.364 106.846 132.35 106.863C132.336 106.881 132.319 106.895 132.3 106.906C132.28 106.917 132.259 106.924 132.237 106.926C132.215 106.928 132.193 106.926 132.171 106.92C132.15 106.914 132.13 106.903 132.113 106.889C132.096 106.875 132.081 106.858 132.071 106.838C132.06 106.819 132.054 106.797 132.052 106.775C132.05 106.763 132.05 106.751 132.052 106.739L132.218 105.223ZM133.567 104.749L133.958 106.407C133.963 106.429 133.963 106.451 133.96 106.472C133.956 106.494 133.949 106.515 133.937 106.534C133.925 106.552 133.91 106.569 133.892 106.581C133.875 106.594 133.854 106.604 133.833 106.609C133.811 106.614 133.789 106.614 133.768 106.611C133.746 106.607 133.725 106.599 133.706 106.588C133.688 106.576 133.671 106.561 133.658 106.543C133.646 106.525 133.636 106.505 133.631 106.484C133.629 106.473 133.628 106.462 133.627 106.451L133.567 104.749Z" fill="black"/>
<path d="M135.186 106.422L135.293 103.191L135.519 106.415C135.521 106.437 135.518 106.459 135.511 106.48C135.504 106.501 135.493 106.52 135.479 106.536C135.464 106.553 135.447 106.566 135.427 106.576C135.408 106.586 135.386 106.592 135.364 106.593C135.342 106.595 135.32 106.592 135.3 106.585C135.279 106.578 135.26 106.567 135.243 106.553C135.227 106.539 135.213 106.521 135.203 106.501C135.193 106.482 135.188 106.461 135.186 106.439C135.186 106.433 135.186 106.427 135.186 106.422ZM169.81 76.3621C167.87 75.2574 165.705 74.6063 163.477 74.4577C161.269 74.3372 159.066 74.7599 157.061 75.6888C156.049 76.1391 155.098 76.7144 154.23 77.4011C153.351 78.0857 152.571 78.8887 151.912 79.7872C150.674 81.6536 149.865 83.771 149.543 85.9871C149.343 87.0777 149.436 88.1826 149.359 89.3357C149.327 89.9332 149.181 90.519 148.928 91.0614C148.661 91.5944 148.308 92.0803 147.885 92.5001C147.469 92.9222 146.999 93.287 146.487 93.5848C146.209 93.7614 145.9 93.8821 145.576 93.9401L144.743 94.0289C144.211 94.0771 143.688 94.2012 143.191 94.3973L142.417 94.6978C142.173 94.7991 141.936 94.9168 141.708 95.05C140.794 95.6636 139.928 96.3464 139.118 97.0926C138.701 97.4575 138.309 97.8416 137.919 98.2453C137.526 98.6607 137.111 99.054 136.674 99.4233C136.236 99.7895 135.776 100.129 135.297 100.44C134.823 100.77 134.309 101.04 133.769 101.243C133.5 101.342 133.227 101.427 132.949 101.497C132.692 101.549 132.456 101.673 132.266 101.854C131.9 102.264 131.671 102.777 131.609 103.323C131.608 103.332 131.603 103.34 131.596 103.345C131.589 103.35 131.58 103.352 131.571 103.351C131.563 103.35 131.556 103.345 131.55 103.339C131.545 103.332 131.543 103.324 131.543 103.316C131.551 102.731 131.75 102.166 132.111 101.705C132.314 101.479 132.576 101.313 132.868 101.227C133.13 101.134 133.391 101.041 133.643 100.93C134.145 100.708 134.617 100.423 135.047 100.082C135.493 99.752 135.92 99.397 136.332 99.0299C136.742 98.6576 137.13 98.2628 137.495 97.8474C137.871 97.4287 138.268 97.0096 138.684 96.619C139.102 96.2241 139.521 95.8591 139.952 95.4864C140.387 95.1 140.853 94.7497 141.345 94.4391C141.601 94.2854 141.868 94.1517 142.145 94.0395L142.944 93.7315C143.221 93.625 143.504 93.5365 143.792 93.4666C144.081 93.4059 144.374 93.3632 144.668 93.3388L145.514 93.2657C145.744 93.2181 145.964 93.1311 146.164 93.0087C146.63 92.7491 147.06 92.4288 147.442 92.056C147.825 91.689 148.148 91.2649 148.401 90.7986C148.641 90.3269 148.787 89.8135 148.832 89.2865C148.872 88.1578 148.99 87.0331 149.184 85.9204C149.422 84.8122 149.754 83.726 150.174 82.6732C150.581 81.6151 151.105 80.6056 151.735 79.6632C153.034 77.7741 154.781 76.2367 156.821 75.189C158.893 74.1585 161.212 73.727 163.516 73.9429C165.798 74.1611 167.981 74.9762 169.846 76.3061C169.853 76.3112 169.858 76.319 169.86 76.3277C169.861 76.3364 169.859 76.3454 169.854 76.3526C169.849 76.3593 169.842 76.3639 169.834 76.3656C169.826 76.3674 169.817 76.3662 169.81 76.3621Z" fill="black"/>
<path d="M131.068 105.718C131.534 106.884 132.196 107.962 133.024 108.907C133.425 109.362 133.921 109.726 134.476 109.973C135.017 110.198 135.618 110.238 136.184 110.086C137.362 109.735 138.435 109.101 139.31 108.238C139.758 107.815 140.175 107.359 140.558 106.875C140.93 106.385 141.259 105.863 141.541 105.315L141.967 104.463C142.124 104.174 142.302 103.897 142.498 103.633C142.889 103.108 143.351 102.641 143.872 102.244C144.913 101.478 146.1 100.931 147.36 100.638C147.671 100.559 147.988 100.512 148.301 100.447C148.618 100.408 148.936 100.369 149.251 100.322L150.187 100.19C150.5 100.146 150.806 100.068 151.115 100.009C152.344 99.7473 153.528 99.3087 154.631 98.7072C155.719 98.1141 156.672 97.3007 157.428 96.3188C158.161 95.3388 158.638 94.1916 158.816 92.9811C158.866 92.6801 158.894 92.376 158.901 92.071C158.918 91.7655 158.914 91.4592 158.889 91.1542C158.881 90.8535 158.849 90.5321 158.821 90.2143C158.79 89.8971 158.776 89.5762 158.753 89.2571C158.712 88.612 158.709 87.965 158.745 87.3195C158.771 86.6548 158.884 85.9963 159.081 85.3606C159.294 84.6937 159.684 84.0974 160.211 83.6358C160.74 83.1985 161.365 82.8909 162.034 82.7376C163.318 82.4121 164.666 82.4312 165.941 82.793C167.17 83.0969 168.397 83.4109 169.634 83.6817C170.252 83.8156 170.87 83.9541 171.491 84.0692C172.106 84.2044 172.733 84.2735 173.363 84.2755L173.368 84.2752C173.376 84.2748 173.385 84.2777 173.391 84.2833C173.397 84.2889 173.401 84.2968 173.402 84.3053C173.403 84.3137 173.401 84.3222 173.395 84.3289C173.39 84.3356 173.382 84.34 173.374 84.3412C172.736 84.3983 172.093 84.3783 171.46 84.2818C170.826 84.21 170.196 84.1202 169.57 84.0124C168.316 83.7992 167.065 83.5677 165.823 83.3003C164.634 82.9994 163.387 83.0185 162.208 83.3555C161.639 83.5033 161.111 83.775 160.659 84.1512C160.233 84.5377 159.92 85.0337 159.755 85.5853C159.4 86.714 159.409 87.9812 159.447 89.2245C159.464 89.5377 159.472 89.8502 159.497 90.1642C159.519 90.4779 159.545 90.7877 159.549 91.1207C159.57 91.4476 159.568 91.7756 159.544 92.1023C159.531 92.4305 159.495 92.7573 159.435 93.0805C159.222 94.3851 158.674 95.6123 157.846 96.643C157.017 97.6503 155.978 98.4647 154.802 99.0294C153.646 99.5879 152.424 99.9942 151.164 100.238C149.914 100.527 148.623 100.509 147.417 100.862C146.811 101.02 146.222 101.237 145.657 101.508C145.103 101.79 144.582 102.133 144.106 102.532C143.635 102.93 143.222 103.391 142.879 103.903C142.709 104.156 142.557 104.421 142.424 104.696C142.298 104.962 142.182 105.274 142.038 105.562C141.759 106.152 141.422 106.713 141.03 107.235C140.634 107.752 140.191 108.232 139.707 108.668C138.749 109.575 137.581 110.232 136.308 110.581C135.635 110.749 134.924 110.676 134.298 110.375C133.703 110.078 133.178 109.656 132.762 109.138C132.351 108.639 132 108.094 131.717 107.514C131.427 106.945 131.189 106.351 131.005 105.739C131.002 105.73 131.003 105.721 131.008 105.713C131.012 105.706 131.019 105.7 131.027 105.697C131.036 105.695 131.044 105.696 131.052 105.7C131.059 105.704 131.065 105.71 131.068 105.718ZM174.311 78.1035C173.945 78.217 173.575 78.3231 173.205 78.4256L173.491 78.744C173.514 78.7676 173.529 78.7987 173.531 78.8319C173.546 78.927 173.557 79.0258 173.571 79.121L173.678 79.0771C173.963 78.96 174.245 78.8538 174.528 78.7587C174.451 78.5427 174.381 78.3231 174.311 78.1035ZM174.311 78.1035C173.945 78.217 173.575 78.3231 173.205 78.4256L173.491 78.744C173.514 78.7676 173.529 78.7987 173.531 78.8319C173.546 78.927 173.557 79.0258 173.571 79.121L173.678 79.0771C173.963 78.96 174.245 78.8538 174.528 78.7587C174.451 78.5427 174.381 78.3231 174.311 78.1035ZM174.311 78.1035C173.945 78.217 173.575 78.3231 173.205 78.4256L173.491 78.744C173.514 78.7676 173.529 78.7987 173.531 78.8319C173.546 78.927 173.557 79.0258 173.571 79.121L173.678 79.0771C173.963 78.96 174.245 78.8538 174.528 78.7587C174.451 78.5427 174.381 78.3231 174.311 78.1035ZM173.212 78.9233C173.091 78.7879 172.974 78.6525 172.861 78.5171C172.718 78.5573 172.575 78.5939 172.432 78.6269C172.491 78.9014 172.546 79.1905 172.619 79.5089L173.256 79.2491C173.242 79.1393 173.227 79.0331 173.212 78.9233ZM174.311 78.1035C173.945 78.217 173.575 78.3231 173.205 78.4256L173.491 78.744C173.514 78.7676 173.529 78.7987 173.531 78.8319C173.546 78.927 173.557 79.0258 173.571 79.121L173.678 79.0771C173.963 78.96 174.245 78.8538 174.528 78.7587C174.451 78.5427 174.381 78.3231 174.311 78.1035ZM176.968 69.8613L169.827 74.8352C170.468 75.461 171.084 76.1088 171.692 76.764C172.135 77.2361 172.572 77.7143 173.003 78.1987C173.458 78.0376 173.912 77.8839 174.37 77.7375C174.39 77.7306 174.412 77.7279 174.434 77.7295C174.455 77.7311 174.476 77.7371 174.495 77.747C174.514 77.7569 174.531 77.7706 174.545 77.7872C174.559 77.8038 174.569 77.823 174.575 77.8436L174.579 77.8473C174.674 78.1657 174.777 78.4841 174.865 78.8062V78.8135C174.875 78.8514 174.87 78.8918 174.851 78.926C174.832 78.9602 174.8 78.9856 174.762 78.9965C174.396 79.1027 174.022 79.1978 173.659 79.282C173.637 79.2857 173.615 79.293 173.597 79.2967C173.703 80.0908 173.806 80.8887 173.89 81.6829L174.037 83.114C174.073 83.5898 174.121 84.0692 174.15 84.5487L181.529 84.728L176.968 69.8613ZM173.674 74.9011C172.743 75.1013 171.799 75.2394 170.849 75.3146C171.75 75.0085 172.671 74.7615 173.604 74.5753C174.535 74.3719 175.479 74.2325 176.429 74.1581C175.528 74.4662 174.608 74.7144 173.674 74.9011ZM174.528 78.7587C174.451 78.5427 174.381 78.3231 174.311 78.1035C173.945 78.217 173.575 78.3231 173.205 78.4256L173.491 78.744C173.514 78.7676 173.529 78.7987 173.531 78.8319C173.546 78.927 173.557 79.0258 173.571 79.121L173.678 79.0771C173.963 78.96 174.245 78.8538 174.528 78.7587ZM172.861 78.5171C172.718 78.5573 172.575 78.5939 172.432 78.6269C172.491 78.9014 172.546 79.1905 172.619 79.5089L173.256 79.2491C173.242 79.1393 173.227 79.0331 173.212 78.9233C173.091 78.7879 172.974 78.6525 172.861 78.5171ZM174.311 78.1035C173.945 78.217 173.575 78.3231 173.205 78.4256L173.491 78.744C173.514 78.7676 173.529 78.7987 173.531 78.8319C173.546 78.927 173.557 79.0258 173.571 79.121L173.678 79.0771C173.963 78.96 174.245 78.8538 174.528 78.7587C174.451 78.5427 174.381 78.3231 174.311 78.1035ZM173.212 78.9233C173.091 78.7879 172.974 78.6525 172.861 78.5171C172.718 78.5573 172.575 78.5939 172.432 78.6269C172.491 78.9014 172.546 79.1905 172.619 79.5089L173.256 79.2491C173.242 79.1393 173.227 79.0331 173.212 78.9233ZM174.311 78.1035C173.945 78.217 173.575 78.3231 173.205 78.4256L173.491 78.744C173.514 78.7676 173.529 78.7987 173.531 78.8319C173.546 78.927 173.557 79.0258 173.571 79.121L173.678 79.0771C173.963 78.96 174.245 78.8538 174.528 78.7587C174.451 78.5427 174.381 78.3231 174.311 78.1035ZM174.311 78.1035C173.945 78.217 173.575 78.3231 173.205 78.4256L173.491 78.744C173.514 78.7676 173.529 78.7987 173.531 78.8319C173.546 78.927 173.557 79.0258 173.571 79.121L173.678 79.0771C173.963 78.96 174.245 78.8538 174.528 78.7587C174.451 78.5427 174.381 78.3231 174.311 78.1035ZM173.212 78.9233C173.091 78.7879 172.974 78.6525 172.861 78.5171C172.718 78.5573 172.575 78.5939 172.432 78.6269C172.491 78.9014 172.546 79.1905 172.619 79.5089L173.256 79.2491C173.242 79.1393 173.227 79.0331 173.212 78.9233ZM173.872 83.1359L173.63 81.7195C173.498 80.9363 173.381 80.1494 173.275 79.3662C173.047 79.4174 172.831 79.465 172.619 79.5089C172.498 79.2308 172.359 78.916 172.227 78.5866C172.218 78.5643 172.219 78.5396 172.229 78.5177C172.238 78.4959 172.256 78.4786 172.278 78.4695L172.289 78.4658C172.421 78.4146 172.553 78.3634 172.685 78.3158C172.285 77.8583 171.89 77.3971 171.505 76.9287C170.933 76.2406 170.369 75.5489 169.827 74.8352C169.827 74.8352 169.109 82.5687 174.15 84.5487C174.044 84.0802 173.963 83.608 173.872 83.1359ZM173.212 78.9233C173.091 78.7879 172.974 78.6525 172.861 78.5171C172.718 78.5573 172.575 78.5939 172.432 78.6269C172.491 78.9014 172.546 79.1905 172.619 79.5089L173.256 79.2491C173.242 79.1393 173.227 79.0331 173.212 78.9233ZM94.1616 126.237C94.4066 126.195 94.6552 126.144 94.8996 126.087C95.1463 126.036 95.3865 125.958 95.6152 125.853C95.4142 126.012 95.1955 126.148 94.9634 126.258C94.7343 126.375 94.5037 126.484 94.2656 126.588C94.2207 126.607 94.1699 126.608 94.1243 126.59C94.0788 126.572 94.0422 126.537 94.0226 126.492C94.0031 126.447 94.0022 126.397 94.0201 126.351C94.038 126.306 94.0733 126.269 94.1182 126.249C94.1321 126.244 94.1467 126.239 94.1616 126.237ZM71.6606 187.854C70.8989 189.502 70.1001 191.13 69.264 192.738L68.9531 193.342C68.624 193.979 68.1797 194.549 67.6427 195.024C66.917 195.649 66.0519 196.09 65.12 196.312C63.372 196.795 61.6191 197.263 59.8517 197.678C58.9687 197.888 58.0816 198.083 57.1905 198.262C56.7435 198.345 56.2962 198.427 55.8469 198.5C55.3997 198.59 54.9444 198.633 54.4883 198.63C55.3766 198.457 56.2531 198.228 57.1125 197.945L59.7182 197.175C61.4547 196.66 63.1972 196.165 64.94 195.671C65.3615 195.571 65.7712 195.428 66.1624 195.242C66.5458 195.054 66.9052 194.82 67.2331 194.547C67.5639 194.274 67.8594 193.962 68.1129 193.616C68.2401 193.442 68.3577 193.261 68.4651 193.073L68.81 192.488C69.723 190.923 70.6732 189.378 71.6606 187.854ZM79.6511 195.1C79.2082 195.573 78.7978 196.075 78.4228 196.603C78.0553 197.12 77.718 197.658 77.4127 198.214C77.2671 198.495 77.1074 198.77 76.9819 199.062L76.7746 199.493C76.7162 199.641 76.6521 199.787 76.5854 199.934C76.4477 200.224 76.3487 200.53 76.2178 200.829C76.0949 201.131 75.9946 201.441 75.8519 201.747C75.8485 201.414 75.8647 201.081 75.9004 200.749C75.9438 200.418 76.008 200.09 76.0927 199.766C76.2617 199.115 76.5087 198.487 76.8283 197.894C77.1557 197.304 77.5581 196.758 78.0256 196.271C78.4833 195.775 79.0361 195.377 79.6511 195.1Z" fill="black"/>
<path d="M54.7719 198.614C54.7719 198.614 46.001 198.285 46.2062 199.708C46.2062 199.708 44.6455 207.383 67.4521 204.865V209.422L69.3718 210.139H71.6616C71.6616 210.139 75.2923 201.827 76.3732 201.747C76.3732 201.747 52.6104 200.843 54.7719 198.614ZM48.976 200.792C48.8334 200.787 48.6982 200.727 48.599 200.625C48.4998 200.522 48.4443 200.385 48.4443 200.243C48.4443 200.1 48.4998 199.963 48.599 199.861C48.6982 199.758 48.8334 199.698 48.976 199.694C49.1186 199.698 49.2537 199.758 49.353 199.861C49.4522 199.963 49.5076 200.1 49.5076 200.243C49.5076 200.385 49.4522 200.522 49.353 200.625C49.2537 200.727 49.1186 200.787 48.976 200.792ZM51.8776 202.241C51.735 202.236 51.5998 202.176 51.5006 202.074C51.4014 201.972 51.3459 201.835 51.3459 201.692C51.3459 201.549 51.4014 201.413 51.5006 201.31C51.5998 201.208 51.735 201.148 51.8776 201.143C52.0202 201.148 52.1554 201.208 52.2547 201.31C52.3539 201.413 52.4094 201.549 52.4094 201.692C52.4094 201.835 52.3539 201.972 52.2547 202.074C52.1554 202.176 52.0202 202.236 51.8776 202.241ZM55.175 203.295C55.0323 203.29 54.8972 203.23 54.7979 203.128C54.6987 203.026 54.6432 202.889 54.6432 202.746C54.6432 202.604 54.6987 202.467 54.7979 202.364C54.8972 202.262 55.0323 202.202 55.175 202.197C55.3176 202.202 55.4528 202.262 55.552 202.364C55.6512 202.467 55.7067 202.604 55.7067 202.746C55.7067 202.889 55.6512 203.026 55.552 203.128C55.4528 203.23 55.3176 203.29 55.175 203.295ZM174.017 163.081C174.651 163.164 175.238 163.46 175.682 163.92C176.074 164.406 176.417 164.929 176.706 165.483C177.32 166.541 177.896 167.619 178.46 168.703C179.013 169.794 179.555 170.891 180.049 172.011C180.299 172.571 180.536 173.136 180.76 173.708C181.001 174.275 181.182 174.866 181.298 175.472C181.053 174.914 180.774 174.371 180.463 173.846L179.583 172.241C178.995 171.172 178.43 170.09 177.867 169.007C177.316 167.919 176.766 166.829 176.247 165.723C176.012 165.171 175.739 164.637 175.429 164.125C175.07 163.647 174.58 163.284 174.017 163.081ZM175.086 153.125C175.278 153.2 175.479 153.251 175.685 153.277C175.882 153.316 176.085 153.334 176.283 153.362L177.485 153.498C177.888 153.541 178.292 153.595 178.7 153.661C179.119 153.724 179.531 153.819 179.935 153.947C179.116 154.193 178.256 154.265 177.408 154.159C176.981 154.111 176.56 154.013 176.156 153.868C175.95 153.791 175.753 153.694 175.565 153.58C175.37 153.47 175.206 153.314 175.086 153.125Z" fill="black"/>
<path d="M189.491 158.544L189.018 156.308C189.018 156.308 180.189 154.493 179.83 153.449C179.921 153.987 183.823 176.829 181.222 175.197C181.222 175.197 182.713 183.838 184.065 183.344C184.065 183.344 191.902 183.282 184.721 161.512L189.183 160.572L189.491 158.544ZM184.559 180.764C184.417 180.759 184.282 180.699 184.182 180.596C184.083 180.494 184.028 180.357 184.028 180.215C184.028 180.072 184.083 179.935 184.182 179.833C184.282 179.73 184.417 179.67 184.559 179.666C184.702 179.67 184.837 179.73 184.936 179.833C185.036 179.935 185.091 180.072 185.091 180.215C185.091 180.357 185.036 180.494 184.936 180.596C184.837 180.699 184.702 180.759 184.559 180.764ZM185.087 177.338C184.944 177.333 184.809 177.273 184.71 177.171C184.611 177.068 184.555 176.931 184.555 176.789C184.555 176.646 184.611 176.509 184.71 176.407C184.809 176.304 184.944 176.245 185.087 176.24C185.23 176.245 185.365 176.305 185.464 176.407C185.563 176.509 185.619 176.646 185.619 176.789C185.619 176.931 185.563 177.068 185.464 177.171C185.365 177.273 185.23 177.333 185.087 177.338ZM185.219 171.892C185.361 171.897 185.496 171.957 185.595 172.059C185.694 172.162 185.749 172.299 185.749 172.441C185.749 172.583 185.694 172.72 185.595 172.822C185.496 172.925 185.361 172.985 185.219 172.99C185.077 172.985 184.942 172.925 184.843 172.822C184.744 172.72 184.688 172.583 184.688 172.441C184.688 172.298 184.744 172.162 184.843 172.059C184.942 171.957 185.077 171.897 185.219 171.892ZM169.098 102.837C170.585 101.93 172.092 101.06 173.588 100.17L178.111 97.5636C181.127 95.8268 184.168 94.1357 187.209 92.4448C190.258 90.7678 193.307 89.092 196.382 87.4613L200.995 85.0172C202.544 84.2239 204.083 83.4105 205.642 82.6348C204.156 83.5426 202.649 84.4128 201.153 85.3029L196.63 87.9096C193.614 89.6459 190.573 91.3372 187.532 93.0273C184.482 94.7035 181.433 96.3796 178.358 98.0098L173.745 100.454C172.196 101.248 170.657 102.061 169.098 102.837ZM160.274 121.829C161.55 121.088 162.845 120.386 164.131 119.664L168.019 117.561C170.611 116.161 173.228 114.806 175.844 113.452C178.468 112.112 181.093 110.773 183.741 109.48L187.714 107.542C189.05 106.918 190.375 106.274 191.72 105.667C190.444 106.408 189.149 107.11 187.864 107.833L183.976 109.935C181.383 111.336 178.766 112.69 176.149 114.044C173.525 115.383 170.901 116.722 168.252 118.015L164.279 119.953C162.944 120.577 161.619 121.222 160.274 121.829ZM187.37 125.585C188.646 124.845 189.941 124.143 191.227 123.421L195.115 121.318C197.707 119.917 200.324 118.563 202.94 117.209C205.564 115.869 208.189 114.53 210.837 113.237L214.81 111.299C216.146 110.675 217.471 110.03 218.815 109.424C217.54 110.165 216.244 110.867 214.96 111.589L211.071 113.692C208.479 115.093 205.862 116.447 203.245 117.801C200.621 119.14 197.997 120.479 195.348 121.772L191.375 123.709C190.04 124.334 188.715 124.979 187.37 125.585ZM113.224 121.527C113.503 121.735 113.75 121.981 113.959 122.259C114.172 122.535 114.355 122.833 114.504 123.148C114.649 123.469 114.752 123.807 114.809 124.154C114.862 124.502 114.842 124.858 114.748 125.197C114.698 124.866 114.625 124.538 114.53 124.217C114.427 123.905 114.307 123.6 114.171 123.301C113.894 122.702 113.561 122.131 113.224 121.527ZM104.751 94.4602C104.641 95.0229 104.587 95.5949 104.589 96.1681C104.612 96.7327 104.674 97.2949 104.776 97.8508C104.884 98.4066 104.987 98.9681 105.118 99.5324C105.243 100.098 105.439 100.646 105.703 101.163C105.712 101.18 105.716 101.199 105.715 101.218C105.693 101.661 105.625 102.1 105.513 102.529C105.393 103.003 105.103 103.415 104.697 103.689C104.471 103.815 104.218 103.886 103.958 103.896C103.699 103.907 103.441 103.857 103.205 103.751C102.742 103.562 102.345 103.241 102.064 102.827C101.766 102.398 101.647 101.87 101.73 101.355L101.762 101.086C101.761 101.013 101.756 100.94 101.746 100.867C101.705 100.732 101.619 100.615 101.501 100.538C101.159 100.358 100.779 100.262 100.392 100.257C99.9667 100.232 99.5398 100.236 99.1148 100.27C99.1104 100.27 99.106 100.27 99.1017 100.269C99.0975 100.267 99.0936 100.265 99.0902 100.262C99.0868 100.26 99.084 100.256 99.0819 100.252C99.0799 100.248 99.0786 100.244 99.0782 100.24C99.0777 100.232 99.0795 100.225 99.0833 100.219C99.0872 100.213 99.0928 100.208 99.0996 100.205C99.5113 100.043 99.9414 99.932 100.38 99.8746C100.855 99.7953 101.343 99.8507 101.788 100.034C102.049 100.168 102.252 100.394 102.358 100.668C102.401 100.803 102.426 100.943 102.433 101.084L102.409 101.458C102.378 101.805 102.466 102.152 102.659 102.442C103.02 103.059 103.822 103.508 104.46 103.233C104.805 103.065 105.076 102.775 105.221 102.419C105.39 102.035 105.489 101.624 105.513 101.205L105.525 101.26C105.256 100.729 104.989 100.206 104.74 99.6625C104.481 99.1202 104.295 98.5462 104.186 97.9553C104.086 97.357 104.065 96.7483 104.124 96.1447C104.193 95.542 104.385 94.96 104.689 94.435C104.694 94.4273 104.701 94.4218 104.71 94.4196C104.719 94.4175 104.728 94.4188 104.735 94.4234C104.741 94.4274 104.746 94.433 104.749 94.4395C104.751 94.446 104.752 94.4532 104.751 94.4602Z" fill="black"/>
<path d="M99.1144 100.272L99.0549 100.289C99.048 100.291 99.0407 100.291 99.0337 100.29C98.5249 100.189 98.0334 100.016 97.5748 99.7739C97.1053 99.534 96.682 99.2129 96.3247 98.8254C95.9589 98.4406 95.656 98.0007 95.4271 97.5218C95.1892 97.0396 95.0261 96.5241 94.9431 95.9929C94.937 95.9521 94.941 95.9103 94.9548 95.8714C94.9687 95.8324 94.9919 95.7975 95.0224 95.7697C95.053 95.7418 95.09 95.7219 95.13 95.7117C95.1701 95.7015 95.2121 95.7013 95.2523 95.7112L95.2866 95.7199C95.3514 95.7407 95.42 95.7472 95.4876 95.7387C95.535 95.7245 95.5754 95.6932 95.6009 95.6508C95.6874 95.4941 95.7362 95.3194 95.7433 95.1407C95.7946 94.7373 95.7363 94.3275 95.5746 93.9544C95.5312 93.8685 95.4755 93.7922 95.4291 93.7092C95.3689 93.6544 95.3189 93.5701 95.2564 93.5444C95.201 93.5042 95.1361 93.4789 95.0681 93.4708C95 93.4628 94.9311 93.4724 94.8678 93.4987C94.5074 93.6648 94.1963 93.9213 93.9648 94.2433L93.9515 94.2601C93.9229 94.2959 93.8854 94.3236 93.8428 94.3403C93.1839 94.5617 92.4769 94.5984 91.7986 94.4465C91.151 94.3261 90.5185 94.1349 89.9127 93.8764C89.3107 93.6267 88.7258 93.3452 88.1545 93.0414C87.5844 92.7341 87.0225 92.4185 86.4759 92.0662L86.4663 92.06C86.4535 92.0517 86.4433 92.04 86.437 92.0261C86.4306 92.0123 86.4284 91.9969 86.4304 91.9818C86.4359 91.9342 86.4515 91.8882 86.4763 91.8471C86.4927 91.8163 86.511 91.7865 86.5312 91.7579C86.5685 91.7003 86.6107 91.6511 86.6515 91.5993C86.7356 91.5 86.8238 91.4064 86.9145 91.3164C87.0963 91.1368 87.2855 90.9677 87.4762 90.8009C87.859 90.4687 88.2586 90.1601 88.6556 89.8478C89.0558 89.54 89.4608 89.2391 89.8709 88.9451C90.2823 88.6392 90.7111 88.3573 91.1551 88.101C92.0959 87.5714 93.1972 87.4009 94.2543 87.6212C95.3021 87.9094 96.2223 88.5417 96.8666 89.4162C97.4011 90.1771 98.213 90.6983 99.1279 90.8678C99.5836 90.9435 100.049 90.9461 100.505 90.8756C100.737 90.8346 100.966 90.7817 101.192 90.7169L101.888 90.482C102.878 90.1133 103.94 89.9814 104.989 90.0969C106.039 90.2123 107.047 90.5718 107.932 91.1465C107.965 91.1689 107.992 91.2002 108.008 91.2368C108.024 91.2734 108.03 91.3138 108.024 91.3534C108.019 91.3931 108.002 91.4304 107.977 91.4611C107.951 91.4919 107.917 91.5148 107.879 91.5272L107.866 91.5314C107.72 91.596 107.581 91.6775 107.453 91.7742C107.304 91.8772 107.158 91.9878 107.012 92.1002C106.72 92.3248 106.436 92.5624 106.148 92.796L105.72 93.1512C105.586 93.2715 105.461 93.4011 105.346 93.5392C105.11 93.8209 104.911 94.1307 104.753 94.4614C104.749 94.4691 104.742 94.4751 104.735 94.4782C104.727 94.4812 104.718 94.4811 104.71 94.4779C104.702 94.4747 104.696 94.4686 104.692 94.4608C104.689 94.4531 104.688 94.4442 104.691 94.4362C104.813 94.0784 104.985 93.7396 105.202 93.4296C105.312 93.2718 105.432 93.1222 105.564 92.982L105.961 92.587C106.227 92.3251 106.502 92.073 106.782 91.8231C106.923 91.6988 107.066 91.5759 107.215 91.4566C107.374 91.317 107.553 91.2019 107.747 91.115L107.681 91.4998C106.843 91.0201 105.907 90.7388 104.943 90.6775C103.983 90.6188 103.021 90.7706 102.126 91.1222L101.397 91.3828C101.141 91.4615 100.882 91.5264 100.619 91.577C100.081 91.6636 99.5317 91.6597 98.9946 91.5654C98.4563 91.4631 97.9438 91.2548 97.487 90.9527C97.0301 90.6505 96.638 90.2606 96.3336 89.8055C95.7899 89.0365 95.0076 88.4681 94.1078 88.1883C93.1814 87.9694 92.2075 88.0814 91.355 88.5047C90.9141 88.7258 90.4865 88.9723 90.0742 89.243C89.6524 89.5139 89.2352 89.7914 88.8225 90.0754C88.411 90.3603 88.0056 90.6551 87.6203 90.9718C87.4266 91.1289 87.2385 91.2925 87.0618 91.4651C86.9732 91.5513 86.8882 91.64 86.8089 91.7316C86.7716 91.7782 86.7314 91.8242 86.7001 91.872C86.6675 91.9092 86.6348 91.9909 86.6324 91.9821L86.587 91.8978C87.6634 92.5888 88.8195 93.1472 90.03 93.5611C90.6241 93.7704 91.2391 93.9147 91.8643 93.9917C92.4567 94.0835 93.0627 94.0237 93.6257 93.818L93.5038 93.9149C93.7893 93.4779 94.1994 93.1363 94.681 92.9342C94.8315 92.8796 94.9929 92.8616 95.1518 92.8816C95.3106 92.9016 95.4624 92.9591 95.5946 93.0494C95.7154 93.1355 95.8218 93.2401 95.9099 93.3594C95.9773 93.4742 96.052 93.5866 96.1087 93.7058C96.3085 94.1769 96.3772 94.6932 96.3075 95.2001C96.288 95.4791 96.195 95.7479 96.0377 95.9792C95.9298 96.1247 95.772 96.2255 95.5945 96.2624C95.435 96.2862 95.2721 96.2701 95.1204 96.2155L95.4638 95.9425C95.5274 96.4209 95.6547 96.8887 95.8423 97.3334C96.0329 97.7848 96.2874 98.2066 96.598 98.5857C96.9089 98.9702 97.2792 99.3028 97.6947 99.5711C98.1186 99.8421 98.5746 100.059 99.0523 100.217L99.0312 100.218L99.1035 100.206C99.1118 100.205 99.1204 100.206 99.1275 100.211C99.1345 100.216 99.1395 100.223 99.1414 100.231C99.1433 100.24 99.1419 100.248 99.1376 100.256C99.1333 100.263 99.1264 100.268 99.1183 100.271L99.1144 100.272Z" fill="black"/>
<path d="M104.374 95.9719C104.359 96.1403 104.352 96.3087 104.352 96.477C104.342 96.3084 104.349 96.1391 104.374 95.9719ZM106.975 91.8984C106.975 91.8984 107.026 91.935 107.129 92.0119L104.923 94.2444C105.428 93.3224 106.128 92.5217 106.975 91.8984Z" stroke="black" stroke-width="0.968" stroke-linecap="round" stroke-linejoin="round"/>
<path d="M122.588 115.402C125.462 118.063 128.32 120.739 131.161 123.432C134.023 126.104 136.841 128.823 139.691 131.507C141.119 132.846 142.523 134.21 143.936 135.565L146.055 137.598L148.158 139.648C150.969 142.372 153.753 145.127 156.597 147.818L156.478 147.785C157.335 147.558 158.162 147.227 158.939 146.798C159.723 146.377 160.447 145.855 161.093 145.244C161.744 144.64 162.299 143.94 162.737 143.169C162.855 142.981 162.957 142.785 163.045 142.581L163.329 141.978L163.621 141.361C163.715 141.153 163.846 140.967 163.957 140.769C164.916 139.229 166.092 137.836 167.449 136.631C168.784 135.408 170.217 134.295 171.734 133.306L171.863 133.785L171.364 133.731C171.199 133.71 171.05 133.66 170.892 133.626C170.585 133.549 170.282 133.456 169.985 133.346C169.394 133.133 168.818 132.893 168.253 132.636C167.122 132.122 166.015 131.565 164.925 130.981C162.744 129.814 160.612 128.566 158.496 127.296C154.261 124.758 150.121 122.075 146.007 119.354C141.885 116.646 137.836 113.831 133.783 111.024L127.747 106.752C125.741 105.318 123.75 103.864 121.757 102.414C121.75 102.408 121.744 102.4 121.743 102.39C121.741 102.381 121.743 102.371 121.749 102.363C121.754 102.355 121.763 102.35 121.772 102.348C121.782 102.347 121.791 102.349 121.799 102.354L134.096 110.567C138.183 113.321 142.309 116.015 146.419 118.731C148.478 120.083 150.546 121.421 152.622 122.744C154.701 124.065 156.773 125.395 158.871 126.68C160.968 127.968 163.084 129.225 165.234 130.412C166.307 131.009 167.394 131.579 168.499 132.102C169.051 132.365 169.61 132.607 170.175 132.822C170.459 132.919 170.742 133.037 171.028 133.103C171.17 133.138 171.315 133.19 171.455 133.21L171.874 133.268L171.903 133.272C171.956 133.279 172.005 133.302 172.044 133.339C172.083 133.375 172.11 133.422 172.121 133.474C172.131 133.526 172.126 133.58 172.105 133.629C172.084 133.678 172.048 133.719 172.003 133.747C170.486 134.684 169.05 135.744 167.708 136.918C166.348 138.071 165.164 139.416 164.191 140.909C164.082 141.101 163.95 141.283 163.858 141.484L163.57 142.082L163.276 142.693C163.184 142.902 163.077 143.103 162.955 143.295C162.498 144.083 161.924 144.797 161.251 145.411C159.909 146.648 158.293 147.55 156.536 148.042C156.516 148.047 156.495 148.047 156.474 148.042C156.454 148.038 156.436 148.027 156.421 148.013L156.416 148.009C153.562 145.328 150.66 142.699 147.793 140.031L145.638 138.035L143.503 136.019C142.08 134.674 140.653 133.333 139.25 131.968C136.439 129.242 133.607 126.537 130.829 123.776C128.04 121.027 125.276 118.253 122.537 115.454C122.53 115.447 122.526 115.438 122.526 115.428C122.526 115.419 122.53 115.41 122.537 115.403C122.543 115.396 122.552 115.392 122.562 115.392C122.572 115.392 122.581 115.395 122.588 115.402Z" fill="black"/>
<path d="M156.906 146.683C157.048 146.678 157.183 146.618 157.282 146.515C157.381 146.413 157.437 146.276 157.437 146.134C157.437 145.991 157.381 145.854 157.282 145.752C157.183 145.65 157.048 145.59 156.906 145.585C156.763 145.59 156.628 145.65 156.529 145.752C156.43 145.854 156.375 145.991 156.375 146.134C156.375 146.276 156.43 146.413 156.529 146.515C156.628 146.618 156.763 146.678 156.906 146.683ZM159.016 145.716C159.159 145.711 159.294 145.651 159.393 145.549C159.492 145.447 159.547 145.31 159.547 145.167C159.547 145.025 159.492 144.888 159.393 144.786C159.294 144.683 159.159 144.623 159.016 144.618C158.874 144.623 158.739 144.683 158.64 144.786C158.541 144.888 158.485 145.025 158.485 145.167C158.485 145.31 158.541 145.447 158.64 145.549C158.739 145.651 158.874 145.711 159.016 145.716ZM160.863 144.223C161.005 144.218 161.14 144.158 161.239 144.056C161.338 143.953 161.394 143.817 161.394 143.674C161.394 143.532 161.338 143.395 161.239 143.292C161.14 143.19 161.005 143.13 160.863 143.125C160.72 143.13 160.585 143.19 160.486 143.292C160.387 143.395 160.332 143.532 160.332 143.674C160.332 143.817 160.387 143.953 160.486 144.056C160.585 144.158 160.72 144.218 160.863 144.223ZM162.357 141.851C162.5 141.847 162.635 141.787 162.734 141.684C162.833 141.582 162.888 141.445 162.888 141.302C162.888 141.16 162.833 141.023 162.734 140.921C162.635 140.818 162.5 140.758 162.357 140.753C162.215 140.758 162.08 140.818 161.981 140.921C161.882 141.023 161.827 141.16 161.827 141.302C161.827 141.445 161.882 141.582 161.981 141.684C162.08 141.787 162.215 141.847 162.357 141.851ZM163.501 139.48C163.643 139.475 163.778 139.415 163.877 139.312C163.976 139.21 164.031 139.073 164.031 138.931C164.031 138.788 163.976 138.652 163.877 138.549C163.778 138.447 163.643 138.387 163.501 138.382C163.358 138.387 163.223 138.447 163.124 138.549C163.025 138.652 162.97 138.788 162.97 138.931C162.97 139.073 163.025 139.21 163.124 139.312C163.223 139.415 163.358 139.475 163.501 139.48ZM165.347 137.46C165.49 137.455 165.625 137.395 165.724 137.292C165.823 137.19 165.878 137.053 165.878 136.911C165.878 136.768 165.823 136.631 165.724 136.529C165.625 136.426 165.49 136.366 165.347 136.362C165.205 136.366 165.07 136.426 164.971 136.529C164.871 136.631 164.816 136.768 164.816 136.911C164.816 137.053 164.871 137.19 164.971 137.292C165.07 137.395 165.205 137.455 165.347 137.46ZM167.369 135.878C167.512 135.874 167.647 135.814 167.746 135.711C167.845 135.609 167.9 135.472 167.9 135.329C167.9 135.187 167.845 135.05 167.746 134.948C167.647 134.845 167.512 134.785 167.369 134.78C167.227 134.785 167.092 134.845 166.993 134.948C166.894 135.05 166.839 135.187 166.839 135.329C166.839 135.472 166.894 135.609 166.993 135.711C167.092 135.814 167.227 135.874 167.369 135.878ZM169.304 134.561C169.446 134.556 169.581 134.496 169.68 134.394C169.779 134.291 169.835 134.154 169.835 134.012C169.835 133.869 169.779 133.733 169.68 133.63C169.581 133.528 169.446 133.468 169.304 133.463C169.161 133.468 169.026 133.528 168.927 133.63C168.828 133.733 168.773 133.869 168.773 134.012C168.773 134.154 168.828 134.291 168.927 134.394C169.026 134.496 169.161 134.556 169.304 134.561Z" fill="black"/>
</g>
<defs>
<clipPath id="clip0_5_841">
<rect width="382" height="208" fill="white"/>
</clipPath>
</defs>
</svg>
