<svg width="382" height="208" viewBox="0 0 382 208" fill="none" xmlns="http://www.w3.org/2000/svg">
<path d="M95.2936 63.9972C95.148 64.3621 94.9724 64.7143 94.7684 65.0502C94.5607 65.3869 94.32 65.7023 94.05 65.9917C93.777 66.282 93.4737 66.5425 93.1453 66.7685C92.8134 67.0039 92.4488 67.1893 92.0631 67.3189L92.0469 67.3222C91.7575 67.3456 91.4691 67.3971 91.1767 67.3956C90.8821 67.3987 90.588 67.3715 90.299 67.3145C90.0063 67.2608 89.7203 67.1752 89.4463 67.0593C89.1754 66.9329 88.9189 66.7779 88.6812 66.5969C88.2105 66.2311 87.8154 65.7775 87.5178 65.2614C87.2208 64.7467 87.0041 64.1898 86.8751 63.6098L87.2534 63.7944C86.9725 63.9201 86.6641 63.9721 86.3574 63.9454C86.0791 63.9321 85.8027 63.8922 85.532 63.8262C85.4981 63.8183 85.4662 63.8037 85.438 63.7834C85.4098 63.7632 85.3859 63.7375 85.3677 63.708C85.3494 63.6785 85.3371 63.6456 85.3315 63.6114C85.326 63.5771 85.3272 63.5421 85.3352 63.5083L85.3437 63.4795L85.3469 63.4707L85.9653 61.7579L85.9624 61.9454C85.6596 60.9535 85.5563 59.9115 85.6585 58.8796C85.7029 58.3726 85.7748 57.8684 85.874 57.3693C85.9729 56.8686 86.1025 56.3744 86.2621 55.8896C86.2756 55.8487 86.2984 55.8114 86.3285 55.7806C86.3587 55.7498 86.3956 55.7263 86.4362 55.7119C86.4769 55.6975 86.5203 55.6926 86.5632 55.6976C86.606 55.7026 86.6472 55.7173 86.6835 55.7406L86.6879 55.7436C87.2112 56.0845 87.7676 56.4052 88.325 56.7057C88.884 57.0052 89.4597 57.2724 90.0493 57.5061C90.6315 57.7449 91.2377 57.9201 91.8576 58.0287C92.4604 58.1564 93.0863 58.1239 93.6726 57.9345L93.6052 57.9882C93.8878 57.5885 94.278 57.277 94.7306 57.0897C94.8568 57.0438 94.9922 57.029 95.1253 57.0465C95.2585 57.064 95.3854 57.1132 95.4955 57.19C95.6 57.2651 95.6922 57.3559 95.7688 57.4592C95.8298 57.565 95.8987 57.6672 95.9511 57.7767C96.1395 58.2192 96.2038 58.7046 96.1372 59.1808C96.1208 59.4294 96.0409 59.6695 95.9051 59.8783C95.8224 59.993 95.7002 60.0731 95.562 60.1032C95.4303 60.1224 95.2959 60.1094 95.1704 60.0653L95.3057 59.9575C95.4504 60.9501 95.8819 61.8789 96.5473 62.6301C96.8754 63.0046 97.2642 63.3214 97.6975 63.5672C98.1296 63.8147 98.5944 64.0003 99.0783 64.1185H99.0089C99.4393 64.0081 99.8791 63.9385 100.323 63.9104C100.785 63.8618 101.253 63.9292 101.683 64.1065C101.922 64.2177 102.111 64.4144 102.213 64.6579C102.299 64.8958 102.318 65.1527 102.269 65.4009C102.22 65.7838 102.312 66.1715 102.529 66.4908C102.744 66.8169 103.048 67.0742 103.406 67.2316C103.568 67.3106 103.746 67.3522 103.926 67.3534C104.107 67.3546 104.285 67.3153 104.448 67.2384C104.766 67.0453 105.001 66.7423 105.109 66.3871C105.238 66.0016 105.312 65.6 105.328 65.194L105.363 65.3504C104.903 64.4807 104.551 63.5583 104.314 62.6036C104.056 61.6395 103.976 60.6366 104.077 59.6437C104.184 58.6096 104.627 57.6391 105.339 56.8812C105.702 56.5248 106.049 56.2184 106.421 55.8973C106.605 55.7395 106.791 55.5836 106.987 55.4313C107.084 55.3546 107.184 55.2798 107.292 55.2052C107.347 55.168 107.398 55.1311 107.465 55.0936C107.499 55.0746 107.523 55.0578 107.566 55.0373C107.613 55.0165 107.66 54.9973 107.707 54.98L107.599 55.6111C106.792 55.1173 105.88 54.8187 104.936 54.7391C103.982 54.652 103.02 54.7813 102.123 55.1173L101.392 55.3673C101.136 55.4415 100.876 55.5013 100.613 55.5464C100.078 55.6253 99.5341 55.6158 99.0023 55.5184C97.9305 55.3058 96.9864 54.6782 96.3761 53.7726C95.825 52.9937 95.0329 52.4173 94.1218 52.1319C93.183 51.9082 92.195 52.0262 91.3354 52.4647C90.896 52.6923 90.4699 52.9446 90.0592 53.2205C89.6382 53.4931 89.2202 53.7698 88.8079 54.0548C88.3976 54.342 87.9888 54.6325 87.5987 54.9453C87.4037 55.1017 87.2118 55.2618 87.0282 55.4302C86.8415 55.5841 86.6845 55.7707 86.5648 55.9809L86.555 56.003C86.5518 56.0102 86.546 56.0159 86.5387 56.0189C86.5314 56.0219 86.5233 56.022 86.516 56.0191C86.5087 56.0162 86.5027 56.0107 86.4994 56.0035C86.4961 55.9964 86.4956 55.9883 86.4982 55.9809C86.6016 55.7408 86.7551 55.5256 86.9485 55.3496C87.1236 55.166 87.3089 54.9935 87.4984 54.8263C87.8766 54.4905 88.2728 54.178 88.6712 53.8682C89.4652 53.2359 90.3019 52.6589 91.1752 52.1414C92.1085 51.6263 93.1952 51.461 94.2397 51.6755C95.2759 51.9581 96.1858 52.583 96.8209 53.4484C97.0886 53.8314 97.4293 54.1578 97.8235 54.4089C98.2178 54.6599 98.6578 54.8308 99.1183 54.9115C99.5792 54.984 100.049 54.9812 100.509 54.9031C100.738 54.8507 100.97 54.8051 101.195 54.7296L101.888 54.4843C102.881 54.0953 103.952 53.9422 105.014 54.0372C106.077 54.1322 107.103 54.4727 108.011 55.0317C108.054 55.0595 108.091 55.0972 108.117 55.1419C108.143 55.1866 108.158 55.2368 108.16 55.2884C108.163 55.34 108.153 55.3914 108.131 55.4384C108.11 55.4855 108.078 55.5267 108.037 55.5586L107.903 55.663C107.896 55.6687 107.887 55.6729 107.878 55.6754C107.867 55.6796 107.841 55.697 107.823 55.7069C107.785 55.727 107.739 55.7603 107.695 55.7899C107.606 55.8513 107.514 55.9195 107.423 55.9908C107.241 56.132 107.06 56.2826 106.881 56.4357C106.529 56.7399 106.151 57.0605 105.83 57.3713C105.215 58.0161 104.828 58.8443 104.729 59.7294C104.627 60.6427 104.691 61.567 104.918 62.4575C105.134 63.3632 105.452 64.2415 105.867 65.0754L105.874 65.0906C105.896 65.1344 105.905 65.1833 105.901 65.2319C105.872 65.6925 105.777 66.1466 105.62 66.5805C105.457 67.0573 105.122 67.4564 104.68 67.7004C104.449 67.8074 104.196 67.8605 103.941 67.8558C103.686 67.851 103.436 67.7885 103.208 67.673C102.773 67.4654 102.407 67.1357 102.156 66.7242C101.896 66.3095 101.797 65.8136 101.878 65.3308C101.937 65.1615 101.933 64.9768 101.868 64.8101C101.802 64.6434 101.679 64.5056 101.52 64.4219C101.147 64.2617 100.741 64.1948 100.336 64.227C99.9127 64.2418 99.4916 64.296 99.0783 64.389L99.0674 64.3914C99.048 64.3956 99.0278 64.3948 99.0088 64.389C98.506 64.2475 98.0235 64.0419 97.5733 63.7772C97.1213 63.5141 96.7166 63.1771 96.3762 62.7804C96.0327 62.3885 95.7502 61.9471 95.5384 61.4712C95.3252 60.9954 95.1778 60.4929 95.1002 59.9775C95.0977 59.9607 95.0994 59.9435 95.1054 59.9276C95.1114 59.9117 95.1213 59.8976 95.1342 59.8866C95.1472 59.8756 95.1627 59.8681 95.1794 59.8648C95.1961 59.8614 95.2133 59.8624 95.2295 59.8676L95.2356 59.8696C95.3195 59.9101 95.4149 59.9201 95.5055 59.8981C95.596 59.876 95.6761 59.8232 95.732 59.7487C95.8405 59.5694 95.9025 59.366 95.9124 59.1567C95.9679 58.7226 95.9043 58.2815 95.7285 57.8807C95.5548 57.4814 95.2004 57.1835 94.814 57.3413C94.4254 57.5239 94.0953 57.8108 93.8603 58.1699C93.8428 58.1934 93.8195 58.2119 93.7927 58.2237C93.1571 58.4586 92.4707 58.522 91.8028 58.4073C91.1503 58.3175 90.5096 58.1569 89.892 57.9285C89.277 57.7092 88.6752 57.455 88.0894 57.1669C87.5013 56.8818 86.929 56.5651 86.3751 56.2183L86.8008 56.0722C86.6609 56.5363 86.5454 57.0074 86.4548 57.4836C86.3619 57.9607 86.295 58.4425 86.2543 58.9268C86.2191 59.4074 86.2149 59.8897 86.2417 60.3707C86.2777 60.8438 86.3644 61.3116 86.5004 61.7662L86.5033 61.7757C86.5211 61.8341 86.5191 61.8967 86.4975 61.9538L85.8557 63.658L85.6707 63.3025C85.904 63.3621 86.1425 63.3998 86.3829 63.4149C86.5952 63.438 86.81 63.4104 87.0096 63.3344C87.0726 63.303 87.1455 63.298 87.2123 63.3204C87.279 63.3427 87.3342 63.3906 87.3655 63.4536C87.3756 63.4744 87.3832 63.4963 87.388 63.5189C87.5004 64.0432 87.6897 64.5479 87.9498 65.0168C88.2013 65.4895 88.5421 65.909 88.9535 66.252C89.1595 66.42 89.3827 66.5656 89.6194 66.6866C89.8621 66.7984 90.1164 66.8834 90.3776 66.9402C90.6407 67.0015 90.9095 67.0354 91.1796 67.0416C91.4507 67.0524 91.7243 67.0118 91.9978 67.0003L91.9818 67.0036C92.3397 66.8957 92.6817 66.7407 92.9986 66.5426C93.3237 66.343 93.6265 66.1093 93.902 65.8455C94.1783 65.5788 94.4275 65.2854 94.6459 64.9695C94.8681 64.653 95.0642 64.319 95.2322 63.9708C95.2359 63.9627 95.2425 63.9564 95.2508 63.9532C95.259 63.95 95.2682 63.9503 95.2763 63.9539C95.2841 63.9577 95.2901 63.9642 95.2933 63.9722C95.2965 63.9802 95.2966 63.9891 95.2936 63.9972Z" fill="black"/>
<path d="M95.7696 61.6991C95.8646 61.8916 95.8945 62.1096 95.8548 62.3205C95.8368 62.4239 95.8037 62.5241 95.7566 62.618C95.7308 62.6685 95.6991 62.7158 95.6621 62.7589C95.6411 62.7818 95.6179 62.8026 95.5929 62.8211C95.5799 62.8329 95.5636 62.8406 95.5462 62.8433C95.5288 62.8459 95.511 62.8434 95.495 62.8361C95.533 62.7972 95.5083 62.7468 95.5099 62.6986C95.5082 62.6509 95.5031 62.6012 95.5046 62.5539C95.5034 62.457 95.5107 62.3603 95.5263 62.2647C95.5568 62.0582 95.6407 61.8633 95.7696 61.6991ZM85.9582 60.4758C86.0541 60.3987 86.1743 60.3583 86.2973 60.3617C86.3459 60.3656 86.3936 60.3768 86.4388 60.395C86.4875 60.4123 86.5312 60.443 86.6135 60.4758C86.6056 60.5145 86.5885 60.5509 86.5636 60.5817C86.5388 60.6125 86.5069 60.637 86.4707 60.653C86.4114 60.6833 86.3451 60.6975 86.2786 60.694C86.2103 60.6903 86.1443 60.6681 86.0879 60.6296C86.0314 60.5911 85.9865 60.5379 85.9582 60.4758ZM87.7737 60.0385C88.0605 59.8218 88.3702 59.6373 88.6972 59.488L89.1655 59.2669C89.3261 59.1977 89.4769 59.1078 89.614 58.9994C89.5753 59.192 89.4674 59.3639 89.3106 59.4825C89.168 59.6032 89.0109 59.7057 88.8429 59.7874C88.5109 59.9532 88.1448 60.0392 87.7737 60.0385ZM88.7739 61.0976C88.9036 61.0931 89.0264 61.0386 89.1166 60.9454C89.2068 60.8522 89.2572 60.7276 89.2572 60.598C89.2572 60.4684 89.2068 60.3438 89.1166 60.2506C89.0264 60.1574 88.9036 60.1028 88.7739 60.0984C88.6442 60.1028 88.5213 60.1574 88.4311 60.2506C88.341 60.3438 88.2906 60.4684 88.2906 60.598C88.2906 60.7276 88.341 60.8522 88.4311 60.9454C88.5213 61.0386 88.6442 61.0931 88.7739 61.0976ZM88.9039 65.3639C88.8221 65.1427 88.7914 64.9059 88.8139 64.6712C88.8327 64.4321 88.8969 64.1988 89.0031 63.9838C89.1102 63.7654 89.2665 63.5748 89.4596 63.4267C89.6464 63.2788 89.8685 63.1819 90.1041 63.1458C89.9387 63.2915 89.7834 63.4482 89.6391 63.6149C89.5048 63.7726 89.3911 63.9468 89.3008 64.1332C89.1174 64.5252 88.984 64.9387 88.9039 65.3639ZM83.293 46.5301C83.6926 46.9105 84.0476 47.3351 84.3511 47.7957C84.6667 48.2481 84.9292 48.7354 85.1332 49.2478C84.7331 48.8679 84.3781 48.4432 84.0752 47.9822C83.7601 47.5294 83.4977 47.0422 83.293 46.5301ZM88.8962 44.8516C89.0137 45.3491 89.0696 45.8591 89.0628 46.3703C89.0704 46.8814 89.0144 47.3916 88.8962 47.889C88.778 47.3916 88.722 46.8814 88.7296 46.3703C88.7227 45.8591 88.7787 45.3491 88.8962 44.8516ZM93.2146 48.3685C93.2743 47.8447 93.3961 47.3297 93.5775 46.8346C93.7453 46.3347 93.9727 45.8567 94.2548 45.4111C94.1958 45.9351 94.074 46.4501 93.8918 46.945C93.7234 47.4446 93.4961 47.9225 93.2146 48.3685ZM94.2134 65.6675C94.7866 65.6897 95.3535 65.7954 95.8962 65.9812C96.1885 66.0735 96.4555 66.2321 96.6763 66.4445C96.7393 66.5066 96.7888 66.5811 96.8217 66.6632C96.8399 66.7073 96.8529 66.7534 96.8604 66.8005L96.8716 66.8964C96.8736 66.9101 96.8799 66.9022 96.8548 66.8848C96.8474 66.8777 96.8376 66.8738 96.8273 66.8738C96.829 66.8702 96.8249 66.8733 96.831 66.872C96.8777 66.8554 96.9219 66.8324 96.9622 66.8036C97.179 66.6449 97.3785 66.4637 97.5571 66.263C97.7501 66.065 97.9278 65.8505 98.1083 65.6381C98.2855 65.4229 98.4581 65.2033 98.6211 64.9765C98.7939 64.7557 98.9366 64.513 99.0456 64.2548C98.9127 64.8133 98.6642 65.3378 98.316 65.7946C97.9978 66.2835 97.6028 66.7179 97.1461 67.0812C97.0705 67.1332 96.9863 67.1715 96.8973 67.1942C96.8638 67.1998 96.8298 67.2018 96.7958 67.2003C96.7511 67.1944 96.7081 67.1789 96.6699 67.1547C96.608 67.1081 96.5663 67.0395 96.5532 66.9631L96.5436 66.8848L96.5406 66.849C96.5374 66.8264 96.5316 66.8042 96.5234 66.7829C96.5039 66.7336 96.475 66.6885 96.4382 66.6502C96.2556 66.4655 96.0377 66.3194 95.7974 66.2206C95.2831 65.9992 94.7538 65.8144 94.2134 65.6675ZM91.1337 67.223C91.914 67.9895 92.6226 68.8256 93.2506 69.7209C93.5688 70.1674 93.8601 70.6323 94.1231 71.1133C94.4116 71.5865 94.5931 72.117 94.6549 72.6676C94.5805 72.408 94.4696 72.1602 94.3254 71.9318C94.1973 71.6966 94.0443 71.4728 93.8996 71.2462C93.6033 70.7961 93.29 70.3548 92.9783 69.9127C92.3564 69.0261 91.7195 68.1485 91.1337 67.223ZM104.924 58.2441C104.649 58.7562 104.466 59.3123 104.382 59.8874C104.422 59.3935 104.537 58.9086 104.723 58.449L104.924 58.2441ZM116.74 61.6991C116.74 61.6991 117.619 60.118 120.019 58.998C120.019 58.998 121.301 49.409 118.418 47.8901C118.418 47.8901 116.48 48.2891 107.808 55.3234L107.13 56.0115C108.13 56.7289 113.966 60.9195 121.777 66.3838C119.517 64.2683 117.436 62.3249 116.74 61.6991ZM119.231 58.1123C119.088 58.1076 118.953 58.0477 118.854 57.9453C118.755 57.8428 118.699 57.7059 118.699 57.5633C118.699 57.4208 118.755 57.2838 118.854 57.1814C118.953 57.079 119.088 57.0191 119.231 57.0143C119.374 57.0191 119.509 57.079 119.608 57.1814C119.707 57.2838 119.763 57.4208 119.763 57.5633C119.763 57.7059 119.707 57.8428 119.608 57.9453C119.509 58.0477 119.374 58.1076 119.231 58.1123ZM119.187 55.0819C119.044 55.0772 118.909 55.0173 118.81 54.9148C118.711 54.8124 118.655 54.6754 118.655 54.5329C118.655 54.3904 118.711 54.2534 118.81 54.151C118.909 54.0485 119.044 53.9886 119.187 53.9839C119.33 53.9886 119.465 54.0485 119.564 54.151C119.663 54.2534 119.719 54.3904 119.719 54.5329C119.719 54.6754 119.663 54.8124 119.564 54.9148C119.465 55.0173 119.33 55.0772 119.187 55.0819ZM118.879 52.3589C118.737 52.3542 118.601 52.2943 118.502 52.1919C118.403 52.0894 118.348 51.9525 118.348 51.8099C118.348 51.6674 118.403 51.5304 118.502 51.428C118.601 51.3255 118.737 51.2656 118.879 51.2609C119.022 51.2656 119.157 51.3255 119.256 51.428C119.356 51.5304 119.411 51.6674 119.411 51.8099C119.411 51.9525 119.356 52.0894 119.256 52.1919C119.157 52.2943 119.022 52.3542 118.879 52.3589ZM118.176 48.6697C118.318 48.6748 118.453 48.7348 118.552 48.8372C118.651 48.9396 118.706 49.0764 118.706 49.2187C118.706 49.361 118.651 49.4977 118.552 49.6001C118.453 49.7025 118.318 49.7626 118.176 49.7677C118.034 49.7626 117.899 49.7026 117.8 49.6002C117.701 49.4978 117.646 49.361 117.646 49.2187C117.646 49.0764 117.701 48.9396 117.8 48.8372C117.899 48.7348 118.034 48.6748 118.176 48.6697Z" fill="black"/>
<path d="M104.352 60.4758C104.344 62.8877 105.616 65.2117 105.616 65.2117C105.344 69.2889 101.714 67.3418 102.076 65.3618C102.406 63.5465 99.5778 64.1284 99.1088 64.2382C98.8817 64.8933 97.702 66.3317 97.2184 66.8185C96.6981 67.3382 96.7055 66.8734 96.7055 66.8734C96.7055 66.8734 96.2035 68.0116 95.632 69.5927C96.1195 69.2111 96.67 68.9175 97.2587 68.7253C97.8481 68.5219 98.4639 68.4047 99.0869 68.3776C100.021 68.3409 100.952 68.4954 101.824 68.8314C102.109 68.9485 102.384 69.0913 102.655 69.2304C102.077 69.0512 101.487 68.9118 100.889 68.8131C99.7051 68.6222 98.4941 68.677 97.3319 68.9741C96.7449 69.1195 96.1751 69.3269 95.632 69.5927C95.0149 71.2402 94.5394 72.9372 94.2105 74.6654C94.2105 74.6654 93.6939 77.941 93.6133 86.7358L103.934 87.6142L104.575 82.4976C104.62 80.8968 104.889 79.31 105.374 77.7836C105.36 78.5841 105.282 79.3821 105.139 80.1699C105.012 80.9594 104.824 81.7377 104.575 82.4976C104.575 82.4976 107.935 83.376 108.975 83.2186C109.354 83.0849 109.75 83.0096 110.151 82.9954C110.349 82.9844 110.543 82.9807 110.741 82.9881C110.935 82.9881 111.129 83.0137 111.338 83.0173C111.172 83.1455 110.977 83.232 110.77 83.2699C110.574 83.3172 110.375 83.3467 110.173 83.3577C109.896 83.3741 109.619 83.3594 109.345 83.3138C110.283 83.8737 111.217 86.7358 111.217 86.7358C111.217 86.7358 117.46 83.0722 122.56 79.4269C112.917 70.0099 104.857 61.8665 104.352 60.4758ZM94.8296 86.1758C94.687 86.1711 94.5518 86.1112 94.4526 86.0088C94.3534 85.9063 94.298 85.7694 94.298 85.6268C94.298 85.4843 94.3534 85.3474 94.4526 85.2449C94.5518 85.1425 94.687 85.0826 94.8296 85.0779C94.9722 85.0826 95.1074 85.1425 95.2066 85.2449C95.3058 85.3474 95.3613 85.4843 95.3613 85.6268C95.3613 85.7694 95.3058 85.9063 95.2066 86.0088C95.1074 86.1112 94.9722 86.1711 94.8296 86.1758ZM97.3356 86.2637C97.193 86.259 97.0578 86.1991 96.9586 86.0967C96.8593 85.9942 96.8039 85.8573 96.8039 85.7147C96.8039 85.5722 96.8593 85.4352 96.9586 85.3328C97.0578 85.2303 97.193 85.1704 97.3356 85.1657C97.4782 85.1704 97.6134 85.2303 97.7126 85.3328C97.8119 85.4352 97.8673 85.5722 97.8673 85.7147C97.8673 85.8573 97.8119 85.9942 97.7126 86.0967C97.6134 86.1991 97.4782 86.259 97.3356 86.2637ZM100.149 86.5272C100.007 86.5225 99.8716 86.4626 99.7724 86.3601C99.6731 86.2577 99.6177 86.1207 99.6177 85.9782C99.6177 85.8357 99.6731 85.6987 99.7724 85.5963C99.8716 85.4938 100.007 85.4339 100.149 85.4292C100.292 85.4339 100.427 85.4938 100.526 85.5963C100.626 85.6987 100.681 85.8357 100.681 85.9782C100.681 86.1207 100.626 86.2577 100.526 86.3601C100.427 86.4626 100.292 86.5225 100.149 86.5272ZM102.567 86.7029C102.425 86.6982 102.29 86.6382 102.19 86.5358C102.091 86.4334 102.036 86.2964 102.036 86.1539C102.036 86.0113 102.091 85.8744 102.19 85.772C102.29 85.6695 102.425 85.6096 102.567 85.6049C102.71 85.6096 102.845 85.6695 102.944 85.772C103.044 85.8744 103.099 86.0113 103.099 86.1539C103.099 86.2964 103.044 86.4334 102.944 86.5358C102.845 86.6382 102.71 86.6982 102.567 86.7029ZM105.506 73.6333C105.471 73.8196 105.427 74.0041 105.374 74.1859C105.355 73.9956 105.352 73.8089 105.344 73.6259C105.319 73.4429 105.311 73.2599 105.29 73.0806C105.246 72.7237 105.167 72.3719 105.055 72.0302C104.833 71.3408 104.417 70.7298 103.857 70.2697C104.223 70.3961 104.547 70.6202 104.795 70.9175C105.051 71.212 105.247 71.554 105.37 71.924C105.491 72.2913 105.552 72.6757 105.55 73.0623C105.55 73.2563 105.524 73.4466 105.506 73.6333ZM111.844 85.3414C111.701 85.3367 111.566 85.2768 111.467 85.1743C111.368 85.0719 111.312 84.9349 111.312 84.7924C111.312 84.6499 111.368 84.5129 111.467 84.4105C111.566 84.308 111.701 84.2481 111.844 84.2434C111.986 84.2481 112.122 84.3081 112.221 84.4105C112.32 84.5129 112.375 84.6499 112.375 84.7924C112.375 84.9349 112.32 85.0718 112.221 85.1743C112.122 85.2767 111.986 85.3366 111.844 85.3414ZM114.394 83.6725C114.251 83.6678 114.116 83.6079 114.017 83.5054C113.918 83.403 113.862 83.266 113.862 83.1235C113.862 82.9809 113.918 82.844 114.017 82.7415C114.116 82.6391 114.251 82.5792 114.394 82.5745C114.536 82.5792 114.672 82.6391 114.771 82.7416C114.87 82.844 114.925 82.981 114.925 83.1235C114.925 83.266 114.87 83.4029 114.771 83.5054C114.672 83.6078 114.536 83.6677 114.394 83.6725ZM117.603 81.74C117.461 81.7353 117.325 81.6754 117.226 81.5729C117.127 81.4705 117.072 81.3335 117.072 81.191C117.072 81.0485 117.127 80.9115 117.226 80.8091C117.325 80.7066 117.461 80.6467 117.603 80.642C117.746 80.6468 117.881 80.7067 117.98 80.8091C118.079 80.9116 118.135 81.0485 118.135 81.191C118.135 81.3335 118.079 81.4704 117.98 81.5729C117.881 81.6753 117.746 81.7352 117.603 81.74ZM120.857 79.6319C120.714 79.6272 120.579 79.5673 120.48 79.4648C120.38 79.3624 120.325 79.2254 120.325 79.0829C120.325 78.9403 120.38 78.8034 120.48 78.7009C120.579 78.5985 120.714 78.5386 120.857 78.5339C120.999 78.5386 121.134 78.5986 121.234 78.701C121.333 78.8034 121.388 78.9404 121.388 79.0829C121.388 79.2254 121.333 79.3623 121.234 79.4648C121.134 79.5672 120.999 79.6271 120.857 79.6319ZM118.988 48.3392C119.82 47.758 120.762 47.3538 121.757 47.1515C122.783 46.9586 123.844 47.0808 124.799 47.502C125.726 47.9654 126.538 48.6297 127.176 49.4464C127.836 50.2194 128.412 51.0418 128.983 51.8616C130.117 53.5078 131.145 55.224 132.13 56.9613C133.105 58.704 134.059 60.4568 134.991 62.2195L134.984 62.2084L136.318 64.0608C136.759 64.681 137.22 65.2876 137.671 65.9006L137.484 65.8441C137.569 65.818 137.66 65.8135 137.747 65.8309C137.834 65.8483 137.916 65.8871 137.985 65.9439C138.099 66.0358 138.193 66.1508 138.259 66.2814C138.377 66.5153 138.46 66.765 138.505 67.0228C138.597 67.5154 138.642 68.0153 138.642 68.5162C138.665 69.0359 138.59 69.5552 138.42 70.047C138.395 70.1153 138.362 70.1808 138.324 70.2426C138.287 70.3127 138.24 70.3773 138.184 70.4343C138.123 70.5062 138.048 70.5652 137.964 70.6079C137.879 70.6505 137.787 70.676 137.693 70.6827C137.513 70.6898 137.335 70.6403 137.185 70.5412C137.063 70.4589 136.951 70.3632 136.851 70.2561L137.332 70.1445C137.269 70.3649 137.171 70.5737 137.042 70.7627C136.974 70.8803 136.881 70.9822 136.771 71.0619C136.661 71.1416 136.535 71.1974 136.402 71.2256C136.269 71.2538 136.131 71.2539 135.998 71.2257C135.865 71.1976 135.739 71.1419 135.628 71.0623C135.532 70.9967 135.439 70.9272 135.352 70.8551L135.119 70.6262L135.589 70.6179C135.465 70.7608 135.319 70.8832 135.157 70.9804C134.983 71.0877 134.786 71.1517 134.582 71.167C134.365 71.1812 134.148 71.1274 133.963 71.0129C133.798 70.9118 133.652 70.7822 133.532 70.6301L133.871 70.7457C133.016 70.968 132.143 71.1178 131.262 71.1938C130.793 71.2407 130.318 71.2102 129.859 71.1034C129.725 71.0669 129.596 71.0143 129.475 70.9467C129.352 70.8678 129.242 70.7704 129.15 70.6579C128.985 70.4641 128.854 70.2444 128.762 70.0077C128.473 69.1275 128.442 68.183 128.675 67.2861C128.722 66.9109 128.677 66.5297 128.543 66.1759C128.409 65.8222 128.19 65.5067 127.906 65.2572C126.596 64.1517 125.261 63.0507 123.959 61.9239C122.648 60.8052 121.346 59.6743 120.055 58.5311C120.048 58.5254 120.044 58.5174 120.044 58.5089C120.043 58.5003 120.046 58.4918 120.051 58.4852C120.057 58.4785 120.064 58.4742 120.073 58.4731C120.081 58.472 120.09 58.4743 120.097 58.4794C121.484 59.5047 122.859 60.5454 124.221 61.6014C125.595 62.6469 126.938 63.7154 128.303 64.7845C128.68 65.0912 128.975 65.4876 129.16 65.9375C129.34 66.3912 129.406 66.882 129.353 67.3671L129.258 68.0064C129.236 68.2065 129.225 68.4076 129.225 68.6089C129.219 68.9944 129.286 69.3776 129.423 69.7384C129.486 69.9043 129.576 70.0584 129.69 70.1945C129.734 70.2488 129.785 70.2971 129.842 70.3382C129.91 70.3738 129.981 70.4017 130.056 70.4214C130.438 70.5028 130.83 70.527 131.22 70.4935C132.059 70.4356 132.892 70.3079 133.709 70.1116C133.77 70.0977 133.834 70.1007 133.893 70.1203C133.952 70.14 134.005 70.1755 134.045 70.223L134.048 70.2273C134.116 70.3174 134.199 70.3953 134.293 70.4578C134.368 70.5099 134.457 70.5355 134.548 70.5304C134.651 70.5231 134.75 70.4915 134.838 70.438C134.939 70.379 135.032 70.3055 135.112 70.2199C135.169 70.1567 135.249 70.1187 135.335 70.1144C135.42 70.1101 135.503 70.1398 135.567 70.1969C135.571 70.2011 135.577 70.2072 135.582 70.2116L135.763 70.3966C135.826 70.4495 135.889 70.4985 135.952 70.5449C136.047 70.6146 136.165 70.6477 136.283 70.6382C136.402 70.6048 136.504 70.5284 136.57 70.4238C136.665 70.2925 136.739 70.1473 136.79 69.9935L136.798 69.9707C136.813 69.9241 136.841 69.8824 136.877 69.8501C136.914 69.8177 136.959 69.7959 137.008 69.7868C137.056 69.7777 137.106 69.7818 137.152 69.7985C137.198 69.8152 137.239 69.844 137.271 69.8819C137.403 70.0418 137.577 70.1573 137.662 70.1453C137.737 70.1645 137.865 70.0312 137.947 69.8423C138.103 69.4145 138.185 68.9629 138.189 68.5074C138.212 68.0346 138.192 67.5607 138.129 67.0916C138.102 66.8673 138.041 66.6483 137.949 66.4419C137.868 66.2468 137.692 66.1132 137.598 66.1409L137.582 66.1454C137.551 66.1546 137.518 66.1537 137.487 66.1427C137.456 66.1317 137.429 66.1113 137.411 66.0843C136.982 65.4555 136.562 64.8204 136.123 64.1989L134.817 62.3261L134.81 62.3149C133.869 60.5608 132.865 58.8398 131.786 57.1674C130.716 55.4893 129.594 53.848 128.487 52.1983C127.931 51.3761 127.381 50.5498 126.76 49.7946C126.176 49.0273 125.44 48.3883 124.599 47.9172C123.734 47.4876 122.76 47.3288 121.804 47.4615C120.826 47.5935 119.882 47.9107 119.022 48.3961C119.015 48.4002 119.006 48.4011 118.998 48.3989C118.99 48.3967 118.983 48.3913 118.978 48.3841C118.974 48.3768 118.972 48.3681 118.974 48.3597C118.976 48.3514 118.981 48.344 118.988 48.3392Z" fill="black"/>
<path d="M123.617 55.2012C122.984 55.8347 122.318 56.413 121.675 57.0124C121.354 57.3112 121.032 57.6098 120.734 57.9272C120.414 58.2231 120.169 58.5899 120.016 58.9979C120.009 58.7681 120.063 58.5403 120.173 58.3384C120.274 58.1343 120.396 57.9406 120.535 57.7601C120.81 57.4036 121.116 57.0717 121.448 56.7683C122.104 56.1587 122.832 55.6324 123.617 55.2012Z" fill="black"/>
<path d="M109.343 83.3099C109.218 83.2898 109.096 83.2592 108.977 83.2184C109.106 83.2034 109.236 83.2359 109.343 83.3099Z" fill="white"/>
<path d="M94.247 86.7854C94.2931 87.994 94.3176 89.2026 94.3508 90.4112L94.351 90.4181C94.3517 90.4445 94.3438 90.4705 94.3286 90.492C94.3133 90.5136 94.2914 90.5297 94.2663 90.5378C93.6215 90.7184 92.9525 90.7977 92.2834 90.7728C91.6262 90.7772 90.9738 90.7248 90.3228 90.6641C89.0256 90.5213 87.7373 90.3076 86.4636 90.0239C85.194 89.7332 83.9317 89.4137 82.6813 89.0552C82.0582 88.8694 81.4305 88.6973 80.811 88.5002L78.9577 87.8944C78.8911 87.8727 78.8347 87.8276 78.799 87.7675L78.7977 87.7652C77.864 86.1914 76.9527 84.6043 76.0455 83.0147L76.0758 83.0546C75.8549 82.8361 75.6043 82.6498 75.3315 82.501C75.0555 82.3482 74.7581 82.2375 74.4493 82.1728C74.1408 82.1044 73.823 82.0879 73.5091 82.124C73.1916 82.1589 72.8802 82.2361 72.583 82.3533L72.6104 82.3383C72.5211 82.4193 72.4522 82.5203 72.4095 82.633C72.3582 82.7604 72.3262 82.8946 72.3144 83.0314C72.2886 83.3185 72.3101 83.6079 72.3781 83.8881C72.3853 83.9209 72.3796 83.9553 72.3621 83.984C72.3447 84.0127 72.3168 84.0337 72.2843 84.0424L72.2795 84.0437C72.0897 84.0976 71.9146 84.1937 71.7673 84.3249C71.6172 84.4582 71.4976 84.6221 71.4165 84.8056C71.3391 84.9952 71.2928 85.196 71.2796 85.4004C71.2724 85.5036 71.2786 85.6087 71.2771 85.7129L71.3111 86.027L71.3125 86.0395C71.3148 86.061 71.3095 86.0827 71.2976 86.1009C71.1466 86.3759 70.9017 86.5876 70.6076 86.6975C70.5664 86.7092 70.524 86.7157 70.4813 86.7169C70.4298 86.7194 70.429 86.7251 70.3995 86.7261C70.3477 86.7448 70.3003 86.7737 70.26 86.8113C70.1672 86.8997 70.0936 87.0063 70.0439 87.1245C69.8421 87.6313 69.8217 88.1922 69.9861 88.7123C69.9905 88.7273 69.9916 88.7431 69.9892 88.7586C69.9557 88.973 69.903 89.1839 69.8317 89.3889C69.7648 89.6105 69.6409 89.8108 69.4725 89.9697C69.4208 90.0121 69.362 90.0449 69.2988 90.0667C69.2376 90.0819 69.1368 90.0924 69.1446 90.0922C69.0844 90.1316 69.0393 90.1902 69.0167 90.2585C68.9461 90.4429 68.9016 90.6361 68.8843 90.8328C68.8416 91.2378 68.8553 91.6469 68.9252 92.0482C68.9561 92.2418 69.0129 92.4305 69.0941 92.609C69.1289 92.6847 69.1788 92.7525 69.2408 92.8082C69.313 92.8583 69.392 92.8978 69.4753 92.9255C69.8624 93.0347 70.2631 93.0882 70.6653 93.0846C71.0764 93.0931 71.4905 93.0737 71.9036 93.0417C72.7305 92.9767 73.5547 92.8552 74.373 92.7075C74.4269 92.6977 74.4825 92.7079 74.5295 92.736L74.5383 92.7413C77.404 94.4562 80.3751 95.9891 83.4339 97.3307C84.966 97.9883 86.518 98.6012 88.1008 99.1086C89.6727 99.6359 91.2826 100.043 92.9163 100.326L94.1425 100.485C94.3456 100.517 94.5509 100.532 94.7565 100.532L95.3713 100.552L95.9864 100.574C96.1902 100.577 96.3852 100.558 96.5848 100.545C97.5845 100.437 98.5422 100.085 99.3726 99.5182C100.203 98.9516 100.88 98.1889 101.344 97.2977C101.699 96.5588 101.966 95.7811 102.14 94.9803C102.338 94.1726 102.496 93.3553 102.611 92.5316C102.843 90.8762 102.972 89.2081 102.996 87.5368C102.996 87.5282 103 87.5199 103.006 87.5138C103.012 87.5077 103.02 87.5042 103.029 87.5041C103.038 87.504 103.046 87.5073 103.052 87.5132C103.059 87.5192 103.062 87.5274 103.063 87.536C103.14 89.2155 103.096 90.8984 102.932 92.5716C102.845 93.4113 102.716 94.2459 102.544 95.0724C102.458 95.4866 102.359 95.8982 102.245 96.3072C102.132 96.7257 101.981 97.1331 101.794 97.5243C101.406 98.3109 100.866 99.0131 100.205 99.5903C99.5439 100.168 98.7751 100.608 97.9428 100.888C97.5256 101.028 97.0955 101.127 96.6589 101.184C96.4413 101.204 96.2177 101.23 96.0028 101.232L95.3608 101.22L94.7183 101.206C94.5045 101.208 94.2909 101.194 94.0792 101.164L92.8095 101.012C91.1342 100.742 89.4849 100.33 87.8791 99.7821C86.2777 99.2473 84.7054 98.6294 83.1685 97.9309C80.095 96.55 77.1261 94.9478 74.2851 93.1369L74.4503 93.1707C73.6142 93.2982 72.7722 93.3838 71.9275 93.4272C71.5042 93.4454 71.0795 93.452 70.6528 93.4316C70.2158 93.4227 69.7824 93.3504 69.3662 93.2169C69.2519 93.1747 69.1447 93.1155 69.0483 93.0411C68.9545 92.9558 68.88 92.8517 68.8295 92.7355C68.7419 92.5302 68.6828 92.3139 68.6536 92.0926C68.5942 91.6655 68.5898 91.2324 68.6404 90.8042C68.6624 90.5833 68.7157 90.3668 68.7987 90.1609C68.8224 90.096 68.8589 90.0365 68.9063 89.9861C68.9536 89.9357 69.0107 89.8954 69.0741 89.8677L69.2295 89.8435C69.2653 89.8307 69.2987 89.8119 69.3282 89.7879C69.5789 89.4864 69.7337 89.1169 69.7726 88.7269L69.7757 88.7731C69.6025 88.2031 69.6328 87.5907 69.8613 87.0405C69.9227 86.8978 70.0114 86.7685 70.1224 86.6599C70.1852 86.6001 70.2602 86.5547 70.3422 86.5266C70.4531 86.5031 70.4991 86.5136 70.5531 86.494C70.7896 86.3941 70.9843 86.2158 71.1047 85.9893L71.0912 86.063L71.0501 85.7274C71.0494 85.6138 71.0416 85.5003 71.048 85.3863C71.0597 85.1546 71.1092 84.9264 71.1946 84.7107C71.2871 84.4927 71.4257 84.2973 71.6007 84.1377C71.7781 83.9748 71.9912 83.8558 72.223 83.7901L72.1246 83.9456C72.0481 83.6388 72.0172 83.3224 72.0327 83.0066C72.0414 82.8419 72.0745 82.6794 72.1308 82.5244C72.189 82.3512 72.2932 82.1971 72.4323 82.0785C72.4383 82.0734 72.4451 82.0693 72.4524 82.0663L72.4598 82.0634C72.7811 81.923 73.1197 81.8263 73.4666 81.7757C73.8173 81.7232 74.1743 81.729 74.5231 81.7931C74.873 81.8536 75.2118 81.9662 75.5281 82.1273C75.8498 82.288 76.1463 82.4947 76.4082 82.7409C76.4167 82.7489 76.4242 82.758 76.4305 82.7679L76.4385 82.781C77.405 84.3353 78.3673 85.8921 79.3072 87.4622L79.1474 87.3331C80.3776 87.7298 81.6043 88.1359 82.8416 88.5067C84.0783 88.8796 85.3255 89.2133 86.5791 89.5184C87.8374 89.7972 89.0978 90.0721 90.3723 90.248C91.0095 90.3289 91.6491 90.4017 92.2886 90.4186C92.6085 90.4335 92.9279 90.4284 93.2448 90.412C93.5539 90.4021 93.8609 90.3594 94.161 90.2848L94.0764 90.4113C94.1096 89.2027 94.1341 87.9941 94.1803 86.7855C94.1806 86.7768 94.1843 86.7687 94.1905 86.7627C94.1967 86.7567 94.205 86.7534 94.2136 86.7534C94.2223 86.7534 94.2306 86.7567 94.2368 86.7627C94.243 86.7687 94.2467 86.7768 94.247 86.7854Z" fill="black"/>
<path d="M72.2789 83.7367L74.2318 84.2174L72.224 84.0986C72.1999 84.0972 72.1763 84.091 72.1545 84.0805C72.1328 84.0699 72.1134 84.0552 72.0973 84.0372C72.0813 84.0191 72.069 83.9981 72.061 83.9753C72.0531 83.9525 72.0498 83.9283 72.0512 83.9043C72.0527 83.8802 72.0588 83.8566 72.0694 83.8349C72.0799 83.8132 72.0947 83.7938 72.1127 83.7777C72.1308 83.7617 72.1518 83.7494 72.1747 83.7415C72.1975 83.7336 72.2217 83.7303 72.2458 83.7317C72.2569 83.7324 72.268 83.7341 72.2789 83.7367ZM152.71 120.294C151.523 120.865 150.165 120.968 148.906 120.582C147.647 120.196 146.58 119.349 145.918 118.212C143.324 113.732 139.971 106.01 140.99 97.1929L125.716 82.4982C124.214 84.416 114.098 89.5326 114.098 89.5326C114.098 89.5326 78.4175 132.855 68.7344 147.722C68.7344 147.722 79.0513 165.626 93.6146 161.311C108.178 156.996 124.02 152.52 131.541 153.479C139.063 154.438 164.189 152.839 169.149 144.684C174.11 136.534 175.227 115.269 175.227 114.79V114.31C175.227 114.31 170.494 111.807 152.71 120.294ZM71.5297 148.322C71.3871 148.318 71.2519 148.258 71.1527 148.155C71.0535 148.053 70.998 147.916 70.998 147.773C70.998 147.631 71.0535 147.494 71.1527 147.391C71.2519 147.289 71.3871 147.229 71.5297 147.224C71.6723 147.229 71.8075 147.289 71.9067 147.391C72.0058 147.494 72.0613 147.631 72.0613 147.773C72.0613 147.916 72.0058 148.053 71.9067 148.155C71.8075 148.258 71.6723 148.317 71.5297 148.322ZM73.5081 150.957C73.3655 150.953 73.2303 150.893 73.1311 150.79C73.0319 150.688 72.9764 150.551 72.9764 150.408C72.9764 150.266 73.0319 150.129 73.1311 150.026C73.2303 149.924 73.3655 149.864 73.5081 149.859C73.6507 149.864 73.7859 149.924 73.8851 150.026C73.9843 150.129 74.0397 150.266 74.0397 150.408C74.0397 150.551 73.9843 150.688 73.8851 150.79C73.7859 150.893 73.6507 150.953 73.5081 150.957ZM75.6184 153.593C75.4758 153.588 75.3407 153.528 75.2415 153.425C75.1422 153.323 75.0868 153.186 75.0868 153.044C75.0868 152.901 75.1422 152.764 75.2415 152.662C75.3407 152.559 75.4758 152.499 75.6184 152.495C75.7609 152.499 75.896 152.559 75.995 152.662C76.0941 152.764 76.1495 152.901 76.1495 153.044C76.1495 153.186 76.0941 153.323 75.995 153.425C75.896 153.528 75.7609 153.588 75.6184 153.593ZM77.9926 155.964C77.85 155.959 77.7148 155.9 77.6155 155.797C77.5163 155.695 77.4608 155.558 77.4608 155.415C77.4608 155.273 77.5163 155.136 77.6155 155.033C77.7148 154.931 77.85 154.871 77.9926 154.866C78.1351 154.871 78.2702 154.931 78.3693 155.033C78.4685 155.136 78.5239 155.273 78.5239 155.415C78.5239 155.558 78.4685 155.695 78.3693 155.797C78.2702 155.899 78.1351 155.959 77.9926 155.964ZM80.7623 158.072C80.6197 158.068 80.4845 158.008 80.3853 157.905C80.2861 157.803 80.2306 157.666 80.2306 157.523C80.2306 157.381 80.2861 157.244 80.3853 157.141C80.4845 157.039 80.6197 156.979 80.7623 156.974C80.9049 156.979 81.0399 157.039 81.1391 157.141C81.2382 157.244 81.2936 157.381 81.2936 157.523C81.2936 157.666 81.2382 157.803 81.1391 157.905C81.0399 158.008 80.9049 158.067 80.7623 158.072ZM84.1915 159.522C84.0489 159.517 83.9137 159.457 83.8145 159.355C83.7153 159.252 83.6598 159.115 83.6598 158.973C83.6598 158.83 83.7153 158.693 83.8145 158.591C83.9137 158.488 84.0489 158.428 84.1915 158.424C84.3341 158.428 84.4693 158.488 84.5685 158.591C84.6676 158.693 84.7231 158.83 84.7231 158.973C84.7231 159.115 84.6676 159.252 84.5685 159.355C84.4693 159.457 84.3341 159.517 84.1915 159.522ZM87.8846 160.18C87.742 160.176 87.6068 160.116 87.5076 160.013C87.4084 159.911 87.3529 159.774 87.3529 159.631C87.3529 159.489 87.4084 159.352 87.5076 159.249C87.6068 159.147 87.742 159.087 87.8846 159.082C88.0271 159.087 88.1621 159.147 88.2612 159.25C88.3603 159.352 88.4157 159.489 88.4157 159.631C88.4157 159.774 88.3603 159.911 88.2612 160.013C88.1621 160.116 88.0271 160.176 87.8846 160.18ZM91.7095 159.785C91.5669 159.78 91.4317 159.721 91.3325 159.618C91.2333 159.516 91.1778 159.379 91.1778 159.236C91.1778 159.094 91.2333 158.957 91.3325 158.854C91.4317 158.752 91.5669 158.692 91.7095 158.687C91.852 158.692 91.987 158.752 92.0861 158.854C92.1852 158.957 92.2406 159.094 92.2406 159.236C92.2406 159.379 92.1852 159.515 92.0861 159.618C91.987 159.72 91.852 159.78 91.7095 159.785ZM95.6663 158.468C95.5237 158.463 95.3885 158.403 95.2893 158.301C95.19 158.198 95.1346 158.061 95.1346 157.919C95.1346 157.776 95.19 157.639 95.2893 157.537C95.3885 157.434 95.5237 157.374 95.6663 157.37C95.8088 157.374 95.9439 157.434 96.043 157.537C96.1421 157.639 96.1975 157.776 96.1975 157.919C96.1974 158.061 96.1421 158.198 96.043 158.3C95.9439 158.403 95.8088 158.463 95.6663 158.468ZM99.755 157.018C99.6124 157.014 99.4772 156.954 99.378 156.851C99.2788 156.749 99.2233 156.612 99.2233 156.469C99.2233 156.327 99.2788 156.19 99.378 156.087C99.4772 155.985 99.6124 155.925 99.755 155.92C99.8975 155.925 100.032 155.985 100.132 156.087C100.231 156.19 100.286 156.327 100.286 156.469C100.286 156.612 100.231 156.749 100.132 156.851C100.032 156.953 99.8975 157.013 99.755 157.018ZM103.976 155.569C103.833 155.564 103.698 155.504 103.599 155.402C103.499 155.299 103.444 155.162 103.444 155.02C103.444 154.877 103.499 154.74 103.599 154.638C103.698 154.536 103.833 154.476 103.976 154.471C104.118 154.476 104.253 154.536 104.352 154.638C104.451 154.741 104.506 154.877 104.506 155.02C104.506 155.162 104.451 155.299 104.352 155.402C104.253 155.504 104.118 155.564 103.976 155.569ZM108.196 154.383C108.054 154.378 107.918 154.318 107.819 154.216C107.72 154.114 107.664 153.977 107.664 153.834C107.664 153.692 107.72 153.555 107.819 153.452C107.918 153.35 108.054 153.29 108.196 153.285C108.339 153.29 108.474 153.35 108.573 153.452C108.672 153.555 108.727 153.692 108.727 153.834C108.727 153.977 108.672 154.113 108.573 154.216C108.474 154.318 108.339 154.378 108.196 154.383ZM112.153 153.593C112.01 153.588 111.875 153.528 111.776 153.425C111.677 153.323 111.621 153.186 111.621 153.044C111.621 152.901 111.677 152.764 111.776 152.662C111.875 152.559 112.01 152.499 112.153 152.495C112.295 152.499 112.43 152.559 112.529 152.662C112.628 152.764 112.684 152.901 112.684 153.044C112.684 153.186 112.628 153.323 112.529 153.425C112.43 153.528 112.295 153.588 112.153 153.593ZM116.505 152.802C116.363 152.797 116.228 152.737 116.128 152.635C116.029 152.532 115.974 152.396 115.974 152.253C115.974 152.11 116.029 151.974 116.128 151.871C116.228 151.769 116.363 151.709 116.505 151.704C116.648 151.709 116.783 151.769 116.882 151.871C116.981 151.974 117.037 152.111 117.037 152.253C117.037 152.395 116.981 152.532 116.882 152.635C116.783 152.737 116.648 152.797 116.505 152.802ZM111.625 128.339C109.314 131.41 106.987 134.469 104.602 137.481C102.217 140.497 99.8099 143.491 97.3369 146.434L100.865 141.877L104.382 137.309C106.716 134.261 109.046 131.208 111.332 128.119C113.64 125.052 115.898 121.946 118.106 118.801C119.22 117.238 120.294 115.646 121.36 114.051L122.928 111.635L124.419 109.168C122.57 112.54 120.54 115.809 118.337 118.962C116.172 122.139 113.915 125.25 111.625 128.339ZM120.33 152.407C120.188 152.402 120.053 152.342 119.953 152.24C119.854 152.137 119.799 152 119.799 151.858C119.799 151.715 119.854 151.578 119.953 151.476C120.053 151.373 120.188 151.313 120.33 151.309C120.473 151.313 120.608 151.373 120.707 151.476C120.807 151.578 120.862 151.715 120.862 151.858C120.862 152 120.807 152.137 120.707 152.24C120.608 152.342 120.473 152.402 120.33 152.407ZM122.14 128.182C121.986 129.02 121.807 129.854 121.624 130.685C121.433 131.516 121.243 132.343 121.026 133.166L120.697 134.403C120.572 134.813 120.462 135.223 120.33 135.63C120.382 135.205 120.459 134.784 120.521 134.363L120.752 133.108C120.906 132.27 121.085 131.435 121.268 130.604C121.459 129.774 121.649 128.946 121.865 128.123C122.082 127.296 122.301 126.472 122.562 125.66C122.448 126.509 122.298 127.347 122.14 128.182ZM124.419 151.88C124.276 151.875 124.141 151.815 124.042 151.713C123.943 151.61 123.887 151.473 123.887 151.331C123.887 151.188 123.943 151.051 124.042 150.949C124.141 150.846 124.276 150.786 124.419 150.782C124.562 150.786 124.697 150.846 124.796 150.949C124.895 151.051 124.951 151.188 124.951 151.331C124.951 151.473 124.895 151.61 124.796 151.713C124.697 151.815 124.562 151.875 124.419 151.88ZM128.508 151.88C128.365 151.875 128.23 151.815 128.131 151.713C128.032 151.61 127.976 151.473 127.976 151.331C127.976 151.188 128.032 151.051 128.131 150.949C128.23 150.846 128.365 150.786 128.508 150.782C128.65 150.786 128.786 150.846 128.885 150.949C128.984 151.051 129.039 151.188 129.039 151.331C129.039 151.473 128.984 151.61 128.885 151.713C128.786 151.815 128.65 151.875 128.508 151.88ZM132.728 151.88C132.586 151.875 132.451 151.815 132.351 151.713C132.252 151.61 132.197 151.473 132.197 151.331C132.197 151.188 132.252 151.051 132.351 150.949C132.451 150.846 132.586 150.786 132.728 150.782C132.871 150.786 133.006 150.846 133.105 150.949C133.205 151.051 133.26 151.188 133.26 151.331C133.26 151.473 133.205 151.61 133.105 151.713C133.006 151.815 132.871 151.875 132.728 151.88ZM136.289 152.011C136.147 152.007 136.012 151.947 135.912 151.844C135.813 151.742 135.758 151.605 135.758 151.462C135.758 151.32 135.813 151.183 135.912 151.08C136.012 150.978 136.147 150.918 136.289 150.913C136.432 150.918 136.567 150.978 136.666 151.08C136.766 151.183 136.821 151.32 136.821 151.462C136.821 151.605 136.766 151.742 136.666 151.844C136.567 151.947 136.432 152.007 136.289 152.011ZM139.851 152.011C139.708 152.007 139.573 151.947 139.474 151.844C139.374 151.742 139.319 151.605 139.319 151.462C139.319 151.32 139.374 151.183 139.474 151.08C139.573 150.978 139.708 150.918 139.851 150.913C139.993 150.918 140.128 150.978 140.228 151.08C140.327 151.183 140.382 151.32 140.382 151.462C140.382 151.605 140.327 151.742 140.228 151.844C140.128 151.947 139.993 152.007 139.851 152.011ZM143.148 151.748C143.005 151.743 142.87 151.683 142.771 151.581C142.672 151.478 142.616 151.341 142.616 151.199C142.616 151.056 142.672 150.919 142.771 150.817C142.87 150.715 143.005 150.655 143.148 150.65C143.29 150.655 143.426 150.715 143.525 150.817C143.624 150.919 143.68 151.056 143.68 151.199C143.68 151.341 143.624 151.478 143.525 151.581C143.426 151.683 143.29 151.743 143.148 151.748ZM146.841 151.484C146.698 151.48 146.563 151.42 146.464 151.317C146.365 151.215 146.309 151.078 146.309 150.935C146.309 150.793 146.365 150.656 146.464 150.553C146.563 150.451 146.698 150.391 146.841 150.386C146.984 150.391 147.119 150.451 147.218 150.553C147.317 150.656 147.373 150.793 147.373 150.935C147.373 151.078 147.317 151.215 147.218 151.317C147.119 151.42 146.984 151.48 146.841 151.484ZM150.27 151.089C150.128 151.084 149.992 151.025 149.893 150.922C149.794 150.82 149.738 150.683 149.738 150.54C149.738 150.398 149.794 150.261 149.893 150.158C149.992 150.056 150.128 149.996 150.27 149.991C150.413 149.996 150.548 150.056 150.647 150.158C150.746 150.261 150.802 150.398 150.802 150.54C150.802 150.683 150.746 150.82 150.647 150.922C150.548 151.025 150.413 151.084 150.27 151.089ZM153.436 150.43C153.293 150.426 153.158 150.366 153.059 150.263C152.959 150.161 152.904 150.024 152.904 149.881C152.904 149.739 152.959 149.602 153.059 149.499C153.158 149.397 153.293 149.337 153.436 149.332C153.578 149.337 153.713 149.397 153.812 149.499C153.912 149.602 153.967 149.739 153.967 149.881C153.967 150.024 153.912 150.161 153.812 150.263C153.713 150.366 153.578 150.426 153.436 150.43ZM144.775 136.987C142.907 137.027 141.048 136.713 139.297 136.061C137.548 135.398 135.936 134.419 134.542 133.174C133.166 131.919 131.961 130.491 130.955 128.925C129.944 127.371 129.076 125.73 128.361 124.02C126.93 120.61 125.945 117.029 125.43 113.366C125.751 115.181 126.183 116.974 126.723 118.735C127.245 120.498 127.879 122.225 128.621 123.907C130.109 127.248 132.043 130.465 134.784 132.899C137.51 135.386 141.079 136.747 144.771 136.706C145.229 136.702 145.683 136.651 146.141 136.629C146.368 136.61 146.599 136.607 146.826 136.574L147.504 136.457C147.955 136.373 148.413 136.318 148.856 136.211L150.19 135.853C150.409 135.791 150.633 135.743 150.853 135.673L151.501 135.439L152.802 134.974C153.234 134.813 153.644 134.605 154.069 134.422L155.333 133.862C152.091 135.597 148.508 136.852 144.775 136.987ZM156.733 149.64C156.59 149.635 156.455 149.575 156.356 149.473C156.257 149.37 156.201 149.233 156.201 149.091C156.201 148.948 156.257 148.811 156.356 148.709C156.455 148.606 156.59 148.547 156.733 148.542C156.875 148.547 157.011 148.607 157.11 148.709C157.209 148.811 157.264 148.948 157.264 149.091C157.264 149.233 157.209 149.37 157.11 149.473C157.011 149.575 156.875 149.635 156.733 149.64ZM159.766 148.586C159.624 148.581 159.489 148.521 159.389 148.419C159.29 148.316 159.235 148.179 159.235 148.037C159.235 147.894 159.29 147.757 159.389 147.655C159.489 147.552 159.624 147.492 159.766 147.488C159.909 147.492 160.044 147.552 160.143 147.655C160.243 147.757 160.298 147.894 160.298 148.037C160.298 148.179 160.243 148.316 160.143 148.419C160.044 148.521 159.909 148.581 159.766 148.586ZM162.8 147.532C162.657 147.527 162.522 147.467 162.423 147.365C162.324 147.262 162.268 147.125 162.268 146.983C162.268 146.84 162.324 146.703 162.423 146.601C162.522 146.498 162.657 146.438 162.8 146.434C162.943 146.438 163.078 146.498 163.177 146.601C163.276 146.703 163.332 146.84 163.332 146.983C163.332 147.125 163.276 147.262 163.177 147.365C163.078 147.467 162.943 147.527 162.8 147.532ZM165.702 146.082C165.559 146.078 165.424 146.018 165.325 145.915C165.225 145.813 165.17 145.676 165.17 145.533C165.17 145.391 165.225 145.254 165.325 145.151C165.424 145.049 165.559 144.989 165.702 144.984C165.844 144.989 165.979 145.049 166.079 145.151C166.178 145.254 166.233 145.391 166.233 145.533C166.233 145.676 166.178 145.813 166.079 145.915C165.979 146.018 165.844 146.078 165.702 146.082ZM168.076 143.315C167.933 143.311 167.798 143.251 167.699 143.148C167.6 143.046 167.544 142.909 167.544 142.766C167.544 142.624 167.6 142.487 167.699 142.384C167.798 142.282 167.933 142.222 168.076 142.217C168.218 142.222 168.353 142.282 168.453 142.385C168.552 142.487 168.607 142.624 168.607 142.766C168.607 142.909 168.552 143.046 168.453 143.148C168.353 143.251 168.218 143.311 168.076 143.315ZM169.658 140.153C169.516 140.149 169.381 140.089 169.281 139.986C169.182 139.884 169.127 139.747 169.127 139.604C169.127 139.462 169.182 139.325 169.281 139.222C169.381 139.12 169.516 139.06 169.658 139.055C169.801 139.06 169.936 139.12 170.035 139.222C170.135 139.325 170.19 139.462 170.19 139.604C170.19 139.747 170.135 139.884 170.035 139.986C169.936 140.089 169.801 140.148 169.658 140.153ZM170.45 136.728C170.307 136.723 170.172 136.663 170.073 136.56C169.974 136.458 169.918 136.321 169.918 136.179C169.918 136.036 169.974 135.899 170.073 135.797C170.172 135.694 170.307 135.634 170.45 135.63C170.592 135.634 170.727 135.694 170.827 135.797C170.926 135.899 170.981 136.036 170.981 136.179C170.981 136.321 170.926 136.458 170.827 136.56C170.727 136.663 170.592 136.723 170.45 136.728ZM171.373 133.17C171.23 133.165 171.095 133.105 170.996 133.003C170.897 132.901 170.841 132.764 170.841 132.621C170.841 132.479 170.897 132.342 170.996 132.239C171.095 132.137 171.23 132.077 171.373 132.072C171.516 132.077 171.651 132.137 171.75 132.239C171.849 132.342 171.905 132.479 171.905 132.621C171.905 132.764 171.849 132.9 171.75 133.003C171.651 133.105 171.516 133.165 171.373 133.17ZM171.901 129.349C171.758 129.344 171.623 129.284 171.524 129.182C171.424 129.08 171.369 128.943 171.369 128.8C171.369 128.658 171.424 128.521 171.524 128.418C171.623 128.316 171.758 128.256 171.901 128.251C172.043 128.256 172.178 128.316 172.278 128.418C172.377 128.521 172.432 128.658 172.432 128.8C172.432 128.943 172.377 129.08 172.278 129.182C172.178 129.284 172.043 129.344 171.901 129.349ZM172.428 125.66C172.286 125.655 172.15 125.595 172.051 125.493C171.952 125.39 171.897 125.253 171.897 125.111C171.897 124.968 171.952 124.831 172.051 124.729C172.15 124.626 172.286 124.567 172.428 124.562C172.571 124.567 172.706 124.627 172.805 124.729C172.904 124.831 172.96 124.968 172.96 125.111C172.96 125.253 172.904 125.39 172.805 125.493C172.706 125.595 172.571 125.655 172.428 125.66ZM172.956 121.707C172.813 121.702 172.678 121.643 172.579 121.54C172.48 121.438 172.424 121.301 172.424 121.158C172.424 121.016 172.48 120.879 172.579 120.776C172.678 120.674 172.813 120.614 172.956 120.609C173.098 120.614 173.234 120.674 173.333 120.776C173.432 120.879 173.487 121.016 173.487 121.158C173.487 121.301 173.432 121.438 173.333 121.54C173.234 121.642 173.098 121.702 172.956 121.707ZM173.22 117.886C173.077 117.881 172.942 117.822 172.843 117.719C172.743 117.617 172.688 117.48 172.688 117.337C172.688 117.195 172.743 117.058 172.843 116.955C172.942 116.853 173.077 116.793 173.22 116.788C173.362 116.793 173.497 116.853 173.596 116.955C173.696 117.058 173.751 117.195 173.751 117.337C173.751 117.48 173.696 117.617 173.596 117.719C173.497 117.821 173.362 117.881 173.22 117.886ZM129.861 65.7533C130.025 65.7217 130.193 65.7229 130.356 65.757C130.52 65.791 130.675 65.8573 130.812 65.9517C130.953 66.0575 131.058 66.2033 131.115 66.37C131.169 66.5339 131.195 66.7058 131.192 66.8784L131.19 66.8559C131.213 66.9288 131.253 66.9953 131.306 67.0503C131.359 67.1053 131.424 67.1472 131.496 67.1728C131.659 67.2199 131.83 67.2262 131.996 67.1912C132.364 67.1439 132.742 67.0847 133.125 67.0525C133.524 67.0013 133.93 67.031 134.318 67.1398C134.434 67.1829 134.537 67.2545 134.617 67.3479C134.659 67.4016 134.691 67.4621 134.712 67.5267C134.729 67.5889 134.736 67.6531 134.734 67.7175C134.717 67.9456 134.622 68.1608 134.465 68.3275C134.176 68.6062 133.833 68.8214 133.456 68.9593C133.099 69.1008 132.732 69.2147 132.358 69.3002C132.174 69.348 131.982 69.379 131.817 69.4369C131.646 69.4978 131.476 69.5753 131.307 69.6541C130.968 69.815 130.64 70.0029 130.311 70.1895C130.608 69.9525 130.918 69.7336 131.241 69.534C131.403 69.4301 131.574 69.3396 131.751 69.2631C131.938 69.1842 132.12 69.1441 132.297 69.0846C132.652 68.9742 133.001 68.8433 133.34 68.6927C133.67 68.5573 133.97 68.3603 134.225 68.1122C134.328 68.002 134.391 67.861 134.405 67.7112C134.412 67.5809 134.341 67.5122 134.196 67.4477C133.854 67.3552 133.498 67.3285 133.146 67.3689C132.776 67.3863 132.405 67.4348 132.023 67.4662C131.814 67.4935 131.602 67.4685 131.406 67.3937C131.301 67.3491 131.21 67.2802 131.138 67.1929C131.066 67.1055 131.016 67.0023 130.992 66.8917C130.991 66.8854 130.99 66.879 130.991 66.8725L130.991 66.869C131.004 66.719 130.991 66.5678 130.954 66.4219C130.92 66.2764 130.844 66.1442 130.735 66.042C130.49 65.8406 130.178 65.7377 129.861 65.7533ZM137.542 65.9931C137.461 66.0188 137.387 66.065 137.329 66.1273C137.271 66.1896 137.229 66.2659 137.209 66.3489C137.151 66.511 137.113 66.6795 137.096 66.8507C137.057 67.201 137.042 67.5534 137.051 67.9057C137.044 68.0831 137.054 68.2618 137.058 68.4406C137.054 68.6197 137.067 68.7987 137.069 68.9789C137.071 69.3395 137.088 69.7006 137.062 70.0696C136.839 69.3698 136.723 68.6404 136.717 67.9061C136.71 67.5332 136.752 67.1611 136.842 66.7991C136.887 66.6125 136.962 66.4344 137.065 66.2722C137.168 66.1181 137.346 65.9507 137.542 65.9931Z" fill="black"/>
<path d="M132.086 67.3206C132.075 67.0402 132.104 66.7597 132.173 66.4878C132.207 66.3443 132.268 66.2083 132.351 66.0866C132.397 66.0172 132.46 65.9602 132.533 65.9206C132.607 65.881 132.689 65.8599 132.772 65.8593C132.931 65.8651 133.085 65.9132 133.219 65.9986C133.356 66.0779 133.472 66.19 133.555 66.325C133.712 66.5989 133.763 66.9204 133.7 67.2295C133.694 67.2668 133.674 67.3004 133.644 67.3238C133.614 67.3471 133.577 67.3584 133.539 67.3555C133.501 67.3525 133.466 67.3355 133.44 67.3079C133.414 67.2802 133.4 67.2438 133.4 67.206V67.1985C133.387 66.8909 133.443 66.5844 133.564 66.3012C133.633 66.1433 133.744 66.0074 133.885 65.9082C134.037 65.8117 134.218 65.7719 134.396 65.7958C134.562 65.8092 134.722 65.8618 134.864 65.9494C135.006 66.037 135.125 66.1571 135.211 66.2996C135.365 66.5712 135.443 66.8796 135.436 67.192H135.149C135.158 66.9381 135.207 66.6873 135.295 66.4491C135.34 66.323 135.409 66.2068 135.499 66.1072C135.545 66.0527 135.603 66.0079 135.667 65.9756C135.731 65.9433 135.801 65.924 135.873 65.9189C136.003 65.9207 136.132 65.9496 136.25 66.0038C136.369 66.0581 136.475 66.1364 136.561 66.2338C136.655 66.3135 136.732 66.4112 136.787 66.5212C136.842 66.6311 136.874 66.751 136.881 66.8737C136.827 66.6442 136.689 66.4434 136.493 66.3114C136.327 66.1676 136.113 66.0922 135.893 66.1004C135.7 66.1225 135.58 66.3195 135.52 66.5273C135.461 66.7438 135.433 66.9676 135.436 67.192C135.436 67.2294 135.421 67.2652 135.394 67.2918C135.368 67.3184 135.332 67.3336 135.295 67.3342C135.257 67.3348 135.221 67.3207 135.194 67.2949C135.167 67.2692 135.151 67.2338 135.149 67.1964L135.149 67.192C135.144 66.937 135.072 66.6877 134.94 66.4695C134.88 66.3696 134.796 66.286 134.696 66.226C134.595 66.1659 134.482 66.1311 134.365 66.1247C134.258 66.1109 134.148 66.1347 134.056 66.1921C133.964 66.2495 133.894 66.3369 133.858 66.4397C133.758 66.6778 133.706 66.9332 133.704 67.1915L133.404 67.1605C133.456 66.9237 133.43 66.6761 133.328 66.456C133.273 66.3498 133.193 66.2592 133.094 66.1924C132.999 66.1207 132.887 66.0745 132.77 66.0584C132.549 66.0284 132.382 66.2866 132.284 66.5249C132.188 66.7817 132.121 67.0487 132.086 67.3206ZM132.218 69.2225L132.385 70.7388C132.388 70.7608 132.386 70.7832 132.38 70.8046C132.374 70.8259 132.364 70.8459 132.35 70.8634C132.336 70.8808 132.319 70.8953 132.3 70.9061C132.28 70.9168 132.259 70.9236 132.237 70.926C132.215 70.9284 132.193 70.9265 132.171 70.9202C132.15 70.9139 132.13 70.9034 132.113 70.8894C132.096 70.8754 132.081 70.8581 132.071 70.8385C132.06 70.8189 132.054 70.7974 132.052 70.7753C132.05 70.7632 132.05 70.7509 132.052 70.7388L132.218 69.2225ZM133.567 68.7491L133.958 70.4071C133.963 70.4285 133.963 70.4507 133.96 70.4724C133.956 70.4941 133.949 70.5149 133.937 70.5337C133.925 70.5524 133.91 70.5686 133.892 70.5815C133.875 70.5943 133.854 70.6035 133.833 70.6086C133.811 70.6136 133.789 70.6144 133.768 70.6108C133.746 70.6073 133.725 70.5995 133.706 70.5879C133.688 70.5763 133.671 70.5611 133.658 70.5432C133.646 70.5253 133.636 70.5051 133.631 70.4837C133.629 70.473 133.628 70.4622 133.627 70.4513L133.567 68.7491Z" fill="black"/>
<path d="M135.186 70.4215L135.293 67.191L135.519 70.4153C135.521 70.4372 135.518 70.4591 135.511 70.4799C135.504 70.5007 135.493 70.5199 135.479 70.5364C135.464 70.5529 135.447 70.5665 135.427 70.5762C135.408 70.586 135.386 70.5918 135.364 70.5934C135.342 70.5949 135.32 70.5921 135.3 70.5852C135.279 70.5782 135.26 70.5673 135.243 70.5529C135.227 70.5385 135.213 70.5211 135.203 70.5015C135.193 70.4819 135.188 70.4605 135.186 70.4387C135.186 70.433 135.186 70.4271 135.186 70.4215ZM169.81 40.3621C167.87 39.2574 165.705 38.6063 163.477 38.4577C161.269 38.3372 159.066 38.7599 157.061 39.6888C156.049 40.1391 155.098 40.7144 154.23 41.4011C153.351 42.0857 152.571 42.8887 151.912 43.7872C150.674 45.6536 149.865 47.771 149.543 49.9871C149.343 51.0777 149.436 52.1826 149.359 53.3357C149.327 53.9332 149.181 54.519 148.928 55.0614C148.661 55.5944 148.308 56.0803 147.885 56.5001C147.469 56.9222 146.999 57.287 146.487 57.5848C146.209 57.7614 145.9 57.8821 145.576 57.9401L144.743 58.0289C144.211 58.0771 143.688 58.2012 143.191 58.3973L142.417 58.6978C142.173 58.7991 141.936 58.9168 141.708 59.05C140.794 59.6636 139.928 60.3464 139.118 61.0926C138.701 61.4575 138.309 61.8416 137.919 62.2453C137.526 62.6607 137.111 63.054 136.674 63.4233C136.236 63.7895 135.776 64.129 135.297 64.4398C134.823 64.7703 134.309 65.0401 133.769 65.243C133.5 65.3418 133.227 65.4266 132.949 65.4971C132.692 65.5493 132.456 65.6731 132.266 65.8543C131.9 66.2641 131.671 66.7775 131.609 67.3234C131.608 67.3321 131.603 67.3399 131.596 67.3451C131.589 67.3503 131.58 67.3524 131.571 67.3511C131.563 67.3496 131.556 67.3452 131.55 67.3387C131.545 67.3322 131.543 67.3241 131.543 67.3158C131.551 66.7314 131.75 66.1657 132.111 65.7055C132.314 65.4788 132.576 65.313 132.868 65.2265C133.13 65.1343 133.391 65.041 133.643 64.9302C134.145 64.7078 134.617 64.4229 135.047 64.0823C135.493 63.752 135.92 63.397 136.332 63.0299C136.742 62.6576 137.13 62.2628 137.495 61.8474C137.871 61.4287 138.268 61.0096 138.684 60.619C139.102 60.2241 139.521 59.8591 139.952 59.4864C140.387 59.1 140.853 58.7497 141.345 58.4391C141.601 58.2854 141.868 58.1517 142.145 58.0395L142.944 57.7315C143.221 57.625 143.504 57.5365 143.792 57.4666C144.081 57.4059 144.374 57.3632 144.668 57.3388L145.514 57.2657C145.744 57.2181 145.964 57.1311 146.164 57.0087C146.63 56.7491 147.06 56.4288 147.442 56.056C147.825 55.689 148.148 55.2649 148.401 54.7986C148.641 54.3269 148.787 53.8135 148.832 53.2865C148.872 52.1578 148.99 51.0331 149.184 49.9204C149.422 48.8122 149.754 47.726 150.174 46.6732C150.581 45.6151 151.105 44.6056 151.735 43.6632C153.034 41.7741 154.781 40.2367 156.821 39.189C158.893 38.1585 161.212 37.727 163.516 37.9429C165.798 38.1611 167.981 38.9762 169.846 40.3061C169.853 40.3112 169.858 40.319 169.86 40.3277C169.861 40.3364 169.859 40.3454 169.854 40.3526C169.849 40.3593 169.842 40.3639 169.834 40.3656C169.826 40.3674 169.817 40.3662 169.81 40.3621Z" fill="black"/>
<path d="M131.068 69.7178C131.534 70.8838 132.196 71.9621 133.024 72.9066C133.425 73.3624 133.921 73.7261 134.476 73.9729C135.017 74.1981 135.618 74.2377 136.184 74.0856C137.362 73.7353 138.435 73.1009 139.31 72.2384C139.758 71.8148 140.175 71.3592 140.558 70.8753C140.93 70.3849 141.259 69.8628 141.541 69.315L141.967 68.4634C142.124 68.1744 142.302 67.8969 142.498 67.6331C142.889 67.1083 143.351 66.6408 143.872 66.2443C144.913 65.4776 146.1 64.9312 147.36 64.6384C147.671 64.5593 147.988 64.5116 148.301 64.4471C148.618 64.4079 148.936 64.3687 149.251 64.3219L150.187 64.1901C150.5 64.146 150.806 64.0683 151.115 64.0091C152.344 63.7473 153.528 63.3087 154.631 62.7072C155.719 62.1141 156.672 61.3007 157.428 60.3188C158.161 59.3388 158.638 58.1916 158.816 56.9811C158.866 56.6801 158.894 56.376 158.901 56.071C158.918 55.7655 158.914 55.4592 158.889 55.1542C158.881 54.8535 158.849 54.5321 158.821 54.2143C158.79 53.8971 158.776 53.5762 158.753 53.2571C158.712 52.612 158.709 51.965 158.745 51.3195C158.771 50.6548 158.884 49.9963 159.081 49.3606C159.294 48.6937 159.684 48.0974 160.211 47.6358C160.74 47.1985 161.365 46.8909 162.034 46.7376C163.318 46.4121 164.666 46.4312 165.941 46.793C167.17 47.0969 168.397 47.4109 169.634 47.6817C170.252 47.8156 170.87 47.9541 171.491 48.0692C172.106 48.2044 172.733 48.2735 173.363 48.2755L173.368 48.2752C173.376 48.2748 173.385 48.2777 173.391 48.2833C173.397 48.2889 173.401 48.2968 173.402 48.3053C173.403 48.3137 173.401 48.3222 173.395 48.3289C173.39 48.3356 173.382 48.34 173.374 48.3412C172.736 48.3983 172.093 48.3783 171.46 48.2818C170.826 48.21 170.196 48.1202 169.57 48.0124C168.316 47.7992 167.065 47.5677 165.823 47.3003C164.634 46.9994 163.387 47.0185 162.208 47.3555C161.639 47.5033 161.111 47.775 160.659 48.1512C160.233 48.5377 159.92 49.0337 159.755 49.5853C159.4 50.714 159.409 51.9812 159.447 53.2245C159.464 53.5377 159.472 53.8502 159.497 54.1642C159.519 54.4779 159.545 54.7877 159.549 55.1207C159.57 55.4476 159.568 55.7756 159.544 56.1023C159.531 56.4305 159.495 56.7573 159.435 57.0805C159.222 58.3851 158.674 59.6123 157.846 60.643C157.017 61.6503 155.978 62.4647 154.802 63.0294C153.646 63.5879 152.424 63.9942 151.164 64.2383C149.914 64.5268 148.623 64.5085 147.417 64.8619C146.811 65.0201 146.222 65.2365 145.657 65.5082C145.103 65.7896 144.582 66.1331 144.106 66.5322C143.635 66.93 143.222 67.3912 142.879 67.9027C142.709 68.1559 142.557 68.4209 142.424 68.6956C142.298 68.9619 142.182 69.2736 142.038 69.5625C141.759 70.1525 141.422 70.7128 141.03 71.2348C140.634 71.7519 140.191 72.2318 139.707 72.6684C138.749 73.5753 137.581 74.2324 136.308 74.5813C135.635 74.7485 134.924 74.6756 134.298 74.3751C133.703 74.0784 133.178 73.6562 132.762 73.1377C132.351 72.6393 132 72.0944 131.717 71.5141C131.427 70.9447 131.189 70.3506 131.005 69.7388C131.002 69.7303 131.003 69.7212 131.008 69.7134C131.012 69.7057 131.019 69.6999 131.027 69.6974C131.036 69.6953 131.044 69.6963 131.052 69.7C131.059 69.7038 131.065 69.7101 131.068 69.7178ZM174.311 42.1035C173.945 42.217 173.575 42.3231 173.205 42.4256L173.491 42.744C173.514 42.7676 173.529 42.7987 173.531 42.8319C173.546 42.927 173.557 43.0258 173.571 43.121L173.678 43.0771C173.963 42.96 174.245 42.8538 174.528 42.7587C174.451 42.5427 174.381 42.3231 174.311 42.1035ZM174.311 42.1035C173.945 42.217 173.575 42.3231 173.205 42.4256L173.491 42.744C173.514 42.7676 173.529 42.7987 173.531 42.8319C173.546 42.927 173.557 43.0258 173.571 43.121L173.678 43.0771C173.963 42.96 174.245 42.8538 174.528 42.7587C174.451 42.5427 174.381 42.3231 174.311 42.1035ZM174.311 42.1035C173.945 42.217 173.575 42.3231 173.205 42.4256L173.491 42.744C173.514 42.7676 173.529 42.7987 173.531 42.8319C173.546 42.927 173.557 43.0258 173.571 43.121L173.678 43.0771C173.963 42.96 174.245 42.8538 174.528 42.7587C174.451 42.5427 174.381 42.3231 174.311 42.1035ZM173.212 42.9233C173.091 42.7879 172.974 42.6525 172.861 42.5171C172.718 42.5573 172.575 42.5939 172.432 42.6269C172.491 42.9014 172.546 43.1905 172.619 43.5089L173.256 43.2491C173.242 43.1393 173.227 43.0331 173.212 42.9233ZM174.311 42.1035C173.945 42.217 173.575 42.3231 173.205 42.4256L173.491 42.744C173.514 42.7676 173.529 42.7987 173.531 42.8319C173.546 42.927 173.557 43.0258 173.571 43.121L173.678 43.0771C173.963 42.96 174.245 42.8538 174.528 42.7587C174.451 42.5427 174.381 42.3231 174.311 42.1035ZM176.968 33.8613L169.827 38.8352C170.468 39.461 171.084 40.1088 171.692 40.764C172.135 41.2361 172.572 41.7143 173.003 42.1987C173.458 42.0376 173.912 41.8839 174.37 41.7375C174.39 41.7306 174.412 41.7279 174.434 41.7295C174.455 41.7311 174.476 41.7371 174.495 41.747C174.514 41.7569 174.531 41.7706 174.545 41.7872C174.559 41.8038 174.569 41.823 174.575 41.8437L174.579 41.8473C174.674 42.1657 174.777 42.4841 174.865 42.8062V42.8135C174.875 42.8514 174.87 42.8918 174.851 42.926C174.832 42.9603 174.8 42.9856 174.762 42.9965C174.396 43.1027 174.022 43.1978 173.659 43.282C173.637 43.2857 173.615 43.293 173.597 43.2967C173.703 44.0908 173.806 44.8887 173.89 45.6829L174.037 47.114C174.073 47.5898 174.121 48.0692 174.15 48.5487L181.529 48.728L176.968 33.8613ZM173.674 38.9011C172.743 39.1013 171.799 39.2394 170.849 39.3146C171.75 39.0085 172.671 38.7615 173.604 38.5753C174.535 38.3719 175.479 38.2325 176.429 38.1581C175.528 38.4662 174.608 38.7144 173.674 38.9011ZM174.528 42.7587C174.451 42.5427 174.381 42.3231 174.311 42.1035C173.945 42.217 173.575 42.3231 173.205 42.4256L173.491 42.744C173.514 42.7676 173.529 42.7987 173.531 42.8319C173.546 42.927 173.557 43.0258 173.571 43.121L173.678 43.0771C173.963 42.96 174.245 42.8538 174.528 42.7587ZM172.861 42.5171C172.718 42.5573 172.575 42.5939 172.432 42.6269C172.491 42.9014 172.546 43.1905 172.619 43.5089L173.256 43.2491C173.242 43.1393 173.227 43.0331 173.212 42.9233C173.091 42.7879 172.974 42.6525 172.861 42.5171ZM174.311 42.1035C173.945 42.217 173.575 42.3231 173.205 42.4256L173.491 42.744C173.514 42.7676 173.529 42.7987 173.531 42.8319C173.546 42.927 173.557 43.0258 173.571 43.121L173.678 43.0771C173.963 42.96 174.245 42.8538 174.528 42.7587C174.451 42.5427 174.381 42.3231 174.311 42.1035ZM173.212 42.9233C173.091 42.7879 172.974 42.6525 172.861 42.5171C172.718 42.5573 172.575 42.5939 172.432 42.6269C172.491 42.9014 172.546 43.1905 172.619 43.5089L173.256 43.2491C173.242 43.1393 173.227 43.0331 173.212 42.9233ZM174.311 42.1035C173.945 42.217 173.575 42.3231 173.205 42.4256L173.491 42.744C173.514 42.7676 173.529 42.7987 173.531 42.8319C173.546 42.927 173.557 43.0258 173.571 43.121L173.678 43.0771C173.963 42.96 174.245 42.8538 174.528 42.7587C174.451 42.5427 174.381 42.3231 174.311 42.1035ZM174.311 42.1035C173.945 42.217 173.575 42.3231 173.205 42.4256L173.491 42.744C173.514 42.7676 173.529 42.7987 173.531 42.8319C173.546 42.927 173.557 43.0258 173.571 43.121L173.678 43.0771C173.963 42.96 174.245 42.8538 174.528 42.7587C174.451 42.5427 174.381 42.3231 174.311 42.1035ZM173.212 42.9233C173.091 42.7879 172.974 42.6525 172.861 42.5171C172.718 42.5573 172.575 42.5939 172.432 42.6269C172.491 42.9014 172.546 43.1905 172.619 43.5089L173.256 43.2491C173.242 43.1393 173.227 43.0331 173.212 42.9233ZM173.872 47.1359L173.63 45.7195C173.498 44.9363 173.381 44.1494 173.275 43.3662C173.047 43.4174 172.831 43.465 172.619 43.5089C172.498 43.2308 172.359 42.916 172.227 42.5866C172.218 42.5643 172.219 42.5396 172.229 42.5177C172.238 42.4959 172.256 42.4786 172.278 42.4695L172.289 42.4658C172.421 42.4146 172.553 42.3634 172.685 42.3158C172.285 41.8583 171.89 41.3971 171.505 40.9287C170.933 40.2406 170.369 39.5489 169.827 38.8352C169.827 38.8352 169.109 46.5687 174.15 48.5487C174.044 48.0802 173.963 47.608 173.872 47.1359ZM173.212 42.9233C173.091 42.7879 172.974 42.6525 172.861 42.5171C172.718 42.5573 172.575 42.5939 172.432 42.6269C172.491 42.9014 172.546 43.1905 172.619 43.5089L173.256 43.2491C173.242 43.1393 173.227 43.0331 173.212 42.9233ZM94.1616 90.2366C94.4066 90.1946 94.6552 90.1444 94.8996 90.0867C95.1463 90.0363 95.3865 89.9577 95.6152 89.8525C95.4142 90.0122 95.1955 90.1483 94.9634 90.2582C94.7343 90.3752 94.5037 90.4839 94.2656 90.5875C94.2207 90.6071 94.1699 90.608 94.1243 90.5901C94.0788 90.5722 94.0422 90.537 94.0226 90.4921C94.0031 90.4473 94.0022 90.3965 94.0201 90.351C94.038 90.3055 94.0733 90.269 94.1182 90.2494C94.1321 90.2435 94.1467 90.2392 94.1616 90.2366ZM71.6606 151.854C70.8989 153.502 70.1001 155.13 69.264 156.738L68.9531 157.342C68.624 157.979 68.1797 158.549 67.6427 159.024C66.917 159.649 66.0519 160.09 65.12 160.312C63.372 160.795 61.6191 161.263 59.8517 161.678C58.9687 161.888 58.0816 162.083 57.1905 162.262C56.7435 162.345 56.2962 162.427 55.8469 162.5C55.3997 162.59 54.9444 162.633 54.4883 162.63C55.3766 162.457 56.2531 162.228 57.1125 161.944L59.7182 161.175C61.4547 160.66 63.1972 160.165 64.94 159.671C65.3615 159.571 65.7712 159.428 66.1624 159.242C66.5458 159.054 66.9052 158.82 67.2331 158.547C67.5639 158.274 67.8594 157.962 68.1129 157.616C68.2401 157.442 68.3577 157.261 68.4651 157.073L68.81 156.488C69.723 154.923 70.6732 153.378 71.6606 151.854ZM79.6511 159.1C79.2082 159.573 78.7978 160.075 78.4228 160.603C78.0553 161.12 77.718 161.658 77.4127 162.214C77.2671 162.495 77.1074 162.77 76.9819 163.062L76.7746 163.493C76.7162 163.641 76.6521 163.787 76.5854 163.934C76.4477 164.224 76.3487 164.53 76.2178 164.829C76.0949 165.131 75.9946 165.441 75.8519 165.747C75.8485 165.414 75.8647 165.081 75.9004 164.749C75.9438 164.418 76.008 164.09 76.0927 163.766C76.2617 163.115 76.5087 162.487 76.8283 161.894C77.1557 161.304 77.5581 160.758 78.0256 160.271C78.4833 159.775 79.0361 159.377 79.6511 159.1Z" fill="black"/>
<path d="M54.7719 162.614C54.7719 162.614 46.001 162.285 46.2062 163.708C46.2062 163.708 44.6455 171.383 67.4521 168.865V173.422L69.3718 174.139H71.6616C71.6616 174.139 75.2923 165.827 76.3732 165.747C76.3732 165.747 52.6104 164.843 54.7719 162.614ZM48.976 164.792C48.8334 164.787 48.6982 164.727 48.599 164.625C48.4998 164.522 48.4443 164.385 48.4443 164.243C48.4443 164.1 48.4998 163.963 48.599 163.861C48.6982 163.758 48.8334 163.698 48.976 163.694C49.1186 163.698 49.2537 163.758 49.353 163.861C49.4522 163.963 49.5076 164.1 49.5076 164.243C49.5076 164.385 49.4522 164.522 49.353 164.625C49.2537 164.727 49.1186 164.787 48.976 164.792ZM51.8776 166.241C51.735 166.236 51.5998 166.176 51.5006 166.074C51.4014 165.972 51.3459 165.835 51.3459 165.692C51.3459 165.549 51.4014 165.413 51.5006 165.31C51.5998 165.208 51.735 165.148 51.8776 165.143C52.0202 165.148 52.1554 165.208 52.2547 165.31C52.3539 165.413 52.4094 165.549 52.4094 165.692C52.4094 165.835 52.3539 165.972 52.2547 166.074C52.1554 166.176 52.0202 166.236 51.8776 166.241ZM55.175 167.295C55.0323 167.29 54.8972 167.23 54.7979 167.128C54.6987 167.026 54.6432 166.889 54.6432 166.746C54.6432 166.604 54.6987 166.467 54.7979 166.364C54.8972 166.262 55.0323 166.202 55.175 166.197C55.3176 166.202 55.4528 166.262 55.552 166.364C55.6512 166.467 55.7067 166.604 55.7067 166.746C55.7067 166.889 55.6512 167.026 55.552 167.128C55.4528 167.23 55.3176 167.29 55.175 167.295ZM174.017 127.081C174.651 127.164 175.238 127.46 175.682 127.92C176.074 128.406 176.417 128.929 176.706 129.483C177.32 130.541 177.896 131.619 178.461 132.703C179.013 133.794 179.555 134.891 180.049 136.011C180.299 136.571 180.536 137.136 180.76 137.708C181.001 138.275 181.182 138.866 181.298 139.472C181.053 138.914 180.774 138.371 180.463 137.846L179.583 136.241C178.995 135.172 178.43 134.09 177.867 133.007C177.316 131.919 176.766 130.829 176.247 129.723C176.012 129.171 175.739 128.637 175.429 128.125C175.07 127.647 174.58 127.284 174.017 127.081ZM175.086 117.125C175.278 117.2 175.479 117.251 175.685 117.277C175.882 117.316 176.085 117.334 176.283 117.362L177.485 117.498C177.888 117.541 178.292 117.595 178.7 117.661C179.119 117.724 179.531 117.819 179.935 117.947C179.116 118.193 178.256 118.265 177.408 118.159C176.981 118.111 176.56 118.013 176.156 117.868C175.95 117.791 175.753 117.694 175.565 117.58C175.37 117.47 175.206 117.314 175.086 117.125Z" fill="black"/>
<path d="M189.491 122.544L189.018 120.308C189.018 120.308 180.189 118.493 179.83 117.449C179.921 117.987 183.823 140.829 181.222 139.197C181.222 139.197 182.713 147.838 184.065 147.344C184.065 147.344 191.902 147.282 184.721 125.512L189.183 124.572L189.491 122.544ZM184.559 144.764C184.417 144.759 184.282 144.699 184.182 144.596C184.083 144.494 184.028 144.357 184.028 144.215C184.028 144.072 184.083 143.935 184.182 143.833C184.282 143.73 184.417 143.67 184.559 143.666C184.702 143.67 184.837 143.73 184.936 143.833C185.036 143.935 185.091 144.072 185.091 144.215C185.091 144.357 185.036 144.494 184.936 144.596C184.837 144.699 184.702 144.759 184.559 144.764ZM185.087 141.338C184.944 141.333 184.809 141.273 184.71 141.171C184.611 141.068 184.555 140.931 184.555 140.789C184.555 140.646 184.611 140.509 184.71 140.407C184.809 140.304 184.944 140.245 185.087 140.24C185.23 140.245 185.365 140.305 185.464 140.407C185.563 140.509 185.619 140.646 185.619 140.789C185.619 140.931 185.563 141.068 185.464 141.171C185.365 141.273 185.23 141.333 185.087 141.338ZM185.219 135.892C185.361 135.897 185.496 135.957 185.595 136.059C185.694 136.162 185.749 136.299 185.749 136.441C185.749 136.583 185.694 136.72 185.595 136.822C185.496 136.925 185.361 136.985 185.219 136.99C185.077 136.985 184.942 136.925 184.843 136.822C184.744 136.72 184.688 136.583 184.688 136.441C184.688 136.298 184.744 136.162 184.843 136.059C184.942 135.957 185.077 135.897 185.219 135.892ZM169.098 66.8373C170.585 65.9299 172.092 65.0598 173.588 64.17L178.111 61.5636C181.127 59.8268 184.168 58.1357 187.209 56.4448C190.258 54.7678 193.307 53.092 196.382 51.4613L200.995 49.0172C202.544 48.2239 204.083 47.4105 205.642 46.6348C204.156 47.5426 202.649 48.4128 201.153 49.3029L196.63 51.9096C193.614 53.6459 190.573 55.3372 187.532 57.0273C184.482 58.7035 181.433 60.3796 178.358 62.0098L173.745 64.4541C172.196 65.2478 170.657 66.0612 169.098 66.8373ZM160.274 85.8286C161.55 85.0885 162.845 84.3863 164.131 83.6641L168.019 81.5615C170.611 80.1606 173.228 78.8062 175.844 77.452C178.468 76.1118 181.093 74.7729 183.741 73.4798L187.714 71.5423C189.05 70.9181 190.375 70.2736 191.72 69.6673C190.444 70.4079 189.149 71.1101 187.864 71.8326L183.976 73.9354C181.383 75.3359 178.766 76.6905 176.149 78.0439C173.525 79.3832 170.901 80.7224 168.252 82.015L164.279 83.9527C162.944 84.5773 161.619 85.2219 160.274 85.8286ZM187.37 89.5853C188.646 88.8452 189.941 88.143 191.227 87.4208L195.115 85.3182C197.707 83.9173 200.324 82.5629 202.94 81.2087C205.564 79.8686 208.189 78.5297 210.837 77.2366L214.81 75.2991C216.146 74.6749 217.471 74.0303 218.815 73.4241C217.54 74.1646 216.244 74.8668 214.96 75.5894L211.071 77.6922C208.479 79.0926 205.862 80.4472 203.245 81.8007C200.621 83.14 197.997 84.4792 195.348 85.7718L191.375 87.7095C190.04 88.3341 188.715 88.9786 187.37 89.5853ZM113.224 85.5266C113.503 85.7346 113.75 85.9812 113.959 86.259C114.172 86.5351 114.355 86.8332 114.504 87.1484C114.649 87.4688 114.752 87.8071 114.809 88.1544C114.862 88.5024 114.842 88.8578 114.748 89.1973C114.698 88.866 114.625 88.5385 114.53 88.217C114.427 87.9054 114.307 87.5997 114.171 87.3012C113.894 86.7023 113.561 86.1305 113.224 85.5266ZM104.751 58.4602C104.641 59.0229 104.587 59.5949 104.589 60.1681C104.612 60.7327 104.674 61.2949 104.776 61.8508C104.884 62.4066 104.987 62.9681 105.118 63.5324C105.243 64.0984 105.439 64.6462 105.703 65.1627C105.712 65.1797 105.716 65.1987 105.715 65.2179C105.693 65.6607 105.625 66.1002 105.513 66.5292C105.393 67.0027 105.103 67.4154 104.697 67.6891C104.471 67.8147 104.218 67.8856 103.958 67.8963C103.699 67.907 103.441 67.8571 103.205 67.7506C102.742 67.5619 102.345 67.2405 102.064 66.8269C101.766 66.3976 101.647 65.8703 101.73 65.3549L101.762 65.0864C101.761 65.013 101.756 64.9396 101.746 64.8668C101.705 64.7319 101.619 64.6155 101.501 64.5377C101.159 64.3582 100.779 64.2619 100.392 64.2567C99.9667 64.232 99.5398 64.2365 99.1148 64.27C99.1104 64.2704 99.106 64.27 99.1017 64.2687C99.0975 64.2674 99.0936 64.2653 99.0902 64.2624C99.0868 64.2596 99.084 64.2561 99.0819 64.2522C99.0799 64.2483 99.0786 64.2441 99.0782 64.2397C99.0777 64.2324 99.0795 64.2252 99.0833 64.219C99.0872 64.2128 99.0928 64.208 99.0996 64.2052C99.5113 64.0431 99.9414 63.932 100.38 63.8746C100.855 63.7953 101.343 63.8507 101.788 64.0344C102.049 64.1684 102.252 64.3939 102.358 64.668C102.401 64.8028 102.426 64.9426 102.433 65.0838L102.409 65.4583C102.378 65.8052 102.466 66.1524 102.659 66.4425C103.02 67.0593 103.822 67.508 104.46 67.2331C104.805 67.0648 105.076 66.7751 105.221 66.4194C105.39 66.0352 105.489 65.6237 105.513 65.2045L105.525 65.2595C105.256 64.7292 104.989 64.2061 104.74 63.6625C104.481 63.1202 104.295 62.5462 104.186 61.9553C104.086 61.357 104.065 60.7483 104.124 60.1447C104.193 59.542 104.385 58.96 104.689 58.435C104.694 58.4273 104.701 58.4218 104.71 58.4196C104.719 58.4175 104.728 58.4188 104.735 58.4234C104.741 58.4274 104.746 58.433 104.749 58.4395C104.751 58.446 104.752 58.4532 104.751 58.4602Z" fill="black"/>
<path d="M99.1144 64.2716L99.0549 64.2889C99.048 64.2909 99.0407 64.2912 99.0337 64.2897C98.5249 64.1894 98.0334 64.0157 97.5748 63.7739C97.1053 63.534 96.682 63.2129 96.3247 62.8254C95.9589 62.4406 95.656 62.0007 95.4271 61.5218C95.1892 61.0396 95.0261 60.5241 94.9431 59.9929C94.937 59.9521 94.941 59.9103 94.9548 59.8714C94.9687 59.8324 94.9919 59.7975 95.0224 59.7697C95.053 59.7418 95.09 59.7219 95.13 59.7117C95.1701 59.7015 95.2121 59.7013 95.2523 59.7112L95.2866 59.7199C95.3514 59.7407 95.42 59.7472 95.4876 59.7387C95.535 59.7245 95.5754 59.6932 95.6009 59.6508C95.6874 59.4941 95.7362 59.3194 95.7433 59.1407C95.7946 58.7373 95.7363 58.3275 95.5746 57.9544C95.5312 57.8685 95.4755 57.7922 95.4291 57.7092C95.3689 57.6544 95.3189 57.5701 95.2564 57.5444C95.201 57.5042 95.1361 57.4789 95.0681 57.4709C95 57.4628 94.9311 57.4724 94.8678 57.4987C94.5074 57.6648 94.1963 57.9213 93.9648 58.2433L93.9515 58.2601C93.9229 58.2959 93.8854 58.3236 93.8428 58.3403C93.1839 58.5617 92.4769 58.5984 91.7986 58.4465C91.151 58.3261 90.5185 58.1349 89.9127 57.8764C89.3107 57.6267 88.7258 57.3452 88.1545 57.0414C87.5844 56.7341 87.0225 56.4185 86.4759 56.0662L86.4663 56.06C86.4535 56.0517 86.4433 56.04 86.437 56.0261C86.4306 56.0123 86.4284 55.9969 86.4304 55.9818C86.4359 55.9342 86.4515 55.8882 86.4763 55.8471C86.4927 55.8163 86.511 55.7865 86.5312 55.7579C86.5685 55.7003 86.6107 55.6511 86.6515 55.5993C86.7356 55.5 86.8238 55.4064 86.9145 55.3164C87.0963 55.1368 87.2855 54.9677 87.4762 54.8009C87.859 54.4687 88.2586 54.1601 88.6556 53.8478C89.0558 53.54 89.4608 53.2391 89.8709 52.9451C90.2823 52.6392 90.7111 52.3573 91.1551 52.101C92.0959 51.5714 93.1972 51.4009 94.2543 51.6212C95.3021 51.9094 96.2223 52.5417 96.8666 53.4162C97.4011 54.1771 98.213 54.6983 99.1279 54.8678C99.5836 54.9435 100.049 54.9461 100.505 54.8756C100.737 54.8346 100.966 54.7817 101.192 54.7169L101.888 54.482C102.878 54.1133 103.94 53.9814 104.989 54.0969C106.039 54.2123 107.047 54.5718 107.932 55.1465C107.965 55.1689 107.992 55.2002 108.008 55.2368C108.024 55.2734 108.03 55.3138 108.024 55.3534C108.019 55.3931 108.002 55.4304 107.977 55.4611C107.951 55.4919 107.917 55.5148 107.879 55.5272L107.866 55.5314C107.72 55.596 107.581 55.6775 107.453 55.7742C107.304 55.8772 107.158 55.9878 107.012 56.1002C106.72 56.3248 106.436 56.5624 106.148 56.796L105.72 57.1512C105.586 57.2715 105.461 57.4011 105.346 57.5392C105.11 57.8209 104.911 58.1307 104.753 58.4614C104.749 58.4691 104.742 58.4751 104.735 58.4782C104.727 58.4812 104.718 58.4811 104.71 58.4779C104.702 58.4747 104.696 58.4686 104.692 58.4608C104.689 58.4531 104.688 58.4442 104.691 58.4362C104.813 58.0784 104.985 57.7396 105.202 57.4296C105.312 57.2718 105.432 57.1222 105.564 56.982L105.961 56.587C106.227 56.3251 106.502 56.073 106.782 55.8231C106.923 55.6988 107.066 55.5759 107.215 55.4566C107.374 55.317 107.553 55.2019 107.747 55.115L107.681 55.4998C106.843 55.0201 105.907 54.7388 104.943 54.6775C103.983 54.6188 103.021 54.7706 102.126 55.1222L101.397 55.3828C101.141 55.4615 100.882 55.5264 100.619 55.577C100.081 55.6636 99.5317 55.6597 98.9946 55.5654C98.4563 55.4631 97.9438 55.2548 97.487 54.9527C97.0301 54.6505 96.638 54.2606 96.3336 53.8055C95.7899 53.0365 95.0076 52.4681 94.1078 52.1883C93.1814 51.9694 92.2075 52.0814 91.355 52.5047C90.9141 52.7258 90.4865 52.9723 90.0742 53.243C89.6524 53.5139 89.2352 53.7914 88.8225 54.0754C88.411 54.3603 88.0056 54.6551 87.6203 54.9718C87.4266 55.1289 87.2385 55.2925 87.0618 55.4651C86.9732 55.5513 86.8882 55.64 86.8089 55.7316C86.7716 55.7782 86.7314 55.8242 86.7001 55.872C86.6675 55.9092 86.6348 55.9909 86.6324 55.9821L86.587 55.8978C87.6634 56.5888 88.8195 57.1472 90.03 57.5611C90.6241 57.7704 91.2391 57.9147 91.8643 57.9917C92.4567 58.0835 93.0627 58.0237 93.6257 57.818L93.5038 57.9149C93.7893 57.4779 94.1994 57.1363 94.681 56.9342C94.8315 56.8796 94.9929 56.8616 95.1518 56.8816C95.3106 56.9016 95.4624 56.9591 95.5946 57.0494C95.7154 57.1355 95.8218 57.2401 95.9099 57.3594C95.9773 57.4742 96.052 57.5866 96.1087 57.7058C96.3085 58.1769 96.3772 58.6932 96.3075 59.2001C96.288 59.4791 96.195 59.7479 96.0377 59.9792C95.9298 60.1247 95.772 60.2255 95.5945 60.2624C95.435 60.2862 95.2721 60.2701 95.1204 60.2155L95.4638 59.9425C95.5274 60.4209 95.6547 60.8887 95.8423 61.3334C96.0329 61.7848 96.2874 62.2066 96.598 62.5857C96.9089 62.9702 97.2792 63.3028 97.6947 63.5711C98.1186 63.8421 98.5746 64.0591 99.0523 64.2172L99.0312 64.2179L99.1035 64.206C99.1118 64.2046 99.1204 64.2064 99.1275 64.2111C99.1345 64.2159 99.1395 64.2231 99.1414 64.2313C99.1433 64.2396 99.1419 64.2483 99.1376 64.2556C99.1333 64.2629 99.1264 64.2682 99.1183 64.2706L99.1144 64.2716Z" fill="black"/>
<path d="M104.374 59.9719C104.359 60.1403 104.352 60.3087 104.352 60.477C104.342 60.3084 104.349 60.1391 104.374 59.9719ZM106.975 55.8984C106.975 55.8984 107.026 55.935 107.129 56.0119L104.923 58.2444C105.428 57.3224 106.128 56.5217 106.975 55.8984Z" stroke="black" stroke-width="0.968" stroke-linecap="round" stroke-linejoin="round"/>
<path d="M122.588 79.4017C125.462 82.0625 128.32 84.7394 131.161 87.4324C134.023 90.1045 136.841 92.8231 139.691 95.5069C141.119 96.8461 142.523 98.2103 143.936 99.5647L146.055 101.598L148.158 103.648C150.969 106.372 153.753 109.127 156.597 111.818L156.478 111.785C157.335 111.558 158.162 111.227 158.939 110.798C159.723 110.377 160.447 109.855 161.093 109.244C161.744 108.64 162.299 107.94 162.737 107.169C162.855 106.981 162.957 106.785 163.045 106.581L163.329 105.978L163.621 105.361C163.715 105.153 163.846 104.967 163.957 104.769C164.916 103.229 166.092 101.836 167.449 100.631C168.784 99.4076 170.217 98.2953 171.734 97.3056L171.863 97.7847L171.364 97.7309C171.199 97.7102 171.05 97.6601 170.892 97.6257C170.585 97.5491 170.282 97.4558 169.985 97.3461C169.394 97.1326 168.818 96.8934 168.253 96.6356C167.122 96.1222 166.015 95.5649 164.925 94.9809C162.744 93.8144 160.612 92.5665 158.496 91.296C154.261 88.7584 150.121 86.0747 146.007 83.3544C141.885 80.6464 137.836 77.8315 133.783 75.0238L127.747 70.7519C125.741 69.318 123.75 67.8643 121.757 66.4139C121.75 66.4082 121.744 66.3998 121.743 66.3903C121.741 66.3808 121.743 66.3711 121.749 66.3633C121.754 66.3554 121.763 66.35 121.772 66.3483C121.782 66.3465 121.791 66.3485 121.799 66.3539L134.096 74.5675C138.183 77.3207 142.309 80.0151 146.419 82.7312C148.478 84.083 150.546 85.4206 152.622 86.7437C154.701 88.0646 156.773 89.3945 158.871 90.6798C160.968 91.9678 163.084 93.225 165.234 94.4115C166.307 95.0091 167.394 95.5789 168.499 96.1018C169.051 96.3646 169.61 96.6074 170.175 96.8223C170.459 96.9188 170.742 97.0372 171.028 97.1032C171.17 97.1376 171.315 97.1904 171.455 97.2103L171.874 97.2678L171.903 97.2717C171.956 97.279 172.005 97.3023 172.044 97.3385C172.083 97.3748 172.11 97.4221 172.121 97.4741C172.131 97.5262 172.126 97.5803 172.105 97.6291C172.084 97.678 172.048 97.7192 172.003 97.747C170.486 98.684 169.05 99.7445 167.708 100.918C166.348 102.071 165.164 103.416 164.191 104.909C164.082 105.101 163.95 105.283 163.858 105.484L163.57 106.081L163.276 106.693C163.184 106.902 163.077 107.103 162.955 107.295C162.498 108.083 161.924 108.797 161.251 109.411C159.909 110.648 158.293 111.55 156.536 112.042C156.516 112.047 156.495 112.047 156.474 112.042C156.454 112.038 156.436 112.027 156.421 112.013L156.416 112.009C153.562 109.328 150.66 106.699 147.793 104.031L145.638 102.035L143.503 100.019C142.08 98.6738 140.653 97.3331 139.25 95.9679C136.439 93.2417 133.607 90.5366 130.829 87.7761C128.04 85.0274 125.276 82.2534 122.537 79.454C122.53 79.4472 122.526 79.438 122.526 79.4285C122.526 79.4189 122.53 79.4097 122.537 79.4029C122.543 79.3961 122.552 79.3921 122.562 79.3919C122.572 79.3917 122.581 79.3952 122.588 79.4017Z" fill="black"/>
<path d="M156.906 110.683C157.048 110.678 157.183 110.618 157.282 110.515C157.381 110.413 157.437 110.276 157.437 110.134C157.437 109.991 157.381 109.854 157.282 109.752C157.183 109.65 157.048 109.59 156.906 109.585C156.763 109.59 156.628 109.65 156.529 109.752C156.43 109.854 156.375 109.991 156.375 110.134C156.375 110.276 156.43 110.413 156.529 110.515C156.628 110.618 156.763 110.678 156.906 110.683ZM159.016 109.716C159.159 109.711 159.294 109.651 159.393 109.549C159.492 109.447 159.547 109.31 159.547 109.167C159.547 109.025 159.492 108.888 159.393 108.786C159.294 108.683 159.159 108.623 159.016 108.618C158.874 108.623 158.739 108.683 158.64 108.786C158.541 108.888 158.485 109.025 158.485 109.167C158.485 109.31 158.541 109.447 158.64 109.549C158.739 109.651 158.874 109.711 159.016 109.716ZM160.863 108.223C161.005 108.218 161.14 108.158 161.239 108.056C161.338 107.953 161.394 107.817 161.394 107.674C161.394 107.532 161.338 107.395 161.239 107.292C161.14 107.19 161.005 107.13 160.863 107.125C160.72 107.13 160.585 107.19 160.486 107.292C160.387 107.395 160.332 107.532 160.332 107.674C160.332 107.817 160.387 107.953 160.486 108.056C160.585 108.158 160.72 108.218 160.863 108.223ZM162.357 105.851C162.5 105.847 162.635 105.787 162.734 105.684C162.833 105.582 162.888 105.445 162.888 105.302C162.888 105.16 162.833 105.023 162.734 104.921C162.635 104.818 162.5 104.758 162.357 104.753C162.215 104.758 162.08 104.818 161.981 104.921C161.882 105.023 161.827 105.16 161.827 105.302C161.827 105.445 161.882 105.582 161.981 105.684C162.08 105.787 162.215 105.847 162.357 105.851ZM163.501 103.48C163.643 103.475 163.778 103.415 163.877 103.312C163.976 103.21 164.031 103.073 164.031 102.931C164.031 102.788 163.976 102.652 163.877 102.549C163.778 102.447 163.643 102.387 163.501 102.382C163.358 102.387 163.223 102.447 163.124 102.549C163.025 102.652 162.97 102.788 162.97 102.931C162.97 103.073 163.025 103.21 163.124 103.312C163.223 103.415 163.358 103.475 163.501 103.48ZM165.347 101.46C165.49 101.455 165.625 101.395 165.724 101.292C165.823 101.19 165.878 101.053 165.878 100.911C165.878 100.768 165.823 100.631 165.724 100.529C165.625 100.426 165.49 100.366 165.347 100.362C165.205 100.366 165.07 100.426 164.971 100.529C164.871 100.631 164.816 100.768 164.816 100.911C164.816 101.053 164.871 101.19 164.971 101.292C165.07 101.395 165.205 101.455 165.347 101.46ZM167.369 99.8785C167.512 99.8735 167.647 99.8135 167.746 99.7111C167.845 99.6087 167.9 99.4719 167.9 99.3295C167.9 99.1871 167.845 99.0502 167.746 98.9478C167.647 98.8454 167.512 98.7854 167.369 98.7805C167.227 98.7854 167.092 98.8454 166.993 98.9478C166.894 99.0502 166.839 99.1871 166.839 99.3295C166.839 99.4719 166.894 99.6087 166.993 99.7111C167.092 99.8135 167.227 99.8735 167.369 99.8785ZM169.304 98.5609C169.446 98.556 169.581 98.496 169.68 98.3935C169.779 98.2911 169.835 98.1543 169.835 98.0119C169.835 97.8695 169.779 97.7326 169.68 97.6302C169.581 97.5278 169.446 97.4678 169.304 97.4629C169.161 97.4678 169.026 97.5278 168.927 97.6302C168.828 97.7326 168.773 97.8695 168.773 98.0119C168.773 98.1543 168.828 98.2911 168.927 98.3935C169.026 98.496 169.161 98.556 169.304 98.5609Z" fill="black"/>
</svg>
