<svg width="122" height="52" viewBox="0 0 122 52" fill="none" xmlns="http://www.w3.org/2000/svg">
<rect width="52" height="52" rx="9.09037" fill="#251302"/>
<path fill-rule="evenodd" clip-rule="evenodd" d="M30.9624 21.1576C29.5143 21.1576 26.6394 21.8123 25.2383 22.3281V19.8362C26.6015 19.3343 29.1353 18.4824 30.9624 18.4824C37.1007 18.4824 41.7645 22.8722 41.7645 28.3473C41.7645 28.3473 41.7645 29.5177 41.5473 29.9776H39.2536C39.4492 29.4463 39.5487 28.9016 39.5487 28.3473C39.5487 24.9574 36.4499 21.1576 30.9624 21.1576Z" fill="#FFFDF3"/>
<path fill-rule="evenodd" clip-rule="evenodd" d="M31.6984 35.1061C30.8326 35.9015 29.8494 36.5438 28.7547 37.0375C27.7329 37.4984 26.7085 37.8005 25.6827 37.9395L25.68 37.9398C24.6723 38.072 23.7315 38.0439 22.8651 37.8398L22.8488 37.8358C22.2432 37.677 21.6978 37.4235 21.2384 37.0534L19.1601 38.9716C19.7346 39.4577 20.4222 39.8318 21.2349 40.0855C22.4176 40.4431 23.7207 40.5524 25.1512 40.3994C26.5841 40.2461 28.009 39.8514 29.4274 39.2116C31.1304 38.4435 32.5932 37.4324 33.8253 36.1852C35.0664 34.9196 35.9151 33.5713 36.4091 32.1482L36.4096 32.1468C36.8959 30.7526 36.9225 29.4158 36.5108 28.0851C36.1045 26.7721 35.3897 25.8697 34.3331 25.3289L34.3238 25.3241C33.2045 24.7305 31.8395 24.4345 30.2049 24.4738L30.2028 24.4738C28.5578 24.5081 26.8281 24.7779 25.0121 25.2884L25.003 25.291C23.8235 25.6046 22.7375 25.8533 21.7457 26.0363L21.7348 26.0383C20.6975 26.2116 19.7536 26.1719 18.9316 25.8646C17.9779 25.508 17.3316 24.658 16.9706 23.4913C16.6384 22.4176 16.7649 21.3251 17.2431 20.291C17.6927 19.3189 18.3584 18.4438 19.2084 17.6559C20.0732 16.8441 21.0599 16.1996 22.1618 15.7174C23.1818 15.2577 24.199 14.9587 25.2121 14.8256C26.2304 14.6878 27.173 14.7148 28.0308 14.926C28.6419 15.0682 29.1928 15.3171 29.6576 15.695L31.7707 13.7863C31.1791 13.2856 30.4745 12.9118 29.6448 12.673L29.6352 12.6702C28.4361 12.3056 27.1277 12.199 25.7033 12.3638L25.6958 12.3646C24.2759 12.5123 22.871 12.8984 21.4795 13.526C19.7912 14.2875 18.3304 15.3041 17.0885 16.5703L17.0865 16.5724C15.8561 17.8181 15.0042 19.1604 14.4967 20.5925C14.0218 21.9623 13.9984 23.296 14.4154 24.6438C14.8733 26.1237 15.5957 27.0833 16.5682 27.6241C17.6294 28.201 18.9368 28.4686 20.5187 28.381C22.1502 28.2855 23.9398 27.9705 25.8897 27.4301C26.949 27.1308 27.9957 26.9268 29.0294 26.8192C30.1028 26.703 31.0763 26.7759 31.9315 27.0715C32.8976 27.3946 33.6093 28.1184 33.9556 29.2376C34.2899 30.3178 34.1698 31.4147 33.6912 32.4521C33.2506 33.4286 32.5727 34.3091 31.6984 35.1061Z" fill="#FFFDF3"/>
<path fill-rule="evenodd" clip-rule="evenodd" d="M23.5701 31.3184C25.0505 30.8395 26.3604 30.2069 27.4898 29.3563L27.4898 32.0315C26.1672 33.0276 25.8269 33.3579 24.1436 33.9024C21.1656 34.8658 18.2154 34.8364 15.8351 33.9427C13.4708 33.055 11.5079 31.2337 10.8998 28.4933C10.6956 27.5736 10.6731 27.054 10.7933 26.1339L12.9756 26.1339C12.9006 26.7083 12.9212 27.2654 13.0401 27.8009C13.3821 29.342 14.5552 30.6605 16.4932 31.3882C18.4151 32.1098 20.9333 32.1714 23.5701 31.3184Z" fill="#FFFDF3"/>
<path d="M63.9162 8.57309C63.9162 7.94563 63.7431 7.77254 63.1157 7.77254H61.7309C61.1035 7.77254 60.9304 7.94563 60.9304 8.57309V23.1994C60.9304 23.8269 61.1035 24 61.7309 24H63.1157C63.7431 24 63.9162 23.8269 63.9162 23.1994V8.57309ZM71.8031 15.6266C71.8031 15.8214 71.7598 15.8646 71.6517 15.8646C71.5651 15.8646 71.5002 15.8214 71.4353 15.6699L68.6874 8.33509C68.4927 7.83745 68.2763 7.77254 67.6489 7.77254H66.6752C66.0478 7.77254 65.8747 7.94563 65.8747 8.57309V23.1994C65.8747 23.8269 66.0478 24 66.6752 24H67.8652C68.4927 24 68.6658 23.8269 68.6658 23.1994V16.1459C68.6658 15.9512 68.7091 15.9079 68.8173 15.9079C68.9038 15.9079 68.9687 15.9512 69.0336 16.1026L71.7382 23.2644C71.9546 23.8485 72.1493 24 72.82 24H73.8153C74.4428 24 74.6159 23.8269 74.6159 23.1994V8.57309C74.6159 7.94563 74.4428 7.77254 73.8153 7.77254H72.6037C71.9762 7.77254 71.8031 7.94563 71.8031 8.57309V15.6266ZM79.8354 13.5495C79.2295 12.987 79.0997 12.684 79.0997 12.0566V11.6888C79.0997 10.9098 79.4459 10.5853 80.2032 10.5853C80.9605 10.5853 81.3067 10.9315 81.3067 11.7969V12.749C81.3067 13.3764 81.4798 13.5495 82.1072 13.5495H83.5785C84.206 13.5495 84.3791 13.3764 84.3791 12.749V12.3162C84.3791 8.83273 83.3405 7.55617 80.2032 7.55617C77.0659 7.55617 76.0273 9.07073 76.0273 11.7969V12.273C76.0273 13.7226 76.3302 14.4583 77.7799 15.7348L80.3763 18.0499C81.1768 18.7639 81.3067 19.0669 81.3067 19.6727V20.0838C81.3067 20.8627 80.9605 21.1872 80.2032 21.1872C79.4459 21.1872 79.0997 20.8411 79.0997 19.9756V19.0236C79.0997 18.3961 78.9266 18.223 78.2992 18.223H76.8279C76.2004 18.223 76.0273 18.3961 76.0273 19.0236V19.4563C76.0273 22.9398 77.0659 24.2164 80.2032 24.2164C83.3405 24.2164 84.3791 22.7018 84.3791 19.9756V19.5861C84.3791 18.1365 84.0545 17.3576 82.6049 16.0594L79.8354 13.5495ZM88.7561 13.7226C88.6263 13.7226 88.583 13.6793 88.5397 13.463L87.5877 8.57309C87.4579 7.94563 87.2415 7.77254 86.6573 7.77254H84.9913C84.3638 7.77254 84.1907 8.03218 84.3638 8.57309L87.155 17.8552C87.2631 18.2447 87.2848 18.3745 87.2848 19.0019V23.1994C87.2848 23.8269 87.4579 24 88.0853 24H89.4268C90.0543 24 90.2274 23.8269 90.2274 23.1994V19.0019C90.2274 18.3745 90.249 18.2447 90.3572 17.8552L93.1483 8.57309C93.3214 8.03218 93.1483 7.77254 92.5208 7.77254H90.8548C90.2706 7.77254 90.0543 7.94563 89.9245 8.57309L88.9724 13.463C88.9292 13.6793 88.8859 13.7226 88.7561 13.7226ZM99.7575 15.6266C99.7575 15.8214 99.7142 15.8646 99.606 15.8646C99.5194 15.8646 99.4545 15.8214 99.3896 15.6699L96.6418 8.33509C96.447 7.83745 96.2307 7.77254 95.6032 7.77254H94.6296C94.0021 7.77254 93.829 7.94563 93.829 8.57309V23.1994C93.829 23.8269 94.0021 24 94.6296 24H95.8196C96.447 24 96.6201 23.8269 96.6201 23.1994V16.1459C96.6201 15.9512 96.6634 15.9079 96.7716 15.9079C96.8581 15.9079 96.9231 15.9512 96.988 16.1026L99.6925 23.2644C99.9089 23.8485 100.104 24 100.774 24H101.77C102.397 24 102.57 23.8269 102.57 23.1994V8.57309C102.57 7.94563 102.397 7.77254 101.77 7.77254H100.558C99.9305 7.77254 99.7575 7.94563 99.7575 8.57309V15.6266ZM108.869 17.4657L110.47 23.2427C110.643 23.8269 110.86 24 111.509 24H112.829C113.413 24 113.607 23.6755 113.434 23.0913L110.708 14.2202C110.622 13.9606 110.622 13.8524 110.751 13.6144L113.261 8.61637C113.521 8.09709 113.391 7.77254 112.764 7.77254H111.422C110.6 7.77254 110.448 7.85908 110.102 8.57309L107.874 13.2466C107.809 13.3981 107.744 13.4197 107.657 13.4197C107.549 13.4197 107.484 13.3764 107.484 13.2033V8.57309C107.484 7.94563 107.311 7.77254 106.684 7.77254H105.342C104.715 7.77254 104.542 7.94563 104.542 8.57309V23.1994C104.542 23.8269 104.715 24 105.342 24H106.727C107.354 24 107.528 23.8269 107.528 23.1994V19.6943C107.528 19.4347 107.549 19.3481 107.657 19.1318L108.588 17.4225C108.674 17.271 108.826 17.2926 108.869 17.4657ZM64.2841 34.5495C63.6782 33.987 63.5484 33.684 63.5484 33.0566V32.6888C63.5484 31.9098 63.8946 31.5853 64.6519 31.5853C65.4092 31.5853 65.7553 31.9315 65.7553 32.7969V33.749C65.7553 34.3764 65.9284 34.5495 66.5559 34.5495H68.0272C68.6546 34.5495 68.8277 34.3764 68.8277 33.749V33.3162C68.8277 29.8327 67.7892 28.5562 64.6519 28.5562C61.5146 28.5562 60.476 30.0707 60.476 32.7969V33.273C60.476 34.7226 60.7789 35.4583 62.2286 36.7348L64.825 39.0499C65.6255 39.7639 65.7553 40.0669 65.7553 40.6727V41.0838C65.7553 41.8627 65.4092 42.1872 64.6519 42.1872C63.8946 42.1872 63.5484 41.8411 63.5484 40.9756V40.0236C63.5484 39.3961 63.3753 39.223 62.7479 39.223H61.2766C60.6491 39.223 60.476 39.3961 60.476 40.0236V40.4563C60.476 43.9398 61.5146 45.2164 64.6519 45.2164C67.7892 45.2164 68.8277 43.7018 68.8277 40.9756V40.5861C68.8277 39.1365 68.5032 38.3576 67.0535 37.0594L64.2841 34.5495ZM76.5045 31.8017C77.132 31.8017 77.3051 31.6286 77.3051 31.0011V29.5731C77.3051 28.9456 77.132 28.7725 76.5045 28.7725H70.0568C69.4293 28.7725 69.2562 28.9456 69.2562 29.5731V31.0011C69.2562 31.6286 69.4293 31.8017 70.0568 31.8017H71.3983C71.7012 31.8017 71.7877 31.8882 71.7877 32.1911V44.1994C71.7877 44.8269 71.9608 45 72.5883 45H73.973C74.6005 45 74.7736 44.8269 74.7736 44.1994V32.1911C74.7736 31.8882 74.8601 31.8017 75.163 31.8017H76.5045ZM83.303 29.5731V40.9756C83.303 41.8411 82.9135 42.1872 82.113 42.1872C81.2908 42.1872 80.9229 41.8411 80.9229 40.9756V29.5731C80.9229 28.9456 80.7499 28.7725 80.1224 28.7725H78.7376C78.1102 28.7725 77.9371 28.9456 77.9371 29.5731V40.4563C77.9371 43.9398 78.9756 45.2164 82.113 45.2164C85.2503 45.2164 86.2888 43.9398 86.2888 40.4563V29.5731C86.2888 28.9456 86.1157 28.7725 85.4883 28.7725H84.1035C83.4761 28.7725 83.303 28.9456 83.303 29.5731ZM91.5854 28.7725H88.9457C88.3183 28.7725 88.1452 28.9456 88.1452 29.5731V44.1994C88.1452 44.8269 88.3183 45 88.9457 45H91.5854C95.7396 45 96.5835 43.4854 96.5835 39.8072V33.9653C96.5835 30.2871 95.7396 28.7725 91.5854 28.7725ZM91.5205 31.8017H91.7585C92.9701 31.8017 93.5111 32.3642 93.5111 33.7706V40.0019C93.5111 41.4083 92.9701 41.9709 91.7585 41.9709H91.5205C91.2176 41.9709 91.131 41.8627 91.131 41.5814V32.1911C91.131 31.8882 91.2176 31.8017 91.5205 31.8017ZM101.168 29.5731C101.168 28.9456 100.994 28.7725 100.367 28.7725H98.9823C98.3548 28.7725 98.1817 28.9456 98.1817 29.5731V44.1994C98.1817 44.8269 98.3548 45 98.9823 45H100.367C100.994 45 101.168 44.8269 101.168 44.1994V29.5731ZM111.261 40.2399V33.5326C111.261 29.8976 110.223 28.5562 107.086 28.5562C103.948 28.5562 102.91 29.8976 102.91 33.5326V40.2399C102.91 43.8965 103.948 45.2164 107.086 45.2164C110.223 45.2164 111.261 43.8965 111.261 40.2399ZM105.982 40.9756V32.9051C105.982 31.9531 106.328 31.5853 107.086 31.5853C107.843 31.5853 108.189 31.9531 108.189 32.9051V40.9756C108.189 41.8411 107.843 42.1872 107.086 42.1872C106.328 42.1872 105.982 41.8411 105.982 40.9756ZM116.263 34.5495C115.657 33.987 115.527 33.684 115.527 33.0566V32.6888C115.527 31.9098 115.873 31.5853 116.63 31.5853C117.388 31.5853 117.734 31.9315 117.734 32.7969V33.749C117.734 34.3764 117.907 34.5495 118.534 34.5495H120.006C120.633 34.5495 120.806 34.3764 120.806 33.749V33.3162C120.806 29.8327 119.768 28.5562 116.63 28.5562C113.493 28.5562 112.455 30.0707 112.455 32.7969V33.273C112.455 34.7226 112.758 35.4583 114.207 36.7348L116.804 39.0499C117.604 39.7639 117.734 40.0669 117.734 40.6727V41.0838C117.734 41.8627 117.388 42.1872 116.63 42.1872C115.873 42.1872 115.527 41.8411 115.527 40.9756V40.0236C115.527 39.3961 115.354 39.223 114.726 39.223H113.255C112.628 39.223 112.455 39.3961 112.455 40.0236V40.4563C112.455 43.9398 113.493 45.2164 116.63 45.2164C119.768 45.2164 120.806 43.7018 120.806 40.9756V40.5861C120.806 39.1365 120.482 38.3576 119.032 37.0594L116.263 34.5495Z" fill="#251302"/>
</svg>
