<svg width="295" height="31" viewBox="0 0 295 31" fill="none" xmlns="http://www.w3.org/2000/svg">
<path d="M293 3.63021C290.735 13.3858 282.797 22.8377 274.032 28.1657C266.995 32.443 261.78 19.0755 259.932 15.1814C258.529 12.2251 251.582 -2.50231 246.199 3.36966C241.999 7.95168 241.239 18.7408 233.294 18.4818C226.703 18.2669 219.345 10.0949 214.05 6.75686C211.234 4.98175 207.152 2.33773 203.532 3.02226C199.125 3.85558 196.119 9.74594 193.979 13.0102C189.857 19.2991 185.526 26.731 177.261 21.9558C173.563 19.8187 170.167 16.6857 167.341 13.6181C164.441 10.4696 160.734 4.86173 156.134 3.80392C152.583 2.98707 149.794 7.68119 148.281 9.97036C145.489 14.1944 141.93 19.7231 137.58 22.6941C131.247 27.0186 126.619 17.9328 122.883 14.3998C117.591 9.39662 112.229 3.45444 105.384 9.92694C99.2557 15.7214 93.3594 22.9889 84.0275 19.2634C76.3089 16.1821 70.101 11.2403 61.1094 13.4444C53.4229 15.3286 45.3649 23.6707 36.9053 22.2164C28.6708 20.8008 24.9168 12.3925 19.3149 7.62539C14.8865 3.85703 6.71301 8.39812 2.00001 9.88352" stroke="black" stroke-width="3.55556" stroke-linecap="round"/>
</svg>
