<svg width="329" height="95" viewBox="0 0 329 95" fill="none" xmlns="http://www.w3.org/2000/svg">
<g filter="url(#filter0_d_2032_3868)">
<rect width="324" height="90" rx="16" fill="#FEBC8D"/>
<path d="M45.72 55.48H44.76C43.4 55.48 43 55.24 42.6 54.04L40.64 47.84C40.52 47.44 40.44 47.4 40.24 47.4C40 47.4 39.92 47.48 39.92 47.84V62.52C39.92 63.68 39.6 64 38.44 64H36.2C35.04 64 34.72 63.68 34.72 62.52V35.48C34.72 34.32 35.04 34 36.2 34H38.76C40.52 34 41.08 34.4 41.6 36.08L44.76 46.48C44.88 46.84 45 46.96 45.24 46.96C45.48 46.96 45.6 46.84 45.72 46.48L48.88 36.08C49.4 34.4 49.96 34 51.72 34H54.28C55.44 34 55.76 34.32 55.76 35.48V62.52C55.76 63.68 55.44 64 54.28 64H52.04C50.88 64 50.56 63.68 50.56 62.52V47.84C50.56 47.48 50.48 47.4 50.24 47.4C50.04 47.4 49.96 47.44 49.84 47.84L47.88 54.04C47.48 55.24 47.08 55.48 45.72 55.48ZM65.0122 64C62.6922 64 62.1322 63.56 61.6922 61.48L58.7322 47.56C58.2922 45.4 58.2522 44.44 58.2522 42.44V35.48C58.2522 34.32 58.5722 34 59.7322 34H62.2922C63.4522 34 63.7722 34.32 63.7722 35.48V44.04C63.7722 44.6 63.8122 45.12 63.8922 45.72L65.5722 55.8C65.6522 56.28 65.7722 56.4 66.1322 56.4C66.4922 56.4 66.6122 56.28 66.6922 55.8L68.3722 45.72C68.4522 45.12 68.4922 44.6 68.4922 44.04V35.48C68.4922 34.32 68.8122 34 69.9722 34H72.5322C73.6922 34 74.0122 34.32 74.0122 35.48V42.44C74.0122 44.12 74.0522 45.16 73.5322 47.56L70.5722 61.48C70.1322 63.56 69.5722 64 67.2522 64H65.0122ZM83.2378 53.72H82.7178C82.1578 53.72 81.9978 53.88 81.9978 54.44V62.52C81.9978 63.68 81.6778 64 80.5178 64H77.9578C76.7978 64 76.4778 63.68 76.4778 62.52V35.48C76.4778 34.32 76.7978 34 77.9578 34H83.2378C89.3178 34 92.0778 36.2 92.0778 41.6V46.12C92.0778 51.52 89.3178 53.72 83.2378 53.72ZM81.9978 40.32V47.4C81.9978 47.96 82.1578 48.12 82.7178 48.12H83.5578C85.5178 48.12 86.3978 47.32 86.3978 45.28V42.44C86.3978 40.4 85.5178 39.6 83.5578 39.6H82.7178C82.1578 39.6 81.9978 39.76 81.9978 40.32ZM107.33 34C115.01 34 116.57 36.8 116.57 43.6V54.4C116.57 61.2 115.01 64 107.33 64H102.45C101.29 64 100.97 63.68 100.97 62.52V35.48C100.97 34.32 101.29 34 102.45 34H107.33ZM107.21 39.6C106.65 39.6 106.49 39.76 106.49 40.32V57.68C106.49 58.2 106.65 58.4 107.21 58.4H107.65C109.89 58.4 110.89 57.36 110.89 54.76V43.24C110.89 40.64 109.89 39.6 107.65 39.6H107.21ZM125.045 40.32V44.8C125.045 45.32 125.205 45.52 125.765 45.52H130.725C131.885 45.52 132.205 45.84 132.205 47V49.64C132.205 50.8 131.885 51.12 130.805 51.12H125.765C125.205 51.12 125.045 51.28 125.045 51.84V57.68C125.045 58.2 125.205 58.4 125.765 58.4H131.205C132.365 58.4 132.685 58.72 132.685 59.88V62.52C132.685 63.68 132.365 64 131.205 64H121.005C119.845 64 119.525 63.68 119.525 62.52V35.48C119.525 34.32 119.845 34 121.005 34H131.205C132.365 34 132.685 34.32 132.685 35.48V38.12C132.685 39.28 132.365 39.6 131.205 39.6H125.765C125.205 39.6 125.045 39.76 125.045 40.32ZM140.833 64C138.513 64 137.953 63.56 137.513 61.48L134.553 47.56C134.113 45.4 134.073 44.44 134.073 42.44V35.48C134.073 34.32 134.393 34 135.553 34H138.113C139.273 34 139.593 34.32 139.593 35.48V44.04C139.593 44.6 139.633 45.12 139.713 45.72L141.393 55.8C141.473 56.28 141.593 56.4 141.953 56.4C142.313 56.4 142.433 56.28 142.513 55.8L144.193 45.72C144.273 45.12 144.313 44.6 144.313 44.04V35.48C144.313 34.32 144.633 34 145.793 34H148.353C149.513 34 149.833 34.32 149.833 35.48V42.44C149.833 44.12 149.873 45.16 149.353 47.56L146.393 61.48C145.953 63.56 145.393 64 143.073 64H140.833ZM157.818 40.32V44.8C157.818 45.32 157.978 45.52 158.538 45.52H163.498C164.658 45.52 164.978 45.84 164.978 47V49.64C164.978 50.8 164.658 51.12 163.578 51.12H158.538C157.978 51.12 157.818 51.28 157.818 51.84V57.68C157.818 58.2 157.978 58.4 158.538 58.4H163.978C165.138 58.4 165.458 58.72 165.458 59.88V62.52C165.458 63.68 165.138 64 163.978 64H153.778C152.618 64 152.298 63.68 152.298 62.52V35.48C152.298 34.32 152.618 34 153.778 34H163.978C165.138 34 165.458 34.32 165.458 35.48V38.12C165.458 39.28 165.138 39.6 163.978 39.6H158.538C157.978 39.6 157.818 39.76 157.818 40.32ZM173.521 57.76C173.521 58.24 173.681 58.4 174.241 58.4H179.241C180.401 58.4 180.721 58.72 180.721 59.88V62.52C180.721 63.68 180.401 64 179.241 64H169.481C168.321 64 168.001 63.68 168.001 62.52V35.48C168.001 34.32 168.321 34 169.481 34H172.041C173.201 34 173.521 34.32 173.521 35.48V57.76ZM196.987 55.2C196.987 61.96 195.067 64.4 189.267 64.4C183.467 64.4 181.547 61.96 181.547 55.2V42.8C181.547 36.08 183.467 33.6 189.267 33.6C195.067 33.6 196.987 36.08 196.987 42.8V55.2ZM187.227 56.56C187.227 58.16 187.867 58.8 189.267 58.8C190.667 58.8 191.307 58.16 191.307 56.56V41.64C191.307 39.88 190.667 39.2 189.267 39.2C187.867 39.2 187.227 39.88 187.227 41.64V56.56ZM206.988 53.72H206.468C205.908 53.72 205.748 53.88 205.748 54.44V62.52C205.748 63.68 205.428 64 204.268 64H201.708C200.548 64 200.228 63.68 200.228 62.52V35.48C200.228 34.32 200.548 34 201.708 34H206.988C213.068 34 215.828 36.2 215.828 41.6V46.12C215.828 51.52 213.068 53.72 206.988 53.72ZM205.748 40.32V47.4C205.748 47.96 205.908 48.12 206.468 48.12H207.308C209.268 48.12 210.148 47.32 210.148 45.28V42.44C210.148 40.4 209.268 39.6 207.308 39.6H206.468C205.908 39.6 205.748 39.76 205.748 40.32ZM228.728 55.48H227.768C226.408 55.48 226.008 55.24 225.608 54.04L223.648 47.84C223.528 47.44 223.448 47.4 223.248 47.4C223.008 47.4 222.928 47.48 222.928 47.84V62.52C222.928 63.68 222.608 64 221.448 64H219.208C218.048 64 217.728 63.68 217.728 62.52V35.48C217.728 34.32 218.048 34 219.208 34H221.768C223.528 34 224.088 34.4 224.608 36.08L227.768 46.48C227.888 46.84 228.008 46.96 228.248 46.96C228.488 46.96 228.608 46.84 228.728 46.48L231.888 36.08C232.408 34.4 232.968 34 234.728 34H237.288C238.448 34 238.768 34.32 238.768 35.48V62.52C238.768 63.68 238.448 64 237.288 64H235.048C233.888 64 233.568 63.68 233.568 62.52V47.84C233.568 47.48 233.488 47.4 233.248 47.4C233.048 47.4 232.968 47.44 232.848 47.84L230.888 54.04C230.488 55.24 230.088 55.48 228.728 55.48ZM247.935 40.32V44.8C247.935 45.32 248.095 45.52 248.655 45.52H253.615C254.775 45.52 255.095 45.84 255.095 47V49.64C255.095 50.8 254.775 51.12 253.695 51.12H248.655C248.095 51.12 247.935 51.28 247.935 51.84V57.68C247.935 58.2 248.095 58.4 248.655 58.4H254.095C255.255 58.4 255.575 58.72 255.575 59.88V62.52C255.575 63.68 255.255 64 254.095 64H243.895C242.735 64 242.415 63.68 242.415 62.52V35.48C242.415 34.32 242.735 34 243.895 34H254.095C255.255 34 255.575 34.32 255.575 35.48V38.12C255.575 39.28 255.255 39.6 254.095 39.6H248.655C248.095 39.6 247.935 39.76 247.935 40.32ZM268.198 43.88C268.398 44.24 268.478 44.32 268.718 44.32C268.958 44.32 269.038 44.2 269.038 43.92V35.48C269.038 34.32 269.358 34 270.518 34H272.958C274.118 34 274.438 34.32 274.438 35.48V62.52C274.438 63.68 274.118 64 272.958 64H270.518C269.358 64 269.038 63.68 269.038 62.52V57.04C269.038 55.16 268.758 54.48 268.078 53.2L264.358 46.28C264.158 45.92 264.078 45.84 263.838 45.84C263.598 45.84 263.518 45.96 263.518 46.24V62.52C263.518 63.68 263.198 64 262.038 64H259.598C258.438 64 258.118 63.68 258.118 62.52V35.48C258.118 34.32 258.438 34 259.598 34H261.158C262.638 34 263.198 34.24 264.038 35.88L268.198 43.88ZM289.098 39.6H286.618C286.058 39.6 285.898 39.76 285.898 40.32V62.52C285.898 63.68 285.578 64 284.418 64H281.858C280.698 64 280.378 63.68 280.378 62.52V40.32C280.378 39.76 280.218 39.6 279.658 39.6H277.178C276.018 39.6 275.698 39.28 275.698 38.12V35.48C275.698 34.32 276.018 34 277.178 34H289.098C290.258 34 290.578 34.32 290.578 35.48V38.12C290.578 39.28 290.258 39.6 289.098 39.6Z" fill="#33322E"/>
<rect x="0.708861" y="0.708861" width="322.582" height="88.5823" rx="15.2911" stroke="#33322E" stroke-width="1.41772"/>
</g>
<defs>
<filter id="filter0_d_2032_3868" x="0" y="0" width="328.253" height="94.2532" filterUnits="userSpaceOnUse" color-interpolation-filters="sRGB">
<feFlood flood-opacity="0" result="BackgroundImageFix"/>
<feColorMatrix in="SourceAlpha" type="matrix" values="0 0 0 0 0 0 0 0 0 0 0 0 0 0 0 0 0 0 127 0" result="hardAlpha"/>
<feOffset dx="4.25316" dy="4.25316"/>
<feColorMatrix type="matrix" values="0 0 0 0 0.2 0 0 0 0 0.196078 0 0 0 0 0.180392 0 0 0 1 0"/>
<feBlend mode="normal" in2="BackgroundImageFix" result="effect1_dropShadow_2032_3868"/>
<feBlend mode="normal" in="SourceGraphic" in2="effect1_dropShadow_2032_3868" result="shape"/>
</filter>
</defs>
</svg>
